<svg version="1.1" id="Layer_1" xmlns:x="ns_extend;" xmlns:i="ns_ai;" xmlns:graph="ns_graphs;" xmlns="http://www.w3.org/2000/svg" xmlns:xlink="http://www.w3.org/1999/xlink" x="0px" y="0px" viewBox="0 0 653.4 100" style="enable-background:new 0 0 653.4 100;" xml:space="preserve">
 <style type="text/css">
  .st0{fill:url(#SVGID_1_);}
	.st1{fill:url(#SVGID_2_);}
	.st2{fill:url(#SVGID_3_);}
	.st3{fill:url(#SVGID_4_);}
	.st4{fill:#36495A;}
 </style>
 <metadata>
  <sfw xmlns="ns_sfw;">
   <slices>
   </slices>
   <sliceSourceBounds bottomLeftOrigin="true" height="100" width="653.4" x="-443.4" y="13.9">
   </sliceSourceBounds>
  </sfw>
 </metadata>
 <g>
  <g>
   <g>
    <g>
     <linearGradient id="SVGID_1_" gradientUnits="userSpaceOnUse" x1="616.7251" y1="117.6004" x2="616.7251" y2="52.767" gradientTransform="matrix(1 0 0 -1 0 174.4)">
      <stop offset="0" style="stop-color:#ED1C24">
      </stop>
      <stop offset="0.1263" style="stop-color:#E81B23">
      </stop>
      <stop offset="0.2703" style="stop-color:#DB1A21">
      </stop>
      <stop offset="0.4229" style="stop-color:#C4171D">
      </stop>
      <stop offset="0.5816" style="stop-color:#A41317">
      </stop>
      <stop offset="0.7436" style="stop-color:#7B0E10">
      </stop>
      <stop offset="0.7546" style="stop-color:#780E0F">
      </stop>
     </linearGradient>
     <path class="st0" d="M598.9,90.7c5.7,9.3,14.7,9.3,17.2,9.3h29.4l-34.8-41.9c-16.1,0.7-24.4,10.8-22.6,15.1L598.9,90.7z">
     </path>
     <linearGradient id="SVGID_2_" gradientUnits="userSpaceOnUse" x1="587.4258" y1="112.2136" x2="611.0817" y2="112.2136" gradientTransform="matrix(1 0 0 -1 0 174.4)">
      <stop offset="0" style="stop-color:#69231D">
      </stop>
      <stop offset="0.2647" style="stop-color:#8D2922">
      </stop>
      <stop offset="0.5812" style="stop-color:#B22F26">
      </stop>
      <stop offset="0.8377" style="stop-color:#C93329">
      </stop>
      <stop offset="1" style="stop-color:#D1342A">
      </stop>
     </linearGradient>
     <path class="st1" d="M588.5,73.1c0,0-1.1-2.2-1.1-4.7c0-9.7,8.6-15.1,18.3-17.2l5.4,6.8C595,58.4,586.7,68.8,588.5,73.1z">
     </path>
     <linearGradient id="SVGID_3_" gradientUnits="userSpaceOnUse" x1="584.9641" y1="115.434" x2="611.3297" y2="131.2763" gradientTransform="matrix(1 0 0 -1 0 174.4)">
      <stop offset="0.1" style="stop-color:#E7EBEE">
      </stop>
      <stop offset="0.3511" style="stop-color:#D5DCE0">
      </stop>
      <stop offset="0.8549" style="stop-color:#A5B4BB">
      </stop>
      <stop offset="1" style="stop-color:#96A7B0">
      </stop>
     </linearGradient>
     <path class="st2" d="M601.8,41.9c-14.7,0-25.4,2.5-25.4,8.2c0,2.2,0.7,3.9,2.5,7.2l9.7,16.1c0,0-1.1-2.2-1.1-4.7
					c0-9.7,8.6-15.1,18.3-17.2c2.9-0.7,5.7-0.7,8.6-0.7c2.5,0,4.7,0,6.5,0.7C619.4,47.3,616.8,41.9,601.8,41.9z">
     </path>
     <linearGradient id="SVGID_4_" gradientUnits="userSpaceOnUse" x1="570.4301" y1="129.0039" x2="570.4301" y2="173.7953" gradientTransform="matrix(1 0 0 -1 0 174.4)">
      <stop offset="0" style="stop-color:#1C2F72">
      </stop>
      <stop offset="0.1275" style="stop-color:#174687">
      </stop>
      <stop offset="0.4038" style="stop-color:#0D72AF">
      </stop>
      <stop offset="0.6512" style="stop-color:#0692CC">
      </stop>
      <stop offset="0.8584" style="stop-color:#02A6DE">
      </stop>
      <stop offset="1" style="stop-color:#00ADE4">
      </stop>
     </linearGradient>
     <path class="st3" d="M563.4,31.9c3.9,6.5,5.4,8.2,15.1,8.2c7.2,0,18.3,0,18.3,0L571.7,8.2c-5.7-6.8-8.6-8.2-14-8.2h-13.6
					L563.4,31.9z">
     </path>
    </g>
   </g>
   <path class="st4" d="M283.9,79.9v-24c0-4.7-2.2-7.5-6.1-7.5c-5,0-8.6,5.4-8.6,12.9v18.3h-8.6c0,0,0-26.5,0-27.2
			c0-2.9-0.4-7.5-0.4-10c0,0,3.9,0,6.8,0c0.7,0,1.1,0.4,1.1,1.1c0,0.7,0,4.7,0,4.7h0.4c1.1-1.8,3.6-6.5,11.5-6.5S292.5,47,292.5,53
			v26.2h-8.6V79.9z M217.9,72c0.4,0,0.7,0,0.7,0.7c0,1.8,0.4,4.7,0.4,5.7c-1.8,0.7-5.4,2.5-9.7,2.5c-11.1,0-18.3-6.5-18.3-19.4
			c0-11.8,6.1-19.4,18.3-19.4c3.9,0,7.5,1.4,9.7,2.5c0,1.4,0,4.3-0.4,5.7c0,0.4-0.4,0.7-0.7,0.7c-0.4,0-0.4,0-0.7,0
			c-2.9-1.4-5.4-2.2-7.5-2.2c-7.2,0-10,4.7-10,12.5c0,7.2,2.5,12.5,10,12.5c2.9,0,5.7-1.1,7.2-1.8C217.6,72,217.9,72,217.9,72z
			 M247.3,79.9c-0.7,0-1.1-0.4-1.4-1.1c0-1.1-0.4-3.6-0.4-3.6l0,0c-0.4,0.7-3.6,5.4-11.1,5.4c-7.5,0-11.5-5.7-11.5-11.8
			c0-8.6,8.2-12.9,20.8-12.9h1.8v-1.4c0-3.9-2.9-6.1-7.9-6.1c-4.7,0-8.6,1.8-10,2.5c0,0-0.4,0.4-0.7,0.4c-0.4,0-0.7-0.4-0.7-0.7
			c0-1.4-0.4-3.9-0.4-5.7c1.4-0.7,6.5-2.5,12.2-2.5c11.1,0,15.8,5,15.8,13.3v14.3c0,5.4,0.4,8.6,0.7,10
			C254.5,79.9,247.7,79.9,247.3,79.9z M245.2,61.3h-1.4c-10.8,0-12.5,3.6-12.5,7.5c0,3.2,2.2,6.1,6.1,6.1c5.4,0,8.2-5,8.2-10.4v-3.2
			H245.2z M139.4,72c0.4,0,0.7,0.4,0.7,0.7c0,1.4,0.4,5,0.4,6.1c-1.1,0.4-5.4,1.8-11.5,1.8c-11.8,0-19-6.1-19-19.4
			c0-11.1,6.1-19.4,16.8-19.4c10.8,0,15.8,7.2,15.8,16.1c0,1.1,0,2.9-0.4,5h-23.7c0,6.5,3.9,10.8,11.5,10.8c3.9,0,7.5-1.4,8.6-2.2
			C139.1,72,139.1,72,139.4,72z M118.6,57.7h15.8c0.4-6.1-2.9-9.3-7.5-9.3C121.9,48.4,119,52,118.6,57.7z M95.3,79.9V56.3
			c0-4.3-1.8-7.5-6.1-7.5c-5,0-7.9,5.4-7.9,12.9v18.3h-8.6v-24c0-3.9-1.8-7.5-6.1-7.5c-5,0-7.9,5.4-7.9,13.3v18.3h-8.6
			c0,0,0-23.3,0-26.9s-0.4-8.6-0.4-10c0,0,4.3,0,6.8,0c0.7,0,1.1,0.4,1.1,1.1c0,1.1,0,4.7,0,4.7h0.4c0.4-1.1,3.2-6.5,11.1-6.5
			c7.2,0,10,5,10.8,6.8c0.7-1.4,3.9-6.8,11.1-6.8c7.5,0,12.5,3.9,12.5,12.2v25.8h-8.2V79.9z M157.7,62v18.3h-8.6c0,0,0-25.1,0-27.6
			c0-2.5-0.4-7.9-0.4-9.7c0,0,3.6,0,6.8,0c0.7,0,1.1,0.4,1.1,1.1c0,1.1,0,4.7,0,4.7h0.4c0.7-1.4,3.2-6.5,10-6.5
			c2.5,0,3.9,0.7,4.3,0.7c0,1.4,0,5-0.4,6.1c0,0.7-0.4,0.7-0.7,0.7s-0.4,0-0.7,0c-0.4-0.4-1.8-0.7-3.6-0.7
			C161.6,49.1,157.7,52.3,157.7,62z M175.6,79.9V43h8.6v37.3h-8.6V79.9z M175.6,37.6v-8.2h8.6v8.2H175.6z M37.6,79.9l-3.9-11.1H12.9
			L9,79.9H0l19-48.7h9.7L47,79.9H37.6z M23.7,40.1L23.7,40.1l-7.9,22.2h15.8L23.7,40.1z M520.8,80.6c11.1,0,16.1-4.7,16.1-11.1
			s-4.7-9.3-9.7-11.1c-1.4-0.4-2.9-1.1-3.9-1.4c-3.2-1.1-5-2.5-5-4.7c0-2.2,2.2-3.9,6.5-3.9c3.9,0,7.2,1.4,8.2,2.2
			c0.4,0,0.4,0.4,0.7,0.4c0.4,0,0.7,0,0.7-0.7c0-1.1,0.4-3.6,0.4-5.7c-1.1-0.4-4.7-2.5-10.8-2.5c-9,0-14.7,4.7-14.7,11.1
			c0,6.1,4.3,9,8.6,10.4c1.1,0.4,2.9,1.1,3.9,1.4c4.7,1.4,6.1,2.9,6.1,5.4c0,2.9-3.2,4.3-8.2,4.3c-4.3,0-7.2-1.4-8.6-2.2
			c-0.4,0-0.4-0.4-0.7-0.4c-0.7,0-0.7,0.7-0.7,1.1c0,0.4-0.4,4.3-0.4,5.4C510.4,78.9,515.1,80.6,520.8,80.6z M501.1,72
			c0.4,0,0.7,0.4,0.7,0.7c0,1.4,0.4,5,0.4,6.1c-1.1,0.4-5.4,1.8-11.5,1.8c-11.8,0-19-6.1-19-19.4c0-11.5,6.1-19.4,16.8-19.4
			s15.8,7.2,15.8,16.1c0,1.1,0,2.9-0.4,5h-23.7c0,6.5,3.9,10.8,11.5,10.8c3.9,0,7.5-1.4,8.6-2.2C500.4,72,500.7,72,501.1,72z
			 M480.3,57.7h15.8c0.4-6.1-2.9-9.3-7.5-9.3C483.2,48.4,480.3,52,480.3,57.7z M456.6,79.9v-24c0-4.7-2.2-7.5-6.1-7.5
			c-5,0-8.6,5.4-8.6,12.9v18.3h-8.6c0,0,0-26.5,0-27.2c0-2.9-0.4-7.5-0.4-9.7c0,0,3.9,0,6.8,0c0.7,0,1.1,0.4,1.1,1.1
			c0,0.7,0,4.7,0,4.7h0.4c1.1-1.8,3.6-6.5,11.5-6.5s12.5,5.4,12.5,11.5v26.2h-8.6V79.9z M379.9,62v18.3h-8.6c0,0,0-25.1,0-27.6
			c0-2.5-0.4-7.5-0.4-9.7c0,0,3.6,0,6.8,0c0.7,0,1.1,0.4,1.1,1.1c0,1.1,0,4.7,0,4.7h0.4c0.7-1.4,3.2-6.5,10-6.5
			c2.5,0,3.9,0.7,4.3,0.7c0,1.4,0,5-0.4,6.1c0,0.7-0.4,0.7-0.7,0.7c-0.4,0-0.4,0-0.7,0c-0.4-0.4-1.8-0.7-3.6-0.7
			C384.2,49.1,379.9,52.3,379.9,62z M406.8,79.9V29.4h-8.6v50.5H406.8z M354.1,79.9V43h8.6v37.3h-8.6V79.9z M353.8,37.6v-8.2h8.6
			v8.2H353.8z M416.1,79.9V43h8.6v37.3h-8.6V79.9z M416.1,37.6v-8.2h8.6v8.2H416.1z M341.2,79.9l-3.9-11.1h-20.8l-3.9,11.1h-9
			l18.6-48.7h9.7l18.3,48.7H341.2z M326.9,40.1L326.9,40.1L319,62.4h16.1L326.9,40.1z">
   </path>
   <g>
    <path class="st4" d="M653.4,97.8c0,1.1-1.1,2.2-2.2,2.2c-1.1,0-2.2-1.1-2.2-2.2c0-1.1,1.1-2.2,2.2-2.2
				C652.7,95.3,653.4,96.4,653.4,97.8z M649.5,97.8c0,1.1,0.7,1.8,1.8,1.8c1.1,0,1.8-0.7,1.8-1.8c0-1.1-0.7-1.8-1.8-1.8
				S649.5,96.8,649.5,97.8z M651.3,97.8L651.3,97.8l-0.4,1.1h-0.4v-2.2c0,0,0.4,0,0.7,0c0.4,0,0.7,0.4,0.7,0.7
				c0,0.4-0.4,0.7-0.4,0.7l0.7,1.1H652L651.3,97.8z M651.3,97.5c0.4,0,0.4,0,0.4-0.4c0-0.4,0-0.4-0.4-0.4l0,0V97.5
				C650.9,97.5,651.3,97.5,651.3,97.5z">
    </path>
   </g>
  </g>
 </g>
</svg>