<svg version="1.1" id="svg2472" xmlns:x="ns_extend;" xmlns:i="ns_ai;" xmlns:graph="ns_graphs;" xmlns:svg="http://www.w3.org/2000/svg" xmlns="http://www.w3.org/2000/svg" xmlns:xlink="http://www.w3.org/1999/xlink" x="0px" y="0px" viewBox="0 0 382.2 100" style="enable-background:new 0 0 382.2 100;" xml:space="preserve">
 <style type="text/css">
  .st0{fill:#003058;}
	.st1{fill:#A5152B;}
	.st2{fill:#C70D2C;}
	.st3{fill:#E57204;}
	.st4{fill:#F1C403;}
	.st5{fill:#008262;}
	.st6{fill:#0185AD;}
	.st7{fill:#5F376E;}
	.st8{fill:#888B8E;}
 </style>
 <metadata>
  <sfw xmlns="ns_sfw;">
   <slices>
   </slices>
   <sliceSourceBounds bottomLeftOrigin="true" height="100" width="382.2" x="533.9" y="-209.3">
   </sliceSourceBounds>
  </sfw>
 </metadata>
 <g>
  <path id="path1603" class="st0" d="M358.8,32.1c-9.5,0-10.9,6.7-10.9,14.9c0,8.3,1.4,14.7,10.9,14.7c9.7,0,11-6.5,11-14.7
		C369.8,38.8,368.5,32.1,358.8,32.1 M358.8,71.7c-19.2,0-23.2-12-23.2-24.7c0-12.8,4.1-24.7,23.2-24.7c19.2,0,23.4,11.9,23.4,24.8
		C382.2,59.8,378,71.7,358.8,71.7 M309,32.9h-6.1V45h6.1c6.7,0,8.1-3.2,8.1-6C317.1,36,315.7,32.9,309,32.9 M316.6,71l-13.8-18.2V71
		h-12.2V22.9h18.4c18.5,0,20.3,9.8,20.3,16.1c0,5.3-1.9,13.7-13.4,14.4L331.5,71L316.6,71z M277.6,71l-3.2-6.9
		c-2.8,4.9-8.1,7.6-14.1,7.6c-17.4,0-21.7-12-21.7-24.7c0-12.8,4-24.7,22.5-24.7c16.2,0,21.9,7.8,21.9,16.9h-12.4
		c-0.6-4.4-2.6-6.9-9.5-6.9c-8.9,0-10.2,6.5-10.2,14.7c0,8.3,1.4,14.7,10.2,14.7c5.9,0,9.6-3.4,9.8-9.1h-11.3v-9.4h23.6V71H277.6z
		 M199.3,71V22.9h34.8v9.9h-22.7v8.9h20.4v9.4h-20.4v9.9h22.7V71H199.3z M165.1,71V22.9h12.3l-0.2,38.2h16V71H165.1z M130.9,71V22.9
		h12.3L143,61.1h16V71H130.9z M101.6,33.5l-6.5,20.3h13.2L101.6,33.5z M113.6,71l-2.6-8.3H92.5L89.8,71H77.1l17-48.1h15.3l17,48.1
		L113.6,71z">
  </path>
  <path id="path1607" class="st1" d="M47.6,77.4v4.8c2.6-0.8,5.1-1.9,7.4-3.2v-1.6H47.6z M18.7,77.4v1.7c2.3,1.3,4.8,2.4,7.4,3.2
		v-4.9H18.7z M28.3,77.4v5.5c2.4,0.6,4.9,0.9,7.4,1v-6.5H28.3z M37.9,77.4v6.4c2.5-0.1,5-0.4,7.4-1v-5.5H37.9z">
  </path>
  <path id="path1615" class="st2" d="M18.7,67.7v7.4h7.4v-7.4H18.7z M28.3,67.7v7.4h7.4v-7.4H28.3z M37.9,67.7v7.4h7.4v-7.4H37.9z
		 M47.6,67.7v7.4H55v-7.4H47.6z M57.2,67.7v7.4h3.3c1.5-1.2,2.8-2.6,4.1-4.1v-3.4H57.2z M9,67.7v3.6c1.2,1.4,2.5,2.7,3.9,3.9h3.5
		v-7.4H9z">
  </path>
  <path id="path1623" class="st3" d="M1.6,58c0.8,2.6,1.9,5.1,3.2,7.4h1.9V58H1.6z M9,58v7.4h7.4V58H9z M18.7,58v7.4h7.4V58H18.7z
		 M28.3,58v7.4h7.4V58H28.3z M37.9,58v7.4h7.4V58H37.9z M47.6,58v7.4H55V58H47.6z M57.2,58v7.4h7.4V58H57.2z M66.9,58v7.4h1.7
		c1.3-2.3,2.4-4.8,3.2-7.4H66.9z">
  </path>
  <path id="path1633" class="st4" d="M0,48.3c0.1,2.5,0.4,5,1,7.4h5.8v-7.4L0,48.3z M9,48.3v7.4h7.4v-7.4L9,48.3z M18.7,48.3v7.4h7.4
		v-7.4L18.7,48.3z M28.3,48.3v7.4h7.4v-7.4L28.3,48.3z M37.9,48.3v7.4h7.4v-7.4L37.9,48.3z M47.6,48.3v7.4H55v-7.4L47.6,48.3z
		 M57.2,48.3v7.4h7.4v-7.4L57.2,48.3z M66.9,48.3v7.4h5.6c0.6-2.4,0.9-4.9,1-7.4L66.9,48.3z">
  </path>
  <path id="path1679" class="st5" d="M1,38.5c-0.6,2.4-0.9,4.9-1,7.4h6.8v-7.4L1,38.5z M9,38.5V46h7.4v-7.4L9,38.5z M18.7,38.5V46
		h7.4v-7.4L18.7,38.5z M28.3,38.5V46h7.4v-7.4L28.3,38.5z M37.9,38.5V46h7.4v-7.4L37.9,38.5z M47.6,38.5V46H55v-7.4L47.6,38.5z
		 M57.2,38.5V46h7.4v-7.4L57.2,38.5z M66.9,38.5V46h6.6c-0.1-2.5-0.4-5-1-7.4L66.9,38.5z">
  </path>
  <path id="path1689" class="st6" d="M9,28.8v7.4h7.4v-7.4H9z M18.7,28.8v7.4h7.4v-7.4H18.7z M28.3,28.8v7.4h7.4v-7.4H28.3z
		 M37.9,28.8v7.4h7.4v-7.4H37.9z M47.6,28.8v7.4H55v-7.4H47.6z M57.2,28.8v7.4h7.4v-7.4H57.2z M4.8,28.8c-1.3,2.3-2.4,4.8-3.2,7.4
		h5.1v-7.4H4.8z M66.9,28.8v7.4h5c-0.8-2.6-1.9-5.1-3.2-7.4H66.9z">
  </path>
  <path id="path1699" class="st0" d="M12.9,19.1c-1.4,1.2-2.7,2.5-3.9,3.9v3.6h7.4v-7.4L12.9,19.1z M57.2,19.1v7.4h7.4v-3.3
		c-1.3-1.5-2.6-2.8-4.1-4.1L57.2,19.1z M18.7,19.1v7.4h7.4v-7.4H18.7z M28.3,19.1v7.4h7.4v-7.4H28.3z M37.9,19.1v7.4h7.4v-7.4H37.9z
		 M47.6,19.1v7.4H55v-7.4H47.6z">
  </path>
  <path id="path1707" class="st7" d="M35.7,10.4c-2.5,0.1-5,0.4-7.4,1v5.5h7.4V10.4z M37.9,10.4v6.4h7.4v-5.5
		C42.9,10.8,40.5,10.5,37.9,10.4z M26.1,11.9c-2.6,0.8-5.1,1.9-7.4,3.2v1.7h7.4V11.9z M47.6,12v4.8H55v-1.6
		C52.7,13.9,50.2,12.8,47.6,12z">
  </path>
  <path id="path1751" class="st1" d="M241.1,75.1c-0.7,0-1.3,0.4-1.3,1.2c0,0.8,0.6,1.2,1.3,1.2s1.3-0.5,1.3-1.2
		C242.4,75.5,241.9,75.1,241.1,75.1z M327.5,77.1l-2,0.5v3h-2.2l-0.5,1.7h2.6v7.1c0,3.9,1.3,5.5,4.4,5.5c0.5,0,1,0,1.6,0l0.4-1.8
		c-3.1,0.3-4.3-0.2-4.3-3.7v-7.1h4.1v-1.7h-4.1V77.1z M222.7,80.3c-1.2,0-3,0.4-4,2.3v-2.1h-2v14.1h2v-8.5c0-3.3,2.1-4.1,3.5-4.1
		c2.1,0,3.3,1.2,3.3,4v8.6h2v-8.4c0-3.2,2-4.2,3.6-4.2c2.1,0,3.3,1.4,3.3,4v8.6h2v-8.6c0-3.8-2.1-5.7-5.1-5.7
		c-1.6,0-3.6,0.7-4.5,2.8C226,81.3,224.6,80.3,222.7,80.3L222.7,80.3z M290.4,80.3c-2.6,0-5,1.2-5,3.7c0,5.1,8.1,3.1,8.1,6.8
		c0,1.5-1.3,2.3-3.3,2.3c-1.2,0-2.9-0.4-4.3-1.3c-0.1,0.1-0.7,1-1.1,1.5c2.1,1.3,4,1.7,5.5,1.7c3.1,0,5.4-1.5,5.4-4.2
		c0-5.1-8.2-3.3-8.2-6.7c0-1.5,1.6-2,3-2c1.2,0,2.8,0.4,4,1.3c0.1-0.6,0.2-1.2,0.3-1.8C293.8,80.9,292,80.3,290.4,80.3L290.4,80.3z
		 M316.5,80.3c-2.6,0-5,1.2-5,3.7c0,5.1,8.1,3.1,8.1,6.8c0,1.5-1.3,2.3-3.3,2.3c-1.2,0-2.9-0.4-4.3-1.3c-0.1,0.1-0.7,1-1.1,1.5
		c2.1,1.3,4,1.7,5.5,1.7c3.1,0,5.4-1.5,5.4-4.2c0-5.1-8.2-3.3-8.2-6.7c0-1.5,1.6-2,3-2c1.2,0,2.8,0.4,4,1.3c0.1-0.6,0.2-1.2,0.3-1.8
		C319.9,80.9,318.2,80.3,316.5,80.3L316.5,80.3z M354.5,80.3c-1.2,0-3,0.4-4,2.3v-2.1h-2v14.1h2v-8.5c0-3.3,2.1-4.1,3.5-4.1
		c2.1,0,3.3,1.2,3.3,4v8.6h2v-8.4c0-3.2,2-4.2,3.6-4.2c2.1,0,3.3,1.4,3.3,4v8.6h2v-8.6c0-3.8-2.1-5.7-5.1-5.7
		c-1.6,0-3.6,0.7-4.5,2.8C357.9,81.3,356.4,80.3,354.5,80.3L354.5,80.3z M376.2,80.3c-2.6,0-5,1.2-5,3.7c0,5.1,8.1,3.1,8.1,6.8
		c0,1.5-1.3,2.3-3.3,2.3c-1.2,0-2.9-0.4-4.3-1.3c-0.1,0.1-0.7,1-1.1,1.5c2.1,1.3,4,1.7,5.5,1.7c3.1,0,5.4-1.5,5.4-4.2
		c0-5.1-8.2-3.3-8.2-6.7c0-1.5,1.6-2,3-2c1.2,0,2.8,0.4,4,1.3c0.1-0.6,0.2-1.2,0.3-1.8C379.6,80.9,377.9,80.3,376.2,80.3L376.2,80.3
		z M252.8,80.3c-4.3,0-7.4,2.7-7.4,7.3c0,4.6,3.1,7.3,7.4,7.3c1.7,0,3.4-0.4,5.2-1.7l-0.9-1.6c-0.8,0.5-2.3,1.5-4.3,1.5
		c-3.1,0-5.4-2-5.4-5.6c0-3.5,2.3-5.5,5.4-5.5c2.1,0,3.7,1.1,4.3,1.4l0.4-1.8C256.8,81.3,255.1,80.3,252.8,80.3z M275.5,80.4
		c-4,0-7.3,2.6-7.3,7.3c0,4.7,3.2,7.3,7.3,7.3c4,0,7.3-2.6,7.3-7.3C282.8,83,279.6,80.4,275.5,80.4L275.5,80.4z M339.1,80.4
		c-3.8,0-6.7,2.9-6.7,7.3c0,4.5,2.8,7.3,7.4,7.3c1.9,0,3.3-0.4,5.1-1.7l-1-1.5c-1,0.8-2.2,1.5-4.1,1.5c-3.2,0-5.4-1.9-5.4-5.2h11
		c0-0.3,0-1,0-1.7C345.1,82.7,342.7,80.4,339.1,80.4z M267.1,80.4c-2.1,0.1-3.8,1.2-4.5,3.1v-2.9h-2v14.1h2v-6.3
		c0-3.2,1.1-6.6,5-6.1l0.4-1.8C267.7,80.4,267.4,80.4,267.1,80.4L267.1,80.4z M240.1,80.6v14.1h2V80.6H240.1z M295.9,80.6l6.3,12.7
		l-3.3,6.3l2.1,0.4l9.7-19.4h-2.2l-5.1,10.6l-5.1-10.6L295.9,80.6z M339.1,82c2.4,0,4.3,1.4,4.4,4.3h-9
		C334.9,83.6,336.8,82,339.1,82z M275.5,82.2c2.9,0,5.2,2,5.2,5.5c0,3.5-2.3,5.5-5.2,5.5c-2.9,0-5.2-1.9-5.2-5.5
		C270.3,84.1,272.6,82.2,275.5,82.2z">
  </path>
  <path id="path1795" class="st8" d="M224.1,0c-2.4,0-4.5,1.7-4.5,4.5c0,2.8,2,4.5,4.5,4.5c2.4,0,4.5-1.7,4.5-4.5
		C228.6,1.7,226.5,0,224.1,0z M263.2,0c-2.4,0-4.5,1.7-4.5,4.5c0,2.8,2,4.5,4.5,4.5c2.4,0,4.5-1.7,4.5-4.5
		C267.7,1.7,265.7,0,263.2,0z M360.8,0c-2.4,0-4.5,1.7-4.5,4.5c0,2.8,2,4.5,4.5,4.5c2.4,0,4.5-1.7,4.5-4.5
		C365.3,1.7,363.2,0,360.8,0z M370.6,0c-0.8,0-1.5,0.2-2,0.6c-0.5,0.4-0.8,1-0.8,1.7c0,0.7,0.3,1.2,0.6,1.5c0.3,0.3,0.7,0.5,0.9,0.6
		c0.3,0.2,0.9,0.4,1.4,0.6c0.4,0.2,1.4,0.5,1.4,1.4c0,0.9-0.7,1.5-1.7,1.5s-1.8-0.7-2.2-1.2l-0.7,0.8c0.4,0.5,1.3,1.5,2.8,1.5
		c0.9,0,1.6-0.2,2.1-0.7c0.6-0.5,0.9-1.1,0.9-1.9c0-0.7-0.3-1.1-0.5-1.5c-0.3-0.3-0.8-0.6-1-0.7l-1.6-0.7C369.6,3.3,369,3,369,2.2
		c0-0.8,0.7-1.2,1.5-1.2c0.9,0,1.5,0.5,1.9,0.9l0.6-0.8C372.8,0.9,372,0,370.6,0z M241.7,0.1l-3.5,8.7h1.3l0.9-2.3h3.7l0.9,2.3h1.4
		l-3.5-8.7L241.7,0.1z M194.7,0.1v8.6h1.2V0.1H194.7z M199.1,0.1v8.6h1.2V4.2c0-1.1,0-2.3,0-2.3l5,6.9h1.2V0.1h-1.2v4.6
		c0,1.1,0,2.2,0,2.2l-4.9-6.8H199.1z M209.6,0.1v8.6h1.2V4.2c0-1.1,0-2.3,0-2.3l5,6.9h1.2V0.1h-1.2v4.6c0,1.1,0,2.2,0,2.2l-4.9-6.8
		H209.6z M246.5,0.1v1h2.4v7.6h1.2V1.1h2.4v-1H246.5z M254.9,0.1v8.6h1.2V0.1H254.9z M270.4,0.1v8.6h1.2V4.2c0-1.1,0-2.3,0-2.3
		l5,6.9h1.2V0.1h-1.2v4.6c0,1.1,0,2.2,0,2.2l-4.9-6.8H270.4z M297.5,0.1v8.6h1.2V0.1H297.5z M301,0.1v1h2.4v7.6h1.2V1.1h2.4v-1H301z
		 M309.4,0.1v8.6h1.2v-4h4.6v4h1.2V0.1h-1.2v3.6h-4.6V0.1H309.4z M375.9,0.1v8.6h5.2v-1h-3.9v-3h3.6v-1h-3.6V1.1h3.8v-1H375.9z
		 M230,0.1l3.2,8.7h1.1l3.2-8.7h-1.3L233.7,7l-2.4-6.9L230,0.1z M283.8,0.1l2.5,8.7h1.2l2.1-7l2.1,7h1.2l2.5-8.7H294l-1.9,6.8
		l-2-6.8h-1.2l-2,6.8L285,0.1L283.8,0.1z M323.4,0.1v8.6h1.2V5.1h1.2c0.8,0,1.6-0.2,2.1-0.6c0.5-0.5,0.8-1,0.8-1.9
		c0-0.8-0.3-1.4-0.8-1.9c-0.5-0.5-1.3-0.6-2.1-0.6L323.4,0.1z M331.2,0.1v5.1c0,1.1,0.1,1.9,0.7,2.6c0.6,0.7,1.4,1.1,2.6,1.1
		c1.1,0,2-0.4,2.6-1.1c0.6-0.7,0.7-1.6,0.7-2.6V0.1h-1.2v5c0,0.7,0,1.4-0.4,1.9c-0.4,0.5-0.9,0.8-1.7,0.8c-0.8,0-1.3-0.3-1.7-0.8
		c-0.4-0.5-0.4-1.2-0.4-1.9v-5H331.2z M340.9,0.1v8.6h1.2V5.1h0.9l2.3,3.7h1.5l-2.5-3.8c0.9-0.2,2-0.9,2-2.4c0-0.8-0.3-1.4-0.8-1.8
		c-0.5-0.4-1.2-0.6-2.1-0.6L340.9,0.1z M348.9,0.1v8.6h1.2V5.1h1.2c0.8,0,1.6-0.2,2.1-0.6c0.5-0.5,0.8-1,0.8-1.9
		c0-0.8-0.3-1.4-0.8-1.9c-0.5-0.5-1.3-0.6-2.1-0.6H348.9z M224.1,1.1c1.8,0,3.2,1.3,3.2,3.4c0,2.1-1.5,3.4-3.2,3.4
		c-1.8,0-3.2-1.3-3.2-3.4C220.9,2.3,222.4,1.1,224.1,1.1z M263.2,1.1c1.8,0,3.2,1.3,3.2,3.4c0,2.1-1.5,3.4-3.2,3.4
		c-1.8,0-3.2-1.3-3.2-3.4C260,2.3,261.5,1.1,263.2,1.1z M360.8,1.1c1.8,0,3.2,1.3,3.2,3.4c0,2.1-1.5,3.4-3.2,3.4
		c-1.8,0-3.2-1.3-3.2-3.4C357.6,2.3,359,1.1,360.8,1.1z M324.6,1.1h1.1c0.6,0,0.9,0.1,1.3,0.3c0.3,0.2,0.5,0.6,0.5,1.1
		c0,0.5-0.2,0.9-0.5,1.2c-0.3,0.2-0.7,0.3-1.3,0.3h-1.1V1.1z M342.1,1.1h0.9c0.6,0,1.1,0,1.5,0.3c0.4,0.3,0.6,0.6,0.6,1.2
		c0,0.5-0.2,0.9-0.6,1.2C344.1,4,343.6,4,343,4h-0.9V1.1z M350.1,1.1h1.1c0.6,0,0.9,0.1,1.3,0.3c0.3,0.2,0.5,0.6,0.5,1.1
		c0,0.5-0.2,0.9-0.5,1.2c-0.3,0.2-0.7,0.3-1.3,0.3h-1.1V1.1z M242.2,1.6l1.5,3.9h-3L242.2,1.6z">
  </path>
 </g>
</svg>