<svg version="1.1" id="Layer_1" xmlns="http://www.w3.org/2000/svg" xmlns:xlink="http://www.w3.org/1999/xlink" x="0px" y="0px" viewBox="0 0 225.9 56.9" style="enable-background:new 0 0 225.9 56.9;" xml:space="preserve">
 <style type="text/css">
  .st0{fill:#347DA2;}
 </style>
 <g>
  <path class="st0" d="M36.9,15.8l-33,0L0,19.7h0l0,0v17.2c0,10,7.6,18.3,17.6,19.5l3.7-3.8l-1.1,0C11.3,52.6,4,45.6,4,36.9V19.7h4
		l0,17.2c0,6.5,5.4,11.8,12.1,11.8h5.1l3.9-3.9h-9c-4.5,0-8.1-3.5-8.1-7.9V19.7h4v17.2c0,2.2,1.8,3.9,4,3.9H33l3.9-3.9l-16.7,0V19.7
		h16.8v36.9h4l0-36.9C41,17.5,39.2,15.8,36.9,15.8 M57.1,56.6V19.7C57.1,8.8,48.1,0,36.9,0H19.5l-3.9,3.9l21.3,0
		c8.9,0,16.1,7.1,16.1,15.8v36.9H57.1z M36.9,7.9l-25.2,0l-3.9,3.9l29.1,0c4.5,0,8,3.5,8,7.9v36.9h4l0-36.9
		C49,13.2,43.6,7.9,36.9,7.9">
  </path>
  <path class="st0" d="M171.5,49.4l3.6-7.9l3.5,7.9H171.5z M176.3,38.1l-0.1-0.2H176h-1.9h-0.2l-0.1,0.2l-8.2,18l-0.2,0.5h0.5h2.1
		h0.2l0.1-0.2l2-4.5h9.3l2,4.5l0.1,0.2h0.2h2.2h0.5l-0.2-0.5L176.3,38.1z M107.3,38h-0.3v0.3v1.9v0.3h0.3h5.7v15.7v0.3h0.3h2h0.4
		v-0.3V40.6h5.7h0.3v-0.3v-1.9V38h-0.3H107.3z M123.1,11.2h5.7c3.9,0,6.1,1.8,6.1,4.9v0.1c0,3-2.5,4.9-6.2,4.9h-5.6V11.2z
		 M138.3,16.1L138.3,16.1c0-4.9-3.7-8-9.3-8h-9h-0.4v0.3v24v0.3h0.4h2.7h0.3v-0.3v-8.1h5.5C133.4,24.2,138.3,21.7,138.3,16.1
		 M160.5,38h-0.3v0.3v17.9v0.3h0.3h2h0.4v-0.3V38.4V38h-0.4H160.5z M127.2,54.1v-5.6h9.4h0.4v-0.3v-1.8V46h-0.4h-9.4v-5.4h10.6h0.3
		v-0.4v-1.8V38h-0.3h-12.9h-0.3v0.3v17.9v0.3h0.3h13.1h0.3v-0.3v-1.8v-0.4h-0.3H127.2z M144.3,47.2v-6.6h5.2c2.7,0,4.2,1.2,4.2,3.2
		v0.1c0,2-1.7,3.3-4.3,3.3H144.3z M151.9,49.2c2.9-0.7,4.6-2.7,4.6-5.4v-0.1c0-1.5-0.5-2.8-1.5-3.8c-1.2-1.2-3.1-1.9-5.3-1.9H142
		h-0.3v0.3v17.9v0.3h0.3h2h0.3v-0.3v-6.6h4.6l5.1,6.8l0.1,0.1h0.2h2.5h0.7l-0.4-0.6L151.9,49.2z M156,32.7v-0.3v-2.5v-0.4h-0.3
		h-10.5V8.4V8h-0.3h-2.7h-0.3v0.3v24v0.3h0.3h13.6H156z M96.6,49.4l3.6-7.9l3.5,7.9H96.6z M101.5,38.1l-0.1-0.2h-0.2h-1.9H99
		l-0.1,0.2l-8.2,18l-0.2,0.5h0.5h2.1h0.2l0.1-0.2l2-4.5h9.3l2,4.5l0.1,0.2h0.2h2.2h0.5l-0.2-0.5L101.5,38.1z M194.3,11.2h5.3
		c5.7,0,9.6,3.8,9.6,9.1v0.1c0,5.3-3.9,9.1-9.6,9.1h-5.3V11.2z M199.6,32.7c7.6,0,13.1-5.2,13.1-12.3v-0.1c0-7.1-5.5-12.3-13.1-12.3
		h-8.3h-0.4v0.3v24v0.3h0.4H199.6z M206.8,46c-3.9-0.8-4.6-1.7-4.6-3.1v0c0-1.5,1.4-2.5,3.5-2.5c1.8,0,3.4,0.6,4.9,1.9l0.3,0.2
		l0.2-0.3l1.2-1.6l0.2-0.3l-0.3-0.2c-2-1.6-3.9-2.3-6.5-2.3c-3.6,0-6.2,2.2-6.2,5.2v0c0,3.4,2.5,4.7,6.3,5.5
		c3.7,0.8,4.4,1.6,4.4,3.1v0.1c0,1.6-1.5,2.7-3.6,2.7c-2.3,0-4-0.7-5.9-2.4l-0.3-0.2l-0.2,0.3l-1.3,1.5l-0.2,0.3l0.2,0.2
		c2.3,2,4.6,2.9,7.5,2.9c3.8,0,6.5-2.2,6.5-5.4v-0.1C212.9,48.6,211,47,206.8,46 M163.2,32.7v-0.3v-24V8h-0.3h-2.7h-0.3v0.3v24v0.3
		h0.3h2.7H163.2z M100.9,11.2h5.7c3.9,0,6.1,1.8,6.1,4.9v0.1c0,3-2.4,4.9-6.2,4.9h-5.6V11.2z M100.6,32.7h0.3v-0.3v-8.1h5.5
		c4.9,0,9.8-2.5,9.8-8.2V16c0-4.8-3.7-7.9-9.3-7.9h-9h-0.4v0.3v24v0.3h0.4H100.6z M81.6,12.2l4.9,11h-9.9L81.6,12.2z M72.4,32.7
		l0.1-0.2l2.8-6.1h12.6l2.7,6.1l0.1,0.2h0.2h2.9h0.5l-0.2-0.5L83.2,8.1l-0.1-0.2h-0.2h-2.5h-0.2l-0.1,0.2L69.1,32.2l-0.2,0.5h0.5
		h2.8H72.4z M189.9,54.1V38.4V38h-0.3h-2h-0.3v0.3v17.9v0.3h0.3h9.1h0.3v-0.3v-1.9v-0.3h-0.3H189.9z M85.7,38h-0.2l-0.1,0.2
		l-6.2,9.3L73,38.2L72.9,38h-0.2h-2h-0.3v0.3v17.9v0.3h0.3h2H73v-0.3V42.9l5.9,8.6l0.1,0.2h0.2h0.1h0.2l0.1-0.2l5.9-8.6v13.3v0.3
		h0.3h2h0.3v-0.3V38.4V38h-0.3H85.7z M172,29.5v-7.7h12.7h0.4v-0.4V19v-0.4h-0.4H172v-7.5h14.3h0.3v-0.3V8.4V8h-0.3h-17.3h-0.3v0.3
		v24v0.3h0.3h17.5h0.3v-0.3v-2.5v-0.3h-0.3H172z">
  </path>
  <path class="st0" d="M221.8,52.3c0.6,0,1.1-0.3,1.1-0.8v0c0-0.5-0.4-0.8-1-0.8h-1.3v1.6H221.8z M219.8,50.2h2c0.6,0,1,0.2,1.3,0.5
		c0.2,0.2,0.4,0.5,0.4,0.9v0c0,0.7-0.5,1.1-1.1,1.3l1.4,1.8h-0.8l-1.3-1.7h0h-1.1v1.7h-0.7V50.2z M225.5,52.5L225.5,52.5
		c0-2.2-1.7-4-3.9-4c-2.3,0-4,1.8-4,4v0c0,2.2,1.7,3.9,3.9,3.9C223.8,56.5,225.5,54.7,225.5,52.5 M217.2,52.5L217.2,52.5
		c0-2.4,1.9-4.4,4.4-4.4c2.4,0,4.3,1.9,4.3,4.3v0c0,2.4-1.9,4.3-4.3,4.3C219.1,56.9,217.2,54.9,217.2,52.5">
  </path>
 </g>
</svg>