<?xml version="1.0" encoding="UTF-8" standalone="no"?>
<!-- Created with Inkscape (http://www.inkscape.org/) -->

<svg
   xmlns:dc="http://purl.org/dc/elements/1.1/"
   xmlns:cc="http://creativecommons.org/ns#"
   xmlns:rdf="http://www.w3.org/1999/02/22-rdf-syntax-ns#"
   xmlns:svg="http://www.w3.org/2000/svg"
   xmlns="http://www.w3.org/2000/svg"
   xmlns:sodipodi="http://sodipodi.sourceforge.net/DTD/sodipodi-0.dtd"
   xmlns:inkscape="http://www.inkscape.org/namespaces/inkscape"
   width="243.53973"
   height="92.00267"
   viewBox="0 0 64.436553 24.342372"
   version="1.1"
   id="svg6908"
   inkscape:version="0.92.0 r15299"
   sodipodi:docname="atni.svg">
  <defs
     id="defs6902">
    <clipPath
       id="clipPath5952"
       clipPathUnits="userSpaceOnUse">
      <path
         inkscape:connector-curvature="0"
         id="path5950"
         d="M 320.605,129.881 H 501.76 V 214.97 H 320.605 Z" />
    </clipPath>
  </defs>
  <sodipodi:namedview
     id="base"
     pagecolor="#ffffff"
     bordercolor="#666666"
     borderopacity="1.0"
     inkscape:pageopacity="0.0"
     inkscape:pageshadow="2"
     inkscape:zoom="3.3203648"
     inkscape:cx="120.76986"
     inkscape:cy="45.001332"
     inkscape:document-units="mm"
     inkscape:current-layer="layer1"
     showgrid="false"
     fit-margin-top="0"
     fit-margin-left="0"
     fit-margin-right="0"
     fit-margin-bottom="0"
     units="px"
     inkscape:window-width="1280"
     inkscape:window-height="744"
     inkscape:window-x="-4"
     inkscape:window-y="-4"
     inkscape:window-maximized="1" />
  <metadata
     id="metadata6905">
    <rdf:RDF>
      <cc:Work
         rdf:about="">
        <dc:format>image/svg+xml</dc:format>
        <dc:type
           rdf:resource="http://purl.org/dc/dcmitype/StillImage" />
        <dc:title></dc:title>
      </cc:Work>
    </rdf:RDF>
  </metadata>
  <g
     inkscape:label="Layer 1"
     inkscape:groupmode="layer"
     id="layer1"
     transform="translate(-50.445117,-141.68924)">
    <g
       id="g5946"
       transform="matrix(0.35277777,0,0,-0.35277777,-62.392686,214.6881)">
      <g
         id="g5948"
         clip-path="url(#clipPath5952)">
        <g
           id="g5954"
           transform="translate(389.5482,165.1499)">
          <path
             d="m 0,0 -4.454,7.76 4.227,7.268 -0.944,1.645 -8.147,0.023 4.006,6.89 -0.675,1.174 -8.506,0.026 4.23,7.279 -0.542,0.935 -9.22,0.029 -0.175,0.312 -4.407,7.683 -0.811,0.002 -4.542,-7.817 -4.455,7.772 h -0.544 l -4.594,-7.906 -4.543,7.927 h -0.544 l -4.764,-8.199 h -0.356 l -8.87,0.024 -0.272,-0.465 4.547,-7.929 -9.146,0.027 -0.271,-0.47 4.456,-7.773 -9.037,0.026 -0.408,-0.702 4.451,-7.761 -4.633,-7.97 0.541,-0.937 8.416,-0.024 -4.276,-7.36 0.671,-1.173 8.151,-0.024 -4.144,-7.122 0.81,-1.414 8.319,-0.023 4.672,-8.149 2.438,-0.006 3.633,6.255 3.602,-6.285 2.441,-0.006 3.639,6.263 3.602,-6.276 2.437,-0.005 4.447,7.65 8.595,-0.026 1.222,2.112 -3.601,6.281 7.25,-0.02 1.224,2.108 -3.603,6.286 7.231,-0.022 z m -50.014,30.506 0.788,1.37 c 0.455,-0.782 3.909,-6.754 4.324,-7.469 -0.852,0 -8.174,0.022 -8.646,0.024 l 1.18,2.029 c 0.745,1.281 1.684,2.898 2.354,4.046 m -2.284,-40.538 c 1.686,-0.005 4.057,-0.012 5.931,-0.015 -0.928,-1.581 -2.052,-3.497 -2.993,-5.105 -0.941,1.641 -2.102,3.664 -2.938,5.12 m -2.336,18.086 h -0.182 l -8.056,0.022 4.14,7.123 c 0.575,-1.003 3.446,-6.005 4.098,-7.145 m 21.696,-18.142 c 1.856,-0.007 4.048,-0.013 5.873,-0.019 -0.916,-1.578 -2.016,-3.472 -2.949,-5.077 -0.925,1.605 -2.004,3.488 -2.924,5.096 m -22.686,13.955 1.616,2.78 c 0.203,-0.355 0.638,-1.113 1.144,-1.99 l 1.952,-3.408 0.677,-1.178 -7.582,0.02 0.303,0.518 c 0.475,0.821 1.206,2.077 1.89,3.258 m 22.422,22.194 c 0.104,0.174 0.211,0.358 0.325,0.55 l 0.402,0.7 c 0.15,0.252 0.299,0.511 0.451,0.77 l 0.45,0.775 c 0.14,0.236 0.271,0.469 0.406,0.697 l 0.466,0.805 c 0.112,0.193 0.218,0.373 0.314,0.537 l 0.43,0.742 3.999,-6.976 0.083,-0.152 -0.175,-0.003 -8.039,0.023 c 0.1,0.173 0.244,0.422 0.429,0.742 z m -15.172,-9.412 c 0.211,0.358 0.492,0.847 0.811,1.399 l 0.606,1.038 c 0.719,1.239 1.498,2.582 2.019,3.474 l 0.553,0.951 c 0.398,-0.688 3.607,-6.233 4.253,-7.361 l 0.088,-0.145 h -0.181 c -1.31,0.001 -7.486,0.02 -8.413,0.023 l -0.048,0.086 c 0.037,0.06 0.085,0.149 0.157,0.267 z m 5.276,-24.518 3.491,5.949 c 0.013,-0.027 0.037,-0.06 0.054,-0.093 l 3.372,-5.877 -0.542,0.002 z m 2.546,7.909 -7.576,0.02 0.434,0.749 c 1.004,1.733 2.871,4.943 3.372,5.807 0.497,-0.87 2.347,-4.09 3.34,-5.825 z m 5.632,-7.608 -0.089,0.149 c -0.626,1.094 -1.848,3.223 -2.728,4.756 l -0.828,1.446 c 1.352,-0.002 5.749,-0.018 7.327,-0.024 l -3.502,-6.022 z m 13.289,22.572 c -0.741,-1.273 -2.882,-4.96 -3.622,-6.233 -0.732,1.281 -2.854,4.977 -3.588,6.256 1.475,-0.008 5.738,-0.018 7.21,-0.023 M -36.293,9.203 c 0.309,-0.529 0.559,-0.968 0.699,-1.203 -1.219,0 -6.673,0.018 -7.91,0.022 0.625,1.069 3.405,5.853 3.957,6.809 0.05,-0.084 0.118,-0.205 0.196,-0.337 z m 5.643,-7.878 c -1.021,1.767 -2.826,4.881 -3.317,5.731 l 7.714,-0.023 -3.859,-6.642 c -0.087,0.154 -0.207,0.357 -0.349,0.603 z m -4.468,4.72 0.328,0.563 c 0.578,-0.998 3.072,-5.313 3.816,-6.597 l -7.667,0.021 0.115,0.203 c 0.745,1.271 2.557,4.362 3.408,5.81 m 8.883,1.925 c -1.481,0.004 -6.571,0.021 -7.743,0.025 0.597,1.016 3.199,5.449 3.907,6.662 z m -12.446,7.242 c 1.234,-0.007 6.6,-0.021 7.833,-0.026 -0.625,-1.061 -3.32,-5.662 -3.936,-6.715 -0.61,1.056 -3.281,5.674 -3.897,6.741 m -4.823,-8.13 c 1.212,-0.003 6.473,-0.017 7.819,-0.024 h 0.074 c -0.423,-0.717 -1.809,-3.08 -2.846,-4.856 l -1.05,-1.782 -0.087,-0.148 -0.092,0.15 -1.691,2.953 c -0.879,1.527 -1.801,3.137 -2.127,3.707 m 4.542,9.065 c 0.007,0.013 0.012,0.02 0.017,0.029 l 4.12,7.088 4.092,-7.139 z M -28.795,0.171 c 0.782,1.34 2.672,4.596 3.45,5.929 l 3.412,-5.951 z m 7.296,16.082 -7.623,0.024 c 0.696,1.182 3.222,5.495 3.942,6.716 l 3.772,-6.582 0.094,-0.155 z M -44.316,8.49 v 0 l -3.959,6.906 7.959,-0.026 z m 22.304,-9.909 -0.177,-0.308 -3.175,-5.462 c -0.895,1.548 -2.595,4.486 -3.347,5.788 1.522,-0.007 5.055,-0.015 6.699,-0.018 m -6.851,19.986 -0.076,-0.124 c -0.106,-0.183 -0.208,-0.354 -0.304,-0.52 l -0.726,-1.243 c -0.615,1.072 -3.363,5.86 -3.962,6.913 1.209,-0.002 6.753,-0.022 7.997,-0.024 -0.429,-0.73 -1.865,-3.181 -2.929,-5.002 M -48.252,-1.189 c 1.162,-0.002 6.174,-0.019 7.608,-0.021 l -3.838,-6.551 -0.183,0.32 c -0.891,1.552 -3.054,5.319 -3.587,6.252 m 18.229,-1.07 3.274,-5.659 h -0.313 L -32.954,-7.9 H -33.3 c 0.889,1.531 2.498,4.297 3.277,5.641 m 9.545,16.731 3.655,-6.373 c -1.628,0.006 -5.918,0.019 -7.35,0.025 0.731,1.255 2.99,5.14 3.695,6.348 m 4.733,-5.108 -2.003,3.49 c -0.33,0.581 -0.642,1.124 -0.903,1.582 l -0.234,0.404 6.316,-0.018 z m -4.64,7.782 c -0.735,1.278 -2.857,4.98 -3.595,6.259 1.479,-0.002 5.745,-0.015 7.22,-0.02 -0.741,-1.276 -2.887,-4.966 -3.625,-6.239 m -19.165,-0.745 -3.354,5.797 c -0.055,0.096 -0.112,0.189 -0.161,0.281 l -0.423,0.728 c -0.153,0.265 -0.267,0.467 -0.33,0.572 l 8.538,-0.025 z M -46.247,5.188 c -1.037,-1.782 -2.417,-4.155 -2.851,-4.904 l -0.092,-0.147 -0.084,0.137 -2.275,3.974 c -0.115,0.195 -0.225,0.389 -0.335,0.577 l -0.293,0.519 c -0.104,0.173 -0.196,0.336 -0.288,0.494 l -0.728,1.277 c 1.215,-0.008 6.579,-0.024 7.962,-0.027 h 0.088 z m 25.817,-3.889 -0.183,-0.312 -3.371,5.88 6.779,-0.016 -0.263,-0.455 z m -14.946,23.235 0.086,-0.156 h -0.161 c -1.335,0.002 -7.622,0.022 -8.42,0.024 0.89,1.526 3.904,6.708 4.316,7.42 0.393,-0.685 3.177,-5.543 4.179,-7.288 M -53.19,8.048 c 0.635,1.094 3.62,6.233 4.05,6.969 0.425,-0.738 3.382,-5.898 4.01,-6.991 z m 4,-10.12 c 0.659,-1.149 2.433,-4.243 3.321,-5.792 l -0.485,0.004 -6.189,0.018 z m 12.44,-8.007 c -0.932,-1.598 -2.024,-3.474 -2.955,-5.076 -0.923,1.612 -2.017,3.517 -2.92,5.094 1.818,-0.003 4.016,-0.008 5.875,-0.018 m 18.357,10.532 c 0.913,1.562 1.914,3.289 2.817,4.841 0.896,-1.554 1.888,-3.292 2.788,-4.86 -1.804,0.009 -3.797,0.014 -5.605,0.019 m -5.814,24.203 c 0.71,1.214 3.17,5.408 3.903,6.659 l 3.832,-6.681 z m -29.747,-32.427 -3.787,6.61 c 1.48,-0.005 6.465,-0.017 7.617,-0.024 z m 33.511,4.693 c 0.763,-1.335 1.956,-3.413 2.789,-4.866 l -5.605,0.018 c 0.904,1.557 1.908,3.287 2.816,4.848 m 1.081,19.49 c 0.711,1.215 3.025,5.208 3.739,6.432 l 3.701,-6.453 z m -27.686,3.772 -2.087,-3.594 c -0.024,0.039 -0.057,0.099 -0.094,0.162 l -3.666,6.393 c -0.174,0.302 -0.313,0.539 -0.378,0.659 l 8.314,-0.025 c -0.224,-0.389 -1.157,-1.99 -2.089,-3.595 m -7.045,-11.818 -4.051,7.065 8.143,-0.023 z m -0.729,-1.251 -0.146,-0.248 c -0.718,-1.233 -2.685,-4.616 -3.54,-6.086 l -0.266,-0.459 -3.909,6.817 c 1.51,-0.004 6.671,-0.021 7.861,-0.024 m 19.973,-18.271 2.764,-4.819 -5.551,0.015 z m 17.103,1.021 -2.785,-4.789 c -0.891,1.546 -1.917,3.319 -2.78,4.808 1.75,-0.006 3.91,-0.008 5.565,-0.019 m 1.85,3.528 -2.79,4.865 c 1.639,-0.006 4.06,-0.014 5.809,-0.017 l -2.919,-5.024 c -0.033,0.058 -0.068,0.117 -0.1,0.176 m 5.179,20.263 c 0.835,-1.456 1.995,-3.476 2.933,-5.112 -1.849,0.004 -4.047,0.01 -5.894,0.014 0.949,1.636 2.12,3.651 2.961,5.098 M -25.03,25.11 -25.081,25.021 c -0.616,1.07 -3.377,5.886 -3.985,6.94 l 8.041,-0.021 c -0.614,-1.045 -3.297,-5.624 -4.005,-6.83 m -7.802,2.85 c -0.092,-0.159 -0.182,-0.31 -0.269,-0.466 l -1.637,-2.811 -4.046,7.054 c -0.104,0.184 -0.189,0.332 -0.235,0.411 l 8.605,-0.026 z m -7.708,3.419 c -0.046,-0.077 -0.092,-0.157 -0.141,-0.24 l -3.707,-6.377 -4.288,7.411 8.582,-0.023 z m -13.414,-7.647 0.848,-1.48 3.521,-6.136 -0.052,-0.084 c -1.017,0.002 -8.304,0.026 -8.778,0.026 l 3.452,5.94 c 0.534,0.918 0.937,1.61 1.009,1.734 m 9.455,-34.922 2.727,-4.758 -5.509,0.017 z m 19.309,-0.047 2.757,-4.765 -5.517,0.016 z M -13.669,6.37 -8.161,6.354 -10.929,1.595 Z m 10.596,8.119 C -3.98,12.927 -4.983,11.203 -5.889,9.642 l -0.577,1.008 c -0.735,1.281 -1.501,2.617 -2.212,3.854 1.805,-0.003 3.797,-0.01 5.605,-0.015 m -4.271,8.712 c -0.83,-1.427 -2.538,-4.357 -3.364,-5.786 -0.821,1.431 -2.507,4.375 -3.327,5.803 1.647,-0.002 5.039,-0.013 6.691,-0.017 m -4.546,8.554 c -0.74,-1.277 -2.894,-4.979 -3.635,-6.253 -0.734,1.28 -2.868,4.995 -3.599,6.273 1.475,0 5.76,-0.016 7.234,-0.02 m -13.126,8.097 c 0.615,-1.073 3.381,-5.903 3.998,-6.976 -1.076,0.004 -5.477,0.016 -7.387,0.022 -0.271,0 -0.495,0.003 -0.65,0.003 0.62,1.069 3.417,5.879 4.039,6.951 m -9.675,0.349 c 0.431,-0.751 3.503,-6.107 4.182,-7.295 l 0.104,-0.156 -0.187,-0.003 c -1.367,0.006 -7.551,0.024 -8.417,0.026 0.457,0.784 3.86,6.641 4.318,7.428 m -9.681,0.02 c 0.453,-0.788 3.82,-6.659 4.269,-7.444 -0.908,0.002 -7.684,0.02 -8.58,0.023 0.451,0.777 3.855,6.633 4.311,7.421 m -5.395,-8.042 c -0.053,-0.086 -0.14,-0.239 -0.25,-0.43 l -2.416,-4.155 c -0.716,-1.228 -1.338,-2.299 -1.518,-2.609 -0.45,0.782 -3.69,6.433 -4.137,7.219 0.903,-0.004 7.416,-0.023 8.321,-0.025 m -4.867,-8.372 h 0.002 l -0.406,-0.694 c -1.011,-1.738 -3.398,-5.846 -3.78,-6.505 -0.45,0.783 -3.692,6.441 -4.143,7.228 0.904,-0.008 7.423,-0.027 8.327,-0.029 m -5.138,-8.526 c -0.616,-1.064 -3.289,-5.659 -3.904,-6.723 -0.612,1.064 -3.257,5.68 -3.869,6.746 1.23,-0.006 6.545,-0.021 7.773,-0.023 M -67.319,0.116 c 0.746,1.278 2.899,4.989 3.634,6.254 0.731,-1.269 2.863,-4.992 3.6,-6.274 -1.477,0.004 -5.758,0.016 -7.234,0.02 m 5.087,-8.245 c 0.828,1.428 2.534,4.36 3.364,5.787 0.821,-1.429 2.509,-4.37 3.33,-5.804 -1.653,0.004 -5.044,0.013 -6.694,0.017 m 8.087,-3.08 2.971,-5.179 c -1.753,0.007 -4.266,0.012 -5.972,0.017 0.857,1.473 2.12,3.645 3.001,5.162 m 9.591,-11.692 c -0.898,1.57 -1.483,2.585 -2.383,4.156 1.804,-0.006 2.983,-0.006 4.79,-0.013 -0.908,-1.563 -1.498,-2.581 -2.407,-4.143 m 9.674,-0.039 c -0.899,1.571 -1.486,2.597 -2.388,4.165 1.811,-0.004 2.993,-0.004 4.802,-0.014 -0.912,-1.561 -1.502,-2.585 -2.414,-4.151 m 9.681,-0.019 c -0.901,1.569 -1.486,2.587 -2.382,4.156 1.807,-0.006 2.982,-0.006 4.791,-0.008 -0.91,-1.565 -1.5,-2.585 -2.409,-4.148 m 7.288,6.943 c 0.878,1.506 1.405,2.412 2.277,3.918 0.867,-1.511 1.39,-2.424 2.256,-3.932 -1.738,0.005 -2.789,0.01 -4.533,0.014 m 4.867,8.372 c 0.875,1.506 1.405,2.416 2.28,3.919 0.866,-1.508 1.388,-2.424 2.256,-3.931 -1.74,0.005 -2.794,0.006 -4.536,0.012 m 4.866,8.369 c 0.873,1.506 1.402,2.416 2.276,3.914 0.859,-1.503 1.384,-2.415 2.25,-3.924 -1.739,0.005 -2.787,0.007 -4.526,0.01"
             style="fill:#f2581a;fill-opacity:1;fill-rule:nonzero;stroke:none"
             id="path5956"
             inkscape:connector-curvature="0" />
        </g>
        <path
           d="m 395.346,141.138 h -1.084 v 10.167 h 1.084 z m -0.534,11.833 c -0.518,0 -0.808,0.34 -0.808,0.92 0,0.583 0.29,0.922 0.808,0.922 0.534,0 0.808,-0.339 0.808,-0.922 0,-0.58 -0.292,-0.92 -0.808,-0.92"
           style="fill:#1e3e6a;fill-opacity:1;fill-rule:nonzero;stroke:none"
           id="path5958"
           inkscape:connector-curvature="0" />
        <g
           id="g5960"
           transform="translate(406.7894,141.1378)">
          <path
             d="m 0,0 h -1.083 v 6.222 c 0,1.763 -0.566,3.072 -3.039,3.072 -1.795,0 -3.33,-1.067 -3.33,-3.216 V 0 h -1.083 v 10.183 h 1.083 V 8.616 h 0.033 c 0.711,1.098 2.036,1.729 3.459,1.729 2.587,0 3.96,-1.357 3.96,-3.799 z"
             style="fill:#1e3e6a;fill-opacity:1;fill-rule:nonzero;stroke:none"
             id="path5962"
             inkscape:connector-curvature="0" />
        </g>
        <g
           id="g5964"
           transform="translate(415.1133,141.9445)">
          <path
             d="m 0,0 c -0.842,-0.646 -1.698,-0.97 -2.636,-0.97 -1.584,0 -2.603,1.052 -2.603,3.024 v 6.223 l 0.066,0.114 h -1.294 v 0.986 h 1.294 l -0.066,0.112 v 1.764 l 1.084,0.581 V 9.489 L -4.22,9.377 h 3.217 V 8.391 H -4.22 L -4.155,8.277 V 2.118 c 0,-1.309 0.581,-2.052 1.601,-2.052 0.694,0 1.244,0.227 1.793,0.711 z"
             style="fill:#1e3e6a;fill-opacity:1;fill-rule:nonzero;stroke:none"
             id="path5966"
             inkscape:connector-curvature="0" />
        </g>
        <g
           id="g5968"
           transform="translate(424.3739,146.73)">
          <path
             d="m 0,0 -0.114,0.112 c -0.161,2.2 -1.375,3.59 -3.443,3.59 -2.135,0 -3.283,-1.39 -3.54,-3.59 L -7.21,0 Z m 0.985,-1.001 h -8.213 l 0.113,-0.098 c 0.275,-2.41 1.472,-3.604 3.623,-3.604 1.098,0 2.052,0.388 2.796,1.066 l 0.761,-0.777 c -0.921,-0.872 -2.135,-1.341 -3.557,-1.341 -3.233,0 -4.721,2.183 -4.721,5.174 0,3.152 1.713,5.334 4.64,5.334 3.088,0 4.576,-2.215 4.576,-5.334 0,-0.179 0,-0.291 -0.018,-0.42"
             style="fill:#1e3e6a;fill-opacity:1;fill-rule:nonzero;stroke:none"
             id="path5970"
             inkscape:connector-curvature="0" />
        </g>
        <g
           id="g5972"
           transform="translate(432.406,150.2068)">
          <path
             d="M 0,0 H -0.275 C -1.86,0 -3.606,-1.117 -3.606,-4.042 V -9.069 H -4.689 V 1.115 h 1.083 V -1.1 h 0.031 c 0.568,1.553 1.941,2.327 3.462,2.327 H 0 Z"
             style="fill:#1e3e6a;fill-opacity:1;fill-rule:nonzero;stroke:none"
             id="path5974"
             inkscape:connector-curvature="0" />
        </g>
        <g
           id="g5976"
           transform="translate(442.7176,141.1378)">
          <path
             d="m 0,0 h -1.084 v 6.222 c 0,1.763 -0.564,3.072 -3.039,3.072 -1.794,0 -3.33,-1.067 -3.33,-3.216 V 0 h -1.083 v 10.183 h 1.083 V 8.616 h 0.034 c 0.709,1.098 2.035,1.729 3.458,1.729 C -1.373,10.345 0,8.988 0,6.546 Z"
             style="fill:#1e3e6a;fill-opacity:1;fill-rule:nonzero;stroke:none"
             id="path5978"
             inkscape:connector-curvature="0" />
        </g>
        <g
           id="g5980"
           transform="translate(452.5763,146.2468)">
          <path
             d="m 0,0 c -0.291,0.031 -0.859,0.063 -1.198,0.063 -0.452,0 -0.985,0 -1.552,-0.032 C -3.331,0 -3.928,-0.066 -4.462,-0.195 c -1.084,-0.26 -2.054,-0.826 -2.054,-2.039 0,-1.631 1.796,-2.003 2.878,-2.003 1.116,0 3.525,0.388 3.525,2.021 v 2.102 z m 0.97,-5.109 h -1.083 v 1.115 h -0.033 c -0.713,-0.794 -1.909,-1.294 -3.492,-1.294 -2.037,0 -3.96,0.81 -3.96,3.054 0,3.073 3.734,3.235 6.322,3.235 0.352,0 0.985,-0.049 1.276,-0.098 l -0.113,0.114 v 0.549 c 0,1.989 -1.438,2.619 -3.007,2.619 -1.05,0 -2.313,-0.225 -3.186,-0.986 L -7.049,3.96 c 1.164,0.936 2.426,1.259 3.929,1.259 2.133,0 4.09,-0.84 4.09,-3.636 z"
             style="fill:#1e3e6a;fill-opacity:1;fill-rule:nonzero;stroke:none"
             id="path5982"
             inkscape:connector-curvature="0" />
        </g>
        <g
           id="g5984"
           transform="translate(461.8689,141.9445)">
          <path
             d="m 0,0 c -0.842,-0.646 -1.699,-0.97 -2.637,-0.97 -1.583,0 -2.601,1.052 -2.601,3.024 v 6.223 l 0.065,0.114 h -1.295 v 0.986 h 1.295 l -0.065,0.112 v 1.764 l 1.082,0.581 V 9.489 L -4.22,9.377 h 3.217 V 8.391 H -4.22 L -4.156,8.277 V 2.118 c 0,-1.309 0.581,-2.052 1.602,-2.052 0.695,0 1.244,0.227 1.793,0.711 z"
             style="fill:#1e3e6a;fill-opacity:1;fill-rule:nonzero;stroke:none"
             id="path5986"
             inkscape:connector-curvature="0" />
        </g>
        <path
           d="m 464.566,141.138 h -1.084 v 10.167 h 1.084 z m -0.534,11.833 c -0.519,0 -0.806,0.34 -0.806,0.92 0,0.583 0.287,0.922 0.806,0.922 0.534,0 0.809,-0.339 0.809,-0.922 0,-0.58 -0.291,-0.92 -0.809,-0.92"
           style="fill:#1e3e6a;fill-opacity:1;fill-rule:nonzero;stroke:none"
           id="path5988"
           inkscape:connector-curvature="0" />
        <g
           id="g5990"
           transform="translate(471.5172,150.4321)">
          <path
             d="m 0,0 c -2.522,0 -3.526,-1.892 -3.526,-4.203 0,-2.295 1.036,-4.203 3.526,-4.203 2.506,0 3.525,1.891 3.525,4.203 C 3.525,-1.892 2.49,0 0,0 m 0,-9.457 c -3.073,0 -4.609,2.168 -4.609,5.254 0,3.072 1.536,5.254 4.592,5.254 3.089,0 4.623,-2.15 4.623,-5.254 0,-3.071 -1.568,-5.254 -4.606,-5.254"
             style="fill:#1e3e6a;fill-opacity:1;fill-rule:nonzero;stroke:none"
             id="path5992"
             inkscape:connector-curvature="0" />
        </g>
        <g
           id="g5994"
           transform="translate(487.0016,141.1378)">
          <path
             d="m 0,0 h -1.085 v 6.222 c 0,1.763 -0.565,3.072 -3.039,3.072 -1.794,0 -3.328,-1.067 -3.328,-3.216 V 0 h -1.084 v 10.183 h 1.084 V 8.616 h 0.033 c 0.709,1.098 2.035,1.729 3.456,1.729 C -1.375,10.345 0,8.988 0,6.546 Z"
             style="fill:#1e3e6a;fill-opacity:1;fill-rule:nonzero;stroke:none"
             id="path5996"
             inkscape:connector-curvature="0" />
        </g>
        <g
           id="g5998"
           transform="translate(496.8587,146.2468)">
          <path
             d="m 0,0 c -0.29,0.031 -0.856,0.063 -1.196,0.063 -0.454,0 -0.987,0 -1.552,-0.032 C -3.33,0 -3.928,-0.066 -4.461,-0.195 c -1.084,-0.26 -2.054,-0.826 -2.054,-2.039 0,-1.631 1.794,-2.003 2.878,-2.003 1.114,0 3.523,0.388 3.523,2.021 v 2.102 z m 0.97,-5.109 h -1.084 v 1.115 h -0.033 c -0.709,-0.794 -1.906,-1.294 -3.49,-1.294 -2.036,0 -3.962,0.81 -3.962,3.054 0,3.073 3.735,3.235 6.323,3.235 0.355,0 0.986,-0.049 1.276,-0.098 l -0.114,0.114 v 0.549 c 0,1.989 -1.437,2.619 -3.005,2.619 -1.051,0 -2.311,-0.225 -3.184,-0.986 L -7.048,3.96 c 1.165,0.936 2.424,1.259 3.929,1.259 2.133,0 4.089,-0.84 4.089,-3.636 z"
             style="fill:#1e3e6a;fill-opacity:1;fill-rule:nonzero;stroke:none"
             id="path6000"
             inkscape:connector-curvature="0" />
        </g>
        <path
           d="m 501.723,141.138 h -1.067 v 13.579 h 1.067 z"
           style="fill:#1e3e6a;fill-opacity:1;fill-rule:nonzero;stroke:none"
           id="path6002"
           inkscape:connector-curvature="0" />
        <g
           id="g6004"
           transform="translate(415.0579,188.4598)">
          <path
             d="M 0,0 H -0.104 L -4.875,-12.444 H 4.771 Z M 21.726,-29.554 H 11.253 l -3.164,8.556 H -8.193 l -3.163,-8.556 h -10.475 l 17.268,42.777 h 9.022 z"
             style="fill:#1e3e6a;fill-opacity:1;fill-rule:nonzero;stroke:none"
             id="path6006"
             inkscape:connector-curvature="0" />
        </g>
        <g
           id="g6008"
           transform="translate(431.5497,201.6825)">
          <path
             d="M 0,0 H 30.075 V -8.556 H 19.911 V -42.777 H 10.164 V -8.556 H 0 Z"
             style="fill:#1e3e6a;fill-opacity:1;fill-rule:nonzero;stroke:none"
             id="path6010"
             inkscape:connector-curvature="0" />
        </g>
        <g
           id="g6012"
           transform="translate(474.9011,158.9057)">
          <path
             d="M 0,0 H -9.747 V 42.777 H 0 L 17.007,16.229 h 0.105 v 26.548 h 9.747 V 0 H 17.112 L 0.104,26.547 H 0 Z"
             style="fill:#1e3e6a;fill-opacity:1;fill-rule:nonzero;stroke:none"
             id="path6014"
             inkscape:connector-curvature="0" />
        </g>
      </g>
    </g>
  </g>
</svg>
