<svg version="1.1" id="Layer_1" xmlns:x="ns_extend;" xmlns:i="ns_ai;" xmlns:graph="ns_graphs;" xmlns="http://www.w3.org/2000/svg" xmlns:xlink="http://www.w3.org/1999/xlink" x="0px" y="0px" viewBox="0 0 1069.1 145" style="enable-background:new 0 0 1069.1 145;" xml:space="preserve">
 <style type="text/css">
  .st0{fill:#CC092F;}
	.st1{fill:#FFFFFF;}
 </style>
 <metadata>
  <sfw xmlns="ns_sfw;">
   <slices>
   </slices>
   <sliceSourceBounds bottomLeftOrigin="true" height="145" width="1069.1" x="-814.7" y="-204.1">
   </sliceSourceBounds>
  </sfw>
 </metadata>
 <g>
  <g>
   <path d="M1058.4,20.1c-5.9,0-10.7,4.8-10.7,10.7c0,5.9,4.8,10.7,10.7,10.7c5.9,0,10.7-4.8,10.7-10.7
			C1069.1,24.9,1064.3,20.1,1058.4,20.1 M1058.4,39.4c-4.7,0-8.6-3.9-8.6-8.6c0-4.7,3.9-8.6,8.6-8.6c4.7,0,8.6,3.9,8.6,8.6
			C1067,35.6,1063.2,39.4,1058.4,39.4">
   </path>
   <path d="M1062.8,29c0-1.9-1.3-3.2-3.4-3.2l-4.7,0l0.1,10.1l2.2,0l0-3.6l1.6,0l2,3.6l2.5,0l-2.3-3.8
			C1061.8,31.8,1062.9,30.8,1062.8,29 M1059.1,30.4l-2.3,0l0-2.7l2.3,0c0.9,0,1.5,0.5,1.5,1.3C1060.7,29.9,1060,30.4,1059.1,30.4">
   </path>
   <path d="M867.4,20.3C839,20.3,816,43.4,816,71.8c0,28.4,23.1,51.5,51.5,51.5c28.4,0,51.5-23,51.5-51.5
			C918.9,43.4,895.9,20.3,867.4,20.3 M867.4,103.1c-17.3,0-31.3-14-31.3-31.3c0-17.3,14-31.3,31.3-31.3c17.3,0,31.3,14,31.3,31.3
			C898.7,89.1,884.7,103.1,867.4,103.1">
   </path>
   <path d="M245.3,70c9.2-1.9,16.8-10.1,16.8-22.4c0-13-9.5-24.9-28.1-24.9h-51.4v97.6h53c18.6,0,28.4-11.7,28.4-26.4
			C264,81.7,255.7,71.6,245.3,70 M203.4,40.6h26.1c7,0,11.4,4.5,11.4,10.7c0,6.2-4.4,10.5-11.4,10.5h-26.1V40.6z M230.2,102.3h-26.8
			V79.7h26.8c8.2,0,12.6,5.3,12.6,11.4C242.8,98.1,238.1,102.3,230.2,102.3">
   </path>
   <path d="M360.7,54.2c0-18.2-12.4-31.5-32.8-31.5h-45.7v97.6H303V85.7h15.2l19.2,34.7h23.9l-22-37.2
			C349.9,80.7,360.7,71.4,360.7,54.2 M324.8,67.4H303V41h21.8c8.3,0,14.6,5,14.6,13.2S333.2,67.4,324.8,67.4">
   </path>
   <path d="M520.9,22.7l-37.8,97.6h23.7l6.2-16.5h41.9l6,16.5h23.7L547,22.7H520.9z M518.7,85.5l15.2-42l15.2,42H518.7z">
   </path>
   <path d="M641.1,22.7h-38.5v97.6h38.5c30.6,0,51.8-19.3,51.8-48.7C692.9,42.2,671.7,22.7,641.1,22.7 M641.1,102h-17.7V41h17.7
			c20.1,0,30.6,13.3,30.6,30.6C671.7,88.1,660.4,102,641.1,102">
   </path>
   <path d="M1007.8,22.7l-25.6,41.4l-25.6-41.4h-23v97.7h20.8V56.5l22.4,34c2.6,3.9,8.3,3.9,10.8,0l22.4-34v63.8h20.8V22.7H1007.8z">
   </path>
   <path d="M426.6,20.3c-28.4,0-51.5,23.1-51.5,51.5c0,28.4,23,51.5,51.5,51.5c28.4,0,51.5-23,51.5-51.5
			C478.1,43.4,455,20.3,426.6,20.3 M426.6,103.1c-17.3,0-31.3-14-31.3-31.3c0-17.3,14-31.3,31.3-31.3c17.3,0,31.3,14,31.3,31.3
			C457.9,89.1,443.9,103.1,426.6,103.1">
   </path>
  </g>
  <g>
   <path d="M786.4,86.9c-5.3,9.6-15.6,16.2-27.4,16.2c-17.3,0-31.3-14-31.3-31.3c0-17.3,14-31.3,31.3-31.3c11.7,0,21.9,6.4,27.2,15.9
			l14.6-14.6c-9.3-13-24.6-21.5-41.8-21.5c-28.4,0-51.5,23.1-51.5,51.5c0,28.4,23,51.5,51.5,51.5c17.3,0,32.7-8.6,42-21.7
			L786.4,86.9z">
   </path>
   <path class="st0" d="M72.5,0C32.5,0,0,32.5,0,72.5c0,7.6,1.2,15,3.4,21.9c1.7-0.8,3.4-1.6,5.2-2.3c8.3-3.3,15.9-2.2,23.5,2.4
			c0,0,2.8,1.7,3.6,2.2c3.5,2.2,6.9,4.3,10.1,4.3c3.1,0,6.1-0.8,7.4-6.8c2-9.3,6.9-32,9-43.3c1.2-6.6,1.9-10.2,2.6-12.6
			c1.2-4.2,3.5-6.6,6.7-6.9c0,0,0.6-0.1,1-0.1c0.4,0,0.9,0.1,0.9,0.1c3.2,0.4,5.5,2.7,6.8,7c0.7,2.4,1.4,6,2.6,12.6
			c2.1,11.3,7,34,9,43.3c1.3,5.9,4.3,6.8,7.4,6.8c3.2,0,6.6-2.1,10.1-4.3c0.8-0.5,3.6-2.2,3.6-2.2c7.6-4.6,15.2-5.7,23.5-2.4
			c1.8,0.7,3.5,1.5,5.2,2.3c2.2-6.9,3.4-14.3,3.4-21.9C145,32.5,112.5,0,72.5,0">
   </path>
  </g>
  <g>
   <path class="st0" d="M123.1,102.6c-2.7,0.9-5.2,2.5-7.6,4.1c-4.6,2.9-9.7,6.1-16.3,6.1c-9.8,0-16.6-5.8-18.8-16
			c-1.7-7.9-7.9-37.6-7.9-37.6c-2.4,12.1-6.2,29.7-7.9,37.6c-2.2,10.2-9,16-18.8,16c-6.6,0-11.8-3.3-16.3-6.1
			c-2.4-1.5-4.9-3.1-7.6-4.1c-2.8-0.9-5.7-0.9-8.5-0.1c-2,0.6-3.9,1.4-5.7,2.3C19.5,128.6,43.5,145,72,145
			c28.4,0,53.5-16.4,65.4-40.2c-1.9-0.9-3.8-1.7-5.7-2.3C128.8,101.7,125.9,101.6,123.1,102.6">
   </path>
   <path class="st1" d="M136.4,92.1c-8.3-3.3-15.9-2.2-23.5,2.4c0,0-2.8,1.7-3.6,2.2c-3.5,2.2-6.9,4.3-10.1,4.3
			c-3.1,0-6.1-0.8-7.4-6.8c-2-9.3-6.8-32-9-43.3c-1.2-6.6-1.9-10.2-2.6-12.6c-1.2-4.3-3.5-6.6-6.8-6.9c0,0-0.5-0.1-0.9-0.1
			c-0.4,0-1,0.1-1,0.1c-3.2,0.4-5.5,2.7-6.7,6.9c-0.7,2.4-1.4,6-2.6,12.6c-2.1,11.3-7,34-9,43.3c-1.3,5.9-4.3,6.8-7.4,6.8
			c-3.2,0-6.6-2.1-10.1-4.3c-0.8-0.5-3.6-2.2-3.6-2.2c-7.6-4.6-15.2-5.7-23.5-2.4c-1.8,0.7-3.5,1.5-5.2,2.3
			c1.1,3.6,2.6,7.1,4.2,10.4c1.8-0.9,3.7-1.7,5.7-2.3c2.8-0.8,5.7-0.9,8.5,0.1c2.7,0.9,5.2,2.5,7.6,4.1c4.6,2.9,9.7,6.1,16.3,6.1
			c9.8,0,16.6-5.8,18.8-16c1.7-7.9,5.5-25.5,7.9-37.6c0,0,6.2,29.7,7.9,37.6c2.2,10.2,9,16,18.8,16c6.6,0,11.8-3.3,16.3-6.1
			c2.4-1.5,4.9-3.1,7.6-4.1c2.8-0.9,5.7-0.9,8.5-0.1c2,0.6,3.8,1.4,5.7,2.3c1.7-3.3,3.1-6.8,4.2-10.4
			C139.9,93.6,138.2,92.8,136.4,92.1">
   </path>
  </g>
 </g>
</svg>