<?xml version="1.0" encoding="UTF-8" standalone="no"?>
<!DOCTYPE svg PUBLIC "-//W3C//DTD SVG 1.1//EN" "http://www.w3.org/Graphics/SVG/1.1/DTD/svg11.dtd">
<svg width="100%" height="100%" viewBox="0 0 220 44" version="1.1" xmlns="http://www.w3.org/2000/svg" xmlns:xlink="http://www.w3.org/1999/xlink" xml:space="preserve" xmlns:serif="http://www.serif.com/" style="fill-rule:evenodd;clip-rule:evenodd;stroke-linejoin:round;stroke-miterlimit:1.41421;">
    <g>
        <path d="M30.49,38.19L15.63,38.19L14.05,43.06L32.07,43.06L30.49,38.19Z" style="fill:rgb(65,195,99);fill-rule:nonzero;"/>
        <path d="M24.32,1.63L31.45,1.63L44.12,40.63L36.99,40.63L24.32,1.63Z" style="fill-rule:nonzero;"/>
        <path d="M21.8,1.63L14.67,1.63L2,40.63L9.13,40.63L21.8,1.63Z" style="fill-rule:nonzero;"/>
        <path d="M208.75,1.63L181.2,1.63L181.2,7.36L191.76,7.36L191.76,40.63L198.19,40.63L198.19,7.36L208.75,7.36L208.75,1.63Z" style="fill-rule:nonzero;"/>
        <path d="M142.65,1.63L142.65,40.63L167.69,40.63L167.69,34.9L149.09,34.9L149.09,23.81L165.03,23.81L165.03,18.09L149.09,18.09L149.09,7.36L167.69,7.36L167.69,1.63L142.65,1.63Z" style="fill-rule:nonzero;"/>
        <path d="M75.78,1.63L66.66,30.78L57.55,1.64L57.54,1.63L50.41,1.63L63.08,40.63L70.24,40.63L82.91,1.63L75.78,1.63Z" style="fill-rule:nonzero;"/>
        <path d="M101.77,1.63L96.28,1.63L96.28,40.63L102.72,40.63L102.72,14.56L120.3,40.63L125.79,40.63L125.79,1.63L119.36,1.63L119.36,27.7L101.77,1.63Z" style="fill-rule:nonzero;"/>
        <path d="M215.14,7.35C213.56,7.35 212.28,6.07 212.28,4.49C212.28,2.91 213.56,1.63 215.14,1.63C216.72,1.63 218,2.91 218,4.49C218,5.249 217.699,5.976 217.162,6.512C216.626,7.049 215.899,7.35 215.14,7.35ZM215.14,2.16C214.526,2.16 213.937,2.407 213.506,2.845C213.076,3.283 212.839,3.876 212.85,4.49C212.794,5.342 213.216,6.155 213.947,6.599C214.677,7.042 215.593,7.042 216.323,6.599C217.054,6.155 217.476,5.342 217.42,4.49C217.433,3.877 217.199,3.284 216.77,2.845C216.341,2.407 215.753,2.16 215.14,2.16ZM215.74,6.03L215.11,4.81L214.71,4.81L214.71,6L214.14,6L214.14,2.94L215.3,2.94C215.833,2.939 216.273,3.357 216.3,3.89C216.308,4.275 216.058,4.618 215.69,4.73L216.38,6.03L215.74,6.03ZM215.23,3.42L214.71,3.42L214.71,4.35L215.23,4.35C215.412,4.377 215.594,4.295 215.693,4.14C215.793,3.985 215.793,3.785 215.693,3.63C215.594,3.475 215.412,3.393 215.23,3.42Z" style="fill-rule:nonzero;"/>
    </g>
</svg>
