<svg version="1.1" id="Layer_1" xmlns:x="ns_extend;" xmlns:i="ns_ai;" xmlns:graph="ns_graphs;" xmlns="http://www.w3.org/2000/svg" xmlns:xlink="http://www.w3.org/1999/xlink" x="0px" y="0px" viewBox="0 0 300.6 38.6" style="enable-background:new 0 0 300.6 38.6;" xml:space="preserve">
 <style type="text/css">
  .st0{fill:#FF5A00;}
 </style>
 <metadata>
  <sfw xmlns="ns_sfw;">
   <slices>
   </slices>
   <sliceSourceBounds bottomLeftOrigin="true" height="38.6" width="300.6" x="69.6" y="-66.9">
   </sliceSourceBounds>
  </sfw>
 </metadata>
 <g>
  <path class="st0" d="M44.9,29.5c4-5.7,11-14.2,10.7-19.8C55.3,2.3,47.7-0.1,40.1,0C34.8,0.1,29.5,1.6,26,2.9
		C13.6,7.4,6.3,14.7,2.1,22.7c-4.5,8-1.9,15.6,9.4,15.8c7.7-0.3,12.8-2.2,17.7-4.7c0.3-0.1,0.1-0.5-0.2-0.5
		C24.5,34.5,13.9,36.6,9,34c0,0,0,0,0,0c-0.7-0.4-1.4-0.8-1.7-2.2c-0.3-2.8,4.1-5.8,6.6-6.7l-0.5-4.9c2,0.8,4.2,1.2,6.4,1.2
		c4.2,0,7.9-1.5,10.6-4c0.2,0.4,0.3,0.9,0.4,1.4H32c0-1.3-0.8-2.3-0.8-2.3c-1.3-1.7-3.1-1.7-3.1-1.7s0.9,0.4,1.7,1.4
		C23.4,21.8,15.5,19,15.5,19l3.3-3.6l-1.4-2.8c7.5-2.7,13.9-4.8,24.4-6.7l-2.6-2l1.2-0.8c6.6,1.8,11,3.2,11.2,6.6
		c0,0.6-0.2,1.2-0.4,2c-1.5,3.7-6.4,9.9-8.4,12.5c-1.3,1.7-2.6,3.4-3.5,5c-0.9,1.6-1.4,3.1-1.3,4.6c-0.1,8.4,15,1.4,21.8-3.2
		c0.2-0.1,0.1-0.5-0.2-0.4C40.4,36.5,44.9,29.5,44.9,29.5">
  </path>
  <g>
   <path class="st0" d="M214.6,26c0,3.7-1.9,5.5-5.6,5.5c-2.4,0-3.6-0.9-3.6-2.6c0-1.6,1.3-2.6,3.8-3c0.9-0.2,2.7-0.2,5.4-0.2V26z
			 M225.1,20.9c0-6.4-4.8-9.4-14.3-9.6c-9.9-0.2-14,2.4-14.9,7.8h10.2c0.5-1.8,1.7-2.7,4.1-2.7c2.4,0.1,4.2,1.3,4.3,4.5
			c-5.5,0.1-9.6,0.4-12.3,1.1c-5.4,1.3-8,4.2-8,8.2c0,2.7,1.2,4.6,3.6,5.9c1.8,0.9,4.1,1.5,6.9,1.4c4.7-0.2,8-1.5,10.1-4.2v3.7h10.3
			L225.1,20.9z">
   </path>
   <path class="st0" d="M290.1,26.2c0,3.7-1.9,5.5-5.6,5.5c-2.4,0-3.6-0.9-3.6-2.6c0-1.6,1.3-2.6,3.8-3c0.9-0.2,2.7-0.2,5.4-0.2V26.2
			z M300.6,21.2c0-6.4-4.8-9.4-14.3-9.6c-9.9-0.2-14,2.4-14.9,7.8h10.2c0.5-1.8,1.7-2.7,4.1-2.7c2.4,0.1,4.2,1.3,4.3,4.5
			c-5.5,0.1-9.6,0.4-12.3,1.1c-5.4,1.3-8,4.2-8,8.2c0,2.7,1.2,4.6,3.6,5.9c1.8,0.9,4.1,1.5,6.9,1.4c4.7-0.2,8-1.5,10.1-4.2v3.7h10.3
			L300.6,21.2z">
   </path>
   <path class="st0" d="M86.7,23l5.8-13L98,23H86.7z M86.7,1.5L68.9,37.2h11.6l2.8-6.4h17.8l2.6,6.4h12.8l-17-35.7H86.7z">
   </path>
   <rect x="119.9" y="1.5" class="st0" width="11.2" height="35.7">
   </rect>
   <rect x="138.2" y="1.5" class="st0" width="11.2" height="7.1">
   </rect>
   <rect x="138.2" y="12.5" class="st0" width="11.2" height="24.7">
   </rect>
   <path class="st0" d="M177.6,28.7c-2.1,2.8-4.6,3.5-7.7,1.9c-0.2-0.1-0.3-0.2-0.5-0.3c-1-0.9-1.6-2-1.8-3.3
			c-0.4-1.9-0.3-3.8,0.2-5.7c0.4-1.3,1.1-2.3,2.1-3c1.2-0.7,2.5-1,3.9-0.8c1.9,0.3,3.3,1.4,4.1,3.2c0.5,1.2,0.7,2.5,0.7,3.8
			C178.6,26,178.3,27.4,177.6,28.7 M156.4,37.1h10.9v-4.4v-0.1c2.9,3.7,6.6,5.2,11,5.1c2.5-0.1,4.8-1,6.8-2.4
			c2.8-2.2,4.3-5.2,4.5-8.8c0.3-3.8-0.6-7.2-2.7-10.2c-2.1-2.6-4.7-4.1-8-4.4c-4.5-0.6-8.4,0.9-11.6,4.3V1.5h-11L156.4,37.1z">
   </path>
   <path class="st0" d="M252.9,28.8c-2.1,2.8-4.6,3.5-7.7,1.9c-0.2-0.1-0.3-0.2-0.5-0.3c-1-0.9-1.6-2-1.8-3.3
			c-0.4-1.9-0.3-3.8,0.2-5.7c0.4-1.3,1.1-2.3,2.1-3c1.2-0.7,2.5-1,3.9-0.8c1.9,0.3,3.3,1.4,4.1,3.2c0.5,1.2,0.7,2.5,0.7,3.8
			C253.9,26.1,253.6,27.5,252.9,28.8 M231.7,37.2h10.9v-4.4v-0.1c2.9,3.7,6.6,5.2,11,5.1c2.5-0.1,4.8-1,6.8-2.4
			c2.8-2.2,4.3-5.2,4.5-8.8c0.3-3.8-0.6-7.2-2.7-10.2c-2.1-2.6-4.7-4.1-8-4.4c-4.5-0.6-8.4,0.9-11.6,4.3V1.6h-11L231.7,37.2z">
   </path>
  </g>
 </g>
</svg>