<svg version="1.1" id="Layer_1" xmlns:x="ns_extend;" xmlns:i="ns_ai;" xmlns:graph="ns_graphs;" xmlns="http://www.w3.org/2000/svg" xmlns:xlink="http://www.w3.org/1999/xlink" x="0px" y="0px" viewBox="0 0 66.2 43" style="enable-background:new 0 0 66.2 43;" xml:space="preserve">
 <style type="text/css">
  .st0{fill:#FF9C6C;}
	.st1{fill:#FF5A0A;}
 </style>
 <metadata>
  <sfw xmlns="ns_sfw;">
   <slices>
   </slices>
   <sliceSourceBounds bottomLeftOrigin="true" height="43" width="66.2" x="402" y="244.8">
   </sliceSourceBounds>
  </sfw>
 </metadata>
 <g>
  <path class="st0" d="M10,12.1V1.2l10.6,8.2c3.7,2.9,4.4,7,4.3,6.9c-2.4-3-5.6-4.3-7.8-4.3L10,12.1z">
  </path>
  <path class="st1" d="M38.5,14.4h-7.9V43h7.9V14.4z">
  </path>
  <path class="st1" d="M52.3,0.9h-7.9V43h7.9V0.9z">
  </path>
  <path class="st1" d="M66.2,0.9h-7.9V43h7.9V0.9z">
  </path>
  <path class="st1" d="M16.9,33.1c0,1.3-1.1,2.3-2.4,2.3H7.8V21.8h6.7c1.3,0,2.4,1,2.4,2.3V33.1z M7.9,14.4V0.9H0V43h16.5
		c4.6,0,8.4-3.9,8.4-8.8v-11c0-4.9-3.8-8.8-8.4-8.8H7.9z">
  </path>
  <circle class="st1" cx="34.5" cy="5.2" r="5.2">
  </circle>
 </g>
</svg>