<svg version="1.1" id="Layer_1" xmlns:x="ns_extend;" xmlns:i="ns_ai;" xmlns:graph="ns_graphs;" xmlns="http://www.w3.org/2000/svg" xmlns:xlink="http://www.w3.org/1999/xlink" x="0px" y="0px" viewBox="0 0 783.8 75" style="enable-background:new 0 0 783.8 75;" xml:space="preserve">
 <style type="text/css">
  .st0{fill:#00AEEF;}
	.st1{fill:#002E6D;}
	.st2{fill:#076AB1;}
 </style>
 <metadata>
  <sfw xmlns="ns_sfw;">
   <slices>
   </slices>
   <sliceSourceBounds bottomLeftOrigin="true" height="75" width="783.8" x="-389.7" y="-218.7">
   </sliceSourceBounds>
  </sfw>
 </metadata>
 <g>
  <path d="M117.5,48.3c2.6,0,3.9-1.8,3.9-3.9c0-2.1-1.2-3.8-3.9-3.8h-5.5v7.7H117.5z M116.8,33.3c2.3,0,3.3-1.7,3.3-3.4
		c0-1.7-1-3.2-3.4-3.2h-4.5v6.6H116.8z M103,19h13.6c7.4,0,12.6,3.3,12.6,9.7c0,3.1-1.5,6.3-4.3,7.9v0.1c4.3,1.3,5.8,5.1,5.8,8.4
		c0,8.1-6.7,11.1-14.1,11.1H103V19z">
  </path>
  <path d="M164.5,48.4c5.6,0,10-4.8,10-11.1c0-6.1-4.5-10.6-10-10.6c-5.6,0-10,4.6-10,10.6C154.4,43.6,158.9,48.4,164.5,48.4
		 M164.5,18.3c11.2,0,19.4,8.3,19.4,18.9c0,10.9-8.2,19.4-19.4,19.4c-11.2,0-19.4-8.5-19.4-19.4C145.1,26.6,153.2,18.3,164.5,18.3">
  </path>
  <path d="M217.3,48.4c5.6,0,10-4.8,10-11.1c0-6.1-4.5-10.6-10-10.6c-5.6,0-10,4.6-10,10.6C207.3,43.6,211.7,48.4,217.3,48.4
		 M217.3,18.3c11.2,0,19.4,8.3,19.4,18.9c0,10.9-8.2,19.4-19.4,19.4c-11.2,0-19.4-8.5-19.4-19.4C197.9,26.6,206.1,18.3,217.3,18.3">
  </path>
  <polygon points="253.2,19 262.3,19 262.3,33.3 266.1,33.3 273.7,19 283.5,19 273.5,36.7 273.5,36.8 284.1,56 273.9,56 266.1,41 
		262.3,41 262.3,56 253.2,56 	">
  </polygon>
  <rect x="299.5" y="19" width="9.1" height="37.1">
  </rect>
  <path d="M327.7,19h9.2l10.3,17.3c1.5,2.4,3.1,6.3,3.1,6.3h0.1c0,0-0.4-4-0.4-6.3V19h9.1V56h-9.1l-10.3-17.3
		c-1.5-2.4-3.1-6.3-3.1-6.3h-0.1c0,0,0.4,4,0.4,6.3V56h-9.1V19z">
  </path>
  <path d="M395.1,18.3c9.5,0,14.3,4.9,14.3,4.9l-4.4,6.8c0,0-3.8-3.4-9-3.4c-7.8,0-10.9,5-10.9,10.5c0,7.1,4.9,11.3,10.6,11.3
		c4.4,0,7.5-2.7,7.5-2.7v-2.9H398v-7.7h13.3v21h-7.6v-1c0-0.8,0.1-1.6,0.1-1.6h-0.1c0,0-3.6,3.2-9.8,3.2c-9.5,0-18.2-7.1-18.2-19.2
		C375.7,26.6,383.8,18.3,395.1,18.3">
  </path>
  <polygon class="st0" points="451.7,19.6 455.3,19.6 455.3,36.2 476.4,36.2 476.4,19.6 480,19.6 480,56 476.4,56 476.4,39.4 
		455.3,39.4 455.3,56 451.7,56 	">
  </polygon>
  <path class="st0" d="M517.1,53.3c8.2,0,14.8-6.8,14.8-15.8c0-8.7-6.6-15.3-14.8-15.3c-8.2,0-14.8,6.6-14.8,15.3
		C502.2,46.5,508.8,53.3,517.1,53.3 M517.1,19c10.3,0,18.6,8.1,18.6,18.6c0,10.7-8.2,19.1-18.6,19.1c-10.3,0-18.6-8.4-18.6-19.1
		C498.5,27.1,506.7,19,517.1,19">
  </path>
  <polygon class="st0" points="554.1,19.6 557.7,19.6 557.7,52.8 574.6,52.8 574.6,56 554.1,56 	">
  </polygon>
  <path class="st0" d="M602.8,52.8c9,0,14.9-5.3,14.9-15c0-9.7-6-15-14.9-15h-7.8v30H602.8z M591.4,19.6h11.8
		c10.9,0,18.3,6.7,18.3,18.2c0,11.6-7.4,18.3-18.3,18.3h-11.8V19.6z">
  </path>
  <rect x="640.1" y="19.6" class="st0" width="3.6" height="36.5">
  </rect>
  <path class="st0" d="M664.7,19.6h3.5l18.6,26.3c1.2,1.8,3,4.9,3,4.9h0.1c0,0-0.3-3-0.3-4.9V19.6h3.6V56h-3.5l-18.6-26.3
		c-1.2-1.8-3-4.9-3-4.9H668c0,0,0.3,3,0.3,4.9V56h-3.6V19.6z">
  </path>
  <path class="st0" d="M730.1,19c8.5,0,13,4.3,13,4.3l-1.9,2.7c0,0-4.3-3.6-10.9-3.6c-8.8,0-14.8,6.8-14.8,15.5
		c0,9,6.2,15.6,14.5,15.6c7.1,0,11.5-5.3,11.5-5.3v-6.2h-6.2v-3.2h9.7V56h-3.3v-2.7c0-0.8,0.1-1.6,0.1-1.6h-0.1
		c0,0-4.2,4.9-11.9,4.9c-10,0-17.8-8-17.8-18.9C711.7,27.3,719.6,19,730.1,19">
  </path>
  <path class="st0" d="M763.3,49.3c0,0,3.8,4,9.5,4c4,0,7.3-2.4,7.3-6.3c0-9.2-18.2-6.9-18.2-18.2c0-5.2,4.6-9.8,11.4-9.8
		c6.3,0,9.8,3.5,9.8,3.5l-1.8,3c0,0-3.2-3.1-8-3.1c-4.7,0-7.7,3.1-7.7,6.3c0,8.7,18.2,6.2,18.2,18.2c0,5.4-4.2,9.9-11.1,9.9
		c-7.5,0-11.6-4.7-11.6-4.7L763.3,49.3z">
  </path>
  <path class="st1" d="M2.2,26.7c-1.1-0.1-2,0.6-2.2,1.7c-0.1,1.1,0.6,2,1.7,2.2c1.1,0.1,2-0.6,2.2-1.7C4,27.8,3.3,26.8,2.2,26.7">
  </path>
  <path class="st1" d="M2.2,17.8c-1.1-0.1-2,0.6-2.2,1.7c-0.1,1.1,0.6,2,1.7,2.2c1.1,0.1,2-0.6,2.2-1.7C4,18.9,3.3,17.9,2.2,17.8">
  </path>
  <path d="M2.2,8.9c-1.1-0.1-2,0.6-2.2,1.7c-0.1,1.1,0.6,2,1.7,2.2c1.1,0.1,2-0.6,2.2-1.7C4,10,3.3,9.1,2.2,8.9">
  </path>
  <path d="M2.2,0C1.1-0.1,0.2,0.6,0,1.7s0.6,2,1.7,2.2c1.1,0.1,2-0.6,2.2-1.7C4,1.1,3.3,0.2,2.2,0">
  </path>
  <path class="st1" d="M9.1,26.7c-1.1-0.1-2,0.6-2.2,1.7c-0.1,1.1,0.6,2,1.7,2.2c1.1,0.1,2-0.6,2.2-1.7C10.9,27.8,10.2,26.8,9.1,26.7
		">
  </path>
  <path class="st1" d="M9.1,17.8c-1.1-0.1-2,0.6-2.2,1.7c-0.1,1.1,0.6,2,1.7,2.2c1.1,0.1,2-0.6,2.2-1.7C10.9,18.9,10.2,17.9,9.1,17.8
		">
  </path>
  <path d="M9.1,8.9c-1.1-0.1-2,0.6-2.2,1.7c-0.1,1.1,0.6,2,1.7,2.2c1.1,0.1,2-0.6,2.2-1.7C10.9,10,10.2,9.1,9.1,8.9">
  </path>
  <path d="M9.1,0c-1.1-0.1-2,0.6-2.2,1.7c-0.1,1.1,0.6,2,1.7,2.2c1.1,0.1,2-0.6,2.2-1.7C10.9,1.1,10.2,0.2,9.1,0">
  </path>
  <path class="st1" d="M16,26.7c-1.1-0.1-2,0.6-2.2,1.7c-0.1,1.1,0.6,2,1.7,2.2c1.1,0.1,2-0.6,2.2-1.7C17.8,27.8,17.1,26.8,16,26.7">
  </path>
  <path class="st1" d="M16,17.8c-1.1-0.1-2,0.6-2.2,1.7c-0.1,1.1,0.6,2,1.7,2.2c1.1,0.1,2-0.6,2.2-1.7C17.8,18.9,17.1,17.9,16,17.8">
  </path>
  <path d="M16,8.9c-1.1-0.1-2,0.6-2.2,1.7c-0.1,1.1,0.6,2,1.7,2.2c1.1,0.1,2-0.6,2.2-1.7C17.8,10,17.1,9.1,16,8.9">
  </path>
  <path d="M16,0c-1.1-0.1-2,0.6-2.2,1.7c-0.1,1.1,0.6,2,1.7,2.2c1.1,0.1,2-0.6,2.2-1.7C17.8,1.1,17.1,0.2,16,0">
  </path>
  <path class="st1" d="M23,26.7c-1.1-0.1-2,0.6-2.2,1.7c-0.1,1.1,0.6,2,1.7,2.2c1.1,0.1,2-0.6,2.2-1.7C24.8,27.8,24,26.8,23,26.7">
  </path>
  <path class="st1" d="M29.9,26.7c-1.1-0.1-2,0.6-2.2,1.7c-0.1,1.1,0.6,2,1.7,2.2c1.1,0.1,2-0.6,2.2-1.7
		C31.7,27.8,30.9,26.8,29.9,26.7">
  </path>
  <path class="st1" d="M29.9,17.8c-1.1-0.1-2,0.6-2.2,1.7c-0.1,1.1,0.6,2,1.7,2.2c1.1,0.1,2-0.6,2.2-1.7
		C31.7,18.9,30.9,17.9,29.9,17.8">
  </path>
  <path d="M29.9,8.9c-1.1-0.1-2,0.6-2.2,1.7c-0.1,1.1,0.6,2,1.7,2.2c1.1,0.1,2-0.6,2.2-1.7C31.7,10,30.9,9.1,29.9,8.9">
  </path>
  <path d="M29.9,0c-1.1-0.1-2,0.6-2.2,1.7c-0.1,1.1,0.6,2,1.7,2.2c1.1,0.1,2-0.6,2.2-1.7C31.7,1.1,30.9,0.2,29.9,0">
  </path>
  <path class="st1" d="M36.8,26.7c-1.1-0.1-2,0.6-2.2,1.7c-0.1,1.1,0.6,2,1.7,2.2c1.1,0.1,2-0.6,2.2-1.7
		C38.6,27.8,37.8,26.8,36.8,26.7">
  </path>
  <path class="st1" d="M36.8,17.8c-1.1-0.1-2,0.6-2.2,1.7c-0.1,1.1,0.6,2,1.7,2.2c1.1,0.1,2-0.6,2.2-1.7
		C38.6,18.9,37.8,17.9,36.8,17.8">
  </path>
  <path d="M36.8,8.9c-1.1-0.1-2,0.6-2.2,1.7c-0.1,1.1,0.6,2,1.7,2.2c1.1,0.1,2-0.6,2.2-1.7C38.6,10,37.8,9.1,36.8,8.9">
  </path>
  <path d="M36.8,0c-1.1-0.1-2,0.6-2.2,1.7c-0.1,1.1,0.6,2,1.7,2.2c1.1,0.1,2-0.6,2.2-1.7C38.6,1.1,37.8,0.2,36.8,0">
  </path>
  <path class="st1" d="M43.7,26.7c-1.1-0.1-2,0.6-2.2,1.7c-0.1,1.1,0.6,2,1.7,2.2c1.1,0.1,2-0.6,2.2-1.7
		C45.5,27.8,44.8,26.8,43.7,26.7">
  </path>
  <path class="st1" d="M43.7,17.8c-1.1-0.1-2,0.6-2.2,1.7c-0.1,1.1,0.6,2,1.7,2.2c1.1,0.1,2-0.6,2.2-1.7
		C45.5,18.9,44.8,17.9,43.7,17.8">
  </path>
  <path d="M43.7,8.9c-1.1-0.1-2,0.6-2.2,1.7c-0.1,1.1,0.6,2,1.7,2.2c1.1,0.1,2-0.6,2.2-1.7C45.5,10,44.8,9.1,43.7,8.9">
  </path>
  <path d="M43.7,0c-1.1-0.1-2,0.6-2.2,1.7c-0.1,1.1,0.6,2,1.7,2.2c1.1,0.1,2-0.6,2.2-1.7C45.5,1.1,44.8,0.2,43.7,0">
  </path>
  <path class="st1" d="M50.6,26.7c-1.1-0.1-2,0.6-2.2,1.7c-0.1,1.1,0.6,2,1.7,2.2c1.1,0.1,2-0.6,2.2-1.7
		C52.4,27.8,51.7,26.8,50.6,26.7">
  </path>
  <path class="st1" d="M50.6,17.8c-1.1-0.1-2,0.6-2.2,1.7c-0.1,1.1,0.6,2,1.7,2.2c1.1,0.1,2-0.6,2.2-1.7
		C52.4,18.9,51.7,17.9,50.6,17.8">
  </path>
  <path d="M50.6,8.9c-1.1-0.1-2,0.6-2.2,1.7c-0.1,1.1,0.6,2,1.7,2.2c1.1,0.1,2-0.6,2.2-1.7C52.4,10,51.7,9.1,50.6,8.9">
  </path>
  <path class="st1" d="M23,17.8c-1.1-0.1-2,0.6-2.2,1.7c-0.1,1.1,0.6,2,1.7,2.2c1.1,0.1,2-0.6,2.2-1.7C24.8,18.9,24,17.9,23,17.8">
  </path>
  <path d="M23,8.9c-1.1-0.1-2,0.6-2.2,1.7c-0.1,1.1,0.6,2,1.7,2.2c1.1,0.1,2-0.6,2.2-1.7C24.8,10,24,9.1,23,8.9">
  </path>
  <path d="M23,0c-1.1-0.1-2,0.6-2.2,1.7c-0.1,1.1,0.6,2,1.7,2.2c1.1,0.1,2-0.6,2.2-1.7C24.8,1.1,24,0.2,23,0">
  </path>
  <path class="st2" d="M2.2,39.4c-1.1,0.1-2-0.6-2.2-1.7c-0.1-1.1,0.6-2,1.7-2.2c1.1-0.1,2,0.6,2.2,1.7C4,38.3,3.3,39.3,2.2,39.4">
  </path>
  <path class="st2" d="M2.2,48.3c-1.1,0.1-2-0.6-2.2-1.7c-0.1-1.1,0.6-2,1.7-2.2c1.1-0.1,2,0.6,2.2,1.7C4,47.2,3.3,48.2,2.2,48.3">
  </path>
  <path class="st0" d="M2.2,57.2c-1.1,0.1-2-0.6-2.2-1.7c-0.1-1.1,0.6-2,1.7-2.2c1.1-0.1,2,0.6,2.2,1.7C4,56.1,3.3,57.1,2.2,57.2">
  </path>
  <path class="st0" d="M2.2,66.1c-1.1,0.1-2-0.6-2.2-1.7c-0.1-1.1,0.6-2,1.7-2.2c1.1-0.1,2,0.6,2.2,1.7C4,65,3.3,65.9,2.2,66.1">
  </path>
  <path class="st0" d="M2.2,75c-1.1,0.1-2-0.6-2.2-1.7c-0.1-1.1,0.6-2,1.7-2.2c1.1-0.1,2,0.6,2.2,1.7C4,73.9,3.3,74.8,2.2,75">
  </path>
  <path class="st2" d="M9.1,39.4c-1.1,0.1-2-0.6-2.2-1.7c-0.1-1.1,0.6-2,1.7-2.2c1.1-0.1,2,0.6,2.2,1.7C10.9,38.3,10.2,39.3,9.1,39.4
		">
  </path>
  <path class="st2" d="M9.1,48.3c-1.1,0.1-2-0.6-2.2-1.7c-0.1-1.1,0.6-2,1.7-2.2c1.1-0.1,2,0.6,2.2,1.7C10.9,47.2,10.2,48.2,9.1,48.3
		">
  </path>
  <path class="st0" d="M9.1,57.2c-1.1,0.1-2-0.6-2.2-1.7c-0.1-1.1,0.6-2,1.7-2.2c1.1-0.1,2,0.6,2.2,1.7C10.9,56.1,10.2,57.1,9.1,57.2
		">
  </path>
  <path class="st0" d="M9.1,66.1c-1.1,0.1-2-0.6-2.2-1.7c-0.1-1.1,0.6-2,1.7-2.2c1.1-0.1,2,0.6,2.2,1.7C10.9,65,10.2,65.9,9.1,66.1">
  </path>
  <path class="st0" d="M9.1,75c-1.1,0.1-2-0.6-2.2-1.7c-0.1-1.1,0.6-2,1.7-2.2c1.1-0.1,2,0.6,2.2,1.7C10.9,73.9,10.2,74.8,9.1,75">
  </path>
  <path class="st2" d="M16,39.4c-1.1,0.1-2-0.6-2.2-1.7c-0.1-1.1,0.6-2,1.7-2.2c1.1-0.1,2,0.6,2.2,1.7C17.8,38.3,17.1,39.3,16,39.4">
  </path>
  <path class="st2" d="M16,48.3c-1.1,0.1-2-0.6-2.2-1.7c-0.1-1.1,0.6-2,1.7-2.2c1.1-0.1,2,0.6,2.2,1.7C17.8,47.2,17.1,48.2,16,48.3">
  </path>
  <path class="st0" d="M16,57.2c-1.1,0.1-2-0.6-2.2-1.7c-0.1-1.1,0.6-2,1.7-2.2c1.1-0.1,2,0.6,2.2,1.7C17.8,56.1,17.1,57.1,16,57.2">
  </path>
  <path class="st0" d="M16,66.1c-1.1,0.1-2-0.6-2.2-1.7c-0.1-1.1,0.6-2,1.7-2.2c1.1-0.1,2,0.6,2.2,1.7C17.8,65,17.1,65.9,16,66.1">
  </path>
  <path class="st0" d="M16,75c-1.1,0.1-2-0.6-2.2-1.7c-0.1-1.1,0.6-2,1.7-2.2c1.1-0.1,2,0.6,2.2,1.7C17.8,73.9,17.1,74.8,16,75">
  </path>
  <path class="st2" d="M23,39.4c-1.1,0.1-2-0.6-2.2-1.7c-0.1-1.1,0.6-2,1.7-2.2c1.1-0.1,2,0.6,2.2,1.7C24.8,38.3,24,39.3,23,39.4">
  </path>
  <path class="st2" d="M23,48.3c-1.1,0.1-2-0.6-2.2-1.7c-0.1-1.1,0.6-2,1.7-2.2c1.1-0.1,2,0.6,2.2,1.7C24.8,47.2,24,48.2,23,48.3">
  </path>
  <path class="st2" d="M29.9,48.3c-1.1,0.1-2-0.6-2.2-1.7c-0.1-1.1,0.6-2,1.7-2.2c1.1-0.1,2,0.6,2.2,1.7
		C31.7,47.2,30.9,48.2,29.9,48.3">
  </path>
  <path class="st0" d="M29.9,57.2c-1.1,0.1-2-0.6-2.2-1.7c-0.1-1.1,0.6-2,1.7-2.2c1.1-0.1,2,0.6,2.2,1.7
		C31.7,56.1,30.9,57.1,29.9,57.2">
  </path>
  <path class="st0" d="M29.9,66.1c-1.1,0.1-2-0.6-2.2-1.7c-0.1-1.1,0.6-2,1.7-2.2c1.1-0.1,2,0.6,2.2,1.7C31.7,65,30.9,65.9,29.9,66.1
		">
  </path>
  <path class="st0" d="M29.9,75c-1.1,0.1-2-0.6-2.2-1.7c-0.1-1.1,0.6-2,1.7-2.2c1.1-0.1,2,0.6,2.2,1.7C31.7,73.9,30.9,74.8,29.9,75">
  </path>
  <path class="st2" d="M36.8,48.3c-1.1,0.1-2-0.6-2.2-1.7c-0.1-1.1,0.6-2,1.7-2.2c1.1-0.1,2,0.6,2.2,1.7
		C38.6,47.2,37.8,48.2,36.8,48.3">
  </path>
  <path class="st0" d="M36.8,57.2c-1.1,0.1-2-0.6-2.2-1.7c-0.1-1.1,0.6-2,1.7-2.2c1.1-0.1,2,0.6,2.2,1.7
		C38.6,56.1,37.8,57.1,36.8,57.2">
  </path>
  <path class="st0" d="M36.8,66.1c-1.1,0.1-2-0.6-2.2-1.7c-0.1-1.1,0.6-2,1.7-2.2c1.1-0.1,2,0.6,2.2,1.7C38.6,65,37.8,65.9,36.8,66.1
		">
  </path>
  <path class="st0" d="M36.8,75c-1.1,0.1-2-0.6-2.2-1.7c-0.1-1.1,0.6-2,1.7-2.2c1.1-0.1,2,0.6,2.2,1.7C38.6,73.9,37.8,74.8,36.8,75">
  </path>
  <path class="st2" d="M43.7,48.3c-1.1,0.1-2-0.6-2.2-1.7c-0.1-1.1,0.6-2,1.7-2.2c1.1-0.1,2,0.6,2.2,1.7
		C45.5,47.2,44.8,48.2,43.7,48.3">
  </path>
  <path class="st0" d="M43.7,57.2c-1.1,0.1-2-0.6-2.2-1.7c-0.1-1.1,0.6-2,1.7-2.2c1.1-0.1,2,0.6,2.2,1.7
		C45.5,56.1,44.8,57.1,43.7,57.2">
  </path>
  <path class="st0" d="M43.7,66.1c-1.1,0.1-2-0.6-2.2-1.7c-0.1-1.1,0.6-2,1.7-2.2c1.1-0.1,2,0.6,2.2,1.7C45.5,65,44.8,65.9,43.7,66.1
		">
  </path>
  <path class="st0" d="M43.7,75c-1.1,0.1-2-0.6-2.2-1.7c-0.1-1.1,0.6-2,1.7-2.2c1.1-0.1,2,0.6,2.2,1.7C45.5,73.9,44.8,74.8,43.7,75">
  </path>
  <path class="st2" d="M50.6,48.3c-1.1,0.1-2-0.6-2.2-1.7c-0.1-1.1,0.6-2,1.7-2.2c1.1-0.1,2,0.6,2.2,1.7
		C52.4,47.2,51.7,48.2,50.6,48.3">
  </path>
  <path class="st0" d="M50.6,57.2c-1.1,0.1-2-0.6-2.2-1.7c-0.1-1.1,0.6-2,1.7-2.2c1.1-0.1,2,0.6,2.2,1.7
		C52.4,56.1,51.7,57.1,50.6,57.2">
  </path>
  <path class="st2" d="M29.9,39.4c-1.1,0.1-2-0.6-2.2-1.7c-0.1-1.1,0.6-2,1.7-2.2c1.1-0.1,2,0.6,2.2,1.7
		C31.7,38.3,30.9,39.3,29.9,39.4">
  </path>
  <path class="st2" d="M36.8,39.4c-1.1,0.1-2-0.6-2.2-1.7c-0.1-1.1,0.6-2,1.7-2.2c1.1-0.1,2,0.6,2.2,1.7
		C38.6,38.3,37.8,39.3,36.8,39.4">
  </path>
  <path class="st2" d="M43.7,39.4c-1.1,0.1-2-0.6-2.2-1.7c-0.1-1.1,0.6-2,1.7-2.2c1.1-0.1,2,0.6,2.2,1.7
		C45.5,38.3,44.8,39.3,43.7,39.4">
  </path>
  <path class="st0" d="M50.6,66.1c-1.1,0.1-2-0.6-2.2-1.7c-0.1-1.1,0.6-2,1.7-2.2c1.1-0.1,2,0.6,2.2,1.7C52.4,65,51.7,65.9,50.6,66.1
		">
  </path>
  <path class="st0" d="M23,57.2c-1.1,0.1-2-0.6-2.2-1.7c-0.1-1.1,0.6-2,1.7-2.2c1.1-0.1,2,0.6,2.2,1.7C24.8,56.1,24,57.1,23,57.2">
  </path>
  <path class="st0" d="M23,66.1c-1.1,0.1-2-0.6-2.2-1.7c-0.1-1.1,0.6-2,1.7-2.2c1.1-0.1,2,0.6,2.2,1.7C24.8,65,24,65.9,23,66.1">
  </path>
  <path class="st0" d="M23,75c-1.1,0.1-2-0.6-2.2-1.7c-0.1-1.1,0.6-2,1.7-2.2c1.1-0.1,2,0.6,2.2,1.7C24.8,73.9,24,74.8,23,75">
  </path>
 </g>
</svg>