<svg xmlns="http://www.w3.org/2000/svg" width="447" height="447" viewBox="0 0 447 447" version="1.1"><path d="M 131.937 123.607 C 125.922 129.535, 121 134.908, 121 135.547 C 121 136.186, 122.972 138.462, 125.381 140.605 C 127.791 142.747, 136.904 151.316, 145.631 159.646 C 154.359 167.977, 165.775 178.874, 171 183.863 C 176.225 188.851, 181.227 192.948, 182.115 192.966 C 183.814 193.002, 200.426 176.650, 203 172.409 C 204.477 169.975, 204.317 169.758, 192.500 158.182 C 168.391 134.565, 145.871 113.492, 144.392 113.165 C 143.526 112.973, 138.181 117.455, 131.937 123.607 M 304.290 120.759 C 299.774 125.017, 291.224 133.172, 285.290 138.882 C 279.355 144.591, 270.225 153.376, 265 158.402 C 259.775 163.429, 245.825 176.738, 234 187.979 C 222.175 199.219, 212.275 208.671, 212 208.982 C 211.725 209.293, 205.869 214.937, 198.986 221.524 C 159.979 258.855, 138.411 279.541, 129.750 287.930 L 120 297.374 120 318.628 C 120 332.395, 120.370 340.111, 121.050 340.531 C 122.263 341.281, 124.775 339.032, 154.500 310.585 C 166.600 299.005, 180.759 285.474, 185.965 280.515 C 191.171 275.557, 201.071 266.081, 207.965 259.457 C 214.859 252.834, 225.675 242.488, 232 236.466 C 245.492 223.621, 258.961 210.714, 266.925 203 C 270.048 199.975, 280.191 190.300, 289.465 181.500 C 298.740 172.700, 310.417 161.518, 315.414 156.650 C 320.411 151.783, 327.087 145.528, 330.250 142.750 C 334.002 139.455, 336 136.930, 336 135.483 C 336 133.978, 332.628 130.015, 325.493 123.133 C 319.714 117.560, 314.426 113.004, 313.743 113.009 C 313.059 113.014, 308.805 116.502, 304.290 120.759 M 266.802 251.542 C 261.136 257.340, 256.348 262.773, 256.163 263.615 C 255.961 264.531, 260.982 270.039, 268.661 277.323 C 275.720 284.020, 283.522 291.460, 285.998 293.855 C 324.910 331.497, 335.650 341.334, 336.956 340.527 C 337.628 340.112, 338 332.349, 338 318.719 L 338 297.556 328.237 288.028 C 310.480 270.698, 281.043 242.645, 279.761 241.831 C 279.067 241.391, 278.186 241.024, 277.802 241.015 C 277.418 241.007, 272.468 245.744, 266.802 251.542" stroke="none" fill="#e75528" fill-rule="evenodd"/><path d="M 203.500 1.037 C 146.098 5.583, 87.809 36.264, 51.330 81.133 C 24.551 114.072, 8.831 149.655, 2.352 192 C -0.039 207.624, -0.032 238.049, 2.366 254.500 C 13.011 327.525, 58.051 389.963, 124 423.119 C 172.967 447.737, 228.101 453.251, 282 438.920 C 310.774 431.270, 342.839 414.381, 367.208 394.040 C 391.416 373.834, 414.743 342.913, 427.467 314.166 C 436.350 294.097, 443.772 266.230, 446.154 244 C 447.776 228.868, 448.277 210, 447.057 210 C 446.445 210, 446 207.734, 446 204.621 C 446 197.480, 442.880 179.876, 439.128 165.846 C 431.508 137.350, 419.262 112.212, 401.376 88.345 C 393.460 77.782, 374.536 58.375, 363.500 49.502 C 332.018 24.190, 293.351 7.494, 253.640 2.064 C 243.069 0.619, 215.829 0.061, 203.500 1.037 M 131.937 123.607 C 125.922 129.535, 121 134.908, 121 135.547 C 121 136.186, 122.972 138.462, 125.381 140.605 C 127.791 142.747, 136.904 151.316, 145.631 159.646 C 154.359 167.977, 165.775 178.874, 171 183.863 C 176.225 188.851, 181.227 192.948, 182.115 192.966 C 183.814 193.002, 200.426 176.650, 203 172.409 C 204.477 169.975, 204.317 169.758, 192.500 158.182 C 168.391 134.565, 145.871 113.492, 144.392 113.165 C 143.526 112.973, 138.181 117.455, 131.937 123.607 M 304.290 120.759 C 299.774 125.017, 291.224 133.172, 285.290 138.882 C 279.355 144.591, 270.225 153.376, 265 158.402 C 259.775 163.429, 245.825 176.738, 234 187.979 C 222.175 199.219, 212.275 208.671, 212 208.982 C 211.725 209.293, 205.869 214.937, 198.986 221.524 C 159.979 258.855, 138.411 279.541, 129.750 287.930 L 120 297.374 120 318.628 C 120 332.395, 120.370 340.111, 121.050 340.531 C 122.263 341.281, 124.775 339.032, 154.500 310.585 C 166.600 299.005, 180.759 285.474, 185.965 280.515 C 191.171 275.557, 201.071 266.081, 207.965 259.457 C 214.859 252.834, 225.675 242.488, 232 236.466 C 245.492 223.621, 258.961 210.714, 266.925 203 C 270.048 199.975, 280.191 190.300, 289.465 181.500 C 298.740 172.700, 310.417 161.518, 315.414 156.650 C 320.411 151.783, 327.087 145.528, 330.250 142.750 C 334.002 139.455, 336 136.930, 336 135.483 C 336 133.978, 332.628 130.015, 325.493 123.133 C 319.714 117.560, 314.426 113.004, 313.743 113.009 C 313.059 113.014, 308.805 116.502, 304.290 120.759 M 0.385 223 C 0.385 229.875, 0.545 232.688, 0.740 229.250 C 0.936 225.813, 0.936 220.188, 0.740 216.750 C 0.545 213.313, 0.385 216.125, 0.385 223 M 266.802 251.542 C 261.136 257.340, 256.348 262.773, 256.163 263.615 C 255.961 264.531, 260.982 270.039, 268.661 277.323 C 275.720 284.020, 283.522 291.460, 285.998 293.855 C 324.910 331.497, 335.650 341.334, 336.956 340.527 C 337.628 340.112, 338 332.349, 338 318.719 L 338 297.556 328.237 288.028 C 310.480 270.698, 281.043 242.645, 279.761 241.831 C 279.067 241.391, 278.186 241.024, 277.802 241.015 C 277.418 241.007, 272.468 245.744, 266.802 251.542" stroke="none" fill="#0d3443" fill-rule="evenodd"/></svg>