<svg xmlns="http://www.w3.org/2000/svg" width="738" height="318" viewBox="0 0 738 318" version="1.1"><path d="M 665.250 107.662 C 664.563 107.940, 664 108.804, 664 109.583 C 664 110.649, 665.495 111, 670.035 111 C 675.760 111, 676.015 110.897, 675 109 C 674.210 107.523, 672.958 107.021, 670.215 107.079 C 668.172 107.122, 665.938 107.385, 665.250 107.662 M 100 116.136 C 92.742 117.326, 81.632 122.716, 75.864 127.846 C 66.138 136.497, 61.593 147.263, 62.150 160.333 C 62.444 167.243, 63.044 169.656, 65.925 175.524 C 72.743 189.411, 87.507 200.345, 103 202.980 C 106.575 203.588, 116.475 203.954, 125 203.793 L 140.500 203.500 140.500 193.014 C 140.500 183.594, 140.311 182.491, 138.644 182.170 C 137.576 181.964, 135.454 183.100, 133.644 184.845 C 129.326 189.010, 126.146 190, 117.095 190 C 103.461 190, 94.577 183.942, 88.257 170.336 C 85.947 165.362, 85.545 163.171, 85.536 155.500 C 85.527 148.082, 85.934 145.674, 87.849 141.800 C 92.363 132.672, 99.351 128, 108.492 128 C 119.410 128, 124.494 132.048, 124.511 140.753 C 124.519 144.921, 124.952 146.567, 126.259 147.392 C 127.728 148.318, 129.276 147.199, 136.248 140.174 L 144.500 131.861 139.500 127.385 C 133.446 121.965, 124.394 117.364, 117.114 116.005 C 110.924 114.850, 107.690 114.875, 100 116.136 M 384 115.991 C 376.127 117.088, 367.933 120.474, 361.275 125.381 C 354.534 130.350, 350.911 134.821, 347.188 142.765 C 344.830 147.797, 344.500 149.732, 344.500 158.546 C 344.500 168.140, 344.669 168.935, 348.253 176.191 C 354.738 189.323, 368.530 199.681, 383.799 202.887 C 386.714 203.499, 396.742 204, 406.083 204 L 423.068 204 422.784 193.262 C 422.530 183.669, 422.299 182.485, 420.619 182.163 C 419.535 181.956, 417.721 182.899, 416.337 184.392 C 412.332 188.711, 408.453 190.135, 400.607 190.166 C 386.329 190.222, 377.906 185.206, 371.730 172.970 C 366.922 163.443, 365.963 155.733, 368.447 146.558 C 372.300 132.325, 384.343 125.190, 398.074 129.004 C 403.938 130.633, 406.498 134.191, 406.511 140.728 C 406.519 144.730, 406.970 146.579, 408.118 147.302 C 410.072 148.535, 412.144 147.011, 420.420 138.254 L 426.340 131.991 423.950 129.446 C 414.675 119.574, 398.170 114.015, 384 115.991 M 468.712 116.075 C 451.811 119.549, 437.632 131.739, 432.982 146.793 C 425.514 170.971, 439.189 196.418, 463.722 203.996 C 471.490 206.395, 485.740 206.831, 493.577 204.908 C 516.878 199.193, 532.811 176.248, 529.097 153.759 C 526.341 137.072, 515.458 124.369, 498.500 118.047 C 491.596 115.473, 476.500 114.474, 468.712 116.075 M 666.180 117.240 C 666.729 121.084, 675 120.842, 675 116.981 C 675 115.295, 674.319 115, 670.430 115 C 666.269 115, 665.889 115.200, 666.180 117.240 M 678.490 118.046 C 678.134 119.664, 677.204 121.346, 676.423 121.783 C 675.278 122.424, 675.551 123.235, 677.825 125.960 L 680.648 129.341 682.324 126.948 C 683.246 125.632, 684 122.927, 684 120.938 C 684 118.077, 683.492 117.089, 681.568 116.213 C 679.337 115.196, 679.082 115.348, 678.490 118.046 M 185.080 132.750 C 165.962 185.104, 162.992 192.501, 159.997 195.236 C 157.924 197.129, 157 198.910, 157 201.015 L 157 204.058 170.238 203.779 C 182.196 203.527, 183.510 203.321, 183.830 201.651 C 184.028 200.618, 182.951 198.515, 181.389 196.885 L 178.594 193.967 181.547 185.330 C 183.171 180.580, 185.095 176.088, 185.821 175.347 C 187.629 173.504, 211.300 173.419, 212.734 175.250 C 214.723 177.789, 220.025 193.345, 219.484 195.051 C 219.176 196.021, 218.266 197.068, 217.462 197.376 C 216.624 197.698, 216 199.232, 216 200.969 L 216 204 232.500 204 L 249 204 249 201.023 C 249 198.991, 248.244 197.551, 246.619 196.486 C 243.214 194.255, 241.388 190.200, 227.940 155 C 221.321 137.675, 215.422 122.263, 214.831 120.750 L 213.757 118 202.112 118 L 190.466 118 185.080 132.750 M 260 121.465 C 260 123.906, 260.591 125.246, 262 126 C 263.939 127.038, 264 128.094, 264 160.880 C 264 193.420, 263.925 194.758, 262 196.500 C 260.885 197.509, 260 199.580, 260 201.181 L 260 204.052 275.250 203.776 C 290.248 203.505, 290.505 203.463, 290.822 201.230 C 291.014 199.877, 290.088 197.705, 288.529 195.853 C 286.200 193.085, 285.946 192.028, 286.207 186.192 L 286.500 179.639 298.500 175.508 C 313.227 170.439, 319.868 167.085, 325.553 161.844 C 336.673 151.595, 336.732 131.889, 325.667 123.874 C 318.411 118.617, 314.223 118, 285.818 118 L 260 118 260 121.465 M 542 120.815 C 542 122.900, 542.680 123.989, 544.500 124.818 C 547.554 126.209, 547.552 125.866, 544.597 143.864 C 543.276 151.914, 540.922 166.375, 539.367 176 C 536.805 191.863, 536.282 193.764, 533.770 196.327 C 532.247 197.882, 531 200.244, 531 201.577 L 531 204 545 204 L 559 204 559 201 C 559 199.119, 558.486 198, 557.622 198 C 556.865 198, 555.668 197.305, 554.963 196.456 C 553.911 195.187, 554.283 190.627, 557.048 170.956 C 558.899 157.780, 560.694 147, 561.037 147 C 561.380 147, 564.280 154.762, 567.481 164.250 C 570.683 173.738, 573.700 182.287, 574.186 183.250 C 574.916 184.695, 576.450 185, 582.976 185 C 587.324 185, 591.098 184.651, 591.362 184.223 C 591.626 183.796, 594.320 175.809, 597.349 166.473 C 605.729 140.643, 604.980 141.566, 607.065 154.500 C 612.836 190.305, 613.200 193.266, 612.120 195.636 C 611.528 196.936, 610.358 198, 609.521 198 C 608.498 198, 608 198.981, 608 201 L 608 204 624 204 L 640 204 640 201 C 640 199.350, 639.605 198, 639.121 198 C 637.595 198, 636.177 192.850, 634.577 181.500 C 633.724 175.450, 631.671 161.276, 630.013 150.001 C 628.356 138.727, 627 128.710, 627 127.742 C 627 126.773, 627.900 125.210, 629 124.268 C 630.100 123.326, 631 121.520, 631 120.254 L 631 117.952 614.346 118.226 L 597.691 118.500 592.096 134.178 C 589.018 142.801, 586.209 150.141, 585.854 150.490 C 585.499 150.839, 582.762 143.784, 579.772 134.812 L 574.335 118.500 558.168 118.225 L 542 117.950 542 120.815 M 469.500 131.314 C 459.789 136.017, 455.932 143.256, 455.211 158.132 C 454.091 181.224, 463.068 192.771, 481.418 191.844 C 491.896 191.315, 497.259 187.854, 502 178.563 C 505.316 172.063, 505.500 171.173, 505.500 161.602 C 505.500 150.646, 503.826 144.315, 499.333 138.272 C 493.052 129.827, 479.227 126.603, 469.500 131.314 M 287.667 130.667 C 287.300 131.033, 287 139.316, 287 149.073 C 287 169.622, 286.254 168.756, 297.439 161.193 C 306.992 154.732, 310.214 150.468, 310.790 143.522 C 311.335 136.948, 309.555 133.548, 304.454 131.416 C 301.022 129.982, 288.893 129.441, 287.667 130.667 M 194.612 147.664 C 192.625 153.626, 191 159.065, 191 159.752 C 191 160.645, 193.273 161, 199 161 C 203.400 161, 207 160.584, 207 160.075 C 207 158.679, 199.807 138.624, 198.961 137.662 C 198.556 137.201, 196.599 141.702, 194.612 147.664" stroke="none" fill="#f4c916" fill-rule="evenodd"/><path d="M 665.315 105.102 C 658.569 107.054, 653.002 116.179, 654.472 122.874 C 654.799 124.363, 655.948 127.029, 657.024 128.800 C 662.709 138.148, 677.665 138.546, 683.587 129.507 C 685.880 126.008, 686.966 119.462, 685.897 115.589 C 684.813 111.663, 679.632 106.646, 675.101 105.134 C 671.192 103.830, 669.727 103.825, 665.315 105.102 M 99.500 105.698 C 72.272 109.309, 52 132.270, 52 159.500 C 52 173.933, 56.589 184.613, 67.483 195.535 C 75.620 203.693, 85.084 208.902, 97.410 212.007 C 105.042 213.930, 108.751 214, 203.043 214 L 300.767 214 301.370 211.750 C 302.221 208.572, 302.118 193.725, 301.235 192.385 C 300.831 191.771, 299.488 190.954, 298.250 190.567 C 294.315 189.339, 295.433 186.222, 300.250 184.992 C 309.110 182.729, 321.662 176.850, 329.252 171.408 C 331.866 169.533, 334.172 168, 334.377 168 C 334.582 168, 335.015 169.327, 335.340 170.949 C 337.919 183.847, 351.906 200.204, 366.106 206.929 C 378.479 212.789, 386.160 214, 410.958 214 L 432 214 432 204.940 L 432 195.881 436.750 199.797 C 443.836 205.639, 452.591 210.637, 461 213.639 C 467.457 215.945, 470.099 216.320, 480 216.340 C 490.527 216.360, 492.224 216.091, 500.064 213.154 C 504.775 211.389, 510.945 208.420, 513.777 206.555 C 516.608 204.690, 519.430 202.852, 520.048 202.470 C 520.807 202.001, 521.112 202.868, 520.985 205.138 C 520.882 206.987, 520.843 209.738, 520.899 211.250 L 521 214 545 214 L 569 214 569 204.500 L 569 195 583.500 195 L 598 195 598 204.500 L 598 214 623.500 214 L 649 214 649.088 211.750 C 649.137 210.512, 649.101 204.835, 649.008 199.133 C 648.851 189.542, 648.658 188.605, 646.429 186.633 C 644.293 184.743, 643.670 182.282, 640.947 165 C 636.429 136.326, 636.264 133.629, 638.909 131.777 C 640.938 130.355, 641.051 129.576, 640.784 118.882 L 640.500 107.500 615.342 107.233 L 590.184 106.966 588.239 113.233 C 586.409 119.130, 586.232 119.352, 585.234 117 C 584.651 115.625, 583.454 112.813, 582.574 110.750 L 580.973 107 556.487 107 L 532 107 532 118.736 L 532 130.472 525.915 123.730 C 522.354 119.785, 517.052 115.338, 513.131 113.009 C 491.198 99.978, 457.062 103.209, 438.624 120.060 L 433.082 125.126 427.763 119.813 C 417.819 109.880, 404.558 104.984, 387.685 105.015 C 371.260 105.044, 359.036 109.987, 347.839 121.127 L 341.177 127.754 338.036 122.907 C 333.681 116.185, 328.617 112.302, 321 109.841 C 315.100 107.936, 311.477 107.696, 281.750 107.246 L 249 106.751 249 118.760 C 249 130.467, 249.063 130.811, 251.500 132.408 L 254 134.046 254 160.645 C 254 184.614, 253.846 187.117, 252.442 185.952 C 250.521 184.358, 250.738 184.874, 234.826 144 C 227.653 125.575, 221.362 109.702, 220.845 108.728 C 219.990 107.115, 218.275 106.980, 201.812 107.228 L 183.718 107.500 178.837 120.500 C 176.152 127.650, 172.221 138, 170.100 143.500 C 167.979 149, 163.151 161.600, 159.372 171.500 L 152.500 189.500 152 181 L 151.500 172.500 140.884 172.500 L 130.267 172.500 127.326 175.650 C 124.372 178.813, 118.583 181.130, 115.274 180.473 C 114.298 180.279, 112.271 179.862, 110.768 179.546 C 107.451 178.848, 101.810 174.046, 99.037 169.560 C 96.003 164.652, 94.742 156.560, 96.037 150.321 C 98.386 139.008, 113 132.822, 113 143.141 C 113 144.649, 112.550 146.160, 112 146.500 C 110.081 147.686, 111.062 148.707, 120.192 155.024 L 129.385 161.383 143.169 146.942 C 150.750 138.999, 156.964 131.662, 156.976 130.637 C 157.016 127.484, 143.245 114.698, 136 111.161 C 125.576 106.071, 112.002 104.039, 99.500 105.698 M 665.250 107.662 C 664.563 107.940, 664 108.804, 664 109.583 C 664 110.655, 665.526 111, 670.259 111 C 675.520 111, 676.727 111.333, 677.820 113.084 C 679.345 115.525, 678.529 120.605, 676.423 121.783 C 675.278 122.424, 675.551 123.235, 677.825 125.960 L 680.648 129.341 682.324 126.948 C 686.029 121.658, 683.230 112.107, 677.016 108.835 C 673.734 107.107, 668.035 106.539, 665.250 107.662 M 659.273 112.706 C 658.141 114.433, 657.500 117.321, 657.500 120.689 C 657.500 125.413, 657.877 126.344, 661.090 129.557 C 665.556 134.023, 671.007 135.082, 676.065 132.466 C 679.111 130.891, 679.255 130.637, 677.478 129.969 C 676.390 129.560, 674.474 127.825, 673.220 126.113 C 670.135 121.900, 667.227 121.962, 666.813 126.250 C 666.578 128.695, 665.965 129.576, 664.342 129.808 C 662.370 130.088, 662.154 129.603, 661.842 124.200 C 661.654 120.947, 661.755 116.422, 662.067 114.143 C 662.724 109.348, 661.788 108.867, 659.273 112.706 M 100 116.136 C 92.742 117.326, 81.632 122.716, 75.864 127.846 C 66.138 136.497, 61.593 147.263, 62.150 160.333 C 62.444 167.243, 63.044 169.656, 65.925 175.524 C 72.743 189.411, 87.507 200.345, 103 202.980 C 106.575 203.588, 116.475 203.954, 125 203.793 L 140.500 203.500 140.500 193.014 C 140.500 183.594, 140.311 182.491, 138.644 182.170 C 137.576 181.964, 135.454 183.100, 133.644 184.845 C 129.326 189.010, 126.146 190, 117.095 190 C 103.461 190, 94.577 183.942, 88.257 170.336 C 85.947 165.362, 85.545 163.171, 85.536 155.500 C 85.527 148.082, 85.934 145.674, 87.849 141.800 C 92.363 132.672, 99.351 128, 108.492 128 C 119.410 128, 124.494 132.048, 124.511 140.753 C 124.519 144.921, 124.952 146.567, 126.259 147.392 C 127.728 148.318, 129.276 147.199, 136.248 140.174 L 144.500 131.861 139.500 127.385 C 133.446 121.965, 124.394 117.364, 117.114 116.005 C 110.924 114.850, 107.690 114.875, 100 116.136 M 384 115.991 C 376.127 117.088, 367.933 120.474, 361.275 125.381 C 354.534 130.350, 350.911 134.821, 347.188 142.765 C 344.830 147.797, 344.500 149.732, 344.500 158.546 C 344.500 168.140, 344.669 168.935, 348.253 176.191 C 354.738 189.323, 368.530 199.681, 383.799 202.887 C 386.714 203.499, 396.742 204, 406.083 204 L 423.068 204 422.784 193.262 C 422.530 183.669, 422.299 182.485, 420.619 182.163 C 419.535 181.956, 417.721 182.899, 416.337 184.392 C 412.332 188.711, 408.453 190.135, 400.607 190.166 C 386.329 190.222, 377.906 185.206, 371.730 172.970 C 366.922 163.443, 365.963 155.733, 368.447 146.558 C 372.300 132.325, 384.343 125.190, 398.074 129.004 C 403.938 130.633, 406.498 134.191, 406.511 140.728 C 406.519 144.730, 406.970 146.579, 408.118 147.302 C 410.072 148.535, 412.144 147.011, 420.420 138.254 L 426.340 131.991 423.950 129.446 C 414.675 119.574, 398.170 114.015, 384 115.991 M 468.712 116.075 C 451.811 119.549, 437.632 131.739, 432.982 146.793 C 425.514 170.971, 439.189 196.418, 463.722 203.996 C 471.490 206.395, 485.740 206.831, 493.577 204.908 C 516.878 199.193, 532.811 176.248, 529.097 153.759 C 526.341 137.072, 515.458 124.369, 498.500 118.047 C 491.596 115.473, 476.500 114.474, 468.712 116.075 M 666.180 117.240 C 666.729 121.084, 675 120.842, 675 116.981 C 675 115.295, 674.319 115, 670.430 115 C 666.269 115, 665.889 115.200, 666.180 117.240 M 185.080 132.750 C 165.962 185.104, 162.992 192.501, 159.997 195.236 C 157.924 197.129, 157 198.910, 157 201.015 L 157 204.058 170.238 203.779 C 182.196 203.527, 183.510 203.321, 183.830 201.651 C 184.028 200.618, 182.951 198.515, 181.389 196.885 L 178.594 193.967 181.547 185.330 C 183.171 180.580, 185.095 176.088, 185.821 175.347 C 187.629 173.504, 211.300 173.419, 212.734 175.250 C 214.723 177.789, 220.025 193.345, 219.484 195.051 C 219.176 196.021, 218.266 197.068, 217.462 197.376 C 216.624 197.698, 216 199.232, 216 200.969 L 216 204 232.500 204 L 249 204 249 201.023 C 249 198.991, 248.244 197.551, 246.619 196.486 C 243.214 194.255, 241.388 190.200, 227.940 155 C 221.321 137.675, 215.422 122.263, 214.831 120.750 L 213.757 118 202.112 118 L 190.466 118 185.080 132.750 M 260 121.465 C 260 123.906, 260.591 125.246, 262 126 C 263.939 127.038, 264 128.094, 264 160.880 C 264 193.420, 263.925 194.758, 262 196.500 C 260.885 197.509, 260 199.580, 260 201.181 L 260 204.052 275.250 203.776 C 290.248 203.505, 290.505 203.463, 290.822 201.230 C 291.014 199.877, 290.088 197.705, 288.529 195.853 C 286.200 193.085, 285.946 192.028, 286.207 186.192 L 286.500 179.639 298.500 175.508 C 313.227 170.439, 319.868 167.085, 325.553 161.844 C 336.673 151.595, 336.732 131.889, 325.667 123.874 C 318.411 118.617, 314.223 118, 285.818 118 L 260 118 260 121.465 M 542 120.815 C 542 122.900, 542.680 123.989, 544.500 124.818 C 547.554 126.209, 547.552 125.866, 544.597 143.864 C 543.276 151.914, 540.922 166.375, 539.367 176 C 536.805 191.863, 536.282 193.764, 533.770 196.327 C 532.247 197.882, 531 200.244, 531 201.577 L 531 204 545 204 L 559 204 559 201 C 559 199.119, 558.486 198, 557.622 198 C 556.865 198, 555.668 197.305, 554.963 196.456 C 553.911 195.187, 554.283 190.627, 557.048 170.956 C 558.899 157.780, 560.694 147, 561.037 147 C 561.380 147, 564.280 154.762, 567.481 164.250 C 570.683 173.738, 573.700 182.287, 574.186 183.250 C 574.916 184.695, 576.450 185, 582.976 185 C 587.324 185, 591.098 184.651, 591.362 184.223 C 591.626 183.796, 594.320 175.809, 597.349 166.473 C 605.729 140.643, 604.980 141.566, 607.065 154.500 C 612.836 190.305, 613.200 193.266, 612.120 195.636 C 611.528 196.936, 610.358 198, 609.521 198 C 608.498 198, 608 198.981, 608 201 L 608 204 624 204 L 640 204 640 201 C 640 199.350, 639.605 198, 639.121 198 C 637.595 198, 636.177 192.850, 634.577 181.500 C 633.724 175.450, 631.671 161.276, 630.013 150.001 C 628.356 138.727, 627 128.710, 627 127.742 C 627 126.773, 627.900 125.210, 629 124.268 C 630.100 123.326, 631 121.520, 631 120.254 L 631 117.952 614.346 118.226 L 597.691 118.500 592.096 134.178 C 589.018 142.801, 586.209 150.141, 585.854 150.490 C 585.499 150.839, 582.762 143.784, 579.772 134.812 L 574.335 118.500 558.168 118.225 L 542 117.950 542 120.815 M 469.500 131.314 C 459.789 136.017, 455.932 143.256, 455.211 158.132 C 454.091 181.224, 463.068 192.771, 481.418 191.844 C 491.896 191.315, 497.259 187.854, 502 178.563 C 505.316 172.063, 505.500 171.173, 505.500 161.602 C 505.500 150.646, 503.826 144.315, 499.333 138.272 C 493.052 129.827, 479.227 126.603, 469.500 131.314 M 287.667 130.667 C 287.300 131.033, 287 139.316, 287 149.073 C 287 169.622, 286.254 168.756, 297.439 161.193 C 306.992 154.732, 310.214 150.468, 310.790 143.522 C 311.335 136.948, 309.555 133.548, 304.454 131.416 C 301.022 129.982, 288.893 129.441, 287.667 130.667 M 194.612 147.664 C 192.625 153.626, 191 159.065, 191 159.752 C 191 160.645, 193.273 161, 199 161 C 203.400 161, 207 160.584, 207 160.075 C 207 158.679, 199.807 138.624, 198.961 137.662 C 198.556 137.201, 196.599 141.702, 194.612 147.664" stroke="none" fill="#124c9b" fill-rule="evenodd"/></svg>