<?xml version="1.0" standalone="no"?>
<!DOCTYPE svg PUBLIC "-//W3C//DTD SVG 20010904//EN"
 "http://www.w3.org/TR/2001/REC-SVG-20010904/DTD/svg10.dtd">
<svg version="1.0" xmlns="http://www.w3.org/2000/svg"
 width="285.992524pt" height="55.440705pt" viewBox="0 0 285.992524 55.440705"
 preserveAspectRatio="xMidYMid meet">
<metadata>
Created by potrace 1.12, written by Peter Selinger 2001-2015
</metadata>
<g transform="translate(-57.007476,227.663427) scale(0.100000,-0.100000)"
fill="#000000" stroke="none">
<path d="M643 2266 c-18 -8 -42 -30 -53 -48 -18 -30 -20 -50 -20 -218 0 -168
2 -188 20 -218 37 -61 139 -79 204 -37 30 20 56 83 56 135 l0 40 -45 0 -45 0
0 -41 c0 -22 -5 -49 -10 -60 -12 -22 -59 -26 -78 -7 -17 17 -17 359 0 376 34
34 88 -4 88 -64 0 -29 2 -31 39 -32 22 -1 43 3 46 8 3 6 3 31 -1 57 -10 69
-54 112 -119 119 -32 3 -62 -1 -82 -10z"/>
<path d="M1078 2267 c-112 -32 -198 -147 -198 -267 0 -118 85 -233 195 -266
184 -53 360 77 359 265 0 112 -53 200 -148 246 -64 31 -144 40 -208 22z m107
-33 c18 -7 50 -63 41 -72 -4 -3 -19 7 -34 21 -33 32 -41 33 -57 10 -11 -15 -5
-20 44 -43 31 -15 79 -48 108 -74 50 -45 52 -46 63 -26 13 24 6 40 -19 40 -18
0 -41 18 -41 32 0 11 49 -1 78 -18 27 -18 28 -43 1 -77 -16 -21 -18 -31 -10
-46 6 -11 11 -40 11 -64 0 -38 -5 -49 -31 -71 -34 -29 -79 -35 -79 -11 0 8 8
15 18 15 34 0 62 29 62 65 0 65 -4 66 -85 24 -41 -21 -90 -41 -109 -45 -21 -3
-36 -12 -36 -20 0 -29 29 -84 44 -84 18 0 42 33 51 72 8 33 35 46 35 17 0 -11
-6 -34 -14 -52 -39 -95 -109 -87 -143 18 -9 28 -13 30 -62 32 -62 2 -93 24
-89 62 4 32 21 31 28 -1 5 -20 13 -23 55 -26 l50 -3 0 78 c0 43 3 97 8 121 7
42 7 42 -23 42 -20 0 -40 -9 -57 -26 -32 -32 -27 -69 18 -133 16 -24 28 -46
25 -48 -19 -19 -77 55 -91 115 -15 69 34 122 112 122 32 0 41 5 55 30 17 29
39 37 73 24z"/>
<path d="M1106 2123 c-11 -40 -18 -135 -11 -169 6 -34 8 -36 38 -30 18 4 65
22 105 41 65 31 72 37 63 54 -14 25 -75 73 -128 100 -51 26 -60 26 -67 4z"/>
<path d="M1490 2000 l0 -270 43 0 42 0 -3 120 -3 120 55 0 56 0 0 -120 0 -120
45 0 45 0 0 270 0 270 -45 0 -45 0 0 -110 0 -110 -54 0 -55 0 2 110 2 110 -42
0 -43 0 0 -270z"/>
<path d="M1850 2000 l0 -270 125 0 125 0 0 35 0 34 -82 3 c-78 3 -82 4 -81 26
0 12 1 49 2 82 l1 60 60 0 60 0 0 40 0 39 -61 3 -61 3 -1 70 -1 70 77 3 77 3
0 34 0 35 -120 0 -120 0 0 -270z"/>
<path d="M2160 2000 l0 -270 45 0 45 0 0 109 c0 108 0 109 25 113 23 5 26 1
46 -66 46 -161 40 -151 91 -154 l46 -3 -40 122 -40 122 20 16 c29 22 42 62 42
128 0 118 -44 153 -189 153 l-91 0 0 -270z m175 180 c24 -26 27 -113 5 -134
-8 -8 -32 -18 -52 -21 l-38 -7 0 91 0 91 33 0 c21 0 41 -8 52 -20z"/>
<path d="M2510 2000 l0 -270 125 0 125 0 0 35 0 34 -82 3 -83 3 0 80 0 80 63
3 62 3 0 39 0 39 -62 3 -63 3 0 70 0 70 78 3 77 3 0 34 0 35 -120 0 -120 0 0
-270z"/>
<path d="M2820 2000 l0 -270 40 0 40 0 0 165 c0 91 3 165 8 165 4 0 32 -73 63
-163 l55 -162 42 -3 42 -3 0 270 0 271 -40 0 -40 0 0 -157 c0 -89 -4 -153 -9
-148 -4 6 -32 76 -62 158 l-54 147 -42 0 -43 0 0 -270z"/>
<path d="M3160 2235 c0 -35 0 -35 45 -35 l45 0 0 -235 0 -235 45 0 45 0 2 233
3 232 43 3 c41 3 42 4 42 38 l0 34 -135 0 -135 0 0 -35z"/>
</g>
</svg>
