<svg version="1.1" id="Layer_1" xmlns:x="ns_extend;" xmlns:i="ns_ai;" xmlns:graph="ns_graphs;" xmlns="http://www.w3.org/2000/svg" xmlns:xlink="http://www.w3.org/1999/xlink" x="0px" y="0px" viewBox="0 0 287.1 65" style="enable-background:new 0 0 287.1 65;" xml:space="preserve">
 <style type="text/css">
  .st0{fill:#183558;}
	.st1{fill:#00ACD8;}
	.st2{fill:#FBB649;}
	.st3{fill:#FFFFFF;}
 </style>
 <metadata>
  <sfw xmlns="ns_sfw;">
   <slices>
   </slices>
   <sliceSourceBounds bottomLeftOrigin="true" height="65" width="287.1" x="-10.1" y="-217.5">
   </sliceSourceBounds>
  </sfw>
 </metadata>
 <g>
  <path class="st0" d="M179.8,37.7L172.4,19H166l0.4,0.9l10.9,26.5h4.8L193.4,19h-6.2L179.8,37.7 M246.4,35.7l-12.9-16.7h-5.2v27.2
		h5.8V28.8l13.3,17.2h4.7V18.9h-5.8V35.7z M205.7,18.8l-12,27.4h6l5-11.5l0,0l3.5-8.3l0,0v-0.1l3.2,7.7l-2.2,5h4.3l1.5,3.6l1.4,3.5
		h6.2l-11.9-27.2H205.7z M275.1,18.8H270l-12,27.4h6l5-11.5l0,0l3.5-8.1l0,0l0.1-0.2l3.2,7.7l-2.2,5.1h4.3l1.5,3.6l1.4,3.5h6.2
		L275.1,18.8z">
  </path>
  <path class="st0" d="M99.1,40.2c-1.1,1.1-2.4,2.1-3.8,2.9c-1.5,0.8-3.2,1.2-5,1.1c-1.5,0-3-0.3-4.4-1c-1.3-0.6-2.5-1.4-3.4-2.4
		c-1-1.1-1.8-2.4-2.3-3.8c-0.6-1.4-0.8-3-0.8-4.5l0,0c0-1.5,0.3-3.1,0.8-4.5c0.5-1.4,1.3-2.7,2.3-3.8c1-1,2.1-1.9,3.4-2.5
		c1.4-0.6,2.8-0.9,4.3-0.9c0.9,0,1.9,0.1,2.8,0.3c0.8,0.2,1.6,0.5,2.3,0.8c0.7,0.3,1.3,0.7,1.9,1.2c0.6,0.4,1.1,0.9,1.7,1.4l0.5,0.4
		l1.8-1.9l-0.5-0.4c-0.7-0.6-1.3-1.2-2-1.7c-0.7-0.5-1.5-1-2.3-1.4c-0.9-0.4-1.8-0.7-2.8-0.9c-1.1-0.2-2.2-0.3-3.4-0.3
		c-1.9,0-3.7,0.4-5.4,1.1c-1.6,0.7-3,1.8-4.2,3.1c-1.2,1.3-2.1,2.8-2.8,4.5c-0.7,1.7-1,3.5-1,5.4l0,0c0,1.9,0.3,3.7,1,5.4
		c0.6,1.7,1.5,3.2,2.8,4.5c1.2,1.3,2.6,2.3,4.2,3c1.7,0.7,3.5,1.1,5.3,1.1c1.1,0,2.2-0.1,3.3-0.4c1-0.2,1.9-0.6,2.9-1
		c0.9-0.4,1.7-0.9,2.4-1.5c0.7-0.6,1.4-1.2,2-1.9l0.5-0.5l-1.9-1.7L99.1,40.2 M119.1,18.8l-12.9,27.3h2.6l11.3-23.8l6.3,13.4
		l-1.6,3.4h3.2l3.3,7h2.6l-12.8-27.3H119.1 M153.6,34.7c0.8-0.1,1.6-0.3,2.3-0.6c1-0.4,2-0.9,2.8-1.6c0.8-0.7,1.4-1.5,1.9-2.4
		c0.4-1,0.7-2.1,0.7-3.2l0,0c0-1-0.2-2-0.5-2.9c-0.4-0.9-0.9-1.7-1.5-2.3c-1-0.9-2.1-1.6-3.4-2.1c-1.5-0.5-3-0.7-4.6-0.7h-11.3v27.2
		h2.5V35h8.2l8.4,11.1h3.2L153.6,34.7 M142.4,32.6V21.4h8.7c2-0.1,4,0.4,5.6,1.5c1.3,1,2,2.5,1.9,4.1l0,0c0,0.8-0.2,1.5-0.5,2.3
		c-0.3,0.7-0.8,1.3-1.5,1.8c-0.7,0.5-1.5,0.9-2.4,1.2c-1.1,0.3-2.2,0.5-3.4,0.5L142.4,32.6">
  </path>
  <path class="st1" d="M65,32.5C65,50.4,50.4,65,32.5,65S0,50.4,0,32.5S14.6,0,32.5,0C50.4,0,65,14.5,65,32.5
		C65,32.5,65,32.5,65,32.5z">
  </path>
  <path class="st2" d="M32.7,16.6c-1.8,0-3.6,0.1-5.4,0.4c-0.8,0.1-1.7,0.3-2.4,0.7H25c0.5,0.2,1.1,0.4,1.7,0.5c2,0.3,4,0.5,6,0.5
		c1.8,0,3.6-0.1,5.4-0.4c0.8-0.1,1.6-0.3,2.4-0.6h-0.2c-0.5-0.2-1.1-0.4-1.7-0.5C36.7,16.7,34.7,16.6,32.7,16.6 M32.7,19.9
		c-1.9,0-3.8-0.1-5.6-0.4c-1.2-0.1-2.3-0.5-3.3-1.1c-0.2-0.2-0.3-0.5-0.4-0.8c0-0.3,0.2-0.6,0.4-0.8c0.2-0.2,0.4-0.3,0.7-0.5
		c0.6-0.3,1.3-0.4,2-0.6c2.1-0.4,4.1-0.5,6.2-0.5c1.9,0,3.8,0.1,5.6,0.4c1.2,0.1,2.3,0.5,3.3,1.2c0.2,0.2,0.4,0.5,0.4,0.8
		c0,0.3-0.2,0.6-0.4,0.8c-0.2,0.2-0.4,0.3-0.7,0.4c-0.6,0.3-1.3,0.5-2,0.6C36.8,19.8,34.7,20,32.7,19.9">
  </path>
  <path class="st3" d="M46.8,33.1c-0.7-0.9-1.3-1.8-1.9-2.8h0.2c0,0,3.5-0.2,2.9-1.4c0,0-0.7-1.4-3.2-1.4h-0.4c-0.1,0-0.3,0-0.3,0.9
		c-0.8-1.9-2-3.5-3.6-4.7c-0.4-0.2-0.8-0.3-1.2-0.4c-0.7-0.1-6.3-0.2-6.7-0.2l0,0c-0.5,0-6,0-6.7,0.2c-0.4,0.1-0.8,0.2-1.2,0.4
		C23,25,21.8,26.6,21,28.4c0-0.9-0.2-0.9-0.4-0.9h-0.3c-2.6,0-3.2,1.4-3.2,1.4c-0.6,1.2,2.9,1.4,2.9,1.4h0.2c-0.6,1-1.2,1.9-1.9,2.8
		c-0.4,0.4-0.7,0.9-1,1.4c-0.2,0.5-0.3,1.1-0.3,1.7c0,0.9,0.1,4.9,0.1,4.9v5c0,0.3,0.1,0.5,0.4,0.5c0,0,0,0,0,0h4
		c0.3,0,0.5-0.2,0.4-0.5c0,0,0,0,0,0v-0.6h21.2v0.6c0,0.3,0.2,0.5,0.4,0.5c0,0,0,0,0,0h4c0.3,0,0.5-0.2,0.4-0.5c0,0,0,0,0,0v-5
		c0,0,0.1-4,0.1-4.9c0-0.6-0.1-1.1-0.3-1.7C47.5,34.1,47.2,33.6,46.8,33.1z M22.5,29.3c0.7-1.7,1.6-3.3,2.7-4.9c0,0,2.3-0.1,5.3-0.1
		v0.2V25c0,0.2,0.2,0.4,0.4,0.4l0,0h3.5c0.2,0,0.4-0.1,0.4-0.3c0,0,0,0,0,0v-0.5l-0.1-0.2c3,0,5.3,0.1,5.3,0.1
		c1.1,1.5,2,3.2,2.8,4.9c0.2,0.6-0.3,0.6-0.3,0.6H22.7C22.7,29.8,22.2,29.8,22.5,29.3z M18.8,37.5c-0.8-0.2-0.8-0.7-0.8-0.7
		c-0.1-0.7,0-1.4,0.2-2c0.2-0.5,0.8-0.8,1.4-0.7c0.8,0.3,1.6,0.6,2.3,1.1c1.3,0.7,1.5,3,1.5,3C21.8,38.1,20.3,37.8,18.8,37.5z
		 M40.3,38.3c-2.3,0.2-5.7,0.2-7.8,0.2c-2,0-5.4,0-7.8-0.2c0,0-0.7-1.4,0.4-1.5c0.1,0,3.2-0.1,7.5-0.1s7.3,0.1,7.4,0.1
		C40.9,37,40.3,38.4,40.3,38.3L40.3,38.3z M47.1,36.9c0,0-0.1,0.5-0.8,0.7c-1.5,0.3-3,0.5-4.6,0.7c0,0,0.2-2.3,1.5-3
		c0.7-0.5,1.5-0.8,2.3-1.1c0.6-0.1,1.2,0.2,1.4,0.7C47.1,35.5,47.2,36.2,47.1,36.9L47.1,36.9z">
  </path>
 </g>
</svg>