<?xml version="1.0" standalone="no"?>
<!DOCTYPE svg PUBLIC "-//W3C//DTD SVG 20010904//EN"
 "http://www.w3.org/TR/2001/REC-SVG-20010904/DTD/svg10.dtd">
<svg version="1.0" xmlns="http://www.w3.org/2000/svg"
 width="722.000000pt" height="218.907779pt" viewBox="0 0 722.000000 218.907779"
 preserveAspectRatio="xMidYMid meet">
<metadata>
Created by potrace 1.12, written by Peter Selinger 2001-2015
</metadata>
<g transform="translate(-8.000000,221.907779) scale(0.100000,-0.100000)"
fill="#000000" stroke="none">
<path d="M2560 1854 c-300 -200 -548 -364 -551 -364 -3 0 -16 26 -29 58 -105
255 -338 445 -639 522 -187 47 -251 52 -768 57 l-493 5 0 -996 0 -996 498 0
c582 0 655 8 871 85 247 89 464 290 539 497 9 27 19 48 23 48 6 0 160 -102
777 -512 189 -125 346 -228 349 -228 2 0 272 178 598 395 327 217 596 395 600
395 3 0 5 -153 5 -340 l0 -340 710 0 710 0 0 300 0 300 -355 0 -355 0 0 695 0
695 -355 0 -355 0 0 -353 0 -354 -142 -96 c-79 -52 -195 -131 -258 -174 -361
-247 -491 -333 -501 -333 -12 0 -198 132 -199 141 0 3 200 140 445 304 245
164 445 302 445 306 0 4 -64 48 -142 98 -79 51 -165 107 -193 125 l-50 32
-455 -302 c-250 -167 -458 -303 -462 -304 -9 0 -189 113 -191 121 -1 4 171
122 383 262 556 369 527 349 506 361 -9 6 -95 66 -191 134 -127 88 -182 122
-202 121 -19 -1 -203 -117 -573 -365z m-1556 -348 c145 -28 229 -89 285 -206
24 -50 26 -66 26 -185 0 -124 -1 -133 -29 -188 -68 -134 -218 -207 -428 -207
l-68 0 0 400 0 400 69 0 c38 0 103 -6 145 -14z"/>
<path d="M5910 1135 l0 -995 695 0 695 0 0 300 0 300 -340 0 -340 0 0 695 0
695 -355 0 -355 0 0 -995z"/>
</g>
</svg>
