<svg version="1.1" id="Layer_1" xmlns:x="ns_extend;" xmlns:i="ns_ai;" xmlns:graph="ns_graphs;" xmlns="http://www.w3.org/2000/svg" xmlns:xlink="http://www.w3.org/1999/xlink" x="0px" y="0px" viewBox="0 0 969 100" style="enable-background:new 0 0 969 100;" xml:space="preserve">
 <style type="text/css">
  .st0{fill-rule:evenodd;clip-rule:evenodd;fill:#6FBE4A;}
	.st1{fill-rule:evenodd;clip-rule:evenodd;fill:#00954C;}
	.st2{fill:#00954C;}
 </style>
 <metadata>
  <sfw xmlns="ns_sfw;">
   <slices>
   </slices>
   <sliceSourceBounds bottomLeftOrigin="true" height="100" width="969" x="-691.3" y="8.2">
   </sliceSourceBounds>
  </sfw>
 </metadata>
 <g>
  <path d="M44.4,62.1v26.3c0,6.5-0.2,6.6-0.4,6.8L43.3,96c-0.2,0.2-0.7,0.7-1.2,0.8l-0.8,0.5L41,97.4l-0.2,0.1v0.2h19.9v-0.2h-0.4
		l-0.8-0.6L58.3,96l-0.6-1.2c-0.1,0-0.4-0.1-0.4-10.1V34.3L40.3,51.3c1.2-0.5,2.7-0.2,3.5,0.7c0.7,0.9,0.7,2.7,0.7,10.1">
  </path>
  <path class="st0" d="M0,49.5l0.2-5.1L44.4,0.3c4-0.4,8.1-0.3,12.1,0.2l-56,56C0.2,54.2,0,51.8,0,49.5z M17.2,86.8
		c-2.2-1.9-4.3-4-6.1-6.2l27-27c1.2-0.5,3.2-0.2,3.9,0.7c0.6,0.8,0.6,1.4,0.6,7.1L17.2,86.8z M80.5,11.1c2.4,1.8,4.5,3.9,6.4,6.1
		L59.7,44.3V32.2L80.5,11.1z M71,5c2.7,1.3,5.3,2.9,7.8,4.7L9.7,78.8c-1.8-2.4-3.4-5.1-4.7-7.8L71,5z M59.3,1.1
		c3.2,0.6,6.4,1.6,9.4,2.8L4,68.6c-1.3-2.9-2.4-6.1-2.9-9.4L59.3,1.1z M0.8,40.5c1.8-9.9,6.6-18.9,13.7-26
		c7.1-7.1,16.2-11.8,26-13.7L0.8,40.5z">
  </path>
  <path class="st1" d="M88,79.7c-1.8,2.4-3.9,4.5-6,6.5L59.6,63.8V51.2L88,79.7z M94.3,70.5c-1.3,2.7-2.6,5.1-4.4,7.5L59.7,47.7
		l5.9-5.9L94.3,70.5z M98.2,58.9c-0.7,3.2-1.6,6.4-2.9,9.4L67.1,40.2l6.2-6.1L98.2,58.9z M82.8,24.5l5.6-5.5c4.7,6,8.2,13.1,9.8,21
		L82.8,24.5z M81.1,26.2l17.7,17.7c0.5,4.1,0.4,8.2-0.1,12.2L75,32.4L81.1,26.2z">
  </path>
  <path class="st2" d="M705.7,36.4L693,97.7h-26.7l12.6-61.2h-24.7l4.5-21.2h76l-4.4,21.1H705.7z M914,78h35.3l-4,19.7H883L900,15.2
		h61.2l-4,19.7H923l-2.4,11.1h31.8l-4,19.7h-31.8L914,78z M839.5,78h35.4l-4,19.8h-62.4l17.1-82.4l61.2-0.1l-4,19.7h-34.3l-2.4,11.1
		H878l-4.1,19.7h-31.8L839.5,78z M762.1,48.2h10.4c2.4,0.1,4.7-0.8,6.4-2.4c1.8-1.6,2.8-3.8,3-6.2c0-1.4-0.5-2.4-1.2-3.2
		c-0.6-0.7-1.2-1.4-4.7-1.4h-11.1L762.1,48.2z M758.1,67.9l-6.2,29.8H725l17.2-82.4h39.3c13.3,0,17.2,1.6,20.5,4.1
		c4.2,3.2,6.6,8.1,6.6,13.9c0,5-1.5,10-4.3,14.2c-2.8,4.2-6.8,7.5-11.5,9.4c4.5,2.8,6.8,7.3,6.7,12.9v1.6l-0.9,12.9v2.1
		c0,2.8,0.3,5.5,0.8,8.2l0.6,2.9h-27.5l-0.5-2c-0.4-1.4-0.7-2.8-0.7-5.3c0-1.2,0-2.6,0.2-4.5l1.2-12.9v-0.9c0-2.8-1.2-4.1-5.1-4.1
		H758.1z M322.5,76.8h33.2l-4.4,21h-60l17.1-82.4h26.7L322.5,76.8z M390.2,76.7h33.3l-4.4,21.2h-60l17.1-82.6h26.7L390.2,76.7z
		 M244.5,79.4c6.2,0,15.3-4.7,19.1-23.2c0.7-3.5,1.1-6.6,1.1-9.2c0-10.4-5.1-12.9-10-12.9c-6.6,0-15.5,4.7-19.4,23.3
		c-0.8,3.6-1.2,6.8-1.2,9.4c0,10,4.7,12.6,10.6,12.6H244.5z M241.1,100h-0.4c-2.6,0.1-5.3-0.1-7.9-0.7l-0.5-0.1
		c-7.4-0.9-14.2-4.7-18.8-10.6c-4.3-5.9-6.5-13.1-6.2-20.4c0-3.8,0.5-7.9,1.4-12.5c5.4-26.1,24.6-42.3,48.7-42.3
		c13.3,0,21.2,3.9,26.7,10.2c4.5,5.2,7.3,12.1,7.3,21.5c0,3.9-0.5,8.1-1.4,12.8c-2.1,10.9-7.5,20.8-15.4,28.5
		c-4.4,4.4-9.6,7.9-15.3,10.2c-5.8,2.3-11.9,3.4-18.1,3.2H241.1z M145.8,78.1h5.7c7.1-0.1,12.1-2.5,16.1-6.7
		c5.4-5.8,8.3-13.5,8.4-21.4c0-9.8-5.5-14.7-14.7-14.7h-6.6L145.8,78.1z M114.9,97.8L132,15.4l39.1-0.1c12,0,22,5.2,26.8,12
		c3.1,4.4,5.1,10.7,5.1,18.6c0,3.3-0.4,6.9-1.2,10.8c-2.1,12-8.2,22.9-17.4,30.8c-8.4,6.9-18.9,10.6-29.8,10.2H114.9z M564.9,48.1
		h10.2c2.4,0.1,4.7-0.8,6.5-2.4c1.8-1.6,2.8-3.8,2.9-6.2c0-1.2-0.4-2.4-1.1-3.1c-0.6-0.7-1.2-1.4-4.7-1.4h-11.2L564.9,48.1z
		 M560.9,67.8l-6.2,29.9h-26.7l17-82.5h39.4c13.3,0,17.1,1.8,20.5,4.2c4.1,3.1,6.5,8,6.5,13.9c0,5-1.5,10-4.3,14.2
		c-2.8,4.2-6.8,7.5-11.5,9.4c4.5,2.8,6.8,7.3,6.8,12.9v1.6l-0.9,12.9v2.1c0,1.8,0,4.1,0.8,8.1l0.5,3.1h-27.4l-0.5-2
		c-0.4-1.5-0.7-2.8-0.7-5.4c0-1.2,0-2.6,0.2-4.4l1.1-12.9v-0.9c0-2.8-1.1-4.2-4.9-4.2H560.9z M473.6,62.3h12.9l-2.4-19.9
		C481.4,48.1,478,54.4,473.6,62.3z M462.3,82l-9.1,15.8h-26.7l50.1-82.4l28.1-0.1l15.5,82.4h-27.9L489.8,82H462.3z M958.1,87.6h1.5
		c1.6,0,2.4-0.5,2.4-1.6c0-1.2-0.8-1.6-2.5-1.6h-1.4V87.6z M959.8,82.9c3.1,0,4.5,1.1,4.5,2.8c0,1.5-0.8,2.6-2.4,2.9l2.4,4.7h-2.5
		l-2.1-4.4h-1.6v4.4h-2.2V82.8L959.8,82.9z M954.1,82.5c-1.5,1.5-2.3,3.5-2.3,5.7c0,2.1,0.8,4.1,2.3,5.6c1.4,1.5,3.5,2.4,5.4,2.4
		c2.4,0,4.2-0.7,5.9-2.4c1.4-1.3,2.4-3.3,2.4-5.4c0-1.6-0.4-3.2-1.3-4.5c-0.9-1.3-2.1-2.4-3.6-3c-1.5-0.6-3.1-0.8-4.7-0.5
		C956.6,80.6,955.2,81.4,954.1,82.5z M966.4,81.7c1.6,1.8,2.6,4.1,2.6,6.6c0,2.6-0.9,4.9-2.7,6.6c-1.8,1.8-4.2,2.8-6.7,2.8
		c-2.5,0-4.9-1-6.6-2.8c-1.8-1.8-2.8-4.2-2.8-6.7c0-2.5,1-4.9,2.8-6.7c0.9-0.9,1.9-1.6,3-2c1.1-0.5,2.4-0.7,3.6-0.7
		C962.2,78.9,964.5,79.8,966.4,81.7z">
  </path>
 </g>
</svg>