<svg version="1.1" id="Layer_1" xmlns:x="ns_extend;" xmlns:i="ns_ai;" xmlns:graph="ns_graphs;" xmlns="http://www.w3.org/2000/svg" xmlns:xlink="http://www.w3.org/1999/xlink" x="0px" y="0px" viewBox="0 0 444.1 100" style="enable-background:new 0 0 444.1 100;" xml:space="preserve">
 <style type="text/css">
  .st0{fill:#0DB02B;}
 </style>
 <metadata>
  <sfw xmlns="ns_sfw;">
   <slices>
   </slices>
   <sliceSourceBounds bottomLeftOrigin="true" height="100" width="444.1" x="-47" y="-244.5">
   </sliceSourceBounds>
  </sfw>
 </metadata>
 <g>
  <path class="st0" d="M116.4,82.8c-4.7,0-8.5,3.6-8.5,8.3c0,4.9,3.8,8.5,8.5,8.5c4.7,0,8.3-3.8,8.3-8.5
		C124.9,86.6,121.3,82.8,116.4,82.8z M116.4,97.7c-3.4,0-6-2.8-6-6.4c0-3.6,2.6-6.2,6-6.2c3.4,0,6,2.6,6,6.2S119.8,97.7,116.4,97.7z
		 M102.6,83.2h2.3v10.6c0,3.6-2.6,6-6.4,6c-3.8,0-6.4-2.5-6.4-6V83.2h2.3v10.6c0,2.5,1.7,4,4.2,4c2.5,0,4.2-1.5,4.2-4V83.2z
		 M173,91.3h4.7v8.3h-2.1v-0.9c0-0.4,0-0.8,0-0.8l0,0c0,0-1.7,2.1-5.1,2.1c-4.3,0-8.1-3.4-8.1-8.5c0-4.7,3.6-8.5,8.3-8.5
		c4,0,6,1.9,6,1.9l-0.9,1.7c0,0-1.9-1.5-4.5-1.5c-3.8,0-6.2,2.8-6.2,6.2c0,3.8,2.6,6.4,6,6.4c2.8,0,4.7-2.1,4.7-2.1v-2.5h-2.6v-1.9
		L173,91.3z M138.7,83.2h2.3v10.6c0,3.6-2.6,6-6.4,6s-6.4-2.5-6.4-6V83.2h2.3v10.6c0,2.5,1.7,4,4.2,4s4.2-1.5,4.2-4V83.2z
		 M162.6,41.1l-0.8,0.8c-0.4,0.4-10,10-13.4,19.6c-1.1,0-14.5,0-16.8,0c3.8-14.3,22.3-29.1,22.5-29.2l0.9-0.8l-0.9-0.8
		c-0.2-0.2-16.2-13.6-22.3-28.7c2.5,0,15.8,0,17,0c4,11.9,12.5,18.9,12.8,19.1l0.6,0.6l0.6-0.6c0.4-0.4,9.1-7.4,13.2-19.1
		c1.1,0,14.5,0,17,0c-6.4,15.1-22.5,28.5-22.6,28.7l-0.9,0.8l0.9,0.8c0.2,0.2,18.7,14.7,22.8,29.2c-2.3,0-15.5,0-16.8,0
		c-3.2-9.4-13.2-19.2-13.6-19.6L162.6,41.1L162.6,41.1z M154.5,95.3c0,2.5-1.9,4.5-5.3,4.5c-3.4,0-5.5-2.1-5.5-2.1l1.3-1.7
		c0,0,1.7,1.7,4.2,1.7c1.5,0,2.8-0.9,2.8-2.5c0-3.6-7.9-2.8-7.9-7.7c0-2.5,2.3-4.5,5.3-4.5c3,0,4.7,1.7,4.7,1.7l-1.1,1.9
		c0,0-1.5-1.3-3.6-1.3c-1.7,0-3,1.1-3,2.5C146.6,90.8,154.5,89.8,154.5,95.3L154.5,95.3z M68.1,83.2h2.3v16.4h-2.3V83.2z M47.6,83.2
		h2.3v16.4h-2.3l-7.4-10.6c-0.6-1.1-1.3-2.5-1.3-2.5l0,0c0,0,0.2,1.5,0.2,2.5v10.6h-2.3V83.2h2.3l7.4,10.6c0.6,0.9,1.3,2.5,1.3,2.5
		l0,0c0,0-0.2-1.5-0.2-2.5V83.2z M99.2,62.6c12.6,0,20.8-5.3,23.6-7.5c-1.9-0.9-8.5-4.2-9.4-4.7c-1.3,1.5-5.7,3-12.8,3
		c-8.9,0-12.6-3.8-12.6-16.6v-0.9h0.9c14.5,0,25.5-2.6,34.9-8.7c0.2-0.8,0.8-3.2,0.8-5.3c0-9.8-6.6-21.1-25.1-21.1
		c-19.6,0-29.2,10.2-29.2,30.9C70.2,53.4,78.9,62.6,99.2,62.6L99.2,62.6z M87.9,27.4c0-9.1,1.3-17.9,11.9-17.9
		c5.5,0,9.2,2.6,9.2,9.4c0,2.1-1.1,4.3-1.1,4.5l-0.2,0.4l-0.6,0.4c-5.3,2.8-8.1,4.3-18.3,4.3h-0.9C87.9,28.5,87.9,27.4,87.9,27.4z
		 M183.6,97.5h7.4v2.1h-9.6V83.2h2.3L183.6,97.5L183.6,97.5z M57.7,31.1C57.7,10.2,47.2,0,25.7,0c0,0-21.5,0-23.4,0
		c0,1.9,0,60.6,0,62.6c4.7,0,23.4,0,23.4,0C47.2,62.5,57.7,52.3,57.7,31.1z M19.4,9.6c0,0,1.1,0,6.8,0c1.5,0,3,0.2,4.7,0.8
		c5.5,2.8,8.1,8.3,8.1,20.9c0,14-3.2,19.6-10,21.7l0,0l-2.8,0.2c-5.7,0-6.8,0-6.8,0V9.6L19.4,9.6z M25.1,82.8
		c-4.7,0-8.5,3.6-8.5,8.3c0,4.9,3.8,8.5,8.5,8.5s8.3-3.8,8.3-8.5C33.4,86.6,29.8,82.8,25.1,82.8z M25.1,97.7c-3.4,0-6-2.8-6-6.4
		c0-3.6,2.6-6.2,6-6.2s6,2.6,6,6.2S28.3,97.7,25.1,97.7z M85.7,83.2h2.3v16.4h-2.3l-7.4-10.6c-0.6-0.9-1.3-2.5-1.3-2.5l0,0
		c0,0,0.2,1.5,0.2,2.5v10.6h-2.3V83.2h2.3l7.4,10.6c0.6,0.9,1.3,2.5,1.3,2.5l0,0c0,0-0.2-1.5-0.2-2.5V83.2z M13.4,95.7l1.3,1.7
		c0,0-2.3,2.6-6.4,2.6C3.4,99.8,0,96,0,91.3c0-4.9,3.6-8.5,8.3-8.5c4,0,6,2.1,6,2.1l-1.1,1.9c0,0-1.9-1.7-4.7-1.7
		c-3.6,0-6,2.8-6,6.2c0,3.6,2.5,6.4,6,6.4C11.5,97.7,13.4,95.7,13.4,95.7z M52.3,83.2h13.6v2.1h-5.7v14.3h-2.3V85.3h-5.7L52.3,83.2
		L52.3,83.2z M406,83.2h2.3v16.4H406l-7.4-10.6c-0.6-0.9-1.3-2.5-1.3-2.5l0,0c0,0,0.2,1.5,0.2,2.5v10.6h-2.3V83.2h2.3l7.4,10.6
		c0.6,0.9,1.3,2.5,1.3,2.5l0,0c0,0-0.2-1.5-0.2-2.5V83.2z M388.5,83.2h2.3v16.4h-2.3V83.2z M361.9,82.8c-4.7,0-8.5,3.6-8.5,8.3
		c0,4.9,3.8,8.5,8.5,8.5s8.3-3.8,8.3-8.5C370.4,86.6,366.6,82.8,361.9,82.8z M361.9,97.7c-3.4,0-6-2.8-6-6.4c0-3.6,2.6-6.2,6-6.2
		s6,2.6,6,6.2S365.3,97.7,361.9,97.7z M381.5,92.5L381.5,92.5c1.7-0.6,3-2.5,3-4.5c0-2.1-1.1-3.8-2.8-4.3c-0.6-0.2-1.3-0.4-3-0.4
		h-5.1v16.4h2.3V93h3.6l3.4,6.6h2.6l-3.4-6.4C381.7,92.6,381.5,92.5,381.5,92.5L381.5,92.5z M379.2,90.9H376v-5.8h2.6
		c1.3,0,1.9,0.2,2.3,0.4c0.8,0.4,1.3,1.3,1.3,2.5C382.1,89.8,380.9,90.9,379.2,90.9z M339.1,83.2h13.6v2.1H347v14.3h-2.3V85.3H339
		L339.1,83.2L339.1,83.2z M422.1,91.3h4.7v8.3h-2.1v-0.9c0-0.4,0-0.8,0-0.8l0,0c0,0-1.7,2.1-5.1,2.1c-4.3,0-8.1-3.4-8.1-8.5
		c0-4.7,3.6-8.5,8.3-8.5c4,0,6,1.9,6,1.9l-1.1,1.7c0,0-1.9-1.5-4.5-1.5c-3.8,0-6.2,2.8-6.2,6.2c0,3.8,2.6,6.4,6,6.4
		c2.8,0,4.7-2.1,4.7-2.1v-2.5h-2.6L422.1,91.3L422.1,91.3z M443.2,4.2c-0.6-1.1-1.5-2.1-2.6-2.6c-1.1-0.6-2.3-0.9-3.4-0.9
		c-1.1,0-2.3,0.4-3.4,0.9c-1.1,0.6-2.1,1.5-2.6,2.6c-0.6,1.1-0.9,2.3-0.9,3.6c0,1.1,0.4,2.5,0.9,3.4c0.6,1.1,1.5,1.9,2.6,2.6
		c1.1,0.6,2.3,0.9,3.4,0.9c1.1,0,2.5-0.4,3.4-0.9c1.1-0.6,1.9-1.5,2.6-2.6c0.6-1.1,0.9-2.3,0.9-3.4C444.1,6.4,444,5.3,443.2,4.2z
		 M442.3,10.6c-0.6,0.9-1.3,1.7-2.1,2.1c-0.9,0.6-1.9,0.8-2.8,0.8c-0.9,0-2.1-0.2-2.8-0.8c-0.9-0.6-1.7-1.3-2.3-2.1
		c-0.6-0.9-0.8-1.9-0.8-2.8s0.2-2.1,0.8-3c0.6-0.9,1.3-1.7,2.3-2.1c0.9-0.6,1.9-0.8,2.8-0.8c0.9,0,1.9,0.2,2.8,0.8
		c0.9,0.6,1.7,1.3,2.3,2.1c0.6,0.9,0.8,1.9,0.8,3C443,8.7,442.8,9.6,442.3,10.6L442.3,10.6z M438.5,8.5c-0.2-0.2-0.4-0.4-0.6-0.4
		c0.6,0,1.1-0.2,1.5-0.8c0.4-0.4,0.6-0.9,0.6-1.5c0-0.4-0.2-0.8-0.4-1.1c-0.2-0.4-0.6-0.6-0.9-0.8c-0.4-0.2-0.9-0.2-1.9-0.2h-2.6
		v7.5h1.1v-3h0.8c0.4,0,0.8,0,0.9,0.2c0.4,0.2,0.8,0.8,1.3,1.7l0.8,1.1h1.5l-0.9-1.3C439.1,9.4,438.7,8.9,438.5,8.5L438.5,8.5z
		 M436.8,7.4h-1.5V5.1h1.3c0.6,0,0.9,0,1.1,0.2c0.2,0,0.4,0.2,0.6,0.4c0.2,0.2,0.2,0.4,0.2,0.6c0,0.2-0.2,0.6-0.4,0.8
		C438.1,7.2,437.5,7.4,436.8,7.4L436.8,7.4z M334.3,83.2h2.3v16.4h-2.3V83.2z M409.8,61.3c0-1.9,0-43.6,0-43.6
		c0-6.2-0.8-8.1-5.3-8.1c-7.9,0-11.1,5.5-11.3,5.7l-0.2,0.2c0,0,0,44,0,45.8c-1.7,0-15.1,0-16.8,0c0-1.9,0-43.6,0-43.6
		c0-6.2-0.8-8.1-5.3-8.1c-7.9,0-11.1,5.5-11.3,5.7l-0.2,0.2c0,0,0,44,0,45.8c-1.7,0-15.1,0-16.6,0c0-1.9,0-47.2,0-47.2
		c0-4-4-7.7-8.3-10c3.4-0.9,12.8-3.8,13.4-4c1.9,0.8,6.4,2.8,7.7,4.7l0.6,0.8l0.8-0.6c0,0,7.5-4.7,17.4-4.7c7.2,0,12.3,1.3,15.3,4.2
		l0.6,0.4l0.6-0.2c6.2-2.8,11.9-4.3,17-4.3c13.6,0,18.5,5.5,18.5,10.6c0,0,0,48.5,0,50.4C424.9,61.3,411.5,61.3,409.8,61.3
		L409.8,61.3z M255.1,95.3c0,2.5-1.9,4.5-5.3,4.5s-5.5-2.1-5.5-2.1l1.3-1.7c0,0,1.7,1.7,4.2,1.7c1.5,0,2.8-0.9,2.8-2.5
		c0-3.6-7.9-2.8-7.9-7.7c0-2.5,2.3-4.5,5.3-4.5c3,0,4.7,1.7,4.7,1.7l-1.1,1.9c0,0-1.5-1.3-3.6-1.3c-1.7,0-3,1.1-3,2.5
		C247.2,90.8,255.1,89.8,255.1,95.3L255.1,95.3z M203.6,83.2h2.3v10.6c0,3.6-2.6,6-6.4,6c-3.8,0-6.4-2.5-6.4-6V83.2h2.3v10.6
		c0,2.5,1.7,4,4.2,4c2.5,0,4.2-1.5,4.2-4V83.2z M234.1,82.8c-4.7,0-8.5,3.6-8.5,8.3c0,4.9,3.8,8.5,8.5,8.5c4.7,0,8.3-3.8,8.3-8.5
		C242.5,86.6,238.9,82.8,234.1,82.8z M234.1,97.7c-3.4,0-6-2.8-6-6.4c0-3.6,2.6-6.2,6-6.2s6,2.6,6,6.2S237.4,97.7,234.1,97.7z
		 M222.6,95.7l1.3,1.7c0,0-2.3,2.6-6.4,2.6c-4.9,0-8.3-3.8-8.3-8.5s3.6-8.3,8.3-8.3c4,0,6,2.1,6,2.1l-1.1,1.7c0,0-1.9-1.7-4.7-1.7
		c-3.6,0-6,2.8-6,6.2c0,3.6,2.5,6.4,6,6.4C220.6,97.7,222.6,95.7,222.6,95.7L222.6,95.7z M220.9,31.7c0,15.8,4.3,21.7,13.6,21.7
		c7,0,10.6-1.3,11.9-2.8c1.1,0.6,7.7,4,9.6,4.9c-2.5,2.1-10,7.4-21.9,7.4c-20.6,0-31.3-10.8-31.3-30.9c0-20.4,10.8-30.9,31.3-30.9
		c11.9,0,19.4,5.3,21.9,7.4c-1.9,0.9-8.5,4.3-9.6,4.9c-1.3-1.5-4.7-2.8-11.7-2.8C225.3,10,220.9,15.7,220.9,31.7L220.9,31.7z
		 M294,0.6c-18.7,0-30,11.5-30,30.9s11.1,30.9,30,30.9c18.7,0,29.6-11.5,29.6-30.9C323.8,12.3,312.6,0.6,294,0.6L294,0.6z M294,52.6
		c-8.1,0-11.7-5.1-11.7-20.9s3.6-20.9,11.7-20.9c7.9,0,11.3,4.9,11.3,20.9C305.5,47.7,302.1,52.6,294,52.6z M260.8,97.5h7.5v2.1
		h-9.8V83.2h9.4v2.1h-7.2v5.1h5.8v1.9h-5.8L260.8,97.5L260.8,97.5z M327.5,83.2h2.3v16.4h-2.3l-7.4-10.6c-0.6-0.9-1.3-2.5-1.3-2.5
		l0,0c0,0,0.2,1.5,0.2,2.5v10.6h-2.3V83.2h2.3l7.4,10.6c0.6,0.9,1.3,2.5,1.3,2.5l0,0c0,0-0.2-1.5-0.2-2.5V83.2z M305.1,82.8
		c-4.7,0-8.5,3.6-8.5,8.3c0,4.9,3.8,8.5,8.5,8.5s8.3-3.8,8.3-8.5C313.4,86.6,309.8,82.8,305.1,82.8z M305.1,97.7c-3.4,0-6-2.8-6-6.4
		c0-3.6,2.6-6.2,6-6.2s6,2.6,6,6.2S308.5,97.7,305.1,97.7z M292.4,83.2l1.3,16.4h-2.3l-0.8-10.4c0-0.9,0-2.5,0-2.5l0,0
		c0,0-0.6,1.5-0.9,2.5l-3.2,7.4h-2.1l-3.2-7.4c-0.4-0.9-0.9-2.5-0.9-2.5l0,0c0,0,0,1.5,0,2.5l-0.8,10.4h-2.3l1.3-16.4h2.5l3.8,8.9
		c0.4,0.9,0.8,2.3,0.8,2.3l0,0c0,0,0.4-1.3,0.8-2.3l3.8-8.9H292.4L292.4,83.2z">
  </path>
 </g>
 <desc id="mainLogoDescription">
  The official logo of Dexcom, Inc.
 </desc>
</svg>