<svg version="1.1" id="Layer_2_1_" xmlns:x="ns_extend;" xmlns:i="ns_ai;" xmlns:graph="ns_graphs;" xmlns="http://www.w3.org/2000/svg" xmlns:xlink="http://www.w3.org/1999/xlink" x="0px" y="0px" viewBox="0 0 664.1 79" style="enable-background:new 0 0 664.1 79;" xml:space="preserve">
 <metadata>
  <sfw xmlns="ns_sfw;">
   <slices>
   </slices>
   <sliceSourceBounds bottomLeftOrigin="true" height="79" width="664.1" x="-464.1" y="0">
   </sliceSourceBounds>
  </sfw>
 </metadata>
 <g id="Wordmark">
  <g>
   <defs>
    <path id="SVGID_1_" d="M0,4.2h53.5v13H14.7v17.3h31.4v12.8H14.7v18h38.8v12.8H0V4.2z M59.6,77.9H73V0L59.6,4.2V77.9z M133.5,54
				c0,0.6-0.1,1.3-0.1,2H92.9c1.8,6.6,7.7,11.1,14.8,11.1c4.1,0,7.9-1.6,10.1-4.8h14.8c-4,10.1-13.5,16.7-25.2,16.7
				c-15.8,0-28.7-11.6-28.7-27.4s12.2-27.4,27.3-27.4C119.1,24.2,133.5,33.8,133.5,54L133.5,54z M119,46.5
				c-1.2-6.2-6.6-10.5-12.9-10.5S94.8,40,93,46.5C93,46.5,119,46.5,119,46.5z M165.5,36.8c5.9,0,10.9,3.6,13,9.3H192
				c-2.5-12.8-13.5-21.7-26.5-21.7c-15.2,0-27.5,11.5-27.5,27.4S150.3,79,165.5,79c13.1,0,24-8.5,26.5-21.3h-13.6
				c-2.1,5.7-7.1,9.3-13,9.3c-7.9,0-14.2-6.2-14.2-15S157.6,36.8,165.5,36.8z M209.5,10l-13.2,4.2v50.1c0,8.1,5.7,13.6,15.4,13.6
				h13.1V66h-9.3c-4.1,0-6-1.9-6-5.4V36.7h15.3V25.4h-15.3C209.5,25.4,209.5,10,209.5,10z M600.6,10l-13.2,4.2v50.1
				c0,8.1,5.7,13.6,15.4,13.6h13.1V66h-9.3c-4.1,0-6-1.9-6-5.4V36.7h15.3V25.4h-15.3V10z M243.2,34.8v-9.5h-13.4v52.5h13.4V50.1
				c0-7.2,6.3-14.6,17.1-13V24.4C252.2,23.4,246.4,28,243.2,34.8z M316.4,51.7c0,15.8-12.4,27.3-27.8,27.3s-27.8-11.5-27.8-27.3
				s12.4-27.4,27.8-27.4S316.4,35.8,316.4,51.7z M303.1,51.8c0-9.1-6.4-15.2-14.5-15.2c-8.1,0-14.5,6.1-14.5,15.2s6.4,15,14.5,15
				C296.7,66.8,303.1,60.6,303.1,51.8z M351.4,24.2c-6.7,0-12.5,3-15.7,7.7v-6.5h-13.4v52.5h13.4V46.1c0-6.1,4.7-11,11-11
				c6.2,0,11,4.6,11,11.5v31.3H371V45.6C371,33.3,364,24.2,351.4,24.2L351.4,24.2z M385.1,1.6c-4.6,0-8.5,3.9-8.5,8.6
				s3.9,8.6,8.5,8.6s8.6-3.9,8.6-8.6S389.8,1.6,385.1,1.6z M378.4,77.9h13.4V25.4h-13.4V77.9L378.4,77.9z M425.2,36.8
				c5.9,0,10.9,3.6,13,9.3h13.6c-2.5-12.8-13.5-21.7-26.5-21.7c-15.2,0-27.5,11.5-27.5,27.4S410,79,425.2,79
				c13.1,0,24-8.5,26.5-21.3h-13.6c-1.1,2.9-2.8,5.1-5,6.8c-2.2,1.6-4.9,2.5-7.9,2.5c-7.9,0-14.2-6.2-14.2-15S417.3,36.8,425.2,36.8
				L425.2,36.8z M511.3,1.1l37.9,76.9h-15.4l-7.5-15.7h-30.7l-7.3,15.7h-14.9L511.3,1.1z M521,51l-10.2-21.5L500.9,51
				C500.9,51,521,51,521,51z M565.8,34.9v-9.5h-13.4v52.5h13.4V50.1c0-7.2,6.3-14.6,17.1-13V24.4C574.8,23.4,569,28,565.8,34.9
				L565.8,34.9z M644.5,46.2c-6.5-1.7-12.1-3.2-12.1-7c0-3.2,3.4-4.8,7-4.8c6.2,0,10.9,3.6,11.7,9.1h12.2
				c-1.2-11.3-10.7-19.2-23.7-19.2c-11.5,0-20.3,6-20.3,16.1c0,11.3,10.7,14.2,19.7,16.5c6.4,1.7,11.9,3.1,11.9,6.8
				c0,3.1-3.5,5.1-8.3,5.1c-6.5,0-11.5-3.7-12.2-9.2h-12.2C619.3,71,629.2,79,642.6,79c12.1,0,21.6-6.4,21.6-16.5
				C664.1,51.5,653.4,48.5,644.5,46.2L644.5,46.2z">
    </path>
   </defs>
   <use href="#SVGID_1_" style="overflow:visible;fill:#161616;">
   </use>
   <clipPath id="SVGID_2_">
    <use xlink:href="#SVGID_1_" style="overflow:visible;">
    </use>
   </clipPath>
  </g>
 </g>
</svg>