<svg version="1.1" id="Layer_1" xmlns:x="ns_extend;" xmlns:i="ns_ai;" xmlns:graph="ns_graphs;" xmlns="http://www.w3.org/2000/svg" xmlns:xlink="http://www.w3.org/1999/xlink" x="0px" y="0px" viewBox="0 0 577.6 100" style="enable-background:new 0 0 577.6 100;" xml:space="preserve">
 <style type="text/css">
  .st0{fill:#F37321;}
	.st1{fill:#5F6062;}
 </style>
 <metadata>
  <sfw xmlns="ns_sfw;">
   <slices>
   </slices>
   <sliceSourceBounds bottomLeftOrigin="true" height="100" width="577.6" x="-328.4" y="-208.6">
   </sliceSourceBounds>
  </sfw>
 </metadata>
 <g>
  <path class="st0" d="M48.7,100C29.6,100,12.2,89,4,71.7c-1.4-3-0.1-6.6,2.9-8c3-1.4,6.6-0.1,8,2.9c6.5,13.6,20.4,22,35.4,21.4
		c14-0.6,26.4-8.8,32.3-21.4c1.4-3,5-4.3,8-2.9c3,1.4,4.3,5,2.9,8C85.7,88.3,69.3,99.2,50.8,100C50.1,100,49.4,100,48.7,100">
  </path>
  <path class="st0" d="M91.4,55.5H6c-3.3,0-6-2.7-6-6c0-3.3,2.7-6,6-6h78.9c-2.9-17.8-18.4-31.3-37-31.3c-14,0-26.7,7.7-33.2,20.1
		c-1.5,3-5.2,4.1-8.1,2.5c-3-1.5-4.1-5.2-2.5-8.1C12.6,10.2,29.5,0,47.9,0c27.3,0,49.5,22.2,49.5,49.4c0,1.6-0.6,3.1-1.8,4.3
		C94.6,54.9,93,55.5,91.4,55.5">
  </path>
  <path class="st1" d="M170.3,72.4h-31.7V54.9h22.5c3,0,5.5-2.4,5.5-5.5c0-3-2.4-5.5-5.5-5.5h-22.5V28.8H168c3,0,5.5-2.4,5.5-5.5
		c0-3-2.4-5.5-5.5-5.5h-34.8c-3,0-5.5,2.4-5.5,5.5v54.5c0,3,2.4,5.5,5.5,5.5h37.1c3,0,5.5-2.4,5.5-5.5
		C175.8,74.8,173.3,72.4,170.3,72.4">
  </path>
  <path class="st1" d="M554.8,72.4h-31.7V54.9h22.5c3,0,5.5-2.4,5.5-5.5c0-3-2.4-5.5-5.5-5.5h-22.5V28.8h29.4c3,0,5.5-2.4,5.5-5.5
		c0-3-2.4-5.5-5.5-5.5h-34.8c-3,0-5.5,2.4-5.5,5.5v54.5c0,3,2.4,5.5,5.5,5.5h37.1c3,0,5.5-2.4,5.5-5.5
		C560.3,74.8,557.8,72.4,554.8,72.4">
  </path>
  <path class="st1" d="M405.2,57.4l8.4-20l8.4,20H405.2z M441.7,75.7l-6.3-15c0,0,0,0,0-0.1l-16.7-39.5c0-0.1-0.1-0.1-0.1-0.2
		c0-0.1-0.1-0.2-0.1-0.3c0-0.1-0.1-0.1-0.1-0.2c0-0.1-0.1-0.2-0.1-0.2c-0.1-0.1-0.1-0.1-0.2-0.2c-0.1-0.1-0.1-0.1-0.2-0.2
		c-0.1-0.1-0.1-0.1-0.2-0.2c-0.1-0.1-0.1-0.1-0.2-0.2c-0.1-0.1-0.1-0.1-0.2-0.2c-0.1-0.1-0.1-0.1-0.2-0.2c-0.1-0.1-0.1-0.1-0.2-0.2
		c-0.1-0.1-0.1-0.1-0.2-0.2c-0.1-0.1-0.2-0.1-0.2-0.1c-0.1,0-0.1-0.1-0.2-0.1c-0.1,0-0.2-0.1-0.3-0.1c-0.1,0-0.1-0.1-0.2-0.1
		c0,0,0,0,0,0c-0.1,0-0.2-0.1-0.3-0.1c-0.1,0-0.1-0.1-0.2-0.1c-0.1,0-0.2,0-0.2-0.1c-0.4-0.1-0.8-0.1-1.2-0.2c-0.1,0-0.1,0-0.2,0
		c0,0-0.1,0-0.1,0c-0.4,0-0.8,0.1-1.2,0.2c-0.1,0-0.1,0-0.2,0.1c-0.1,0-0.2,0.1-0.2,0.1c-0.1,0-0.2,0.1-0.3,0.1c0,0,0,0,0,0
		c-0.1,0-0.1,0.1-0.2,0.1c-0.1,0-0.2,0.1-0.3,0.1c-0.1,0-0.2,0.1-0.2,0.1c-0.1,0-0.1,0.1-0.2,0.1c-0.1,0.1-0.2,0.1-0.2,0.2
		c-0.1,0-0.1,0.1-0.2,0.1c-0.1,0.1-0.1,0.1-0.2,0.2c-0.1,0.1-0.1,0.1-0.2,0.2c-0.1,0.1-0.1,0.1-0.2,0.2c-0.1,0.1-0.1,0.1-0.2,0.2
		c-0.1,0.1-0.1,0.1-0.2,0.2c-0.1,0.1-0.1,0.1-0.2,0.2c-0.1,0.1-0.1,0.2-0.1,0.2c0,0.1-0.1,0.1-0.1,0.2c0,0.1-0.1,0.2-0.1,0.3
		c0,0.1-0.1,0.1-0.1,0.2L392,60.7c0,0,0,0,0,0.1l-6.3,15c-1.2,2.8,0.1,6,2.9,7.2c0.7,0.3,1.4,0.4,2.1,0.4c2.1,0,4.2-1.3,5-3.3
		l4.9-11.7h26.1l4.9,11.7c0.9,2.1,2.9,3.3,5,3.3c0.7,0,1.4-0.1,2.1-0.4C441.6,81.7,442.9,78.5,441.7,75.7">
  </path>
  <path class="st1" d="M237.6,83.3h-1.4c-1.7,0-3.3-0.8-4.3-2.1L198,37.7v40.1c0,3-2.4,5.5-5.5,5.5c-3,0-5.5-2.4-5.5-5.5V23.3
		c0-3,2.4-5.5,5.5-5.5h1.2c1.7,0,3.3,0.8,4.3,2.1l34.2,43.8V23.3c0-3,2.4-5.5,5.5-5.5c3,0,5.5,2.4,5.5,5.5v54.5
		C243.1,80.9,240.6,83.3,237.6,83.3">
  </path>
  <path class="st1" d="M368.5,17.9c-3,0-5.5,2.4-5.5,5.5v20.6h-31.1V23.3c0-3-2.4-5.5-5.5-5.5c-3,0-5.5,2.4-5.5,5.5v26.1c0,0,0,0,0,0
		c0,0,0,0,0,0v28.4c0,3,2.4,5.5,5.5,5.5c3,0,5.5-2.4,5.5-5.5v-23H363v23c0,3,2.4,5.5,5.5,5.5c3,0,5.5-2.4,5.5-5.5V23.3
		C373.9,20.3,371.5,17.9,368.5,17.9">
  </path>
  <path class="st1" d="M474.4,84.5c-8.2,0-16.7-3.3-22.5-9.1c-2.1-2.1-2.1-5.6,0-7.7c2.1-2.1,5.6-2.1,7.7,0c5.8,5.8,14.6,6.9,20.3,5
		c2.5-0.8,5.6-2.6,6.1-6.2c0.5-3.1-1.2-6-10.9-10.1c-0.9-0.4-1.7-0.7-2.3-1c-0.5-0.2-1.3-0.6-2.3-1c-6.1-2.5-18.8-7.6-18.6-19.3
		c0.1-7.2,4.5-13.2,11.7-16.1c10-4,22.6-1.3,30.7,6.8c2.1,2.1,2.1,5.6,0,7.7c-2.1,2.1-5.6,2.1-7.7,0c-5.6-5.6-13.7-6.4-18.9-4.4
		c-3.1,1.3-4.8,3.4-4.8,6.2c-0.1,4.2,7.6,7.3,11.8,9c1.2,0.5,2.2,0.9,3.1,1.3c0.4,0.2,1,0.5,1.8,0.8c5.8,2.5,19.4,8.3,17.3,21.8
		c-1.1,7-6,12.5-13.5,14.9C480.5,84.1,477.5,84.5,474.4,84.5">
  </path>
  <path class="st1" d="M271.2,47.8h17c6.2,0,10.2-3.7,10.2-9.5c0-5.8-4-9.5-10.2-9.5h-17V47.8z M265.7,83.3c-3,0-5.5-2.4-5.5-5.5
		V23.3c0-3,2.4-5.5,5.5-5.5h22.4c12.2,0,21.1,8.6,21.1,20.4c0,11.8-8.9,20.4-21.1,20.4h-17v19.2C271.2,80.9,268.8,83.3,265.7,83.3">
  </path>
  <path class="st1" d="M572.5,78.1c0.8,0,1.6,0,1.6-1c0-0.8-0.7-0.9-1.3-0.9h-1.3v1.9H572.5z M571.6,81.4h-0.8v-5.8h2.2
		c1.3,0,1.9,0.6,1.9,1.6c0,1-0.7,1.5-1.3,1.6l1.6,2.6h-0.9l-1.6-2.6h-1.1V81.4z M576.8,78.5c0-2.4-1.8-4.2-4.1-4.2s-4.1,1.9-4.1,4.2
		c0,2.4,1.8,4.2,4.1,4.2S576.8,80.8,576.8,78.5 M577.6,78.5c0,2.7-2.2,4.9-4.9,4.9c-2.7,0-4.9-2.2-4.9-4.9c0-2.7,2.2-4.9,4.9-4.9
		C575.4,73.6,577.6,75.8,577.6,78.5">
  </path>
 </g>
</svg>