<svg xmlns="http://www.w3.org/2000/svg" width="300" height="300" viewBox="0 0 300 300" version="1.1"><path d="M 192.324 118.439 C 185.733 120.501, 181.194 123.812, 178.380 128.615 C 176.119 132.473, 175.827 133.940, 176.159 139.800 C 176.809 151.317, 180.895 154.901, 198.764 159.633 C 209.365 162.440, 211 163.303, 211 166.087 C 211 168.532, 208.041 170, 203.113 170 C 197.779 170, 194.175 168.240, 192.373 164.754 C 191.379 162.832, 190.341 162.061, 189.198 162.397 C 188.264 162.672, 184.575 163.388, 181 163.990 C 171.702 165.554, 171.905 165.428, 173.117 168.906 C 174.738 173.554, 181.891 181.011, 186.937 183.311 C 193.808 186.443, 210.529 186.372, 217.500 183.181 C 229.521 177.679, 234.813 166.668, 230.452 156.232 C 227.175 148.388, 223.048 145.774, 208.101 142.074 C 197.103 139.352, 194.514 137.589, 196.608 134.250 C 197.333 133.093, 199.248 132.398, 202.260 132.199 C 206.179 131.940, 207.321 132.343, 210.443 135.084 L 214.072 138.270 221.786 136.005 C 226.029 134.760, 229.646 133.616, 229.824 133.463 C 230.675 132.734, 226.703 126.965, 223.124 123.731 C 216.308 117.573, 202.617 115.221, 192.324 118.439 M 72 151.500 L 72 185 97 185 L 122 185 122 177 L 122 169 107 169 L 92 169 92 163.500 L 92 158 104.500 158 L 117 158 117 150.500 L 117 143 104.445 143 L 91.890 143 92.195 138.250 L 92.500 133.500 107.250 133.223 L 122 132.947 122 125.473 L 122 118 97 118 L 72 118 72 151.500 M 125 126 L 125 134 132 134 L 139 134 139 159.500 L 139 185 148.500 185 L 158 185 158 159.500 L 158 134 165 134 L 172 134 172 126 L 172 118 148.500 118 L 125 118 125 126" stroke="none" fill="#fbfafa" fill-rule="evenodd"/><path d="M 0 150.003 L 0 300.006 150.250 299.753 L 300.500 299.500 300.753 149.750 L 301.007 -0 150.503 -0 L 0 0 0 150.003 M 0.487 150.500 C 0.487 233, 0.605 266.602, 0.750 225.172 C 0.894 183.741, 0.894 116.241, 0.750 75.172 C 0.605 34.102, 0.487 68, 0.487 150.500 M 192.324 118.439 C 185.733 120.501, 181.194 123.812, 178.380 128.615 C 176.119 132.473, 175.827 133.940, 176.159 139.800 C 176.809 151.317, 180.895 154.901, 198.764 159.633 C 209.365 162.440, 211 163.303, 211 166.087 C 211 168.532, 208.041 170, 203.113 170 C 197.779 170, 194.175 168.240, 192.373 164.754 C 191.379 162.832, 190.341 162.061, 189.198 162.397 C 188.264 162.672, 184.575 163.388, 181 163.990 C 171.702 165.554, 171.905 165.428, 173.117 168.906 C 174.738 173.554, 181.891 181.011, 186.937 183.311 C 193.808 186.443, 210.529 186.372, 217.500 183.181 C 229.521 177.679, 234.813 166.668, 230.452 156.232 C 227.175 148.388, 223.048 145.774, 208.101 142.074 C 197.103 139.352, 194.514 137.589, 196.608 134.250 C 197.333 133.093, 199.248 132.398, 202.260 132.199 C 206.179 131.940, 207.321 132.343, 210.443 135.084 L 214.072 138.270 221.786 136.005 C 226.029 134.760, 229.646 133.616, 229.824 133.463 C 230.675 132.734, 226.703 126.965, 223.124 123.731 C 216.308 117.573, 202.617 115.221, 192.324 118.439 M 72 151.500 L 72 185 97 185 L 122 185 122 177 L 122 169 107 169 L 92 169 92 163.500 L 92 158 104.500 158 L 117 158 117 150.500 L 117 143 104.445 143 L 91.890 143 92.195 138.250 L 92.500 133.500 107.250 133.223 L 122 132.947 122 125.473 L 122 118 97 118 L 72 118 72 151.500 M 125 126 L 125 134 132 134 L 139 134 139 159.500 L 139 185 148.500 185 L 158 185 158 159.500 L 158 134 165 134 L 172 134 172 126 L 172 118 148.500 118 L 125 118 125 126" stroke="none" fill="#d4342c" fill-rule="evenodd"/></svg>