<svg version="1.1" id="Layer_1" xmlns:x="ns_extend;" xmlns:i="ns_ai;" xmlns:graph="ns_graphs;" xmlns="http://www.w3.org/2000/svg" xmlns:xlink="http://www.w3.org/1999/xlink" x="0px" y="0px" viewBox="0 0 1105.5 127" style="enable-background:new 0 0 1105.5 127;" xml:space="preserve">
 <style type="text/css">
  .st0{fill:#231F20;}
	.st1{fill:#EE3124;}
 </style>
 <metadata>
  <sfw xmlns="ns_sfw;">
   <slices>
   </slices>
   <sliceSourceBounds bottomLeftOrigin="true" height="127" width="1105.5" x="-485.7" y="0">
   </sliceSourceBounds>
  </sfw>
 </metadata>
 <g>
  <path class="st0" d="M0,125.8V1.6h137v27.6H30.3v21h91.9v26.8H30.3v48.7C30.3,125.8,0,125.8,0,125.8z M458.4,125.8V83.5
		c0-3.7-3.2-5.4-3.2-5.4c-1.4-0.9-5.7-1.1-12.1-1.1h1.4h-63.9v48.9h-30.3V1.6h94.5c16.4,0,27.6,2.5,35.3,10c7.7,7.8,8.6,18,8.7,28.5
		v8.9c0.2,8.9-4.6,17.1-10.3,21.9l1.1,0.5c2.3,1.1,3.6,2.7,3.6,2.7c4.3,5.5,4.3,10.2,4.3,16.1v35.5H458.4z M442,50.3
		c7.5,0,11.8,0,13.6-1.1c0,0,3-1.8,3.2-5.4v-8.2c0-3.7-3.2-5.4-3.2-5.4c-2.3-1.2-6.4-1.1-15.9-1.1h-59v21h62.6H442L442,50.3z
		 M533.3,125.8V29.3h-28.5V1.6h113.8v27.6h-54.9v96.5C563.7,125.8,533.3,125.8,533.3,125.8z M541.2,21.4v-4.1
		C541.2,17.3,541.2,21.4,541.2,21.4z M1012.4,125.8V29.3h-28.5V1.6h113.8v27.6h-54.9v96.5C1042.8,125.8,1012.4,125.8,1012.4,125.8z
		 M633.6,125.8V1.6h30.3v124.1H633.6z M846.5,125.8V1.6h122.2v27.6h-91.9v21h63.9v26.8h-63.9v21h92.6v27.6
		C969.4,125.8,846.5,125.8,846.5,125.8z M717.1,125.8h-30.5V1.6h97.9c0,0,18-0.7,29.3,10.5c0,0,11.6,9.8,11.6,33.5v80.1H795V43.7
		c0,0,0.4-8.4-2.5-11.2c0,0-2.5-3.2-7.3-3.2h-68.1V125.8z M1090.6,125.6c-8.4,0-15-6.8-15-15s6.8-15,15-15c8.2,0,15,6.8,15,15
		C1105.5,119,1098.9,125.6,1090.6,125.6z M1090.6,97.4c-7.3,0-13.2,5.9-13.2,13.4c0,7.3,5.9,13.2,13.2,13.2
		c7.3,0,13.2-5.9,13.2-13.2C1103.9,103.3,1097.9,97.4,1090.6,97.4z M1085,101.8h7.3c2.5,0,5,0.5,5.4,4.3c0,2.1-0.5,2.9-2.1,4.1
		c1.8,1.1,1.8,1.4,2,4.3c0.2,2.1-0.2,2.5,0.7,3.9h-2.5l-0.4-2.1c-0.4-2,0.5-5-2.9-5h-5.4v7.1h-2.1V101.8L1085,101.8z M1087.2,103.8
		v5.7h5.4c1.4,0,2.9-0.4,3-2.5c0.4-2.9-1.8-3.2-3-3.2H1087.2z">
  </path>
  <path class="st1" d="M150.4,47.1h50.3v33h-50.3V47.1z M214.6,0.2H264v33h-49.4V0.2z M214.6,93.8H264v33h-49.4V93.8z M277.7,47.1
		h50.5v33h-50.5V47.1z M171.1,0.2c-10.5,2.7-18.7,14.4-20.7,29.4v3.7h50.3V0.2H171.1z M150.4,93.8v4.1c1.8,14.3,9.5,25.7,19.4,28.9
		h31v-33H150.4z M328.2,33.2v-3.7C326.2,14.6,318,2.9,307.5,0h-29.8v33h50.5V33.2z M308.8,127c9.8-3.4,17.5-14.6,19.4-28.9V94h-50.5
		v33H308.8L308.8,127z">
  </path>
 </g>
</svg>