<svg version="1.1" id="Layer_1" xmlns:x="ns_extend;" xmlns:i="ns_ai;" xmlns:graph="ns_graphs;" xmlns="http://www.w3.org/2000/svg" xmlns:xlink="http://www.w3.org/1999/xlink" x="0px" y="0px" viewBox="0 0 297.5 72" style="enable-background:new 0 0 297.5 72;" xml:space="preserve">
 <style type="text/css">
  .st0{fill:#EC1D25;}
 </style>
 <metadata>
  <sfw xmlns="ns_sfw;">
   <slices>
   </slices>
   <sliceSourceBounds bottomLeftOrigin="true" height="72" width="297.5" x="-48.6" y="-211.9">
   </sliceSourceBounds>
  </sfw>
 </metadata>
 <g>
  <path class="st0" d="M34.1,33.8H15.7l9-24.9H25 M20.8,0L0,55.3h7.9l5.4-14.9h23.2l5.3,14.9h7.9L28.8,0H20.8z">
  </path>
  <rect x="53.8" y="0.1" class="st0" width="7.1" height="55.3">
  </rect>
  <path class="st0" d="M99.3,36.4c0,8.5-5.7,13.7-12,13.7c-6.3,0-12-5-12-13.7c0-8.7,5.7-13.7,12-13.7C93.6,22.7,99.3,27.9,99.3,36.4
		 M75.5,50.1c2.2,3.4,6.9,6.4,12.9,6.5c9.5,0,17.9-8.5,17.9-20.2c0-11.6-8.4-20.2-17.9-20.2c-6,0-10.8,3-12.9,6.5h-0.3v-5.2h-6.8V72
		h7.1V55.3l-0.3-5.2H75.5z">
  </path>
  <path class="st0" d="M279.6,43.8c0,7.7,4.2,12.1,12.2,12.1c2.4,0,4.1-0.3,5.7-1l-2.5-6.1c-1,0.4-1.9,0.6-3.3,0.6
		c-3.3,0-5-1.9-5-6.1V24h9.3v-6.5h-9.3V6h-7.1v11.6h-6.6V24h6.6 M252.2,22.8c8.2,0,10.9,5.8,11.1,9.1h-21.9
		C242.7,26.3,246.9,22.8,252.2,22.8z M233.8,36.4c0,11.4,7.7,20.1,19.4,20.2c8.7,0,14.3-5,16.5-10.4l-6.3-2.7
		c-2.1,4.9-6.2,6.5-10.4,6.5c-5.9,0-11.7-4.4-12.1-12.4h29.8l0.1-1.4c0-12.2-7.3-20.2-18.5-20.2C241.3,16.2,233.8,25.6,233.8,36.4z
		 M222.8,36.4c0,8.5-5.7,13.7-12.1,13.7c-6.3,0-12-5-12-13.7c0-8.7,5.7-13.7,12-13.7C217.1,22.7,222.8,27.9,222.8,36.4z M199,50.1
		c2.2,3.4,6.9,6.4,12.9,6.5c9.6,0,17.9-8.6,17.9-20.2c0-11.6-8.4-20.2-17.9-20.2c-6,0-10.8,3-12.9,6.5h-0.3l0.3-5.2V0.1h-7.1v55.3
		h6.8v-5.2H199z M177.9,39c0,6.1-6,11.1-11.6,11.1c-3.7,0-7.9-2-7.9-6c0-3.4,3-7.5,10.5-7.5C174.9,36.6,177.9,39,177.9,39z
		 M151,43.9c0,7.9,6.5,12.6,14.1,12.7c6.5,0,10.3-3.4,12.4-6.5h0.3v5.2h6.8V32.5c0-10.7-7.6-16.2-16.9-16.2c-9.5,0-14,5.7-15.4,9.2
		l6.5,2.8c1.3-3.6,5.1-5.5,9-5.5c5.3,0,9.9,3.4,9.9,9.2V33c-1.5-0.8-5.2-2.3-10.3-2.3C158.7,30.7,151,35.3,151,43.9z M118.9,17.5
		L118.8,0h-7.1v55.3h7.1V34.4c0-5.8,3.8-11.6,10-11.6c5.4,0,9.3,2.7,9.3,10.5v22.1h7.1V32.2c0-9.3-4.7-15.9-14.4-15.9
		c-5.1,0-10,3-11.9,6.5h-0.3L118.9,17.5z">
  </path>
 </g>
</svg>