<svg xmlns="http://www.w3.org/2000/svg" width="225" height="225" viewBox="0 0 225 225" version="1.1"><path d="M 129 121.029 C 118.825 135.333, 110.375 147.591, 110.223 148.268 C 110.012 149.203, 112.755 149.425, 121.596 149.187 L 133.246 148.875 132.592 152.361 C 132.232 154.279, 129.747 164.095, 127.069 174.174 C 121.188 196.312, 120.602 199.004, 121.671 198.987 C 122.365 198.976, 162.825 138.379, 163.833 135.839 C 164.017 135.378, 158.456 135, 151.476 135 C 140.577 135, 138.868 134.787, 139.365 133.492 C 140.103 131.568, 149 96.696, 149 95.726 C 149 93.378, 145.687 97.570, 129 121.029" stroke="none" fill="#097aef" fill-rule="evenodd"/><path d="M 23.994 26.934 C 16.385 29.249, 10.063 35.099, 5.320 44.214 C 2.926 48.814, 2.565 50.668, 2.535 58.500 C 2.504 66.382, 2.849 68.211, 5.311 73.224 C 8.963 80.661, 14.711 85.522, 22.814 88.024 C 28.175 89.680, 32.109 90, 47.105 90 L 65 90 65 70.500 L 65 51 49.500 51 L 34 51 34 57 L 34 63 43 63 L 52 63 52 70.500 L 52 78 40.622 78 C 25.065 78, 21.072 76.202, 17.467 67.575 C 13.741 58.658, 16.415 46.885, 23.299 41.898 L 27.300 39 45.150 39 L 63 39 63 32.500 L 63 26 44.750 26.086 C 34.712 26.133, 25.372 26.515, 23.994 26.934 M 74 58 L 74 90 80.500 90 L 87 90 87 79 L 87 68 95.401 68 L 103.802 68 105.980 71.750 C 107.178 73.813, 110.260 78.757, 112.829 82.737 L 117.500 89.974 124.250 89.987 C 127.963 89.994, 131 89.647, 131 89.215 C 131 88.783, 127.912 83.496, 124.137 77.465 C 118.279 68.107, 117.510 66.370, 118.887 65.616 C 122.019 63.900, 126.204 59.458, 127.947 56 C 130.662 50.613, 131.067 46.590, 129.445 41.127 C 127.597 34.902, 121.063 28.757, 114.549 27.117 C 112.098 26.499, 102.038 26, 92.057 26 L 74 26 74 58 M 138.454 27.260 C 138.188 27.954, 138.089 42.241, 138.235 59.010 L 138.500 89.500 144.750 89.798 L 151 90.095 151 58.048 L 151 26 144.969 26 C 141.040 26, 138.769 26.439, 138.454 27.260 M 161 57.924 L 161 90 179.462 90 C 201.553 90, 206.332 88.763, 214.048 81.048 C 226.077 69.018, 225.962 47.732, 213.801 35.308 C 206.292 27.637, 202.344 26.563, 180.250 26.180 L 161 25.847 161 57.924 M 87 47.082 L 87 56.163 99.589 55.832 C 111.965 55.506, 112.219 55.453, 114.589 52.694 C 117.116 49.753, 117.725 45.223, 116.021 42.039 C 114.454 39.110, 109.459 38, 97.851 38 L 87 38 87 47.082 M 174 58 L 174 78 184.250 77.978 C 198.628 77.947, 204.628 74.920, 208.452 65.768 C 212.932 55.047, 206.973 42.031, 196.219 39.044 C 194.174 38.476, 188.338 38.009, 183.250 38.006 L 174 38 174 58 M 61.087 106.212 C 59.338 110.695, 29.793 180.515, 29.315 181.294 C 29.047 181.730, 32.334 181.955, 36.619 181.794 L 44.411 181.500 48.002 173 L 51.594 164.500 70.871 164.228 L 90.147 163.956 94.315 172.978 L 98.482 182 106.151 182 L 113.819 182 97.160 143.250 L 80.500 104.500 71.240 104.212 C 62.391 103.937, 61.939 104.027, 61.087 106.212 M 174 143 L 174 182 181.500 182 L 189 182 189 143 L 189 104 181.500 104 L 174 104 174 143 M 70.369 120.500 C 69.945 121.600, 67.015 128.800, 63.858 136.500 L 58.119 150.500 64.516 150.795 C 68.034 150.957, 74.050 150.957, 77.885 150.795 L 84.857 150.500 77.998 134.500 C 72.650 122.022, 70.970 118.940, 70.369 120.500" stroke="none" fill="#0a0b0f" fill-rule="evenodd"/></svg>