<svg version="1.1" id="Layer_1" xmlns:x="ns_extend;" xmlns:i="ns_ai;" xmlns:graph="ns_graphs;" xmlns="http://www.w3.org/2000/svg" xmlns:xlink="http://www.w3.org/1999/xlink" x="0px" y="0px" viewBox="0 0 441.5 81" style="enable-background:new 0 0 441.5 81;" xml:space="preserve">
 <style type="text/css">
  .st0{fill-rule:evenodd;clip-rule:evenodd;fill:#EE3124;}
	.st1{fill:#EE3124;}
 </style>
 <metadata>
  <sfw xmlns="ns_sfw;">
   <slices>
   </slices>
   <sliceSourceBounds bottomLeftOrigin="true" height="81" width="441.5" x="-189" y="-210">
   </sliceSourceBounds>
  </sfw>
 </metadata>
 <g>
  <polygon class="st0" points="0,0.2 19.9,0.2 19.9,26.5 35.4,26.5 35.4,0 55.1,0 55.1,63.6 35.4,63.6 35.4,34.5 19.7,34.5 
		19.7,63.3 0,63.3 	">
  </polygon>
  <path class="st0" d="M86.6,15.7c3.9-0.2,7.8,0.4,11.5,1.6c5.4,1.7,9.9,5.4,12.6,10.3c3.6,6.8,4.1,14.8,1.5,22.1
		c-1.9,5.4-5.9,9.9-11,12.5c-4.4,2-9.2,2.9-14,2.7c-5.9,0.2-11.6-1.4-16.5-4.6c-4.4-3.1-7.5-7.6-9-12.7c-2.2-7.5-1-15.6,3.5-22.1
		c3.9-5.2,9.7-8.5,16.2-9.4C83.1,15.9,84.9,15.7,86.6,15.7L86.6,15.7z M93.2,26.3c0.8,2.5,1.2,5.1,1.2,7.7v15.1
		c-0.1,3.5-1.5,6.8-3.9,9.4c-2,1.8-5.1,1.6-6.9-0.4c0,0,0,0,0,0c-0.3-0.3-0.5-0.7-0.7-1.1c-1.9-2.9-2.6-5.6-2.5-13.7
		c0.2-8.1-0.3-13.7,1.3-17c1.6-3.3,3.1-4.7,4.6-5C89.3,20.6,91.7,22.6,93.2,26.3L93.2,26.3z">
  </path>
  <path class="st0" d="M137.7,30.2v33.2h-18.4V17.2h18.4v6.2c1.7-2.2,3.9-4.1,6.4-5.3c5.3-2.6,11.4-2.8,16.9-0.7
		c4.4,1.9,7.4,6.1,7.7,10.8v35.1h-18.1V31.3c0.1-1.7-0.4-3.5-1.5-4.9c-1.8-1.6-4.5-1.8-6.6-0.7C139.9,27.2,137.4,29.8,137.7,30.2">
  </path>
  <path class="st0" d="M193.7,37c-0.1-3,0.1-5.9,0.4-8.9c0.4-2.4,1.7-4.7,3.6-6.3c2.3-1.4,5.2-1.2,7.2,0.5c1.3,1.2,2.2,2.7,2.6,4.4
		c0.5,2,0.7,4,0.7,6v4.2L193.7,37z M177.2,28.2c5-8.5,14.6-13.4,24.5-12.5c11.5,0.6,18.2,4.7,22.2,12.3c2.3,4.7,3.3,9.9,3.1,15.1
		h-33.3v9.4c0.2,1.1,0.5,2.1,1.1,3c0.8,1,3.8,4.8,12.8,3.4c10.1-1.6,9.7-8.6,10.1-8.6h7.9c-0.1,2.9-1.3,5.6-3.4,7.7
		c-4.3,3.9-9.8,6.3-15.6,6.9c-6.5,0.6-15.8,0.8-23.2-5.3c-3.5-2.9-6.2-6.7-7.6-11c-2-6.7-1.5-13.9,1.6-20.3L177.2,28.2z">
  </path>
  <path class="st0" d="M361.7,37c-0.1-3,0.1-5.9,0.4-8.9c0.4-2.4,1.7-4.7,3.6-6.3c2.3-1.4,5.2-1.2,7.2,0.5c1.2,1.2,2.1,2.7,2.6,4.4
		c0.5,2,0.8,4,0.7,6v4.2L361.7,37z M345.3,28.2c5-8.5,14.6-13.4,24.5-12.5c11.6,0.6,18.2,4.7,22.3,12.3c2.2,4.7,3.2,9.9,2.9,15.1
		h-33.1v9.4c0.2,1.1,0.5,2.1,1.1,3c0.7,1,3.8,4.8,12.8,3.4c10-1.6,9.7-8.6,9.9-8.6h7.9c-0.2,2.9-1.4,5.6-3.4,7.7
		c-4.3,3.9-9.8,6.3-15.6,6.9c-6.5,0.6-15.8,0.8-23.2-5.3c-3.5-2.9-6.2-6.7-7.6-11c-2-6.7-1.4-13.9,1.6-20.3L345.3,28.2z">
  </path>
  <path class="st0" d="M225.4,17.3h20.1l8.6,22l9.2-21.9h25.3l8.1,25.8l7.2-25.9h16.2l8,25.5l7.1-25.5h8.2l-12.8,46.1h-15.3
		l-8.5-26.9l-7.3,26.9h-15.6L270,18.9l-19.5,47c-1.3,3.9-3.4,7.5-6.1,10.7c-3.5,3.6-8.5,5.1-13.5,4.2c-6.1-1.1-8.7-4.3-9.2-8.1
		c-0.7-4,1.9-7.8,5.9-8.6c3.2-1,6.6,0.2,8.3,3c1,1.8,1.2,3.9,0.6,5.9c-0.4,0.8-0.9,1.5-1.5,2.2c1.8,0.3,3.6-0.4,4.8-1.7
		c1.8-2,3.1-4.4,3.8-6.9c0.2-0.6,0.3-1.2,0.4-1.8L225.4,17.3z">
  </path>
  <rect x="400.5" y="0" class="st1" width="17.7" height="63.4">
  </rect>
  <rect x="423.8" y="0.1" class="st1" width="17.7" height="63.4">
  </rect>
 </g>
</svg>