<?xml version="1.0" encoding="utf-8"?>
<!-- Generator: Adobe Illustrator 25.2.0, SVG Export Plug-In . SVG Version: 6.00 Build 0)  -->
<svg version="1.1" id="Layer_1" xmlns="http://www.w3.org/2000/svg" xmlns:xlink="http://www.w3.org/1999/xlink" x="0px" y="0px"
	 viewBox="0 0 432 360" style="enable-background:new 0 0 432 360;" xml:space="preserve">
<style type="text/css">
	.st0{enable-background:new    ;}
	.st1{fill:#FFFFFF;}
	.st2{fill:#BB1F40;}
</style>
<g>
	<g class="st0">
		<path class="st1" d="M76.5,236.1v11.4h13v5.9h-13v11.7H93v6.1H69.6V230H93v6.1H76.5z"/>
		<path class="st1" d="M97.5,271.2V242h3.9c0.8,0,1.4,0.4,1.6,1.3l0.4,2.2c0.5-0.6,0.9-1.1,1.4-1.6c0.5-0.5,1-0.9,1.6-1.2
			c0.6-0.3,1.2-0.6,1.8-0.8c0.7-0.2,1.4-0.3,2.2-0.3c1.7,0,3,0.5,4.1,1.5c1.1,1,1.9,2.3,2.4,4c0.4-1,0.9-1.8,1.5-2.5s1.3-1.3,2-1.7
			c0.7-0.4,1.5-0.8,2.3-1c0.8-0.2,1.7-0.3,2.5-0.3c1.5,0,2.7,0.2,3.9,0.7c1.1,0.5,2.1,1.2,2.8,2.2s1.4,2.1,1.8,3.5
			c0.4,1.4,0.6,2.9,0.6,4.7v18.6h-6.3v-18.6c0-1.9-0.4-3.3-1.1-4.2s-1.8-1.4-3.2-1.4c-0.6,0-1.3,0.1-1.8,0.4c-0.6,0.2-1,0.6-1.5,1.1
			c-0.4,0.5-0.7,1.1-1,1.8c-0.2,0.7-0.4,1.5-0.4,2.4v18.6h-6.4v-18.6c0-2-0.4-3.4-1.1-4.3c-0.7-0.9-1.7-1.3-3.1-1.3
			c-0.9,0-1.8,0.3-2.6,0.8c-0.8,0.5-1.5,1.2-2.2,2.1v21.4H97.5z"/>
		<path class="st1" d="M146.5,246c1.1-1.3,2.3-2.4,3.7-3.3c1.4-0.8,3-1.3,4.8-1.3c1.4,0,2.7,0.3,3.9,1s2.2,1.6,3.1,2.9
			c0.9,1.3,1.5,2.8,2,4.7c0.5,1.9,0.7,4,0.7,6.4c0,2.2-0.3,4.2-0.8,6.1c-0.5,1.9-1.3,3.5-2.3,4.8c-1,1.4-2.2,2.4-3.6,3.2
			c-1.4,0.8-3,1.2-4.7,1.2c-1.5,0-2.7-0.3-3.8-0.8c-1-0.5-2-1.2-2.8-2.1v12h-6.3V242h3.9c0.8,0,1.4,0.4,1.6,1.3L146.5,246z
			 M146.8,263.6c0.7,1,1.5,1.7,2.3,2.1c0.8,0.4,1.8,0.6,2.8,0.6c1,0,1.8-0.2,2.6-0.6c0.8-0.4,1.4-1,2-1.8c0.5-0.8,1-1.8,1.2-3.1
			c0.3-1.2,0.4-2.7,0.4-4.4c0-1.7-0.1-3.2-0.4-4.3c-0.2-1.2-0.6-2.2-1.1-2.9c-0.5-0.7-1-1.3-1.7-1.6s-1.4-0.5-2.2-0.5
			c-1.3,0-2.4,0.3-3.4,0.9c-0.9,0.6-1.8,1.5-2.6,2.6V263.6z"/>
		<path class="st1" d="M181.2,241.5c1.9,0,3.7,0.4,5.3,1.1c1.6,0.7,3,1.7,4.1,3c1.1,1.3,2,2.9,2.6,4.7c0.6,1.9,0.9,3.9,0.9,6.2
			c0,2.3-0.3,4.4-0.9,6.3c-0.6,1.9-1.5,3.4-2.6,4.8c-1.1,1.3-2.5,2.3-4.1,3c-1.6,0.7-3.4,1.1-5.3,1.1c-2,0-3.8-0.4-5.4-1.1
			c-1.6-0.7-3-1.7-4.1-3c-1.1-1.3-2-2.9-2.6-4.8c-0.6-1.9-0.9-4-0.9-6.3c0-2.3,0.3-4.4,0.9-6.2c0.6-1.9,1.5-3.4,2.6-4.7
			c1.1-1.3,2.5-2.3,4.1-3C177.5,241.9,179.3,241.5,181.2,241.5z M181.2,266.2c2.2,0,3.8-0.8,4.9-2.5c1.1-1.6,1.6-4,1.6-7.2
			c0-3.2-0.5-5.6-1.6-7.2c-1.1-1.7-2.7-2.5-4.9-2.5c-2.2,0-3.9,0.8-4.9,2.5c-1.1,1.7-1.6,4.1-1.6,7.2c0,3.1,0.5,5.5,1.6,7.2
			C177.4,265.4,179,266.2,181.2,266.2z"/>
		<path class="st1" d="M236.2,242l-8.4,29.2h-5.1c-0.6,0-1-0.4-1.2-1.3l-4.7-16.9c-0.2-0.6-0.3-1.1-0.4-1.7
			c-0.1-0.6-0.2-1.1-0.3-1.7c-0.1,0.6-0.2,1.1-0.3,1.7c-0.1,0.6-0.3,1.2-0.4,1.7l-4.8,16.8c-0.2,0.8-0.7,1.3-1.4,1.3h-4.9L196,242
			h5.1c0.5,0,0.9,0.1,1.2,0.4c0.3,0.2,0.5,0.6,0.6,0.9l3.8,15.6c0.2,0.9,0.4,1.7,0.5,2.5c0.1,0.8,0.3,1.6,0.4,2.5
			c0.2-0.8,0.4-1.6,0.6-2.5c0.2-0.8,0.4-1.7,0.7-2.5l4.4-15.7c0.1-0.4,0.3-0.7,0.6-0.9c0.3-0.2,0.7-0.4,1.1-0.4h2.8
			c0.4,0,0.8,0.1,1.1,0.4c0.3,0.2,0.5,0.6,0.6,0.9l4.2,15.7c0.2,0.9,0.4,1.7,0.6,2.5c0.2,0.8,0.4,1.6,0.6,2.5c0.2-1.6,0.5-3.3,0.9-5
			l3.9-15.6c0.1-0.4,0.3-0.7,0.6-0.9c0.3-0.2,0.7-0.4,1.1-0.4H236.2z"/>
		<path class="st1" d="M244.2,257.5c0.1,1.5,0.3,2.8,0.7,3.9s0.9,2,1.5,2.7c0.6,0.7,1.3,1.2,2.2,1.6c0.8,0.4,1.8,0.5,2.8,0.5
			c1,0,1.9-0.1,2.7-0.4c0.7-0.3,1.4-0.6,1.9-0.9c0.6-0.3,1-0.6,1.5-0.9c0.4-0.3,0.8-0.4,1.2-0.4c0.5,0,0.9,0.2,1.2,0.7l1.8,2.6
			c-0.7,0.9-1.5,1.7-2.4,2.3c-0.9,0.6-1.8,1.1-2.7,1.5c-0.9,0.4-1.9,0.6-2.9,0.8s-1.9,0.2-2.9,0.2c-1.8,0-3.5-0.3-5.1-1
			c-1.6-0.7-2.9-1.7-4.1-3c-1.2-1.3-2.1-3-2.7-4.9s-1-4.2-1-6.8c0-2,0.3-3.9,0.9-5.6c0.6-1.8,1.4-3.3,2.5-4.6c1.1-1.3,2.4-2.3,4-3.1
			c1.6-0.8,3.3-1.1,5.3-1.1c1.7,0,3.2,0.3,4.6,0.9s2.6,1.4,3.6,2.6c1,1.1,1.8,2.5,2.4,4.2c0.6,1.6,0.9,3.5,0.9,5.6
			c0,1.1-0.1,1.8-0.3,2.2c-0.2,0.4-0.6,0.6-1.2,0.6H244.2z M256.3,253.2c0-0.9-0.1-1.8-0.3-2.6c-0.2-0.8-0.6-1.5-1-2.1
			c-0.5-0.6-1-1.1-1.8-1.4c-0.7-0.4-1.5-0.5-2.5-0.5c-1.8,0-3.3,0.6-4.3,1.7c-1.1,1.2-1.7,2.8-2,4.9H256.3z"/>
		<path class="st1" d="M272.7,247.1c0.8-1.7,1.8-3.1,2.9-4.1c1.1-1,2.5-1.5,4-1.5c1.2,0,2.2,0.3,2.9,0.9l-0.4,5.3
			c-0.1,0.3-0.2,0.6-0.4,0.7s-0.4,0.2-0.7,0.2c-0.3,0-0.6,0-1.1-0.1c-0.5-0.1-1-0.1-1.5-0.1c-0.7,0-1.3,0.1-1.9,0.3
			c-0.5,0.2-1,0.6-1.5,1c-0.4,0.4-0.8,0.9-1.2,1.6c-0.3,0.6-0.6,1.3-0.9,2.1v18h-6.3V242h3.7c0.6,0,1.1,0.1,1.4,0.4
			c0.3,0.3,0.4,0.7,0.5,1.4L272.7,247.1z"/>
		<path class="st1" d="M293.3,233.5c0,0.6-0.1,1.2-0.3,1.7c-0.2,0.5-0.5,1-0.9,1.4c-0.4,0.4-0.8,0.7-1.3,1s-1,0.4-1.6,0.4
			c-0.5,0-1.1-0.1-1.6-0.4s-0.9-0.6-1.3-1c-0.4-0.4-0.6-0.9-0.9-1.4c-0.2-0.5-0.3-1.1-0.3-1.7c0-0.6,0.1-1.2,0.3-1.8s0.5-1,0.9-1.4
			c0.4-0.4,0.8-0.7,1.3-1s1-0.4,1.6-0.4c0.6,0,1.1,0.1,1.6,0.4s0.9,0.6,1.3,1c0.4,0.4,0.7,0.9,0.9,1.4
			C293.2,232.2,293.3,232.8,293.3,233.5z M292.5,242v29.2h-6.4V242H292.5z"/>
		<path class="st1" d="M304.8,245.6c0.5-0.6,1.1-1.1,1.7-1.6c0.6-0.5,1.2-0.9,1.9-1.3c0.7-0.4,1.4-0.6,2.1-0.8
			c0.8-0.2,1.6-0.3,2.5-0.3c1.4,0,2.7,0.3,3.8,0.8c1.1,0.5,2,1.3,2.8,2.3c0.7,1,1.3,2.1,1.7,3.5c0.4,1.4,0.6,2.9,0.6,4.5v18.6h-6.3
			v-18.6c0-1.8-0.4-3.2-1.1-4.1s-1.9-1.5-3.4-1.5c-1.1,0-2.1,0.3-3.1,0.8s-1.9,1.3-2.7,2.3v21.1h-6.3V242h3.9c0.8,0,1.4,0.4,1.6,1.3
			L304.8,245.6z"/>
		<path class="st1" d="M350.9,243v2.6c0,0.8-0.5,1.3-1.4,1.5l-2.4,0.5c0.4,1,0.5,2.1,0.5,3.3c0,1.4-0.3,2.8-0.8,3.9
			c-0.5,1.2-1.2,2.2-2.2,3c-0.9,0.8-2,1.4-3.3,1.9c-1.3,0.4-2.6,0.7-4.1,0.7c-0.5,0-1,0-1.5-0.1c-0.5-0.1-0.9-0.1-1.4-0.2
			c-0.8,0.6-1.2,1.2-1.2,1.9c0,0.6,0.2,1,0.7,1.3s1.1,0.5,1.9,0.6s1.7,0.2,2.7,0.2c1,0,2.1,0.1,3.2,0.2s2.1,0.3,3.2,0.5
			c1,0.2,1.9,0.6,2.7,1.1c0.8,0.5,1.4,1.2,1.9,2.1c0.5,0.9,0.7,2,0.7,3.4c0,1.3-0.3,2.5-0.9,3.8c-0.6,1.2-1.4,2.3-2.5,3.2
			s-2.4,1.7-4,2.3c-1.6,0.6-3.4,0.9-5.4,0.9c-2,0-3.7-0.2-5.2-0.6s-2.7-1-3.7-1.7c-1-0.7-1.7-1.5-2.2-2.5s-0.7-1.9-0.7-2.9
			c0-1.4,0.4-2.5,1.1-3.4c0.7-0.9,1.8-1.7,3.1-2.2c-0.7-0.4-1.3-0.9-1.7-1.6s-0.6-1.5-0.6-2.6c0-0.4,0.1-0.9,0.2-1.4
			c0.1-0.5,0.4-0.9,0.6-1.4c0.3-0.5,0.6-0.9,1.1-1.3c0.4-0.4,0.9-0.8,1.5-1.1c-1.3-0.8-2.4-1.9-3.1-3.2c-0.8-1.3-1.1-2.9-1.1-4.7
			c0-1.4,0.3-2.8,0.8-3.9c0.5-1.2,1.2-2.2,2.2-3c0.9-0.8,2-1.5,3.3-1.9c1.3-0.4,2.7-0.7,4.2-0.7c1.1,0,2.2,0.1,3.2,0.4
			c1,0.3,1.9,0.6,2.7,1.1H350.9z M344.6,272.5c0-0.6-0.2-1-0.5-1.4c-0.3-0.4-0.7-0.6-1.3-0.8c-0.5-0.2-1.2-0.3-1.9-0.4
			c-0.7-0.1-1.5-0.2-2.3-0.2c-0.8,0-1.6-0.1-2.5-0.1s-1.7-0.1-2.5-0.2c-0.7,0.4-1.3,1-1.7,1.5c-0.4,0.6-0.7,1.3-0.7,2.1
			c0,0.5,0.1,1,0.3,1.4c0.2,0.4,0.6,0.8,1.1,1.2c0.5,0.3,1.2,0.6,2,0.8c0.8,0.2,1.8,0.3,3,0.3c1.2,0,2.2-0.1,3.1-0.3
			c0.9-0.2,1.6-0.5,2.1-0.8c0.6-0.4,1-0.8,1.2-1.3S344.6,273.1,344.6,272.5z M337.5,255.9c0.8,0,1.5-0.1,2.1-0.4
			c0.6-0.2,1.1-0.6,1.4-1c0.4-0.4,0.7-0.9,0.9-1.5s0.3-1.2,0.3-1.9c0-1.4-0.4-2.6-1.2-3.4c-0.8-0.8-1.9-1.3-3.5-1.3
			c-1.6,0-2.7,0.4-3.5,1.3c-0.8,0.8-1.2,2-1.2,3.4c0,0.7,0.1,1.3,0.3,1.9c0.2,0.6,0.5,1.1,0.9,1.5s0.9,0.8,1.5,1
			C336,255.8,336.7,255.9,337.5,255.9z"/>
	</g>
	<g class="st0">
		<path class="st1" d="M156.6,306.4V323c-1.9,1.5-3.9,2.7-6,3.4c-2.1,0.7-4.4,1.1-6.8,1.1c-3,0-5.8-0.5-8.2-1.6s-4.5-2.5-6.3-4.4
			c-1.7-1.9-3.1-4.1-4-6.7s-1.4-5.4-1.4-8.5c0-3.1,0.5-5.9,1.4-8.5c0.9-2.6,2.2-4.8,3.9-6.7c1.7-1.9,3.7-3.3,6.1-4.3
			c2.4-1,5-1.5,8-1.5c1.5,0,2.9,0.1,4.2,0.4c1.3,0.3,2.5,0.6,3.6,1.1c1.1,0.5,2.1,1,3.1,1.7c0.9,0.7,1.8,1.4,2.5,2.2l-2,3.5
			c-0.3,0.6-0.7,0.9-1.2,1c-0.5,0.1-1,0-1.6-0.4c-0.6-0.4-1.1-0.7-1.7-1.1c-0.6-0.4-1.2-0.7-1.9-0.9c-0.7-0.3-1.5-0.5-2.3-0.7
			s-1.9-0.3-3-0.3c-1.8,0-3.5,0.3-5,1c-1.5,0.7-2.7,1.7-3.8,2.9c-1,1.3-1.8,2.8-2.4,4.6c-0.6,1.8-0.8,3.8-0.8,6
			c0,2.4,0.3,4.5,0.9,6.3c0.6,1.9,1.5,3.4,2.6,4.7c1.1,1.3,2.4,2.3,4,2.9c1.6,0.7,3.3,1,5.2,1c1.4,0,2.6-0.2,3.7-0.5
			c1.1-0.3,2.1-0.8,3.2-1.3v-7.5h-4.7c-0.4,0-0.8-0.1-1-0.4s-0.4-0.6-0.4-1v-4.3H156.6z"/>
		<path class="st1" d="M167.8,302.9c0.8-1.7,1.8-3.1,2.9-4.1c1.1-1,2.5-1.5,4-1.5c1.2,0,2.2,0.3,2.9,0.9l-0.4,5.3
			c-0.1,0.3-0.2,0.6-0.4,0.7s-0.4,0.2-0.7,0.2c-0.3,0-0.6,0-1.1-0.1c-0.5-0.1-1-0.1-1.5-0.1c-0.7,0-1.3,0.1-1.9,0.3
			c-0.5,0.2-1,0.6-1.5,1s-0.8,0.9-1.2,1.6c-0.3,0.6-0.6,1.3-0.9,2.1v18h-6.3v-29.2h3.7c0.6,0,1.1,0.1,1.4,0.4
			c0.3,0.3,0.4,0.7,0.5,1.4L167.8,302.9z"/>
		<path class="st1" d="M191.9,297.3c1.9,0,3.7,0.4,5.3,1.1c1.6,0.7,3,1.7,4.1,3c1.1,1.3,2,2.9,2.6,4.7c0.6,1.9,0.9,3.9,0.9,6.2
			c0,2.3-0.3,4.4-0.9,6.3c-0.6,1.9-1.5,3.4-2.6,4.8c-1.1,1.3-2.5,2.3-4.1,3c-1.6,0.7-3.4,1.1-5.3,1.1c-2,0-3.8-0.4-5.4-1.1
			c-1.6-0.7-3-1.7-4.1-3c-1.1-1.3-2-2.9-2.6-4.8c-0.6-1.9-0.9-4-0.9-6.3c0-2.3,0.3-4.4,0.9-6.2c0.6-1.9,1.5-3.4,2.6-4.7
			c1.1-1.3,2.5-2.3,4.1-3C188.1,297.7,189.9,297.3,191.9,297.3z M191.9,322c2.2,0,3.8-0.8,4.9-2.5c1.1-1.6,1.6-4,1.6-7.2
			c0-3.2-0.5-5.6-1.6-7.2c-1.1-1.7-2.7-2.5-4.9-2.5c-2.2,0-3.9,0.8-4.9,2.5c-1.1,1.7-1.6,4.1-1.6,7.2c0,3.1,0.5,5.5,1.6,7.2
			C188,321.2,189.7,322,191.9,322z"/>
		<path class="st1" d="M246.9,297.8l-8.4,29.2h-5.1c-0.6,0-1-0.4-1.2-1.3l-4.7-16.9c-0.2-0.6-0.3-1.1-0.4-1.7
			c-0.1-0.6-0.2-1.1-0.3-1.7c-0.1,0.6-0.2,1.1-0.3,1.7c-0.1,0.6-0.3,1.2-0.4,1.7l-4.8,16.8c-0.2,0.8-0.7,1.3-1.4,1.3h-4.9l-8.3-29.2
			h5.1c0.5,0,0.9,0.1,1.2,0.4c0.3,0.2,0.5,0.6,0.6,0.9l3.8,15.6c0.2,0.9,0.4,1.7,0.5,2.5c0.1,0.8,0.3,1.6,0.4,2.5
			c0.2-0.8,0.4-1.6,0.6-2.5c0.2-0.8,0.4-1.7,0.7-2.5l4.4-15.7c0.1-0.4,0.3-0.7,0.6-0.9c0.3-0.2,0.7-0.4,1.1-0.4h2.8
			c0.4,0,0.8,0.1,1.1,0.4c0.3,0.2,0.5,0.6,0.6,0.9l4.2,15.7c0.2,0.9,0.4,1.7,0.6,2.5c0.2,0.8,0.4,1.6,0.6,2.5c0.2-1.6,0.5-3.3,0.9-5
			l3.9-15.6c0.1-0.4,0.3-0.7,0.6-0.9s0.7-0.4,1.1-0.4H246.9z"/>
		<path class="st1" d="M259.2,327.5c-2.3,0-4-0.7-5.3-2.2c-1.2-1.4-1.8-3.4-1.8-5.9v-16.3h-2.7c-0.3,0-0.6-0.1-0.9-0.4
			c-0.2-0.2-0.4-0.6-0.4-1.1v-2.8l4.2-0.8l1.3-8c0.1-0.4,0.2-0.7,0.5-0.9c0.2-0.2,0.5-0.3,0.9-0.3h3.3v9.2h7v5h-7v15.8
			c0,0.9,0.2,1.6,0.6,2.1c0.4,0.5,1,0.8,1.7,0.8c0.4,0,0.7-0.1,1-0.2c0.3-0.1,0.5-0.2,0.7-0.3s0.4-0.2,0.5-0.3
			c0.2-0.1,0.3-0.2,0.5-0.2c0.2,0,0.3,0.1,0.5,0.2c0.1,0.1,0.2,0.3,0.4,0.5l1.9,3.4c-0.9,0.9-2,1.5-3.2,1.9
			C261.7,327.3,260.5,327.5,259.2,327.5z"/>
		<path class="st1" d="M275.9,300.9c1-1.1,2.2-1.9,3.4-2.6s2.7-1,4.3-1c1.4,0,2.7,0.3,3.8,0.8c1.1,0.5,2,1.3,2.8,2.3
			c0.7,1,1.3,2.1,1.7,3.5c0.4,1.4,0.6,2.9,0.6,4.5V327h-6.3v-18.6c0-1.8-0.4-3.2-1.1-4.1s-1.9-1.5-3.4-1.5c-1.1,0-2.1,0.3-3.1,0.8
			s-1.9,1.3-2.7,2.3V327h-6.3v-42.4h6.3V300.9z"/>
	</g>
	<g>
		<g>
			<g>
				<rect x="64.9" y="41.2" class="st1" width="29.8" height="169.8"/>
				<g>
					<polygon class="st1" points="150.7,110.5 150.7,69.5 221.9,69.5 236.9,41.2 120.9,41.2 120.9,138.7 135.9,110.5 					"/>
					<polygon class="st1" points="150.7,138.7 150.7,138.7 150.7,138.7 120.9,138.7 120.9,211 218.6,211 233.6,182.8 150.7,182.8 
											"/>
				</g>
				<polygon class="st2" points="174,110.5 159,138.7 197.1,138.7 212.2,110.5 				"/>
				<path class="st1" d="M233.6,182.8c20.1,17.3,36.8,29.8,68.8,30.7l0,0h0.1c17.8,0,32.9-4.7,43.6-13.5
					c10.7-8.7,16.9-21.4,16.9-37.4c0,0,0,0,0-0.1v-0.1c0-14.1-4.7-24.4-13.8-32.2l0,0c-9.1-7.8-22.7-13.2-40.6-17.6h-0.2
					c-16.3-3.9-26.3-7.3-32.4-11.4c-5.9-4-7.9-9-7.9-15.5c0-11.4,10.2-20.4,27.7-20.4c14.2,0,30.6,2.5,49.3,18.2L358,60.1l0,0
					c-17.2-13.8-36.8-21.3-61.5-21.3l0,0h-0.1c-16.9,0-31.4,5-41.6,13.6c-10.3,8.7-16.3,21-16.3,35.8l0,0l0,0c0,0.1,0,0.1,0,0.2
					c0,15.6,5.1,26.2,14.7,33.8c9.6,7.7,23.7,12.6,41.8,16.9c15.8,3.6,25.4,7.1,31,11.2c5.6,4,7.3,8.9,7.3,15c0,6.5-2.9,12-8.1,15.7
					s-12.6,5.8-21.6,5.9l0,0h-0.3l0,0l0,0c-24.4-1.7-37.4-10.2-56.5-27.7L233.6,182.8z"/>
			</g>
		</g>
		<g>
			<path class="st1" d="M370.2,190.1c5.7,0,10.4,4.6,10.4,10.5c0,5.7-4.6,10.4-10.4,10.4s-10.4-4.7-10.4-10.4
				C359.8,194.7,364.5,190.1,370.2,190.1z M370.2,209.3c4.8,0,8.7-3.9,8.7-8.7c0-4.9-3.9-8.7-8.7-8.7c-4.7,0-8.7,3.8-8.7,8.7
				C361.6,205.4,365.5,209.3,370.2,209.3z M368.4,205.7h-2.2v-10.1h4.7c0.6,0,3.9,0,3.9,3c0,1.9-1.4,2.5-1.9,2.7l1.9,4.4h-2.3
				l-1.7-4h-2.5v4H368.4z M368.4,199.9h2.2c0.7,0,1.9-0.2,1.9-1.4c0-0.6-0.4-1.3-1.7-1.3h-2.4V199.9z"/>
		</g>
	</g>
</g>
</svg>
