<svg xmlns="http://www.w3.org/2000/svg" width="256" height="256" viewBox="0 0 256 256" version="1.1"><path d="M 145.793 88.499 C 145.954 98.674, 145.696 107, 145.221 107 C 144.745 107, 142.218 106.272, 139.605 105.381 C 136.161 104.208, 132.467 103.877, 126.177 104.180 C 115.541 104.691, 108.667 107.956, 102.915 115.230 C 97.504 122.071, 95.492 128.689, 95.537 139.500 C 95.582 150.215, 97.800 156.155, 104.199 162.692 C 111.711 170.366, 121.623 172.944, 143.750 172.980 L 156 173 156 121.500 L 156 70 150.750 69.999 L 145.500 69.998 145.793 88.499 M 165.707 79.016 C 162.292 81.702, 162.126 85.831, 165.314 88.826 C 168.146 91.485, 171.044 91.595, 174.056 89.156 C 176.684 87.028, 177.159 81.713, 174.917 79.518 C 172.274 76.931, 168.611 76.732, 165.707 79.016 M 53.353 106.971 C 50.522 108.594, 47.259 111.126, 46.103 112.596 L 44 115.270 44 110.135 L 44 105 39 105 L 34 105 34 139 L 34 173 39 173 L 44 173 44 148.474 L 44 123.947 48.345 119.602 C 53.518 114.429, 58.422 112.594, 65.305 113.255 C 69.516 113.660, 70.925 114.342, 73.615 117.277 C 75.396 119.221, 77.334 122.541, 77.921 124.656 C 78.530 126.849, 78.991 138.080, 78.994 150.802 L 79 173.105 84.073 172.802 L 89.146 172.500 89.041 148.383 C 88.984 135.119, 88.557 122.942, 88.093 121.325 C 84.852 110.024, 76.914 103.993, 65.300 104.009 C 59.608 104.017, 57.661 104.500, 53.353 106.971 M 200.324 105.638 C 190.722 109.040, 182.655 119.936, 181.055 131.662 C 179.295 144.562, 182.923 156.969, 190.742 164.792 C 197.338 171.392, 202.661 173.365, 214 173.410 C 224.047 173.451, 228.735 172.360, 235.750 168.347 C 239.941 165.949, 240 165.840, 240 160.407 L 240 154.898 236.559 157.523 C 231.215 161.599, 223.504 164.105, 216.091 164.174 C 202.321 164.304, 193.734 156.994, 191.512 143.250 L 190.824 139 216.055 139 L 241.285 139 240.641 132.836 C 239.418 121.135, 233.022 111.183, 223.759 106.567 C 219.616 104.503, 217.227 104.015, 211.554 104.079 C 207.674 104.122, 202.621 104.824, 200.324 105.638 M 15 139 L 15 173 20 173 L 25 173 25 139 L 25 105 20 105 L 15 105 15 139 M 164.237 138.750 L 164.500 172.500 169.750 172.802 L 175 173.105 175 139.052 L 175 105 169.487 105 L 163.973 105 164.237 138.750 M 121.239 114.274 C 112.484 117.612, 107.062 125.353, 106.232 135.701 C 105.326 146.990, 109.599 155.646, 118.347 160.239 C 121.750 162.025, 124.621 162.490, 134.250 162.815 L 146 163.211 146 140.291 L 146 117.370 142.250 115.547 C 137.589 113.282, 125.728 112.563, 121.239 114.274 M 203.500 114.665 C 201.850 115.537, 199.649 116.981, 198.608 117.875 C 196.641 119.565, 192.027 128.568, 192.010 130.750 C 192.002 131.706, 196.461 132, 211 132 C 226.289 132, 230 131.736, 230 130.649 C 230 128.341, 227.784 122.630, 225.763 119.727 C 221.536 113.659, 210.257 111.095, 203.500 114.665" stroke="none" fill="#f5f5f5" fill-rule="evenodd"/><path d="M -0 128.004 L -0 256.008 128.250 255.754 L 256.500 255.500 256.754 127.750 L 257.008 0 128.504 0 L 0 0 -0 128.004 M 0.485 128.500 C 0.485 198.900, 0.604 227.553, 0.750 192.172 C 0.896 156.792, 0.896 99.192, 0.750 64.172 C 0.604 29.153, 0.485 58.100, 0.485 128.500 M 145.793 88.499 C 145.954 98.674, 145.696 107, 145.221 107 C 144.745 107, 142.218 106.272, 139.605 105.381 C 136.161 104.208, 132.467 103.877, 126.177 104.180 C 115.541 104.691, 108.667 107.956, 102.915 115.230 C 97.504 122.071, 95.492 128.689, 95.537 139.500 C 95.582 150.215, 97.800 156.155, 104.199 162.692 C 111.711 170.366, 121.623 172.944, 143.750 172.980 L 156 173 156 121.500 L 156 70 150.750 69.999 L 145.500 69.998 145.793 88.499 M 165.707 79.016 C 162.292 81.702, 162.126 85.831, 165.314 88.826 C 168.146 91.485, 171.044 91.595, 174.056 89.156 C 176.684 87.028, 177.159 81.713, 174.917 79.518 C 172.274 76.931, 168.611 76.732, 165.707 79.016 M 53.353 106.971 C 50.522 108.594, 47.259 111.126, 46.103 112.596 L 44 115.270 44 110.135 L 44 105 39 105 L 34 105 34 139 L 34 173 39 173 L 44 173 44 148.474 L 44 123.947 48.345 119.602 C 53.518 114.429, 58.422 112.594, 65.305 113.255 C 69.516 113.660, 70.925 114.342, 73.615 117.277 C 75.396 119.221, 77.334 122.541, 77.921 124.656 C 78.530 126.849, 78.991 138.080, 78.994 150.802 L 79 173.105 84.073 172.802 L 89.146 172.500 89.041 148.383 C 88.984 135.119, 88.557 122.942, 88.093 121.325 C 84.852 110.024, 76.914 103.993, 65.300 104.009 C 59.608 104.017, 57.661 104.500, 53.353 106.971 M 200.324 105.638 C 190.722 109.040, 182.655 119.936, 181.055 131.662 C 179.295 144.562, 182.923 156.969, 190.742 164.792 C 197.338 171.392, 202.661 173.365, 214 173.410 C 224.047 173.451, 228.735 172.360, 235.750 168.347 C 239.941 165.949, 240 165.840, 240 160.407 L 240 154.898 236.559 157.523 C 231.215 161.599, 223.504 164.105, 216.091 164.174 C 202.321 164.304, 193.734 156.994, 191.512 143.250 L 190.824 139 216.055 139 L 241.285 139 240.641 132.836 C 239.418 121.135, 233.022 111.183, 223.759 106.567 C 219.616 104.503, 217.227 104.015, 211.554 104.079 C 207.674 104.122, 202.621 104.824, 200.324 105.638 M 15 139 L 15 173 20 173 L 25 173 25 139 L 25 105 20 105 L 15 105 15 139 M 164.237 138.750 L 164.500 172.500 169.750 172.802 L 175 173.105 175 139.052 L 175 105 169.487 105 L 163.973 105 164.237 138.750 M 121.239 114.274 C 112.484 117.612, 107.062 125.353, 106.232 135.701 C 105.326 146.990, 109.599 155.646, 118.347 160.239 C 121.750 162.025, 124.621 162.490, 134.250 162.815 L 146 163.211 146 140.291 L 146 117.370 142.250 115.547 C 137.589 113.282, 125.728 112.563, 121.239 114.274 M 203.500 114.665 C 201.850 115.537, 199.649 116.981, 198.608 117.875 C 196.641 119.565, 192.027 128.568, 192.010 130.750 C 192.002 131.706, 196.461 132, 211 132 C 226.289 132, 230 131.736, 230 130.649 C 230 128.341, 227.784 122.630, 225.763 119.727 C 221.536 113.659, 210.257 111.095, 203.500 114.665" stroke="none" fill="#040404" fill-rule="evenodd"/></svg>