<svg viewBox="0 0 610.38 184.2" xmlns="http://www.w3.org/2000/svg"> <g> <path class="innoviz-wordmark" d="M0,22.45H19.67v91.06H0Z"></path> <path class="innoviz-wordmark" d="M38.33,22.45H65.2l39.5,63.28H105V22.45h18.89v91.06H98L57.47,48.68h-.25v64.83H38.33Z"></path> <path class="innoviz-wordmark" d="M143.93,22.45h26.88l39.5,63.28h.25V22.45h18.89v91.06H203.61L163.08,48.68h-.26v64.83H143.93Z"></path> <path class="innoviz-wordmark" d="M365,22.45h22.11l23.29,60.46h.26l23.68-60.46h20.69l-37.55,91.06H401.44Z"></path> <path class="innoviz-wordmark" d="M467.46,22.45h19.68v91.06H467.46Z"></path> <path class="innoviz-wordmark" d="M503,95,550,39.8H504.66V22.45h68.81V40.2L527.41,95.38H575v18.13H503Z"></path> <path class="innoviz-mark" d="M293.42,0V67.46l58.66,33.87A67.64,67.64,0,0,0,293.42,0Z"></path> <path class="innoviz-wordmark" d="M293.42,35.92a32.27,32.27,0,1,1-32.26,32.27,32.3,32.3,0,0,1,32.26-32.27m0-17.91A50.18,50.18,0,1,0,343.6,68.19,50.18,50.18,0,0,0,293.42,18Z"></path> <path class="innoviz-wordmark" d="M283.15,63.64a5.54,5.54,0,0,0,3.56-9.78,15.83,15.83,0,1,1-9.11,14.33A15.62,15.62,0,0,1,279,61.73,5.51,5.51,0,0,0,283.15,63.64Z"></path> <path class="innoviz-wordmark" d="M13.19,149.38H.4v-2.52H28.71v2.52H15.92v34.19H13.19Z"></path> <path class="innoviz-wordmark" d="M50.37,146.86H76.48v2.52H53.1V163.8h21v2.52h-21v14.73H76.75v2.52H50.37Z"></path> <path class="innoviz-wordmark" d="M97.25,165.32v-.11c0-10.38,7.76-19,18.36-19,6.55,0,10.48,2.42,14.26,5.88l-1.94,2c-3.2-3.09-6.87-5.4-12.38-5.4-8.8,0-15.46,7.18-15.46,16.41v.1c0,9.29,6.76,16.52,15.52,16.52,5.29,0,8.91-2,12.63-5.71l1.84,1.78c-3.88,3.83-8.08,6.4-14.58,6.4C105,184.2,97.25,175.86,97.25,165.32Z"></path> <path class="innoviz-wordmark" d="M151,146.86h2.73v17h23.49v-17h2.73v36.71h-2.73v-17.2H153.68v17.2H151Z"></path> <path class="innoviz-wordmark" d="M204.18,146.86h2.57l25.32,31.93V146.86h2.62v36.71h-2L206.8,151v32.62h-2.62Z"></path> <path class="innoviz-wordmark" d="M257.35,165.32v-.11c0-10,7.4-19,18.51-19s18.4,8.87,18.4,18.88c.06,0,.06,0,0,.1,0,10-7.39,19-18.5,19S257.35,175.33,257.35,165.32Zm34.08,0v-.11c0-9.07-6.6-16.51-15.67-16.51s-15.58,7.34-15.58,16.41v.1c0,9.08,6.61,16.52,15.68,16.52S291.43,174.39,291.43,165.32Z"></path> <path class="innoviz-wordmark" d="M316.92,146.86h2.73v34.19H341.2v2.52H316.92Z"></path> <path class="innoviz-wordmark" d="M359,165.32v-.11c0-10,7.4-19,18.51-19S396,155.1,396,165.11c.05,0,.05,0,0,.1,0,10-7.4,19-18.51,19S359,175.33,359,165.32Zm34.08,0v-.11c0-9.07-6.6-16.51-15.67-16.51s-15.58,7.34-15.58,16.41v.1c0,9.08,6.61,16.52,15.68,16.52S393.11,174.39,393.11,165.32Z"></path> <path class="innoviz-wordmark" d="M417,165.32v-.11c0-9.91,7.18-19,18.14-19a19.24,19.24,0,0,1,13.42,4.83l-1.78,2a16.55,16.55,0,0,0-11.8-4.4c-8.91,0-15.15,7.55-15.15,16.41v.1c0,9.49,5.93,16.57,15.73,16.57a18.85,18.85,0,0,0,11.69-4.19V167.05H435v-2.52h14.89v14.16a22,22,0,0,1-14.42,5.51C423.85,184.2,417,175.65,417,165.32Z"></path> <path class="innoviz-wordmark" d="M473.46,146.86h2.72v36.71h-2.72Z"></path> <path class="innoviz-wordmark" d="M500.83,146.86h26.11v2.52H503.56V163.8h21v2.52h-21v14.73H527.2v2.52H500.83Z"></path> <path class="innoviz-wordmark" d="M547,178.22l1.78-2.05c4,3.73,7.76,5.46,13.16,5.46s9.28-3.1,9.28-7.29v-.11c0-3.88-2.05-6.13-10.38-7.81-8.81-1.78-12.38-4.77-12.38-10.33V156c0-5.46,5-9.65,11.8-9.65a18.32,18.32,0,0,1,12.59,4.46L571.1,153a15.82,15.82,0,0,0-11-4.15c-5.4,0-9,3.1-9,6.92v.11c0,3.88,2,6.24,10.7,8,8.49,1.73,12.06,4.77,12.06,10.12v.11c0,5.92-5.09,10-12.17,10C555.89,184.09,551.38,182.15,547,178.22Z"></path> <path class="innoviz-wordmark" d="M585.61,8.14h-5.23V6.52H592.6V8.14h-5.23v14h-1.76Z"></path> <path class="innoviz-wordmark" d="M595.47,6.52h1.78l5.67,8.5,5.68-8.5h1.78V22.1h-1.76V9.48l-5.68,8.34h-.09L597.18,9.5V22.1h-1.71Z"></path> </g> </svg>