<svg xmlns="http://www.w3.org/2000/svg" width="447" height="447" viewBox="0 0 447 447" version="1.1"><path d="M 30.538 207.348 C 29.524 208.090, 29.015 209.215, 29.406 209.848 C 30.501 211.620, 32.123 211.213, 31.794 209.250 C 31.362 206.677, 35.108 206.520, 37.769 209 C 39.909 210.993, 40 211, 40 209.164 C 40 207.820, 39.069 207.064, 36.875 206.625 C 32.709 205.792, 32.659 205.797, 30.538 207.348 M 351.558 206.907 C 351.249 207.405, 351.900 207.577, 353.004 207.289 C 355.464 206.645, 358.079 208.630, 357.334 210.573 C 356.610 212.458, 353.093 212.406, 352.362 210.500 C 352.045 209.675, 351.368 209, 350.858 209 C 350.334 209, 350.396 209.872, 351 211 C 352.322 213.471, 356.542 213.640, 357.866 211.276 C 359.236 208.827, 357.446 206, 354.524 206 C 353.201 206, 351.866 206.408, 351.558 206.907 M 59 223.500 L 59 240.115 63.250 239.807 L 67.500 239.500 67.500 223.500 L 67.500 207.500 63.250 207.193 L 59 206.885 59 223.500 M 87.750 207.706 C 88.987 207.944, 91.013 207.944, 92.250 207.706 C 93.487 207.467, 92.475 207.272, 90 207.272 C 87.525 207.272, 86.513 207.467, 87.750 207.706 M 109.384 208.442 C 108.035 211.957, 109.403 213.496, 114.009 213.643 L 118.500 213.786 114.500 213.143 C 112.217 212.776, 110.543 211.963, 110.600 211.250 C 110.655 210.563, 110.767 209.526, 110.850 208.946 C 110.949 208.249, 115.579 207.995, 124.502 208.196 C 131.928 208.363, 138.003 208.162, 138.002 207.750 C 138.001 207.338, 131.686 207, 123.969 207 C 112.671 207, 109.829 207.281, 109.384 208.442 M 163.761 208.017 C 169.052 208.789, 174 211.208, 174 213.023 C 174 213.560, 174.520 214, 175.155 214 C 177.080 214, 172.725 209.819, 169.282 208.362 C 167.512 207.613, 164.362 207.056, 162.282 207.125 C 158.919 207.236, 159.083 207.335, 163.761 208.017 M 60.667 208.667 C 60.300 209.033, 60 216.008, 60 224.167 L 60 239 63.500 239 L 67 239 67 223.500 L 67 208 64.167 208 C 62.608 208, 61.033 208.300, 60.667 208.667 M 77.901 212.106 C 76.306 213.814, 75 215.714, 75 216.328 C 75 216.942, 75.774 216.332, 76.719 214.973 C 77.665 213.613, 79.352 211.727, 80.469 210.783 C 81.586 209.839, 82.118 209.052, 81.651 209.033 C 81.184 209.015, 79.497 210.398, 77.901 212.106 M 100.500 211.781 C 102.150 213.460, 103.677 214.657, 103.893 214.441 C 104.508 213.826, 101.881 211.003, 99.582 209.810 C 98.094 209.038, 98.356 209.600, 100.500 211.781 M 136.663 211.436 C 136.360 212.226, 134.399 213.051, 132.306 213.268 C 128.750 213.638, 128.812 213.675, 133.250 213.832 C 137.389 213.978, 138 213.743, 138 212 C 138 209.652, 137.438 209.415, 136.663 211.436 M 333 212.667 C 333 215.674, 333.852 215.367, 334.474 212.135 C 334.700 210.961, 334.461 210, 333.943 210 C 333.424 210, 333 211.200, 333 212.667 M 339.534 212.250 C 340.304 214.843, 342.898 217.181, 344.147 216.409 C 344.616 216.119, 345 216.884, 345 218.108 C 345 219.332, 344.716 220.049, 344.369 219.702 C 344.021 219.355, 342.896 219.520, 341.869 220.070 C 340.375 220.870, 340.003 222.218, 340.015 226.785 C 340.033 233.246, 340.559 234.438, 343.750 235.244 C 346.778 236.009, 346.612 235.183, 343.500 234 C 341.215 233.131, 341 232.531, 341 227.025 C 341 221.265, 341.110 221, 343.500 221 C 345.611 221, 346 220.533, 346 218 C 346 215.467, 345.611 215, 343.500 215 C 341.500 215, 341 214.500, 341 212.500 C 341 211.125, 340.520 210, 339.933 210 C 339.294 210, 339.134 210.905, 339.534 212.250 M 83.923 215.923 C 81.526 218.320, 81.024 219.625, 81.134 223.173 L 81.267 227.500 81.931 222.738 C 82.724 217.047, 84.571 214.958, 89.682 213.969 L 93.500 213.230 90.173 213.115 C 87.734 213.031, 86.066 213.780, 83.923 215.923 M 95.703 216.469 C 96.691 217.826, 97.916 218.951, 98.424 218.969 C 98.933 218.986, 98.292 217.875, 97 216.500 C 94.002 213.309, 93.393 213.294, 95.703 216.469 M 119.453 226.748 L 119.500 239.500 123.757 239.598 L 128.015 239.696 124.037 239.292 L 120.059 238.888 119.733 226.442 L 119.407 213.997 119.453 226.748 M 31.378 226 C 31.378 232.325, 31.541 234.912, 31.739 231.750 C 31.937 228.588, 31.937 223.412, 31.739 220.250 C 31.541 217.088, 31.378 219.675, 31.378 226 M 187.449 216.551 C 185.770 217.380, 183.633 219.351, 182.699 220.933 C 180.575 224.528, 180.502 230.996, 182.555 233.559 C 184.057 235.434, 184.074 235.426, 183.055 233.316 C 181.112 229.293, 181.790 223.639, 184.627 220.214 C 187.781 216.407, 192.556 215.251, 198.174 216.934 C 201.406 217.902, 202.512 218.914, 204.055 222.313 C 205.101 224.616, 205.966 225.915, 205.978 225.200 C 206.027 222.287, 202.669 217.760, 199.466 216.421 C 195.127 214.608, 191.302 214.650, 187.449 216.551 M 210.433 216.314 C 210.156 217.037, 210.057 222.550, 210.214 228.564 L 210.500 239.500 214.250 239.810 C 217.617 240.089, 217.988 239.885, 217.884 237.810 C 217.799 236.116, 217.646 235.967, 217.311 237.250 C 217.007 238.414, 215.873 239, 213.927 239 L 211 239 211 227.391 L 211 215.781 214.500 216.190 C 216.425 216.415, 218 216.239, 218 215.799 C 218 214.434, 210.971 214.913, 210.433 216.314 M 220.558 215.907 C 220.249 216.405, 220.944 216.566, 222.101 216.263 C 223.334 215.941, 224.570 216.290, 225.087 217.107 C 225.792 218.220, 225.972 218.149, 225.985 216.750 C 226.001 214.880, 221.614 214.198, 220.558 215.907 M 229.441 216.294 C 229.168 217.006, 229.069 224.318, 229.222 232.544 L 229.500 247.500 233.250 247.810 C 235.313 247.981, 237 247.734, 237 247.261 C 237 246.788, 235.413 246.587, 233.473 246.813 L 229.947 247.225 230.223 231.863 L 230.500 216.500 233.750 216.510 C 235.537 216.515, 237 216.177, 237 215.760 C 237 214.438, 229.962 214.935, 229.441 216.294 M 239.441 216.555 C 237.599 218.031, 237.621 218.051, 239.887 216.947 C 241.200 216.307, 243.900 216.044, 245.887 216.363 C 248.385 216.764, 249.037 216.648, 248 215.987 C 245.729 214.539, 241.616 214.812, 239.441 216.555 M 271.500 216.066 C 278.109 217.164, 282 221.246, 282 227.082 C 282 229.309, 281.525 232.114, 280.945 233.316 C 279.926 235.426, 279.943 235.434, 281.445 233.559 C 283.501 230.992, 283.424 224.526, 281.294 220.920 C 279.224 217.417, 274.376 214.959, 269.849 215.118 C 267.106 215.214, 267.405 215.386, 271.500 216.066 M 287 227.500 L 287 240 291 240 L 295 240 295 232.057 C 295 224.982, 295.243 223.943, 297.223 222.557 C 298.445 221.701, 298.965 221, 298.377 221 C 295.513 221, 294 224.744, 294 231.829 L 294 239 290.967 239 L 287.934 239 288.217 227.750 L 288.500 216.500 291.657 216.504 C 293.393 216.506, 294.604 216.169, 294.348 215.754 C 294.092 215.339, 292.334 215, 290.441 215 L 287 215 287 227.500 M 299.857 216.071 C 301.743 216.826, 302.088 217.512, 301.588 219.507 C 301.227 220.943, 301.394 222, 301.981 222 C 302.541 222, 303 220.425, 303 218.500 C 303 215.333, 302.738 215.006, 300.250 215.063 C 297.519 215.126, 297.516 215.133, 299.857 216.071 M 314 215.549 C 314.825 215.724, 317.189 216.143, 319.254 216.479 C 321.319 216.816, 323.962 218.084, 325.127 219.296 C 327.235 221.487, 327.241 221.488, 326.145 219.355 C 324.870 216.876, 320.076 214.949, 315.601 215.116 C 313.895 215.180, 313.175 215.375, 314 215.549 M 330 218 C 330 220, 330.500 221, 331.500 221 C 332.686 221, 333 222.420, 333 227.777 C 333 234.376, 334.687 239, 337.096 239 C 337.636 239, 337.160 238.015, 336.039 236.811 C 334.408 235.061, 334 233.283, 334 227.934 C 334 223.076, 333.570 220.888, 332.430 219.942 C 331.567 219.226, 331.075 217.821, 331.337 216.820 C 331.599 215.819, 331.405 215, 330.906 215 C 330.408 215, 330 216.350, 330 218 M 351 227.500 L 351 240 354.750 239.840 C 358.487 239.680, 358.489 239.679, 355.218 239.274 L 351.936 238.868 352.218 227.684 L 352.500 216.500 355.250 216.539 C 356.762 216.561, 358 216.224, 358 215.789 C 358 215.355, 356.425 215, 354.500 215 L 351 215 351 227.500 M 370.115 215.908 C 369.268 216.444, 370.629 216.581, 373.615 216.259 C 376.302 215.970, 378.688 215.569, 378.917 215.367 C 379.822 214.570, 371.412 215.086, 370.115 215.908 M 392 215.799 C 392 216.238, 393.755 216.576, 395.900 216.549 C 398.045 216.522, 399.594 216.162, 399.341 215.750 C 398.724 214.742, 392 214.787, 392 215.799 M 402.115 215.908 C 401.260 216.449, 402.448 216.591, 405.220 216.279 C 409.793 215.763, 410.286 216.015, 413.502 220.500 C 414.334 221.661, 414.950 221.956, 414.968 221.205 C 414.986 220.492, 413.895 218.805, 412.545 217.455 C 410.014 214.923, 404.874 214.161, 402.115 215.908 M 147.607 217.582 C 146.880 219.477, 146.785 229.549, 147.501 228.832 C 147.969 228.364, 148.848 216, 148.414 216 C 148.304 216, 147.941 216.712, 147.607 217.582 M 261.278 218.250 C 259.779 220.188, 258.836 222, 259.326 222 C 259.570 222, 260.507 220.875, 261.408 219.500 C 263.094 216.927, 263 216.024, 261.278 218.250 M 306.557 219.223 C 305.701 220.445, 305 221.795, 305 222.223 C 305 223.372, 312.778 223.168, 313.500 222 C 313.840 221.450, 315.104 220.948, 316.309 220.884 C 318.156 220.786, 318.208 220.693, 316.644 220.290 C 315.623 220.027, 314.295 220.305, 313.694 220.906 C 312.304 222.296, 308.321 222.328, 307.473 220.956 C 307.118 220.382, 307.372 219.257, 308.036 218.456 C 308.701 217.655, 308.990 217, 308.679 217 C 308.368 217, 307.413 218, 306.557 219.223 M 224.211 220.538 C 223.145 221.746, 223.189 222, 224.461 222 C 225.307 222, 226 221.325, 226 220.500 C 226 218.676, 225.850 218.680, 224.211 220.538 M 153.645 222.278 C 153.085 224.511, 154.213 229, 155.334 229 C 155.619 229, 155.023 222.147, 154.597 220.508 C 154.455 219.962, 154.026 220.759, 153.645 222.278 M 193.500 220.724 C 194.600 220.994, 196.175 221.729, 197 222.358 C 198.305 223.351, 198.321 223.272, 197.128 221.750 C 196.373 220.787, 194.798 220.052, 193.628 220.116 C 191.607 220.226, 191.600 220.257, 193.500 220.724 M 266.872 221.750 C 265.679 223.272, 265.695 223.351, 267 222.358 C 267.825 221.729, 269.400 220.994, 270.500 220.724 C 272.400 220.257, 272.393 220.226, 270.372 220.116 C 269.202 220.052, 267.627 220.787, 266.872 221.750 M 371.035 221.934 C 369.458 224.881, 369.801 225.729, 371.557 223.223 C 372.413 222, 373.962 221, 375 221 C 376.038 221, 377.587 222, 378.443 223.223 C 379.299 224.445, 380 224.965, 380 224.377 C 380 222.638, 376.508 220, 374.206 220 C 373.032 220, 371.605 220.870, 371.035 221.934 M 400.200 222.200 C 399.469 222.931, 399 226.491, 399 231.309 L 399 239.219 395.500 238.810 C 393.575 238.585, 392 238.788, 392 239.261 C 392 239.734, 393.688 239.981, 395.750 239.810 L 399.500 239.500 399.796 231.547 C 399.958 227.173, 400.576 223.011, 401.168 222.297 C 402.522 220.666, 401.806 220.594, 400.200 222.200 M 327.201 230.190 L 327 238.879 323.250 239.272 L 319.500 239.664 323.281 239.832 C 325.647 239.937, 327.255 239.499, 327.576 238.662 C 327.859 237.925, 327.935 233.763, 327.746 229.412 L 327.402 221.500 327.201 230.190 M 265.168 227.628 C 265.050 230.517, 265.525 232.167, 266.750 233.128 C 268.277 234.325, 268.350 234.307, 267.325 232.987 C 266.678 232.155, 265.966 229.680, 265.743 227.487 L 265.336 223.500 265.168 227.628 M 187.700 226.341 C 187.417 227.078, 187.587 228.316, 188.077 229.091 C 188.727 230.116, 188.974 229.751, 188.985 227.750 C 189.001 224.764, 188.511 224.226, 187.700 226.341 M 275.015 227.750 C 275.026 229.751, 275.273 230.116, 275.923 229.091 C 276.413 228.316, 276.583 227.078, 276.300 226.341 C 275.489 224.226, 274.999 224.764, 275.015 227.750 M 362.195 227.500 C 362.215 229.150, 362.439 229.704, 362.693 228.731 C 362.947 227.758, 362.930 226.408, 362.656 225.731 C 362.382 225.054, 362.175 225.850, 362.195 227.500 M 387.195 227.500 C 387.215 229.150, 387.439 229.704, 387.693 228.731 C 387.947 227.758, 387.930 226.408, 387.656 225.731 C 387.382 225.054, 387.175 225.850, 387.195 227.500 M 198.195 228.500 C 198.215 230.150, 198.439 230.704, 198.693 229.731 C 198.947 228.758, 198.930 227.408, 198.656 226.731 C 198.382 226.054, 198.175 226.850, 198.195 228.500 M 82 228.678 C 82 229.235, 83.013 230.547, 84.250 231.595 L 86.500 233.500 84.511 231 C 83.417 229.625, 82.404 228.313, 82.261 228.083 C 82.117 227.854, 82 228.122, 82 228.678 M 95.749 230.471 C 94.576 232.085, 92.760 233.009, 90.249 233.272 L 86.500 233.664 90.076 233.832 C 92.735 233.957, 94.253 233.359, 96 231.500 C 98.522 228.816, 101.859 228.259, 103.800 230.200 C 104.733 231.133, 105 231.022, 105 229.700 C 105 226.867, 97.942 227.455, 95.749 230.471 M 378.681 231.273 L 376.861 234.500 379.049 232.354 C 380.252 231.174, 381.070 229.722, 380.868 229.127 C 380.666 228.532, 379.681 229.498, 378.681 231.273 M 408.195 230.500 C 408.215 232.150, 408.439 232.704, 408.693 231.731 C 408.947 230.758, 408.930 229.408, 408.656 228.731 C 408.382 228.054, 408.175 228.850, 408.195 230.500 M 312.011 230.487 C 311.332 231.305, 311.037 232.655, 311.357 233.487 C 312.286 235.910, 320 235.201, 320 232.693 C 320 231.962, 319.603 231.997, 318.800 232.800 C 318.140 233.460, 316.307 234, 314.727 234 C 310.782 234, 311.400 230.756, 315.512 229.876 C 318.401 229.258, 318.413 229.233, 315.872 229.118 C 314.427 229.053, 312.689 229.669, 312.011 230.487 M 370.038 230 C 370.052 230.825, 370.724 232.374, 371.532 233.441 C 373.420 235.937, 373.408 235.011, 371.506 231.364 C 370.685 229.789, 370.024 229.175, 370.038 230 M 75.005 230.556 C 75.010 231.569, 79.904 237.874, 79.964 236.944 C 79.984 236.639, 78.875 234.864, 77.500 233 C 76.125 231.136, 75.002 230.036, 75.005 230.556 M 415.195 233.500 C 415.215 235.150, 415.439 235.704, 415.693 234.731 C 415.947 233.758, 415.930 232.408, 415.656 231.731 C 415.382 231.054, 415.175 231.850, 415.195 233.500 M 101.511 234.623 C 100.566 236.066, 100.287 236.941, 100.891 236.567 C 102.045 235.854, 104.374 232, 103.650 232 C 103.419 232, 102.457 233.180, 101.511 234.623 M 163 233 L 159.500 233.737 162.691 233.868 C 164.446 233.941, 166.160 233.550, 166.500 233 C 166.840 232.450, 166.979 232.059, 166.809 232.132 C 166.639 232.204, 164.925 232.595, 163 233 M 363.910 233.832 C 364.450 234.840, 365.676 236.302, 366.637 237.082 C 367.717 237.960, 367.475 237.261, 366.003 235.250 C 363.377 231.662, 362.392 230.995, 363.910 233.832 M 41.242 233.575 C 42.235 234.568, 54 234.886, 54 233.920 C 54 233.414, 51 233, 47.333 233 C 43.667 233, 40.925 233.259, 41.242 233.575 M 173.405 234.387 C 173.052 235.307, 171.579 236.704, 170.131 237.490 C 168.684 238.277, 168.037 238.938, 168.694 238.960 C 170.432 239.018, 175.630 234.300, 174.774 233.442 C 174.374 233.041, 173.758 233.467, 173.405 234.387 M 259.906 234.824 C 260.513 235.959, 261.503 237.193, 262.105 237.565 C 262.889 238.050, 262.886 237.656, 262.094 236.176 C 261.487 235.041, 260.497 233.807, 259.895 233.435 C 259.111 232.950, 259.114 233.344, 259.906 234.824 M 408.150 236.750 C 408.005 239.892, 408.125 239.995, 411.750 239.840 C 415.355 239.686, 415.376 239.664, 412.311 239.281 C 409.748 238.961, 409.041 238.354, 408.711 236.191 C 408.339 233.758, 408.285 233.812, 408.150 236.750 M 151 235.474 C 151 235.735, 152.463 236.662, 154.250 237.535 L 157.500 239.120 155 237.082 C 152.593 235.120, 151 234.480, 151 235.474 M 305 235.846 C 305 238.763, 313.667 241.130, 316.885 239.092 C 317.746 238.547, 316.610 238.396, 313.885 238.694 C 310.367 239.078, 309.055 238.752, 307.250 237.047 C 306.012 235.878, 305 235.338, 305 235.846 M 278.048 236.949 C 277.249 237.455, 276.237 237.646, 275.798 237.375 C 275.359 237.104, 275 237.359, 275 237.941 C 275 239.410, 276.269 239.264, 278.559 237.532 C 280.702 235.911, 280.340 235.499, 278.048 236.949 M 37.250 239.739 C 40.412 239.937, 45.587 239.937, 48.750 239.739 C 51.912 239.541, 49.325 239.378, 43 239.378 C 36.675 239.378, 34.087 239.541, 37.250 239.739 M 87.750 239.706 C 88.987 239.944, 91.013 239.944, 92.250 239.706 C 93.487 239.467, 92.475 239.272, 90 239.272 C 87.525 239.272, 86.513 239.467, 87.750 239.706 M 160.750 239.706 C 161.988 239.944, 164.012 239.944, 165.250 239.706 C 166.488 239.467, 165.475 239.272, 163 239.272 C 160.525 239.272, 159.512 239.467, 160.750 239.706 M 191.762 239.707 C 193.006 239.946, 194.806 239.937, 195.762 239.687 C 196.718 239.437, 195.700 239.241, 193.500 239.252 C 191.300 239.263, 190.518 239.468, 191.762 239.707 M 242.269 239.693 C 243.242 239.947, 244.592 239.930, 245.269 239.656 C 245.946 239.382, 245.150 239.175, 243.500 239.195 C 241.850 239.215, 241.296 239.439, 242.269 239.693 M 268.762 239.707 C 270.006 239.946, 271.806 239.937, 272.762 239.687 C 273.718 239.437, 272.700 239.241, 270.500 239.252 C 268.300 239.263, 267.518 239.468, 268.762 239.707 M 372.750 239.706 C 373.988 239.944, 376.012 239.944, 377.250 239.706 C 378.488 239.467, 377.475 239.272, 375 239.272 C 372.525 239.272, 371.512 239.467, 372.750 239.706" stroke="none" fill="#4476bf" fill-rule="evenodd"/><path d="M 31.772 207.750 C 31.582 208.162, 31.471 209.850, 31.526 211.500 C 31.580 213.150, 31.709 220.012, 31.812 226.750 L 32 239 43 239 C 53.333 239, 54 238.879, 54 237 C 54 235.900, 53.663 234.960, 53.250 234.912 C 52.837 234.863, 50.178 234.690, 47.341 234.527 C 44.503 234.364, 41.690 233.927, 41.091 233.556 C 40.411 233.136, 40 228.773, 40 221.980 C 40 212.053, 39.804 210.896, 37.811 209.039 C 35.631 207.008, 32.429 206.324, 31.772 207.750 M 351.702 207.631 C 350.593 208.740, 353.001 212, 354.928 212 C 357.185 212, 358.265 209.665, 356.722 208.122 C 355.499 206.899, 352.707 206.626, 351.702 207.631 M 60.667 208.667 C 60.300 209.033, 60 216.008, 60 224.167 L 60 239 63.500 239 L 67 239 67 223.500 L 67 208 64.167 208 C 62.608 208, 61.033 208.300, 60.667 208.667 M 83.500 208.943 C 77.593 211.353, 73.166 219.743, 74.383 226.225 C 75.126 230.189, 79.062 235.907, 82.275 237.693 C 85.335 239.393, 94.500 239.310, 97.901 237.551 C 101.086 235.904, 104.382 231.428, 103.483 229.972 C 102.367 228.167, 98.363 228.984, 96 231.500 C 92.949 234.748, 88.075 234.829, 84.427 231.691 C 82.350 229.904, 81.631 228.219, 81.249 224.237 C 80.796 219.522, 81.009 218.837, 83.800 216.046 C 87.828 212.018, 91.796 212.004, 96.347 216 C 99.900 219.119, 102.400 219.780, 103.559 217.905 C 104.574 216.263, 102.334 212.767, 98.649 210.242 C 95.237 207.904, 87.642 207.253, 83.500 208.943 M 110.604 209.590 C 109.705 211.933, 110.760 213, 113.977 213 C 119.949 213, 120 213.116, 120 226.607 L 120 239 124.073 239 L 128.146 239 127.909 227.170 C 127.778 220.664, 127.997 214.814, 128.395 214.170 C 128.793 213.527, 130.651 213, 132.524 213 C 135.803 213, 138.865 210.198, 137.298 208.631 C 136.951 208.284, 130.940 208, 123.940 208 C 113.230 208, 111.117 208.252, 110.604 209.590 M 155.062 209.827 C 150.530 212.258, 148.034 217.130, 148.088 223.443 C 148.147 230.417, 149.533 233.425, 154.070 236.428 C 160.472 240.664, 168.540 239.850, 173.601 234.457 C 176.755 231.096, 177.197 229.197, 174.987 228.496 C 172.769 227.792, 170.263 228.947, 167.584 231.907 C 164.768 235.019, 160.385 234.624, 156.952 230.949 C 155.385 229.271, 153.828 227.033, 153.492 225.976 C 152.539 222.972, 156.466 215.153, 159.511 213.996 C 163.490 212.483, 164.638 212.743, 168.347 216 C 174.485 221.389, 179.212 218.338, 173.750 212.513 C 169.314 207.781, 161.083 206.598, 155.062 209.827 M 334.923 210.250 C 334.881 210.387, 334.685 211.366, 334.486 212.425 C 334.288 213.484, 333.422 214.744, 332.563 215.225 C 330.587 216.330, 330.560 218.390, 332.500 220 C 333.560 220.880, 334 223.208, 334 227.934 C 334 233.283, 334.408 235.061, 336.039 236.811 C 338.390 239.335, 344.460 239.849, 345.324 237.598 C 345.989 235.864, 345.197 235, 342.940 235 C 340.683 235, 340 233.014, 340 226.453 C 340 222.220, 340.399 220.857, 341.869 220.070 C 342.896 219.520, 344.021 219.355, 344.369 219.702 C 344.716 220.049, 345 219.358, 345 218.167 C 345 216.975, 344.663 216.053, 344.250 216.118 C 341.918 216.487, 340.786 215.685, 339.850 213 C 339.182 211.085, 338.117 210, 336.902 210 C 335.856 210, 334.966 210.113, 334.923 210.250 M 189 216.687 C 185.541 217.907, 182 223.217, 182 227.185 C 182 233.273, 184.766 237.669, 188.250 237.118 C 188.662 237.053, 189 237.450, 189 238 C 189 239.942, 198.572 239.124, 201.341 236.946 C 207.518 232.087, 206.334 220.291, 199.377 217.384 C 196.045 215.992, 191.783 215.705, 189 216.687 M 211 227.500 L 211 239 213.883 239 C 217.199 239, 217.528 238.223, 217.907 229.501 C 218.198 222.808, 219.179 221, 222.515 221 C 225.070 221, 226.251 219.024, 224.952 216.923 C 224.259 215.800, 223.496 215.752, 221.049 216.675 C 219.273 217.346, 217.774 217.444, 217.445 216.912 C 217.135 216.410, 215.559 216, 213.941 216 L 211 216 211 227.500 M 230.667 216.667 C 230.300 217.033, 230 224.037, 230 232.230 L 230 247.127 233.250 246.813 C 236.366 246.513, 236.513 246.305, 236.805 241.750 C 237.108 237.031, 237.730 236.161, 239.550 237.916 C 241.273 239.576, 246.454 239.435, 249.149 237.653 C 254.230 234.295, 255.435 225.365, 251.598 219.509 C 249.666 216.560, 243.937 215.252, 240.271 216.922 C 238.476 217.740, 237.378 217.778, 236.648 217.048 C 235.478 215.878, 231.696 215.637, 230.667 216.667 M 264.382 216.928 C 261.511 218.161, 258 224.073, 258 227.674 C 258 230.852, 262.026 237.080, 264.791 238.180 C 267.467 239.244, 275 239.111, 275 238 C 275 237.450, 275.337 237.053, 275.750 237.118 C 279.259 237.672, 282 233.264, 282 227.065 C 282 220.971, 277.934 216.857, 271.441 216.381 C 268.723 216.181, 265.547 216.428, 264.382 216.928 M 288.594 216.739 C 288.267 217.066, 288 222.208, 288 228.167 L 288 239 291 239 L 294 239 294 231.655 C 294 223.890, 295.145 221.639, 299.500 220.840 C 300.706 220.618, 301.500 219.684, 301.500 218.486 C 301.500 216.739, 300.760 216.479, 295.344 216.322 C 291.959 216.225, 288.921 216.412, 288.594 216.739 M 310 217.294 C 308.625 217.990, 307.500 219.215, 307.500 220.016 C 307.500 222.012, 310.749 222.472, 313.697 220.895 C 315.462 219.950, 316.592 219.884, 317.815 220.655 C 321.134 222.749, 319.673 224.466, 313.541 225.676 C 307.278 226.912, 305 228.773, 305 232.652 C 305 237.619, 311.320 240.350, 317.435 238.025 C 319.102 237.391, 320 237.391, 320 238.025 C 320 238.561, 321.575 239, 323.500 239 L 327 239 326.968 230.250 C 326.948 224.661, 326.467 220.882, 325.637 219.789 C 322.892 216.177, 314.770 214.881, 310 217.294 M 352.709 216.624 C 352.319 217.014, 352 222.208, 352 228.167 L 352 239 355.033 239 L 358.066 239 357.783 227.750 C 357.520 217.295, 357.356 216.479, 355.459 216.208 C 354.336 216.047, 353.099 216.235, 352.709 216.624 M 369.500 216.945 C 365.892 218.422, 363.722 221.842, 363.245 226.803 C 362.820 231.229, 363.068 231.930, 366.259 235.313 C 369.284 238.521, 370.332 239, 374.321 239 C 380.326 239, 383.420 237.492, 385.557 233.525 C 389.801 225.643, 384.340 215.935, 375.734 216.063 C 373.405 216.098, 370.600 216.495, 369.500 216.945 M 392.991 217.006 C 392.317 217.422, 392.032 221.491, 392.213 228.082 L 392.500 238.500 395.750 238.813 L 399 239.127 399 231.263 C 399 226.481, 399.470 222.930, 400.200 222.200 C 401.831 220.569, 405.495 220.686, 406.929 222.414 C 407.960 223.656, 408.839 229.860, 408.960 236.750 C 408.992 238.575, 409.567 239, 412 239 L 415 239 415 230.965 C 415 223.237, 413.685 219.007, 410.609 216.840 C 409.408 215.993, 394.400 216.135, 392.991 217.006 M 190.879 221.250 C 190.052 221.938, 188.877 223.679, 188.269 225.119 C 187.365 227.258, 187.511 228.311, 189.066 230.869 C 190.114 232.591, 191.315 234.037, 191.735 234.083 C 192.156 234.129, 193.490 234.277, 194.699 234.412 C 197.565 234.733, 199.463 230.416, 198.478 225.816 C 197.608 221.749, 196.282 220, 194.069 220 C 193.141 220, 191.706 220.563, 190.879 221.250 M 239.039 221.843 C 234.780 225.456, 236.021 232.700, 241.132 234.062 C 244.784 235.036, 246.065 233.935, 246.688 229.288 C 247.607 222.442, 243.288 218.238, 239.039 221.843 M 266.557 222.223 C 264.065 225.780, 264.527 231.644, 267.451 233.560 C 270.680 235.675, 273.291 234.721, 275.163 230.740 C 278.461 223.730, 270.807 216.155, 266.557 222.223 M 371.035 221.934 C 369.635 224.550, 369.781 231.132, 371.282 233.087 C 372.843 235.121, 376.403 234.850, 378.999 232.501 C 382.768 229.090, 379.409 220, 374.380 220 C 373.110 220, 371.605 220.870, 371.035 221.934 M 312.011 230.487 C 310.251 232.607, 311.511 235, 314.387 235 C 318.353 235, 320 233.942, 320 231.393 C 320 229.341, 319.518 229, 316.622 229 C 314.765 229, 312.689 229.669, 312.011 230.487" stroke="none" fill="#397cef" fill-rule="evenodd"/></svg>