<svg enable-background="new 0 0 471.9 129.1" id="Layer_1" version="1.1" viewBox="0 0 471.9 129.1" x="0px" xml:space="preserve" xmlns="http://www.w3.org/2000/svg" xmlns:xlink="http://www.w3.org/1999/xlink" y="0px">
<polygon fill="#424143" points="86,58.7 92.4,58.7 92.4,100.6 111.8,100.6 111.8,106.4 86,106.4 "></polygon>
<path d="M121.5,58.7h6.4v29.9c0,8.7,4.7,12.8,12,12.8c7.2,0,12-4.2,12-12.8V58.7h6.4v30.5c0,12-7.9,18-18.4,18
	c-10.5,0-18.4-6.1-18.4-18V58.7z" fill="#424143"></path>
<polygon fill="#424143" points="173.7,58.7 179.4,58.7 197.3,87.8 215.1,58.7 220.8,58.7 220.8,106.4 214.6,106.4 214.6,70.9 
	197.3,98.7 179.9,70.9 179.9,106.4 173.7,106.4 "></polygon>
<polygon fill="#424143" points="237,58.7 265.1,58.7 265.1,64.5 243.4,64.5 243.4,78.5 263.8,78.5 263.8,84.3 243.4,84.3 
	243.4,100.6 265.6,100.6 265.6,106.4 237,106.4 "></polygon>
<polygon fill="#424143" points="278.8,58.7 284.4,58.7 312,95.2 312,58.7 318.4,58.7 318.4,106.4 313.2,106.4 285.1,69.4 
	285.1,106.4 278.8,106.4 "></polygon>
<polygon fill="#424143" points="342.4,64.5 329.4,64.5 329.4,58.7 361.8,58.7 361.8,64.5 348.8,64.5 348.8,106.4 342.4,106.4 "></polygon>
<path d="M372.6,58.7h6.4v29.9c0,8.7,4.7,12.8,12,12.8c7.2,0,12-4.2,12-12.8V58.7h6.4v30.5c0,12-7.9,18-18.4,18
	c-10.5,0-18.4-6.1-18.4-18V58.7z" fill="#424143"></path>
<polygon fill="#424143" points="424.8,58.7 430.5,58.7 448.4,87.8 466.2,58.7 471.9,58.7 471.9,106.4 465.7,106.4 465.7,70.9 
	448.4,98.7 431,70.9 431,106.4 424.8,106.4 "></polygon>
<g>
<defs>
<rect height="54.5" id="SVGID_1_" transform="matrix(-0.7072 -0.707 0.707 -0.7072 12.6144 177.3562)" width="6.4" x="39.8" y="58.8"></rect>
</defs>
<clippath id="SVGID_2_">
<use overflow="visible" xlink:href="#SVGID_1_"></use>
</clippath>
<linearGradient ggradientTransform="matrix(38.4688 -38.4688 -38.4688 -38.4688 20381.6152 8261.0762)" ggradientUnits="userSpaceOnUse" id="SVGID_3_" x1="-158.5971" x2="-157.5971" y1="370.6066" y2="370.6066">
<stop offset="0" style="stop-color:#066CB4"></stop>
<stop offset="5.989360e-02" style="stop-color:#0672AD"></stop>
<stop offset="0.185" style="stop-color:#027F9A"></stop>
<stop offset="0.363" style="stop-color:#029576"></stop>
<stop offset="0.5" style="stop-color:#08A64E"></stop>
<stop offset="1" style="stop-color:#B3D036"></stop>
</linearGradient>
<polygon clip-path="url(#SVGID_2_)" fill="url(#SVGID_3_)" points="0,86.1 43,43 86.1,86.1 43,129.1 	"></polygon>
</g>
<g>
<defs>
<rect height="54.5" id="SVGID_4_" transform="matrix(-0.707 -0.7072 0.7072 -0.707 67.4295 113.9995)" width="6.4" x="54.1" y="15.8"></rect>
</defs>
<clippath id="SVGID_5_">
<use overflow="visible" xlink:href="#SVGID_4_"></use>
</clippath>
<linearGradient ggradientTransform="matrix(38.1684 -38.1684 -38.1684 -38.1684 20237.0664 8153.958)" ggradientUnits="userSpaceOnUse" id="SVGID_6_" x1="-158.595" x2="-157.595" y1="370.6033" y2="370.6033">
<stop offset="0" style="stop-color:#C91A88"></stop>
<stop offset="9.776166e-02" style="stop-color:#CF2C7F"></stop>
<stop offset="0.3145" style="stop-color:#DB4C63"></stop>
<stop offset="0.6" style="stop-color:#EE6C25"></stop>
<stop offset="0.7388" style="stop-color:#F1822C"></stop>
<stop offset="1" style="stop-color:#F8B142"></stop>
</linearGradient>
<polygon clip-path="url(#SVGID_5_)" fill="url(#SVGID_6_)" points="14.3,43 57.3,0 100.4,43 57.3,86.1 	"></polygon>
</g>
</svg>