<svg version="1.1" id="Layer_1" xmlns:x="ns_extend;" xmlns:i="ns_ai;" xmlns:graph="ns_graphs;" xmlns="http://www.w3.org/2000/svg" xmlns:xlink="http://www.w3.org/1999/xlink" x="0px" y="0px" viewBox="0 0 400 136.2" style="enable-background:new 0 0 400 136.2;" xml:space="preserve">
 <metadata>
  <sfw xmlns="ns_sfw;">
   <slices>
   </slices>
   <sliceSourceBounds bottomLeftOrigin="true" height="136.2" width="400" x="-0.1" y="-268.2">
   </sliceSourceBounds>
  </sfw>
 </metadata>
 <g>
  <path d="M176,120.8c1.6,0,3.1-0.1,4.4-1.1c1.3-1.2,2.1-2.9,2-4.6c0-4.6-3.5-5.5-6.7-5.5c-1,0-3.2,0.1-4.1,0.7
		c-0.8,0.6-0.8,1.3-0.8,2.2v8.3L176,120.8z M185.2,131.2c1.1,1.7,2,2.7,3.9,3v1.2h-5.8l-7.7-13h-4.8v6.6c0,2.8-0.2,4.9,2.7,5.1h0.7
		v1.2H164v-1.2h0.5c1-0.1,2-0.2,2.5-1.3c0.4-1,0.3-2.7,0.3-3.8v-14.8c0-2.8,0.3-4.8-2.7-5l-0.7-0.1v-1.2h13.7c4,0,8.3,1.4,8.3,7
		c0.1,3.7-2.7,6.8-6.4,7L185.2,131.2z M215.5,115.3l-1.1,0.5c-2.8-4.1-5.7-6-10.2-6c-1,0-2.6,0-3.4,0.8s-0.9,1.9-0.9,3.1v6.2h2.3
		c3.5,0,4.1-1,4.6-4.9h1.2v12h-1.2c0-1.2-0.3-2.4-0.9-3.5c-0.9-1.6-2.2-1.7-3.7-1.7H200v8c0,0.8,0.1,2.1,0.5,2.8
		c0.7,1.1,2.4,1.2,3.5,1.2c5.3,0,8.5-2.5,11.6-7.4l1.1,0.6l-3.2,8.6h-20.1v-1.2h0.3c0.9-0.1,1.9-0.2,2.4-1.3
		c0.4-0.9,0.3-2.7,0.3-3.7v-14.9c0-2.7,0.3-4.8-2.6-5l-0.5-0.1v-1.2h19.8L215.5,115.3z M241.9,115.4l-1.1,0.5
		c-2-3.6-4.8-6.4-8.6-6.4c-2.2,0-5.1,1.3-5.1,4.2c0,3.2,3.1,4,5.2,4.6l3.5,0.9c3.8,1.1,7.7,2.3,7.7,7.8c0,5.8-4.8,9.1-9.4,9.1
		c-2.7,0.1-5.4-0.9-7.4-2.7l-0.6,2h-1.3l-2.2-9.2l1.3-0.5c1.8,4.4,5.5,8.4,9.9,8.4c3,0,6.3-2,6.3-6c0-3.5-2.7-4.1-5.1-4.9l-3.9-1.1
		c-1.7-0.5-3.4-1.2-4.9-2.2c-1.6-1.2-2.6-3.1-2.6-5.2c0-2.2,0.9-4.2,2.5-5.7c1.6-1.3,3.5-1.9,5.6-1.8c2.3-0.1,4.6,0.7,6.4,2.1
		l0.4-1.5h1.2L241.9,115.4z M271.5,115.3l-1.1,0.5c-2.8-4.1-5.7-6-10.2-6c-0.9,0-2.6,0-3.4,0.8s-0.9,1.9-0.9,3.1v6.2h2.3
		c3.5,0,4.1-1,4.6-4.9h1.2v12h-1.2c0-1.2-0.3-2.4-0.9-3.5c-0.9-1.6-2.2-1.7-3.7-1.7h-2.2v8c0,0.8,0.1,2.1,0.5,2.8
		c0.7,1.1,2.4,1.2,3.5,1.2c5.3,0,8.4-2.5,11.6-7.4l1.1,0.6l-3.1,8.6h-20.2v-1.2h0.3c0.9-0.1,2-0.2,2.4-1.3c0.4-0.9,0.3-2.7,0.3-3.7
		v-14.9c0-2.7,0.3-4.8-2.6-5l-0.5-0.1v-1.2h19.8L271.5,115.3z M291.9,123.4l-3.9-11.9l-3.8,11.9H291.9z M297.5,129.2
		c0.9,2.5,1.4,4.9,4.1,5.1v1.2h-9.7v-1.2c1.1-0.1,2.7-0.4,2.7-2c-0.1-0.8-0.2-1.5-0.5-2.2l-1.6-4.8h-8.9l-1,3
		c-0.4,1.1-0.7,2.2-0.8,3.4c0,2,1.4,2.4,3,2.6v1.2h-9.2v-1.2l0.4-0.1c1.7-0.5,2.3-0.9,3.1-2.7c0.9-2,1.6-4.1,2.2-6.1l5.8-17.3h3.2
		L297.5,129.2z M317.9,120.8c1.5,0,3.1-0.1,4.4-1.1c1.3-1.2,2.1-2.9,2-4.6c0-4.6-3.5-5.5-6.7-5.5c-1,0-3.2,0.1-4.1,0.7
		c-0.9,0.6-0.9,1.3-0.9,2.2v8.3L317.9,120.8z M327.2,131.2c1.1,1.7,2,2.7,3.9,3v1.2h-5.7l-7.7-13h-4.8v6.6c0,2.8-0.2,4.9,2.7,5.1
		h0.7v1.2H306v-1.2h0.4c1-0.1,2-0.2,2.5-1.3c0.4-1,0.4-2.7,0.4-3.8v-14.8c0-2.8,0.2-4.8-2.7-5l-0.7-0.1v-1.2h13.7c4,0,8.2,1.4,8.2,7
		c0.1,3.7-2.7,6.8-6.3,7L327.2,131.2z M357.1,118.1H356l-0.1-0.3c-0.8-1.8-1.8-4.2-3-5.6c-1.4-1.8-3.5-2.8-5.7-2.8
		c-2.7,0-4.7,1.4-6.1,3.9c-1.4,2.6-1.8,5.7-1.8,8.7c0,2.8,0.5,6,2,8.3c1.4,2.3,3.9,3.7,6.6,3.8c3.5,0,6.8-2.5,8.5-6l1.5,1
		c-2.3,4.6-6,7.1-10.6,7.1c-7.2,0-12.2-6-12.2-14.3c0-7.7,4.8-14.4,11.6-14.4c2.6-0.1,5.1,1,6.9,2.9l0.8-1.8h1.1L357.1,118.1z
		 M365.7,114.4c0-2.7,0.3-4.8-2.5-5l-0.5-0.1v-1.2h9.7v1.2H372c-1,0.1-2,0.2-2.5,1.4c-0.4,1-0.4,2.7-0.4,3.8v5.5h12.4v-5.5
		c0-2.7,0.3-4.8-2.6-5.1l-0.5-0.1v-1.2h9.7v1.2h-0.3c-0.9,0.1-1.9,0.3-2.4,1.4c-0.5,1-0.4,2.7-0.4,3.7v14.8c0,2.7-0.2,4.8,2.6,5h0.5
		v1.2h-9.7v-1.2h0.4c0.9-0.1,1.9-0.2,2.4-1.3c0.4-1,0.4-2.7,0.4-3.7v-7.6h-12.4v7.6c0,2.7-0.2,4.8,2.6,5h0.6v1.2h-9.8v-1.2h0.4
		c0.9-0.1,1.9-0.2,2.4-1.3c0.4-1,0.3-2.7,0.3-3.7L365.7,114.4z M219.9,94.3h-57v-4.1l1-0.1c2.9-0.1,6-0.7,7.5-4.4
		c1.3-3.2,1.1-9.3,1.1-12.9v-51c0-9.1,0.8-16.5-8.2-17.4l-1.4-0.1V0h31.2v4.2l-1.4,0.1c-3.1,0.3-6.4,0.5-8,4.4
		c-1.5,3.3-1.2,9.3-1.2,13v53.9c0,2.7,0,7.4,1.1,9.5c1.4,3.2,5.8,3.9,8.4,3.9c14.4,0,25.2-11.6,32.7-26l3.1,1.8L219.9,94.3z">
  </path>
  <path d="M265.3,59.8c-8.4,1-26.4,3.9-26.4,17.6c0,7.1,4.7,11.2,10,11.2c6,0,11.9-4.4,16.4-9.3L265.3,59.8z M288.5,90.7
		c-2.8,3.3-7.6,4.8-11.2,4.7c-5.4-0.1-10.3-3.2-12-10c-6.5,6.4-12.4,10-20.7,10c-7.7,0-16.9-5.3-16.9-16.4c0-9.4,4.6-13.8,10.9-17.3
		c5.8-3.3,12.2-4.9,18.5-5.7l8.1-1.1V45c-0.2-4.3-0.8-7.9-3.9-10.5c-2.9-2.3-6.6-2.9-9.9-2.9c-3.4,0-10.6,2-10.6,7.4v1.8
		c0,4.6-1.4,8.3-5.6,8.3c-2.7,0-5.2-2.6-5.2-6.1c0-5.8,5.1-11,8.9-13c4.8-2.5,10.1-3.8,15.5-4c4.6-0.1,10.7,1.8,14.8,4.6
		c5.9,4,6.5,9.3,6.5,17v27.2c0,5.8,0.7,14.5,6,14.5c1.7,0,3.2-1,4.5-2L288.5,90.7z M308.4,76.7c0,7.6,1,12.7,7.8,13.4h1.2v4.1h-28
		v-4.1c7.5-0.8,8.5-5.6,8.5-13.4V47.9c0-7.8-1.1-12.9-8-13.4H288v-4.1l16.8-3.1h3.5v9.5c4.8-6.5,12.3-10.9,20.7-10.9
		c7,0,12,2.5,15.2,10.9c5.5-6.1,13.2-10.6,20.1-10.9c5.2-0.2,10.2,2.4,12.9,6.9c2.4,4,2.7,8.7,2.7,13.4v30.5
		c0,7.5,0.9,12.6,8.4,13.4v4.1h-28v-4.1h0.9c7-0.7,8.1-5.3,8.1-13.4V49.3c0-3,0-6.4-0.9-9.4c-1.3-4.2-4.3-6.8-7.8-6.8
		c-5.8,0-11.7,4.4-16.5,9.1v34.5c0,8.2,1.1,12.7,8.2,13.4h0.9v4.1h-28.6v-4.1h0.9c7-0.7,8.1-5.3,8.1-13.4V48.9
		c0-7.6-0.5-15.8-8.2-15.8c-6.4,0-12.7,4.4-16.9,9.1L308.4,76.7z M50.3,65.8l87.4,69.7L50.3,78.7l69.2,56.7L50.3,91.7l51,43.8
		l-51-30.8l32.8,30.8H0L77.9,0.8l77.9,134.6L50.3,65.8z M385.6,32.5c0,1.9,0.8,3.8,2.1,5.1c2.8,2.8,7.4,2.8,10.2-0.1
		c2.8-2.8,2.8-7.4-0.1-10.2c-2.8-2.8-7.4-2.8-10.2,0.1c-0.1,0.1-0.2,0.2-0.3,0.3l-0.2,0.2C386.1,29.2,385.6,30.8,385.6,32.5
		L385.6,32.5z M392.8,26c3.6,0,6.5,2.9,6.5,6.5c0,3.6-2.9,6.5-6.5,6.5c-3.6,0-6.5-2.9-6.5-6.5C386.3,28.9,389.2,26,392.8,26
		L392.8,26z">
  </path>
  <path d="M391.2,29.5h1.6c1.5,0,2.3,0.3,2.3,1.1c0,1-0.8,1.5-2.4,1.5h-1.5L391.2,29.5z M389.7,28.1v8.4h1.5v-3h1.5
		c1.7,0,2.3,0.9,2.3,3h1.7v-0.4c0-1.8-0.5-2.8-2-3.2c1.5-0.4,2.2-1.2,2.2-2.3c0-1.6-1.2-2.5-3.7-2.5L389.7,28.1z">
  </path>
 </g>
</svg>