<svg xmlns="http://www.w3.org/2000/svg" width="665" height="375" viewBox="0 0 665 375" version="1.1"><path d="M 160.264 127.718 C 161.784 127.947, 164.034 127.941, 165.264 127.704 C 166.494 127.467, 165.250 127.279, 162.500 127.286 C 159.750 127.294, 158.744 127.488, 160.264 127.718 M 400.860 131.750 C 397.983 135.223, 396.765 137, 397.259 137 C 397.536 137, 398.964 135.425, 400.432 133.500 C 403.157 129.928, 403.487 128.579, 400.860 131.750 M 3.750 143.723 C 5.537 143.945, 8.462 143.945, 10.250 143.723 C 12.037 143.502, 10.575 143.320, 7 143.320 C 3.425 143.320, 1.962 143.502, 3.750 143.723 M 14.728 185.273 C 14.853 208.419, 15.332 227.732, 15.791 228.191 C 16.250 228.650, 32.797 228.902, 52.563 228.750 L 88.500 228.474 52.250 228.237 L 16 228 16 186.059 C 16 162.991, 15.662 143.909, 15.250 143.654 C 14.838 143.400, 14.603 162.128, 14.728 185.273 M 78 143.617 C 83.871 144.363, 91.777 144.442, 91.348 143.750 C 91.092 143.338, 87.421 143.067, 83.191 143.150 C 78.961 143.232, 76.625 143.443, 78 143.617 M 300.750 143.723 C 302.538 143.945, 305.462 143.945, 307.250 143.723 C 309.038 143.502, 307.575 143.320, 304 143.320 C 300.425 143.320, 298.962 143.502, 300.750 143.723 M 361.750 143.706 C 362.988 143.944, 365.012 143.944, 366.250 143.706 C 367.488 143.467, 366.475 143.272, 364 143.272 C 361.525 143.272, 360.512 143.467, 361.750 143.706 M 398.296 143.744 C 402.583 143.932, 409.333 143.931, 413.296 143.742 C 417.258 143.552, 413.750 143.399, 405.500 143.400 C 397.250 143.401, 394.008 143.556, 398.296 143.744 M 501.762 143.707 C 503.006 143.946, 504.806 143.937, 505.762 143.687 C 506.718 143.437, 505.700 143.241, 503.500 143.252 C 501.300 143.263, 500.518 143.468, 501.762 143.707 M 577.750 143.723 C 579.538 143.945, 582.462 143.945, 584.250 143.723 C 586.038 143.502, 584.575 143.320, 581 143.320 C 577.425 143.320, 575.962 143.502, 577.750 143.723 M 330 152.500 C 331.866 154.425, 333.617 156, 333.892 156 C 334.167 156, 332.866 154.425, 331 152.500 C 329.134 150.575, 327.383 149, 327.108 149 C 326.833 149, 328.134 150.575, 330 152.500 M 375.400 169.500 C 375.401 177.750, 375.556 180.992, 375.744 176.704 C 375.932 172.417, 375.931 165.667, 375.742 161.704 C 375.552 157.742, 375.399 161.250, 375.400 169.500 M 77.695 168.513 C 76.781 170.431, 76.239 172, 76.490 172 C 77.175 172, 80.210 165.877, 79.753 165.420 C 79.536 165.203, 78.610 166.594, 77.695 168.513 M 258.349 176 C 258.349 180.675, 258.522 182.588, 258.732 180.250 C 258.943 177.912, 258.943 174.088, 258.732 171.750 C 258.522 169.412, 258.349 171.325, 258.349 176 M 338.272 172 C 338.272 174.475, 338.467 175.488, 338.706 174.250 C 338.944 173.012, 338.944 170.988, 338.706 169.750 C 338.467 168.512, 338.272 169.525, 338.272 172 M 225.182 172.802 C 225.316 174.561, 225.788 176, 226.232 176 C 226.675 176, 226.741 174.762, 226.378 173.250 C 225.430 169.297, 224.900 169.099, 225.182 172.802 M 114.624 176.539 C 114.281 177.432, 114.046 179.139, 114.102 180.332 C 114.167 181.702, 114.507 181.215, 115.026 179.007 C 115.899 175.290, 115.662 173.833, 114.624 176.539 M 113.252 187.500 C 113.263 189.700, 113.468 190.482, 113.707 189.238 C 113.946 187.994, 113.937 186.194, 113.687 185.238 C 113.437 184.282, 113.241 185.300, 113.252 187.500 M 282.250 187.743 C 286.512 187.931, 293.488 187.931, 297.750 187.743 C 302.012 187.556, 298.525 187.402, 290 187.402 C 281.475 187.402, 277.988 187.556, 282.250 187.743 M 529 196 C 530.122 198.200, 531.266 200, 531.541 200 C 531.816 200, 531.122 198.200, 530 196 C 528.878 193.800, 527.734 192, 527.459 192 C 527.184 192, 527.878 193.800, 529 196 M 375.402 211 C 375.402 219.525, 375.556 223.012, 375.743 218.750 C 375.931 214.488, 375.931 207.512, 375.743 203.250 C 375.556 198.988, 375.402 202.475, 375.402 211 M 225.182 203.198 C 224.900 206.901, 225.430 206.703, 226.378 202.750 C 226.741 201.238, 226.675 200, 226.232 200 C 225.788 200, 225.316 201.439, 225.182 203.198 M 257.648 212.250 C 256.801 219.306, 257.008 233.903, 258 237 C 258.478 238.492, 258.841 232.947, 258.900 223.250 C 258.955 214.313, 258.838 207, 258.639 207 C 258.441 207, 257.995 209.363, 257.648 212.250 M 312.915 221.750 C 313.458 222.713, 315.084 224.850, 316.530 226.500 C 318.520 228.771, 318.370 228.345, 315.910 224.750 C 312.699 220.055, 311.005 218.359, 312.915 221.750 M 391 228.711 C 419.849 229.414, 446.770 229.433, 446.347 228.750 C 446.091 228.338, 430.946 228.097, 412.691 228.215 C 394.436 228.333, 384.675 228.556, 391 228.711 M 607.750 228.749 C 617.788 228.912, 634.213 228.912, 644.250 228.749 C 654.288 228.585, 646.075 228.452, 626 228.452 C 605.925 228.452, 597.712 228.585, 607.750 228.749 M 338.978 232.970 C 340.142 234.603, 341.604 236.255, 342.228 236.641 C 342.852 237.027, 342.103 235.690, 340.563 233.671 C 337.220 229.289, 335.960 228.731, 338.978 232.970 M 454 234 C 452.878 236.200, 452.184 238, 452.459 238 C 452.734 238, 453.878 236.200, 455 234 C 456.122 231.800, 456.816 230, 456.541 230 C 456.266 230, 455.122 231.800, 454 234" stroke="none" fill="#141414" fill-rule="evenodd"/><path d="M 144.395 129.409 C 131.588 132.518, 118.320 141.374, 108.226 153.551 C 104.514 158.029, 99.410 170.456, 97.833 178.857 C 95.291 192.395, 100.087 211.991, 108.269 221.501 C 113.734 227.852, 121.948 235.642, 124.500 236.893 C 134.658 241.872, 142.360 244.984, 146.799 245.903 C 155.484 247.701, 173.511 247.288, 181.003 245.120 C 190.067 242.497, 202.053 236.500, 206.370 232.428 C 208.369 230.543, 210.447 229, 210.988 229 C 211.529 229, 213.215 227.088, 214.734 224.750 C 216.253 222.412, 218.063 219.902, 218.755 219.172 C 220.925 216.882, 222.120 214.004, 221.392 212.825 C 220.981 212.160, 221.135 211.966, 221.765 212.355 C 222.988 213.111, 224.837 208.199, 225.192 203.250 C 225.320 201.463, 225.788 200, 226.232 200 C 226.675 200, 226.768 198.924, 226.438 197.609 C 226.108 196.294, 226.324 194.918, 226.919 194.550 C 228.282 193.708, 228.349 182.334, 226.996 181.498 C 226.444 181.157, 226.268 179.780, 226.605 178.439 C 226.941 177.097, 226.814 176, 226.321 176 C 225.828 176, 225.328 174.762, 225.210 173.250 C 224.495 164.141, 218.918 154.449, 208.891 144.891 C 202.139 138.455, 194.778 134.252, 183.824 130.576 C 177.026 128.295, 174.622 128.010, 162.824 128.085 C 155.496 128.132, 147.203 128.728, 144.395 129.409 M 402.444 130.750 C 401.461 132.262, 398.842 135.170, 396.623 137.210 C 392.634 140.878, 392.075 143.117, 395.653 141.095 C 398.767 139.335, 405.153 137, 406.872 136.994 C 407.767 136.990, 409.625 136.409, 411 135.702 C 412.375 134.995, 416.988 133.152, 421.250 131.607 C 425.512 130.061, 429 128.618, 429 128.399 C 429 128.179, 423.427 128, 416.615 128 L 404.230 128 402.444 130.750 M 149 141.867 C 145.975 142.895, 142.150 144.467, 140.500 145.362 C 138.850 146.256, 137.039 146.990, 136.476 146.994 C 134.807 147.004, 122.982 158.917, 121.952 161.625 C 121.431 162.998, 120.542 163.835, 119.977 163.486 C 119.412 163.137, 119.059 163.222, 119.192 163.676 C 119.325 164.129, 118.140 167.847, 116.558 171.938 C 113.237 180.525, 112.377 193.073, 114.716 198.794 C 115.457 200.606, 115.822 202.480, 115.526 202.959 C 115.230 203.437, 115.383 203.980, 115.867 204.165 C 116.350 204.349, 118.149 207.144, 119.864 210.375 C 123.829 217.843, 133.518 226.712, 141.625 230.294 C 144.994 231.782, 148.256 233, 148.875 233 C 149.494 233, 150 233.338, 150 233.750 C 150 234.947, 165.992 235.189, 171.707 234.080 C 180.379 232.395, 191.213 226.619, 197.402 220.380 C 207.110 210.595, 211.698 197.876, 210.691 183.540 C 209.428 165.550, 198.335 150.129, 181.906 143.521 C 172.268 139.645, 157.697 138.913, 149 141.867 M 7.250 143.798 L 1 144.095 1 191.548 L 1 239 44.500 239 L 88 239 88 234 L 88 229 52.059 229 C 29.835 229, 15.888 228.629, 15.517 228.027 C 15.186 227.491, 14.943 208.399, 14.978 185.598 C 15.013 162.798, 14.694 143.999, 14.271 143.822 C 13.847 143.645, 10.688 143.634, 7.250 143.798 M 244 191.026 L 244 239 250.825 239 L 257.650 239 257.239 228.250 C 257.013 222.338, 257.251 214.898, 257.768 211.719 C 258.285 208.534, 258.323 205.699, 257.851 205.408 C 257.380 205.117, 257.430 204.065, 257.962 203.071 C 258.494 202.076, 258.645 200.979, 258.298 200.631 C 257.951 200.284, 266.737 200, 277.823 200 L 297.980 200 301.631 205.500 C 303.640 208.525, 305.558 211, 305.893 211 C 306.229 211, 307.578 213.025, 308.891 215.500 C 310.204 217.975, 311.618 220, 312.033 220 C 312.448 220, 314.960 223.262, 317.615 227.250 C 325.764 239.486, 325.030 239, 335.361 239 L 344.374 239 341.869 236.250 C 340.491 234.738, 336.276 229.225, 332.502 224 C 328.727 218.775, 324.483 212.980, 323.070 211.123 C 320.469 207.704, 315.781 199.764, 316.247 199.565 C 323.866 196.325, 331.180 190.817, 334.636 185.715 C 337.294 181.793, 337.489 180.839, 337.443 172 C 337.407 165.271, 336.924 161.616, 335.784 159.469 C 334.077 156.254, 324.802 147.086, 323.043 146.875 C 321.613 146.704, 321.079 146.558, 316.500 145.083 C 313.663 144.170, 302.539 143.687, 278.250 143.423 L 244 143.052 244 191.026 M 364.250 143.807 L 360 144.115 360 191.557 L 360 239 403 239 L 446 239 446 234 L 446 229 412.750 228.882 C 394.462 228.816, 379.067 228.848, 378.538 228.952 C 375.816 229.487, 375 225.309, 375 210.825 L 375 196.033 401.750 195.766 L 428.500 195.500 428.827 192.644 C 429.051 190.686, 428.791 190.011, 428.003 190.498 C 427.208 190.990, 427.233 190.600, 428.084 189.237 C 428.761 188.152, 429.034 186.530, 428.689 185.632 C 428.132 184.179, 425.149 184, 401.531 184 L 375 184 375 169.500 L 375 155 410.550 155 L 446.100 155 445.800 149.273 L 445.500 143.546 407 143.523 C 385.825 143.510, 366.587 143.638, 364.250 143.807 M 503.905 143.719 C 500.979 144.031, 499.927 144.790, 498.246 147.801 C 497.110 149.835, 496.027 152.400, 495.840 153.500 C 495.653 154.600, 495.195 155.731, 494.823 156.014 C 494.242 156.455, 483.747 176.408, 479.313 185.500 C 478.509 187.150, 476.919 190.300, 475.780 192.500 C 474.641 194.700, 468.894 206.079, 463.008 217.787 L 452.306 239.073 460.831 238.787 L 469.355 238.500 475.295 226.750 L 481.235 215 510.522 215 L 539.809 215 542.070 220.456 C 543.314 223.457, 544.777 225.638, 545.320 225.302 C 545.864 224.966, 546.007 225.179, 545.639 225.775 C 545.270 226.371, 546.326 229.161, 547.984 231.974 C 549.643 234.787, 551 237.518, 551 238.044 C 551 238.577, 554.761 239, 559.500 239 C 564.175 239, 568 238.814, 568 238.586 C 568 238.359, 563.111 228.571, 557.135 216.836 C 551.159 205.101, 545.582 194.150, 544.742 192.500 C 543.902 190.850, 542.260 187.700, 541.092 185.500 C 539.924 183.300, 534.653 172.838, 529.378 162.250 L 519.788 143 513.644 143.168 C 510.265 143.261, 505.882 143.509, 503.905 143.719 M 581.250 143.740 L 575 144.095 575 191.548 L 575 239 618.500 239 L 662 239 662 234.012 L 662 229.025 625.750 228.762 L 589.500 228.500 589.239 185.750 C 589.096 162.238, 588.646 143.087, 588.239 143.193 C 587.833 143.299, 584.688 143.545, 581.250 143.740 M 74.975 146.565 C 74.439 147.976, 74 149.370, 74 149.664 C 74 149.958, 73.364 151.616, 72.587 153.349 C 68.538 162.382, 65.839 168.832, 65.584 170.091 C 65.426 170.866, 64.827 172.625, 64.253 174 C 62.851 177.358, 63.904 178.188, 69.096 177.814 C 73.347 177.508, 73.539 177.343, 76.265 171.646 C 77.805 168.426, 79.730 165.127, 80.542 164.315 C 81.354 163.503, 81.763 162.425, 81.450 161.919 C 81.138 161.414, 81.315 161, 81.843 161 C 82.372 161, 83.295 159.593, 83.894 157.873 C 84.494 156.154, 86.338 152.547, 87.992 149.858 C 89.646 147.170, 91 144.752, 91 144.485 C 91 144.218, 87.614 144, 83.475 144 C 76.318 144, 75.903 144.125, 74.975 146.565 M 259.444 156.090 C 259.054 156.722, 258.597 164.048, 258.428 172.369 L 258.122 187.500 279.811 187.840 C 312.244 188.349, 319.017 186.488, 322.460 176.119 C 324.362 170.393, 323.825 167.119, 320.102 161.742 C 316.048 155.885, 312.521 155.228, 284.327 155.073 C 267.073 154.979, 259.951 155.270, 259.444 156.090 M 498.811 180.534 L 488.121 202 510.636 202 L 533.150 202 530.274 196.750 C 528.693 193.863, 526.903 190.600, 526.297 189.500 C 525.691 188.400, 523.769 184.575, 522.026 181 C 520.283 177.425, 518.214 173.375, 517.429 172 C 516.644 170.625, 514.989 167.284, 513.751 164.575 C 512.513 161.865, 511.050 159.518, 510.500 159.359 C 509.950 159.199, 504.690 168.728, 498.811 180.534" stroke="none" fill="#040404" fill-rule="evenodd"/></svg>