<svg xmlns="http://www.w3.org/2000/svg" width="437" height="457" viewBox="0 0 437 457" version="1.1"><path d="M 180.750 189.080 C 179.131 190.023, 179 193.009, 179 229.050 L 179 268 183.485 268 L 187.971 268 188.235 237.815 L 188.500 207.630 208.357 237.782 C 219.278 254.365, 229.002 268.183, 229.966 268.489 C 232.577 269.318, 235.037 268.033, 236.077 265.299 C 236.584 263.963, 237 256.374, 237 248.435 L 237 234 232.750 233.858 L 228.500 233.716 232.500 233.108 L 236.500 232.500 236.770 210.750 L 237.039 189 232.008 189 L 226.976 189 227.048 218.106 C 227.088 234.115, 226.940 247.393, 226.720 247.613 C 226.500 247.834, 217.605 234.928, 206.955 218.933 C 196.305 202.938, 186.813 189.435, 185.861 188.926 C 183.710 187.774, 182.953 187.797, 180.750 189.080 M 272.315 189.945 C 270.971 191.514, 257.571 223.485, 255.421 230.250 C 254.943 231.756, 255.556 232, 259.826 232 C 263.622 232, 264.947 231.589, 265.471 230.250 C 265.847 229.287, 268.206 223.100, 270.711 216.500 C 273.217 209.900, 275.575 204.154, 275.952 203.732 C 276.329 203.309, 279.047 209.271, 281.993 216.982 C 286.757 229.452, 287.606 231, 289.674 231 C 291.855 231, 292.003 231.389, 292.049 237.250 C 292.088 242.265, 293.030 245.871, 296.816 255.500 L 301.535 267.500 306.896 267.807 C 310.989 268.041, 312.138 267.804, 311.752 266.807 C 300.085 236.640, 297.490 231, 295.276 231 C 293.181 231, 293 230.558, 293 225.441 C 293 221.045, 291.827 216.911, 287.397 205.691 C 284.316 197.886, 281.096 190.713, 280.242 189.750 C 278.187 187.433, 274.385 187.527, 272.315 189.945 M 58 221.684 C 58 252.870, 58.097 254.568, 60.105 258.718 C 61.566 261.735, 63.480 263.746, 66.355 265.283 C 70.172 267.325, 72.101 267.526, 90.750 267.824 L 111 268.147 111 263.667 L 111 259.187 92.250 258.832 C 72.178 258.451, 69.668 257.887, 67.952 253.374 C 67.424 251.984, 67 237.101, 67 219.935 L 67 189 62.500 189 L 58 189 58 221.684 M 114 221.288 C 114 252.801, 114.054 253.682, 116.250 257.980 C 120.451 266.201, 125.114 267.942, 143 267.971 C 156.960 267.993, 161.352 266.884, 166.092 262.140 C 171.437 256.791, 172 252.629, 172 218.451 L 172 189 167 189 L 162 189 162 219.953 C 162 240.511, 161.627 251.724, 160.890 253.343 C 158.932 257.639, 155.758 258.500, 141.868 258.500 C 129.188 258.500, 129.013 258.469, 126.272 255.729 L 123.500 252.957 123.210 220.979 L 122.920 189 118.460 189 L 114 189 114 221.288 M 316.269 229.693 C 317.242 229.947, 318.592 229.930, 319.269 229.656 C 319.946 229.382, 319.150 229.175, 317.500 229.195 C 315.850 229.215, 315.296 229.439, 316.269 229.693 M 326.762 229.707 C 328.006 229.946, 329.806 229.937, 330.762 229.687 C 331.718 229.437, 330.700 229.241, 328.500 229.252 C 326.300 229.263, 325.518 229.468, 326.762 229.707 M 252.592 237.141 C 251.824 238.988, 248.715 246.688, 245.684 254.250 L 240.172 268 245.492 268 L 250.813 268 256.906 252.416 C 260.258 243.845, 263 236.420, 263 235.916 C 263 235.412, 261.687 235, 260.082 235 C 258.477 235, 256.449 234.726, 255.576 234.391 C 254.441 233.955, 253.591 234.739, 252.592 237.141" stroke="none" fill="#0d3f7d" fill-rule="evenodd"/><path d="M 0 228.502 L 0 457.004 218.750 456.752 L 437.500 456.500 437.752 228.250 L 438.004 0 219.002 0 L 0 0 0 228.502 M 0.491 229 C 0.491 354.675, 0.608 406.088, 0.750 343.250 C 0.892 280.413, 0.892 177.588, 0.750 114.750 C 0.608 51.913, 0.491 103.325, 0.491 229 M 180.750 189.080 C 179.131 190.023, 179 193.009, 179 229.050 L 179 268 183.485 268 L 187.971 268 188.235 237.815 L 188.500 207.630 208.357 237.782 C 219.278 254.365, 229.002 268.183, 229.966 268.489 C 232.577 269.318, 235.037 268.033, 236.077 265.299 C 236.584 263.963, 237 256.374, 237 248.435 L 237 234 232.750 233.858 L 228.500 233.716 232.500 233.108 L 236.500 232.500 236.770 210.750 L 237.039 189 232.008 189 L 226.976 189 227.048 218.106 C 227.088 234.115, 226.940 247.393, 226.720 247.613 C 226.500 247.834, 217.605 234.928, 206.955 218.933 C 196.305 202.938, 186.813 189.435, 185.861 188.926 C 183.710 187.774, 182.953 187.797, 180.750 189.080 M 272.315 189.945 C 270.971 191.514, 257.571 223.485, 255.421 230.250 C 254.943 231.756, 255.556 232, 259.826 232 C 263.622 232, 264.947 231.589, 265.471 230.250 C 265.847 229.287, 268.206 223.100, 270.711 216.500 C 273.217 209.900, 275.575 204.154, 275.952 203.732 C 276.329 203.309, 279.047 209.271, 281.993 216.982 C 286.757 229.452, 287.606 231, 289.674 231 C 291.855 231, 292.003 231.389, 292.049 237.250 C 292.088 242.265, 293.030 245.871, 296.816 255.500 L 301.535 267.500 306.896 267.807 C 310.989 268.041, 312.138 267.804, 311.752 266.807 C 300.085 236.640, 297.490 231, 295.276 231 C 293.181 231, 293 230.558, 293 225.441 C 293 221.045, 291.827 216.911, 287.397 205.691 C 284.316 197.886, 281.096 190.713, 280.242 189.750 C 278.187 187.433, 274.385 187.527, 272.315 189.945 M 58 221.684 C 58 252.870, 58.097 254.568, 60.105 258.718 C 61.566 261.735, 63.480 263.746, 66.355 265.283 C 70.172 267.325, 72.101 267.526, 90.750 267.824 L 111 268.147 111 263.667 L 111 259.187 92.250 258.832 C 72.178 258.451, 69.668 257.887, 67.952 253.374 C 67.424 251.984, 67 237.101, 67 219.935 L 67 189 62.500 189 L 58 189 58 221.684 M 114 221.288 C 114 252.801, 114.054 253.682, 116.250 257.980 C 120.451 266.201, 125.114 267.942, 143 267.971 C 156.960 267.993, 161.352 266.884, 166.092 262.140 C 171.437 256.791, 172 252.629, 172 218.451 L 172 189 167 189 L 162 189 162 219.953 C 162 240.511, 161.627 251.724, 160.890 253.343 C 158.932 257.639, 155.758 258.500, 141.868 258.500 C 129.188 258.500, 129.013 258.469, 126.272 255.729 L 123.500 252.957 123.210 220.979 L 122.920 189 118.460 189 L 114 189 114 221.288 M 316.269 229.693 C 317.242 229.947, 318.592 229.930, 319.269 229.656 C 319.946 229.382, 319.150 229.175, 317.500 229.195 C 315.850 229.215, 315.296 229.439, 316.269 229.693 M 326.762 229.707 C 328.006 229.946, 329.806 229.937, 330.762 229.687 C 331.718 229.437, 330.700 229.241, 328.500 229.252 C 326.300 229.263, 325.518 229.468, 326.762 229.707 M 252.592 237.141 C 251.824 238.988, 248.715 246.688, 245.684 254.250 L 240.172 268 245.492 268 L 250.813 268 256.906 252.416 C 260.258 243.845, 263 236.420, 263 235.916 C 263 235.412, 261.687 235, 260.082 235 C 258.477 235, 256.449 234.726, 255.576 234.391 C 254.441 233.955, 253.591 234.739, 252.592 237.141" stroke="none" fill="#fbfbfb" fill-rule="evenodd"/></svg>