<svg version="1.1" id="Layer_1" xmlns="http://www.w3.org/2000/svg" xmlns:xlink="http://www.w3.org/1999/xlink" x="0px" y="0px" viewBox="0 0 1008 237" style="enable-background:new 0 0 1008 237;" xml:space="preserve">
 <style type="text/css">
  .st0{fill:#FFFFFF;}
	.st1{fill:#E21936;}
	.st2{fill:#231F20;}
 </style>
 <rect x="26.9" y="26.2" class="st0" width="956.1" height="187.4">
 </rect>
 <g>
  <g>
   <path class="st1" d="M84.5,72.3h31v66.2H159v26.5H84.5V72.3z">
   </path>
  </g>
  <g>
   <path class="st1" d="M201,72.3h34.7l18,52l18-52h34.1l-37.6,93.3h-29.6L201,72.3z">
   </path>
  </g>
  <g>
   <path class="st1" d="M307,72.3h79v25.4h-48.6v9.4h45.3v22.4h-45.3v10.1h49.2v25.4H307V72.3z">
   </path>
  </g>
  <g>
   <path class="st2" d="M423.4,72.3h29l33,40.9V72.3H516v92.6h-27.5l-34.4-42.7v42.7h-30.7V72.3z">
   </path>
  </g>
  <g>
   <path class="st2" d="M553.6,71.6h30.7l39,93.3h-33.6l-4.9-12.4h-32.4l-4.8,12.4h-33.1L553.6,71.6z M577.1,130.5l-8.5-22.5
			l-8.5,22.5H577.1z">
   </path>
  </g>
  <g>
   <path class="st2" d="M628.4,98.5h-27.3V72.3h85.5v26.2h-27.3v66.4h-31V98.5z">
   </path>
  </g>
  <g>
   <path class="st2" d="M691.2,72.3h31v92.6h-31V72.3z">
   </path>
  </g>
  <g>
   <path class="st2" d="M728.3,118.9v-0.3c0-26.9,22.1-48.3,50.7-48.3c28.6,0,50.4,21.2,50.4,48v0.3c0,26.9-22.1,48.3-50.7,48.3
			C750.1,166.9,728.3,145.7,728.3,118.9z M798.1,118.9v-0.3c0-11-7.5-20.9-19.5-20.9c-11.8,0-19.2,9.8-19.2,20.6v0.3
			c0,11,7.5,20.9,19.5,20.9C790.7,139.5,798.1,129.7,798.1,118.9z">
   </path>
  </g>
  <g>
   <path class="st2" d="M832.6,72.3h29l33,40.9V72.3h30.7v92.6h-27.5l-34.4-42.7v42.7h-30.7V72.3z">
   </path>
  </g>
 </g>
 <g>
  <path class="st1" d="M992.3,223H15.7V15h976.6V223z M36.2,202.4h935.6V35.5H36.2V202.4z">
  </path>
 </g>
 <g>
  <g>
   <path class="st2" d="M212.2,53.5c0,0-2-3.5-2.4-4.2c-0.4-0.7-1-0.2-1-0.2s-2,1.5-3.1,2.2c-1.1,0.7-1,1.6-1,2
			c0,0.5-0.3,3.2-0.3,3.2c-0.1,0.6-0.4,1.1-0.6,1.4l-17.8,13.8l-2.2,0.5l-5.5,2.7l0.3-3.7c0.4,0.2,1,0.8,1.4,0.9
			c0.5,0.1,1.3-0.1,1.3-0.1s-0.3-0.7-0.3-1.1c0-0.4,0.1-1.1,0.1-1.1s0.8,0.5,1.5,0.5c0.5,0,1-0.2,1.3-0.4c0.3-0.2,0.6-0.6,0.6-0.6
			s-1-0.6-1.4-1c-0.2-0.3-0.6-0.7-0.4-0.7c0.5,0,1.3-0.7,1.3-0.7s-0.5-0.3-1-0.7c-0.5-0.4-0.7-0.7-0.9-1.2c-0.2-0.5-0.3-0.9-0.3-0.9
			s0.3,0.4,1,0.4c0.6,0,1.2-0.4,1.2-0.4s-0.5-0.3-0.8-0.6c-0.3-0.4-0.6-0.8-0.8-1.3c-0.2-0.7-0.3-1.1-0.5-1.6
			c-0.1-0.3-0.1-0.7-0.3-1.4c-0.2-1.6-0.9-2.3-0.9-2.3c-2.1-2.8-6.9-3.5-6.9-3.5c-2.4-0.5-4.9,2.7-5.9,5.9
			c-1.6,5.3-1.1,10.5-1.1,10.5s0.1,1,0.9,1.5c0.5,0.3,2.6,0.8,2.6,0.8l-0.2,4.3l-5.1,0.4c0,0-3.8-2.3-7-4.2L144,62.2
			c0,0-0.6-0.4-0.7-1.5c0,0-0.3-2.7-0.3-3.2c0-0.5,0.1-1.3-1-2c-1.1-0.7-3.1-2.2-3.1-2.2s-0.7-0.6-1.1,0.1c-0.4,0.7-2.4,4.2-2.4,4.2
			l1,4c0,0,0.4,0.8,1.1,1.5l0.9,0.9l5.2,4.7l0.1,0l8.6,7.7l2.5,2.4c0,0,0.2,0.3,0.2,0.8c0,0.5,0,1.9,0,1.9s0,0.4,0.2,0.7
			c0.3,0.3,4.9,4,4.9,4s0.3,0.3,0.3,0.9l0.8,27.6c0,0,0,0.4,0.4,0.4l1.5,0.6l3.4,30.2l6.5,20l-10.3,5c0,0-0.4,0.2-0.6,0.6
			c0,0-0.6,1.2-0.6,1.4c0,0.4,0.3,0.5,0.3,0.5l15.3,0l-1.5,4l-0.4,1.1c0,0-0.5,2,0.3,2.3c0.9,0.3,3.6,0.4,4.8,0.3
			c1.5-0.1,4.2-0.3,4.7-0.7c0.4-0.4,0.6-2.3-1.6-14.5l-1.3-47.2l3.9-29.6c0.4-3.3,0.8-3.6,0.8-3.6s4.2-3.1,4.6-3.5
			c0.4-0.4,0.3-1,0.3-1v-3.3c0-0.6,0.2-1.1,0.2-1.1l3.4-3.3l1-1l10.8-10.4l1.9-2.2l0.9-0.9c0.6-0.7,1-1.5,1-1.5s0.8-2,1.1-2.6
			C212.5,54.2,212.2,53.5,212.2,53.5">
   </path>
  </g>
 </g>
 <g>
  <path class="st2" d="M940.3,79.4L940.3,79.4c0-4,3.2-7.3,7.3-7.3c4.1,0,7.3,3.3,7.3,7.3v0c0,4-3.2,7.3-7.3,7.3
		C943.5,86.6,940.3,83.3,940.3,79.4z M954.1,79.3L954.1,79.3c0-3.6-2.8-6.5-6.4-6.5c-3.7,0-6.5,2.9-6.5,6.5v0c0,3.6,2.8,6.4,6.4,6.4
		C951.3,85.8,954.1,82.9,954.1,79.3z M944.6,75.2h3.4c1,0,1.9,0.3,2.4,0.8c0.4,0.4,0.6,1,0.6,1.7v0c0,1.2-0.7,2-1.7,2.4l1.9,2.8h-2
		l-1.7-2.5h0h-1.3V83h-1.7V75.2z M948.1,79c0.9,0,1.3-0.5,1.3-1.1v0c0-0.7-0.5-1.1-1.4-1.1h-1.7V79H948.1z">
  </path>
 </g>
</svg>