<?xml version="1.0" encoding="UTF-8"?> <svg xmlns="http://www.w3.org/2000/svg" xmlns:xlink="http://www.w3.org/1999/xlink" width="236px" height="47px" viewBox="0 0 236 47" version="1.1"><title>logo</title><g id="Page-1" stroke="none" stroke-width="1" fill="none" fill-rule="evenodd"><g id="logo" fill-rule="nonzero"><path d="M39,7.11 C39.2061935,7.2647916 39.4001052,7.43530014 39.58,7.62 C39.9570201,7.98037035 40.3142117,8.36092958 40.65,8.76 C41.2152506,9.37757916 41.7208345,10.0472266 42.16,10.76 C44.3650476,14.0391992 45.7033506,17.8236037 46.05,21.76 C46.4857598,27.3285986 44.9143565,32.8693025 41.62,37.38 C39.96,39.63 37.62,41.7 34.83,41.8 C32.6,41.88 30.53,40.69 28.71,39.4 C26.05,37.52 21.85,33.4 16.71,26.6 C16.4,26.19 15.02,24.18 15.16,23.69 C15.4305322,23.0838429 16.0942834,22.7561683 16.74,22.91 C17.564939,23.6973422 18.3210277,24.5537966 19,25.47 C19.93,26.54 20.89,27.59 21.86,28.63 C23.19,30.05 24.54,31.45 25.94,32.81 C27.1454257,34.0262025 28.4353063,35.1556835 29.8,36.19 C30.6637122,36.8325112 31.6622173,37.2702121 32.72,37.47 C33.5938205,37.6780041 34.5148679,37.48352 35.23,36.94 C37.04,35.15 35.65,32.22 34.6,30.42 C34.2525381,29.8362707 33.8684351,29.2751464 33.45,28.74 C33.03,28.21 32.55,27.74 32.18,27.19 C31.8745541,26.8130387 31.8385468,26.2849317 32.09,25.87 C32.91,24.87 34.16,26.28 34.71,26.87 C35.2743871,27.5167207 35.9196919,28.0880843 36.63,28.57 C37.513835,29.2149051 38.6367552,29.4380261 39.7,29.18 C41.32,28.65 42.04,26.91 42.32,25.23 C43.0866675,20.3591169 42.2143681,15.3715342 39.84,11.05 C39.4460259,10.3424876 39.0119866,9.65804101 38.54,9 C38.2190597,8.66925621 37.9554525,8.28736371 37.76,7.87 C37.6967112,7.64181367 37.7449043,7.39714091 37.89,7.21 C38.0062885,7.02489544 38.2114623,6.91470951 38.43,6.91981772 C38.6328683,6.93482527 38.8288102,7.00013925 39,7.11 Z" id="Path" fill="#FF3333"></path><path d="M0.89,18.37 C0.907738872,18.1142861 0.944507332,17.8602495 1,17.61 C1.1275854,17.1057469 1.28112315,16.6084181 1.46,16.12 C1.71613842,15.3188311 2.05111148,14.5450433 2.46,13.81 C3.22769452,12.2442713 4.16677519,10.7685731 5.26,9.41 C10.2136073,3.2668374 17.9708277,0.0922279693 25.81,1 C28.59,1.31 31.55,2.3 33.03,4.67 C34.22,6.56 34.22,8.95 34.03,11.17 C33.73,14.41 32.23,20.17 28.95,27.98 C28.75,28.45 27.71,30.65 27.21,30.78 C26.546599,30.8395244 25.9342168,30.4200845 25.75,29.78 C25.9845828,28.6654627 26.3192736,27.5743705 26.75,26.52 C27.21,25.18 27.64,23.82 28.05,22.46 C28.62,20.6 29.16,18.72 29.63,16.83 C30.0817197,15.1892127 30.4159,13.5183113 30.63,11.83 C30.755109,10.7637561 30.6354074,9.68302214 30.28,8.67 C30.0322139,7.80525777 29.4021828,7.10153883 28.57,6.76 C26.11,6.08 24.27,8.76 23.24,10.56 C22.9034036,11.1532047 22.6060982,11.7678587 22.35,12.4 C22.11,13.02 21.95,13.67 21.65,14.27 C21.4742965,14.7225368 21.0353868,15.0178033 20.55,15.01 C19.24,14.81 19.87,13.01 20.11,12.24 C20.3921115,11.4261678 20.5669179,10.5790288 20.63,9.72 C20.7538275,8.62162507 20.388087,7.52440342 19.63,6.72 C18.36,5.58 16.5,5.82 14.9,6.42 C10.3136996,8.20098393 6.44588406,11.449949 3.9,15.66 C3.47366403,16.3562676 3.08963589,17.0775726 2.75,17.82 C2.6232016,18.2661981 2.4238743,18.6885017 2.16,19.07 C1.98971647,19.2343998 1.75537422,19.3149549 1.52,19.29 C1.29680963,19.2739602 1.09887593,19.1407356 1,18.94 C0.907777614,18.7650568 0.869497657,18.5666971 0.89,18.37 Z" id="Path" fill="#FF3333"></path><path d="M29.6,45.42 C29.3632072,45.524037 29.1192458,45.6109273 28.87,45.68 C28.37,45.83 27.87,45.93 27.35,46.03 C26.5306467,46.2042928 25.6973037,46.3046956 24.86,46.33 C23.1205084,46.4469915 21.3734367,46.3732188 19.65,46.11 C17.4756059,45.7736766 15.360721,45.1270875 13.37,44.19 C8.32345513,41.7873533 4.30668201,37.6534834 2.05,32.54 C0.93,30 0.31,26.93 1.62,24.46 C2.62,22.46 4.73,21.29 6.75,20.35 C9.75,18.99 15.41,17.43 23.85,16.35 C24.36,16.28 26.79,16.09 27.14,16.46 C27.5223214,17.0005297 27.4633936,17.7371275 27,18.21 C25.910807,18.5551991 24.7930702,18.8028413 23.66,18.95 C22.27,19.22 20.88,19.53 19.49,19.85 C17.6,20.29 15.7,20.76 13.83,21.29 C12.1815809,21.7450412 10.5675277,22.3164761 9,23 C8.0125644,23.4249162 7.13399056,24.0676084 6.43,24.88 C5.81475702,25.5341074 5.52488033,26.4294227 5.64,27.32 C6.28,29.78 9.51,30.05 11.64,30.03 C12.3092322,30.0238537 12.9773377,29.9737458 13.64,29.88 C14.3,29.78 14.95,29.59 15.64,29.55 C16.121148,29.477632 16.5963264,29.7132247 16.83,30.14 C17.32,31.37 15.45,31.73 14.65,31.9 C13.8051907,32.0687795 12.9852785,32.3443238 12.21,32.72 C11.2130618,33.1372659 10.4491646,33.9706083 10.12,35 C9.76,36.67 10.91,38.16 12.22,39.24 C14.7550072,41.2990976 17.7166566,42.7679664 20.89,43.54 C22.4785662,43.9305621 24.1046534,44.1484913 25.74,44.19 C26.56,44.19 27.38,44.19 28.19,44.1 C28.6415319,43.9920419 29.1076209,43.9582673 29.57,44 C29.796981,44.0591354 29.9824858,44.2223796 30.07,44.44 C30.1750019,44.6297775 30.1750019,44.8602225 30.07,45.05 C29.9509018,45.2147486 29.7881046,45.3429082 29.6,45.42 Z" id="Path" fill="#FF3333"></path><path d="M79.11,21.73 C79.34,21.32 79.54,21.03 79.69,21.03 C79.84,21.03 79.9,21.14 79.9,21.38 C79.9129167,21.4762352 79.9129167,21.5737648 79.9,21.67 L76.68,35.85 L81.94,35.85 L85.68,18.31 C85.7395688,18.0474951 85.77,17.7791788 85.77,17.51 C85.77,16.23 84.77,15.15 81.94,15.15 C79.7762384,15.0445591 77.7521275,16.2190915 76.77,18.15 L70.08,30 C69.87,30.38 69.6,30.85 69.37,30.85 C69.14,30.85 69,30.35 69,30 L67.2,18.16 C66.86,15.82 65.37,15.16 63.32,15.16 C61.77,15.16 59.32,15.57 58.73,18.32 L55,35.85 L60.26,35.85 L63.13,21.67 C63.13,21.52 63.27,21.03 63.56,21.03 C63.85,21.03 63.8,21.38 63.86,21.73 L65.55,33.48 C65.78,35.06 66.11,36.08 68.45,36.08 C70.79,36.08 71.51,35.08 72.45,33.48 L79.11,21.73 Z M85.71,35.85 L90.27,35.85 L93.57,20.35 L89,20.35 L85.71,35.85 Z M107.71,35.85 L108.44,32.49 L102.44,32.49 C100.25,32.49 99.55,31.55 99.55,30 C99.5611926,29.3604472 99.6382664,28.7237505 99.78,28.1 C100.34,25.47 101.33,23.71 104.32,23.71 L109.96,23.71 L110.66,20.35 L103.26,20.35 C97.71,20.35 96.04,22.93 95.13,27.52 C94.9494958,28.4528513 94.8524456,29.3999272 94.84,30.35 C94.84,33.63 96.1,35.85 100.25,35.85 L107.71,35.85 Z M110.6,35.85 L115.16,35.85 L116.89,27.85 C117.47,25.13 118.41,23.72 121.39,23.72 L123.2,23.72 L123.9,20.36 L120.83,20.36 C115.98,20.36 113.61,21.65 112.59,26.5 L110.6,35.85 Z M134.28,20.18 C128.28,20.18 125.48,21.18 124.28,27.52 C124.102085,28.3919893 124.014953,29.2800597 124.02,30.17 C124.02,34.53 126.53,36.03 131.47,36.03 C137.47,36.03 140.24,35.03 141.47,28.68 C141.640975,27.8242741 141.718097,26.9524515 141.7,26.08 C141.65,21.7 139.2,20.18 134.23,20.18 L134.28,20.18 Z M128.99,27.81 C129.63,24.73 130.8,23.54 133.87,23.54 C136.21,23.54 137.03,24.39 137.03,26.14 C137.015548,26.89555 136.935244,27.6484011 136.79,28.39 C136.12,31.46 135.01,32.66 131.94,32.66 C129.63,32.66 128.72,31.81 128.72,30.06 C128.715864,29.3044347 128.789586,28.5504538 128.94,27.81 L128.99,27.81 Z M148.99,15.38 L143.6,15.38 L147.02,33.38 C147.31,34.84 148.02,36.13 150.68,36.13 C152.679048,36.2372285 154.554669,35.1604104 155.47,33.38 L166.58,15.43 L160.79,15.43 L152,30.59 C151.83,30.85 151.68,31.02 151.51,31.02 C151.34,31.02 151.21,30.85 151.18,30.59 L148.99,15.38 Z M164.42,35.85 L168.98,35.85 L172.28,20.35 L167.72,20.35 L164.42,35.85 Z M172.19,35.85 L182.5,35.85 C185.57,35.85 186.74,34.85 187.3,32.25 C187.382046,31.8144746 187.428864,31.3730461 187.44,30.93 C187.44,28.63 185.6,27.78 183.44,27.02 L180.35,25.91 C179.5,25.61 178.71,25.32 178.71,24.59 C178.71,23.86 179.53,23.71 180.14,23.71 L188.44,23.71 L189.15,20.35 L179.5,20.35 C176.31,20.35 174.97,21.2 174.35,24.06 C174.26848,24.4854998 174.22166,24.9169185 174.21,25.35 C174.21,27.19 175.38,28.22 177.63,29.04 L180.29,30.04 C181.37,30.42 182.71,30.89 182.71,31.79 C182.71,32.53 182.07,32.53 181.43,32.53 L172.83,32.53 L172.19,35.85 Z M189.55,35.85 L194,35.85 L197.31,20.35 L192.75,20.35 L189.55,35.85 Z M208.91,20.18 C202.91,20.18 200.11,21.18 198.91,27.52 C198.729501,28.3917583 198.639026,29.2797519 198.639992,30.17 C198.639992,34.53 201.16,36.03 206.1,36.03 C212.1,36.03 214.87,35.03 216.1,28.68 C216.266042,27.8235726 216.343118,26.9522763 216.33,26.08 C216.26,21.7 213.81,20.18 208.84,20.18 L208.91,20.18 Z M203.62,27.81 C204.25,24.73 205.43,23.54 208.5,23.54 C210.84,23.54 211.66,24.39 211.66,26.14 C211.640622,26.8952327 211.560362,27.6476723 211.42,28.39 C210.75,31.46 209.64,32.66 206.57,32.66 C204.25,32.66 203.35,31.81 203.35,30.06 C203.339279,29.305124 203.406299,28.5511496 203.55,27.81 L203.62,27.81 Z M217.62,35.81 L222.18,35.81 L224.54,24.69 C224.569912,24.388336 224.720829,24.1116812 224.958278,23.9232297 C225.195726,23.7347783 225.499424,23.6506277 225.8,23.69 L227.8,23.69 C229.64,23.69 230.43,24.37 230.43,25.8 C230.421665,26.2332999 230.374814,26.6650002 230.29,27.09 L228.42,35.83 L232.98,35.83 L235.08,25.92 C235.172782,25.4656618 235.222999,25.0036622 235.23,24.54 C235.23,21.77 233.06,20.33 229.91,20.33 L223.91,20.33 C221.71,20.33 220.8,21.21 220.37,23.26 L217.62,35.81 Z" id="Shape" fill="#898989"></path></g></g></svg> 