<?xml version="1.0" standalone="no"?>
<!DOCTYPE svg PUBLIC "-//W3C//DTD SVG 20010904//EN"
 "http://www.w3.org/TR/2001/REC-SVG-20010904/DTD/svg10.dtd">
<svg version="1.0" xmlns="http://www.w3.org/2000/svg"
 width="198.685957pt" height="47.936538pt" viewBox="0 0 198.685957 47.936538"
 preserveAspectRatio="xMidYMid meet">
<metadata>
Created by potrace 1.12, written by Peter Selinger 2001-2015
</metadata>
<g transform="translate(-0.674470,123.980462) scale(0.100000,-0.100000)"
fill="#000000" stroke="none">
<path d="M145 1216 c-92 -44 -138 -116 -138 -221 0 -97 49 -172 143 -214 44
-20 62 -21 850 -21 788 0 806 1 850 21 95 43 144 117 144 219 0 102 -49 176
-144 219 -44 20 -62 21 -850 21 l-805 0 -50 -24z m1658 -37 c47 -13 106 -63
123 -106 18 -41 18 -105 0 -146 -17 -43 -76 -93 -123 -106 -50 -14 -1554 -15
-1602 -1 -144 41 -190 214 -83 313 60 57 41 56 877 57 508 0 783 -4 808 -11z"/>
<path d="M200 1001 l0 -111 35 0 34 0 3 77 3 78 48 -78 c45 -72 51 -77 83 -77
l34 0 0 110 0 110 -35 0 -34 0 -3 -77 -3 -77 -45 75 c-42 69 -48 74 -83 77
l-37 3 0 -110z"/>
<path d="M490 1090 c0 -16 7 -20 30 -20 23 0 30 4 30 20 0 16 -7 20 -30 20
-23 0 -30 -4 -30 -20z"/>
<path d="M1510 1072 c0 -38 0 -38 -36 -34 -69 8 -111 -73 -66 -127 18 -23 34
-26 120 -23 l52 2 0 110 0 110 -35 0 c-34 0 -35 -1 -35 -38z m-2 -110 c2 -40
-1 -54 -13 -58 -24 -9 -45 15 -45 51 0 49 10 66 34 63 18 -3 21 -11 24 -56z"/>
<path d="M840 1075 c0 -8 -9 -15 -20 -15 -26 0 -26 -16 1 -23 19 -5 20 -12 17
-76 l-3 -71 33 0 32 0 0 75 c0 68 2 75 20 75 11 0 20 5 20 10 0 6 -9 10 -20
10 -11 0 -20 7 -20 15 0 10 -10 15 -30 15 -20 0 -30 -5 -30 -15z"/>
<path d="M1003 1038 c-42 -11 -76 -54 -68 -88 9 -38 50 -70 91 -70 40 0 89 22
97 45 11 28 -39 18 -62 -12 -16 -23 -23 -26 -38 -17 -10 6 -19 23 -21 38 -3
26 -3 26 62 26 72 0 81 9 49 49 -23 28 -70 40 -110 29z m56 -27 c6 -10 7 -21
4 -25 -10 -10 -63 -7 -63 3 0 41 41 56 59 22z"/>
<path d="M1670 1039 c-39 -16 -60 -40 -60 -70 0 -41 9 -58 41 -74 77 -40 159
7 147 85 -6 44 -81 78 -128 59z m64 -40 c5 -14 6 -43 2 -63 -13 -70 -66 -55
-66 19 0 24 3 51 6 60 10 24 47 14 58 -16z"/>
<path d="M490 965 l0 -75 30 0 30 0 0 75 0 75 -30 0 -30 0 0 -75z"/>
<path d="M590 965 l0 -75 35 0 35 0 0 54 c0 62 16 84 49 66 17 -9 21 -20 21
-65 0 -54 0 -55 30 -55 30 0 30 1 30 55 0 42 -5 60 -20 75 -22 22 -79 27 -97
9 -8 -8 -13 -8 -17 0 -4 6 -20 11 -37 11 l-29 0 0 -75z"/>
<path d="M1160 965 l0 -75 30 0 c29 0 30 1 30 49 0 53 21 87 47 77 8 -3 17 -6
19 -6 2 0 4 -27 4 -60 l0 -60 35 0 35 0 0 49 c0 82 -56 125 -121 91 -13 -7
-19 -7 -19 0 0 5 -13 10 -30 10 l-30 0 0 -75z"/>
</g>
</svg>
