<svg version="1.1" id="Layer_1" xmlns:x="ns_extend;" xmlns:i="ns_ai;" xmlns:graph="ns_graphs;" xmlns="http://www.w3.org/2000/svg" xmlns:xlink="http://www.w3.org/1999/xlink" x="0px" y="0px" viewBox="0 0 440.8 100" style="enable-background:new 0 0 440.8 100;" xml:space="preserve">
 <style type="text/css">
  .st0{fill:#CC2028;}
	.st1{fill:#FFFFFF;}
	.st2{fill:#231F20;}
	.st3{fill:#039648;}
 </style>
 <metadata>
  <sfw xmlns="ns_sfw;">
   <slices>
   </slices>
   <sliceSourceBounds bottomLeftOrigin="true" height="100" width="440.8" x="-40.4" y="-245.5">
   </sliceSourceBounds>
  </sfw>
 </metadata>
 <g>
  <path class="st0" d="M413.2,100H2.5C1.1,100,0,98.9,0,97.5l0,0V2.5C0,1.1,1.1,0,2.5,0h438.3L413.2,100z">
  </path>
  <path class="st1" d="M158.1,78.6c3,0,5.1-0.4,6.8-1.3c2.1-1.2,3.5-3.3,4.6-6.7c0,0,0-0.1,0-0.1h0c0.1-0.3,0.2-0.7,0.4-1.4l8.8-28.4
		h-24.2v-8.8h-22.6l-0.8-0.6c-3.2-2.4-7.8-1.7-10.1,1.5c-0.9,1.3-1.4,2.8-1.4,4.3c0,0.3,0,0.7,0.1,1l0.7,5l-4.6-2
		c-1.8-0.7-3.7-1.1-5.6-1.1c-2.2,0-4.4,0.5-6.3,1.5l-3,1.5l-1-3.1c-0.5-1.7-1.5-3.2-2.7-4.4c-2.3-2.3-5.7-3.6-9.5-3.6H77.1l0.5-3.3
		c0.1-0.3,0.1-0.7,0.1-1c0-4-3.3-7.2-7.3-7.2c-2.9,0-5.5,1.7-6.7,4.4l-1.4,3.3l-2.9-2.1c-3.6-2.6-7.9-3.9-12.6-3.9
		c-5.7,0-11.1,2.2-15.2,6.3c-4.8,4.8-7.4,11.7-7.4,19.4c0,7.7,2.5,14.5,7,18.9c3.9,3.9,9.3,6.1,15.1,6.1c8.2,0,14.7-3.4,18.7-9.9
		l5.3-8.3v16.2h27.6l2.5-3.2l2.2,1.9c1.4,1.1,2.1,1.5,3,1.7s2.2,0.3,4.1,0.3h0.4c2.1,0,4.1-0.4,6-1.2l4-1.7v2.2h31.6v7.9L158.1,78.6
		z">
  </path>
  <path class="st1" d="M157.3,37.8V29h-24.6c-4.5-3.3-10.8-2.4-14.1,2c-1.3,1.7-2,3.9-2,6.1c0,0.5,0,0.9,0.1,1.4
		c-2.1-0.9-4.4-1.3-6.7-1.3c-2.6,0-5.2,0.6-7.6,1.8c-0.7-2.1-1.8-4-3.4-5.5c-2.9-2.9-7-4.4-11.5-4.4h-7.1c0.1-0.5,0.1-0.9,0.1-1.4
		c0-5.6-4.5-10.1-10.1-10.1c-4.1,0-7.7,2.4-9.3,6.2c-4.1-2.9-8.9-4.5-14.3-4.5c-6.4,0-12.6,2.5-17.2,7.1c-5.3,5.4-8.3,12.9-8.3,21.4
		s2.8,15.9,7.8,21c4.4,4.4,10.5,6.9,17.1,6.9c9.3,0,16.7-4.2,21.1-11.2v9.2h31.8l1.6-2c3.1,2.6,5,2.6,9.4,2.6c2.4,0,4.9-0.5,7.1-1.4
		v0.7h31.5v7.9h9.1c5.8,0,11.5-1.2,14.2-10.1l10.3-33.5L157.3,37.8z">
  </path>
  <path class="st2" d="M146.8,83.5v-7.9h-31.3c-1.7,0.5-3.5,0.7-5.3,0.7l0,0c-2.2,0-3.9,0-5.7-0.4l0,0c-1.2-0.3-2.3-0.8-3.4-1.5l0,0
		l-0.9,1.2H65.4v-5.5c-4.8,4.8-11.5,7.5-19.1,7.5l0,0c-7.1,0-13.7-2.6-18.5-7.5l0,0c-5.5-5.5-8.4-13.5-8.4-22.4l0,0
		c0-8.9,3.1-17.1,8.9-22.8l0,0c4.9-4.9,11.6-7.7,18.6-7.7l0,0c4.8-0.1,9.5,1.2,13.6,3.6l0,0c0.4-0.6,0.9-1.2,1.5-1.8l0,0
		c2.3-2.3,5.4-3.6,8.6-3.6l0,0c3.2,0,6.3,1.3,8.6,3.5l0,0c2.1,2.1,3.4,5,3.5,8h5c5,0,9.7,1.8,13,5l0,0c1.2,1.3,2.3,2.7,3,4.3l0,0
		c2.1-0.8,4.3-1.1,6.5-1.1l0,0c1.6,0,3.1,0.2,4.6,0.5l0,0c0.3-2.7,1.5-5.2,3.5-7.2l0,0c2.3-2.3,5.4-3.6,8.6-3.5l0,0
		c2.4,0,4.7,0.7,6.7,2h25.9v8.9h25.9l-0.8,2.6c0,0-8.7,28.1-10.1,32.8l0,0l-0.2,0.7c-1.4,4.8-3.9,7.9-6.9,9.5l0,0
		c-3,1.7-6.2,2-9.2,2L146.8,83.5L146.8,83.5z M150.9,71.5v7.9h7.1c2.7,0,5.2-0.3,7.2-1.5l0,0c2-1.1,3.7-3.1,5-7.1l0,0l0-0.1l0,0
		c0,0,2.6-8.4,5.2-16.7l0,0l4.4-14.1h-22.5v-2l0,0v2h-2V31h-23.2l-0.5-0.4c-1.4-1-3.1-1.6-4.8-1.6l0,0c-2.1,0-4.2,0.8-5.7,2.4l0,0
		c-1.5,1.5-2.4,3.6-2.4,5.7l0,0c0,0.4,0,0.7,0.1,1.1l0,0l0.5,3.5l-3.3-1.4c-1.9-0.8-3.9-1.2-5.9-1.1l0,0c-2.3,0-4.6,0.5-6.7,1.6l0,0
		l-2.1,1.1l-0.7-2.2c-0.6-1.8-1.6-3.4-2.9-4.7l0,0c-2.4-2.4-6-3.8-10.1-3.8h-9.5l0.3-2.3c0.1-0.4,0.1-0.8,0.1-1.1l0,0
		c0-2.1-0.8-4.2-2.4-5.7l0,0c-1.5-1.5-3.6-2.4-5.7-2.4l0,0c-2.1,0-4.2,0.8-5.7,2.4l0,0c-0.7,0.7-1.3,1.6-1.7,2.6l0,0l-1,2.3
		l-2.1-1.5c-3.7-2.7-8.1-4.1-13.1-4.1l0,0c-5.9,0-11.6,2.3-15.8,6.5l0,0c-4.9,4.9-7.7,12-7.7,20l0,0c0,8,2.6,14.9,7.2,19.5l0,0
		c4.1,4.1,9.6,6.3,15.6,6.3l0,0c8.7,0,15.3-3.8,19.4-10.3l0,0l3.7-5.9v14.2h28.8l2.3-2.8l1.6,1.3c1.4,1.2,2.3,1.6,3.3,1.9l0,0
		c1.1,0.3,2.5,0.3,4.8,0.3l0,0c2.2,0,4.3-0.4,6.3-1.2l0,0l2.8-1.2v1.7L150.9,71.5z">
  </path>
  <path class="st3" d="M73.7,35.2h14.1c4.9,0,9.7,2.6,9.7,9.1c0,3.5-1.4,6.8-4.3,8.1v0.1c2.9,0.8,3.8,4.7,4,7.8
		c0.1,1.4-0.7,6.1,0.3,7.3h-7.1c-0.6-1.1,0.1-4.3,0-5.2c-0.2-3.3-0.7-6.6-4-6.6h-5.4v11.8h-7.2V35.2z M80.9,49.3h6
		c2.2,0,3.3-1.4,3.3-3.8c0-2.5-1.6-3.5-3.6-3.5h-5.7V49.3L80.9,49.3z">
  </path>
  <path class="st3" d="M105.8,57.7c0.1,3.2,1.8,5.4,4.7,5.4c1.7,0.1,3.3-1,3.9-2.6h6.4c-1.3,5.5-5.8,7.8-10.5,7.8
		c-6.9,0-11.5-4.6-11.5-12.5c0-7.2,5.1-12.4,11.3-12.4c7.5,0,11.3,6.4,11,14.4L105.8,57.7z M114.4,53.4c-0.1-2.6-1.8-4.8-4.1-4.8
		c-2.4,0-4,2-4.5,4.8H114.4z">
  </path>
  <polygon class="st3" points="123.6,44.1 130.2,44.1 130.2,67.6 123.6,67.6 123.6,44.1 	">
  </polygon>
  <polygon class="st3" points="134.3,35.2 140.8,35.2 140.8,67.6 134.3,67.6 134.3,35.2 	">
  </polygon>
  <polygon class="st3" points="144.3,35.2 150.8,35.2 150.8,67.6 144.3,67.6 144.3,35.2 	">
  </polygon>
  <path class="st3" d="M166.6,69.7c-1.6,5.2-3.9,5.8-8.4,5.8h-3.1v-6.3h2.3c1.4,0.1,2.5-1,2.6-2.3c0-0.1,0-0.2,0-0.3
		c0-1.3-1.3-4.9-1.7-6.2l-5.2-16.4h6.9l3.8,15.4h0.1l3.8-15.4h6.7L166.6,69.7L166.6,69.7z">
  </path>
  <path class="st3" d="M122.9,37.2c0-2.2,1.8-4,4-4c2.2,0,4,1.8,4,4c0,2.2-1.8,4-4,4C124.7,41.3,122.9,39.5,122.9,37.2
		C122.9,37.2,122.9,37.2,122.9,37.2z">
  </path>
  <path class="st3" d="M66.2,47.2c0,13.9-7.9,22.3-19.6,22.3c-10.9,0-18.9-8.4-18.9-21.8c0-12.7,8-22.4,19.4-22.4
		C58.4,25.3,66.2,34.2,66.2,47.2z M46.6,29.9c-6.7,0-10.3,5.7-10.3,16.3c0,7.8,2.3,18.6,11.2,18.6c7.1,0,9.9-6.5,9.9-16.8
		C57.5,37.1,53.4,29.9,46.6,29.9L46.6,29.9z">
  </path>
  <path class="st3" d="M74.7,27.7c0.1-2.2-1.6-4.1-3.9-4.2c-2.2-0.1-4.1,1.6-4.2,3.9c0,0.1,0,0.2,0,0.3c0,0.2,0,0.3,0,0.5
		c0,0.4,0.1,0.7,0.3,1c0,0.1,0.1,0.2,0.1,0.3v0l0.1,0.2c0.6,1,1.3,1.9,2.1,2.8l-1.5,1.1l1.5,2.5c0,0,4.8-3.1,5.4-7.7
		C74.7,28.2,74.7,28,74.7,27.7L74.7,27.7z">
  </path>
  <path class="st3" d="M40.4,48.1c-0.6,0.6-0.8,1.5-0.6,2.3c0,0,0.5,2,3,2c1.1-0.1,1.5-1.1,3.5-1.3h0.4v2c-0.1,0.7-0.4,1.4-0.9,2
		c-0.4,0.5-0.3,1.2,0.1,1.7c0,0,0.9,1,2-0.4c0.8-1.1,1.3-2.5,1.3-3.9c0-0.6,0-1.3,0-1.3s3.4,2.2,5.5-0.9c0.4-0.9,0.3-1.9-0.3-2.6
		c0,0,1.5-1.8-0.4-3.5c-0.9-0.7-2.2-0.7-3.1,0c0,0,1.7-2.9-0.9-4.2c-1.8-0.8-2.9,0.4-2.9,0.4s-1.7-1.8-3.7,0c0,0-1.8,1.8,0.5,3.9
		c0,0-2-1.7-3.9,0.4C39.3,45.9,39.5,47.3,40.4,48.1z">
  </path>
  <path class="st1" d="M204.2,37.7h-10.1L186.6,68h8.4l1-5h6.2l1,5h8.4L204.2,37.7z M196.8,56.8l1.3-7.2c0.3-1.9,0.6-3.9,0.8-5.8h0.2
		c0.2,2,0.5,4,0.9,6l1.3,7H196.8z">
  </path>
  <path class="st1" d="M231.5,64.1c0.6-1.5,1-3.1,1-4.7l0,0c0-0.7,0-2.6,0-2.6V37.7h-8.1v21.9c0,1.8-0.2,3.8-2.4,3.8
		s-2.3-2.2-2.3-3.9V37.7h-8.1v19.1c0,0.9,0.1,2.6,0.1,2.6c0.1,1.6,0.4,3.2,1,4.7l0,0c1.3,3.1,4.1,4.7,9.5,4.7c3.6,0,7.2-1,9.1-4.2
		C231.4,64.4,231.5,64.2,231.5,64.1L231.5,64.1z">
  </path>
  <polygon class="st1" points="248.9,44.3 254.9,44.3 254.9,37.7 234.7,37.7 234.7,44.3 240.9,44.3 240.9,68 248.9,68 	">
  </polygon>
  <path class="st1" d="M277.4,52.9c0-8.4-0.2-15.9-10.9-15.9s-10.9,7.4-10.9,15.9c0,2.2,0.1,4.3,0.3,6.5l0,0c0.2,1.6,0.6,3.2,1.3,4.7
		l0,0c1.5,2.8,4.2,4.7,9.3,4.7c5.3,0,8-1.8,9.4-4.7c0.7-1.5,1.1-3.1,1.2-4.7l0,0C277.3,57.2,277.4,55.1,277.4,52.9z M269.1,54.5
		c0,1.6-0.2,4.9-0.2,4.9c0,0.5-0.1,1-0.2,1.5c-0.2,1.4-0.8,2.5-2.3,2.5c-1.5,0-2.2-1.2-2.3-2.5c-0.1-0.5-0.2-1.5-0.2-1.5
		c-0.2-1.7-0.2-3.3-0.2-5v-1.5c0-1.9,0-3.7,0.1-5.5c0-1.8,0-5,2.5-5c1.9,0,2.4,1.8,2.5,3.4c0.2,2.4,0.2,4.7,0.2,7.1V54.5z">
  </path>
  <polygon class="st1" points="368.5,44.3 374.6,44.3 374.6,37.7 354.4,37.7 354.4,44.3 360.5,44.3 360.5,68 368.5,68 	">
  </polygon>
  <path class="st1" d="M295.2,56.4h2.7c6.2,0,10.1-3,10.1-9.4c0-7.1-4-9.4-10.6-9.4h-10.2V68h8L295.2,56.4z M295.1,50.7v-7.4
		c3,0,4.6,0.4,4.6,3.8C299.7,50.3,298.1,50.7,295.1,50.7z">
  </path>
  <path class="st1" d="M323.1,37.7H313L305.4,68h8.4l1-5h6.2l1,5h8.4L323.1,37.7z M315.6,56.7l1.3-7.2c0.3-1.9,0.6-3.9,0.8-5.8h0.2
		c0.2,2,0.5,4,0.9,6l1.3,7L315.6,56.7z">
  </path>
  <path class="st1" d="M352.7,59.4c-0.2-3.3-0.9-5.8-5-6.4c3.8-0.8,5.2-3.3,5.2-7c0-6.8-3.8-8.3-9.8-8.3h-11.1V68h8V55.7
		c4.3,0,4.6,0.9,4.7,3.6l0,0c0,0.5,0.1,4.5,0.1,4.7l0,0c0,1.3,0.1,2.8,0.7,3.9h8.5v-0.4c-1.1-0.5-1.2-2-1.2-3.4v-0.2
		C352.9,62.9,352.8,59.8,352.7,59.4z M340.1,50.4v-7.1c2.9,0,4.9,0.1,4.9,3.6C345,50.1,342.9,50.4,340.1,50.4L340.1,50.4z">
  </path>
  <path class="st1" d="M376.6,64c1.3,3.4,4.5,4.6,9.5,4.6c4.8,0,8.3-1.3,9.9-4.6c0.6-1.5,0.9-3.1,0.9-4.7l0,0c0,0,0-0.1,0-0.2
		c0-10.9-12.9-8.3-12.9-14.2c0-1.5,0.8-2.6,2.4-2.6c2.1,0,2.2,2.3,2.2,3.8h7.6c0-6.6-3.6-9.2-9.9-9.2c-5.8,0-10.1,2.6-10.1,8.9
		c0,10.9,11.2,8.4,12.6,13.4l0,0c0.1,0.4,0.2,0.7,0.1,1.1c0,1.6-1,2.9-2.8,2.9c-2.3,0-2.5-2.3-2.5-4l0,0c0-0.2,0-0.4,0-0.5h-7.7
		c0,0.1,0,0.3,0,0.5v0l0,0C375.8,60.9,376.1,62.5,376.6,64L376.6,64z">
  </path>
  <path class="st1" d="M177.6,77.8c1.5,0,2.7-1.2,2.7-2.7c0-1.5-1.2-2.7-2.7-2.7c-1.5,0-2.7,1.2-2.7,2.7
		C174.9,76.6,176.1,77.8,177.6,77.8C177.6,77.8,177.6,77.8,177.6,77.8z M177.6,77.3c-1.2,0-2.2-1-2.2-2.2c0-1.2,1-2.2,2.2-2.2
		c1.2,0,2.2,1,2.2,2.2c0,0,0,0,0,0C179.8,76.3,178.8,77.3,177.6,77.3z M178.3,75.3c0.5,0,0.8-0.3,0.8-0.8c0-0.3-0.1-0.6-0.4-0.8
		c-0.2-0.1-0.5-0.2-0.8-0.2h-1.4v3h0.6v-1.2h0.6l0.7,1.2h0.7L178.3,75.3L178.3,75.3z M177.1,74.9v-0.8h0.7c0.3,0,0.7,0,0.7,0.4
		s-0.2,0.5-0.6,0.4H177.1z">
  </path>
 </g>
</svg>