<?xml version="1.0" standalone="no"?>
<!DOCTYPE svg PUBLIC "-//W3C//DTD SVG 20010904//EN"
 "http://www.w3.org/TR/2001/REC-SVG-20010904/DTD/svg10.dtd">
<svg version="1.0" xmlns="http://www.w3.org/2000/svg"
 width="447.000000pt" height="447.000000pt" viewBox="0 0 447.000000 447.000000"
 preserveAspectRatio="xMidYMid meet">
<metadata>
Created by potrace 1.12, written by Peter Selinger 2001-2015
</metadata>
<g transform="translate(0.000000,447.000000) scale(0.100000,-0.100000)"
fill="#000000" stroke="none">
<path d="M0 2235 l0 -2235 2235 0 2235 0 0 2235 0 2235 -2235 0 -2235 0 0
-2235z m1360 715 l0 -480 -79 53 c-489 322 -640 423 -641 429 0 7 700 478 713
478 4 0 7 -216 7 -480z m351 309 c397 -258 459 -299 459 -307 -1 -4 -57 -43
-126 -87 -68 -44 -230 -149 -359 -232 -129 -84 -240 -153 -245 -153 -6 0 -10
168 -10 475 0 261 4 475 8 475 5 0 128 -77 273 -171z m1329 -304 c0 -290 -4
-475 -9 -475 -6 0 -85 48 -176 108 -91 59 -197 127 -236 152 -38 25 -125 81
-194 125 -68 44 -123 84 -121 90 1 5 55 43 119 85 64 41 226 146 358 233 133
86 246 157 250 157 5 0 9 -214 9 -475z m444 235 c190 -128 346 -235 345 -239
0 -5 -202 -140 -640 -428 l-79 -53 0 481 c0 405 2 480 14 476 7 -3 169 -110
360 -237z m-2536 -531 c207 -139 381 -255 385 -259 5 -5 -167 -125 -381 -268
-214 -144 -393 -258 -396 -255 -11 11 -7 1033 4 1033 6 0 180 -113 388 -251z
m2972 -262 c0 -283 -3 -516 -6 -520 -6 -5 -767 500 -775 515 -5 9 750 516 769
517 9 1 12 -108 12 -512z m-2560 -562 c0 -261 -3 -475 -7 -475 -3 0 -166 106
-361 236 -299 199 -353 238 -341 249 20 19 692 465 701 465 4 0 8 -214 8 -475z
m282 349 c106 -69 212 -138 236 -153 106 -64 285 -187 286 -195 1 -5 -73 -58
-164 -117 -418 -272 -536 -348 -552 -354 -17 -7 -18 20 -18 469 0 283 4 476 9
476 5 0 96 -57 203 -126z m1398 -350 c0 -446 -1 -476 -17 -470 -17 7 -89 52
-293 186 -58 38 -176 115 -263 171 -86 56 -160 105 -163 110 -5 8 72 60 411
280 71 46 168 110 215 141 47 31 91 57 98 57 9 1 12 -100 12 -475z m186 409
c54 -36 213 -142 352 -235 138 -92 252 -170 252 -173 0 -6 -704 -475 -713
-475 -4 0 -7 214 -7 475 0 261 4 475 8 475 5 0 53 -30 108 -67z m-1026 -969
c0 -414 -2 -475 -15 -471 -24 10 -705 469 -704 476 0 9 692 470 707 470 9 1
12 -101 12 -475z m218 393 c70 -45 231 -150 359 -232 128 -83 233 -153 233
-157 0 -3 -24 -22 -52 -41 -75 -49 -295 -192 -418 -272 -58 -37 -138 -90 -178
-116 -41 -27 -78 -49 -83 -49 -5 0 -9 194 -9 475 0 318 3 475 10 475 6 0 68
-37 138 -83z"/>
</g>
</svg>
