<svg width="2400" height="1600" viewBox="0 0 1800 1200" xmlns="http://www.w3.org/2000/svg">
  <g/>
  <path d="M997.32 274.8c11.79-5.46 27.39 2.82 27.9 16.14 2.58 15.6-17.22 28.17-30.18 18.96-13.41-7.47-12-29.4 2.28-35.1m-143.97 50.97c12.84-5.94 29.19 4.92 27.69 19.2.21 14.49-18.42 24.51-30.33 15.99-13.41-7.59-11.82-29.76 2.64-35.19m288.12.15c11.7-5.64 27.45 2.79 27.93 16.08 2.76 15.66-17.34 28.23-30.21 18.9-13.47-7.41-11.73-29.16 2.28-34.98M993.9 367.41c17.07-9.48 40.5 6.21 37.71 25.65.09 19.47-25.11 31.8-40.65 20.22-16.92-9.96-15.12-38.13 2.94-45.87m-83.61 29.82c16.29-10.02 39.96 3.54 39.18 22.74 1.23 18.93-21.06 32.97-37.83 24.36-18.9-7.89-19.62-38.07-1.35-47.1m164.91 0c16.29-10.02 39.84 3.48 39.12 22.68 1.5 19.77-22.92 33.87-39.57 23.46-17.34-8.88-17.13-37.62.45-46.14M772.08 456.9c12-7.14 29.49 2.79 28.71 16.92 2.07 15.36-17.07 25.92-29.61 17.97-12.84-6.96-12.51-28.74.9-34.89m449.4-.48c13.32-6.9 30.72 5.94 27.99 20.76-1.29 14.91-21.36 22.83-32.4 12.66-11.34-8.55-8.7-28.02 4.41-33.42m-352.92 13.59c13.2-4.8 29.43 2.55 33.69 16.11 6.42 15.63-6.27 34.92-23.16 35.16-12.54 1.23-24.78-7.95-27.51-20.16-3.36-12.75 4.53-26.97 16.98-31.11m257.49-.45c18.36-6.15 38.25 12.24 33.48 30.96-3.27 18.84-28.68 27.69-42.84 14.82-16.08-12.27-10.23-40.77 9.36-45.78m-135.09 20.61c19.74-9.84 45.99 3.9 49.08 25.68 4.26 19.68-11.55 40.74-31.8 41.31-19.71 2.4-38.88-15.42-37.8-35.25-.39-13.5 8.43-26.19 20.52-31.74" fill="#f7323f"/>
  <path d="M96.21 591.48c23.82-.06 47.67 0 71.49-.06-.06 109.05 0 218.1-.03 327.18-23.82-.03-47.61.03-71.43-.03 0-109.02.06-218.07-.03-327.09m153.27-.03c25.8-.09 51.6.21 77.37-.15 29.19 45.63 56.79 92.25 86.25 137.67 28.23-45.96 56.88-91.65 85.32-137.49 26.07 0 52.14-.12 78.21.06-.03 109.02 0 218.01 0 327-23.97.09-47.91.06-71.88.03-.03-70.98.09-141.96-.06-212.97-31.53 46.38-60.87 94.32-93.33 140.04-30.39-46.32-61.02-92.49-91.32-138.87-.15 70.62-.03 141.21-.06 211.8-23.49.03-46.98 0-70.47 0-.06-109.05 0-218.07-.03-327.12m405.18-.06c45.81.21 91.62-.12 137.46.18 33.72.03 68.82 10.95 92.58 35.79 33 35.4 37.26 92.4 14.94 134.43-20.37 37.41-63.6 55.65-104.49 58.2-22.8.66-45.63.09-68.43.27.06 32.79.06 65.55 0 98.31-24.03 0-48.06.06-72.06 0-.03-109.05-.06-218.1 0-327.18m72.15 64.89c-.03 33.33-.21 66.69.09 100.02 28.47-1.74 58.56 4.77 85.71-6.18 28.92-12.03 36.45-53.34 16.53-76.44-11.52-12.9-29.55-16.83-46.11-17.34-18.75-.18-37.47.03-56.22-.06m396.15-64.83c22.23.06 44.52-.12 66.78.12 50.73 66.75 101.58 133.47 152.31 200.25.36-66.81.03-133.62.15-200.43 23.85.15 47.67.03 71.52.06.06 109.05.03 218.07 0 327.12-20.4.09-40.8-.09-61.2.09-52.89-68.76-105.33-137.91-157.77-207.03-.48 68.97-.03 137.94-.24 206.91-23.91-.06-47.82.36-71.73-.21.36-108.96.06-217.92.18-326.88m430.35-1.05c24.09 0 48.18.03 72.27-.03.18 74.19-.03 148.38.12 222.57.27 15.48-2.7 30.99-8.85 45.21-21.69 51.33-84.93 74.52-136.95 61.5.3-22.14-.21-44.28.27-66.39 17.94 5.16 39.57 6.96 55.29-4.95 12.6-9.57 17.94-25.98 17.79-41.34.12-72.18-.06-144.39.06-216.57m-583.11 4.44c22.2 11.31 49.05 10.29 71.43.03.45 107.91.09 215.82.18 323.7-24.03 0-48.06.03-72.09 0 .27-107.91-.66-215.85.48-323.73" fill="#53575a"/>
</svg>
