<svg width="146" height="20" viewBox="0 0 146 20" fill="none" xmlns="http://www.w3.org/2000/svg" class="h-small-s3 w-[137px] [&amp;&amp;]:md:h-small-s4 [&amp;&amp;]:lg:h-medium-m1"><path d="M19.8189 6.70028C19.8189 3.34012 17.5453 0.0805664 12.6559 0.0805664H0V20.0001H4.26559V3.64193H12.0322C14.4266 3.64193 15.5533 4.80894 15.5533 6.68016C15.5533 8.59163 14.4064 9.75863 12.0322 9.75863H8.7324C7.24346 9.75863 6.39839 10.6037 6.39839 12.0926V13.3401H8.77263C9.87927 13.3401 10.7042 13.7023 11.3883 14.5876L15.5936 19.9598H20.825L14.9698 12.5152C18.0684 11.8109 19.8189 9.75863 19.8189 6.70028Z" fill="black"></path><path d="M56.3984 15.4125L49.1751 0H44.6278L54.1248 19.9195H58.6721L68.1892 0H63.6218L56.3984 15.4125Z" fill="black"></path><path d="M35.2918 0H31.0262V19.9195H35.2918V0Z" fill="black"></path><path d="M141.469 0V14.7887L129.557 0H124.668V19.9195H128.793V5.13078L140.704 19.9195H145.594V0H141.469Z" fill="black"></path><path d="M100.986 0L91.2071 19.9195H95.7544L96.9817 17.3642C97.4848 16.2777 98.2896 15.7948 99.4767 15.7948H106.881L105.996 13.9235C105.453 12.7565 104.567 12.2133 103.259 12.2133H99.4767L103.259 4.3662L110.764 19.9195H115.312L105.533 0H100.986Z" fill="black"></path><path d="M81.8509 0H77.5853V19.9195H81.8509V0Z" fill="black"></path></svg>