<?xml version="1.0" encoding="UTF-8"?>
<svg xmlns="http://www.w3.org/2000/svg" width="146" height="46" viewBox="0 0 146 46" fill="none">
  <g clip-path="url(#clip0_1309_259)">
    <path d="M32.0121 18.246L19.6089 26.9425C19.3608 27.1164 19.0303 27.1174 18.7812 26.9436L14.1756 23.7352C13.5533 23.302 12.7276 23.303 12.1073 23.7383L6.39225 27.7459L18.7812 36.4323C19.0303 36.6072 19.3618 36.6072 19.611 36.4323L36.8658 24.3291C37.8308 23.6518 38.4054 22.5475 38.4054 21.3689V14.9238C38.4054 13.8631 37.8878 12.8696 37.0193 12.2615L21.0621 1.08777C19.9425 0.303738 18.4507 0.303738 17.3311 1.0898L1.38401 12.2757C0.516587 12.8838 0 13.8774 0 14.937V20.0591C0 21.1899 1.27418 21.8519 2.19956 21.2021L18.7822 9.56468C19.0313 9.38977 19.3629 9.38977 19.611 9.56468L32.0121 18.247V18.246Z" fill="url(#paint0_linear_1309_259)"></path>
    <path d="M18.7812 36.4334L6.39225 27.747L18.7822 19.0402C19.0303 18.8653 19.3618 18.8653 19.61 19.0382L24.4352 22.4001C24.9324 22.7469 25.5934 22.7458 26.0897 22.3981L32.0111 18.2471L19.61 9.56474C19.3608 9.39085 19.0293 9.39085 18.7812 9.56474L1.53857 21.6659C0.57455 22.3421 0 23.4465 0 24.6251V31.0611C0 32.1207 0.516587 33.1132 1.38299 33.7213L17.3301 44.9103C18.4507 45.6963 19.9425 45.6963 21.0631 44.9103L37.0214 33.7162C37.8888 33.1081 38.4054 32.1146 38.4054 31.055V25.9359C38.4054 24.8051 37.1312 24.1421 36.2048 24.7919L19.61 36.4323C19.3608 36.6073 19.0293 36.6073 18.7802 36.4323L18.7812 36.4334Z" fill="url(#paint1_linear_1309_259)"></path>
    <path d="M56.7961 16.1572C59.1665 15.5908 60.5647 13.9627 60.5647 11.4022C60.5647 8.11453 58.3052 6.42139 54.6921 6.42139H48.7585C48.4575 6.42139 48.2124 6.66646 48.2124 6.96746V22.3217H51.1035V16.3881H53.724L57.452 22.3217H60.7447L56.7961 16.1582V16.1572ZM51.1035 13.8926V8.91178H54.5365C56.6161 8.91178 57.7184 9.79344 57.7184 11.4022C57.7184 13.0109 56.611 13.8926 54.5365 13.8926H51.1035Z" fill="#0E4343"></path>
    <path d="M76.2596 22.3207L71.9246 10.429H73.9838C74.4546 10.429 74.8705 10.73 75.021 11.1754L77.6619 19.0574L80.2825 11.1795C80.433 10.733 80.8489 10.428 81.3197 10.428H83.3291L78.99 22.3196H76.2586L76.2596 22.3207Z" fill="#0E4343"></path>
    <path d="M88.6414 22.5719C85.2989 22.5719 82.9285 20.0815 82.9285 16.3881C82.9285 12.6947 85.304 10.2043 88.6414 10.2043C91.9789 10.2043 94.3544 12.6947 94.3544 16.3881C94.3544 20.0815 91.984 22.5719 88.6414 22.5719ZM88.6414 20.2869C90.4708 20.2869 91.623 18.8134 91.623 16.3881C91.623 13.9628 90.4708 12.4893 88.6414 12.4893C86.812 12.4893 85.6599 13.9628 85.6599 16.3881C85.6599 18.8134 86.812 20.2869 88.6414 20.2869Z" fill="#0E4343"></path>
    <path d="M98.6143 22.3207H95.9032V6.42041H98.6143V22.3258V22.3207Z" fill="#0E4343"></path>
    <path d="M110.305 22.3207H107.594V21.0527C106.917 21.8499 105.899 22.5709 104.366 22.5709C101.881 22.5709 100.347 20.8717 100.347 18.3162V10.4382H102.512C102.813 10.4382 103.058 10.6833 103.058 10.9843V17.7294C103.058 19.1775 103.69 20.11 105.158 20.11C106.375 20.11 107.594 19.2029 107.594 17.5047V10.9853C107.594 10.6843 107.839 10.4392 108.14 10.4392H110.305V22.3309V22.3207Z" fill="#0E4343"></path>
    <path d="M112.168 12.7394V19.329C112.168 21.7543 113.386 22.4509 115.646 22.4509C116.348 22.4509 117.024 22.3807 117.52 22.2902V20.0052C117.115 20.05 116.863 20.0754 116.413 20.0754C115.441 20.0754 114.835 19.9605 114.835 18.8978V12.7344H117.32V10.424H114.835V5.82349L112.404 7.5268C112.259 7.62747 112.168 7.7973 112.168 7.97322V12.7384V12.7394Z" fill="#0E4343"></path>
    <path d="M119.054 6.42041H121.856V9.20673H119.054V6.42041ZM121.81 22.3258H119.099V10.9802C119.099 10.6792 119.344 10.4341 119.645 10.4341H121.805V22.3258H121.81Z" fill="#0E4343"></path>
    <path d="M128.64 22.5719C125.298 22.5719 122.927 20.0815 122.927 16.3881C122.927 12.6947 125.298 10.2043 128.64 10.2043C131.983 10.2043 134.353 12.6947 134.353 16.3881C134.353 20.0815 131.983 22.5719 128.64 22.5719ZM128.64 20.2869C130.47 20.2869 131.622 18.8134 131.622 16.3881C131.622 13.9628 130.47 12.4893 128.64 12.4893C126.811 12.4893 125.659 13.9628 125.659 16.3881C125.659 18.8134 126.811 20.2869 128.64 20.2869Z" fill="#0E4343"></path>
    <path d="M135.51 10.9761C135.51 10.6751 135.756 10.4301 136.057 10.4301H138.222V11.6981C138.898 10.9009 139.96 10.2053 141.499 10.2053C143.984 10.2053 145.473 11.929 145.473 14.4845V22.3217H142.762V15.2807C142.762 13.8072 142.175 12.7455 140.682 12.7455C139.465 12.7455 138.222 13.6526 138.222 15.3509V22.3268H135.51V10.9761Z" fill="#0E4343"></path>
    <path d="M69.8349 18.5225C69.2786 19.6096 68.3014 20.2563 67.0089 20.2563C65.27 20.2563 64.0527 19.0137 63.8473 16.9687H71.6093C71.9104 16.9687 72.1554 16.7236 72.1554 16.4226V16.0616C72.1554 12.7994 70.326 10.1941 66.894 10.1941C63.4619 10.1941 61.2461 12.8899 61.2461 16.3779C61.2461 20.0458 63.6165 22.5617 67.0038 22.5617C69.119 22.5617 70.8375 21.5692 71.7741 19.876L69.8298 18.5134L69.8349 18.5235V18.5225ZM66.8685 12.4892C68.5871 12.4892 69.3996 13.6221 69.4189 14.9349H63.9765C64.3822 13.3262 65.4693 12.4892 66.8675 12.4892H66.8685Z" fill="#0E4343"></path>
    <path d="M60.2983 24.3902L56.365 36.111L52.4367 24.3902C52.3614 24.1644 52.1509 24.0139 51.915 24.0139H48.2114V39.9142H50.8971V27.3463L55.1416 39.9142H57.4866L61.7362 27.3463V39.9142H64.427V24.0139H60.819C60.5831 24.0139 60.3726 24.1644 60.2983 24.3902Z" fill="#0E4343"></path>
    <path d="M71.7945 27.7927C68.3614 27.7927 66.1466 30.4885 66.1466 33.9765C66.1466 37.6445 68.517 40.1603 71.9043 40.1603C74.0195 40.1603 75.738 39.1678 76.6746 37.4747L74.7303 36.112L74.7354 36.1222C74.1791 37.2092 73.207 37.856 71.9094 37.856C70.1705 37.856 68.9533 36.6133 68.7478 34.5683H76.5099C76.8109 34.5683 77.0559 34.3233 77.0559 34.0223V33.6613C77.0559 30.399 75.2265 27.7937 71.7945 27.7937V27.7927ZM68.8831 32.5335C69.2888 30.9248 70.3769 30.0879 71.7742 30.0879C73.4927 30.0879 74.3052 31.2207 74.3245 32.5335H68.8821H68.8831Z" fill="#0E4343"></path>
    <path d="M86.5416 24.5558V29.2916C85.7951 28.4099 84.6674 27.7977 83.1339 27.7977C79.8117 27.7977 77.9172 30.6044 77.9172 33.9815H77.9121C77.9121 37.3587 79.8117 40.1653 83.1288 40.1653C84.6623 40.1653 85.7901 39.5541 86.5365 38.6725V39.9151H89.2475V24.0098H87.0876C86.7866 24.0098 86.5416 24.2548 86.5416 24.5558ZM86.6168 34.3425C86.6168 36.537 85.3487 37.7847 83.68 37.7847C81.7153 37.7847 80.6537 36.2462 80.6537 33.9815C80.6537 31.7169 81.7163 30.1783 83.68 30.1783V30.1732C85.3487 30.1732 86.6168 31.3955 86.6168 33.6409V34.3425Z" fill="#0E4343"></path>
    <path d="M91.4329 28.5746V39.9202H94.1439V28.0286H91.9789C91.6779 28.0286 91.4329 28.2736 91.4329 28.5746Z" fill="#0E4343"></path>
    <path d="M94.1896 24.0149H91.3881V26.8012H94.1896V24.0149Z" fill="#0E4343"></path>
    <path d="M104.086 36.0367V36.0316C103.54 37.0841 102.844 37.8152 101.406 37.8152C99.5518 37.8152 98.2888 36.4119 98.2888 33.9866C98.2888 31.5613 99.5569 30.1376 101.406 30.1376C102.844 30.1376 103.886 30.9847 104.297 32.2223L106.241 30.8789C105.534 29.1146 103.826 27.8069 101.401 27.8069C98.0132 27.8069 95.5778 30.3176 95.5778 33.9907C95.5778 37.6637 98.0132 40.1745 101.401 40.1745C103.811 40.1745 105.55 38.8413 106.261 37.0871L104.252 35.6991L104.086 36.0346V36.0367Z" fill="#0E4343"></path>
    <path d="M110.306 24.0149H107.504V26.8012H110.306V24.0149Z" fill="#0E4343"></path>
    <path d="M108.095 28.0286C107.794 28.0286 107.549 28.2736 107.549 28.5746V39.9202H110.255V28.0286H108.095Z" fill="#0E4343"></path>
    <path d="M118.398 27.8027C116.86 27.8027 115.797 28.4993 115.121 29.2956V28.0275H112.956C112.655 28.0275 112.41 28.2725 112.41 28.5735V39.9242H115.121V32.9483C115.121 31.249 116.363 30.343 117.582 30.343C119.074 30.343 119.661 31.4056 119.661 32.8781V39.9191H122.372V32.0819C122.372 29.5264 120.883 27.8027 118.398 27.8027Z" fill="#0E4343"></path>
    <path d="M129.267 27.7927C125.834 27.7927 123.619 30.4885 123.619 33.9765C123.619 37.6445 125.989 40.1603 129.377 40.1603C131.492 40.1603 133.21 39.1678 134.147 37.4747L132.203 36.112L132.208 36.1222C131.651 37.2092 130.674 37.856 129.382 37.856C127.643 37.856 126.426 36.6133 126.22 34.5683H133.982C134.283 34.5683 134.528 34.3233 134.528 34.0223V33.6613C134.528 30.399 132.699 27.7937 129.267 27.7937V27.7927ZM126.35 32.5335C126.756 30.9248 127.843 30.0879 129.241 30.0879C130.96 30.0879 131.772 31.2207 131.792 32.5335H126.349H126.35Z" fill="#0E4343"></path>
    <path d="M141.164 32.6393V32.6495C139.671 32.3342 138.813 32.1735 138.813 31.3112C138.813 30.514 139.541 30.0187 140.643 30.0187C141.836 30.0187 142.878 30.5353 143.564 31.4271L145.569 30.0136C144.701 28.7161 142.863 27.7988 140.804 27.7988C138.072 27.7988 136.174 29.3821 136.174 31.5573C136.174 34.0924 138.318 34.5694 140.192 34.9548C142.067 35.3402 143.059 35.4561 143.059 36.473C143.059 37.4899 141.996 37.9414 140.849 37.9414C139.536 37.9414 138.253 37.2398 137.532 36.1771L135.408 37.675C136.476 39.2888 138.65 40.1603 140.83 40.1603C143.516 40.1603 145.706 38.6217 145.706 36.2218C145.706 33.5057 143.175 33.0745 141.166 32.6393H141.164Z" fill="#0E4343"></path>
  </g>
  <defs>
    <linearGradient id="paint0_linear_1309_259" x1="32.1148" y1="8.48269" x2="-6.86816" y2="37.9536" gradientUnits="userSpaceOnUse">
      <stop offset="0.02" stop-color="#0E4343"></stop>
      <stop offset="0.99" stop-color="#0E4343" stop-opacity="0"></stop>
    </linearGradient>
    <linearGradient id="paint1_linear_1309_259" x1="6.29158" y1="36.8788" x2="44.5282" y2="9.83219" gradientUnits="userSpaceOnUse">
      <stop stop-color="#0E4343"></stop>
      <stop offset="0.99" stop-color="#0E4343" stop-opacity="0"></stop>
    </linearGradient>
    <clipPath id="clip0_1309_259">
      <rect width="146" height="45" fill="white" transform="translate(0 0.5)"></rect>
    </clipPath>
  </defs>
</svg>
