<svg version="1.1" id="Layer_1" xmlns:x="ns_extend;" xmlns:i="ns_ai;" xmlns:graph="ns_graphs;" xmlns="http://www.w3.org/2000/svg" xmlns:xlink="http://www.w3.org/1999/xlink" x="0px" y="0px" viewBox="0 0 535.4 109.7" style="enable-background:new 0 0 535.4 109.7;" xml:space="preserve">
 <style type="text/css">
  .st0{fill:#00B6DB;}
	.st1{fill:#59C9E6;}
	.st2{fill:#CFD1D2;}
	.st3{fill:#002440;}
 </style>
 <metadata>
  <sfw xmlns="ns_sfw;">
   <slices>
   </slices>
   <sliceSourceBounds bottomLeftOrigin="true" height="109.7" width="535.4" x="-68" y="145.3">
   </sliceSourceBounds>
  </sfw>
 </metadata>
 <g>
  <g>
   <path class="st0" d="M351.4,83.7c-10.1,9.6-26.1,9.4-36-0.4c-9.9-9.9-10.1-25.9-0.5-36l-13-13.1c-17.3,17.3-17.3,45.3,0,62.5
			c17.3,17.3,45.3,17.3,62.5,0L351.4,83.7z M351.4,83.7">
   </path>
  </g>
  <path class="st1" d="M351.4,47.2c4.8,4.8,7.6,11.4,7.6,18.2c0,6.8-2.7,13.4-7.6,18.2l13,13c17.3-17.3,17.3-45.3,0-62.5
		c-17.3-17.3-45.3-17.3-62.5,0l13,13c4.8-4.8,11.4-7.6,18.2-7.6C340,39.7,346.6,42.4,351.4,47.2">
  </path>
  <path class="st0" d="M267.7,22.8l27.7,4.9l-16.3-16.3L267.7,22.8z M267.7,22.8">
  </path>
  <path class="st1" d="M279.1,11.4l16.3,16.3L290.5,0L279.1,11.4z M279.1,11.4">
  </path>
  <path class="st2" d="M530.4,43.3H529V45h1.3c0.7,0,1.1-0.3,1.1-0.8C531.4,43.6,531,43.3,530.4,43.3">
  </path>
  <path class="st2" d="M531.4,47.7l-1.3-1.8H529v1.8h-1v-5.3h2.4c1.2,0,2,0.6,2,1.7c0,0.8-0.5,1.4-1.2,1.6l1.4,2H531.4z M530.1,39.9
		c-4.8,0-7.1,5.7-3.8,9.1c3.4,3.4,9.1,1,9.1-3.8C535.4,42.2,533,39.9,530.1,39.9">
  </path>
  <g>
   <g>
    <path class="st3" d="M415.8,91.3c-13.8,0-25.1-11.6-25.1-25.8c0-14.2,11.3-25.8,25.1-25.8c0,0,0,0,0,0c6,0,11.7,2.2,16.2,6.1
				c1.6,1.4,1.8,3.9,0.4,5.5c-1.4,1.6-3.9,1.8-5.5,0.4c-3.1-2.7-7-4.2-11.1-4.2c0,0,0,0,0,0c-9.6,0-17.3,8.1-17.3,18
				c0,9.9,7.8,18,17.3,18c4.3,0,8.4-1.6,11.5-4.5v-7.2h-10.5c-2.1,0-3.9-1.7-3.9-3.9s1.7-3.9,3.9-3.9h14.4c2.1,0,3.9,1.7,3.9,3.9
				v12.7c0,1-0.4,1.9-1,2.6C429.3,88.3,422.7,91.3,415.8,91.3z M55.2,91.2c-0.5,0-1-0.1-1.4-0.3c-2-0.8-3-3-2.2-5L69,42.2
				c0.2-0.5,0.5-0.9,0.8-1.3c0.4-0.4,0.8-0.7,1.3-0.9c0,0,0,0,0,0c0,0,0,0,0,0c0,0,0,0,0,0c0,0,0,0,0,0c0,0,0,0,0,0c0,0,0,0,0,0
				c0,0,0,0,0,0c0,0,0,0,0,0c0,0,0,0,0,0c0,0,0,0,0,0c0,0,0,0,0,0c0.4-0.2,0.9-0.2,1.3-0.2c0.5,0,0.9,0.1,1.3,0.2c0,0,0,0,0,0
				c0,0,0,0,0,0c0,0,0.1,0,0.1,0.1c0,0,0,0,0,0c0.5,0.2,0.9,0.5,1.3,0.8c0.4,0.4,0.6,0.8,0.9,1.3c0,0,0,0,0,0c0,0,0,0,0,0
				c0,0,0,0,0,0.1l17.4,43.8c0.8,2-0.2,4.2-2.2,5c-2,0.8-4.2-0.2-5-2.2L72.6,54.1L58.8,88.8C58.2,90.3,56.8,91.2,55.2,91.2z
				 M497.8,91.2c-13.8,0-25.1-11.5-25.1-25.7c0,0,0,0,0,0c0,0,0,0,0,0s0,0,0,0c0,0,0,0,0,0c0-14.2,11.3-25.7,25.1-25.7c0,0,0,0,0,0
				c6,0,11.7,2.2,16.2,6.1c1.6,1.4,1.8,3.9,0.4,5.5s-3.9,1.8-5.5,0.4c-3.1-2.7-7-4.2-11.1-4.2c0,0,0,0,0,0c-9.6,0-17.3,8.1-17.3,18
				c0,9.9,7.8,18,17.3,18c4.1,0,8-1.5,11.1-4.2c1.6-1.4,4.1-1.2,5.5,0.4c1.4,1.6,1.2,4.1-0.4,5.5C509.5,89.1,503.7,91.2,497.8,91.2z
				 M454.6,91.2c-2.1,0-3.9-1.7-3.9-3.9V43.6c0-2.1,1.7-3.9,3.9-3.9s3.9,1.7,3.9,3.9v43.8C458.5,89.5,456.7,91.2,454.6,91.2z
				 M273,91.2h-25.6c-2.1,0-3.9-1.7-3.9-3.9V43.6c0-2.1,1.7-3.9,3.9-3.9s3.9,1.7,3.9,3.9v39.9H273c2.1,0,3.9,1.7,3.9,3.9
				S275.2,91.2,273,91.2z M228.6,91.2H203c-2.1,0-3.9-1.7-3.9-3.9V43.6c0-2.1,1.7-3.9,3.9-3.9s3.9,1.7,3.9,3.9v39.9h21.7
				c2.1,0,3.9,1.7,3.9,3.9S230.7,91.2,228.6,91.2z M180.9,91.2h-28c-2.1,0-3.9-1.7-3.9-3.9V43.6c0-2.1,1.7-3.9,3.9-3.9h28
				c2.1,0,3.9,1.7,3.9,3.9s-1.7,3.9-3.9,3.9h-24.1v14.1H175c2.1,0,3.9,1.7,3.9,3.9s-1.7,3.9-3.9,3.9h-18.2v14.1h24.1
				c2.1,0,3.9,1.7,3.9,3.9S183.1,91.2,180.9,91.2z M116.4,91.2c-2.1,0-3.9-1.7-3.9-3.9V47.5h-11.1c-2.1,0-3.9-1.7-3.9-3.9
				s1.7-3.9,3.9-3.9h29.9c2.1,0,3.9,1.7,3.9,3.9s-1.7,3.9-3.9,3.9h-11.1v39.9C120.3,89.5,118.6,91.2,116.4,91.2z M18.9,91.2
				c-6.8,0-13.4-3-17.9-8.2c-1.4-1.6-1.2-4.1,0.4-5.5c1.6-1.4,4.1-1.2,5.5,0.4c3.1,3.6,7.6,5.6,12.4,5.5c11.2,0,11.2-5.2,11.2-7.2
				c0-2.8-1.4-4.8-8.3-6.7l-6.8-1.5c0,0-0.1,0-0.1,0C9.3,66.6,1.5,63.6,1.5,54.1c0-8.4,7.5-14.5,17.8-14.5c5.5,0,10.9,1.9,15.2,5.3
				c1.7,1.3,2,3.8,0.6,5.5c-1.3,1.7-3.8,2-5.5,0.6c-3-2.3-6.6-3.6-10.4-3.6c-5.9,0-10,2.8-10,6.7c0,2,0,4.4,7.8,6.4l6.8,1.5
				c0.1,0,0.1,0,0.2,0c3.9,1.1,14.1,3.9,14.1,14.2c0,9.4-7.1,15-18.9,15C19.1,91.2,19,91.2,18.9,91.2z">
    </path>
   </g>
  </g>
 </g>
</svg>