<svg xmlns:dc="http://purl.org/dc/elements/1.1/" xmlns:cc="http://creativecommons.org/ns#" xmlns:rdf="http://www.w3.org/1999/02/22-rdf-syntax-ns#" xmlns:svg="http://www.w3.org/2000/svg" xmlns="http://www.w3.org/2000/svg" viewBox="0 0 447.49332 175.02667" height="175.02667" width="447.49332" xml:space="preserve" id="svg2" version="1.1" xmlns:xlink="http://www.w3.org/1999/xlink">
 <metadata id="metadata8">
  <rdf:RDF>
   <cc:Work rdf:about="">
    <dc:format>
     image/svg+xml
    </dc:format>
    <dc:type rdf:resource="http://purl.org/dc/dcmitype/StillImage">
    </dc:type>
   </cc:Work>
  </rdf:RDF>
 </metadata>
 <defs id="defs6">
  <clipPath id="clipPath60" clipPathUnits="userSpaceOnUse">
   <path id="path58" d="M 1312.74,656.371 C 1312.74,293.871 1018.87,0 656.371,0 293.867,0 0,293.871 0,656.371 c 0,362.499 293.867,656.369 656.371,656.369 362.499,0 656.369,-293.87 656.369,-656.369 z">
   </path>
  </clipPath>
 </defs>
 <g transform="matrix(1.3333333,0,0,-1.3333333,0,175.02667)" id="g10">
  <g transform="scale(0.1)" id="g12">
   <path id="path14" style="fill:#000084;fill-opacity:1;fill-rule:nonzero;stroke:none" d="m 1876.93,707.258 c -56.6,21.469 -101.31,38.426 -101.31,74.129 0,32.894 25.26,54.156 64.36,54.156 32.23,0 66.04,-15.668 95.87,-29.488 20.06,-9.309 39.02,-18.09 50.25,-18.09 34.69,0 57.98,32.914 57.98,63.644 0,71.098 -113.27,108.965 -195.04,108.965 -124.85,0 -212.04,-74.617 -212.04,-181.461 0,-108.375 101.4,-146.644 182.88,-177.394 56.05,-21.153 100.31,-37.86 100.31,-72.938 0,-38.765 -21.96,-55.301 -73.42,-55.301 -42.71,0 -71.77,16.422 -97.42,30.918 -22.37,12.645 -43.51,24.59 -71.36,24.59 -40.5,0 -61.38,-44.617 -61.38,-63.648 0,-66.695 132.75,-116.887 218.83,-116.887 131.52,0 223.37,75.082 223.37,182.59 0,107.227 -100.85,145.473 -181.88,176.215">
   </path>
   <path id="path16" style="fill:#000084;fill-opacity:1;fill-rule:nonzero;stroke:none" d="m 2281.64,709.902 c 8.96,77.977 65.67,132.446 137.93,132.446 75.41,0 128.69,-50.711 139.05,-132.344 0.32,-2.524 -0.46,-5.055 -2.14,-6.965 -1.68,-1.91 -4.1,-3 -6.64,-3 h -259.4 c -2.53,0 -4.93,1.082 -6.61,2.957 -1.68,1.883 -2.47,4.399 -2.19,6.906 z m 350.89,-170.714 c -15.67,0 -35.34,-10.969 -58.12,-23.676 -33.58,-18.719 -75.38,-42.032 -126.52,-42.032 -89.53,0 -151.92,48.067 -162.82,125.426 -0.35,2.543 0.41,5.11 2.09,7.047 1.68,1.926 4.12,3.043 6.68,3.043 h 347.76 c 43.82,0 62.51,19.031 62.51,63.645 0,136.187 -116.86,287.933 -284.54,287.933 -139.31,0 -283.4,-114.902 -283.4,-307.187 0,-179.543 122.13,-304.934 297,-304.934 122.66,0 257.34,67.699 257.34,129.352 0,30.976 -28.72,61.383 -57.98,61.383">
   </path>
   <path id="path18" style="fill:#000084;fill-opacity:1;fill-rule:nonzero;stroke:none" d="m 3076.2,480.273 c -90.59,0 -137.99,87.09 -137.99,173.114 0,84.457 43.18,175.363 137.99,175.363 88.36,0 134.59,-88.219 134.59,-175.363 0,-86.024 -46.23,-173.114 -134.59,-173.114 z m 280.01,375.875 c 0,53.415 -5.22,97.633 -69.31,97.633 -35.63,0 -65.45,-25.851 -69.37,-60.121 -0.42,-3.648 -3.04,-6.656 -6.59,-7.57 -3.56,-0.883 -7.29,0.445 -9.42,3.445 -32.1,45.145 -86.04,71.039 -147.98,71.039 -146.21,0 -260.74,-134.933 -260.74,-307.187 0,-176.692 109.66,-304.934 260.74,-304.934 58.71,0 107.26,23.793 148.42,72.738 2.12,2.532 5.5,3.684 8.71,2.942 3.23,-0.727 5.78,-3.184 6.62,-6.379 11.84,-44.981 31.36,-62.5 69.61,-62.5 64.09,0 69.31,44.211 69.31,97.625 v 403.269">
   </path>
   <path id="path20" style="fill:#000084;fill-opacity:1;fill-rule:nonzero;stroke:none" d="m 1827.17,138.391 c -4.92,-17.621 -20.9,-30.903 -41.2,-30.903 -26.58,0 -43.45,20.453 -43.45,42.992 0,24.04 18.36,43 42.7,43 19.41,0 36.88,-11.941 41.95,-31.5 h -15.97 c -4.18,10.899 -14.33,17.02 -25.38,17.02 -8.21,0.148 -14.19,-2.539 -19.86,-7.922 -4.78,-4.769 -7.91,-12.387 -7.91,-20.598 0,-16.718 12.24,-28.519 27.77,-28.519 13.58,0.16 22.09,8.371 25.38,16.43 h 15.97">
   </path>
   <path id="path22" style="fill:#000084;fill-opacity:1;fill-rule:nonzero;stroke:none" d="m 1853.12,150.34 c 0,-16.129 12.24,-28.219 27.77,-28.219 15.53,0 27.77,12.09 27.77,28.359 0,16.282 -12.24,28.372 -27.77,28.372 -15.53,0 -27.77,-12.09 -27.77,-28.372 z m -15.53,0.289 c 0,21.652 15.98,42.851 43.3,42.851 27.32,0 43.3,-21.199 43.3,-43 0,-21.8 -15.98,-42.851 -43.3,-42.851 -27.32,0 -43.3,21.051 -43.3,42.851 v 0.149">
   </path>
   <path id="path24" style="fill:#000084;fill-opacity:1;fill-rule:nonzero;stroke:none" d="m 1939.98,191.09 h 14.63 v -12.539 c 3.89,8.359 12.99,15.078 27.48,14.929 25.98,-0.3 32.84,-19.109 32.84,-35.98 v -47.629 h -15.67 v 44.051 c 0,14.629 -5.68,25.078 -21.5,24.93 -15.23,-0.153 -22.25,-9.704 -22.25,-23.731 v -45.25 h -15.53 v 81.219">
   </path>
   <path id="path26" style="fill:#000084;fill-opacity:1;fill-rule:nonzero;stroke:none" d="m 2034.91,191.09 h 14.63 v -12.539 c 3.88,8.359 12.99,15.078 27.47,14.929 25.98,-0.3 32.85,-19.109 32.85,-35.98 v -47.629 h -15.68 v 44.051 c 0,14.629 -5.67,25.078 -21.5,24.93 -15.23,-0.153 -22.25,-9.704 -22.25,-23.731 v -45.25 h -15.52 v 81.219">
   </path>
   <path id="path28" style="fill:#000084;fill-opacity:1;fill-rule:nonzero;stroke:none" d="m 2193.88,157.648 c -0.74,10.75 -11.5,22.84 -26.87,22.543 -15.83,0 -26.13,-11.492 -26.87,-22.543 z m -54.04,-12.089 c 0.74,-16.43 15.08,-24.789 27.32,-24.789 10.9,0 18.96,5.23 23.44,13.742 h 16.12 c -3.88,-8.961 -9.55,-15.684 -16.42,-20.16 -6.87,-4.622 -14.93,-6.864 -23.14,-6.864 -26.58,0 -43,21.352 -43,42.852 0,23.289 18.21,43.14 42.85,43.14 11.65,0 22.25,-4.332 30.01,-11.941 9.55,-9.699 13.58,-22.398 12.24,-35.98 h -69.42">
   </path>
   <path id="path30" style="fill:#000084;fill-opacity:1;fill-rule:nonzero;stroke:none" d="m 2304.48,138.391 c -4.92,-17.621 -20.9,-30.903 -41.2,-30.903 -26.58,0 -43.45,20.453 -43.45,42.992 0,24.04 18.36,43 42.7,43 19.41,0 36.88,-11.941 41.95,-31.5 h -15.97 c -4.18,10.899 -14.34,17.02 -25.38,17.02 -8.22,0.148 -14.19,-2.539 -19.86,-7.922 -4.78,-4.769 -7.92,-12.387 -7.92,-20.598 0,-16.718 12.25,-28.519 27.78,-28.519 13.58,0.16 22.09,8.371 25.38,16.43 h 15.97">
   </path>
   <path id="path32" style="fill:#000084;fill-opacity:1;fill-rule:nonzero;stroke:none" d="m 2325.36,179 h -14.64 v 12.09 h 14.64 v 29.269 h 15.52 V 191.09 h 15.68 V 179 h -15.68 v -69.129 h -15.52 V 179">
   </path>
   <path id="path34" style="fill:#000084;fill-opacity:1;fill-rule:nonzero;stroke:none" d="m 2368.19,191.09 h 15.53 v -81.219 h -15.53 z m 0,29.269 h 15.53 v -16.418 h -15.53 v 16.418">
   </path>
   <path id="path36" style="fill:#000084;fill-opacity:1;fill-rule:nonzero;stroke:none" d="m 2404.01,191.09 h 14.63 v -12.539 c 3.88,8.359 12.99,15.078 27.47,14.929 25.98,-0.3 32.85,-19.109 32.85,-35.98 v -47.629 h -15.68 v 44.051 c 0,14.629 -5.67,25.078 -21.5,24.93 -15.22,-0.153 -22.24,-9.704 -22.24,-23.731 v -45.25 h -15.53 v 81.219">
   </path>
   <path id="path38" style="fill:#000084;fill-opacity:1;fill-rule:nonzero;stroke:none" d="m 2509.83,150.48 c 0,-15.23 10.9,-28.519 28.07,-28.519 8.21,0 15.08,3.148 20.01,8.211 4.77,4.937 7.76,11.957 7.91,19.867 0,6.422 -2.09,13.731 -6.57,19.25 -4.48,5.68 -11.49,9.563 -21.35,9.563 -15.38,0 -28.07,-11.5 -28.07,-28.223 z m 71.22,-31.199 c 0,-14.179 -3.58,-23.2927 -9.56,-30.1599 -7.46,-8.6602 -20.15,-14.7813 -34.19,-14.7813 -22.99,0 -36.42,13.4415 -40.31,27.0192 h 17.92 c 1.79,-3.5777 4.93,-6.859 8.96,-9.4098 4.92,-3.2773 10.45,-4.3203 14.03,-4.3203 13.59,0 27.62,10 27.62,28.2111 v 8.371 c -4.78,-9.109 -14.63,-16.723 -29.26,-16.723 -24.34,0 -41.96,18.512 -41.96,42.692 0,25.39 18.37,43.3 41.96,43.3 13.59,0 24.78,-7.16 29.26,-16.121 v 13.731 h 15.53 v -71.809">
   </path>
   <path id="path40" style="fill:#000084;fill-opacity:1;fill-rule:nonzero;stroke:none" d="m 2651.03,179 h -14.64 v 12.09 h 14.64 v 29.269 h 15.52 V 191.09 h 15.68 V 179 h -15.68 v -69.129 h -15.52 V 179">
   </path>
   <path id="path42" style="fill:#000084;fill-opacity:1;fill-rule:nonzero;stroke:none" d="m 2693.86,220.359 h 15.52 V 179.75 c 4.78,9.551 15.83,13.879 26.43,13.73 12.69,0 20.76,-4.179 25.98,-11.339 5.08,-7.02 7.02,-16.719 7.02,-27.922 v -44.348 h -15.68 v 43.598 c 0,7.312 -1.34,13.742 -4.63,18.211 -3.58,4.48 -8.96,7.172 -17.02,7.172 -8.21,0 -13.88,-3.133 -17.17,-7.473 -3.43,-4.32 -4.93,-10.141 -4.93,-15.668 v -45.84 h -15.52 v 110.488">
   </path>
   <path id="path44" style="fill:#000084;fill-opacity:1;fill-rule:nonzero;stroke:none" d="m 2852.83,157.648 c -0.75,10.75 -11.5,22.84 -26.88,22.543 -15.82,0 -26.12,-11.492 -26.87,-22.543 z m -54.05,-12.089 c 0.75,-16.43 15.08,-24.789 27.32,-24.789 10.9,0 18.96,5.23 23.45,13.742 h 16.12 c -3.88,-8.961 -9.56,-15.684 -16.42,-20.16 -6.87,-4.622 -14.94,-6.864 -23.15,-6.864 -26.57,0 -42.99,21.352 -42.99,42.852 0,23.289 18.21,43.14 42.84,43.14 11.65,0 22.25,-4.332 30.01,-11.941 9.56,-9.699 13.59,-22.398 12.25,-35.98 h -69.43">
   </path>
   <path id="path46" style="fill:#000084;fill-opacity:1;fill-rule:nonzero;stroke:none" d="m 2938.34,150.48 c 0.15,-14.929 10.6,-28.519 28.52,-28.519 7.91,0 15.22,3.289 20.3,8.508 5.22,5.242 8.21,12.402 7.91,20.461 0,8.058 -3.14,15.082 -8.21,20.011 -5.08,5.079 -12.09,8.059 -20,8.059 -17.17,0 -28.52,-13.141 -28.52,-28.371 z m 71.36,-40.609 h -14.93 v 14.188 c -4.48,-8.36 -13.58,-16.571 -30.3,-16.571 -25.53,0 -41.66,19.703 -41.66,43.141 0,25.23 18.21,42.851 41.36,42.851 16.57,0 26.72,-9.25 30.01,-15.679 v 14.34 28.218 h 15.52 V 109.871">
   </path>
   <path id="path48" style="fill:#000084;fill-opacity:1;fill-rule:nonzero;stroke:none" d="m 3041.17,150.34 c 0,-16.129 12.25,-28.219 27.77,-28.219 15.53,0 27.77,12.09 27.77,28.359 0,16.282 -12.24,28.372 -27.77,28.372 -15.52,0 -27.77,-12.09 -27.77,-28.372 z m -15.53,0.289 c 0,21.652 15.98,42.851 43.3,42.851 27.32,0 43.3,-21.199 43.3,-43 0,-21.8 -15.98,-42.851 -43.3,-42.851 -27.32,0 -43.3,21.051 -43.3,42.851 v 0.149">
   </path>
   <path id="path50" style="fill:#000084;fill-opacity:1;fill-rule:nonzero;stroke:none" d="m 3133.86,179 h -14.63 v 12.09 h 14.63 v 29.269 h 15.53 V 191.09 h 15.67 V 179 h -15.67 v -69.129 h -15.53 V 179">
   </path>
   <path id="path52" style="fill:#000084;fill-opacity:1;fill-rule:nonzero;stroke:none" d="m 3212.52,169.891 c 0,6.269 -3.88,11.05 -11.79,10.898 -7.61,0 -11.8,-5.07 -11.65,-10.449 0.3,-6.418 6.12,-9.399 14.78,-11.789 12.39,-3.43 25.98,-7.02 26.43,-24.492 0.3,-15.821 -12.84,-26.571 -28.96,-26.571 -12.84,0 -28.82,7.313 -29.56,25.832 h 15.37 c 0.6,-9.859 8.51,-13.148 14.34,-13.148 7.46,0 13.28,5.226 13.28,12.098 -0.15,8.062 -6.27,10.75 -20.75,15.531 -11.34,3.429 -20.3,8.808 -20.45,21.051 0,15.378 12.54,24.628 27.32,24.628 11.2,0 25.83,-5.519 27.02,-23.589 h -15.38">
   </path>
   <g id="g54">
    <g clip-path="url(#clipPath60)" id="g56">
     <path id="path62" style="fill:#ff5722;fill-opacity:1;fill-rule:nonzero;stroke:none" d="M 1407.94,199.441 H -89.3359 V 1362.71 H 1407.94 V 199.441">
     </path>
     <path id="path64" style="fill:#00a54a;fill-opacity:1;fill-rule:nonzero;stroke:none" d="m 1684.78,885.551 c -117.09,47.789 -229.86,70.683 -324.58,80.722 -18.17,2.368 -62.81,7.149 -125.46,6.915 -62.64,0.234 -107.28,-4.547 -125.45,-6.915 C 1014.56,956.234 901.793,933.34 784.703,885.551 671.887,839.5 563.074,816.563 470.551,805.973 v 0.14 c 0,0 -1.223,-0.203 -3.571,-0.543 -49.191,-5.484 -93.683,-7.492 -131.621,-7.656 -37.933,0.164 -82.433,2.172 -131.621,7.656 -2.347,0.34 -3.57,0.543 -3.57,0.543 v -0.14 c -92.523,10.59 -201.33597,33.527 -314.152,79.578 -117.09,47.789 -229.86,70.683 -324.586,80.722 -18.168,2.368 -62.805,7.149 -125.453,6.915 -62.649,0.234 -107.286,-4.547 -125.454,-6.915 -94.726,-10.039 -207.496,-32.933 -324.583,-80.722 -307.12,-125.36 -584.54,-79.438 -584.54,-79.438 V -39.0313 H 2269.32 V 806.113 c 0,0 -277.42,-45.922 -584.54,79.438">
     </path>
     <path id="path66" style="fill:#00e8ff;fill-opacity:1;fill-rule:nonzero;stroke:none" d="m 2339.25,885.551 c -117.09,47.789 -229.86,70.683 -324.59,80.722 -18.16,2.368 -62.8,7.149 -125.45,6.915 -62.65,0.234 -107.28,-4.547 -125.45,-6.915 -94.73,-10.039 -207.5,-32.933 -324.59,-80.722 -112.82,-46.051 -221.63,-68.988 -314.15,-79.578 v 0.14 c 0,0 -1.22,-0.203 -3.57,-0.543 -49.19,-5.484 -93.69,-7.492 -131.622,-7.656 -37.937,0.164 -82.433,2.172 -131.621,7.656 -2.352,0.34 -3.57,0.543 -3.57,0.543 v -0.14 c -92.524,10.59 -201.336,33.527 -314.153,79.578 -117.089,47.789 -229.859,70.683 -324.586,80.722 -18.168,2.368 -62.804,7.149 -125.4527,6.915 -62.6484,0.234 -107.2851,-4.547 -125.4531,-6.915 C -129.734,956.234 -242.504,933.34 -359.594,885.551 -666.715,760.191 -944.129,806.113 -944.129,806.113 V -39.0313 H 2923.79 V 806.113 c 0,0 -277.42,-45.922 -584.54,79.438">
     </path>
     <path id="path68" style="fill:#e41e26;fill-opacity:1;fill-rule:nonzero;stroke:none" d="m -124.59,1142.86 c 117.09,-47.79 229.86,-70.68 324.586,-80.72 18.168,-2.37 62.805,-7.15 125.453,-6.91 62.649,-0.24 107.285,4.54 125.453,6.91 94.727,10.04 207.496,32.93 324.586,80.72 112.817,46.05 221.629,68.99 314.152,79.58 v -0.14 c 0,0 1.22,0.2 3.57,0.54 49.19,5.49 93.69,7.5 131.62,7.66 37.94,-0.16 82.43,-2.17 131.62,-7.66 2.35,-0.34 3.57,-0.54 3.57,-0.54 v 0.14 c 92.53,-10.59 201.34,-33.53 314.16,-79.58 117.09,-47.79 229.85,-70.68 324.58,-80.72 18.17,-2.37 62.81,-7.15 125.45,-6.91 62.65,-0.24 107.29,4.54 125.46,6.91 94.72,10.04 207.49,32.93 324.58,80.72 307.12,125.36 584.54,79.44 584.54,79.44 v 845.15 H -709.125 V 1222.3 c 0,0 277.414,45.92 584.535,-79.44">
     </path>
     <path id="path70" style="fill:#478ef7;fill-opacity:1;fill-rule:nonzero;stroke:none" d="m 1733.44,604.898 c -117.09,47.793 -229.86,70.688 -324.58,80.727 -18.17,2.367 -62.81,7.148 -125.46,6.914 -62.64,0.234 -107.28,-4.547 -125.45,-6.914 C 1063.22,675.586 950.453,652.691 833.363,604.898 720.547,558.852 611.734,535.914 519.211,525.324 v 0.141 c 0,0 -1.223,-0.203 -3.57,-0.543 -49.192,-5.484 -93.688,-7.492 -131.621,-7.656 -37.934,0.164 -82.434,2.172 -131.622,7.656 -2.347,0.34 -3.57,0.543 -3.57,0.543 v -0.141 c -92.523,10.59 -201.3358,33.528 -314.1522,79.574 -117.0898,47.793 -229.8598,70.688 -324.5858,80.727 -18.168,2.367 -62.805,7.148 -125.453,6.914 -62.649,0.234 -107.285,-4.547 -125.453,-6.914 -94.727,-10.039 -207.497,-32.934 -324.586,-80.727 -307.118,-125.355 -584.538,-79.433 -584.538,-79.433 V -319.68 h 3867.92 v 845.145 c 0,0 -277.42,-45.922 -584.54,79.433">
     </path>
     <path id="path72" style="fill:#000084;fill-opacity:1;fill-rule:nonzero;stroke:none" d="m 2330.66,296.512 c -117.09,47.793 -229.86,70.683 -324.58,80.722 -18.17,2.368 -62.81,7.149 -125.46,6.914 -62.64,0.235 -107.28,-4.546 -125.45,-6.914 -94.73,-10.039 -207.5,-32.929 -324.58,-80.722 -112.82,-46.051 -221.63,-68.992 -314.16,-79.582 v 0.14 c 0,0 -1.22,-0.199 -3.57,-0.539 -49.19,-5.48 -93.68,-7.492 -131.618,-7.652 -37.937,0.16 -82.433,2.172 -131.621,7.652 -2.351,0.34 -3.574,0.539 -3.574,0.539 v -0.14 c -92.52,10.601 -201.332,33.531 -314.149,79.582 -117.089,47.793 -229.859,70.683 -324.585,80.722 -18.168,2.368 -62.805,7.149 -125.4536,6.914 -62.6485,0.235 -107.2852,-4.546 -125.4532,-6.914 C -138.32,367.195 -251.09,344.305 -368.18,296.512 -675.301,171.148 -952.719,217.07 -952.719,217.07 V -628.07 H 2915.2 v 845.14 c 0,0 -277.42,-45.922 -584.54,79.442">
     </path>
    </g>
   </g>
  </g>
 </g>
</svg>