<svg version="1.1" id="Layer_1" xmlns="http://www.w3.org/2000/svg" xmlns:xlink="http://www.w3.org/1999/xlink" x="0px" y="0px" viewBox="0 0 279.4 47" style="enable-background:new 0 0 279.4 47;" xml:space="preserve">
 <style type="text/css">
  .st0{fill:#003463;}
	.st1{fill:#FBAD17;}
	.st2{fill:#EC6E0E;}
 </style>
 <g>
  <g>
   <path class="st0" d="M65.3,30.9c0.4,0.7,0.8,1.2,1.4,1.7c0.6,0.4,1.3,0.7,2.1,0.9c0.8,0.2,1.6,0.3,2.5,0.3c0.6,0,1.2,0,1.9-0.1
			c0.7-0.1,1.3-0.3,1.9-0.6c0.6-0.3,1.1-0.7,1.4-1.1c0.4-0.5,0.6-1.1,0.6-1.8c0-0.8-0.3-1.4-0.8-1.9c-0.5-0.5-1.2-0.9-2-1.2
			c-0.8-0.3-1.8-0.6-2.8-0.9c-1-0.2-2.1-0.5-3.2-0.8c-1.1-0.3-2.2-0.6-3.2-1c-1-0.4-2-0.9-2.8-1.5c-0.8-0.6-1.5-1.4-2-2.4
			c-0.5-0.9-0.8-2.1-0.8-3.4c0-1.5,0.3-2.8,1-3.9c0.6-1.1,1.5-2,2.5-2.8c1-0.7,2.2-1.3,3.5-1.6c1.3-0.4,2.6-0.5,4-0.5
			c1.5,0,3,0.2,4.4,0.5c1.4,0.3,2.7,0.9,3.8,1.7c1.1,0.8,2,1.7,2.6,2.9c0.6,1.2,1,2.6,1,4.3H76c-0.1-0.9-0.2-1.6-0.6-2.2
			c-0.3-0.6-0.7-1-1.3-1.4c-0.5-0.3-1.1-0.6-1.8-0.7c-0.7-0.1-1.4-0.2-2.2-0.2c-0.5,0-1,0.1-1.6,0.2c-0.5,0.1-1,0.3-1.4,0.6
			c-0.4,0.3-0.8,0.6-1.1,1c-0.3,0.4-0.4,0.9-0.4,1.6c0,0.6,0.1,1,0.3,1.4c0.2,0.4,0.7,0.7,1.3,1c0.6,0.3,1.5,0.6,2.7,0.9
			c1.1,0.3,2.6,0.7,4.5,1.2c0.5,0.1,1.3,0.3,2.3,0.6c1,0.3,1.9,0.7,2.9,1.4c1,0.6,1.8,1.5,2.5,2.5c0.7,1.1,1.1,2.4,1.1,4.1
			c0,1.3-0.3,2.6-0.8,3.7c-0.5,1.2-1.3,2.1-2.3,3c-1,0.8-2.3,1.5-3.8,2c-1.5,0.5-3.3,0.7-5.3,0.7c-1.6,0-3.2-0.2-4.7-0.6
			c-1.5-0.4-2.9-1-4-1.9c-1.2-0.8-2.1-1.9-2.8-3.3c-0.7-1.3-1-2.9-1-4.7h6.3C64.7,29.4,64.9,30.2,65.3,30.9">
   </path>
  </g>
  <polygon class="st0" points="97.6,8.8 97.6,20.1 109.5,20.1 109.5,8.8 116,8.8 116,38.2 109.5,38.2 109.5,25.5 97.6,25.5 
		97.6,38.2 91.2,38.2 91.2,8.8 	">
  </polygon>
  <polygon class="st0" points="147.8,8.8 147.8,14.2 132.3,14.2 132.3,20.5 146.5,20.5 146.5,25.5 132.3,25.5 132.3,32.7 148.1,32.7 
		148.1,38.2 125.8,38.2 125.8,8.8 	">
  </polygon>
  <polygon class="st0" points="163,8.8 175.3,28.5 175.4,28.5 175.4,8.8 181.4,8.8 181.4,38.2 175,38.2 162.7,18.5 162.6,18.5 
		162.6,38.2 156.6,38.2 156.6,8.8 	">
  </polygon>
  <polygon class="st0" points="188.9,14.2 188.9,8.8 213,8.8 213,14.2 204.2,14.2 204.2,38.2 197.7,38.2 197.7,14.2 	">
  </polygon>
  <polygon class="st0" points="242.5,8.8 242.5,14.2 227,14.2 227,20.5 241.2,20.5 241.2,25.5 227,25.5 227,32.7 242.8,32.7 
		242.8,38.2 220.5,38.2 220.5,8.8 	">
  </polygon>
  <polygon class="st0" points="257.8,8.8 257.8,32.7 272.1,32.7 272.1,38.2 251.3,38.2 251.3,8.8 	">
  </polygon>
  <g>
   <path class="st1" d="M27.3,14.4c-4,5-9.6,12.8-14.8,20c3.6-6.9,8.9-16,13.6-22.3c-0.2-0.4-0.4-0.8-0.6-1.2
			c-2.7,3.4-6.9,9.2-10.5,14.7c3.5-8,6.5-14.1,8.5-18.1c-0.3-0.4-0.5-0.8-0.7-1.2l-0.2-0.3c0,0-16.4,29.3-22.2,40.1L0,47l7,0
			l0.2-0.3c3-6.1,14.3-22.3,20.8-30.9C27.8,15.3,27.5,14.8,27.3,14.4">
   </path>
   <path class="st0" d="M52.4,44.3l-2.3-4.2l-0.5,0c-0.2,0-0.4,0-0.6,0l-10.7-0.3c-8.4-0.5-18.8-1.5-25.7-2.3
			c-0.3,0.4-0.6,0.9-0.8,1.3c6.3,1,15.8,1.9,24.5,2.8c-2.9,0.1-6.2,0.2-9.3,0.2c-4.8,0-11.1-0.2-16.5-0.8c-0.2,0.4-0.5,0.8-0.7,1.2
			c4.3,0.6,11.3,1.3,17.7,1.7c-8.5,0.9-15.2,1.4-19.7,1.6c-0.2,0.4-0.5,0.8-0.6,1.2L7,47c9.2-0.1,22.7-0.3,33.6-0.5l0.5,0
			c4.2-0.1,8.1-0.2,11.5-0.3l1,0L52.4,44.3z">
   </path>
   <path class="st2" d="M39.2,39.9C39.2,39.9,39.2,39.9,39.2,39.9l1.5,0c0,0,0,0,0,0c-2.3-6-6.3-14.8-10-22.9
			c4.2,6.5,9.5,15.7,12.6,23l1.3,0c0,0,0,0,0,0c-1.5-3.9-4.5-10.4-7.5-16.3c5.1,7,8.9,12.6,11.4,16.4l0.5,0c0.2,0,0.4,0,0.6,0l0.5,0
			C43.6,28.9,33,11.1,26.6,0.8L26.1,0l-3.5,6.1l0.2,0.3C26.6,12,34.9,30,39.2,39.9">
   </path>
   <path class="st0" d="M274.9,11.2h0.4c0.5,0,0.9-0.2,0.9-0.6c0-0.3-0.3-0.6-0.8-0.6c-0.2,0-0.4,0-0.5,0V11.2z M274.9,13.3H274V9.5
			c0.3,0,0.8-0.1,1.5-0.1c0.7,0,1,0.1,1.3,0.3c0.2,0.2,0.4,0.4,0.4,0.8c0,0.5-0.4,0.8-0.8,0.9v0c0.4,0.1,0.6,0.4,0.7,0.9
			c0.1,0.6,0.2,0.8,0.3,0.9h-0.9c-0.1-0.1-0.2-0.5-0.3-0.9c-0.1-0.4-0.3-0.6-0.8-0.6h-0.4V13.3z M275.5,8.3c-1.7,0-2.9,1.4-2.9,3
			c0,1.7,1.3,3,3,3c1.7,0,2.9-1.3,2.9-3C278.4,9.7,277.1,8.3,275.5,8.3L275.5,8.3z M275.5,7.5c2.2,0,3.9,1.7,3.9,3.8
			s-1.7,3.8-3.9,3.8c-2.2,0-3.9-1.7-3.9-3.8S273.3,7.5,275.5,7.5L275.5,7.5z">
   </path>
  </g>
 </g>
</svg>