<?xml version="1.0" encoding="utf-8"?>
<!-- Generator: Adobe Illustrator 20.0.0, SVG Export Plug-In . SVG Version: 6.00 Build 0)  -->
<svg version="1.1" id="Layer_1" xmlns="http://www.w3.org/2000/svg" xmlns:xlink="http://www.w3.org/1999/xlink" x="0px" y="0px"
	 width="640px" height="160px" viewBox="0 0 640 160" style="enable-background:new 0 0 640 160;" xml:space="preserve">
<style type="text/css">
	.st0{fill:#868687;}
	.st1{fill:#007BC6;}
	.st2{fill:#005197;}
	.st3{fill:#22B2E9;}
</style>
<g>
	<g>
		<path class="st0" d="M194.2,58.2l-11.4,2.6c-1.3-4.6-4.4-6.9-9.4-6.9c-2.3,0-4.2,0.6-5.5,1.7c-1.4,1.1-2,2.5-2,4.1
			c0,1.6,0.5,2.8,1.6,3.6c1.1,0.9,3.2,1.7,6.4,2.4c4.5,1.1,8.2,2.4,10.8,3.6c2.6,1.3,4.6,3.1,6,5.3c1.4,2.3,2.1,5.1,2.1,8.4
			c0,5.3-1.9,9.7-5.8,13.3c-3.9,3.6-9.4,5.3-16.5,5.3c-6.1,0-11.2-1.4-15.2-4.2c-4-2.8-6.5-7.1-7.5-12.7l11.9-1.7
			c1.2,5.5,5,8.3,11.4,8.3c2.9,0,5.1-0.6,6.6-1.8c1.5-1.3,2.3-2.9,2.3-4.7c0-1.8-0.6-3.1-1.8-3.9c-1.2-0.8-3.9-1.8-8.1-2.9
			c-3.9-1-6.9-2.1-9.2-3.3c-2.3-1.2-4.1-3-5.4-5.2c-1.4-2.2-2-4.8-2-7.8c0-4.7,1.8-8.9,5.3-12.5c3.6-3.6,8.4-5.4,14.7-5.4
			C184,43.7,191,48.5,194.2,58.2z"/>
		<path class="st0" d="M213.8,59.8l-7,41.6h-12.5l6.9-41.6H213.8z M216.6,43.5l-1.9,11.9h-12.6l2-11.9H216.6z"/>
		<path class="st0" d="M249.7,59.8l-7,41.6h-12.5l6.9-41.6H249.7z M252.6,43.5l-2,11.9H238l2-11.9H252.6z"/>
		<path class="st0" d="M538.2,59.8l-6.9,41.6h-12.5l6.9-41.6H538.2z M541,43.5l-2,11.9h-12.5l2-11.9H541z"/>
		<path class="st0" d="M234.2,43.5l-9.7,58h-12l9.7-58H234.2z"/>
		<path class="st0" d="M288.4,86c-3.5,10.3-9.9,15.6-19.2,15.6c-5.8,0-10.3-1.8-13.4-5.5c-3.2-3.6-4.7-8.2-4.7-13.8
			c0-6.3,2-11.9,5.9-16.8c4-4.9,9.2-7.4,15.8-7.4c6,0,10.3,1.6,13.1,4.8c2.8,3.2,4.2,6.7,4.2,10.3v0.9L279.3,75
			c0-2.8-0.6-4.7-1.9-5.9c-1.3-1.1-2.8-1.8-4.4-1.8c-2.8,0-4.9,1.6-6.6,4.7c-1.6,3.1-2.4,7.2-2.4,12.3c0,5.1,2.1,7.7,6.4,7.7
			c3.8,0,6.4-2.4,7.9-7.3L288.4,86z"/>
		<path class="st0" d="M315.1,57.9c5.4,0,9.8,1.8,13.1,5.4c3.3,3.6,5,8.3,5,14.2c0,6.7-2,12.4-6.1,17c-4.1,4.7-9.2,7.1-15.3,7.1
			c-5.3,0-9.6-1.8-13.1-5.4c-3.5-3.5-5.2-8-5.2-13.5c0-7.1,2-13.1,6-17.8C303.5,60.2,308.7,57.9,315.1,57.9z M314.9,66
			c-3.4,0-5.7,2.2-7,6.4c-1.3,4.3-1.9,8.6-1.9,13.1c0,5.2,2,7.9,6.1,7.9c3.3,0,5.6-2.3,6.9-6.9c1.2-4.6,1.9-8.8,1.9-12.6
			C320.9,68.7,318.9,66,314.9,66z"/>
		<path class="st0" d="M352.7,59.8l-1.3,7.9c3-5.8,7.2-8.7,12.4-8.7c3.3,0,5.9,1.1,7.9,3.2c2.1,2.1,3.1,4.8,3.1,8
			c0,1.3-0.3,3.9-1,7.7l-3.9,23.4h-12l4.1-24.4c0.4-2.4,0.6-4,0.6-4.6c0-3-1.4-4.4-4.3-4.4c-1.5,0-2.9,0.5-4.1,1.5
			c-1.3,1-2.2,2.3-2.8,3.9c-0.6,1.6-1.1,4-1.7,7.4l-3.4,20.6h-12l6.9-34.9L352.7,59.8z"/>
		<path class="st0" d="M599.2,59.8l-1.3,7.9c3-5.8,7.1-8.7,12.4-8.7c3.2,0,5.9,1.1,7.9,3.2c2,2.1,3.1,4.8,3.1,8
			c0,1.3-0.3,3.9-0.9,7.7l-3.9,23.4h-12l4-24.4c0.4-2.4,0.6-4,0.6-4.6c0-3-1.4-4.4-4.3-4.4c-1.5,0-2.8,0.5-4.1,1.5
			c-1.2,1-2.1,2.3-2.7,3.9c-0.6,1.6-1.1,4-1.7,7.4l-3.4,20.6h-12l7-34.9L599.2,59.8z"/>
		<path class="st0" d="M447.9,44.8l-9.3,55.9h-13.1l7.8-46.8l-22.7,46.8H403l-7.3-47.3l-7.9,47.3h-10.5l9.3-55.9h19.6l4.9,34.2
			l16.5-34.2H447.9z"/>
		<path class="st0" d="M468.9,57.9c5.4,0,9.8,1.8,13.1,5.4c3.4,3.6,5,8.3,5,14.2c0,6.7-2,12.4-6.1,17c-4,4.7-9.1,7.1-15.3,7.1
			c-5.3,0-9.6-1.8-13-5.4c-3.4-3.5-5.2-8-5.2-13.5c0-7.1,2-13.1,5.9-17.8C457.4,60.2,462.6,57.9,468.9,57.9z M468.8,66
			c-3.4,0-5.7,2.2-7,6.4c-1.3,4.3-1.9,8.6-1.9,13.1c0,5.2,2,7.9,6.1,7.9c3.3,0,5.6-2.3,6.9-6.9c1.2-4.6,1.8-8.8,1.8-12.6
			C474.7,68.7,472.7,66,468.8,66z"/>
		<path class="st0" d="M518.7,68.5h-9.8L506,85.2c-0.3,1.8-0.4,3-0.4,3.6c0,2.2,1.8,3.3,5.4,3.3c1.7,0,3.2-0.1,4.3-0.3l-1.5,9.2
			c-2.9,0.5-5.6,0.7-8.3,0.7c-8.3,0-12.4-3.4-12.4-10.1c0-1.9,0.4-5,1.3-9.4l2.8-13.7h-6.4l1.6-9.5h6.9l1.9-9l12.3-6.4L510.6,59h9.6
			L518.7,68.5z"/>
		<path class="st0" d="M561.6,57.9c5.4,0,9.8,1.8,13.1,5.4c3.3,3.6,5,8.3,5,14.2c0,6.7-2,12.4-6.1,17c-4.1,4.7-9.1,7.1-15.3,7.1
			c-5.2,0-9.6-1.8-13.1-5.4c-3.4-3.5-5.1-8-5.1-13.5c0-7.1,2-13.1,5.9-17.8C550.1,60.2,555.3,57.9,561.6,57.9z M561.5,66
			c-3.3,0-5.7,2.2-6.9,6.4c-1.3,4.3-2,8.6-2,13.1c0,5.2,2,7.9,6.1,7.9c3.3,0,5.6-2.3,6.9-6.9c1.2-4.6,1.8-8.8,1.8-12.6
			C567.4,68.7,565.4,66,561.5,66z"/>
	</g>
	<g>
		<path class="st1" d="M115.8,72.8V119l13.3-7.6l-0.3-72.3L77.6,61l0,79.7l15.7-8.9V83.9c-1.5-0.6-2.5-1.9-2.5-3.5
			c0-2.1,1.9-3.7,4.2-3.7c2.3,0,4.2,1.7,4.2,3.7c0,1.2-0.6,2.3-1.6,3v46l13.9-7.9V73c-1.3-0.6-2.3-1.9-2.3-3.4
			c0-2.1,1.9-3.8,4.2-3.8c2.3,0,4.2,1.7,4.2,3.8C117.6,71,116.9,72.1,115.8,72.8z"/>
		<path class="st2" d="M19.4,85.8l34.4,15.7c0.7-0.5,1.6-0.8,2.6-0.8c2.3,0,4.2,1.7,4.2,3.8c0,2.1-1.9,3.8-4.2,3.8
			c-2.1,0-3.8-1.4-4.2-3.1L19.4,90.1V112l58.1,28.7l0-52.6L43.4,72.8c-0.7,0.4-1.4,0.6-2.3,0.6c-2.3,0-4.2-1.7-4.2-3.8
			c0-2.1,1.9-3.8,4.2-3.8c2.2,0,4.1,1.6,4.2,3.5l32.2,14.4l0-22.8L19.4,38.8V85.8z"/>
		<polygon class="st3" points="19.4,38.8 74,20.1 128.8,39.1 77.6,61 		"/>
	</g>
</g>
</svg>
