<svg version="1.1" id="svg2" xmlns:x="ns_extend;" xmlns:i="ns_ai;" xmlns:graph="ns_graphs;" xmlns:cc="http://creativecommons.org/ns#" xmlns:dc="http://purl.org/dc/elements/1.1/" xmlns:rdf="http://www.w3.org/1999/02/22-rdf-syntax-ns#" xmlns:svg="http://www.w3.org/2000/svg" xmlns="http://www.w3.org/2000/svg" xmlns:xlink="http://www.w3.org/1999/xlink" x="0px" y="0px" viewBox="0 0 269.6 55" style="enable-background:new 0 0 269.6 55;" xml:space="preserve">
 <style type="text/css">
  .st0{fill:#28272C;}
	.st1{fill:#065AF7;}
	.st2{fill:#FFCF0F;}
	.st3{fill:#FF0074;}
 </style>
 <metadata id="metadata8">
  <rdf:RDF>
   <cc:Work rdf:about="">
    <dc:format>
     image/svg+xml
    </dc:format>
    <dc:type rdf:resource="http://purl.org/dc/dcmitype/StillImage">
    </dc:type>
   </cc:Work>
  </rdf:RDF>
  <sfw xmlns="ns_sfw;">
   <slices>
   </slices>
   <sliceSourceBounds bottomLeftOrigin="true" height="55" width="269.6" x="-191.8" y="0">
   </sliceSourceBounds>
  </sfw>
 </metadata>
 <g id="g10" transform="matrix(1.3333333,0,0,-1.3333333,0,15.853333)">
  <g id="g12" transform="scale(0.1)">
   <path id="path14" class="st0" d="M846.4-226.7V25.7H741v33.8h253.8V25.7h-106v-252.4H846.4">
   </path>
   <path id="path16" class="st0" d="M979.6-120.9c0-27.5,6.6-48,20-61.4c13.3-13.4,29.8-20.1,49.5-20.1c18.5,0,34.3,6.8,47.5,20.3
			c13.2,13.6,19.8,34,19.8,61.2c0,27.4-6.7,47.8-20,61.3c-13.3,13.4-29.8,20.2-49.5,20.2c-18.6,0-34.5-6.8-47.7-20.3
			C986.1-73.3,979.6-93.7,979.6-120.9z M939.4-121c0,36.7,10.3,64.4,30.8,83.1c20.5,18.7,46.5,28,77.9,28c30.9,0,56.7-9.3,77.5-28
			c20.8-18.7,31.1-45.7,31.1-80.9c0-38.2-10.2-66.6-30.6-85.3c-20.4-18.7-46.4-28-78-28c-31.1,0-56.9,9.4-77.6,28.1
			C949.7-185.3,939.4-157.6,939.4-121">
   </path>
   <path id="path18" class="st0" d="M1170.8-167l39.1,5.7c2.3-15.3,8.6-26.7,18.9-34.2c10.3-7.5,23.9-11.2,40.9-11.2
			c17,0,30.1,3.2,39.4,9.7s14,14.7,14,24.6c0,8.6-4,15.3-12,20.1c-5.5,3.3-18.8,7.4-39.9,12.3c-30.5,7.2-51,13.3-61.2,18.4
			c-10.3,5-18.3,11.8-24,20.3c-5.7,8.5-8.5,18.1-8.5,28.8c0,18.5,7.7,33.6,23.2,45.2c15.4,11.6,36.8,17.4,64.2,17.4
			c17.2,0,32.4-2.4,45.4-7.2c13-4.8,23-11.2,30-19.2c6.9-8,11.7-19.6,14.4-34.6l-38.3-4.9c-3.6,23.7-20.3,35.6-50.3,35.6
			c-17,0-29.7-2.6-38.1-7.8c-8.3-5.2-12.5-11.9-12.5-20.1c0-8,4-14.3,12-19c4.8-2.7,19-7,42.7-13c32.5-7.9,53.6-14.3,63.1-19
			c9.6-4.7,17-11.1,22.3-19.3c5.3-8.1,8-17.8,8-29c0-20.7-8.6-37.6-25.7-50.4c-17.1-12.8-40.5-19.3-70.1-19.3
			C1211.9-237,1179.7-213.6,1170.8-167">
   </path>
   <path id="path20" class="st0" d="M1399-232.2V59.5h39.1v-166.6l93.3,86.2h50.9l-88.7-78.4l97.5-132.8h-48.2l-77,108.3l-27.7-24.5
			v-83.7H1399">
   </path>
   <path id="path22" class="st0" d="M1808.9,64.4v-168.2c0-28.1-2.8-51.3-8.7-69.4c-5.9-18-16.3-32.6-31.6-43
			c-15.3-10.4-34.7-15.6-58.3-15.6c-33.3,0-57.9,9.4-74.6,28.1c-16.3,19.1-24.6,52-24.6,99.9V64.4h33.3v-167.9
			c0-26.4,2.1-45.8,6.2-57.2c4.5-11.8,11.4-20.8,21.5-27.1c9.7-6.2,21.9-9.4,35.7-9.4c23.9,0,40.9,6.6,51.7,19.1
			c10.8,12.8,16,37.5,16,74.6V64.4H1808.9">
   </path>
   <path id="path24" class="st0" d="M1829.1-163.7l39.1,5.6c2.3-15,8.6-26.2,18.8-33.5c10.3-7.3,23.9-11,40.9-11
			c17,0,30.1,3.2,39.4,9.5c9.3,6.3,14,14.4,14,24.1c0,8.4-4,15-12,19.6c-5.5,3.2-18.8,7.2-39.9,12c-30.5,7.1-51,13.1-61.2,18
			c-10.3,4.9-18.3,11.5-24,19.8c-5.7,8.3-8.5,17.7-8.5,28.2c0,18.2,7.7,32.9,23.2,44.2c15.4,11.4,36.8,17,64.2,17
			c17.2,0,32.4-2.3,45.4-7c13-4.7,23-10.9,30-18.8c6.9-7.9,11.7-19.2,14.4-33.9l-38.3-4.8c-3.6,23.2-20.3,34.8-50.3,34.8
			c-17,0-29.7-2.6-38.1-7.7c-8.3-5.1-12.5-11.7-12.5-19.6c0-7.8,4-14,12-18.6c4.8-2.7,19-6.9,42.7-12.8c32.5-7.8,53.6-14,63.1-18.6
			c9.6-4.6,17-10.9,22.3-18.9c5.3-8,8-17.4,8-28.4c0-20.3-8.6-36.8-25.7-49.3c-17.1-12.6-40.5-18.8-70.2-18.8
			C1870.2-232.2,1838-209.3,1829.1-163.7">
   </path>
   <path id="path26" class="st0" d="M1156.6-232.2h-40.2v90l39.7,9.5L1156.6-232.2">
   </path>
   <path id="path28" class="st1" d="M371.8-87.3h237v206.1H378.3c0,0-69.4-14-69.4-103C308.9-73,371.8-87.3,371.8-87.3">
   </path>
   <path id="path30" class="st2" d="M547.3-88.5l-237,3.2l-2.8-204.3l230.5-3.2c0,0,69.6,12.9,70.8,101.2
			C610-103.6,547.3-88.5,547.3-88.5">
   </path>
   <path id="path32" class="st3" d="M308.4-168.9l-0.9,287.8L0,117.9l0.9-293.4c0,0,21.3-118.6,154.1-118.2
			C287.4-293.2,308.4-168.9,308.4-168.9">
   </path>
  </g>
 </g>
</svg>