<svg version="1.1" id="Layer_1" xmlns:x="ns_extend;" xmlns:i="ns_ai;" xmlns:graph="ns_graphs;" xmlns="http://www.w3.org/2000/svg" xmlns:xlink="http://www.w3.org/1999/xlink" x="0px" y="0px" viewBox="0 0 462.5 150" style="enable-background:new 0 0 462.5 150;" xml:space="preserve">
 <style type="text/css">
  .st0{fill:#00BBE7;}
	.st1{fill:#352865;}
 </style>
 <metadata>
  <sfw xmlns="ns_sfw;">
   <slices>
   </slices>
   <sliceSourceBounds bottomLeftOrigin="true" height="150" width="462.5" x="-214" y="-215.4">
   </sliceSourceBounds>
  </sfw>
 </metadata>
 <g>
  <polygon class="st0" points="246.6,150 246.6,113.5 252.5,113.5 252.5,128.5 269.4,128.5 269.4,113.5 275.3,113.5 275.3,150 
		269.4,150 269.4,134.1 252.5,134.1 252.5,150 	">
  </polygon>
  <polygon class="st0" points="289,144.4 289,134 302.1,134 302.1,128.5 289,128.5 289,119.1 304.3,119.1 304.3,113.5 283.1,113.5 
		283.1,150 304.8,150 304.8,144.4 	">
  </polygon>
  <polygon class="st0" points="355.7,144.4 355.7,113.5 349.8,113.5 349.8,150 370.9,150 370.9,144.4 	">
  </polygon>
  <polygon class="st0" points="408.4,150 408.4,134.1 425.3,134.1 425.3,150 431.2,150 431.2,113.5 425.3,113.5 425.3,128.5 
		408.4,128.5 408.4,113.5 402.5,113.5 402.5,150 	">
  </polygon>
  <polygon class="st0" points="380,150 386,150 386,119.1 396.7,119.1 396.7,113.5 369.3,113.5 369.3,119.1 380,119.1 	">
  </polygon>
  <path class="st0" d="M320.7,136.5l5.8-14.8l5.8,14.8H320.7z M329.3,113.5h-5.6L309,150h6.4l3.1-8h15.8l3.1,8h6.4L329.3,113.5z">
  </path>
  <polygon class="st1" points="42.6,86.1 25.4,86.1 25.4,15.4 0,15.4 0,0 67.8,0 67.8,15.4 42.6,15.4 	">
  </polygon>
  <polygon class="st1" points="149.1,0 140.5,0 132.7,0 132.7,86.1 149.1,86.1 	">
  </polygon>
  <path class="st1" d="M412.8,72.1c-9.4,0-17-7.6-17-17c0-9.4,7.6-17,17-17c5.5,0,10.4,2.6,13.5,6.7l12.3-9.5
		c-6-7.7-15.3-12.7-25.8-12.7c-18,0-32.6,14.6-32.6,32.6c0,18,14.6,32.6,32.6,32.6c10.5,0,19.9-5,25.8-12.7l-12.3-9.5
		C423.2,69.5,418.3,72.1,412.8,72.1">
  </path>
  <path class="st1" d="M265,72.2c-9.4,0-17-7.6-17-17c0-9.4,7.6-17,17-17c9.4,0,17,7.6,17,17C282,64.5,274.4,72.2,265,72.2 M282,0
		v27.4c-5-3-10.8-4.8-17-4.8c-18,0-32.6,14.6-32.6,32.6c0,18,14.6,32.6,32.6,32.6c18,0,32.6-14.6,32.6-32.6V0H282z">
  </path>
  <path class="st1" d="M191.1,72.1c-9.4,0-17-7.6-17-17s7.6-17,17-17c9.4,0,17,7.6,17,17S200.5,72.1,191.1,72.1 M191.1,22.6
		c-18,0-32.6,14.6-32.6,32.6c0,18,14.6,32.6,32.6,32.6c6.2,0,12.1-2.1,17-5.8v5h15.6V55.1C223.7,37.2,209.1,22.6,191.1,22.6">
  </path>
  <polygon class="st1" points="447.1,86.1 448.4,86.1 448.4,77.8 451.5,77.8 451.5,76.6 444,76.6 444,77.8 447.1,77.8 	">
  </polygon>
  <polygon class="st1" points="458,85 461.2,79.3 461.2,86.1 462.5,86.1 462.5,76.6 461.4,76.6 457.6,83.3 453.9,76.6 452.8,76.6 
		452.8,86.1 454,86.1 454,79.3 457.3,85 	">
  </polygon>
  <path class="st1" d="M74,48.9c2.5-6.8,9.1-11.6,16.7-11.6c7.7,0,14.2,4.8,16.7,11.6H74z M123.3,55.1c0-18-14.6-32.6-32.6-32.6
		c-18,0-32.6,14.6-32.6,32.6c0,18,14.6,32.6,32.6,32.6c10.5,0,19.9-5,25.8-12.7l-11.7-9c-3.3,4.3-8.4,7-14.2,7
		c-7.7,0-14.2-4.8-16.7-11.6h48.7C123.1,59.4,123.3,57.3,123.3,55.1">
  </path>
  <path class="st1" d="M339,87.7c-4.3,0-7.8-3.5-7.8-7.8c0-4.3,3.5-7.8,7.7-7.8c-9.4,0-17.1-7.6-17.1-17.1c0-9.4,7.6-17.1,17-17.1
		c4.3,0,7.7-3.4,7.7-7.8c0-4.4-3.5-7.8-7.8-7.8c-18,0-32.5,14.6-32.5,32.6C306.3,73.1,321,87.7,339,87.7">
  </path>
  <path class="st0" d="M338.9,22.5c4.3,0,7.7,3.5,7.8,7.8c0,4.3-3.5,7.8-7.7,7.8c9.4,0,17.1,7.6,17.1,17c0,9.4-7.6,17.1-17,17.1
		c-4.3,0-7.7,3.4-7.7,7.8c0,4.4,3.5,7.8,7.8,7.8c18-0.1,32.6-14.8,32.5-32.8C371.4,37,356.9,22.5,338.9,22.5">
  </path>
 </g>
</svg>