<?xml version="1.0" standalone="no"?>
<!DOCTYPE svg PUBLIC "-//W3C//DTD SVG 20010904//EN"
 "http://www.w3.org/TR/2001/REC-SVG-20010904/DTD/svg10.dtd">
<svg version="1.0" xmlns="http://www.w3.org/2000/svg"
 width="588.000000pt" height="348.109582pt" viewBox="0 0 588.000000 348.109582"
 preserveAspectRatio="xMidYMid meet">
<metadata>
Created by potrace 1.12, written by Peter Selinger 2001-2015
</metadata>
<g transform="translate(-6.000000,352.000000) scale(0.100000,-0.100000)"
fill="#000000" stroke="none">
<path d="M76 3505 c5 -11 10 -13 19 -5 8 7 293 10 872 10 782 0 861 -2 883
-17 14 -10 20 -11 15 -4 -4 8 -2 17 6 22 8 5 -373 9 -893 9 -809 0 -907 -2
-902 -15z"/>
<path d="M2302 3515 c6 -7 1589 -7 1596 0 3 3 -356 5 -798 5 -442 0 -801 -2
-798 -5z"/>
<path d="M4500 3513 c264 -7 490 -7 490 0 0 4 -134 6 -297 5 -164 -1 -251 -4
-193 -5z"/>
<path d="M3885 3060 c6 -10 3 -12 -13 -8 -12 4 -24 3 -26 -1 -3 -4 6 -8 19 -9
27 -2 42 13 24 24 -8 5 -9 3 -4 -6z"/>
<path d="M693 3023 c-10 -4 -12 -200 -11 -946 l3 -942 5 935 c3 514 8 928 11
920 4 -11 7 -9 11 8 7 24 0 32 -19 25z"/>
<path d="M3070 2340 l0 -290 208 -1 c114 0 251 -1 305 -2 l97 -2 0 292 0 293
-305 0 -305 0 0 -290z"/>
<path d="M67 533 c-4 -3 -7 -21 -7 -40 l0 -33 80 0 80 0 0 -210 0 -210 45 0
45 0 0 210 0 210 75 0 75 0 0 40 0 40 -193 0 c-107 0 -197 -3 -200 -7z"/>
<path d="M589 512 c-78 -40 -111 -98 -117 -201 -6 -102 15 -167 67 -214 50
-45 98 -60 181 -55 92 5 153 42 193 118 27 51 29 61 25 145 -3 77 -8 98 -31
137 -56 96 -205 129 -318 70z m181 -60 c49 -24 70 -71 70 -157 0 -115 -47
-178 -132 -178 -57 0 -102 24 -122 67 -20 43 -21 164 -2 211 28 67 114 94 186
57z"/>
<path d="M1020 289 l0 -250 48 3 47 3 3 108 c2 90 5 108 18 105 8 -2 47 -50
88 -108 l73 -105 56 -3 c32 -2 57 0 57 3 0 4 -38 60 -85 127 -47 66 -87 123
-88 127 -1 4 33 57 76 118 42 61 77 113 77 117 0 3 -21 6 -48 6 l-47 0 -75
-107 c-41 -60 -79 -108 -85 -108 -6 0 -11 44 -13 108 l-3 107 -49 0 -50 0 0
-251z"/>
<path d="M1430 536 c0 -2 36 -71 80 -152 l80 -149 0 -98 0 -98 46 3 46 3 0 93
0 92 79 155 80 155 -48 0 -48 0 -49 -110 c-27 -60 -52 -110 -55 -109 -3 0 -29
49 -58 110 l-52 109 -51 0 c-27 0 -50 -2 -50 -4z"/>
<path d="M1955 521 c-133 -60 -178 -271 -85 -401 48 -67 173 -98 274 -68 200
60 206 423 8 478 -58 16 -152 12 -197 -9z m189 -75 c34 -22 60 -111 53 -182
-10 -101 -52 -146 -137 -147 -95 -1 -135 52 -135 178 1 92 19 134 69 160 38
19 114 15 150 -9z"/>
<path d="M2560 290 l0 -251 158 3 157 3 3 37 3 37 -113 3 -113 3 -3 68 -3 67
104 0 103 0 0 33 -1 32 -100 5 -100 5 -3 63 -3 62 116 0 115 0 0 40 0 40 -160
0 -160 0 0 -250z"/>
<path d="M2962 293 l3 -248 148 -3 147 -3 0 41 0 40 -100 0 -100 0 0 210 0
210 -50 0 -50 0 2 -247z"/>
<path d="M3320 290 l0 -251 158 3 157 3 3 37 3 37 -113 3 -113 3 0 65 0 65
100 3 101 3 -4 34 -4 34 -97 3 -96 3 -3 63 -3 62 116 0 115 0 0 40 0 40 -160
0 -160 0 0 -250z"/>
<path d="M3841 527 c-116 -37 -180 -197 -136 -343 29 -96 102 -143 223 -144
41 0 88 6 107 14 32 14 35 18 35 59 l0 44 -42 -20 c-53 -27 -134 -28 -171 -4
-78 51 -89 227 -18 297 43 43 117 48 207 13 12 -5 15 3 12 38 -3 36 -7 44 -28
50 -38 11 -151 8 -189 -4z"/>
<path d="M4117 533 c-4 -3 -7 -21 -7 -39 l0 -33 76 -3 75 -3 2 -205 2 -205 48
-3 47 -3 0 210 0 211 75 0 75 0 0 40 0 40 -193 0 c-107 0 -197 -3 -200 -7z"/>
<path d="M4570 290 l0 -250 45 0 45 0 0 90 0 90 38 0 c38 0 39 -1 86 -85 l47
-85 55 0 56 0 -28 48 c-15 26 -40 67 -55 91 l-27 44 33 28 c62 55 67 169 9
230 -33 35 -95 49 -214 49 l-90 0 0 -250z m218 154 c18 -12 22 -25 22 -64 0
-64 -30 -90 -101 -90 l-49 0 0 85 0 85 53 0 c31 0 61 -6 75 -16z"/>
<path d="M5117 530 c-49 -15 -98 -61 -123 -114 -31 -66 -33 -190 -5 -251 38
-83 111 -125 213 -125 79 0 133 24 179 79 43 49 59 98 59 178 0 154 -85 243
-230 242 -36 0 -78 -5 -93 -9z m171 -87 c35 -26 51 -73 51 -153 1 -73 -18
-122 -60 -153 -34 -25 -118 -26 -154 -3 -89 59 -79 273 16 324 33 18 114 9
147 -15z"/>
<path d="M5510 291 l0 -251 45 0 45 0 0 182 0 183 106 -160 c136 -204 137
-205 191 -205 l43 0 0 250 0 250 -45 0 -45 0 0 -165 c0 -91 -3 -165 -7 -164
-5 0 -57 73 -118 162 l-110 162 -52 3 -53 3 0 -250z"/>
</g>
</svg>
