<svg xmlns="http://www.w3.org/2000/svg" width="200" height="200" viewBox="0 0 200 200" version="1.1"><path d="" stroke="none" fill="#282424" fill-rule="evenodd"/><path d="M 126.327 44.288 C 125.682 44.955, 123.994 46.560, 122.577 47.855 C 120.875 49.410, 119.066 53.226, 117.250 59.090 C 115.737 63.974, 114.238 67.977, 113.918 67.985 C 113.598 67.993, 112.846 66.537, 112.248 64.750 C 110.455 59.390, 105.835 48.588, 104.767 47.259 C 104.105 46.435, 101.372 46.099, 96.635 46.259 L 89.500 46.500 88.983 62.500 C 88.699 71.300, 88.101 79.256, 87.653 80.180 C 86.685 82.180, 82.402 83.723, 79.225 83.217 C 74.605 82.481, 73.541 78.862, 73 62.046 L 72.500 46.500 69.500 46.500 L 66.500 46.500 66.226 62.548 C 65.967 77.727, 66.079 78.835, 68.294 83.023 C 69.977 86.206, 71.943 88.124, 75.284 89.843 C 81.106 92.839, 85.524 92.226, 90.712 87.701 C 92.900 85.793, 94.127 85.177, 93.751 86.175 C 93.404 87.096, 91.711 91.235, 89.989 95.373 C 86.918 102.748, 86.804 102.876, 84.189 101.882 C 74.125 98.055, 65.124 86.879, 63.394 76.060 C 63.033 73.803, 62.346 71.714, 61.869 71.419 C 59.475 69.939, 62.450 83.025, 66.167 90.321 C 68.684 95.262, 75.998 102.244, 81.039 104.517 C 83.217 105.500, 85 106.701, 85 107.187 C 85 110.202, 70.939 99.121, 66.743 92.800 C 61.439 84.809, 59.622 77.451, 60.258 66.533 C 60.765 57.835, 60.729 57.630, 59.284 61 C 58.458 62.925, 57.549 67.897, 57.262 72.050 C 56.126 88.534, 63.333 101.147, 79.159 110.369 C 82.338 112.221, 84.588 112.891, 86.241 112.476 C 89.229 111.726, 93.624 107.759, 94.490 105.031 C 95.060 103.237, 95.976 103, 102.348 103 L 109.562 103 111.031 107.250 C 112.418 111.263, 112.737 111.517, 116.750 111.807 C 119.088 111.977, 121 111.918, 121 111.677 C 121 110.854, 115.929 97.764, 114.590 95.129 C 113.855 93.683, 112.953 91.375, 112.585 90 L 111.917 87.500 113.386 90 C 114.514 91.918, 114.979 92.151, 115.388 91 C 115.681 90.175, 118.371 81.881, 121.365 72.568 L 126.808 55.636 128.925 59.068 C 132.671 65.141, 134.310 72.644, 133.732 81.073 C 133.443 85.293, 132.681 89.728, 132.038 90.928 C 131.396 92.129, 131.074 93.648, 131.323 94.305 C 132.288 96.856, 136.184 85.487, 137.014 77.697 L 137.887 69.500 137.541 77.709 C 137.259 84.394, 136.592 87.225, 133.949 92.960 C 132.164 96.833, 130.095 100.506, 129.352 101.123 C 128.608 101.740, 128 102.710, 128 103.277 C 128 105.036, 132.133 100.748, 135.498 95.500 C 144.497 81.463, 144.462 65.224, 135.403 51.500 C 129.474 42.518, 128.664 41.874, 126.327 44.288 M 124.175 49.314 C 122.983 50.583, 121.363 53.618, 120.575 56.060 C 114.208 75.791, 112.824 81.162, 113.456 83.681 C 114.069 86.123, 114.377 85.691, 116.475 79.450 C 122.044 62.882, 126.882 47.549, 126.622 47.289 C 126.468 47.134, 125.366 48.046, 124.175 49.314 M 96.986 62.583 C 96.979 69.688, 96.741 76.625, 96.457 78 C 96.174 79.375, 97.189 77.461, 98.714 73.748 C 100.239 70.034, 101.885 67.128, 102.373 67.291 C 102.861 67.454, 105.068 71.964, 107.276 77.314 C 109.485 82.664, 111.449 86.884, 111.640 86.693 C 111.989 86.344, 98.213 50.880, 97.421 50.088 C 97.190 49.856, 96.994 55.479, 96.986 62.583 M 128 50.462 C 128 50.782, 129.204 52.862, 130.675 55.086 C 132.147 57.309, 134.157 61.462, 135.143 64.314 C 136.128 67.166, 136.949 68.587, 136.967 67.472 C 137.006 65.099, 130.700 51.551, 129.096 50.559 C 128.493 50.187, 128 50.143, 128 50.462 M 99.714 78.142 C 98.292 81.639, 94.850 90.054, 92.064 96.841 C 89.279 103.629, 87 109.445, 87 109.766 C 87 110.086, 88.071 109.343, 89.379 108.113 C 92.723 104.973, 104.438 75.605, 103.218 73.425 C 102.492 72.128, 101.756 73.120, 99.714 78.142 M 94.564 82.707 C 94.022 84.132, 94.136 84.247, 95.124 83.267 C 95.808 82.588, 96.115 81.781, 95.807 81.474 C 95.499 81.166, 94.940 81.721, 94.564 82.707 M 101.277 88.531 C 100.687 90.164, 99.885 92.287, 99.495 93.250 C 98.898 94.724, 99.354 95, 102.393 95 C 106.477 95, 106.492 94.951, 104.100 89.531 L 102.349 85.561 101.277 88.531 M 21 123.706 C 20.175 124.008, 18.488 125.176, 17.250 126.302 C 11.193 131.812, 18.490 141.435, 26.418 138.393 C 27.486 137.983, 28 136.520, 28 133.893 C 28 130.407, 27.739 130, 25.500 130 C 23.944 130, 23 130.567, 23 131.500 C 23 132.325, 23.675 133, 24.500 133 C 25.325 133, 26 133.627, 26 134.393 C 26 137.163, 20.630 137.296, 18.765 134.573 C 17.506 132.734, 17.930 128.303, 19.489 127.009 C 20.434 126.225, 22.262 126.014, 24.489 126.432 C 28.649 127.212, 29.326 125.455, 25.435 123.975 C 24.024 123.439, 22.787 123.036, 22.685 123.079 C 22.583 123.122, 21.825 123.405, 21 123.706 M 55.315 124.007 C 50.400 125.988, 49.409 133.603, 53.635 136.927 C 57.130 139.677, 60.546 139.545, 63.545 136.545 C 67.541 132.550, 66.531 126.941, 61.316 124.163 C 58.799 122.823, 58.287 122.810, 55.315 124.007 M 37 131.560 L 37 139.121 40.673 138.810 C 45.275 138.421, 46.490 136, 42.083 136 L 39 136 39 130 C 39 126.667, 38.556 124, 38 124 C 37.422 124, 37 127.187, 37 131.560 M 74 131.631 L 74 139.262 77.747 138.654 C 81.121 138.106, 84 135.894, 84 133.848 C 84 133.425, 83.387 132.506, 82.637 131.806 C 81.637 130.871, 81.555 130.085, 82.327 128.848 C 83.877 126.366, 81.462 124, 77.378 124 L 74 124 74 131.631 M 92.909 130.540 C 90.926 134.914, 90.203 137.603, 90.838 138.238 C 91.474 138.874, 92.209 138.479, 92.943 137.107 C 94.482 134.231, 99.274 134.275, 101.206 137.183 C 102.003 138.384, 102.924 138.932, 103.252 138.401 C 103.998 137.194, 98.539 124.680, 97.050 124.183 C 96.449 123.983, 94.585 126.843, 92.909 130.540 M 110.667 124.667 C 109.833 125.500, 109.787 135.282, 110.607 137.418 C 111.438 139.583, 119 139.656, 119 137.500 C 119 136.500, 118 136, 116 136 L 113 136 113 130 C 113 124.455, 112.354 122.979, 110.667 124.667 M 136 129.277 C 136 135.367, 138.019 139, 141.402 139 C 145.200 139, 147 136.001, 147 129.671 C 147 126.552, 146.550 124, 146 124 C 145.450 124, 145 126.459, 145 129.465 C 145 133.660, 144.593 135.139, 143.250 135.830 C 139.998 137.502, 139 136.114, 139 129.917 C 139 125.324, 138.664 124, 137.500 124 C 136.356 124, 136 125.253, 136 129.277 M 156.937 130.478 C 153.612 137.812, 153.362 139.182, 155.500 138.362 C 156.325 138.045, 157 137.159, 157 136.393 C 157 133.971, 163.505 134.641, 165.326 137.250 C 166.589 139.061, 166.905 139.172, 166.948 137.816 C 167.021 135.445, 161.934 124, 160.807 124 C 160.294 124, 158.553 126.915, 156.937 130.478 M 174.557 130.749 C 177.876 139.565, 178.613 140.179, 180.477 135.677 C 185.815 122.790, 185.455 124, 183.943 124 C 183.362 124, 181.854 126.341, 180.591 129.202 L 178.295 134.404 176.567 129.202 C 175.572 126.207, 174.241 124, 173.428 124 C 172.325 124, 172.571 125.472, 174.557 130.749 M 54.571 127.571 C 51.763 130.380, 53.174 134.909, 57.306 136.350 C 59.779 137.213, 64.214 132.766, 63.335 130.306 C 61.720 125.786, 57.632 124.510, 54.571 127.571 M 76 128 C 76 130.280, 78.210 130.656, 79.869 128.658 C 81.190 127.066, 80.374 126, 77.833 126 C 76.667 126, 76 126.727, 76 128 M 95.661 129.441 C 94.591 132.230, 94.880 133, 97 133 C 99.339 133, 99.514 132.085, 97.661 129.551 C 96.411 127.841, 96.278 127.834, 95.661 129.441 M 159.605 129.588 C 158.602 132.202, 158.906 133, 160.906 133 C 162.325 133, 162.678 132.485, 162.286 130.984 C 161.581 128.291, 160.349 127.649, 159.605 129.588 M 76 133.930 C 76 135.487, 76.638 136, 78.573 136 C 81.856 136, 81.564 132.655, 78.240 132.180 C 76.539 131.938, 76 132.359, 76 133.930 M 15.500 147 C 15.160 147.550, 15.584 148, 16.441 148 C 17.561 148, 18 149.002, 18 151.559 C 18 153.677, 18.405 154.868, 19 154.500 C 19.550 154.160, 20 152.559, 20 150.941 C 20 149.323, 20.477 148, 21.059 148 C 21.641 148, 21.840 147.550, 21.500 147 C 21.160 146.450, 19.810 146, 18.500 146 C 17.190 146, 15.840 146.450, 15.500 147 M 30.394 147.416 C 30.095 148.194, 29.997 150.107, 30.175 151.666 C 30.411 153.719, 31.120 154.588, 32.750 154.820 C 35.461 155.205, 35.912 152.385, 33.250 151.689 C 31.583 151.254, 31.583 151.226, 33.250 151.116 C 34.212 151.052, 35 150.583, 35 150.073 C 35 149.564, 34.212 148.941, 33.250 148.689 C 31.583 148.254, 31.583 148.226, 33.250 148.116 C 35.706 147.953, 35.446 146, 32.969 146 C 31.851 146, 30.693 146.637, 30.394 147.416 M 45.571 147.571 C 43.675 149.468, 43.628 150.927, 45.392 153.250 C 47.015 155.388, 49.584 155.527, 50.354 153.519 C 50.764 152.452, 50.304 152.102, 48.711 152.269 C 47.090 152.438, 46.500 151.967, 46.500 150.500 C 46.500 149.022, 47.087 148.562, 48.750 148.738 C 51.322 149.011, 51.790 147.517, 49.418 146.607 C 47.301 145.795, 47.364 145.779, 45.571 147.571 M 92.046 147.445 C 90.463 149.352, 91.072 153.028, 93.191 154.356 C 94.484 155.166, 95.368 154.977, 96.941 153.553 C 99.407 151.322, 99.540 149.683, 97.429 147.571 C 95.470 145.613, 93.603 145.569, 92.046 147.445 M 121.523 147.974 C 119.836 149.838, 119.831 150.093, 121.431 152.536 C 123.358 155.476, 125.634 155.446, 127.617 152.454 C 128.773 150.710, 128.745 150.081, 127.430 148.204 C 125.521 145.478, 123.841 145.413, 121.523 147.974 M 138.621 147.521 C 137.730 148.413, 137.014 149.673, 137.032 150.321 C 137.091 152.512, 139.837 155.178, 141.674 154.828 C 143.968 154.390, 144.811 150, 142.601 150 C 141.588 150, 141.277 150.558, 141.691 151.636 C 142.123 152.762, 141.878 153.126, 140.909 152.803 C 138.857 152.119, 139.136 148.502, 141.241 148.489 C 142.199 148.484, 143.011 148.034, 143.044 147.489 C 143.149 145.798, 140.324 145.819, 138.621 147.521 M 165.667 146.667 C 165.300 147.033, 165 149.058, 165 151.167 C 165 154.589, 165.268 155, 167.500 155 C 170.282 155, 170.875 153.273, 168.416 152.329 C 167.139 151.839, 167.091 151.555, 168.166 150.861 C 169.258 150.156, 169.228 149.821, 168 149.015 C 166.726 148.179, 166.772 148.028, 168.309 148.015 C 169.304 148.007, 169.840 147.550, 169.500 147 C 168.796 145.860, 166.659 145.675, 165.667 146.667 M 179.074 147.411 C 178.075 148.614, 178.233 149.129, 179.924 150.185 C 182.318 151.679, 182.724 153.215, 180.500 152.362 C 179.550 151.997, 179 152.375, 179 153.393 C 179 155.464, 181.371 155.463, 183.090 153.392 C 184.218 152.032, 184.160 151.590, 182.712 150.532 C 180.827 149.153, 180.323 147.463, 182.130 148.580 C 182.803 148.996, 183.081 148.743, 182.817 147.952 C 182.161 145.982, 180.463 145.737, 179.074 147.411 M 60 151.059 C 60 153.510, 60.396 154.873, 61 154.500 C 61.550 154.160, 62 153.234, 62 152.441 C 62 150.208, 63.677 150.741, 64.543 153.250 C 65.210 155.181, 65.378 154.954, 65.726 151.650 C 66.182 147.333, 65.405 145.818, 63.869 148.029 C 63.096 149.142, 62.724 149.196, 62.341 148.250 C 61.278 145.631, 60 147.165, 60 151.059 M 75 150.441 C 75 152.334, 75.450 154.160, 76 154.500 C 76.576 154.856, 77.003 153.926, 77.007 152.309 L 77.013 149.500 78.832 152.258 C 80.986 155.525, 82 154.909, 82 150.333 C 82 146.994, 80.028 145.457, 79.968 148.750 C 79.938 150.417, 79.873 150.417, 78.608 148.750 C 76.509 145.985, 75 146.692, 75 150.441 M 108.150 150.750 C 108.022 154.383, 108.290 155, 110 155 C 111.111 155, 112 154.333, 112 153.500 C 112 152.675, 111.355 152, 110.566 152 C 109.770 152, 108.948 150.777, 108.716 149.250 C 108.424 147.319, 108.255 147.766, 108.150 150.750 M 153 150.441 C 153 152.334, 153.450 154.160, 154 154.500 C 154.604 154.873, 155 153.510, 155 151.059 C 155 148.827, 154.550 147, 154 147 C 153.450 147, 153 148.548, 153 150.441 M 93.336 149.567 C 92.548 151.621, 94.130 153.156, 95.904 152.059 C 97.415 151.125, 96.719 148, 95 148 C 94.415 148, 93.667 148.705, 93.336 149.567 M 123.064 148.939 C 121.854 149.705, 121.841 150.103, 122.978 151.474 C 124.159 152.897, 124.510 152.918, 125.782 151.646 C 126.582 150.846, 126.932 149.699, 126.559 149.096 C 125.742 147.774, 124.961 147.739, 123.064 148.939" stroke="none" fill="#242424" fill-rule="evenodd"/></svg>