<?xml version="1.0" standalone="no"?>
<!DOCTYPE svg PUBLIC "-//W3C//DTD SVG 20010904//EN"
 "http://www.w3.org/TR/2001/REC-SVG-20010904/DTD/svg10.dtd">
<svg version="1.0" xmlns="http://www.w3.org/2000/svg"
 width="459.154119pt" height="338.790635pt" viewBox="0 0 459.154119 338.790635"
 preserveAspectRatio="xMidYMid meet">
<metadata>
Created by potrace 1.12, written by Peter Selinger 2001-2015
</metadata>
<g transform="translate(-29.845881,445.583919) scale(0.100000,-0.100000)"
fill="#000000" stroke="none">
<path d="M2287 4450 c-171 -27 -392 -115 -533 -211 -173 -118 -361 -340 -444
-524 -226 -498 -118 -1077 271 -1464 114 -113 321 -237 496 -297 222 -76 520
-73 771 8 35 11 62 22 60 23 -4 4 -36 -3 -131 -30 -63 -17 -258 -35 -251 -23
3 5 30 8 60 8 71 0 224 37 248 61 20 18 19 19 -20 17 -21 0 -45 -5 -51 -11 -9
-6 -18 -6 -27 2 -9 7 -17 8 -20 2 -3 -5 0 -12 6 -14 21 -8 -181 2 -247 12
-121 18 -222 40 -255 54 -19 8 -54 21 -77 28 -24 7 -43 16 -43 21 0 4 -9 8
-20 8 -11 0 -20 5 -20 10 0 6 -7 10 -15 10 -8 0 -15 5 -15 10 0 6 -9 10 -21
10 -11 0 -18 4 -15 9 3 5 -7 11 -22 14 -15 3 -42 20 -60 36 -18 17 -37 31 -42
31 -5 0 -38 27 -72 60 -35 33 -71 62 -80 66 -10 3 -18 11 -18 17 0 7 -12 23
-26 36 -32 30 -106 127 -124 161 -7 14 -16 27 -20 30 -3 3 -18 28 -32 57 -14
29 -28 49 -32 46 -3 -4 -6 20 -5 53 1 32 -2 95 -6 139 -18 189 50 416 169 564
126 158 318 271 509 302 105 16 292 7 372 -19 105 -35 161 -57 191 -77 28 -18
28 -18 14 0 -14 17 -13 18 5 11 11 -5 30 -8 43 -7 30 1 122 -29 122 -40 0 -5
6 -9 13 -9 8 0 36 -11 63 -25 27 -14 55 -25 62 -25 6 0 12 -4 12 -9 0 -5 13
-17 29 -28 103 -65 267 -261 291 -348 7 -25 16 -45 21 -45 4 0 17 -44 30 -97
12 -54 26 -102 30 -107 38 -41 -38 -320 -107 -397 -8 -8 -14 -19 -14 -23 0
-12 -89 -124 -110 -139 -11 -8 -17 -17 -13 -20 3 -4 0 -7 -8 -7 -9 0 -28 -13
-45 -28 -69 -66 -234 -162 -277 -162 -8 0 -23 -7 -31 -16 -9 -8 -16 -13 -16
-11 0 3 -33 -3 -72 -14 -92 -24 -243 -31 -345 -18 -43 6 -88 11 -100 12 -13 1
-23 5 -23 8 0 6 -63 19 -106 22 -13 1 -19 7 -17 14 3 9 -4 13 -21 13 -14 0
-26 5 -26 10 0 6 -8 10 -18 10 -11 0 -29 9 -42 20 -13 11 -29 20 -35 20 -7 0
-16 7 -19 16 -4 9 -9 14 -12 11 -9 -8 -142 128 -186 189 -19 28 -39 62 -43 75
-4 13 -11 29 -15 34 -24 31 -52 174 -52 267 1 119 16 201 53 270 5 10 9 24 9
31 0 39 122 191 195 243 22 16 42 31 45 34 17 18 146 72 203 85 129 29 302 14
364 -32 17 -13 39 -23 47 -23 34 0 144 -45 199 -81 31 -20 57 -34 57 -30 0 5
-21 28 -47 53 -142 131 -306 198 -487 198 -275 0 -501 -139 -630 -386 -48 -92
-69 -187 -70 -314 0 -102 4 -126 32 -215 54 -172 178 -351 301 -434 83 -57
127 -77 242 -111 180 -53 440 -51 620 6 305 95 543 303 669 584 187 419 101
891 -223 1214 -174 174 -361 278 -582 323 -131 26 -321 25 -443 -2 -15 -4 -21
-2 -17 5 3 5 23 10 43 11 35 0 36 1 12 11 l-25 10 23 9 c14 5 40 5 65 -1 23
-5 43 -7 46 -4 2 2 -1 4 -8 4 -7 0 -9 5 -6 11 4 6 19 9 33 8 15 -2 32 -1 37 3
39 23 347 29 425 8 64 -17 94 -19 102 -6 5 8 8 7 8 -1 0 -7 12 -13 28 -14 30
0 77 -17 53 -18 -13 -1 -13 -3 -2 -13 11 -10 14 -10 18 -1 3 9 11 6 26 -7 12
-11 26 -19 32 -16 5 2 25 -7 43 -21 17 -13 32 -20 32 -16 0 18 -172 117 -184
106 -3 -4 -6 -2 -6 4 0 13 -78 51 -145 70 -177 50 -201 54 -360 58 -88 2 -186
0 -218 -5z m-347 -151 c-113 -71 -189 -114 -160 -89 19 16 49 36 65 45 17 9
46 24 65 35 35 20 58 27 30 9z m-390 -302 l-34 -32 30 36 c16 20 31 34 33 32
3 -2 -10 -18 -29 -36z"/>
<path d="M2412 3350 c-120 -25 -235 -117 -291 -232 -18 -36 -31 -74 -28 -85 4
-17 4 -17 11 2 5 11 13 33 19 49 31 84 159 187 267 217 60 16 168 13 227 -7
55 -19 134 -68 180 -113 18 -18 49 -66 69 -107 32 -67 37 -86 38 -158 0 -44
-3 -94 -7 -111 -5 -21 -5 -25 2 -15 6 8 15 44 21 80 41 242 -141 471 -385 485
-44 2 -99 0 -123 -5z"/>
<path d="M2218 2993 c-20 -23 -34 -51 -42 -85 -5 -22 -3 -25 14 -21 13 4 20
14 20 29 0 14 7 40 14 59 17 39 16 43 -6 18z"/>
<path d="M2606 2958 c7 -24 18 -64 25 -90 7 -26 16 -45 21 -42 16 10 -21 143
-46 163 -11 9 -11 4 0 -31z"/>
<path d="M2082 2905 c0 -68 0 -69 10 -27 6 28 6 52 -1 70 -8 22 -9 15 -9 -43z"/>
<path d="M2271 2746 c40 -39 94 -59 145 -53 75 8 69 22 -10 22 -64 0 -77 4
-109 28 -44 33 -58 35 -26 3z"/>
<path d="M1970 2752 c0 -20 65 -156 86 -182 103 -121 216 -189 346 -209 146
-23 341 15 389 76 13 17 13 17 -14 -1 -49 -31 -139 -57 -218 -63 -222 -17
-452 115 -552 317 -20 41 -37 69 -37 62z"/>
<path d="M2595 2548 c-11 -7 -42 -20 -70 -30 -50 -18 -50 -18 -10 -13 67 9 97
17 91 23 -3 3 -1 11 5 19 14 16 10 16 -16 1z"/>
<path d="M3155 2114 c-27 -18 -45 -34 -40 -34 6 0 32 16 59 35 27 19 45 35 40
34 -5 0 -31 -16 -59 -35z"/>
<path d="M3028 2083 c-10 -2 -18 -9 -18 -14 0 -6 10 -5 23 2 37 20 36 23 -5
12z"/>
<path d="M2927 2039 c-10 -6 -25 -8 -33 -5 -8 3 -14 -1 -14 -9 0 -8 4 -15 8
-15 15 0 62 25 62 33 0 9 -1 9 -23 -4z"/>
<path d="M302 1366 c3 -220 7 -232 84 -271 35 -18 64 -20 276 -23 l237 -4 6
23 c3 13 4 123 3 244 l-3 220 -64 3 c-45 2 -67 -1 -72 -10 -5 -7 -9 -83 -9
-169 0 -201 5 -194 -160 -194 -165 0 -159 -8 -162 204 l-3 166 -68 3 -69 3 4
-195z"/>
<path d="M1040 1315 l0 -245 253 0 c260 0 311 6 342 40 42 46 27 168 -25 195
l-29 15 31 30 c29 29 30 34 26 92 -8 108 -38 118 -360 118 l-238 0 0 -245z
m441 135 c23 -13 26 -62 5 -79 -9 -8 -60 -11 -157 -9 l-144 3 -3 33 c-6 62 -6
62 143 62 75 0 145 -5 156 -10z m30 -201 c15 -28 -2 -66 -33 -74 -13 -3 -84
-4 -158 -3 l-135 3 -3 48 -3 47 160 0 c153 0 161 -1 172 -21z"/>
<path d="M1777 1553 c-4 -3 -7 -114 -7 -245 l0 -238 65 0 c36 0 65 1 66 3 0 1
3 104 6 230 4 172 2 231 -7 242 -13 15 -110 22 -123 8z"/>
<path d="M2041 1445 c4 -114 4 -115 37 -147 l32 -33 198 -5 c193 -5 197 -5
200 -27 2 -12 -6 -31 -17 -42 -19 -19 -33 -21 -165 -21 -115 0 -146 3 -156 15
-8 10 -31 15 -71 15 l-59 0 0 -31 c0 -86 37 -99 277 -99 299 1 323 12 323 146
0 95 -16 129 -68 143 -20 6 -112 11 -204 11 l-168 0 -17 26 c-12 19 -14 30 -6
43 8 13 33 16 153 19 108 2 148 -1 164 -11 31 -20 85 -28 107 -17 23 13 25 57
4 87 -25 36 -77 43 -329 43 l-238 0 3 -115z"/>
<path d="M2860 1554 c-114 -38 -125 -59 -125 -234 0 -151 8 -180 63 -216 41
-28 148 -38 334 -32 230 7 252 36 246 328 l-3 155 -250 2 c-137 1 -257 -1
-265 -3z m368 -116 c8 -8 12 -46 12 -104 0 -82 -3 -96 -23 -119 -20 -24 -31
-27 -108 -32 -101 -7 -189 3 -215 22 -15 11 -20 29 -22 97 -3 97 9 130 53 139
57 12 290 10 303 -3z"/>
<path d="M3509 1558 c-5 -20 -8 -317 -3 -390 l6 -98 64 0 64 0 0 80 0 80 170
0 170 0 6 24 c3 13 4 38 2 57 l-3 34 -170 5 -170 5 0 40 0 40 175 6 c96 3 176
6 178 7 2 1 2 26 0 55 l-3 52 -242 3 c-134 1 -243 1 -244 0z"/>
<path d="M4080 1505 l0 -55 93 0 c50 0 97 -4 104 -8 9 -6 12 -51 12 -157 0
-83 0 -165 0 -183 l1 -33 68 3 67 3 3 183 2 182 86 0 c112 0 124 7 124 70 l0
50 -280 0 -280 0 0 -55z"/>
<path d="M4738 1513 c5 -23 7 -25 10 -8 2 11 9 23 16 27 6 5 3 8 -10 8 -18 0
-20 -4 -16 -27z"/>
<path d="M4806 1532 c-3 -5 1 -15 9 -22 16 -14 20 -3 6 19 -5 8 -11 9 -15 3z"/>
<path d="M4865 1530 c-4 -6 -1 -18 7 -27 7 -9 12 -18 10 -20 -2 -3 -1 -7 2
-10 3 -4 6 8 6 25 0 32 -14 50 -25 32z"/>
</g>
</svg>
