<svg version="1.1" id="Layer_1" xmlns:x="ns_extend;" xmlns:i="ns_ai;" xmlns:graph="ns_graphs;" xmlns="http://www.w3.org/2000/svg" xmlns:xlink="http://www.w3.org/1999/xlink" x="0px" y="0px" viewBox="0 0 269 51" style="enable-background:new 0 0 269 51;" xml:space="preserve">
 <style type="text/css">
  .st0{fill:#00918C;}
	.st1{fill:#00ADA8;}
	.st2{fill:#333333;}
 </style>
 <metadata>
  <sfw xmlns="ns_sfw;">
   <slices>
   </slices>
   <sliceSourceBounds bottomLeftOrigin="true" height="51" width="269" x="-183.7" y="-239">
   </sliceSourceBounds>
  </sfw>
 </metadata>
 <g>
  <g>
   <path class="st0" d="M9.3,21.3L9.3,21.3l-5.6,5.6c-4.9,4.9-4.9,12.9,0,17.9l0,0c4.9,4.9,12.9,4.9,17.9,0L34,32.3v0
			c0.5-0.4,1.1-0.6,1.8-0.6c0.7,0,1.3,0.2,1.8,0.6h0L26.9,21.5C22,16.7,14.2,16.6,9.3,21.3">
   </path>
   <path class="st1" d="M68,26.9L44.8,3.7l0,0c-0.3-0.3-0.6-0.6-1-0.9c-4.9-4-12.3-3.7-16.9,0.9c-0.1,0.1-0.2,0.2-0.2,0.2L26,4.6
			L9.3,21.3l0,0c4.9-4.7,12.8-4.6,17.6,0.2l10.8,10.8l12.5,12.5c4.9,4.9,12.9,4.9,17.9,0C72.9,39.8,72.9,31.8,68,26.9">
   </path>
  </g>
  <g>
   <path class="st2" d="M119.6,26.9c0,10.9-6.1,16.3-15.7,16.3c-9.5,0-15.5-5.5-15.5-16v-21h6.4v20.7c0,6.8,3.5,10.4,9.2,10.4
			c5.7,0,9.2-3.4,9.2-10.1v-21h6.4C119.6,6.2,119.6,26.9,119.6,26.9z">
   </path>
   <path class="st2" d="M142,43.2c-4.5,0-7.4-2.3-9.3-4.8V51h-6.3V15.2h6.3v4.6c2-2.9,4.9-5.1,9.3-5.1c6.5,0,12.8,5.1,12.8,14.3
			S148.6,43.2,142,43.2z M140.6,20.1c-4.3,0-8,3.5-8,8.8s3.7,8.8,8,8.8c4.3,0,7.9-3.4,7.9-8.8C148.4,23.5,144.9,20.1,140.6,20.1z">
   </path>
   <path class="st2" d="M169.4,43.2c-3.9,0-8.2-1.4-11.6-4.1l2.8-4.3c3,2.2,6.2,3.4,9,3.4c2.7,0,4.3-1.1,4.3-3v-0.1
			c0-2.1-2.9-2.9-6.1-3.8c-4.1-1.1-8.6-2.8-8.6-8.1v-0.1c0-5.2,4.3-8.4,9.8-8.4c3.4,0,7.2,1.2,10.1,3.1l-2.5,4.5
			c-2.6-1.6-5.5-2.6-7.7-2.6c-2.4,0-3.8,1.1-3.8,2.8v0.1c0,2,3,2.8,6.2,3.8c4,1.2,8.5,3.1,8.5,8v0.1
			C179.6,40.3,175.2,43.2,169.4,43.2z">
   </path>
   <path class="st2" d="M192.3,34.1c0,2.4,1.2,3.4,3.4,3.4c1.4,0,2.7-0.3,3.9-0.9v5.1c-1.6,0.9-3.3,1.4-5.7,1.4c-4.6,0-7.9-2-7.9-8.1
			V20.6h-3.5v-5.4h3.5V7.6h6.3v7.5h7.4v5.4h-7.4L192.3,34.1L192.3,34.1z">
   </path>
   <path class="st2" d="M221.3,42.6v-3.4c-1.9,2.2-4.7,4-8.9,4c-5.2,0-9.8-3-9.8-8.5v-0.1c0-5.9,4.7-8.8,11.1-8.8
			c3.3,0,5.5,0.5,7.6,1.1v-0.7c0-3.8-2.4-5.9-6.8-5.9c-3.1,0-5.4,0.7-7.9,1.7l-1.7-5c3-1.4,6-2.3,10.5-2.3c8.1,0,12.1,4.3,12.1,11.6
			v16.3L221.3,42.6L221.3,42.6z M221.5,31c-1.6-0.6-3.8-1.1-6.3-1.1c-4,0-6.3,1.6-6.3,4.4v0.1c0,2.6,2.3,4.1,5.3,4.1
			c4.2,0,7.3-2.3,7.3-5.8V31z">
   </path>
   <path class="st2" d="M240.1,42.6h-6.3V15.2h6.3v6.2c1.7-4.1,4.9-6.9,9.7-6.7v6.7h-0.4c-5.5,0-9.4,3.6-9.4,10.9L240.1,42.6
			L240.1,42.6z">
   </path>
   <path class="st2" d="M261.6,34.1c0,2.4,1.2,3.4,3.4,3.4c1.4,0,2.7-0.3,3.9-0.9v5.1c-1.6,0.9-3.3,1.4-5.7,1.4c-4.6,0-7.9-2-7.9-8.1
			V20.6h-3.5v-5.4h3.5V7.6h6.3v7.5h7.4v5.4h-7.4V34.1z">
   </path>
  </g>
 </g>
</svg>