<svg version="1.1" id="Layer_1" xmlns:x="ns_extend;" xmlns:i="ns_ai;" xmlns:graph="ns_graphs;" xmlns="http://www.w3.org/2000/svg" xmlns:xlink="http://www.w3.org/1999/xlink" x="0px" y="0px" viewBox="0 0 253.9 72" style="enable-background:new 0 0 253.9 72;" xml:space="preserve">
 <style type="text/css">
  .st0{fill:none;}
	.st1{fill:#00358E;}
	.st2{fill:#2A7DE1;}
 </style>
 <metadata>
  <sfw xmlns="ns_sfw;">
   <slices>
   </slices>
   <sliceSourceBounds bottomLeftOrigin="true" height="72" width="254" x="0" y="0">
   </sliceSourceBounds>
  </sfw>
 </metadata>
 <path class="st0" d="M137.6,31.3c-3.6,0-6.2,2.4-7.2,6.5c0,0.2,0.1,0.4,0.3,0.4l13.1-0.1c0.2,0,0.3-0.1,0.3-0.3
	C143.8,33.5,141.6,31.3,137.6,31.3z">
 </path>
 <path class="st1" d="M72.7,32H42.6c-1.8,0-3.4,1.1-4.1,2.7l-2,4.5C36.3,39.6,36.6,40,37,40h35.7c0.3,0,0.6-0.2,0.6-0.5
	c0.1-1.2,0.2-2.3,0.2-3.5s-0.1-2.4-0.2-3.5C73.2,32.2,73,32,72.7,32z">
 </path>
 <path class="st1" d="M127,16h-7.1c-0.1,0-0.2,0.1-0.3,0.2l-13.8,31.4c-0.1,0.2-0.4,0.2-0.5,0L91.6,16.2c0-0.1-0.1-0.2-0.3-0.2h-7.1
	c-0.2,0-0.3,0.2-0.3,0.4L100.1,53c2.1,4.8,9,4.8,11.1,0l16.1-36.6C127.4,16.2,127.2,16,127,16z">
 </path>
 <path class="st1" d="M2.9,24l13.2-0.1c0.2,0,0.4-0.1,0.5-0.3l3-6.8c0.2-0.4-0.1-0.8-0.5-0.8H7.8c-1,0-2,0.5-2.5,1.4
	c-1.1,1.8-2.1,3.8-2.9,5.8C2.2,23.6,2.5,24,2.9,24z">
 </path>
 <path class="st1" d="M15.4,8l42.8-0.1c0.5,0,0.8-0.7,0.3-1C52.4,2.6,44.9,0,36.8,0c-8.1,0-15.6,2.6-21.7,7C14.6,7.3,14.8,8,15.4,8z">
 </path>
 <path class="st2" d="M37.2,24h33.3c0.4,0,0.7-0.4,0.5-0.8c-0.8-2.1-1.8-4-2.9-5.9c-0.5-0.8-1.4-1.4-2.4-1.4H31.5c-1.7,0-3.3,1-4,2.6
	L16.2,44.4c-0.1,0.1-0.2,0.2-0.3,0.2c-0.1,0-0.2-0.1-0.3-0.2l-4.3-9.9C10.7,33,9.2,32,7.4,32H0.8c-0.3,0-0.5,0.2-0.6,0.5
	C0.1,33.6,0,34.8,0,36s0.1,2.3,0.2,3.5c0,0.3,0.3,0.5,0.6,0.5h3.3c0.2,0,0.4,0.1,0.5,0.3c0.9,2,5.6,12.8,8.7,19.7
	c0.5,1.1,1.6,1.7,2.6,1.7c1.1,0,2.1-0.6,2.6-1.7l14.7-33.4C33.9,25,35.4,24,37.2,24z">
 </path>
 <path class="st1" d="M58.1,64H25.9c-0.2,0-0.4,0.1-0.5,0.3l-2,4.6c-0.2,0.3,0,0.7,0.3,0.8c4,1.5,8.4,2.3,13,2.3
	c8.1,0,15.6-2.6,21.7-7C58.9,64.7,58.7,64,58.1,64z">
 </path>
 <path class="st1" d="M70.5,48.1H32.9c-0.2,0-0.4,0.1-0.5,0.3l-3,6.8c-0.2,0.4,0.1,0.8,0.5,1h35.8c1,0,1.9-0.6,2.4-1.4
	c1.1-1.9,2.1-3.8,2.9-5.9C71.2,48.5,70.9,48.1,70.5,48.1z">
 </path>
 <path class="st1" d="M247,26.2h-3.8c-0.1,0-0.1,0.1-0.1,0.1V27c0,0.1,0.1,0.1,0.1,0.1h1.3c0.1,0,0.1,0.1,0.1,0.1V31
	c0,0.1,0.1,0.1,0.1,0.1h0.8c0,0,0.1-0.1,0.1-0.1v-3.8c0-0.1,0.1-0.1,0.1-0.1h1.3c0.1,0,0.1-0.1,0.1-0.1v-0.7
	C247.1,26.2,247,26.2,247,26.2z">
 </path>
 <path class="st1" d="M228.3,39.9c0-0.2,0-0.3,0.1-0.4l12.5-12.9c0.2-0.2,0-0.5-0.2-0.5H233c-0.1,0-0.2,0-0.2,0.1l-10.3,11.1
	c-0.2,0.2-0.5,0.1-0.5-0.2V16.3c0-0.2-0.1-0.3-0.3-0.3h-6.3c-0.2,0-0.3,0.1-0.3,0.3v39.4c0,0.2,0.1,0.3,0.3,0.3h6.3
	c0.2,0,0.3-0.1,0.3-0.3V42.8c0-0.3,0.3-0.4,0.5-0.2l10.8,13.3c0.1,0.1,0.1,0.1,0.2,0.1h7.5c0.2,0,0.4-0.3,0.2-0.5L228.3,39.9z">
 </path>
 <path class="st1" d="M253.3,26.2c0-0.1-0.1-0.1-0.1-0.1h-1.1c-0.1,0-0.1,0-0.1,0.1l-1,3.4h-0.1l-1-3.4c0-0.1-0.1-0.1-0.1-0.1h-1.1
	c-0.1,0-0.1,0-0.1,0.1l-0.7,4.8c0,0.1,0,0.1,0.1,0.1h0.8c0.1,0,0.1,0,0.1-0.1l0.5-3.2c0-0.1,0.1-0.1,0.1,0l1,3.2
	c-0.1,0-0.1,0.1,0,0.1h0.8c0.1,0,0.1,0,0.1-0.1l1-3.2h0.1L253,31c0,0.1,0.1,0.1,0.1,0.1h0.8c0.1,0,0.1-0.1,0.1-0.1L253.3,26.2z">
 </path>
 <path class="st1" d="M201.1,37.9c-3.4-0.9-4.6-1.9-4.6-3.7c0-2,1.6-3.2,4.3-3.2c3.6-0.1,6.8,1.9,8,2.8c0.2,0.1,0.5,0,0.5-0.2v-5.7
	c0-0.1,0-0.2-0.1-0.2c-0.7-0.4-3.8-2.3-8.5-2.3c-0.8,0-1.7,0-2.6,0.1c-4.6,0.4-8.1,4.3-8.1,8.9c0,5.2,2.5,7.8,8.9,9.2
	c3.7,1,5.4,1.8,5.4,4.1c0,2.6-2.6,3.2-4.7,3.2c-4,0-7.5-2.3-8.7-3.1c-0.2-0.1-0.5,0-0.5,0.2v5.9c0,0.1,0,0.2,0.1,0.2
	c0.6,0.4,3.8,2.3,9.2,2.4c3.3,0,6.1-0.8,8.1-2.2c2.1-1.6,3.2-3.9,3.2-7c-0.1-2.6-0.9-4.6-2.5-6.1C207,39.7,204.6,38.7,201.1,37.9z">
 </path>
 <path class="st1" d="M137.8,25.4c-4,0-7.7,1.6-10.3,4.4c-2.7,2.9-4.1,6.9-4.1,11.5c0,4.6,1.5,8.4,4.3,11.2c2.8,2.7,6.7,4.1,11.3,4.1
	c6.4,0,9.8-2.2,10.5-2.7c0.1,0,0.1-0.1,0.1-0.2v-5.5c0-0.2-0.2-0.3-0.4-0.2c-1.3,0.7-4.9,2.7-9.7,2.7c-2.4,0-4.6-0.8-6.3-2.1
	c-1.8-1.4-2.8-3.3-3.1-5.6c0-0.2,0.1-0.3,0.3-0.3h20c0.2,0,0.3-0.1,0.3-0.3v-3.2C150.7,30.4,146,25.4,137.8,25.4z M143.8,38.1
	l-13.1,0.1c-0.2,0-0.3-0.2-0.3-0.4c1-4.1,3.6-6.5,7.2-6.5c4,0,6.2,2.2,6.5,6.5C144.1,38,144,38.1,143.8,38.1z">
 </path>
 <path class="st1" d="M173,26.3c-0.6-0.2-2.8-0.7-5.6-0.5c-6.3,0-10.8,2.4-11.6,2.9c0,0-0.1,0.1-0.1,0.2v26.9c0,0.2,0.1,0.3,0.3,0.3
	h6.3c0.2,0,0.3-0.1,0.3-0.3V33.3c0-0.1,0.1-0.3,0.2-0.3c1.5-0.5,3-0.8,4.6-0.8c2.7-0.1,4.6,0.5,5.4,0.8c0.2,0,0.4-0.1,0.4-0.3v-6.1
	C173.2,26.4,173.1,26.3,173,26.3z">
 </path>
 <path class="st1" d="M181.4,12.9c-2.4,0-4.4,1.9-4.4,4.3c0,2.4,2,4.4,4.4,4.4c2.4,0,4.3-2,4.3-4.4C185.7,14.8,183.7,12.9,181.4,12.9
	z">
 </path>
 <path class="st1" d="M184.5,26.1h-6.3c-0.2,0-0.3,0.1-0.3,0.3v29.3c0,0.1,0.1,0.3,0.3,0.3h6.3c0.2,0,0.3-0.1,0.3-0.3V26.4
	C184.8,26.2,184.7,26.1,184.5,26.1z">
 </path>
</svg>