<?xml version="1.0" standalone="no"?>
<!DOCTYPE svg PUBLIC "-//W3C//DTD SVG 20010904//EN"
 "http://www.w3.org/TR/2001/REC-SVG-20010904/DTD/svg10.dtd">
<svg version="1.0" xmlns="http://www.w3.org/2000/svg"
 width="287.479212pt" height="168.000000pt" viewBox="0 0 287.479212 168.000000"
 preserveAspectRatio="xMidYMid meet">
<metadata>
Created by potrace 1.12, written by Peter Selinger 2001-2015
</metadata>
<g transform="translate(-16.020788,244.000000) scale(0.100000,-0.100000)"
fill="#000000" stroke="none">
<path d="M265 2421 c-48 -22 -69 -44 -90 -94 -13 -31 -15 -128 -15 -729 0
-651 2 -695 19 -733 22 -48 44 -69 94 -90 32 -13 188 -15 1329 -15 l1292 0 44
21 c26 13 54 38 70 62 l27 41 0 716 0 716 -27 41 c-16 24 -44 49 -70 62 l-44
21 -1295 0 c-1234 0 -1296 -1 -1334 -19z m614 -383 c0 -13 -6 -57 -12 -98
l-12 -75 -127 -3 c-71 -1 -128 1 -128 5 0 24 22 178 26 185 3 4 61 8 130 8
122 0 124 0 123 -22z m427 -80 l9 -93 -154 -3 c-85 -1 -156 0 -158 2 -3 3 17
46 43 95 l49 91 101 0 102 0 8 -92z m492 80 c-3 -7 -17 -50 -32 -95 l-28 -83
-130 0 c-100 0 -129 3 -126 13 3 6 17 49 32 95 l28 82 130 0 c100 0 129 -3
126 -12z m724 -20 c64 -27 141 -112 163 -179 30 -88 18 -169 -39 -285 -86
-172 -228 -292 -421 -355 -65 -21 -92 -23 -357 -27 -275 -4 -288 -3 -287 15 0
10 44 144 98 298 l98 280 164 -3 c90 -2 165 -4 166 -6 2 -2 -90 -272 -113
-330 -7 -18 -3 -19 78 -14 146 9 249 73 308 190 49 100 36 173 -43 232 -27 20
-43 21 -278 24 -246 3 -250 4 -244 23 4 12 17 51 29 87 l23 67 254 6 c300 6
338 4 401 -23z m-1685 -212 c6 -6 -21 -225 -34 -271 -11 -40 16 1 86 136 l71
137 178 -6 c97 -2 180 -9 183 -14 4 -6 12 -72 19 -149 7 -76 16 -137 20 -134
3 2 26 68 51 146 l44 142 118 -6 c65 -3 121 -8 124 -11 3 -3 -41 -142 -98
-308 l-104 -303 -153 -3 c-117 -2 -153 0 -157 10 -4 11 -18 143 -56 515 0 4
-60 -111 -132 -257 l-132 -265 -172 -3 c-95 -1 -173 -1 -173 2 0 2 16 144 35
316 19 172 35 319 35 327 0 14 17 15 120 11 66 -3 123 -8 127 -12z"/>
</g>
</svg>
