<svg version="1.1" id="Layer_1" xmlns:x="ns_extend;" xmlns:i="ns_ai;" xmlns:graph="ns_graphs;" xmlns="http://www.w3.org/2000/svg" xmlns:xlink="http://www.w3.org/1999/xlink" x="0px" y="0px" viewBox="0 0 625.6 75" style="enable-background:new 0 0 625.6 75;" xml:space="preserve">
 <style type="text/css">
  .st0{fill-rule:evenodd;clip-rule:evenodd;}
 </style>
 <metadata>
  <sfw xmlns="ns_sfw;">
   <slices>
   </slices>
   <sliceSourceBounds bottomLeftOrigin="true" height="75" width="625.6" x="-479.4" y="0.2">
   </sliceSourceBounds>
  </sfw>
 </metadata>
 <g id="确定">
  <g id="Our-cars展开" transform="translate(-41.000000, -19.000000)">
   <g id="logo" transform="translate(40.000000, 18.000000)">
    <path id="形状" class="st0" d="M13.1,1c0.9,0,1.8,0.2,2.7,0.5l0.6,0.3l55.8,29.6c0.4,0.2,0.7,0.6,0.8,1l0,0.3v11.5
				c0,0.5-0.2,0.9-0.5,1.2l-0.3,0.2L16.4,75.2c-0.8,0.4-1.7,0.7-2.6,0.8l-0.7,0H2.7c-1.4,0-2.1-1.5-1.5-2.6l0.2-0.3l27-31
				c0.5-0.6,1.2-0.9,1.9-1.1l0.4-0.1l30-1.6v-2l-30-1.6c-0.7,0-1.5-0.3-2-0.8l-0.3-0.3l-27-31c-0.9-1-0.3-2.6,1-2.8l0.3,0H13.1z
				 M145.4,1c1.5,0,2.3,1.7,1.3,2.8l-27,31c-0.6,0.7-1.4,1.1-2.3,1.1l-30,1.6v2l30,1.6c0.9,0,1.7,0.5,2.3,1.1l27,31
				c1,1.1,0.2,2.8-1.3,2.8h-10.4c-1.1,0-2.3-0.3-3.3-0.8L76,45.6c-0.5-0.3-0.8-0.8-0.8-1.4V32.7c0-0.6,0.3-1.1,0.8-1.4l55.8-29.6
				c1-0.5,2.1-0.8,3.3-0.8H145.4z M206.4,19.4L227,34.1l20.6-14.7h12.8l-27,19.3l28.5,20.4h-12.8L227,43.3l-22.1,15.8h-12.8
				l28.5-20.4l-27-19.3H206.4z M341.3,19.5c6.5,0,11.7,5.2,11.7,11.7c0,6.2-4.9,11.3-11,11.7l-0.7,0l-46.4,0V59h-7.6V35.5h53.7
				c2.4,0,4.3-1.9,4.3-4.3c0-2.2-1.7-4-3.8-4.3l-0.5,0h-53.7v-7.4H341.3z M444.4,35.5v7.4l-58.1,0v8.8l58.1,0V59h-65.7V35.5H444.4z
				 M626.6,19.3v7.4l-47.2,0c-6.9,0-12.5,5.6-12.5,12.4c0,6.6,5.2,12,11.8,12.4l0.7,0l39.6,0v-8.8l-34.4,0v-7.4h42V59h-47.2
				c-11,0-19.9-8.9-19.9-19.8c0-10.7,8.4-19.3,19-19.8l0.9,0H626.6z M534.9,19.3V59h-7.6V19.3H534.9z M479,19.3l48.4,31.5V59h-1.1
				l-48.6-31.5l0,31.5h-7.6V19.3H479z M444.4,19.3v7.4h-65.7v-7.4H444.4z">
    </path>
   </g>
  </g>
 </g>
</svg>