<svg version="1.1" id="Layer_1" xmlns:x="ns_extend;" xmlns:i="ns_ai;" xmlns:graph="ns_graphs;" xmlns="http://www.w3.org/2000/svg" xmlns:xlink="http://www.w3.org/1999/xlink" x="0px" y="0px" viewBox="0 0 236.4 66.8" style="enable-background:new 0 0 236.4 66.8;" xml:space="preserve">
 <style type="text/css">
  .st0{fill:#0067B9;}
 </style>
 <metadata>
  <sfw xmlns="ns_sfw;">
   <slices>
   </slices>
   <sliceSourceBounds bottomLeftOrigin="true" height="66.8" width="236.4" x="0.1" y="33.2">
   </sliceSourceBounds>
  </sfw>
 </metadata>
 <g>
  <path class="st0" d="M224.7,66.8c-12.5,0-12.4-9.6-12.4-9.6h5.7c0,0-0.4,4.7,5.9,5.1c1.6,0.1,6.6-0.6,6.6-4.1
		c0-4.1-5.2-3.9-8.4-4.8c-3.2-0.8-9.4-2.2-9.4-8c0-5,4.1-9.3,12-9.3c10.6,0.1,10.5,8.2,10.6,8.7h-5.4c-0.4-1.2-0.7-4.1-5.4-4.2
		c-2.3,0-5.9,0.8-5.9,3.5c0,3.4,4,3.9,8.1,4.6c6.3,1.2,9.9,3.1,9.7,8.9C236.2,62.7,231.7,66.8,224.7,66.8 M230.2,29.2v-2.8
		c-0.6,0.6-3.5,4.2-8.8,4c-18.1-0.4-18.1-30,0.9-30.3c4.6,0,8.4,2.9,9.9,4.9c1.8,2.3,1.9,4.3,2,4.8h-5c-1.1-1.8-2.9-4.9-7.1-4.9
		c-11-0.1-11.7,20.6-0.1,20.8c5.2,0.1,7.8-5.2,7.8-5.3v-1.6h-7.1v-4.6h12.2v14.9L230.2,29.2L230.2,29.2z M190.3,66V36.6h21v5.3H196
		V48h13.6v5.3h-13.5V61h16v5C212,66,190.3,66,190.3,66z M192.3,25.5c11,0.1,11-20.3,0.2-20.5C181.9,4.9,181.5,25.4,192.3,25.5
		 M192.5,30.4c-19,0-18.3-30.5,0.2-30.4C210.6,0.1,211.1,30.4,192.5,30.4 M176.3,66.7c-16.2,0.3-19-30.7,0.1-30.5
		c10.6,0,12.4,8.8,12.9,10.1h-6c-0.9-1.8-3.3-5.3-6.3-5.6C166.5,40,166.5,62,177,62c5,0,6.2-5,6.5-5.6h5.7
		C189.3,56.5,188.6,66.6,176.3,66.7 M159.8,29.9V0.4h5.9v24.5h13.2v5H159.8L159.8,29.9z M154.4,36.7h6.3V66h-6.3V36.7z M148.2,17.6
		l-3.7-11.1l-3.7,11.1v1.6h7.6C148.3,18.3,148.3,18.1,148.2,17.6 M152.5,29.9l-2.3-6.5h-10.9l-2,6.5h-5.9l10-29.5h6l11.2,29.5H152.5
		L152.5,29.9z M143,66h-5.7l-9.7-27.8v-1.6h5.9l6.7,21.5l6.5-21.5h5.8v1.5L143,66L143,66z M124.5,29.9l-13-19.9v19.9h-5.9V0.4h6.1
		L124.2,20V0.4h5.9v29.5H124.5L124.5,29.9z M104,66.1V36.6h21.8v4.9H110v6.3h14v5.3h-13.9V61h16.3v5C126.2,66.1,104,66.1,104,66.1z
		 M94,17.5L90.2,6.7l-3.3,10.8l-0.2,1.8H94C94,18.3,94.1,18.1,94,17.5 M87.7,41.6H83v19.8h5c6.6,0,7.6-5.6,7.6-9.9
		C95.6,48.2,94,41.6,87.7,41.6 M98.3,30l-2.2-6.5h-11l-2,6.5h-5.9l10-29.5h6L104.4,30H98.3L98.3,30z M88.1,66.1H76.8V36.7h11.4
		c8.5,0,13.6,6.7,13.6,15.2S97.3,66.1,88.1,66.1 M13.6,11v47.4l41.3-24.2L13.6,11z M0,0.7h65.9v66H0V0.7z">
  </path>
 </g>
</svg>