<svg version="1.1" id="Layer_1" xmlns:x="ns_extend;" xmlns:i="ns_ai;" xmlns:graph="ns_graphs;" xmlns="http://www.w3.org/2000/svg" xmlns:xlink="http://www.w3.org/1999/xlink" x="0px" y="0px" viewBox="0 0 410.3 167.3" style="enable-background:new 0 0 410.3 167.3;" xml:space="preserve">
 <style type="text/css">
  .st0{fill:#F38B00;}
	.st1{fill:#009BDE;}
 </style>
 <metadata>
  <sfw xmlns="ns_sfw;">
   <slices>
   </slices>
   <sliceSourceBounds bottomLeftOrigin="true" height="167.3" width="410.3" x="6.6" y="9.3">
   </sliceSourceBounds>
  </sfw>
 </metadata>
 <g>
  <g>
   <g>
    <path class="st0" d="M125,122.4h-16.8l14.5-29.3h0.2L125,122.4L125,122.4z M125.8,135.6l1,11.6h18.4l-6.1-67.7h-27.4L77,147.2
				h18.8l5.8-11.6H125.8L125.8,135.6z">
    </path>
    <polygon class="st0" points="171,117.6 173.7,117.6 186.9,99.8 203.9,99.8 185.7,122.6 196.9,147.2 178.8,147.2 171.5,128 
				168.8,128 164.7,147.2 149.2,147.2 163.5,79.5 179.1,79.5 			">
    </polygon>
    <path class="st0" d="M223.8,127.6c5.1,0,8.4,0.4,7.6,4.3c-1.1,5-3.2,5.8-9.7,5.8c-2.4,0-6.8,0-5.7-5.1
				C216.9,128.3,220,127.6,223.8,127.6L223.8,127.6z M228.1,147.2h15.5l6.3-29.6c3.5-16.3-2.8-18.3-18.7-18.3
				c-11.1,0-21.8-0.1-25,14.6h15.5c0.9-4.3,3.5-5.1,7.4-5.1c6.8,0,6.5,2.8,5.5,7.2l-1.6,7.5h-0.7c-0.6-5.4-7.4-5.3-11.8-5.3
				c-11.2,0-17.9,3.5-20.3,14.9c-2.6,12.1,3.2,14.7,14,14.7c5.4,0,12.7-1.1,15.2-7.6h0.5L228.1,147.2L228.1,147.2z">
    </path>
    <path class="st0" d="M275,99.8l-1.4,6.7h0.6c3.1-5.6,9.2-7.2,14.5-7.2c6.7,0,13.3,1.2,12.4,9.3h0.7c2.3-6.8,9.2-9.3,15.2-9.3
				c10.9,0,15.6,4.5,13.2,15.5l-6.9,32.4h-15.5l5.8-27.4c0.8-5,1.6-8.6-4.4-8.6s-8.1,4-9.1,9.1l-5.7,26.9h-15.5l6.1-28.7
				c0.7-4.3,1.1-7.3-4.3-7.3c-6.4,0-8.3,3.4-9.5,9.1l-5.7,26.9H250l10.1-47.4L275,99.8L275,99.8z">
    </path>
    <path class="st0" d="M354.6,127.6c5,0,8.4,0.4,7.6,4.3c-1,5-3.2,5.8-9.7,5.8c-2.3,0-6.8,0-5.7-5.1
				C347.7,128.3,350.8,127.6,354.6,127.6L354.6,127.6z M358.9,147.2h15.5l6.3-29.6c3.5-16.3-2.8-18.3-18.7-18.3
				c-11.1,0-21.9-0.1-25,14.6h15.5c0.9-4.3,3.5-5.1,7.4-5.1c6.8,0,6.5,2.8,5.5,7.2l-1.4,7.5h-0.7c-0.6-5.4-7.4-5.3-11.8-5.3
				c-11.2,0-17.9,3.5-20.3,14.9c-2.6,12.1,3.2,14.7,14,14.7c5.4,0,12.7-1.1,15.3-7.6h0.5L358.9,147.2L358.9,147.2z">
    </path>
    <path class="st0" d="M396.8,147.2h-15.5l10-47.4h15.5L396.8,147.2L396.8,147.2z">
    </path>
   </g>
   <path class="st1" d="M84.9,163.6c-34.4-10.5-59.5-42.3-59.5-79.9C25.4,45.6,51,13.5,86,3.4c3.6-1,2.6-3.4-1.7-3.4
			C37.8,0,0,37.5,0,83.7s37.7,83.6,84.3,83.6C88.6,167.3,88.8,164.8,84.9,163.6z">
   </path>
   <path class="st1" d="M41.4,103.2c-0.2-2.2-0.4-4.5-0.4-6.8C41,59.7,70.7,30,107.4,30c34.7,0,45.1,15.5,46.4,14.5
			c1.4-1.1-12.6-31.8-53.3-31.8c-36.7,0-66.4,29.7-66.4,66.4c0,8.5,1.6,16.6,4.5,24C39.8,106.3,41.7,106.3,41.4,103.2z">
   </path>
   <path class="st1" d="M69.2,55.4c17.2-7.5,38.9-7.7,60.2-0.3c14.3,5,22.6,12.1,23.3,11.8c1.1-0.5-8.3-15.5-25.4-21.9
			c-20.7-7.8-42.9-3.7-59.1,9C66.4,55.4,67.1,56.3,69.2,55.4z">
   </path>
   <path class="st0" d="M410.3,86.7c0,4.8-3.9,8.7-8.7,8.7c-4.8,0-8.7-3.9-8.7-8.7c0-4.8,3.9-8.7,8.7-8.7S410.3,81.9,410.3,86.7z">
   </path>
  </g>
 </g>
</svg>