<svg width="148" viewBox="0 0 148 48" fill="none" xmlns="http://www.w3.org/2000/svg">
<g clip-path="url(#clip0_1915_15155)">
<path d="M57.9028 23.9729H53.6543V28.2952H57.9028C59.0912 28.2952 59.996 27.503 59.996 26.1243C60.0038 24.7729 59.0989 23.9729 57.9028 23.9729ZM53.6543 21.2816H56.9708C58.0232 21.2816 58.8116 20.5826 58.8116 19.3554C58.8193 18.1321 58.031 17.4292 56.9708 17.4292H53.6543V21.2816ZM60.6601 22.2797C62.3688 22.8389 63.5766 24.303 63.5611 26.2875C63.5611 29.1962 61.2853 31.0875 58.4737 31.0875H50.1514V14.6331H57.697C60.3028 14.6331 62.3921 16.3884 62.3727 19.0447C62.3727 20.4777 61.697 21.6078 60.6562 22.2758L60.6601 22.2797Z" fill="#191919"/>
<path d="M64.0931 19.336H67.3824V31.0875H64.0931V19.336ZM67.6659 16.0467C67.6659 17.0797 66.8038 17.9146 65.7397 17.9146C64.6756 17.9146 63.8135 17.0797 63.8135 16.0467C63.8135 15.0137 64.6756 14.1787 65.7397 14.1787C66.8038 14.1787 67.6659 15.0137 67.6659 16.0467Z" fill="#191919"/>
<path d="M76.8582 26.8933V23.1185C75.9611 22.2797 74.7727 21.802 73.7863 21.7981C72.2135 21.7981 71.3164 23.0447 71.3164 25.002C71.3164 26.9593 72.2135 28.2137 73.7863 28.2137C74.7727 28.2137 75.9688 27.7282 76.8582 26.8933ZM80.1591 30.5088C80.1591 34.3651 77.6271 36.0117 74.5591 36.0273C72.6407 36.035 70.5786 35.4059 68.8349 34.1904L69.0485 31.6894C70.7494 32.7302 72.7222 33.3515 74.1552 33.3515C75.9028 33.3515 76.8659 32.404 76.8582 30.4972V29.3515C75.7164 30.3768 74.4116 30.8894 73.0756 30.8894C70.0698 30.8894 67.9766 28.2719 67.9766 24.9476C67.9766 21.6234 70.0698 19.0175 73.0756 19.0175C74.3805 19.0175 75.6931 19.5108 76.8582 20.5554V19.3321H80.1475L80.1552 30.5049L80.1591 30.5088Z" fill="#191919"/>
<path d="M89.9145 23.9729H85.6659V28.2952H89.9145C91.1028 28.2952 92.0077 27.503 92.0077 26.1243C92.0154 24.7729 91.1106 23.9729 89.9145 23.9729ZM85.6659 21.2816H88.9824C90.0349 21.2816 90.8232 20.5826 90.8232 19.3554C90.831 18.1321 90.0426 17.4292 88.9824 17.4292H85.6659V21.2816ZM92.6718 22.2797C94.3805 22.8389 95.5883 24.303 95.5727 26.2875C95.5727 29.1962 93.297 31.0875 90.4853 31.0875H82.163V14.6331H89.7086C92.3145 14.6331 94.4038 16.3884 94.3844 19.0447C94.3844 20.4777 93.7086 21.6078 92.6679 22.2758L92.6718 22.2797Z" fill="#191919"/>
<path d="M98.9358 24.0001H103.911C103.709 22.5865 103.029 21.6816 101.526 21.6816C100.132 21.6816 99.2271 22.5942 98.9358 24.0001ZM101.448 19.0059C105.076 19.0059 107.177 21.5845 107.157 25.4564C107.157 25.6389 107.149 25.8214 107.138 26.004H98.8892C98.897 26.0661 98.9086 26.1282 98.9203 26.1904C99.2116 27.8059 100.291 28.7302 101.817 28.7302C102.936 28.7302 104.163 28.3729 105.41 27.7593L106.175 29.8292C104.843 30.8506 103.192 31.4175 101.507 31.4175C97.8795 31.4175 95.4873 28.6447 95.4873 25.2117C95.4873 21.7787 97.8562 18.9942 101.445 19.0059H101.448Z" fill="#191919"/>
<path d="M116.256 27.2467V23.1807C115.328 22.2564 114.128 21.7904 113.2 21.7865C111.666 21.7865 110.734 23.1341 110.734 25.2117C110.734 27.2894 111.631 28.637 113.2 28.637C114.128 28.637 115.328 28.1671 116.256 27.2467ZM119.546 31.0875H116.256V29.8253C115.083 30.9282 113.736 31.4137 112.47 31.4137C109.483 31.4137 107.394 28.6642 107.394 25.2078C107.394 21.7515 109.487 19.002 112.47 19.002C113.736 19.002 115.08 19.4875 116.256 20.5904V19.3282H119.546V31.0875Z" fill="#191919"/>
<path d="M128.474 18.9904C128.579 18.9904 128.683 18.9904 128.788 18.9981L128.245 22.07C128.124 22.0583 128 22.0544 127.872 22.0583C126.582 22.0583 125.118 22.5787 123.891 23.5884V31.0836H120.602V19.3321H123.891V20.9476C125.254 19.6583 126.975 18.9865 128.47 18.9865L128.474 18.9904Z" fill="#191919"/>
<path d="M139.285 27.27V23.204C138.357 22.2797 137.157 21.8137 136.229 21.8137C134.695 21.8137 133.763 23.1612 133.763 25.2389C133.763 27.3166 134.66 28.6641 136.229 28.6641C137.157 28.6641 138.357 28.1942 139.285 27.2739M142.575 31.1146H139.285V29.8564C138.113 30.9593 136.765 31.4447 135.499 31.4447C132.513 31.4447 130.423 28.6952 130.423 25.2389C130.423 21.7826 132.516 19.0331 135.499 19.0331C136.765 19.0331 138.109 19.5185 139.285 20.6214V19.3593H142.575V31.1146Z" fill="#191919"/>
<path d="M130.633 29.4836C130.633 30.5166 129.771 31.3515 128.707 31.3515C127.643 31.3515 126.78 30.5166 126.78 29.4836C126.78 28.4506 127.643 27.6156 128.707 27.6156C129.771 27.6156 130.633 28.4506 130.633 29.4836Z" fill="#191919"/>
<path d="M147.2 16.07C147.2 17.103 146.338 17.9379 145.274 17.9379C144.21 17.9379 143.347 17.103 143.347 16.07C143.347 15.037 144.21 14.202 145.274 14.202C146.338 14.202 147.2 15.0408 147.2 16.07Z" fill="#191919"/>
<path d="M146.916 19.3593H143.627V31.1108H146.916V19.3593Z" fill="#191919"/>
<path d="M47.9922 23.9689L32.699 20.7573C32.5514 20.7262 32.466 20.5748 32.5126 20.4311L35.0097 13.0913C35.0252 13.0485 34.9825 13.0136 34.9437 13.0252L27.6194 15.6155C27.4757 15.666 27.3204 15.5806 27.2893 15.4291L24.0738 0.0427128C24.0621 -0.0155397 23.9767 -0.0155397 23.965 0.0427128L20.6796 15.4641C20.6485 15.6116 20.4932 15.6971 20.3495 15.6466L12.9359 13.0252C12.8971 13.0097 12.8582 13.0485 12.8699 13.0913L15.3981 20.5126C15.4447 20.6563 15.3592 20.8078 15.2116 20.8388L0.0427128 23.9689C-0.0155397 23.9806 -0.0155397 24.066 0.0427128 24.0777L7.52621 25.6349L12.6136 23.6777L13.7476 23.1689L16.3767 22.1437C17.0175 22.8544 18.0621 22.9592 18.3922 22.9748C18.132 22.6951 17.9534 22.4815 17.8913 22.2796C17.7165 21.9068 17.7359 21.6078 17.7359 21.4951C17.7514 21.0524 17.9806 20.1204 18.9476 19.7981C20.233 19.367 21.165 20.9204 21.165 20.9204L26.8582 21.3243L26.7184 22.1592C26.7029 22.2369 26.7612 22.3146 26.8427 22.3184L30.9165 22.6718C30.9087 23.2349 30.8039 23.7942 30.6058 24.3223L30.5981 24.3456L30.4777 25.7903C30.4427 26.1864 30.3456 26.5748 30.1786 26.9398C29.9379 27.4757 29.565 27.9417 29.0951 28.299C27.0641 29.8447 21.3825 34.5476 22.0155 38.466L23.965 47.9534C23.9767 48.0117 24.0621 48.0117 24.0738 47.9534L27.1883 32.7301C27.2194 32.5825 27.3748 32.4932 27.5184 32.5437L34.932 35.165C34.9709 35.1806 35.0097 35.1417 34.9981 35.099L32.4621 27.6505C32.4155 27.5068 32.501 27.3553 32.6485 27.3243L47.9883 24.0738C48.0466 24.0621 48.0466 23.9767 47.9883 23.965" fill="#0037FF"/>
</g>
<defs>
<clipPath id="clip0_1915_15155">
<rect width="147.2" height="48" fill="white"/>
</clipPath>
</defs>
</svg>
