<svg version="1.1" id="Layer_1" xmlns="http://www.w3.org/2000/svg" xmlns:xlink="http://www.w3.org/1999/xlink" x="0px" y="0px" viewBox="0 0 185.8 46.8" style="enable-background:new 0 0 185.8 46.8;" xml:space="preserve">
 <style type="text/css">
  .st0{fill:#4A5557;}
	.st1{fill:#8E3E91;}
 </style>
 <g>
  <g>
   <path class="st0" d="M127.9,16.4c0-1.7-1.1-2.7-2.7-2.7c-1.6,0-2.7,1.1-2.7,2.7c0,1.7,1.1,2.7,2.7,2.7
			C126.8,19.1,127.9,18.1,127.9,16.4 M72.1,33.2c-1.8,0-3.1-1.1-3.1-3.9c0-2.7,1.5-4.7,4.3-4.7c0.8,0,1.5,0,2.3,0.4v3.9
			C75.7,31.6,74.5,33.2,72.1,33.2 M142.4,29c0,2.7-1.1,4.3-3.5,4.3c-1.8,0-3.1-1.1-3.1-3.9c0-2.7,1.5-4.7,4.3-4.7
			c0.8,0,1.5,0,2.3,0.4V29z M49.9,29.2c0-2.8,1.2-4.4,3.7-4.4c2.2,0,3.2,1.6,3.2,4.1c0,3.1-1.7,4.5-4.2,4.5c-0.9,0-1.8-0.1-2.7-0.7
			V29.2z M122.7,37.2h4.7c0.2,0,0.4-0.2,0.4-0.4v-16h-4.7c-0.2,0-0.4,0.2-0.4,0.4V37.2z M84.4,20.8c-0.2,0-0.4,0.2-0.4,0.4v16h4.7
			c0.2,0,0.4-0.2,0.4-0.4V30c0-2.8,1.3-4.5,3.8-4.5c0.3,0,0.6,0,0.9,0.1l0.8-5c-0.2-0.1-0.3-0.1-0.8-0.1c-2,0-3.6,0.8-4.7,2.7
			l-0.3-2.3H84.4z M114.1,37.2h4.7c0.2,0,0.4-0.2,0.4-0.4v-23h-4.6c-0.2,0-0.4,0.2-0.4,0.4V37.2z M175.2,24.8h3.6l1.3-3.8v-0.2h-5
			v-5h-4.7c-0.2,0-0.4,0.2-0.4,0.4V31c0,4.5,1.9,6.9,6.2,6.9c1.6,0,3.3-0.4,4.4-1.2l-1.2-3.5c-0.6,0.4-1.3,0.6-2.1,0.6
			c-1.6,0-2.2-1-2.2-2.8V24.8z M101.4,13.9h-4.7c-0.2,0-0.4,0.2-0.4,0.4v23h4.7c0.2,0,0.4-0.2,0.4-0.4v-7l5.6,7.4h5.2
			c0.3,0,0.4-0.1,0.4-0.3c0-0.1-0.1-0.3-0.1-0.4l-6.6-8.3l6.2-7v-0.4h-5.5l-5.2,6V13.9z M155.9,13.9h-4.6c-0.2,0-0.4,0.2-0.4,0.4v23
			h4.6c0.2,0,0.4-0.2,0.4-0.4v-7.7c0-2.7,1.1-4.3,3.4-4.3c1.8,0,2.6,1.1,2.6,3.5v8.9h4.6c0.2,0,0.4-0.2,0.4-0.4v-9.8
			c0-4.1-2.1-6.7-6-6.7c-1.7,0-3.6,0.5-5.1,2.5V13.9z M31.1,19.9c0-1.3,1.1-2.2,2.9-2.2c1.9,0,3.3,0.6,5.2,2.1l3-3.3
			c-2.4-2.2-5-3.2-8.3-3.2c-5,0-8.2,2.8-8.2,7.2c0,3.5,2.1,5.6,6.1,6.8c4.2,1.2,5.3,1.8,5.3,3.4c0,1.5-1.2,2.5-3.3,2.5
			c-2.2,0-4.3-1-6-2.9L24.4,34c2.6,2.6,5.7,3.9,9.5,3.9c5.2,0,8.7-3,8.7-7.6c0-3.8-2.1-5.7-6.1-7C32.2,22.1,31.1,21.5,31.1,19.9
			 M75.8,37.2h4.4c0.2,0,0.4-0.2,0.4-0.4V21.7c-2.3-0.8-4.7-1.2-7.1-1.2c-5.9,0-9.6,3.5-9.6,9.3c0,5.3,2.9,7.8,6.6,7.8
			c2.2,0,4-0.8,5.1-2.5L75.8,37.2z M53.2,37.6c5.4,0,8.6-4,8.6-9.2c0-4.2-2-7.9-6.7-7.9c-2,0-4,0.7-5.2,2.5l-0.2-2.2h-4.4
			c-0.2,0-0.4,0.2-0.4,0.4v23.2h4.6c0.2,0,0.4-0.2,0.4-0.4v-7.2C50.8,37.3,52,37.6,53.2,37.6 M138.3,40.6c-1.9,0-3.4-0.5-4.9-1.4
			l-1.3,4c1.8,1,4.1,1.6,6.7,1.6c5.7,0,8.7-2.6,8.7-8v-15c-2.3-0.8-4.7-1.2-7.2-1.2c-5.8,0-9.5,3.7-9.5,9.3c0,5.2,2.9,7.8,6.7,7.8
			c2.3,0,3.9-0.8,5-2.5V37C142.4,39.4,141.1,40.6,138.3,40.6">
   </path>
   <path class="st1" d="M21.6,2.4c0.1-0.4-0.1-0.7-0.4-0.8L16.9,0c-0.3-0.1-0.7,0.1-0.9,0.4l-16,44c-0.1,0.3,0.1,0.7,0.4,0.8l4.3,1.6
			c0.3,0.1,0.7-0.1,0.8-0.4L21.6,2.4z">
   </path>
   <path class="st0" d="M183.3,15.8c0.1,0,0.3,0,0.3-0.1c0.1-0.1,0.1-0.2,0.1-0.3c0-0.1,0-0.2-0.1-0.3c-0.1-0.1-0.2-0.1-0.3-0.1h-0.4
			v0.8H183.3z M182.4,14.7h1c0.2,0,0.3,0,0.4,0.1c0.1,0,0.2,0.1,0.3,0.2c0.1,0.1,0.1,0.2,0.2,0.2c0,0.1,0.1,0.2,0.1,0.3
			c0,0.2,0,0.3-0.1,0.4c-0.1,0.1-0.2,0.2-0.4,0.3l0.6,1h-0.5l-0.6-1h-0.4v1h-0.5V14.7z M183.3,18c0.3,0,0.5-0.1,0.8-0.2
			c0.2-0.1,0.4-0.2,0.6-0.4c0.2-0.2,0.3-0.4,0.4-0.6c0.1-0.2,0.1-0.5,0.1-0.8c0-0.3-0.1-0.5-0.1-0.8c-0.1-0.2-0.2-0.5-0.4-0.6
			s-0.4-0.3-0.6-0.4c-0.2-0.1-0.5-0.2-0.8-0.2c-0.3,0-0.5,0.1-0.8,0.2c-0.2,0.1-0.4,0.2-0.6,0.4c-0.2,0.2-0.3,0.4-0.4,0.6
			c-0.1,0.2-0.1,0.5-0.1,0.8c0,0.3,0,0.5,0.1,0.8c0.1,0.2,0.2,0.5,0.4,0.6c0.2,0.2,0.4,0.3,0.6,0.4C182.7,17.9,183,18,183.3,18
			 M183.3,18.5c-0.3,0-0.7-0.1-1-0.2c-0.3-0.1-0.6-0.3-0.8-0.5c-0.2-0.2-0.4-0.5-0.5-0.8c-0.1-0.3-0.2-0.6-0.2-1
			c0-0.3,0.1-0.7,0.2-1c0.1-0.3,0.3-0.6,0.5-0.8c0.2-0.2,0.5-0.4,0.8-0.5c0.3-0.1,0.6-0.2,1-0.2c0.3,0,0.7,0.1,1,0.2
			c0.3,0.1,0.6,0.3,0.8,0.5c0.2,0.2,0.4,0.5,0.5,0.8c0.1,0.3,0.2,0.6,0.2,1c0,0.3-0.1,0.7-0.2,1c-0.1,0.3-0.3,0.6-0.5,0.8
			c-0.2,0.2-0.5,0.4-0.8,0.5C183.9,18.4,183.6,18.5,183.3,18.5">
   </path>
  </g>
 </g>
</svg>