<svg height="45" viewBox="0 0 140 45" width="140" xmlns="http://www.w3.org/2000/svg">
<g>
<path d="M107.826 4.07379C107.826 4.72309 107.761 5.3081 107.305 6.28313L90.9289 41.4396C90.0203 43.454 88.4603 44.6883 86.3152 44.6883C84.1702 44.6883 82.4816 43.454 81.5066 41.3732L76.3957 31.6316C76.0057 30.7873 75.875 30.2022 75.875 29.5529C75.875 27.2129 77.4993 25.655 79.8394 25.655C81.3994 25.655 82.698 26.4993 83.4137 28.0593L86.3152 33.6416H86.446L100.482 2.97019C101.196 1.34587 102.366 0.37085 104.056 0.37085C106.332 0.37085 107.826 1.86445 107.826 4.07379Z" fill="#f5f5f5"></path>
<path d="M39.9236 36.8351C36.3128 41.6866 29.8583 44.8195 21.8074 44.6631C8.64357 44.406 -0.253771 35.2172 0.0055208 22.0554C0.26267 8.89158 9.51145 0.0585239 22.6753 0.317816C29.9591 0.46139 35.8499 3.19574 39.7221 7.93799C40.3457 8.71801 40.8386 9.6866 40.815 10.8352C40.7722 13.0081 39.1457 14.5103 37.0371 14.4696C35.6313 14.4417 34.6199 13.8481 33.872 12.8731C31.3819 9.50017 27.0854 7.88227 22.101 7.78584C13.538 7.6187 7.97713 13.1988 7.80141 22.2076C7.62569 31.2185 13.2015 37.2872 21.7646 37.4544C27.004 37.5572 31.3177 35.7079 34.0113 31.9257C34.7335 30.9806 35.8949 30.4299 37.1721 30.4535C39.4093 30.4964 40.8493 32.0585 40.8064 34.2314C40.7872 35.2536 40.4486 36.1429 39.9257 36.8351" fill="#f5f5f5"></path>
<path d="M139.283 38.7479L122.95 3.67928C122.044 1.66924 120.488 0.439209 118.347 0.439209C116.206 0.439209 114.522 1.67138 113.551 3.74571L97.3467 38.6836C96.9567 39.5258 96.8281 40.1087 96.8281 40.758C96.8281 43.0916 98.4482 44.6474 100.782 44.6474C102.338 44.6474 103.634 43.8052 104.348 42.2494L118.349 11.4602H118.48L122.468 20.1754C122.657 20.1625 122.845 20.1518 123.038 20.1518H123.299C128.449 20.1518 132.04 25.2583 130.294 30.1035C130.251 30.2256 130.206 30.3477 130.161 30.4699C129.762 31.5756 129.165 32.4885 128.44 33.2214L132.482 42.0544C133.195 43.6745 134.361 44.6474 136.045 44.6474C138.315 44.6474 139.806 43.1559 139.806 40.953C139.806 40.3058 139.742 39.723 139.288 38.7501" fill="#f5f5f5"></path>
<path d="M127.992 29.4898C127.96 29.5798 127.928 29.6698 127.896 29.7598C126.147 34.6092 119.279 34.5835 117.567 29.7212C117.535 29.6312 117.503 29.5412 117.473 29.4512C116.215 25.8854 118.863 22.1482 122.644 22.1482H122.836C126.636 22.1482 129.282 25.9154 127.994 29.4876" fill="#FF9021"></path>
<path d="M53.5894 0.3125C48.6693 0.3125 44.7028 1.1568 41.1755 3.35757C41.062 3.42828 41.0684 3.59543 41.1841 3.66186C43.1384 4.77832 44.9663 6.76479 45.9264 8.27768C46.0807 8.51983 46.2821 8.73626 46.4342 8.99127C46.4814 9.07055 46.5778 9.10056 46.6592 9.05984C48.6671 8.05267 50.9986 7.49766 53.5894 7.49766C60.8688 7.49766 66.1532 11.8349 67.7261 18.4479C67.7519 18.5593 67.6661 18.6686 67.5504 18.6686H46.2585C46.1835 18.6643 44.7006 18.6686 44.6256 18.6686C42.7249 18.6686 41.182 20.1987 41.182 22.0994C41.182 24.0002 42.6541 25.5152 44.4928 25.5838H70.2591C73.0513 25.5838 75.3142 23.3209 75.3142 20.5287C75.3142 9.17984 66.0932 0.3125 53.5894 0.3125Z" fill="#f5f5f5"></path>
<path d="M69.745 30.3847C68.4956 30.3633 67.362 30.9076 66.6592 31.8312C66.2434 32.4183 65.7913 32.9605 65.307 33.4598C62.6841 35.9327 58.8933 37.5142 54.1982 37.4349C51.5431 37.3899 49.1859 36.822 47.163 35.832C47.0023 35.7527 46.8373 35.6755 46.6809 35.5898C46.6016 35.547 46.5051 35.5727 46.4558 35.6498C46.2973 35.8963 46.1194 36.147 45.9608 36.3827C44.9644 37.8463 43.0936 39.7556 41.1264 40.7971C41.0086 40.8592 40.9979 41.0242 41.1072 41.0971C43.4622 42.6721 46.0487 43.6107 49.0166 44.0972C50.6174 44.4079 52.306 44.5879 54.076 44.6179C58.8461 44.6972 63.1341 43.5936 66.6763 41.5793C68.4185 40.6235 69.94 39.4449 71.2086 38.0927C71.2321 38.067 71.2557 38.0435 71.2793 38.0177C71.3436 37.947 71.41 37.8763 71.4743 37.8056C71.6607 37.6063 71.8471 37.4092 72.025 37.2034C72.1021 37.1049 72.16 37.002 72.2264 36.8991C72.3014 36.8049 72.3786 36.7106 72.4493 36.6141C72.9615 35.9348 73.2872 35.067 73.3043 34.0662C73.3407 31.9426 71.9286 30.419 69.7428 30.3826" fill="#f5f5f5"></path>
</g>
</svg>