<svg version="1.1" id="Layer_1" xmlns:x="ns_extend;" xmlns:i="ns_ai;" xmlns:graph="ns_graphs;" xmlns="http://www.w3.org/2000/svg" xmlns:xlink="http://www.w3.org/1999/xlink" x="0px" y="0px" viewBox="0 0 400.3 158.2" style="enable-background:new 0 0 400.3 158.2;" xml:space="preserve">
 <style type="text/css">
  .st0{clip-path:url(#SVGID_3_);}
	.st1{opacity:0.2;clip-path:url(#SVGID_4_);}
 </style>
 <metadata>
  <sfw xmlns="ns_sfw;">
   <slices>
   </slices>
   <sliceSourceBounds bottomLeftOrigin="true" height="187.5" width="400.3" x="0" y="-293.5">
   </sliceSourceBounds>
  </sfw>
 </metadata>
 <g>
  <path d="M217.7,0.1c-6.1,0-11.8,3.4-13.9,8.9c-0.8,2.2-1.2,4.3-1,6.7h6.3c2.6,0,4.2,1.3,4.2,2.3c-6.6,2.6-9.2,6.1-8.8,8.8l5.8,41.5
		l20.6-47.5c1.4-3.2,1.7-5.9,0.7-9.7c-0.9-3.7-3.2-7.2-8.1-9.6C221.8,0.7,219.6,0.1,217.7,0.1L217.7,0.1z">
  </path>
  <path d="M182.7,0.1c-1.9,0-4.1,0.4-5.8,1.2c-4.9,2.4-7.3,6.1-8.2,9.7c-1,3.9-0.4,7.2,0.8,9.9l20.7,47.3l7.4-51.6
		c0.4-2.6,0.1-5.3-0.9-7.7C194.5,3.6,189.2,0.1,182.7,0.1L182.7,0.1z">
  </path>
  <path d="M146.6,23.3c-1.6,1-3.2,2.5-4.2,4.1c-2.8,4.5-3,9.6-2,12.9c1.1,3.5,3.4,6,6.2,7.8l41.8,28L168,29.9c-1-2.4-2.9-4.5-5-6
		C158.3,20.6,151.6,20.2,146.6,23.3L146.6,23.3z">
  </path>
  <path d="M129.2,63.1c-0.8,1.7-1.3,3.9-1.2,5.8c0.1,5.3,2,8.9,5.5,11.7c2.2,1.7,6.1,3.2,9.5,3.2l48.7,0l-40.6-27.2
		c-1.4-0.9-4.4-2.6-8.3-2.6c-3.3,0-6.3,1.1-8.6,2.9C131.2,59.3,130.1,61.3,129.2,63.1L129.2,63.1z">
  </path>
  <path d="M253.9,23.3c1.6,1,3.2,2.5,4.2,4.1c2.8,4.5,3,9.6,2,12.9c-1.1,3.5-3.4,6-6.2,7.8l-41.8,28l20.3-46.3c1-2.4,2.9-4.5,5-6
		C242.1,20.6,248.8,20.2,253.9,23.3L253.9,23.3z">
  </path>
  <path d="M271.3,63.1c0.8,1.7,1.3,3.9,1.2,5.8c-0.1,5.3-2,8.9-5.5,11.7c-2.2,1.7-6.1,3.2-9.5,3.2l-48.9,0l40.6-27.2
		c1.4-0.9,4.4-2.6,8.6-2.6c3.3,0,6.2,1.1,8.6,2.9C269.4,59.3,270.4,61.3,271.3,63.1L271.3,63.1z">
  </path>
  <g>
   <defs>
    <polygon id="SVGID_1_" points="0.3,0.3 0.4,0.3 0.3,0.4 			">
    </polygon>
   </defs>
   <defs>
    <polygon id="SVGID_2_" points="0.1,0.1 0,0.1 0.1,0 			">
    </polygon>
   </defs>
   <use href="#SVGID_1_" style="overflow:visible;">
   </use>
   <use xlink:href="#SVGID_2_" style="overflow:visible;">
   </use>
   <clipPath id="SVGID_3_">
    <use xlink:href="#SVGID_1_" style="overflow:visible;">
    </use>
   </clipPath>
   <clipPath id="SVGID_4_" class="st0">
    <use xlink:href="#SVGID_2_" style="overflow:visible;">
    </use>
   </clipPath>
   <g class="st1">
    <path d="M121.7,75c0,0,25-14.8,71.6-31.2c46.6-16.5,79.3-22.5,79.3-22.5l-28-50.6L112.3,18.4L121.7,75L121.7,75z">
    </path>
   </g>
  </g>
  <path d="M42.8,146l3.8,5.7c-3.8,3-10.2,6.4-18.4,6.4c-16.8,0-28-12.2-28-27.9c0-16.1,12.1-27.9,28.1-27.9c7.9,0,14,2.7,17.8,5.8
		l-4.1,5.7c-1.4-1.1-6.2-4.6-13.8-4.6c-11.9,0-20.5,8.6-20.5,20.9c0,12.8,8.7,21,20.5,21C35.4,151.3,40.2,148,42.8,146L42.8,146z
		 M219.6,151.3c-11.7,0-20.5-8.3-20.5-21c0-12.3,8.6-20.9,20.5-20.9c7.5,0,12.4,3.6,13.8,4.6l4.1-5.7c-3.9-3.1-9.9-5.8-17.8-5.8
		c-16,0-28.1,11.8-28.1,27.9c0,15.7,11.3,27.9,28,27.9c8.2,0,14.6-3.4,18.4-6.4l-3.8-5.7C231.6,148,226.8,151.3,219.6,151.3z
		 M109.5,130.2c0,15.3-11.6,27.9-27.8,27.9c-15.8,0-27.9-12.1-27.9-27.9c0-15.7,11.9-27.9,27.9-27.9
		C97.6,102.4,109.5,114.7,109.5,130.2L109.5,130.2z M101.9,130.2c0-12.4-8.6-20.9-20.1-20.9c-11.4,0-20.3,8.4-20.3,20.9
		c0,12.6,8.9,21,20.3,21C93.1,151.3,101.9,143,101.9,130.2L101.9,130.2z M164.8,103.3l-13.9,44.3h-0.4l-14.3-44.3h-10.5l-8.6,54.1
		h7.6l6.8-44.8h0.5l14.5,44.8h8.6l14.2-44.8h0.4l6.9,44.8h7.5l-8.6-54.1L164.8,103.3L164.8,103.3z M330.8,127.1
		c-1.1-0.3-4.9-1.2-6.8-1.7c-4.1-1-9.3-2.9-9.3-8.2c0-4.8,3.9-8.3,11.8-8.3c7.2,0,11.3,2.4,14.3,4.5l4.2-5.7
		c-2.3-1.6-8.5-5.3-18.2-5.3c-13,0-19.6,7-19.6,15.4c0,7,4,12.1,15.7,14.9c2.3,0.5,6.4,1.5,6.4,1.5c6.9,1.6,9.6,4,9.6,8.1
		c0,5.1-4.4,9.3-13.4,9.3c-7,0-11.9-2.3-16.3-5.7l-4.3,5.7c4.3,3.6,10.9,6.5,20,6.5c14.2,0,21.4-7.6,21.4-16.4
		C346.2,136.1,343.8,130.4,330.8,127.1L330.8,127.1z M276.3,103.3l22.3,54.1h-8l-5.6-14h-26l-5.5,14h-7.9l22.1-54.1L276.3,103.3
		L276.3,103.3z M282.3,136.7l-10.2-25.6h-0.5l-10.1,25.6L282.3,136.7L282.3,136.7z M400.3,103.3h-45.6v6.8h19.1v47.3h7.4V110h19.1
		V103.3L400.3,103.3z">
  </path>
 </g>
</svg>