<svg version="1.1" id="레이어_1" xmlns:x="ns_extend;" xmlns:i="ns_ai;" xmlns:graph="ns_graphs;" xmlns="http://www.w3.org/2000/svg" xmlns:xlink="http://www.w3.org/1999/xlink" x="0px" y="0px" viewBox="0 0 200.1 45" style="enable-background:new 0 0 200.1 45;" xml:space="preserve">
 <style type="text/css">
  .st0{fill:#935227;}
	.st1{fill:#FFC400;}
	.st2{fill:#88CC2F;}
	.st3{fill:#31B4DD;}
	.st4{fill:#F7552F;}
 </style>
 <metadata>
  <sfw xmlns="ns_sfw;">
   <slices>
   </slices>
   <sliceSourceBounds bottomLeftOrigin="true" height="45" width="200.1" x="-22.3" y="0">
   </sliceSourceBounds>
  </sfw>
 </metadata>
 <g>
  <path class="st0" d="M19,9l4.5-2.4c0,0,0.3-0.2,0.1-0.6s-2.6-6.3-11.8-6S0,7.3,0,10.7v9.7c0,0-0.6,11,11.9,11.7
		c0,0,8.8,0.7,11.8-6.1c0,0,0.2-0.3-0.2-0.6L18.7,23c0,0-0.3-0.2-0.6,0.2c-0.2,0.5-1.5,3.3-5.6,3.3s-6.3-3-6.3-5.9v-9.2
		c0,0,0-5.9,6.3-5.9c3.9,0,5.2,2.5,5.6,3.4C18.2,9,18.4,9.5,19,9z">
  </path>
  <path class="st0" d="M38.3,0.1L38.3,0.1c-12.4,0-12.6,11-12.6,11.6l0,0v8.7c0,0-0.2,11.6,12.5,11.6l0,0c12.4,0,12.5-11,12.5-11.6
		l0,0v-8.7C50.8,11.7,50.9,0.1,38.3,0.1z M44.5,20.7c0,2.4-1.7,5.9-6.3,5.9c-4.5,0-6.3-3.5-6.3-5.9v-9.2c0-1.6,1.1-5.9,6.3-5.9
		c2.6,0,4.2,1.1,5.1,2.4s1.2,2.7,1.2,3.6V20.7z">
  </path>
  <path class="st1" d="M125.5,0c0,0-3.8-0.1-9.3,1.9l-0.8,0.3c-0.2,0.1-0.3,0.3-0.2,0.5l1.6,4.5c0,0,0.1,0.5,0.7,0.2
		c0.6-0.2,4.1-1.9,8.1-1.9c5.1,0,6.1,3.2,6.1,7c0,0-2.9-2.4-7.1-2.4c-5.9,0-11.3,3.8-11.3,11c0,4.5,2.6,11,11.4,11
		c0,0,4.1,0.2,7.3-2.5v1.5c0,0,0,0.3,0.3,0.3c0.3,0,4.8,0,4.8,0s0.3,0,0.3-0.3c0-0.3,0-19.6,0-19.6S137.3,0,125.5,0z M125.3,26.8
		c-3,0-5.9-2.1-5.9-5.7c0-2.6,1.7-5.7,5.9-5.7c5.1,0,6.3,3.7,6.3,5.5C131.6,23.5,130,26.8,125.3,26.8z">
  </path>
  <path class="st2" d="M167.4,11.7v19.4c0,0.2-0.2,0.5-0.5,0.5h-5.5c-0.2,0-0.5-0.2-0.5-0.5V11.5c0-2.4-1.7-5.9-6.3-5.9
		s-6.3,3.5-6.3,5.9v19.6c0,0.2-0.2,0.5-0.5,0.5h-5.5c-0.2,0-0.5-0.2-0.5-0.5V1c0-0.2,0.2-0.5,0.5-0.5h5.1c0.2,0,0.3,0.2,0.3,0.5v2.1
		c3.2-3.5,8.4-3.2,8.4-3.2C162.8,0.1,167.4,4.7,167.4,11.7z">
  </path>
  <path class="st3" d="M199.6,0.2h-0.7c-1.2,0-3.9,0.5-6,2.7c0,0-2.9-2.9-9-2.9c-7,0-12.5,4.2-12.5,11.1c0,2.4,0.8,6.6,4.7,9.3
		c0,0-4.5,2.1-4.5,7.9V31c0,0.2,0.2,0.5,0.5,0.5h18.1c2.3,0,3.7,1.8,3.7,3.6c0,0,0.3,2.7-3.4,4.8c0,0-0.3,0.2-0.1,0.6
		c0.2,0.3,2.5,4.4,2.5,4.4s0.2,0.3,0.6,0.1c0,0,6.1-2.7,6.1-9.9c0-3.4-2.3-8.9-9.2-8.9h-12.5c0,0,0.5-3.7,5.1-3.7h1.6
		c7.2,0,12.2-4.8,12.2-10.8c0,0,0.1-2.9-1-5.3c0,0,1.7-1.2,4.1-1c0,0,0.5,0,0.5-0.5V0.3C200,0.5,199.8,0.2,199.6,0.2z M183.8,17.1
		c-3.2,0-6-2.1-6-5.7c0-2.6,1.8-5.7,6-5.7c5.2,0,6.4,3.7,6.4,5.5C190.4,13.9,188.8,17.1,183.8,17.1z">
  </path>
  <path class="st0" d="M79.6,0.7h-5.5c-0.2,0-0.5,0.2-0.5,0.5v19.6c0,2.4-1.7,5.9-6.3,5.9c-4.5,0-6.3-3.5-6.3-5.9V1
		c0-0.2-0.2-0.5-0.3-0.5h-5.5c-0.2,0-0.3,0.2-0.3,0.5v19.4c0,7,4.6,11.6,10.8,11.6c0,0,5.3,0.3,8.4-3.2V31c0,0.2,0.2,0.5,0.5,0.5
		h5.1c0.2,0,0.3-0.2,0.3-0.5V1C80,0.8,79.8,0.7,79.6,0.7z">
  </path>
  <path class="st4" d="M98.8,0.1c-3.9,0-6.4,1.5-8.1,3.2V1c0-0.2-0.2-0.5-0.3-0.5h-5.1C85.1,0.6,85,0.8,85,1v42.9
		c0,0.2,0.2,0.3,0.3,0.3h5.5c0.2,0,0.3-0.1,0.3-0.3c0,0,0.1-7.5,0-14.6c1.7,1.6,4.4,2.8,7.8,2.8c3.4,0,6.1-1.2,8-3.3s3-5,3-8.3v-8.7
		C109.9,5.5,106.2,0.1,98.8,0.1z M103.6,20.6c0,2.4-1.7,5.9-6.3,5.9c-4.5,0-6.3-3.5-6.3-5.9v-9.2c0-1.6,1.1-5.9,6.3-5.9
		c2.6,0,4.2,1,5.1,2.4c0.9,1.2,1.2,2.7,1.2,3.6V20.6z">
  </path>
 </g>
</svg>