<svg version="1.1" id="Layer_1" xmlns="http://www.w3.org/2000/svg" xmlns:xlink="http://www.w3.org/1999/xlink" x="0px" y="0px" viewBox="0 0 121.9 47.8" style="enable-background:new 0 0 121.9 47.8;" xml:space="preserve">
 <style type="text/css">
  .st0{clip-path:url(#SVGID_2_);fill:#001554;}
 </style>
 <g>
  <defs>
   <rect id="SVGID_1_" y="0" width="121.9" height="47.8">
   </rect>
  </defs>
  <clipPath id="SVGID_2_">
   <use href="#SVGID_1_" style="overflow:visible;">
   </use>
  </clipPath>
  <path class="st0" d="M118.2,10.9h3.8V1h-20.2v9.9h3.4l-4.3,5.4h-0.2l-4.3-5.4h3.5V1H79.5v9.9h3.8l10.3,12.8v0.2l-10.4,13h-4.9
		c1.8-6.8-0.9-12.9-9.2-16.6c-4.4-1.9-10.2-3.1-10.2-7c0-2.1,1.6-3.7,3.8-3.7c2.7,0,4.5,2.7,4.5,6.5h10.2V1h-9.1v2h-0.2
		c-0.9-0.8-3.8-3-8.1-3C53.4,0,47,5.6,47,13.4c0,7.4,5.8,12.1,14.1,15.5c2.5,1,5.4,2,5.4,5.1c0,2.6-2,4.1-4.2,4.1
		c-3.5,0-5.1-3.9-5.1-8.1H33.7c-1.8,3.8-6,6.2-10.3,6.2c-6.7,0-11.8-6-11.8-12.5c0-6.5,5.1-12.1,11.8-12.1c3.4,0,7.1,1.5,9.5,4.6
		h11.8V1h-9.2v2.4h-0.2C31.6,1.2,27.6,0,23.3,0C10.7,0,0,10.2,0,23.9c0,13,9.5,23.9,24,23.9c10.1,0,17.5-5.3,21.5-15.6h0.2v14.6h9.9
		v-1.8h0.2c1.6,1.3,4.7,2.8,8.5,2.8c5.3,0,10.8-2.9,13.4-8.7v7.7h22.2v-9.9h-3.5l4.3-5.4h0.2l4.3,5.4h-3.4v9.9h20.2v-9.9h-3.7
		l-10.5-13v-0.2L118.2,10.9z">
  </path>
 </g>
</svg>