<svg version="1.1" id="Layer_1" xmlns:x="ns_extend;" xmlns:i="ns_ai;" xmlns:graph="ns_graphs;" xmlns="http://www.w3.org/2000/svg" xmlns:xlink="http://www.w3.org/1999/xlink" x="0px" y="0px" viewBox="0 0 235.2 75.5" style="enable-background:new 0 0 235.2 75.5;" xml:space="preserve">
 <style type="text/css">
  .st0{fill:#022169;}
 </style>
 <metadata>
  <sfw xmlns="ns_sfw;">
   <slices>
   </slices>
   <sliceSourceBounds bottomLeftOrigin="true" height="75.5" width="235.2" x="-33.6" y="31.4">
   </sliceSourceBounds>
  </sfw>
 </metadata>
 <g>
  <g>
   <path class="st0" d="M222.9,68.8c0-3.5,2.8-6,6.1-6c3.3,0,6.1,2.6,6.1,6c0,3.5-2.8,6.1-6.1,6.1C225.7,74.8,222.9,72.3,222.9,68.8
			 M229.1,73.8c2.7,0,4.9-2.1,4.9-5c0-2.9-2.2-5-4.9-5c-2.8,0-4.9,2.2-4.9,5C224.1,71.7,226.3,73.8,229.1,73.8 M227.8,72.3h-1.1v-7
			h2.6c1.6,0,2.5,0.6,2.5,2c0,1.2-0.8,1.8-1.8,1.9l2,3.1h-1.2l-1.8-3h-1.2L227.8,72.3L227.8,72.3z M229,68.4c0.9,0,1.7-0.1,1.7-1.1
			c0-0.9-0.8-1-1.5-1h-1.4v2.2H229z">
   </path>
   <path class="st0" d="M41.9,37.9c-4.6-3.2-7.1-4.9-13.2-4.9c-7.4,0-13.4,6.6-13.4,14.7c0,8.1,6,14.7,13.4,14.7
			c5.8,0,7.3-0.6,13.5-4.7v14.6c-4,2-8.7,3.1-13.5,3.1C12.8,75.3,0,62.9,0,47.6C0,32.4,12.8,20,28.7,20c4.7,0,9.3,1.1,13.2,3.1V37.9
			z">
   </path>
   <rect x="46.6" y="20.8" class="st0" width="14.4" height="53.4">
   </rect>
   <path class="st0" d="M53.8,18c4.5,0,8.1-3.6,8.1-8.1c0-4.5-3.6-8.1-8.1-8.1c-4.5,0-8.1,3.6-8.1,8.1C45.7,14.3,49.3,18,53.8,18">
   </path>
   <path class="st0" d="M212.1,41.6c-1.9-0.8-7.2-2.4-8.1-2.7c-6.9-2.8-4.4-8.1,0.7-8.1c3.8,0,6.8,1.6,9.3,3.3V21.3
			c-5-1.5-7.6-2.1-11.8-2.1c-11.2,0-16.9,8.2-17,16.4c0,5.8,4.5,12.2,9.7,14.1c4.6,1.7,5.3,2,8.1,2.9c5.5,1.9,5.5,9.8-2,9.8
			c-2.4,0-8.5-0.7-12.1-8.5L167.8,0l-27.1,71.7V33.1h11.2V20.8h-46.3v31.9L81,20.8v0H66.6v53.4H81V41.8l25,32.4h14V33.1h6.3v41.1
			H155l3.3-10.4h16l-3.8-11.2h-8.6l5.9-17.4l7.9,22.1c5,13.5,14.5,18.2,25.2,18.2c10.6,0,21.4-6.2,21.4-19
			C222.3,47.3,216.9,43.5,212.1,41.6">
   </path>
  </g>
 </g>
</svg>