<svg version="1.1" id="Layer_1" xmlns:x="ns_extend;" xmlns:i="ns_ai;" xmlns:graph="ns_graphs;" xmlns="http://www.w3.org/2000/svg" xmlns:xlink="http://www.w3.org/1999/xlink" x="0px" y="0px" viewBox="0 0 131 43.4" style="enable-background:new 0 0 131 43.4;" xml:space="preserve">
 <style type="text/css">
  .st0{fill:#DE411B;}
	.st1{fill:#48535B;}
 </style>
 <metadata>
  <sfw xmlns="ns_sfw;">
   <slices>
   </slices>
   <sliceSourceBounds bottomLeftOrigin="true" height="43.4" width="131" x="134.8" y="-221.9">
   </sliceSourceBounds>
  </sfw>
 </metadata>
 <g>
  <path class="st0" d="M15.6,31.2c-2.7,0-4.9-2.2-4.9-4.9v-3.5c0-0.3-0.2-1.1-0.7-1.6s-1.5-0.7-1.7-0.7H4.9c-2.7,0-4.9-2.2-4.9-4.9
		c0-2.6,2.2-4.8,4.9-4.8h3.4c0,0,1.1-0.1,1.7-0.7c0.5-0.5,0.7-1.6,0.7-1.7V4.9c0-2.7,2.2-4.9,4.9-4.9c2.4,0,4.3,1.6,4.8,3.8
		c0.1,0.3,0.1,0.6,0.1,1v3.4c0,0.3,0.2,1.1,0.7,1.6c0.7,0.7,1.7,0.8,1.7,0.8h3.4c2.7,0,4.9,2.2,4.9,4.9s-2.2,4.9-4.9,4.9
		s-4.9-2.2-4.9-4.9V12c0-0.3-0.2-1.1-0.7-1.6s-1.5-0.7-1.6-0.7h-6.9c0,0-1.1,0.1-1.7,0.7C10,10.9,9.8,11.8,9.8,12v6.9
		c0,0.2,0.2,1.1,0.7,1.6c0.7,0.7,1.7,0.7,1.7,0.7h3.4c2.7,0,4.9,2.2,4.9,4.9C20.4,29,18.2,31.2,15.6,31.2z M21.3,4.9
		c0,2.7,2.2,4.9,4.9,4.9h3.4c0,0,1,0.1,1.7,0.7C31.8,11,32,12,32,12.1v7c0,0.3-0.2,1-0.7,1.6c-0.6,0.6-1.7,0.7-1.7,0.7h-6.8
		c-0.3,0-1.1-0.2-1.6-0.7s-0.7-1.3-0.7-1.6v-3.5c0-2.7-2.2-4.9-4.9-4.9s-4.9,2.2-4.9,4.9s2.2,4.9,4.9,4.9H19c0,0,1,0.1,1.7,0.8
		c0.5,0.5,0.7,1.5,0.7,1.6v3.5c0,0.4,0,0.6,0.1,1c0.5,2.2,2.4,3.8,4.8,3.8c2.7,0,4.9-2.2,4.9-4.9v-3.5c0-0.2,0.2-1.1,0.7-1.7
		c0.6-0.6,1.7-0.8,1.7-0.7H37c2.7,0,4.9-2.2,4.9-4.9s-2.2-4.9-4.9-4.9h-3.4c-0.2,0-1.1-0.2-1.7-0.7c-0.5-0.5-0.7-1.4-0.7-1.6V4.9
		C31.2,2.2,29,0,26.3,0C23.5,0.1,21.3,2.2,21.3,4.9z">
  </path>
  <path class="st1" d="M49.8,35.5H38.3c0.4,3.4,2.3,4.8,4.4,4.8c1.5,0,2.7-0.5,3.8-1.4l2,2.2c-1.6,1.5-3.4,2.3-6,2.3
		c-4.1,0-7.5-3.3-7.5-9.1c0-6,3.1-9.1,7.6-9.1c4.9,0,7.3,4,7.3,8.7C49.9,34.5,49.8,35.1,49.8,35.5z M42.3,28.3c-2.3,0-3.7,1.6-4,4.4
		h8.2C46.4,30.3,45.2,28.3,42.3,28.3z M62.6,43v-9.9c0-3.5-1.4-4.8-3.6-4.8c-2.3,0-3.6,1.6-3.6,4.5V43H52V25.6h3.4v1.6
		c0.8-1.3,2.6-2,4.4-2c4,0,6.2,2.7,6.2,7.8v10H62.6z M79.2,43v-1.7c-1.3,1.2-2.7,2-4.6,2c-3.8,0-6.7-2.7-6.7-9.3
		c0-6,3.3-8.8,6.9-8.8c1.7,0,3.4,0.9,4.4,2v-6.7l3.4-1.7v24.3L79.2,43L79.2,43z M79.2,30.7c-0.7-1-2.4-2.3-4.1-2.3
		c-2.5,0-3.8,1.8-3.8,5.6c0,4.4,1.4,6.3,3.9,6.3c1.6,0,3-1.1,3.9-2.2C79.2,38.1,79.2,30.7,79.2,30.7z M110.4,43H107l-6.2-17.4h3.6
		l3.1,9.4c0.5,1.7,1.1,3.3,1.3,4.3c0.2-1,0.6-2.6,1.2-4.3l3-9.4h3.7C116.7,25.6,110.4,43,110.4,43z M96,43v-1.7
		c-1.3,1.2-2.7,2-4.6,2c-3.8,0-6.7-2.7-6.7-9.3c0-6,3.3-8.8,6.9-8.8c1.7,0,3.4,0.9,4.4,2v-1.6h3.4v17.5H96V43z M96,30.7
		c-0.7-1-2.4-2.3-4.1-2.3c-2.5,0-3.8,1.8-3.8,5.6c0,4.4,1.4,6.3,3.9,6.3c1.6,0,3-1.1,3.9-2.2C96,38.1,96,30.7,96,30.7z M127.6,43
		v-1.7c-1.3,1.2-2.7,2-4.6,2c-3.8,0-6.7-2.7-6.7-9.3c0-6,3.3-8.8,6.9-8.8c1.7,0,3.4,0.9,4.4,2v-1.6h3.4v17.5h-3.4V43z M127.6,30.7
		c-0.7-1-2.4-2.3-4.1-2.3c-2.5,0-3.8,1.8-3.8,5.6c0,4.4,1.4,6.3,3.9,6.3c1.6,0,3-1.1,3.9-2.2L127.6,30.7L127.6,30.7z">
  </path>
 </g>
</svg>