<svg version="1.1" id="Layer_1" xmlns:x="ns_extend;" xmlns:i="ns_ai;" xmlns:graph="ns_graphs;" xmlns="http://www.w3.org/2000/svg" xmlns:xlink="http://www.w3.org/1999/xlink" x="0px" y="0px" viewBox="0 0 405.1 100" style="enable-background:new 0 0 405.1 100;" xml:space="preserve">
 <style type="text/css">
  .st0{fill:#170D67;}
	.st1{clip-path:url(#SVGID_2_);fill:url(#SVGID_3_);}
 </style>
 <metadata>
  <sfw xmlns="ns_sfw;">
   <slices>
   </slices>
   <sliceSourceBounds bottomLeftOrigin="true" height="188" width="449" x="-69.2" y="-269.4">
   </sliceSourceBounds>
  </sfw>
 </metadata>
 <g>
  <g>
   <path class="st0" d="M387.3,30.4c0.7,0.2,1.6,0.5,2.6,0.5c1.3,0,2-0.5,2-1.4c0-1.1-0.8-1.4-2.2-1.9c-1.6-0.5-2.6-1.2-2.6-2.8
			c0-1.7,1.2-2.7,3.2-2.7c0.9,0,1.9,0.2,2.5,0.5l-0.3,1.2c-0.7-0.2-1.4-0.4-2.1-0.4c-1.2,0-1.8,0.5-1.8,1.3c0,0.9,0.6,1.3,1.8,1.7
			c1.7,0.6,3,1.1,3,3c0,1.9-1.5,2.7-3.4,2.7c-1.2,0-2.2-0.2-2.9-0.5L387.3,30.4z M405.1,22.3V32h-1.4v-5.6c0-0.6,0-1.1,0.1-1.6
			c-0.8,1.8-1.8,3.7-3.1,5.7h-1.2c-1.3-2-2.3-3.9-3.1-5.7c0.1,0.5,0.1,1,0.1,1.6V32h-1.4v-9.7h1.5c0.9,2.3,2.1,4.4,3.5,6.7
			c1.4-2.3,2.5-4.4,3.5-6.7H405.1z M169.2,71.2c-4.3,1.8-9.1,2.9-13.8,2.9c-9.3,0-15.1-4.6-16-14.7h32.3c0.2-1.8,0.4-3.9,0.4-6.3
			c0-12-7.4-20.9-19.9-20.9c-13.8,0-22.6,10.3-22.6,25c0,15.9,9.9,25.1,25,25.1c6.2,0,11.8-1.2,16.3-3.3L169.2,71.2z M152.2,40
			c7.3,0,10.6,5.5,10.6,11.8c0,0.6,0,0.9-0.1,1.5h-23.2C140.3,45.2,144.8,40,152.2,40 M176.6,81.1h9.4c2-7.6,6-13.4,10.7-19.4
			c4.2,5,9.5,12.5,12.5,19.4h10.4c-4.7-10.7-9.6-17.2-16-24.5c7.5-7.4,11.9-14.1,14.4-23.3h-9.8c-1.2,5.9-4.9,11.7-9.8,17.5
			c-4.5-5.6-9.3-12.5-11.2-17.5H177c3.2,9,8.3,15.6,14.7,22.6C183.7,64.2,179.3,71.3,176.6,81.1 M261.8,71.2
			c-4.3,1.8-9.1,2.9-13.8,2.9c-9.3,0-15.1-4.6-16-14.7h32.3c0.2-1.8,0.4-3.9,0.4-6.3c0-12-7.4-20.9-19.9-20.9
			c-13.8,0-22.6,10.3-22.6,25c0,15.9,9.9,25.1,25,25.1c6.2,0,11.8-1.2,16.3-3.3L261.8,71.2z M244.7,40c7.3,0,10.6,5.5,10.6,11.8
			c0,0.6,0,0.9-0.1,1.5h-23.2C232.9,45.2,237.4,40,244.7,40 M282.8,81.1V12.8l-9.6,0.6v67.7H282.8z M335.2,57.1
			c0-14.9-8.3-25-22.5-25c-14,0-22.4,10.1-22.4,25c0,15,8.4,25.1,22.4,25.1C326.9,82.2,335.2,72.1,335.2,57.1 M300,57.1
			c0-10.3,4.4-17,12.7-17c8.6,0,12.7,6.7,12.7,17c0,10.4-4.1,17.1-12.7,17.1C304.3,74.2,300,67.5,300,57.1 M352.8,81.1V42.6
			c3.2-1.6,7.1-2.5,11.1-2.5c7.2,0,10.7,4,10.7,10.8v30.1h9.6V50.3c0-11.5-7-18.2-20.3-18.2c-7.3,0-14.8,1.7-20.6,4.4v44.5H352.8z">
   </path>
  </g>
  <g>
   <defs>
    <path id="SVGID_1_" d="M46.4,90.6c-4.7-0.6-8.8-2.7-12-6.3c-0.2-0.2-0.4-0.4-0.6-0.7c1.7,0.9,3.5,1.7,5.3,2.4
				c4.2,1.5,8.6,2.3,13.1,2.3c0.5,0,0.9,0,1.4,0c2.3-0.1,4.6-0.4,6.8-0.9c-3.8,2.2-7.7,3.3-11.6,3.3C48,90.7,47.2,90.7,46.4,90.6
				 M42.6,94.1c-4.8-1.1-8.8-4.4-11.2-9.5c-0.6-1.2-1.3-2.4-2.2-3.6c1.3,1.3,2.7,2.7,4.1,4.3c3.4,3.8,7.9,6.2,12.9,6.8
				c0.9,0.1,1.7,0.2,2.6,0.2c3,0,6.1-0.6,9.1-1.9c-4,2.7-8.1,4.1-12,4.1C44.8,94.5,43.7,94.3,42.6,94.1 M39.2,98
				c-2.6-0.7-4.8-2.1-6.7-4.2c-1.9-2.2-3.4-5-4.3-8.3c-0.7-2.6-1.6-4.8-2.6-6.7c1.8,2,3.4,4.1,4.5,6.5c2.6,5.5,7,9.1,12.3,10.3
				c1.2,0.3,2.4,0.4,3.6,0.4c3.2,0,6.6-0.9,9.8-2.6c-2.3,1.8-4.7,3.2-7.1,4c-2,0.7-4,1.1-5.9,1.1C41.6,98.5,40.4,98.3,39.2,98
				 M87.4,79.1c6.6-3.5,9.9-8.8,9.9-15.8c0-2.5-0.5-5.3-1.4-8.3c1,1.9,1.9,3.9,2.5,5.8c1.5,4.4,1.8,7.9,0.8,10.8
				c-1.2,3.4-4.1,5.9-8.8,7.7c-2.7,1-5.1,1.5-7.4,1.7C84.4,80.4,85.8,79.9,87.4,79.1 M83.8,77.6c6.1-4.4,9.5-10.3,10.2-17.5
				c0.2-1.9,0.1-4-0.1-6.1c1.1,3.4,1.8,6.5,1.8,9.2c0,3-0.6,5.8-1.9,8c-1.5,2.6-3.9,4.7-7.1,6.4c-2.6,1.4-5,2.1-7.4,2.7
				C80.8,79.6,82.3,78.7,83.8,77.6 M80.3,76.1c3.5-3.8,6.2-8.1,8-12.9c1.7-4.6,2.5-9.5,2.3-14.4c0-1.1-0.1-2.2-0.3-3.2
				c0.2,0.4,0.3,0.7,0.5,1c1.5,4.8,2.1,9.3,1.7,13.4c-0.6,6.7-3.8,12.3-9.6,16.4c-2.5,1.8-5,3-7.5,4.1
				C77.2,79.2,78.8,77.7,80.3,76.1 M12.4,59.1c-1.3-5.7-0.4-11.7,2.5-17.6c-0.8,3.2-1.1,6.6-1,10c0.2,5,1.3,9.7,3.3,14.2
				c1.2,2.7,2.7,5.2,4.5,7.5C17,69.6,13.7,64.7,12.4,59.1 M7.3,57.3c-0.8-4.8,0.3-12.4,9-21.4c-0.4,0.7-0.8,1.4-1.2,2.1
				c-4.3,7.1-5.7,14.6-4.2,21.5c0.8,3.7,2.6,7.2,5,10.2C11.2,66.8,8.1,62.4,7.3,57.3 M6.1,64.5c-2.5-2.6-4-5.8-4.5-9.2
				C1.1,51.4,2,47.4,4.4,43.5c2.6-4.5,7-8.6,13-12.4c0.8-0.5,1.5-1,2.2-1.7c-0.1,0.2-0.2,0.4-0.3,0.5c-1,1.6-2,2.8-3.1,3.9
				C6.1,43.8,5,52.2,5.8,57.5C6.5,62,8.8,66,12.4,69C10,67.8,7.8,66.3,6.1,64.5 M27.2,76.9C20,70.3,15.8,61.2,15.5,51.4
				c-0.3-9.8,3.1-19.1,9.9-26.3C32,18,41.1,13.8,51,13.5c0.4,0,0.9,0,1.3,0c9.3,0,18.2,3.5,25.1,9.8C84.6,30,88.7,39,89.1,48.8
				c0.3,9.8-3.1,19.1-9.9,26.3c-6.7,7.2-15.8,11.3-25.6,11.6c-0.4,0-0.9,0-1.3,0C42.9,86.8,34,83.3,27.2,76.9 M25.2,21.4
				c0.4-0.8,0.9-1.7,1.4-2.6c3.6-6.6,9.8-6.4,17.6-6.1c0.1,0,0.3,0,0.4,0c-2.7,0.6-5.4,1.4-8,2.5c-4.7,2.1-8.8,5.1-12.4,8.8
				c-0.1,0.1-0.2,0.2-0.3,0.4C24.3,23.5,24.8,22.5,25.2,21.4 M78.4,22.2c-3.8-3.5-8.1-6.2-13-7.9c-2.7-1-5.5-1.6-8.3-2
				c10.1-1,18.6,3.4,23.5,12.3C80,23.7,79.2,22.9,78.4,22.2 M85,29.6c-0.7-1.4-1.4-2.8-2.2-4.3c-2.5-5.1-6.2-9.1-10.6-11.6
				c-2.6-1.5-5.4-2.4-8.4-2.8c5.2-0.5,9.8,0.6,13.4,3.2c2.4,1.7,4.3,3.9,5.8,6.7c1.4,2.7,2.3,5.7,2.7,9.1c0.1,0.6,0.1,1.1,0.2,1.7
				C85.6,30.9,85.3,30.2,85,29.6 M88.6,37c-0.6-2.3-1.1-4.7-1.4-7.3c-0.4-3.5-1.4-6.7-2.9-9.6c-1.6-3-3.7-5.4-6.2-7.3
				c-2.4-1.7-5.2-2.8-8.3-3.3C77,8.7,81.5,11,84.1,13.4c4.8,4.3,6.9,11.7,5.6,19.8c-0.3,2-0.4,3.9-0.3,5.6
				C89.2,38.2,88.9,37.6,88.6,37 M28.5,12.5c1.3-3.7,3.2-5,6-5c2.1,0,4.8,0.7,8.1,1.7c2.4,0.7,5,1.5,7.8,2c-2.1,0-4.2,0-6.2-0.1
				c-3.9-0.2-7.6-0.3-10.8,0.5c-2.3,0.6-4.1,1.6-5.6,3C28,14,28.3,13.3,28.5,12.5 M29.6,6.3c0.6-2.5,1.5-4,2.7-4.5
				c0.4-0.2,0.9-0.3,1.4-0.3c2.2,0,5.3,1.6,8.7,3.4c3.8,2,8.2,4.3,13,5.4C51,10.3,46.8,9,43,7.9c-3.6-1.1-6.7-2-9.4-1.8
				c-1.9,0.2-3.3,1-4.5,2.3C29.2,7.8,29.4,7,29.6,6.3 M33.7,0c-0.7,0-1.4,0.1-2,0.4C30,1.2,28.8,3,28.1,6
				c-1.9,7.9-3.7,13.3-5.7,17.1c-1.7,3.2-3.4,5.2-5.9,6.8C10.4,33.7,5.8,38,3.1,42.7c-2.5,4.2-3.5,8.6-2.9,12.8
				c0.5,3.7,2.2,7.1,4.9,10c2.6,2.8,6,4.9,9.9,6.1c3.1,0.9,5.5,2.6,7.4,5c1.9,2.3,3.3,5.4,4.4,9.4c1,3.6,2.5,6.5,4.6,8.9
				c2.1,2.3,4.6,3.9,7.5,4.7c1.3,0.3,2.6,0.5,4,0.5c2.1,0,4.2-0.4,6.4-1.2c3.8-1.4,7.6-3.9,11.3-7.6c3.6-3.5,6.9-5.8,10.3-7
				c3.1-1.1,5.9-1.3,8.9-1.5c3.4-0.2,7-0.5,11.2-2.1c5.1-1.9,8.3-4.8,9.6-8.6c1.1-3.3,0.9-7.1-0.8-11.8c-1.4-4.1-3.8-8.3-5.9-11.9
				c-2.7-4.6-3.5-9-2.6-14.9c1.3-8.6-1-16.5-6.1-21.1c-3.4-3-9.6-6.1-19.8-3.4C57,11,49.3,6.9,43.1,3.6C39.4,1.7,36.3,0,33.7,0
				L33.7,0z">
    </path>
   </defs>
   <clipPath id="SVGID_2_">
    <use href="#SVGID_1_" style="overflow:visible;">
    </use>
   </clipPath>
   <linearGradient id="SVGID_3_" gradientUnits="userSpaceOnUse" x1="-75.6292" y1="458.9844" x2="-73.6584" y2="458.9844" gradientTransform="matrix(25.3459 -43.7104 -43.9004 -25.2362 22092.4219 8369.8877)">
    <stop offset="0" style="stop-color:#6E06C1">
    </stop>
    <stop offset="0.1681" style="stop-color:#6E06C1">
    </stop>
    <stop offset="0.2528" style="stop-color:#6624BD">
    </stop>
    <stop offset="0.4552" style="stop-color:#5668B5">
    </stop>
    <stop offset="0.6385" style="stop-color:#499DAE">
    </stop>
    <stop offset="0.796" style="stop-color:#3FC4A9">
    </stop>
    <stop offset="0.9218" style="stop-color:#39DBA6">
    </stop>
    <stop offset="1" style="stop-color:#37E4A5">
    </stop>
   </linearGradient>
   <polygon class="st1" points="-43.9,75 25.1,-44 145.2,25 76.2,144 		">
   </polygon>
  </g>
 </g>
</svg>