<svg xmlns:dc="http://purl.org/dc/elements/1.1/" xmlns:cc="http://creativecommons.org/ns#" xmlns:rdf="http://www.w3.org/1999/02/22-rdf-syntax-ns#" xmlns:svg="http://www.w3.org/2000/svg" xmlns="http://www.w3.org/2000/svg" viewBox="0 0 1051.72 152.34666" height="152.34666" width="1051.72" xml:space="preserve" id="svg2" version="1.1" xmlns:xlink="http://www.w3.org/1999/xlink">
 <metadata id="metadata8">
  <rdf:RDF>
   <cc:Work rdf:about="">
    <dc:format>
     image/svg+xml
    </dc:format>
    <dc:type rdf:resource="http://purl.org/dc/dcmitype/StillImage">
    </dc:type>
   </cc:Work>
  </rdf:RDF>
 </metadata>
 <defs id="defs6">
 </defs>
 <g transform="matrix(1.3333333,0,0,-1.3333333,0,152.34667)" id="g10">
  <g transform="scale(0.1)" id="g12">
   <path id="path14" style="fill:#2b3188;fill-opacity:1;fill-rule:nonzero;stroke:none" d="m 490.625,594.254 c 0,62.969 -57.719,153.484 -169.223,153.484 -101.015,0 -169.226,-86.582 -169.226,-175.785 0,-106.254 73.465,-182.344 199.398,-182.344 h 238.75 C 533.914,301.719 435.531,245.313 322.715,245.313 144.301,245.313 0,390.922 0,569.332 c 0,178.406 144.301,324.02 322.715,324.02 178.406,0 324.019,-145.614 324.019,-324.02 0,-35.418 -6.562,-69.527 -15.742,-101.012 H 270.238 v 35.418 l 127.246,3.938 c 64.278,2.621 93.141,35.418 93.141,86.578">
   </path>
   <path id="path16" style="fill:#2b3188;fill-opacity:1;fill-rule:nonzero;stroke:none" d="m 915.625,692.645 123.315,181.031 h 170.53 L 999.578,581.141 1226.52,264.988 H 1045.49 L 910.375,461.762 773.945,264.988 H 603.406 L 826.418,573.266 609.969,873.676 H 790.996 L 915.625,692.645">
   </path>
   <path id="path18" style="fill:#2b3188;fill-opacity:1;fill-rule:nonzero;stroke:none" d="m 1576.76,377.805 c 91.83,0 171.85,80.019 171.85,191.527 0,111.504 -80.02,191.527 -171.85,191.527 -90.52,0 -171.85,-80.023 -171.85,-191.527 0,-111.508 81.33,-191.527 171.85,-191.527 z m -162.67,376.496 c 44.61,94.449 124.63,136.429 205.96,136.429 146.93,0 280.73,-124.625 280.73,-321.398 0,-196.773 -133.8,-321.398 -280.73,-321.398 -81.33,0 -161.35,41.976 -205.96,136.429 -2.62,5.246 -6.56,3.938 -6.56,-1.312 V 14.4297 H 1250.12 V 873.676 h 157.41 V 755.609 c 0,-5.246 3.94,-6.554 6.56,-1.308">
   </path>
   <path id="path20" style="fill:#2b3188;fill-opacity:1;fill-rule:nonzero;stroke:none" d="m 2442.51,594.254 c 0,62.969 -57.71,153.484 -169.22,153.484 -101.01,0 -169.22,-86.582 -169.22,-175.785 0,-106.254 73.46,-182.344 199.39,-182.344 h 238.76 c -56.41,-87.89 -154.8,-144.296 -267.62,-144.296 -178.41,0 -322.71,145.609 -322.71,324.019 0,178.406 144.3,324.02 322.71,324.02 178.41,0 324.02,-145.614 324.02,-324.02 0,-35.418 -6.56,-69.527 -15.74,-101.012 h -360.75 v 35.418 l 127.25,3.938 c 64.28,2.621 93.13,35.418 93.13,86.578">
   </path>
   <path id="path22" style="fill:#2b3188;fill-opacity:1;fill-rule:nonzero;stroke:none" d="m 2973.75,760.859 c -91.83,0 -171.85,-80.023 -171.85,-191.527 0,-111.508 80.02,-191.527 171.85,-191.527 90.52,0 171.85,80.019 171.85,191.527 0,111.504 -81.33,191.527 -171.85,191.527 z m 162.66,-376.496 c -44.6,-94.453 -124.62,-136.429 -205.95,-136.429 -146.93,0 -280.74,124.625 -280.74,321.398 0,196.773 133.81,321.398 280.74,321.398 81.33,0 161.35,-41.98 205.95,-136.429 2.63,-5.246 6.56,-3.938 6.56,1.308 v 381.741 h 157.42 V 264.988 h -157.42 v 118.063 c 0,5.25 -3.93,6.558 -6.56,1.312">
   </path>
   <path id="path24" style="fill:#2b3188;fill-opacity:1;fill-rule:nonzero;stroke:none" d="M 3570.59,873.676 V 264.988 h -157.41 v 608.688 z m -170.54,177.094 c 0,49.85 41.98,91.83 91.84,91.83 49.85,0 91.83,-41.98 91.83,-91.83 0,-49.85 -41.98,-91.825 -91.83,-91.825 -49.86,0 -91.84,41.975 -91.84,91.825">
   </path>
   <path id="path26" style="fill:#2b3188;fill-opacity:1;fill-rule:nonzero;stroke:none" d="m 3973.3,760.859 c -91.83,0 -171.85,-80.023 -171.85,-191.527 0,-111.508 80.02,-191.527 171.85,-191.527 90.52,0 171.85,80.019 171.85,191.527 0,111.504 -81.33,191.527 -171.85,191.527 z m 162.66,-376.496 c -44.6,-94.453 -124.62,-136.429 -205.95,-136.429 -146.93,0 -280.73,124.625 -280.73,321.398 0,196.773 133.8,321.398 280.73,321.398 81.33,0 161.35,-41.98 205.95,-136.429 2.63,-5.246 6.56,-3.938 6.56,1.308 v 118.067 h 157.42 V 264.988 h -157.42 v 118.063 c 0,5.25 -3.93,6.558 -6.56,1.312">
   </path>
   <path id="path28" style="fill:#2b3188;fill-opacity:1;fill-rule:nonzero;stroke:none" d="m 4916.44,760.859 c -90.51,0 -169.22,-78.711 -169.22,-188.906 0,-110.191 78.71,-188.902 169.22,-188.902 89.2,0 169.23,78.711 169.23,188.902 0,110.195 -80.03,188.906 -169.23,188.906 z m 166.6,-372.558 c 0,5.246 -3.93,6.554 -6.55,1.308 -44.61,-94.449 -123.32,-136.429 -203.34,-136.429 -145.61,0 -278.1,123.312 -278.1,318.773 0,195.465 132.49,318.777 278.1,318.777 80.02,0 158.73,-41.98 203.34,-136.429 2.62,-5.246 6.55,-3.938 6.55,1.308 v 118.067 h 157.42 V 300.406 C 5240.46,131.18 5123.71,0 4921.69,0 4808.87,0 4710.49,39.3516 4638.34,106.25 l 94.45,102.328 c 62.96,-49.851 112.82,-76.09 186.28,-76.09 115.44,0 163.97,81.34 163.97,182.348 v 73.465">
   </path>
   <path id="path30" style="fill:#2b3188;fill-opacity:1;fill-rule:nonzero;stroke:none" d="M 5510.67,873.676 V 741.18 c 0,-2.621 2.62,-3.934 3.94,0 20.98,108.883 68.21,149.55 149.54,149.55 h 14.43 V 725.438 h -70.84 c -64.28,0 -97.07,-49.848 -97.07,-120.692 V 264.988 h -157.42 v 608.688 h 157.42">
   </path>
   <path id="path32" style="fill:#2b3188;fill-opacity:1;fill-rule:nonzero;stroke:none" d="m 6011.77,750.363 c -94.45,0 -171.85,-78.711 -171.85,-181.031 0,-102.324 77.4,-181.031 171.85,-181.031 94.45,0 171.85,78.707 171.85,181.031 0,102.32 -77.4,181.031 -171.85,181.031 z m 1.31,142.989 c 177.1,0 322.72,-145.614 322.72,-324.02 0,-178.41 -145.62,-324.019 -322.72,-324.019 -179.72,0 -325.33,145.609 -325.33,324.019 0,178.406 145.61,324.02 325.33,324.02">
   </path>
   <path id="path34" style="fill:#2b3188;fill-opacity:1;fill-rule:nonzero;stroke:none" d="m 6662.4,245.313 c -153.48,0 -251.87,93.136 -251.87,229.566 v 398.797 h 157.42 V 486.688 c 0,-60.348 39.36,-99.7 98.39,-99.7 53.79,0 94.45,40.664 94.45,98.387 v 388.301 h 157.42 V 474.879 c 0,-136.43 -106.26,-229.566 -255.81,-229.566">
   </path>
   <path id="path36" style="fill:#2b3188;fill-opacity:1;fill-rule:nonzero;stroke:none" d="m 7353.7,377.805 c 91.83,0 171.85,80.019 171.85,191.527 0,111.504 -80.02,191.527 -171.85,191.527 -90.52,0 -171.85,-80.023 -171.85,-191.527 0,-111.508 81.33,-191.527 171.85,-191.527 z m -162.67,376.496 c 44.61,94.449 124.63,136.429 205.96,136.429 146.93,0 280.73,-124.625 280.73,-321.398 0,-196.773 -133.8,-321.398 -280.73,-321.398 -81.33,0 -161.35,41.976 -205.96,136.429 -2.62,5.246 -6.56,3.938 -6.56,-1.312 V 14.4297 H 7027.05 V 873.676 h 157.42 V 755.609 c 0,-5.246 3.94,-6.554 6.56,-1.308">
   </path>
   <path id="path38" style="fill:#2b3188;fill-opacity:1;fill-rule:nonzero;stroke:none" d="m 7789,871.547 v -16.125 h -27.24 v -74.949 h -19.16 v 74.949 h -27.37 v 16.125 H 7789">
   </path>
   <path id="path40" style="fill:#2b3188;fill-opacity:1;fill-rule:nonzero;stroke:none" d="m 7860.54,871.547 h 27.39 v -91.074 h -17.74 v 61.601 c 0,1.77 0.02,4.254 0.06,7.446 0.05,3.191 0.07,5.652 0.07,7.382 l -17.26,-76.429 h -18.5 l -17.13,76.429 c 0,-1.73 0.02,-4.191 0.06,-7.382 0.04,-3.192 0.06,-5.676 0.06,-7.446 v -61.601 h -17.73 v 91.074 h 27.69 l 16.58,-71.609 16.45,71.609">
   </path>
  </g>
 </g>
</svg>