<svg version="1.1" id="Layer_1" xmlns:x="ns_extend;" xmlns:i="ns_ai;" xmlns:graph="ns_graphs;" xmlns="http://www.w3.org/2000/svg" xmlns:xlink="http://www.w3.org/1999/xlink" x="0px" y="0px" viewBox="0 0 564.1 115" style="enable-background:new 0 0 564.1 115;" xml:space="preserve">
 <metadata>
  <sfw xmlns="ns_sfw;">
   <slices>
   </slices>
   <sliceSourceBounds bottomLeftOrigin="true" height="115" width="564.1" x="-678.3" y="-145.5">
   </sliceSourceBounds>
  </sfw>
 </metadata>
 <g>
  <path d="M535.6,28.2h-26.9l-22.1,77.1l-0.5-77.1h-32.4l-44,75.6l21.7-75.6H406l-11,47.4h-0.5l-7.4-47.4h-27.7L340,96.1h-38.3
		l5.2-18.3h33.6l4.8-16.9h-33.6l4.5-15.8h34.6l4.9-16.9h-58.1h-3.4h-66.2l-2.2,7.6c-3.9-5.9-12.4-9.5-25.4-9.5
		c-20.8,0-36.2,8.1-40.7,24c-2.1,7.4-0.7,12.6,2.9,16.9c3.8,4.3,9.9,7.6,17.2,11c6.2,3.2,13.4,5.9,11.4,13
		c-1.2,4.3-5.2,8.5-11.5,8.5c-8.5,0-9.4-4.3-8-9.2l1.7-6l-24.9,0l-1.7,6l-0.4-62.4H114L95.5,60.1l5-17.4H55.9l5.7-20h48.4L116.6,0
		H32.4L0,113h35.7l13.7-47.7h43L64.7,113h27l7.9-16.4h21.1l-0.9,16.4h27.2l-0.1-8.2c3.4,6,12.1,10.2,27.9,10.2
		c22.3,0,37.1-9,41.8-25.3c2.9-10.3,0.9-15.9-4.1-20.2c-5-4.3-12.9-7.2-21.6-12c-4.7-2.7-7.5-5.3-5.3-10.4c1.7-3.7,5.6-6,11-5.6
		c8.8,0.5,6.6,7.2,5.4,12.2h24.7c1.1-3,1.7-5.9,1.7-8.6h15.8L224.8,113h26.9l19.5-67.9h18.3L269.9,113h65.2h1.3h24.3l11.1-47.3
		l0.4-0.2l7.5,47.5h24.8h2.7h24.3l7.9-16.4h21.1l-0.9,16.4h24.9h2.2h57.4l4.9-16.9h-32.8L535.6,28.2z M122.3,81.7h-15.6l18.7-38.1
		h0.3L122.3,81.7z M462.1,81.7h-15.6l18.7-38.1h0.3L462.1,81.7z">
  </path>
  <path d="M560.1,34c0-1.6-1-2.4-2.9-2.4H554V40h1.3v-3.6h1.4l2.2,3.6h1.4l-2.4-3.6C559.2,36.2,560.1,35.5,560.1,34 M555.3,35.3v-2.6
		h1.7c0.9,0,1.8,0.2,1.8,1.2c0,1.3-0.9,1.4-2,1.4H555.3z">
  </path>
  <path d="M556.8,28.7c-4,0-7.3,3-7.3,7.1c0,4.1,3.3,7.2,7.3,7.2c3.9,0,7.2-3,7.2-7.2C564.1,31.7,560.7,28.7,556.8,28.7 M556.8,41.8
		c-3.3,0-5.9-2.5-5.9-6c0-3.4,2.6-6,5.9-6c3.2,0,5.8,2.6,5.8,6C562.6,39.3,560.1,41.8,556.8,41.8">
  </path>
 </g>
</svg>