<svg version="1.1" id="Layer_1" xmlns="http://www.w3.org/2000/svg" xmlns:xlink="http://www.w3.org/1999/xlink" x="0px" y="0px" viewBox="57 -24.9 216 135.7" style="enable-background:new 57 -24.9 216 135.7;" xml:space="preserve">
 <style type="text/css">
  .st0{fill:#E71D2C;}
	.st1{fill:#42B3E3;}
 </style>
 <g>
  <path class="st0" d="M72.7,97.4c0-4.2,4.6-5.1,9.2-6.2c0.9-0.2,1.7-0.5,2.6-0.6c-0.6,7.4-3.5,9.5-6.6,9.8c-0.5,0-0.8,0.2-1.1,0.2
		C74.1,100.7,72.7,99.4,72.7,97.4z M163.8,97.4c0-4.2,4.6-5.1,9.2-6.2c0.9-0.2,1.7-0.5,2.6-0.6c-0.6,7.4-3.5,9.5-6.6,9.8
		c-0.5,0-0.8,0.2-1.1,0.2C165.2,100.7,163.8,99.4,163.8,97.4z M70.7,63.8c0-4.3,2.2-7.7,7.7-7.7c2.6,0,4.8,0.8,6.2,1.8v11.5
		c-1.4,1.2-3.4,2-6.2,2C72.8,71.5,70.7,68.1,70.7,63.8z M115.9,63.8c0-4.3,2-7.7,7.5-7.7c5.7,0,7.5,3.4,7.5,7.7s-2,7.7-7.5,7.7
		C117.9,71.5,115.9,68.1,115.9,63.8z M161.9,63.8c0-4.3,2.2-7.7,7.7-7.7c2.6,0,4.8,0.8,6.2,1.8v11.5c-1.4,1.2-3.4,2-6.2,2
		C163.9,71.5,161.9,68.1,161.9,63.8z M206.7,63.8c0-4.3,2-7.7,7.5-7.7c5.7,0,7.5,3.4,7.5,7.7s-2,7.7-7.5,7.7S206.7,68.1,206.7,63.8z
		 M193.2,63.8c0,2.6,0.6,5.5,1.4,7.4c-1.1,0.9-2.6,2.2-5.2,3.5V46.6h-12.2l0.2,2.8c-2.3-2-5.5-3.4-10.2-3.4c-5.2,0-9.4,1.2-12.5,3.5
		c-4.5,0.8-10.5,1.2-16.5,0.3c-3.4-2.5-8.3-3.8-14.8-3.8c-14.5,0-21.2,7.2-21.2,17.8c0,2.6,0.5,5.1,1.2,7.2
		c-1.1,0.9-2.8,2.3-5.4,3.8V46.6H85.9l0.2,2.8c-2-2-5.7-3.4-10.2-3.4C63.5,46,57,53.2,57,63.8c0,10.6,6.5,17.8,18.9,17.8
		c2.5,0,5.8-0.5,8.6-1.7v1.5c-1.1,0.5-2.2,0.8-4.8,1.4c-5.8,1.4-19.1,3.2-19.1,14.8c0,8,7.8,12.9,17.2,12.9s20.3-5.4,20.3-23.4v-1.7
		c4-1.8,8.2-4.3,11.4-7.2c3.4,2.2,8,3.4,14,3.4c14.5,0,21.2-7.2,21.2-17.8c0-1.4-0.2-2.8-0.3-4.2c1.4,0.2,2.8,0,4.3,0
		c-0.3,1.4-0.3,2.6-0.3,4.2c0,10.6,6.5,17.8,18.9,17.8c2.3,0,7.1-1.1,8.6-1.7v1.5c-0.8,0.5-2.3,0.8-4.8,1.4
		c-6,1.4-19.2,3.4-19.2,14.9c0,8,7.8,12.9,17.2,12.9s20.3-5.4,20.3-23.4v-1.7c4-1.8,8-4.3,11.2-7.1c3.4,2.2,7.8,3.2,13.7,3.2
		c14.6,0,21.2-7.2,21.2-17.8c0-11.4-6.9-17.8-21.2-17.8C199.8,46,193.2,53.2,193.2,63.8z M237.8,49.1h0.8c0.3,0,0.5,0.2,0.5,0.5
		s-0.2,0.5-0.5,0.5h-0.8V49.1z M237.2,48.6v2.8h0.5v-0.9h0.6l0.5,0.9h0.6l-0.6-1.1c0.3-0.2,0.6-0.5,0.6-0.9c0-0.6-0.3-0.9-0.9-0.9
		h-1.2V48.6z M236.2,50c0-1.1,0.9-2,2-2c1.1,0,2,0.9,2,2s-0.9,2-2,2C237.2,52.1,236.2,51.2,236.2,50z M235.6,50
		c0,1.4,1.1,2.5,2.5,2.5s2.6-1.1,2.6-2.5c0-1.4-1.1-2.5-2.6-2.5C236.8,47.5,235.6,48.6,235.6,50z">
  </path>
  <path class="st1" d="M186.8-24.9c-9.8,0-19.1,5.8-23.1,14.8c-11.2,1.4-18.6,9.4-18.6,18.9c0,10.8,9.5,19.5,21.8,19.5
		c2.8,0,6.3-0.6,8.6-1.8c5.2,3.4,12.5,5.2,19.8,5.2c7.5,0,15.2-2,20.9-5.4c2.3,1.5,4.9,2.3,7.5,2.3c4,0,7.8-1.7,10.6-4.8
		c2.5-2.8,3.5-6.5,3.5-10.2c0-7.2-5.8-13.1-12.9-13.1c-4.2,0-7.5,1.5-10.3,3.8l4,5.7c1.1-1.1,3.1-2.5,5.8-2.5s6,1.7,6.2,6.2
		c0.2,4-3.4,7.1-6.5,7.1c-3.2,0-5.7-1.2-7.5-3.5c-5.4,4.8-14.3,6.8-21.4,6.8c-9.5,0-16-3.4-19.1-5.7c-2.5,1.5-6.5,2.5-9.4,2.5
		c-8,0-14.2-5.4-14.2-11.8c0-6.2,6.2-12,15.7-12h0.2c2.5-8.3,9.8-14.3,18.2-14.3l0,0c8.5,0,12.5,4.3,15.7,8.8
		c1.2-1.4,3.7-2.3,6.2-2.3c1.5,0,3.2,0.3,4.8,1.2c3.1,1.8,4.5,4.8,4.5,8.3c1.5-0.8,4.3-1.4,7.2-1.4c3.1,0,6.5,0.6,9.1,2.6
		c5.2,3.8,6.6,7.5,7.1,12.8h20.3l-7.7,7.1h8.6L273,8.9L262.5-2h-8.6l7.7,7.1h-14.5c-3.1-10.2-13.1-15.2-21.2-15.2
		c-1.4,0-2.6,0.2-3.8,0.5c-2.2-5.4-7.7-8-12.8-8c-1.5,0-2.9,0.3-4.3,0.6C201.5-21.6,193.8-24.9,186.8-24.9L186.8-24.9z">
  </path>
 </g>
</svg>