<?xml version="1.0" encoding="UTF-8" standalone="no"?>
<!-- Created with Inkscape (http://www.inkscape.org/) -->

<svg
   xmlns:dc="http://purl.org/dc/elements/1.1/"
   xmlns:cc="http://creativecommons.org/ns#"
   xmlns:rdf="http://www.w3.org/1999/02/22-rdf-syntax-ns#"
   xmlns:svg="http://www.w3.org/2000/svg"
   xmlns="http://www.w3.org/2000/svg"
   xmlns:sodipodi="http://sodipodi.sourceforge.net/DTD/sodipodi-0.dtd"
   xmlns:inkscape="http://www.inkscape.org/namespaces/inkscape"
   width="135.92853"
   height="21.86307"
   viewBox="0 0 35.964424 5.7846038"
   version="1.1"
   id="svg2390"
   inkscape:version="0.92.0 r15299"
   sodipodi:docname="heico.svg">
  <defs
     id="defs2384">
    <clipPath
       id="clipPath412"
       clipPathUnits="userSpaceOnUse">
      <path
         inkscape:connector-curvature="0"
         id="path410"
         d="m 250.026,197.018 h 101.195 v 54.861 H 250.026 Z" />
    </clipPath>
  </defs>
  <sodipodi:namedview
     id="base"
     pagecolor="#ffffff"
     bordercolor="#666666"
     borderopacity="1.0"
     inkscape:pageopacity="0.0"
     inkscape:pageshadow="2"
     inkscape:zoom="6.647964"
     inkscape:cx="67.464265"
     inkscape:cy="10.431534"
     inkscape:document-units="mm"
     inkscape:current-layer="layer1"
     showgrid="false"
     fit-margin-top="0"
     fit-margin-left="0"
     fit-margin-right="0"
     fit-margin-bottom="0"
     units="px"
     inkscape:window-width="1280"
     inkscape:window-height="744"
     inkscape:window-x="-4"
     inkscape:window-y="-4"
     inkscape:window-maximized="1" />
  <metadata
     id="metadata2387">
    <rdf:RDF>
      <cc:Work
         rdf:about="">
        <dc:format>image/svg+xml</dc:format>
        <dc:type
           rdf:resource="http://purl.org/dc/dcmitype/StillImage" />
        <dc:title></dc:title>
      </cc:Work>
    </rdf:RDF>
  </metadata>
  <g
     inkscape:label="Layer 1"
     inkscape:groupmode="layer"
     id="layer1"
     transform="translate(-103.85852,-157.26139)">
    <g
       id="g2545"
       style="fill:#293180;fill-opacity:1"
       transform="translate(0.13229149,-0.13228834)">
      <path
         d="m 107.97321,160.74789 h 0.55986 c 0.35348,0 0.36301,0.36336 0.36301,0.36336 v 1.93463 h 3.19193 v -0.90346 c 0,0 -0.68756,-0.15734 -0.68756,-0.67769 0,-0.43215 -0.01,-1.97379 -0.01,-2.45498 0,-0.48118 0.69744,-0.70696 0.69744,-0.70696 v -0.77576 h -3.18206 v 1.93463 c 0,0.31397 -0.3436,0.34361 -0.3436,0.34361 h -0.58914 -0.58914 c 0,0 -0.3436,-0.0296 -0.3436,-0.34361 v -1.93463 h -3.18171 v 0.77576 c 0,0 0.69709,0.22578 0.69709,0.70696 0,0.48119 -0.01,2.02283 -0.01,2.45498 0,0.52035 -0.68721,0.67769 -0.68721,0.67769 v 0.90346 h 3.19158 v -1.93463 c 0,0 0.01,-0.36336 0.36336,-0.36336 z"
         style="fill:#293180;fill-opacity:1;fill-rule:nonzero;stroke:none;stroke-width:0.35277778"
         id="path456"
         inkscape:connector-curvature="0" />
      <path
         d="m 120.04837,159.20459 h -2.10467 v -0.54222 c 0,0 -0.0258,-0.33584 -0.34855,-0.33584 h -1.2393 c 0,0 -0.34255,0.0388 -0.34255,0.34219 v 1.28482 h 1.94345 c 0,0 0.25153,0.0127 0.25153,0.25153 v 0.23918 c 0,0 -0.0258,0.26141 -0.26141,0.26141 h -1.91417 v 1.02976 c 0,0 -0.0127,0.36124 0.3616,0.36124 h 1.21391 c 0,0 0.36794,-0.0258 0.36794,-0.36795 v -0.30338 h 2.07222 l 0.002,1.62066 h -7.19208 v -0.90347 c 0,0 0.68757,-0.15734 0.68757,-0.67768 0,-0.43216 0.01,-1.97379 0.01,-2.45498 0,-0.48119 -0.69745,-0.70697 -0.69745,-0.70697 v -0.77576 h 7.19032 z"
         style="fill:#293180;fill-opacity:1;fill-rule:nonzero;stroke:none;stroke-width:0.35277778"
         id="path460"
         inkscape:connector-curvature="0" />
      <path
         d="m 120.85059,163.04595 v -0.90346 c 0,0 0.68721,-0.15734 0.68721,-0.67769 0,-0.43215 0.01,-1.97379 0.01,-2.45498 0,-0.48119 -0.69709,-0.70697 -0.69709,-0.70697 v -0.77576 h 3.92359 v 0.90347 c 0,0 -0.68756,0.15698 -0.68756,0.67768 0,0.43216 -0.01,1.9738 -0.01,2.45499 0,0.48118 0.69708,0.70696 0.69708,0.70696 v 0.77576 z"
         style="fill:#293180;fill-opacity:1;fill-rule:nonzero;stroke:none;stroke-width:0.35277778"
         id="path464"
         inkscape:connector-curvature="0" />
      <path
         d="m 126.50438,163.02648 c -0.68474,0 -1.23966,-0.55492 -1.23966,-1.23966 v -3.02119 c 0,-0.68474 0.55492,-1.23966 1.23966,-1.23966 h 0.10336 5.28073 v 1.66582 h -2.16923 v -0.52952 c 0,0 -0.0515,-0.3422 -0.34219,-0.3422 h -1.31057 c 0,0 -0.32597,0.0194 -0.32597,0.41981 v 3.04694 c 0,0 0.0519,0.36336 0.37606,0.36336 h 1.42205 c 0,0 0.25894,-0.0145 0.25894,-0.36336 v -0.34855 h 2.10397 v 1.58821 h -5.33259 z"
         style="fill:#293180;fill-opacity:1;fill-rule:nonzero;stroke:none;stroke-width:0.35277778"
         id="path468"
         inkscape:connector-curvature="0" />
      <path
         d="m 137.06634,158.78764 c 0,-0.25471 -0.20637,-0.46108 -0.46108,-0.46108 h -0.97155 c -0.25471,0 -0.46108,0.20637 -0.46108,0.46108 v 3.02895 c 0,0.25435 0.20637,0.46108 0.46108,0.46108 h 0.97155 c 0.25471,0 0.46108,-0.20673 0.46108,-0.46108 z m 2.49202,2.99932 c 0,0.68474 -0.55527,1.23966 -1.23966,1.23966 h -4.49333 c -0.68439,0 -1.23966,-0.55492 -1.23966,-1.23966 v -3.02154 c 0,-0.68439 0.55527,-1.23931 1.23966,-1.23931 h 4.49333 c 0.68439,0 1.23966,0.55492 1.23966,1.23931 z"
         style="fill:#293180;fill-opacity:1;fill-rule:nonzero;stroke:none;stroke-width:0.35277778"
         id="path472"
         inkscape:connector-curvature="0" />
    </g>
  </g>
</svg>
