<svg fill="none" height="54" viewBox="0 0 179 54" width="179" xmlns="http://www.w3.org/2000/svg">
<path d="M17.8535 53.9997L17.8604 27.1056C17.8604 21.8962 14.8123 18.5621 9.69307 18.5621C7.15393 18.5621 4.98615 19.4532 3.32219 21.3779V6.99878H0V35.7716H3.32219V27.6719C3.32219 23.6783 5.58324 21.5672 9.00214 21.5672C12.417 21.5672 14.539 23.6317 14.539 27.6719L14.5448 50.3642C14.5448 53.3288 16.631 53.9997 17.6901 53.9997H17.8535Z" fill="white"></path><path clip-rule="evenodd" d="M110.3 42.207C113.183 42.207 115.438 41.2109 117.071 39.6526C119.473 37.3339 119.955 34.1907 119.955 30.7222C119.955 27.2634 119.473 24.1202 117.071 21.7902C115.438 20.2448 113.183 19.2415 110.3 19.2415C107.424 19.2415 105.205 20.2448 103.571 21.7902C101.17 24.1202 100.688 27.2634 100.688 30.7222C100.688 34.1907 101.17 37.3339 103.571 39.6526C105.205 41.2109 107.424 42.207 110.3 42.207ZM110.3 22.1575C111.982 22.1575 113.52 22.7526 114.626 23.7949C116.349 25.438 116.495 28.2185 116.495 30.7222C116.495 33.23 116.349 36.0115 114.626 37.6492C113.52 38.6976 111.982 39.2938 110.3 39.2938C108.623 39.2938 107.169 38.6976 106.068 37.6492C104.336 36.0115 104.148 33.23 104.148 30.7222C104.148 28.2185 104.336 25.438 106.068 23.7949C107.169 22.7526 108.623 22.1575 110.3 22.1575Z" fill="white" fill-rule="evenodd"></path>
<path d="M132.696 22.1836C136.15 22.1836 138.35 24.2054 138.35 28.2069V42.207H141.708V27.6554C141.708 25.038 140.965 22.9224 139.328 21.3571C137.927 19.9756 135.92 19.2415 133.446 19.2415H131.947C129.472 19.2415 127.465 19.9756 126.064 21.3571C124.427 22.9224 123.684 25.038 123.684 27.6554V42.207H127.043V28.2069C127.043 24.2054 129.242 22.1836 132.696 22.1836Z" fill="white"></path>
<path d="M93.1349 20.9988C91.7359 19.5982 89.7312 18.8538 87.2599 18.8538H85.7627C83.2917 18.8538 81.2869 19.5982 79.8882 20.9988C79.6307 21.2489 79.3974 21.5145 79.1838 21.7923C78.9697 21.5145 78.737 21.2489 78.4792 20.9988C77.0805 19.5982 75.0757 18.8538 72.6047 18.8538H71.1075C68.636 18.8538 66.6318 19.5982 65.2325 20.9988C63.5983 22.5859 62.8555 24.7309 62.8555 27.3848V42.1387H66.2095V27.9439C66.2095 23.8868 68.4065 21.8369 71.8558 21.8369C75.3058 21.8369 77.5022 23.8868 77.5022 27.9439V42.1387H80.8649V27.9439C80.8649 23.8868 83.0619 21.8369 86.5118 21.8369C89.9609 21.8369 92.1576 23.8868 92.1576 27.9439V42.1387H95.5148V27.3848C95.5148 24.7309 94.7703 22.5859 93.1349 20.9988Z" fill="white"></path>
<path d="M149.789 42.207H152.897V19.2415H149.789V42.207Z" fill="white"></path>
<path d="M170.052 39.0389C169.84 39.0878 169.691 39.1155 169.608 39.1304C169.14 39.2288 168.65 39.2938 168.093 39.2938C165.842 39.2938 163.967 38.4277 162.749 36.7394C161.665 35.28 161.246 33.549 161.246 30.7222C161.246 27.8994 161.665 26.1685 162.749 24.7104C163.967 23.0221 165.842 22.1575 168.093 22.1575C168.68 22.1575 169.206 22.2069 169.696 22.3089C170.397 22.4282 171.763 22.7376 173.07 23.4802C173.492 23.7198 173.778 23.9374 173.976 24.132L174.029 24.0843V21.0547C172.275 19.7224 170.523 19.2415 168.093 19.2415C162.276 19.2415 157.869 23.0673 157.869 30.7222C157.869 38.3822 162.276 42.207 168.093 42.207C170.523 42.207 172.275 41.7255 174.029 40.3915V37.3302L173.99 37.2938C173.838 37.4142 173.657 37.5413 173.438 37.6772C172.151 38.4763 170.778 38.871 170.052 39.0389Z" fill="white"></path>
<path clip-rule="evenodd" d="M55.1593 19.2448C52.6841 19.2448 50.6764 19.9719 49.2752 21.3398C47.6381 22.8898 46.8941 24.9848 46.8941 27.5767V41.9704H50.2537V28.123C50.2537 25.5402 51.1931 23.7961 52.8004 22.891C55.0947 21.9367 57.9188 22.077 60.077 23.616L60.2878 20.4916C59.8159 20.1661 59.3498 19.9222 58.7297 19.7053C57.6577 19.3312 56.2281 19.2197 55.1593 19.2448ZM37.5059 34.0138C37.5059 35.8786 37.1316 37.1545 36.3384 37.8815C34.8903 39.2495 33.1655 39.3864 31.1998 39.3864C27.1945 39.3864 26.1654 37.0362 26.1654 35.57C26.1654 35.508 26.1652 35.4448 26.165 35.3804V35.3804C26.1603 33.9224 26.1537 31.8844 28.4605 30.7293C30.6795 29.8063 34.6404 29.7151 37.5059 32.2548V34.0138ZM24.7824 21.6684C25.4098 20.7096 27.9322 19.2598 31.6696 19.2598C37.8287 19.2598 40.8676 21.8534 40.8676 26.7263L40.9727 41.9794H37.6107L37.5059 39.8955C35.6349 41.7191 34.0565 42.207 30.9768 42.207C23.026 42.207 23.0061 35.5872 23.0061 35.5872C23.0061 35.5872 22.7464 31.8138 24.8785 29.734C26.5133 28.1391 28.9142 27.5981 31.3894 27.5981C34.5964 27.5981 36.5222 28.8385 37.5059 29.5268V27.0001C37.5059 23.7236 35.8225 22.0818 31.6233 22.0818C28.6782 22.0818 26.1176 22.8749 24.7622 24.7383L24.7824 21.6684Z" fill="white" fill-rule="evenodd"></path>
<path clip-rule="evenodd" d="M179.001 45.9135C179.001 44.8795 178.185 44.0691 177.148 44.0691H177.136C176.099 44.0691 175.271 44.8795 175.271 45.9135C175.271 46.9708 176.099 47.7932 177.136 47.7932C178.185 47.7932 179.001 46.9708 179.001 45.9135ZM177.124 44.398C176.297 44.398 175.668 45.0792 175.668 45.9135C175.668 46.7713 176.297 47.4525 177.148 47.4525C177.975 47.4641 178.593 46.7713 178.593 45.9254C178.593 45.0792 177.975 44.398 177.136 44.398H177.124ZM176.449 46.9473H176.798V46.1249H177.031C177.299 46.1249 177.439 46.2189 177.486 46.4303C177.532 46.7007 177.579 46.8769 177.637 46.9473H177.998C177.952 46.8769 177.917 46.7476 177.859 46.4538C177.8 46.2073 177.707 46.0543 177.532 45.9839V45.9604C177.742 45.89 177.917 45.7491 177.917 45.5024C177.917 45.3261 177.835 45.1733 177.719 45.0911C177.591 44.9972 177.439 44.9385 177.113 44.9385C176.845 44.9385 176.647 44.9619 176.449 44.9972V46.9473ZM177.043 45.8431H176.798V45.2439C176.856 45.2323 176.938 45.2202 177.078 45.2202C177.427 45.2202 177.544 45.3496 177.544 45.5375C177.544 45.7725 177.299 45.8431 177.043 45.8431Z" fill="white" fill-rule="evenodd"></path>
<g><path d="M143.273 7.37236C143.273 3.39942 146.49 0.18042 150.462 0.18042C154.436 0.18042 157.654 3.39942 157.654 7.37236C157.654 11.3444 154.436 14.5629 150.462 14.5629C146.49 14.5629 143.273 11.3444 143.273 7.37236Z" fill="#21B1D9"></path><path d="M154.761 7.44927L147.924 10.5519V4.34497L154.761 7.44927Z" fill="white"></path>
</g>
</svg>