<svg version="1.1" id="Layer_1" xmlns:x="ns_extend;" xmlns:i="ns_ai;" xmlns:graph="ns_graphs;" xmlns="http://www.w3.org/2000/svg" xmlns:xlink="http://www.w3.org/1999/xlink" x="0px" y="0px" viewBox="0 0 425.5 77.9" style="enable-background:new 0 0 425.5 77.9;" xml:space="preserve">
 <style type="text/css">
  .st0{fill:#97999B;}
	.st1{fill:#F9423A;}
 </style>
 <metadata>
  <sfw xmlns="ns_sfw;">
   <slices>
   </slices>
   <sliceSourceBounds bottomLeftOrigin="true" height="77.9" width="425.5" x="183" y="291.1">
   </sliceSourceBounds>
  </sfw>
 </metadata>
 <g>
  <polygon class="st0" points="0,0 24.7,0 24.7,77.9 0,77.9 0,0 0,0 0,0 	">
  </polygon>
  <polygon class="st0" points="147,77.9 231.9,77.9 231.9,59.2 170.8,59.2 170.8,43.4 147,43.4 147,77.9 147,77.9 147,77.9 	">
  </polygon>
  <path class="st0" d="M96.8,57.9H58.3V44.5H34.4v33.4h66.3c23.9,0,38.1-10.8,38.1-30v-3.4h-23.9C114.6,55.1,106.9,57.9,96.8,57.9
		L96.8,57.9z">
  </path>
  <path class="st0" d="M58.3,19.4h38.5c10,0,17.7,2.8,18,13.3h23.9V30c0-19.3-14.2-30-38.1-30H34.4v32.7h23.9V19.4L58.3,19.4z">
  </path>
  <polygon class="st0" points="231.9,18.1 231.9,0 147,0 147,32.7 170.8,32.7 170.8,18.1 231.9,18.1 	">
  </polygon>
  <polygon class="st1" points="179,31.6 230.9,31.6 230.9,45.5 179,45.5 179,31.6 	">
  </polygon>
  <polygon class="st0" points="394.2,44.5 351.7,44.5 328.3,70 304.9,44.5 262.6,44.5 231.9,77.9 263.3,77.9 283.7,53.8 304.2,77.9 
		352.5,77.9 372.9,53.8 393.3,77.9 425.5,77.9 394.2,44.5 	">
  </polygon>
  <polygon class="st0" points="328.3,7.9 351.1,32.7 394.8,32.7 424.7,0 393.3,0 372.9,24.1 352.5,0 304.2,0 283.7,24.1 263.3,0 
		231.9,0 261.9,32.7 305.6,32.7 328.3,7.9 	">
  </polygon>
 </g>
</svg>