<svg version="1.1" id="Layer_1" xmlns:x="ns_extend;" xmlns:i="ns_ai;" xmlns:graph="ns_graphs;" xmlns="http://www.w3.org/2000/svg" xmlns:xlink="http://www.w3.org/1999/xlink" x="0px" y="0px" viewBox="0 0 294.1 87" style="enable-background:new 0 0 294.1 87;" xml:space="preserve">
 <style type="text/css">
  .st0{fill:#443738;}
	.st1{fill:#925041;}
	.st2{fill:#3FC7F2;}
	.st3{fill:#7AC143;}
	.st4{fill:#CE0954;}
 </style>
 <metadata>
  <sfw xmlns="ns_sfw;">
   <slices>
   </slices>
   <sliceSourceBounds bottomLeftOrigin="true" height="87" width="294.1" x="60.7" y="-250.5">
   </sliceSourceBounds>
  </sfw>
 </metadata>
 <g>
  <polygon class="st0" points="73.9,2.1 52.2,2.1 30.2,39.6 52.3,77.1 74,77.1 51.3,39.6 	">
  </polygon>
  <g>
   <path class="st1" d="M13.9,30.7c0.2,3.3-2.4,6-5.6,6.2c-3.3,0.2-6-2.4-6.2-5.6c-0.2-3.3,2.4-6,5.6-6.2
			C10.9,24.9,13.7,27.4,13.9,30.7">
   </path>
   <path class="st2" d="M23.3,33.4c0.1,1.8-1.3,3.4-3.1,3.4c-1.8,0.1-3.4-1.3-3.4-3.1c-0.1-1.8,1.3-3.4,3.1-3.4
			C21.7,30.2,23.2,31.6,23.3,33.4">
   </path>
   <path class="st3" d="M24.9,15.7c-3.3,9.1-1.3,12.2-1.3,12.2C16.4,26.8,5,18.7,5.2,10.6C5.3,5,9.2,0.3,14.8,0
			C25.9-0.5,26.5,11.5,24.9,15.7">
   </path>
   <path class="st4" d="M27.8,55.6C23.3,42.7,25,38.2,25,38.2C14.8,40.7-1.3,54.1,0.1,65.6c1,8,7.2,14.3,15.3,13.9
			C31.5,78.7,29.9,61.7,27.8,55.6">
   </path>
   <path class="st0" d="M257.6,62.6c0.6-2.5,2.1-3.8,4.6-3.8c2.3,0,3.9,1.3,4.5,3.8H257.6z M262.1,52.1c-7.6,0-12.8,5.4-12.8,13.3
			c0,7.8,5.3,13,13.1,13c3.2,0,6.1-0.8,8.4-2.1l-3.6-5.9c-1.4,0.9-2.9,1.4-4.4,1.4c-2.7,0-4.7-1.3-5.3-4h16.9
			c0.1-0.5,0.2-1.6,0.2-2.5C274.5,57.4,269.5,52.1,262.1,52.1">
   </path>
   <path class="st0" d="M172.9,62.5c0.6-2.5,2.1-3.8,4.6-3.8c2.3,0,3.9,1.3,4.5,3.8H172.9z M177.4,52c-7.6,0-12.8,5.4-12.8,13.3
			c0,7.8,5.3,13,13.1,13c3.3,0,6.1-0.8,8.4-2.1l-3.6-5.9c-1.4,0.9-2.9,1.4-4.4,1.4c-2.7,0-4.7-1.3-5.3-4h16.9
			c0.1-0.5,0.2-1.6,0.2-2.5C189.8,57.3,184.8,52,177.4,52">
   </path>
   <path class="st0" d="M117.8,22.2c0.6-2.5,2.1-3.8,4.6-3.8c2.3,0,3.9,1.3,4.5,3.8H117.8z M122.4,11.6c-7.6,0-12.8,5.4-12.8,13.3
			c0,7.8,5.3,13,13.1,13c3.3,0,6.1-0.8,8.4-2.1l-3.6-5.9c-1.4,0.9-2.9,1.4-4.4,1.4c-2.7,0-4.7-1.3-5.3-4h16.9
			c0.1-0.5,0.2-1.6,0.2-2.5C134.8,16.9,129.7,11.6,122.4,11.6">
   </path>
  </g>
  <rect x="79.7" y="2" class="st0" width="8.2" height="34.7">
  </rect>
  <g>
   <path class="st0" d="M148.7,37.4c6.4,0,11.7-3.4,11.7-11V12.6h-7.7v13.1c0,3.1-1.7,4.5-4,4.5c-2.3,0-4-1.4-4-4.5V12.6H137v13.8
			C137,34,142.2,37.4,148.7,37.4">
   </path>
  </g>
  <rect x="183.1" y="12.6" class="st0" width="7.7" height="24.2">
  </rect>
  <g>
   <path class="st0" d="M123.1,55.8V53h-7.4v24.2h7.7V64.1c0-3,1.7-4.4,4.4-4.4c1.4,0,4.5,0,4.5,0l0.1-7.1c-0.6-0.2-1.6-0.4-2.7-0.4
			C126.8,52.3,124.5,53.4,123.1,55.8">
   </path>
   <path class="st0" d="M291.4,52.3c-3,0-5.2,1.1-6.6,3.4V53h-7.4v24.2h7.7V64.1c0-3,1.7-4.4,4.4-4.4c1.4,0,4.5,0,4.5,0l0.1-7.1
			C293.5,52.5,292.6,52.3,291.4,52.3">
   </path>
   <path class="st0" d="M171.2,23.7c0-3,1.7-4.4,4.4-4.4c1.4,0,4.5,0,4.5,0l0.1-7.1c-0.6-0.2-1.6-0.4-2.7-0.4c-3,0-5.2,1.1-6.6,3.5
			v-2.8h-7.4v24.2h7.7V23.7z">
   </path>
   <path class="st0" d="M151.6,58.1h-6.4v-8h6.4c3,0,4.8,1.4,4.8,4C156.3,56.8,154.5,58.1,151.6,58.1 M151.7,42.6h-14.8v34.5h8.2
			V65.5h6.6c8.5,0,13-4.5,13-11.3C164.7,47.2,160.2,42.6,151.7,42.6">
   </path>
   <path class="st0" d="M205.9,71.1c-3.2,0-5.8-2.6-5.8-5.8c0-3.2,2.6-5.8,5.8-5.8c3.2,0,5.8,2.6,5.8,5.8
			C211.7,68.5,209.1,71.1,205.9,71.1 M206.3,52.9c-2.5,0-4.9,0.8-6.9,2.1v-2H192v34h7.7V75.7c1.9,1.2,4.2,1.9,6.6,1.9
			c6.8,0,12.4-5.6,12.4-12.4C218.7,58.4,213.2,52.9,206.3,52.9">
   </path>
   <path class="st0" d="M234.8,71.1c-3.2,0-5.8-2.6-5.8-5.8c0-3.2,2.6-5.8,5.8-5.8c3.2,0,5.8,2.6,5.8,5.8
			C240.6,68.5,238,71.1,234.8,71.1 M235.2,52.9c-2.5,0-4.9,0.8-6.9,2.1v-2h-7.4v34h7.7V75.7c1.9,1.2,4.2,1.9,6.6,1.9
			c6.8,0,12.4-5.6,12.4-12.4C247.6,58.4,242.1,52.9,235.2,52.9">
   </path>
  </g>
  <polygon class="st0" points="101.4,36.8 101.4,36.8 111.5,36.8 101,19.4 111.5,2 101.4,2 91.2,19.4 	">
  </polygon>
  <g>
   <path class="st0" d="M94.5,42.6H79.7v23.1h8.2V50.3h6.4c6.4,0,9.5,4,9.5,9.6c0,5.6-3.1,9.6-9.5,9.6l-14.6,0v7.6h14.8
			c10.8,0,17.9-6.8,17.9-17.3C112.4,49.5,105.3,42.6,94.5,42.6">
   </path>
   <path class="st0" d="M206.7,30.5c-3.2,0-5.8-2.6-5.8-5.8c0-3.2,2.6-5.8,5.8-5.8c3.2,0,5.8,2.6,5.8,5.8
			C212.4,27.9,209.9,30.5,206.7,30.5 M212.6,12.6v1.6c-1.9-1.1-4.1-1.8-6.4-1.8c-6.9,0-12.4,5.5-12.4,12.4c0,6.8,5.6,12.4,12.4,12.4
			c2.3,0,4.5-0.6,6.3-1.7c-0.3,3.4-3.1,4.9-6.1,4.9c-1.9,0-3.7-0.4-5.4-1.1l-3.4,5.8c2.7,1.4,6.1,2.1,9.4,2.1
			c7.9,0,13.1-4.7,13.1-12.7V12.6H212.6z">
   </path>
  </g>
 </g>
</svg>