<svg version="1.1" id="Layer_1" xmlns:x="ns_extend;" xmlns:i="ns_ai;" xmlns:graph="ns_graphs;" xmlns="http://www.w3.org/2000/svg" xmlns:xlink="http://www.w3.org/1999/xlink" x="0px" y="0px" viewBox="0 0 241.6 82" style="enable-background:new 0 0 241.6 82;" xml:space="preserve">
 <style type="text/css">
  .st0{fill-rule:evenodd;clip-rule:evenodd;fill:#41007F;}
	.st1{fill:#41007F;}
	.st2{fill-rule:evenodd;clip-rule:evenodd;fill:#00A7E1;}
	.st3{fill-rule:evenodd;clip-rule:evenodd;fill:#FFFFFF;}
 </style>
 <metadata>
  <sfw xmlns="ns_sfw;">
   <slices>
   </slices>
   <sliceSourceBounds bottomLeftOrigin="true" height="82" width="241.6" x="20.2" y="178.5">
   </sliceSourceBounds>
  </sfw>
 </metadata>
 <g>
  <path class="st0" d="M75.2,77.7h-1.7l-4.6-6.1l-1.3,1.2v4.9h-1.4V65.1h1.4v6.2l5.7-6.2H75l-5.1,5.4L75.2,77.7z M75.2,77.7">
  </path>
  <path class="st1" d="M80.9,77.9c-1.2,0.1-2.4-0.4-3.3-1.3c-0.8-1-1.3-2.2-1.2-3.5c-0.1-1.3,0.3-2.6,1.1-3.6c0.7-0.9,1.8-1.4,3-1.3
		c1.1-0.1,2.1,0.4,2.8,1.1c0.7,0.9,1.1,2,1,3.1v0.9h-6.6c0,0.9,0.3,1.8,0.8,2.5c0.6,0.6,1.4,0.9,2.3,0.9c1,0,2.1-0.2,3-0.6v1.3
		c-0.5,0.2-0.9,0.4-1.4,0.5C82,77.8,81.5,77.9,80.9,77.9L80.9,77.9z M80.5,69.3c-0.7,0-1.4,0.2-1.8,0.7c-0.5,0.6-0.8,1.3-0.8,2h4.9
		c0-0.7-0.2-1.5-0.6-2.1C81.8,69.5,81.2,69.2,80.5,69.3L80.5,69.3z M91.5,77.9c-1.2,0.1-2.4-0.4-3.3-1.3c-0.9-1-1.3-2.2-1.2-3.5
		c-0.1-1.3,0.3-2.6,1.1-3.6c0.7-0.9,1.8-1.4,3-1.3c1,0,2,0.4,2.7,1.1c0.8,0.8,1.2,1.9,1.2,3.1v0.9h-6.4c0,0.9,0.3,1.8,0.8,2.5
		c0.6,0.6,1.4,0.9,2.3,0.9c1,0,2.1-0.2,3-0.6v1.3c-0.5,0.2-0.9,0.4-1.4,0.5C92.7,77.8,92.1,77.9,91.5,77.9L91.5,77.9z M91.3,69.3
		c-0.7,0-1.4,0.2-1.8,0.7c-0.5,0.6-0.8,1.3-0.8,2h4.9c0.1-0.7-0.2-1.5-0.6-2.1C92.6,69.5,91.9,69.2,91.3,69.3L91.3,69.3z
		 M102.4,77.9c-0.6,0-1.2-0.1-1.7-0.3c-0.5-0.2-0.9-0.6-1.3-1v5.4H98V68.3h1.3v1.4c0.3-0.5,0.8-0.9,1.3-1.1c0.5-0.2,1.1-0.3,1.7-0.3
		c1.1-0.1,2.2,0.4,2.9,1.3c0.7,1.1,1.1,2.3,1,3.6c0.1,1.3-0.3,2.6-1,3.6C104.5,77.5,103.5,77.9,102.4,77.9L102.4,77.9z M102.2,69.3
		c-0.8-0.1-1.6,0.2-2.1,0.8c-0.5,0.8-0.7,1.6-0.6,2.5V73c-0.1,1,0.1,2,0.6,2.8c0.6,0.6,1.3,0.9,2.1,0.9c0.8,0,1.5-0.4,1.9-1
		c0.5-0.8,0.7-1.7,0.7-2.7c0.1-0.9-0.2-1.9-0.7-2.7C103.7,69.7,103,69.3,102.2,69.3L102.2,69.3z M102.2,69.3">
  </path>
  <path class="st0" d="M115.2,77.7V65.1h1.4v11.3h5.6v1.3H115.2z M115.2,77.7">
  </path>
  <path class="st1" d="M132.6,73c0.1,1.3-0.3,2.6-1,3.6c-0.8,0.9-2,1.3-3.2,1.3c-0.8,0-1.6-0.2-2.3-0.6c-0.7-0.4-1.2-1-1.5-1.7
		c-0.4-0.8-0.6-1.8-0.5-2.7c-0.1-1.3,0.3-2.6,1.2-3.6c0.8-0.9,2-1.3,3.2-1.3c1.2-0.1,2.3,0.4,3.1,1.3
		C132.4,70.4,132.7,71.7,132.6,73L132.6,73z M125.4,73c-0.1,0.9,0.2,1.9,0.7,2.7c0.5,0.7,1.3,1,2.1,1c0.8,0,1.6-0.3,2.1-0.9
		c0.5-0.8,0.8-1.7,0.8-2.7c0.1-0.9-0.2-1.9-0.8-2.7c-0.5-0.6-1.3-1-2.2-0.9c-0.8-0.1-1.6,0.3-2.1,0.9C125.6,71.1,125.4,72,125.4,73
		L125.4,73z M143.7,73c0.1,1.3-0.3,2.6-1.2,3.6c-0.8,0.9-2,1.3-3.2,1.3c-0.8,0-1.6-0.2-2.3-0.6c-0.7-0.4-1.2-1-1.5-1.7
		c-0.4-0.8-0.6-1.8-0.5-2.7c-0.1-1.3,0.3-2.6,1.2-3.6c0.8-0.9,2-1.3,3.2-1.3c1.2-0.1,2.4,0.4,3.2,1.3
		C143.3,70.4,143.8,71.7,143.7,73L143.7,73z M136.5,73c-0.1,0.9,0.2,1.9,0.7,2.7c0.5,0.7,1.3,1,2.1,1c0.8,0,1.6-0.3,2.2-0.9
		c0.5-0.8,0.8-1.7,0.7-2.7c0.1-0.9-0.2-1.9-0.7-2.7c-1.2-1.2-3.1-1.2-4.3,0C136.7,71.1,136.4,72,136.5,73L136.5,73z M136.5,73">
  </path>
  <path class="st0" d="M148.3,72.9l1.1-1.4l3.1-3.2h1.7l-3.8,4.1l4.1,5.4h-1.7l-3.3-4.4l-1.1,0.9v3.5h-1.4V64.3h1.4V72.9z
		 M148.3,72.9">
  </path>
  <path class="st1" d="M156.7,65.7c0-0.3,0.1-0.5,0.2-0.7c0.2-0.2,0.4-0.2,0.6-0.2c0.2,0,0.4,0.1,0.6,0.2c0.2,0.2,0.3,0.5,0.2,0.7
		c0,0.3-0.1,0.5-0.2,0.7c-0.2,0.2-0.4,0.2-0.6,0.2c-0.2,0-0.5-0.1-0.6-0.2C156.7,66.2,156.6,66,156.7,65.7L156.7,65.7z M158.2,77.7
		h-1.4v-9.4h1.4V77.7z M158.2,77.7">
  </path>
  <path class="st0" d="M168.4,77.7v-6.1c0.1-0.6-0.1-1.2-0.5-1.7c-0.5-0.4-1.1-0.6-1.7-0.6c-0.8-0.1-1.6,0.2-2.2,0.8
		c-0.5,0.8-0.8,1.7-0.7,2.7v4.9h-1.4v-9.4h1.2l0.2,1.3c0.3-0.5,0.7-0.8,1.2-1.1c0.6-0.3,1.2-0.4,1.8-0.4c1-0.1,1.9,0.2,2.7,0.8
		c0.7,0.7,1,1.7,0.9,2.7v6.1H168.4z M168.4,77.7">
  </path>
  <path class="st1" d="M181.2,68.3v0.9l-1.7,0.2c0.4,0.6,0.6,1.2,0.6,1.9c0,0.8-0.3,1.7-0.9,2.2c-0.8,0.6-1.7,0.9-2.7,0.8h-0.8
		c-0.6,0.3-0.9,0.7-0.9,1.2c0,0.2,0.1,0.5,0.3,0.6c0.3,0.2,0.7,0.2,1.1,0.2h1.7c0.8-0.1,1.7,0.2,2.4,0.6c0.6,0.5,0.9,1.2,0.8,1.9
		c0,1-0.4,1.9-1.3,2.4c-1.1,0.6-2.4,0.9-3.7,0.8c-1,0.1-2-0.2-2.9-0.7c-0.7-0.4-1-1.2-1-1.9c0-0.6,0.2-1.2,0.6-1.7
		c0.4-0.4,1-0.7,1.6-0.9c-0.2-0.1-0.5-0.3-0.6-0.5c-0.2-0.2-0.2-0.5-0.2-0.8c0-0.3,0.1-0.6,0.3-0.9c0.2-0.3,0.5-0.6,0.9-0.7
		c-0.5-0.2-0.9-0.6-1.2-1c-0.3-0.5-0.5-1.1-0.5-1.7c-0.1-0.9,0.3-1.8,0.9-2.4c0.8-0.6,1.7-0.9,2.7-0.8c0.5,0,0.9,0,1.3,0.2
		L181.2,68.3z M173.7,79.3c0,0.5,0.3,0.9,0.8,1.1c0.6,0.3,1.2,0.4,1.9,0.4c0.9,0.1,1.9-0.1,2.7-0.5c0.6-0.3,0.9-0.8,0.9-1.4
		c0-0.4-0.1-0.8-0.5-1.1c-0.6-0.2-1.2-0.3-1.8-0.3H176c-0.6,0-1.1,0.1-1.5,0.5C174,78.2,173.7,78.7,173.7,79.3L173.7,79.3z
		 M174.5,71.2c0,0.6,0.2,1.1,0.6,1.5c0.4,0.4,1,0.5,1.6,0.5c1.2,0.2,2.3-0.8,2.1-2c0.1-0.6-0.1-1.2-0.5-1.6c-0.4-0.4-1-0.6-1.6-0.6
		c-0.6,0-1.1,0.2-1.6,0.6C174.6,70.1,174.4,70.7,174.5,71.2L174.5,71.2z M197.5,77.7l-1.5-4h-5.2l-1.5,4h-1.4l5-12.6h1.2l4.8,12.6
		H197.5z M195.4,72.3l-1.5-3.9c-0.2-0.5-0.4-1.1-0.6-1.8c-0.1,0.6-0.3,1.2-0.5,1.8l-1.5,3.9H195.4z M195.4,72.3">
  </path>
  <path class="st0" d="M207.6,77.7v-6.1c0-0.6-0.2-1.2-0.5-1.7c-0.4-0.4-1-0.6-1.6-0.6c-0.8-0.1-1.6,0.2-2.2,0.8
		c-0.5,0.8-0.8,1.7-0.7,2.7v4.9h-1.4V64.3h1.4v4.1c0,0.4,0,0.8,0,1.2c0.3-0.5,0.7-0.8,1.2-1.1c0.6-0.3,1.2-0.4,1.8-0.4
		c1-0.1,1.9,0.2,2.7,0.8c0.7,0.7,1,1.7,0.9,2.7v6.1H207.6z M207.6,77.7">
  </path>
  <g>
   <path class="st1" d="M216.7,77.9c-1.2,0.1-2.5-0.4-3.3-1.3c-0.9-1-1.3-2.2-1.3-3.5c-0.1-1.3,0.3-2.6,1.1-3.6
			c0.7-0.9,1.9-1.4,3-1.3c1,0,2,0.4,2.7,1.1c0.8,0.8,1.2,1.9,1.2,3.1v0.9h-6.5c0,0.9,0.3,1.8,0.9,2.5c0.6,0.6,1.4,0.9,2.2,0.9
			c1,0,2.1-0.2,3-0.6v1.3C218.8,77.7,217.7,77.9,216.7,77.9L216.7,77.9z M216.3,69.3c-0.7,0-1.4,0.2-1.8,0.7c-0.5,0.6-0.7,1.3-0.8,2
			h4.9c0-0.7-0.2-1.5-0.6-2.1C217.6,69.5,216.9,69.2,216.3,69.3L216.3,69.3z M229.2,77.7l-0.3-1.3c-0.4,0.5-0.8,0.9-1.4,1.2
			c-0.6,0.2-1.2,0.3-1.7,0.3c-0.8,0-1.6-0.2-2.2-0.7c-0.5-0.5-0.8-1.3-0.8-2c0-1.9,1.5-2.9,4.6-3h1.6v-0.6c0-0.6-0.1-1.2-0.5-1.6
			c-0.4-0.4-1-0.6-1.5-0.5c-0.9,0-1.9,0.3-2.7,0.7l-0.5-1.1c0.5-0.2,1-0.4,1.5-0.6c0.5-0.1,1.1-0.2,1.7-0.2c0.9-0.1,1.8,0.2,2.5,0.7
			c0.6,0.7,0.9,1.5,0.8,2.4v6.4H229.2z M225.9,76.7c0.8,0,1.5-0.2,2.1-0.7c0.5-0.5,0.8-1.3,0.8-2v-0.9h-1.4c-0.8,0-1.7,0.2-2.4,0.5
			c-0.5,0.3-0.8,0.9-0.8,1.4c0,0.4,0.1,0.9,0.5,1.2C225,76.5,225.4,76.7,225.9,76.7L225.9,76.7z M240.3,76.4c-0.7,1-1.8,1.5-3,1.4
			c-1.1,0.1-2.2-0.4-2.9-1.3c-0.8-1-1.1-2.3-1-3.6c-0.1-1.3,0.3-2.6,1-3.6c0.7-0.9,1.8-1.3,2.9-1.3c1.2-0.1,2.3,0.5,3,1.4v-5.2h1.4
			v13.4h-1.2L240.3,76.4z M237.4,76.7c0.8,0.1,1.6-0.2,2.1-0.8c0.5-0.8,0.8-1.7,0.7-2.7v-0.3c0.1-1-0.2-2-0.7-2.9
			c-0.6-0.6-1.3-0.9-2.2-0.9c-0.8,0-1.5,0.3-1.9,1c-0.5,0.8-0.7,1.7-0.6,2.7c-0.1,0.9,0.2,1.9,0.6,2.7
			C235.9,76.2,236.6,76.7,237.4,76.7L237.4,76.7z M237.4,76.7">
   </path>
   <path class="st0" d="M122,53.6l22.5-48.2c0.2-0.5,0.7-0.8,1.2-0.7c0.5,0,1,0.3,1.2,0.7l22.6,48.2h5L151.1,3.4
			c-1-2.1-3.1-3.4-5.4-3.4c-2.3,0-4.4,1.3-5.4,3.4l-23.4,50.2H122z M72,49c-0.8,0-1.4-0.6-1.4-1.4V0H66v47.6c0,1.6,0.6,3.1,1.7,4.2
			c1.1,1.1,2.6,1.7,4.2,1.7h36.2V49H72z M48.3,53.6h5.9l-22.7-29L50.7,0h-5.8L6.8,48.7c-0.3,0.5-0.9,0.6-1.4,0.4
			c-0.5-0.2-0.9-0.6-0.8-1.2V0H0v47.9c0,2.5,1.6,4.7,3.9,5.5c0.6,0.2,1.3,0.3,1.9,0.3c1.8,0,3.5-0.8,4.5-2.2l18.2-23.2L48.3,53.6z
			 M48.3,53.6">
   </path>
  </g>
  <rect x="187.9" y="0" class="st2" width="53.7" height="53.6">
  </rect>
  <path class="st3" d="M237.6,24.3h-20.3V4.1h-5v20.3H192v5h20.3v20.3h5V29.3h20.3V24.3z M237.6,24.3">
  </path>
 </g>
</svg>