<svg version="1.1" id="Layer_1" xmlns:x="ns_extend;" xmlns:i="ns_ai;" xmlns:graph="ns_graphs;" xmlns="http://www.w3.org/2000/svg" xmlns:xlink="http://www.w3.org/1999/xlink" x="0px" y="0px" viewBox="0 0 182.2 66" style="enable-background:new 0 0 182.2 66;" xml:space="preserve">
 <style type="text/css">
  .st0{fill:#7BB1DB;}
	.st1{fill:#958437;}
	.st2{fill:#739833;}
	.st3{fill:#C9D200;}
	.st4{fill:#FFB500;}
 </style>
 <metadata>
  <sfw xmlns="ns_sfw;">
   <slices>
   </slices>
   <sliceSourceBounds bottomLeftOrigin="true" height="66" width="182.2" x="63.2" y="-216.7">
   </sliceSourceBounds>
  </sfw>
 </metadata>
 <g id="nxp-logo">
  <polyline class="st0" points="109.3,0 105.6,0 92,21.9 78.3,0 74.6,0 74.6,66 78.3,66 92,44 105.6,66 109.3,66 109.3,65.9 109.3,0 
			">
  </polyline>
  <polyline class="st1" points="74.6,0 54.4,0 74.6,33 54.4,66 74.6,66 74.6,0 	">
  </polyline>
  <polyline class="st2" points="129.5,0 109.3,0 109.3,65.9 109.3,66 129.5,66 109.3,33 129.5,0 	">
  </polyline>
  <path class="st3" d="M158.3,0h-28.8l-20.2,33l20.2,33l0,0V51.4h34.1c14.3,0,18.6-11.3,18.6-21.1v-7.7C182.2,9.6,177.5,0,158.3,0
		L158.3,0z M163.3,26.6c0,3.9-1.8,8.4-6.6,8.4h-27.2V16.4H155c6.1,0,8.3,2.5,8.3,7V26.6z">
  </path>
  <polyline class="st4" points="74.6,33 54.4,0 54.4,0 54.4,39.9 20.2,0 0,0 0,66 20.2,66 20.2,26.1 54.4,66 74.6,33 	">
  </polyline>
 </g>
</svg>