<svg fill="none" height="50" viewBox="0 0 277 50" width="277" xmlns="http://www.w3.org/2000/svg"><path d="m73.7715 13.209c-.5257-.5126-1.1176-.9058-1.767-1.1798-.6494-.2695-1.3077-.4727-1.9703-.6097-.6627-.137-1.2944-.2165-1.8864-.243-.5964-.0266-1.0956-.0398-1.502-.0398-.296 0-.6627.0132-1.0956.0398-.4329.0265-.8879.0486-1.3606.0618-.4727.0133-.941.0354-1.4004.0619-.4595.0265-.8527.0397-1.1752.0397-.6494 0-1.3076-.022-1.9702-.0618-.6627-.0398-1.3209-.0884-1.9703-.1414.0795 1.7851.1546 3.5392.2253 5.258.0662 1.7188.1016 3.473.1016 5.2581v6.9812c0 1.7851-.0354 3.5481-.1016 5.2802-.0663 1.732-.1414 3.4376-.2253 5.1166.6229-.053 1.2855-.0795 1.9879-.0795s1.3651.0265 1.988.0795c-.0795-1.679-.1546-3.3846-.2253-5.1166-.0663-1.7321-.1016-3.4907-.1016-5.2802v-2.2313c.5389.053 1.0691.0884 1.5815.1016.5125.0133 1.0823.0221 1.7052.0221.9764 0 2.0896-.106 3.3487-.327 1.259-.2165 2.4474-.6362 3.5739-1.2592 1.1221-.6231 2.0719-1.4891 2.8406-2.5981.7731-1.1091 1.1574-2.5584 1.1574-4.3434 0-1.1356-.1635-2.09-.486-2.8632-.318-.7689-.7421-1.414-1.2723-1.9265zm-2.6771 8.4217c-.4727.8793-1.0823 1.5686-1.8245 2.0723-.7466.4993-1.5638.8483-2.4562 1.0339-.8924.19-1.7583.2828-2.5976.2828-1.0028 0-1.9615-.1061-2.8804-.3226v-12.0581h3.6535c1.0558 0 2.0012.0751 2.8405.2253.8394.1503 1.5507.4242 2.1294.8307.5831.4065 1.0337.9765 1.3606 1.7056.3269.729.486 1.679.486 2.8411-.0045 1.3786-.2386 2.5097-.7113 3.389zm29.9966-7.675c-.243-.0353-.5-.0795-.769-.1281.097.7114.159 2.006.185 3.8883.023 1.8823.036 4.5599.036 8.0328 0 .76-.013 1.5907-.036 2.4921-.026.9058-.11 1.8116-.256 2.713-.146.9013-.3841 1.7718-.7155 2.6025-.3313.8306-.7863 1.5641-1.3739 2.2004-.5875.6363-1.3385 1.1488-2.253 1.5421-.9144.3888-2.0454.5876-3.3928.5876-1.3695 0-2.5181-.1635-3.4458-.4949-.9277-.3313-1.7008-.782-2.3104-1.3564-.6097-.5745-1.0824-1.2461-1.4137-2.0193-.3313-.7688-.5699-1.5774-.7157-2.4214-.1457-.8439-.2341-1.7099-.2562-2.6025-.0265-.8925-.0353-1.7541-.0353-2.5848 0-1.3697.0132-2.6909.0353-3.959.0221-1.2725.0619-2.4567.1105-3.5569s.0971-2.0855.1457-2.9516c.0486-.866.0972-1.5686.1458-2.1076-.2695.0486-.5301.0928-.7863.1281-.2563.0354-.5213.053-.7864.053-.2915 0-.6096-.0176-.9542-.053-.3446-.0353-.6582-.0795-.9542-.1281.0486 1.1002.0972 2.4434.1458 4.0341s.0751 3.4111.0751 5.4657c0 .9279-.031 1.8381-.0928 2.7307-.0619.8925-.0928 1.9132-.0928 3.062 0 3.5922.8306 6.2213 2.4916 7.8871 1.6611 1.6613 4.3249 2.492 7.9916 2.492 1.6611 0 3.1366-.2342 4.4177-.6981 1.2856-.464 2.3635-1.1488 3.247-2.0546.8789-.9058 1.5599-2.006 2.0369-3.3007.477-1.2946.729-2.7616.751-4.4008.022-1.3433.062-2.7307.11-4.1623.049-1.4316.097-2.8234.146-4.1799s.11-2.629.185-3.8132c.076-1.1841.146-2.2048.221-3.062-.415.1237-.782.1856-1.1.1856-.247-.0089-.49-.0265-.737-.0619zm25.198 21.3812c-.636-.7953-1.294-1.626-1.979-2.492s-1.343-1.6967-1.979-2.4921c-.636-.7953-1.211-1.5244-1.723-2.1827-.512-.6584-.915-1.1753-1.21-1.5421.706-.0972 1.497-.3004 2.363-.6053s1.679-.7335 2.439-1.2858c.755-.5523 1.4-1.246 1.926-2.09.525-.8439.786-1.8513.786-3.0266 0-1.1003-.203-2.0149-.605-2.7528-.402-.7335-.954-1.3255-1.648-1.7806-.698-.4507-1.511-.7777-2.439-.9721-.927-.1944-1.908-.2916-2.933-.2916-.711 0-1.405.0309-2.089.0927-.685.0619-1.383.0928-2.09.0928-.711 0-1.405-.0176-2.09-.053-.684-.0353-1.382-.0795-2.089-.1281.075 1.6127.141 3.199.203 4.7499s.093 3.1371.093 4.7499v6.3096c0 1.6128-.031 3.2035-.093 4.7676-.062 1.5642-.128 3.1062-.203 4.6218.561-.0486 1.162-.0751 1.798-.0751s1.232.0221 1.798.0751c-.075-1.5156-.142-3.0576-.203-4.6218-.062-1.5641-.093-3.1548-.093-4.7676v-2.6776h1.391c.782.8086 1.644 1.7895 2.585 2.9516s1.864 2.3285 2.77 3.5039c.905 1.1753 1.727 2.2755 2.474 3.3006.746 1.0251 1.303 1.7983 1.669 2.3109.341-.0486.698-.0751 1.065-.0751h2.165c.366 0 .733.0221 1.1.0751-.345-.3402-.795-.8439-1.356-1.5023-.57-.6672-1.167-1.3918-1.803-2.1872zm-9.608-9.7384c-.491 0-.937-.0132-1.339-.0353s-.777-.0752-1.118-.1458v-2.09c0-1.3211.022-2.6423.075-3.959.049-1.3211.098-2.6511.146-3.9988.389-.0486.866-.0928 1.432-.1281.561-.0353 1.272-.053 2.125-.053.636 0 1.281.0663 1.943.2032.659.1326 1.273.3844 1.834.7512.561.3667 1.02.8616 1.374 1.4846.353.623.53 1.4139.53 2.3639 0 1.1002-.226 2.0104-.681 2.7307-.45.7202-1.02 1.2946-1.705 1.7232s-1.436.729-2.253.8969c-.817.1724-1.604.2563-2.363.2563zm31.171 11.3335c-.588.1237-1.277.2121-2.072.274-.795.0618-1.639.1104-2.531.1458-.893.0353-1.803.053-2.73.053h-2.567c-.027-.4639-.044-1.1488-.053-2.0546-.013-.9058-.018-2.0546-.018-3.4465v-3.632c0-.3888.005-.7158.018-.9721.013-.2562.017-.4948.017-.7158.442 0 1.034.0045 1.781.0177.746.0133 1.542.0265 2.385.0354.844.0132 1.688.0441 2.532.0928.843.0486 1.581.1104 2.217.1811-.075-.3667-.11-.7335-.11-1.1002 0-.3888.035-.7688.11-1.1356-.539.0486-1.104.0928-1.705.1282-.601.0353-1.254.0751-1.961.1104-.712.0354-1.493.0663-2.346.0928-.857.0265-1.82.0354-2.898.0354 0-.464-.005-1.1488-.018-2.0546s-.017-1.8337-.017-2.7881c0-.9058.017-1.71.053-2.4214.035-.7069.066-1.4537.092-2.2357 1.198 0 2.222.0176 3.079.053.858.0353 1.644.0795 2.364.1281s1.405.0972 2.054.1458c.65.0486 1.361.0972 2.147.1458-.075-.3667-.11-.7334-.11-1.1002 0-.3667.035-.7334.11-1.1002-1.1.0486-2.187.0928-3.264.1282-1.078.0353-2.165.053-3.265.053s-2.196-.0177-3.283-.053c-1.086-.0354-2.182-.0796-3.282-.1282.075 1.5642.141 3.1283.203 4.6925.062 1.5641.093 3.1548.093 4.7676v6.3096c0 1.6128-.031 3.199-.093 4.7499s-.128 3.1107-.203 4.6748c1.122-.0486 2.235-.0751 3.335-.0751h6.654c1.086 0 2.182.0221 3.282.0751-.075-.243-.111-.5611-.111-.9544 0-.1723.005-.3623.018-.57.013-.19.044-.38.093-.5523zm23.21-21.6728c1.017-1.0693 2.205-1.8602 3.574-2.3772 1.365-.5125 2.85-.7732 4.445-.7732.976 0 1.868.1281 2.677.3844.813.2563 1.541.5744 2.191.9544.649.38 1.219.7732 1.705 1.1753s.866.7732 1.135 1.0958l.243-.0795c.08-.433.19-.9765.327-1.6261.137-.6495.31-1.162.526-1.542-1.135-.5126-2.443-.9544-3.918-1.3212-1.476-.3667-3.106-.5478-4.891-.5478-2.248 0-4.303.3225-6.171.9764-1.869.654-3.473 1.5995-4.811 2.8412-1.339 1.246-2.381 2.7659-3.128 4.5687-.747 1.7983-1.118 3.853-1.118 6.1506 0 2.302.371 4.3522 1.118 6.1506.742 1.7983 1.772 3.3227 3.084 4.5687s2.876 2.1739 4.687 2.7793c1.811.6097 3.79.9146 5.928.9146 1.003 0 1.962-.0795 2.881-.243s1.749-.3447 2.496-.5479c.742-.2033 1.378-.433 1.908-.6893s.915-.4949 1.158-.7114l.366-2.3948-.163-.1635c-.38.3004-.848.6451-1.401 1.0339-.556.3933-1.175.76-1.868 1.0958-.69.3402-1.449.6274-2.275.8749-.827.243-1.728.3667-2.7.3667-1.599 0-3.079-.2563-4.444-.7732-1.365-.5126-2.558-1.3035-3.574-2.3772-1.016-1.0693-1.807-2.4213-2.377-4.0606-.569-1.6393-.852-3.579-.852-5.828 0-2.2446.283-4.1888.852-5.8281.584-1.626 1.374-2.978 2.39-4.0473zm38.152-1.4316c-.491 1.0516-1.016 2.1341-1.577 3.2476s-1.149 2.2181-1.759 3.3183c-.609 1.1002-1.223 2.1783-1.833 3.2255-.61 1.0516-1.197 2.0149-1.758 2.8986-1.273-2.2226-2.474-4.3655-3.614-6.4157-1.135-2.0546-2.253-4.1446-3.353-6.2699-.345.0486-.68.0928-1.007.1281-.332.0354-.667.053-1.007.053-.345 0-.681-.0176-1.008-.053-.327-.0353-.667-.0795-1.007-.1281.243.3932.596.9721 1.065 1.7409.464.7688.985 1.6393 1.559 2.6025.575.9677 1.18 1.9795 1.816 3.0444.636 1.0648 1.241 2.0767 1.816 3.0443.574.9677 1.1 1.847 1.577 2.6423s.839 1.4007 1.082 1.816c0 1.9795-.013 3.875-.035 5.6866-.027 1.8116-.111 3.3493-.257 4.6218.561-.0486 1.162-.0751 1.798-.0751.637 0 1.233.0221 1.798.0751-.048-.5125-.092-1.193-.128-2.0369-.035-.844-.066-1.7586-.092-2.7528-.027-.9897-.045-1.9971-.053-3.0266-.014-1.0251-.018-1.9928-.018-2.8986.389-.7556.857-1.6083 1.391-2.5495.539-.9411 1.162-1.9972 1.869-3.1725s1.529-2.4832 2.456-3.9236c.928-1.4405 1.979-3.0576 3.155-4.8427-.61.1237-1.087.1855-1.432.1855-.344 0-.83-.0618-1.444-.1855zm12.97 3.7204c.919-.9677 1.992-1.6791 3.225-2.1474 1.232-.464 2.571-.6982 4.016-.6982.879 0 1.687.1149 2.421.3491.733.2342 1.391.5214 1.979.8616.587.3447 1.1.6981 1.541 1.0649.442.3667.782.6981 1.025.9897l.221-.0751c.075-.3888.173-.8793.292-1.4669.124-.5877.283-1.0516.477-1.3919-1.025-.4639-2.205-.8616-3.539-1.193s-2.805-.4948-4.417-.4948c-2.028 0-3.888.2916-5.575.8792-1.688.5877-3.137 1.4449-4.347 2.5672-1.211 1.1267-2.152 2.5009-2.823 4.1269-.672 1.626-1.008 3.4774-1.008 5.5541s.336 3.9325 1.008 5.5541c.671 1.626 1.599 3.0001 2.787 4.1269 1.184 1.1267 2.598 1.9618 4.237 2.5141s3.423.8263 5.354.8263c.906 0 1.771-.0752 2.602-.221s1.582-.3137 2.253-.4948c.672-.1856 1.246-.3889 1.723-.6231.477-.2297.826-.4462 1.047-.6406l.331-2.1651-.146-.1458c-.344.2695-.764.5832-1.263.9367s-1.065.6849-1.688.9898c-.622.3048-1.307.5699-2.054.7864-.746.2166-1.559.3314-2.438.3314-1.441 0-2.779-.2297-4.016-.6981-1.233-.4639-2.31-1.1797-3.225-2.1474-.919-.9676-1.63-2.1872-2.147-3.6674-.512-1.4802-.769-3.2343-.769-5.2624s.257-3.7823.769-5.2625c.512-1.4713 1.228-2.6953 2.147-3.6629zm29.356 19.8038c-1.591.0353-3.252.053-4.988.053-.022-1.7851-.049-3.8088-.075-6.071-.022-2.2623-.035-4.9311-.035-8.0152 0-1.6128.031-3.1946.092-4.75.062-1.5509.129-3.1371.204-4.7499-.318.0486-.623.0928-.919.1282-.292.0353-.588.053-.879.053-.292 0-.588-.0177-.88-.053-.291-.0354-.6-.0796-.918-.1282.075 1.6128.141 3.199.203 4.7499s.093 3.1372.093 4.75v6.3096c0 1.6128-.031 3.2034-.093 4.7676-.062 1.5641-.128 3.1062-.203 4.6218 1.175-.0486 2.301-.0752 3.392-.0752h6.764c1.122 0 2.248.0221 3.375.0752-.124-.3889-.181-.7203-.181-.9898 0-.2916.062-.6583.181-1.1002-1.833.2474-3.543.3888-5.133.4242zm24.372.1502c.013-.2077.044-.3977.093-.57-.588.1237-1.277.2121-2.072.274-.795.0618-1.639.1104-2.531.1458-.893.0353-1.803.053-2.731.053h-2.566c-.022-.4639-.044-1.1488-.053-2.0546-.013-.9058-.018-2.0546-.018-3.4465v-3.632c0-.3888.005-.7158.018-.9721.013-.2562.017-.4948.017-.7158.442 0 1.034.0045 1.781.0177.746.0133 1.542.0265 2.381.0354.844.0132 1.687.0441 2.531.0928.844.0486 1.582.1104 2.218.1811-.075-.3667-.111-.7335-.111-1.1002 0-.3888.036-.7688.111-1.1356-.539.0486-1.104.0928-1.705.1282-.601.0353-1.255.0751-1.962.1104-.711.0354-1.493.0663-2.346.0928-.857.0265-1.82.0354-2.898.0354 0-.464-.004-1.1488-.017-2.0546s-.018-1.8337-.018-2.7881c0-.9058.018-1.71.053-2.4214.035-.7069.066-1.4537.093-2.2357 1.197 0 2.226.0176 3.079.053.857.0353 1.643.0795 2.363.1281.721.0486 1.405.0972 2.055.1458.645.0486 1.36.0972 2.147.1458-.075-.3667-.111-.7334-.111-1.1002 0-.3667.036-.7334.111-1.1002-1.1.0486-2.187.0928-3.265.1282-1.078.0353-2.165.053-3.265.053s-2.195-.0177-3.282-.053c-1.087-.0354-2.182-.0796-3.282-.1282.075 1.5642.141 3.1283.203 4.6925.062 1.5641.093 3.1548.093 4.7676v6.3096c0 1.6128-.031 3.199-.093 4.7499s-.128 3.1107-.203 4.6748c1.122-.0486 2.235-.0751 3.335-.0751h6.653c1.087 0 2.182.0221 3.282.0751-.075-.243-.11-.5611-.11-.9544 0-.159.009-.3446.022-.5523z" fill="#000"/><path d="m19.5443.615993c5.4691-1.201838 11.5302-.7158003 16.4427 2.085547 3.3177 1.97066 6.2157 4.83828 7.5101 8.54096.8438 1.2107 1.3695 4.3611 1.8289 4.6351.9763-4.5246-.1634-9.30986-2.5004-13.23792 5.1334 3.05761 6.9579 9.36722 7.5896 14.96992.4418 2.0591-.0088 5.6248.4329 6.8487 1.9438-2.1783 2.4209-5.2182 2.686-8.0196 1.2414 7.971-.3092 16.7506-5.478 23.1221-4.21 5.0725-10.4699 8.0241-16.743 9.6413-5.9065 1.573-12.3121.7511-17.7238-2.037-9.62176-4.6394-15.1969-16.1099-13.17801-26.5597 1.67431-9.6943 9.47596-17.95689 19.13301-19.989407zm6.9447 5.178507c3.0614.9544 6.2598 2.37275 8.0799 5.1387-5.4337-2.46549-12.7892-1.83364-16.7961 2.9118-3.5474 4.5423-3.3265 11.0508-1.0293 16.0923 1.8687 3.9723 6.578 5.5806 10.7173 5.0813 2.3856-.3667 5.2483-.3977 6.8828-2.4434 6.9535-6.9062 7.4748-19.2913.7334-26.51559-2.4254-1.75857-5.9153-1.02951-8.588-.26511z" fill="#a8def1"/><path d="m19.054.76193c5.341-1.303465 11.2121-.896961 16.1643 1.54206 3.6093 1.96183 6.8298 4.93549 8.2346 8.88121.888 1.1754 1.4137 4.6792 1.904 4.6483.941-4.5069-.1634-9.27005-2.5136-13.17161 5.3586 3.27413 7.0948 9.91071 7.647 15.77411.3843 1.7895-.1193 5.1918.3667 6.049 1.9261-2.1916 2.4341-5.1829 2.6815-7.9887 1.2105 8.0726-.3843 16.9671-5.7342 23.343-4.4132 5.099-10.8498 7.9976-17.2908 9.5617-5.7121 1.2726-11.7909.4154-16.9728-2.2711-9.52898-4.6527-15.05111-15.9641-13.14266-26.3653 1.61688-9.5794 9.1623-17.78457 18.65596-20.00267zm-1.2061 5.12549c-5.8269 1.65694-10.1209 6.74708-12.14862 12.28348-2.01006 6.0136.61405 12.5221 4.46632 17.2102.7024.9499 3.4634 3.9855 1.5638 1.162-.6715-1.2548-2.33693-4.9266-.159-2.2888 2.4651 2.2932 4.9301 4.6306 8.0446 5.9562 2.1956.5788-1.5152-1.3565-1.7803-2.2579-1.7185-2.7969 1.4181.6849 2.7478.8528 3.8081 1.573 7.6603-.9014 10.4744-3.3227 4.9301-3.5127 8.4466-9.111 8.7779-15.2307.3225-5.258-1.2811-10.93581-5.204-14.59435-2.6506-1.26811-5.7121-.58324-8.4069.12372-2.7611-.61859-5.6458-.63185-8.376.10605zm9.1093 32.25958c-.1811.1105-.053-.0574 0 0zm-5.7518 7.6176c.1546.0972.0574-.2342 0 0z" fill="#5aa6db"/><path d="m43.0156 2.78112c5.0008 3.18576 6.7679 9.39378 7.3908 14.96998.2385 2.3241.3225 4.6659.1811 6.9945 2.1868-2.0546 2.6727-5.2448 2.9687-8.0947.9807 6.8752-.0486 14.2364-3.6667 20.2456-3.6711 6.2169-10.3772 9.8136-17.07 11.8858-6.4145 1.9707-13.5535 1.4449-19.4378-1.8292-3.49001-1.5509-5.77396-5.3288-6.27757-8.8768 3.83457 4.5157 8.66747 8.9386 14.76397 9.7782 1.0911.2827 5.8932-.2386 2.8494-.7291-2.6197-.7202-5.3808-1.8779-6.8519-4.2992 3.1189 1.8734 7.0418 2.523 10.523 1.2504 2.2884-.7688 4.5723-2.1562 6.1229-3.9059-3.9362 1.4713-8.3229.7069-12.1089-.8352 4.3382.2696 7.7045-2.9913 10.7969-5.5673 5.5397-4.7852 7.9916-12.7916 6.092-19.8745-.7157-2.9913-2.2045-5.8943-4.3736-8.0638 3.141-1.05603 6.2511 1.23719 7.7089 3.90156 1.1928 1.96624 2.0542 4.27274 2.633 6.59684 1.1618-4.6085.0486-9.57493-2.3326-13.61346zm1.4269 1.17091c.0795.1193.053-.15023 0 0zm-.1458 1.383c.1237.10162.0088-.1414 0 0z" fill="#3958a8"/></svg>