<svg version="1.1" id="Layer_1" xmlns="http://www.w3.org/2000/svg" xmlns:xlink="http://www.w3.org/1999/xlink" x="0px" y="0px" viewBox="0 0 407.6 94.1" style="enable-background:new 0 0 407.6 94.1;" xml:space="preserve">
 <style type="text/css">
  .st0{fill:#00539A;}
	.st1{fill:#00529B;}
	.st2{fill:#0099D8;}
	.st3{fill:#F3793B;}
	.st4{fill:#00A551;}
	.st5{fill:#EC1C24;}
 </style>
 <g>
  <path class="st0" d="M104.6,61.2h9.4c3.7,0,5.1,1.3,5.1,4.4c0,3-1.4,4.3-5.1,4.3h-9.4 M90,92.6h14.6V79.8h15.7
		c10.4,0,14.1-6.1,14.1-14c0-9.2-3.8-14.3-14.2-14.3H90V92.6z">
  </path>
  <polyline class="st0" points="139.2,51.5 178.5,51.5 178.5,61.5 153.8,61.5 153.8,67.1 176.7,67.1 176.7,77.1 153.8,77.1 
		153.8,82.6 178.5,82.6 178.5,92.6 139.2,92.6 	">
  </polyline>
  <path class="st0" d="M199.2,61.2h9.4c3.7,0,5.1,1.3,5.1,4.4c0,3-1.4,4.3-5.1,4.3h-9.4 M184.6,92.6h14.6V79.8h15.7
		c10.4,0,14.1-6.1,14.1-14c0-9.2-3.8-14.3-14.2-14.3h-30.2V92.6z">
  </path>
  <path class="st0" d="M243.1,75.2C236,74,233,69.4,233,63.6c0-10.7,9.4-13.5,21.4-13.5c16.5,0,23.3,4.8,23.8,13.5h-17
		c0-1.7-0.9-2.7-2.2-3.3c-1.3-0.6-3-0.9-4.6-0.9c-4.4,0-5.9,1.2-5.9,2.9c0,1.2,0.5,1.9,1.9,2.1l17.5,2.9c7.4,1.2,11.9,5,11.9,12
		c0,10-7.4,14.7-23.8,14.7c-11.2,0-23.5-1.7-23.6-13.8h17.6c0,1.4,0.5,2.3,1.6,2.9c1.1,0.6,2.7,0.9,5,0.9c4.6,0,5.8-1.4,5.8-3.3
		c0-1.2-0.7-2.4-2.6-2.8">
  </path>
  <rect x="284.6" y="51.5" class="st0" width="14.6" height="41.1">
  </rect>
  <path class="st0" d="M353.4,76.6c-0.9,5.4-2.6,9.8-6.2,12.8c-3.6,3-9.2,4.7-18.1,4.7c-8.9,0-25.3-0.7-25.3-22
		c0-21.3,16.4-22,25.3-22c8.8,0,22.4,1.3,24.3,17.6h-16.5c-0.4-2.9-2.2-7.2-7.8-7.2c-6,0-9.7,3.3-9.7,11.6c0,8.3,3.7,11.6,9,11.6
		c4.6,0,7.4-2.1,8.6-7.1">
  </path>
  <path class="st0" d="M372.5,72.1c0-8.3,3.8-11.6,9.7-11.6c6,0,9.7,3.3,9.7,11.6c0,8.3-3.8,11.6-9.7,11.6
		C376.3,83.7,372.5,80.4,372.5,72.1 M357,72.1c0,21.3,16.4,22,25.3,22c8.9,0,25.3-0.7,25.3-22c0-21.3-16.4-22-25.3-22
		C373.4,50.1,357,50.8,357,72.1">
  </path>
  <path class="st1" d="M67.9,51.9C68.9,32.2,51.8,10,28.6,7.2l0-0.3c22.9,0,40.4,21.2,40.4,37.9c0,3.5-0.3,5.6-0.8,7.2 M66.5,54.4
		c-1.5,1.9-3.4,3.7-5.7,5.5C56.7,36.2,39.3,15.5,27,9.4l-0.3,0.2c12.4,10.2,27.2,29.9,32.9,51.2c-2.8,2-5.9,3.9-9.4,5.4
		c-11.7-13.3-22.6-39-26.1-55.4L23.7,11C23.8,26.9,35,53.7,48.8,66.9c-3,1.2-6.3,2.1-9.8,2.7c-13.2-5.2-22.5-21.9-22.5-39
		c0-11.2,3.4-18.1,4.1-19.5L20.3,11c-0.8,1.2-5.8,8.1-5.8,20.1c0,19.3,9.5,34.1,22.2,38.7c-4.3,0.5-8.9,0.3-13.6-0.6L23,69.5
		C24.4,70,29,72,36,72c15.8,0,26.6-9.8,30.9-17.3L66.5,54.4z">
  </path>
  <path class="st2" d="M34.4,0C22.4,0,8.3,8.7,8.3,16.6c0,3.1,2.8,5.7,8.6,5.7c13.5,0,26-9.3,26-16.4C42.9,2,39.2,0,34.4,0 M39.2,5.6
		c0,6.1-11.7,13.5-21.4,13.5c-4.3,0-6.6-1.7-6.6-4.5c0-6.1,11.8-13.4,20.9-13.4C38,1.1,39.2,4.2,39.2,5.6">
  </path>
  <path class="st3" d="M3.5,20.2c-0.3,0.6-1.7,3.2-1.7,5.9c0,5,5.1,9.7,14.4,9.7c18,0,38.8-13.2,38.8-25.5c0-5.5-5.2-8.5-8.9-9.1
		l-0.1,0.2c1.1,0.4,5.3,2.3,5.3,7.2c0,9.8-18.3,23.1-36.6,23.1c-7,0-11.4-3.5-11.4-8.5c0-1.6,0.3-2.6,0.4-2.9">
  </path>
  <path class="st4" d="M62.4,11.3c0.5,0.4,3.5,2.8,3.5,7.5c0,15.9-24.9,31.6-47,31.6C5.7,50.4-0.3,43.9,0,38.1h0.2
		c0.5,3,4.8,8.3,16.3,8.3c22.1,0,46.7-16.2,46.7-30.4c0-2.4-0.7-4-1-4.6">
  </path>
  <path class="st5" d="M70.8,26.1c0.1,0.3,0.6,1.9,0.6,4.2c0,17.7-25.2,32.8-47.2,32.8c-11.3,0-17.2-5.5-18.4-7.7L6,55.4
		c3.1,2.7,9.3,4.8,16.5,4.8c19.4,0,48.3-14.7,48.1-34">
  </path>
 </g>
</svg>