<?xml version="1.0" encoding="UTF-8" standalone="no"?>
<!-- Created with Inkscape (http://www.inkscape.org/) -->

<svg
   version="1.1"
   id="svg9"
   xml:space="preserve"
   width="281.45319"
   height="91.078133"
   viewBox="0 0 281.45319 91.078133"
   sodipodi:docname="rogers-2021-esg-report.svg"
   inkscape:version="1.1.1 (3bf5ae0d25, 2021-09-20)"
   xmlns:inkscape="http://www.inkscape.org/namespaces/inkscape"
   xmlns:sodipodi="http://sodipodi.sourceforge.net/DTD/sodipodi-0.dtd"
   xmlns="http://www.w3.org/2000/svg"
   xmlns:svg="http://www.w3.org/2000/svg"><defs
     id="defs13"><clipPath
       clipPathUnits="userSpaceOnUse"
       id="clipPath25"><path
         d="M 0,0 H 612 V 792 H 0 Z"
         id="path23" /></clipPath><clipPath
       clipPathUnits="userSpaceOnUse"
       id="clipPath57"><path
         d="M 0,0 H 612 V 792 H 0 Z"
         id="path55" /></clipPath><clipPath
       clipPathUnits="userSpaceOnUse"
       id="clipPath107"><path
         d="M 0,0 H 612 V 792 H 0 Z"
         id="path105" /></clipPath></defs><sodipodi:namedview
     id="namedview11"
     pagecolor="#ffffff"
     bordercolor="#666666"
     borderopacity="1.0"
     inkscape:pageshadow="2"
     inkscape:pageopacity="0.0"
     inkscape:pagecheckerboard="0"
     showgrid="false"
     fit-margin-top="10"
     fit-margin-left="10"
     fit-margin-right="10"
     fit-margin-bottom="10"
     inkscape:zoom="0.75852273"
     inkscape:cx="-236.64419"
     inkscape:cy="67.895131"
     inkscape:window-width="1920"
     inkscape:window-height="1009"
     inkscape:window-x="-8"
     inkscape:window-y="-8"
     inkscape:window-maximized="1"
     inkscape:current-layer="g15" /><g
     id="g15"
     inkscape:groupmode="layer"
     inkscape:label="rogers-2021-esg-report"
     transform="matrix(1.3333333,0,0,-1.3333333,-267.27359,889.35998)"><g
       id="g322"><g
         id="g19"><g
           id="g21"
           clip-path="url(#clipPath25)"><g
             id="g27"
             transform="translate(243.6822,612.1754)"><path
               d="m 0,0 c -0.908,1.844 -1.977,4.184 -2.969,6.801 -2.357,6.22 -3.372,11.6 -3.372,11.6 0,0 2.806,-4.703 5.163,-10.921 0.72,-1.898 1.313,-3.717 1.793,-5.33 v 39.568 c 0,1.318 -1.08,2.398 -2.399,2.398 H -33.33 c -1.319,0 -2.397,-1.08 -2.397,-2.398 v -2.814 h 21.545 v -0.008 c 5.497,0 9.953,-4.457 9.953,-9.954 0,-5.498 -4.456,-9.956 -9.953,-9.956 V 18.979 H -35.727 V 1.588 c 0,-1.318 1.078,-2.398 2.397,-2.398 0,0 8.085,0.024 16.155,0.048 1.502,-3.161 2.717,-5.202 2.717,-5.202 0,0 -0.397,2.108 -1.272,5.206 0.63,0.001 1.254,0.005 1.875,0.006 -0.979,1.935 -2.213,4.565 -3.346,7.553 -2.358,6.22 -3.373,11.6 -3.373,11.6 0,0 2.807,-4.703 5.164,-10.921 1.197,-3.157 2.047,-6.098 2.595,-8.229 0.125,0.001 0.253,0.001 0.378,0.001 1.504,-3.17 2.723,-5.216 2.723,-5.216 0,0 -0.399,2.113 -1.277,5.222 0.645,0 1.266,0.003 1.873,0.006 -0.979,1.933 -2.209,4.555 -3.338,7.537 -2.358,6.22 -3.374,11.6 -3.374,11.6 0,0 2.807,-4.703 5.164,-10.921 1.195,-3.152 2.044,-6.084 2.592,-8.214 0.122,0.002 0.253,0.002 0.373,0.002 1.508,-3.177 2.731,-5.232 2.731,-5.232 0,0 -0.4,2.12 -1.28,5.236 0.676,0.002 1.301,0.005 1.868,0.006 -0.977,1.931 -2.204,4.551 -3.331,7.523 -2.358,6.22 -3.373,11.6 -3.373,11.6 0,0 2.807,-4.703 5.164,-10.921 1.192,-3.144 2.04,-6.07 2.587,-8.199 0.125,0.002 0.255,0.002 0.371,0.002 1.511,-3.187 2.738,-5.247 2.738,-5.247 0,0 -0.402,2.127 -1.285,5.25 0.263,0.003 0.408,0.004 0.407,0.004 C -0.671,-0.581 -0.293,-0.329 0,0"
               style="fill:#d5d7d8;fill-opacity:1;fill-rule:nonzero;stroke:none"
               id="path29" /></g><g
             id="g31"
             transform="translate(245.1633,659.52)"><path
               d="m 0,0 h -31.546 c -1.318,0 -2.398,-1.08 -2.398,-2.398 v -2.814 h 21.545 v -0.007 c 5.497,0 9.955,-4.456 9.955,-9.955 0,-5.499 -4.458,-9.956 -9.955,-9.956 v -0.006 h -21.545 v -17.392 c 0,-1.32 1.08,-2.398 2.398,-2.398 0,0 6.76,0.021 14.088,0.043 1.5,-3.157 2.714,-5.197 2.714,-5.197 0,0 -0.266,1.408 -0.84,3.615 -0.935,1.878 -2.059,4.32 -3.097,7.059 -2.357,6.218 -3.372,11.598 -3.372,11.598 0,0 2.807,-4.702 5.163,-10.921 0.845,-2.228 1.515,-4.342 2.03,-6.147 0.715,0.003 1.432,0.005 2.139,0.008 1.504,-3.165 2.721,-5.212 2.721,-5.212 0,0 -0.266,1.408 -0.841,3.615 -0.933,1.878 -2.058,4.321 -3.096,7.059 -2.357,6.218 -3.372,11.598 -3.372,11.598 0,0 2.806,-4.702 5.164,-10.921 0.843,-2.222 1.51,-4.332 2.025,-6.132 0.729,10e-4 1.447,0.005 2.136,0.007 1.506,-3.173 2.728,-5.226 2.728,-5.226 0,0 -0.266,1.408 -0.842,3.615 -0.933,1.878 -2.058,4.321 -3.095,7.059 -2.357,6.218 -3.373,11.598 -3.373,11.598 0,0 2.806,-4.702 5.164,-10.921 0.841,-2.214 1.507,-4.32 2.021,-6.117 0.764,0.002 1.482,0.005 2.133,0.006 1.51,-3.182 2.736,-5.24 2.736,-5.24 0,0 -0.266,1.408 -0.841,3.615 -0.933,1.878 -2.058,4.32 -3.095,7.059 -2.359,6.218 -3.373,11.598 -3.373,11.598 0,0 2.807,-4.702 5.163,-10.921 0.838,-2.211 1.504,-4.307 2.017,-6.101 0.837,10e-4 1.322,0.005 1.32,0.005 0.99,0.293 1.719,1.215 1.719,2.297 v 40.13 C 2.398,-1.08 1.319,0 0,0"
               style="fill:#009a66;fill-opacity:1;fill-rule:nonzero;stroke:none"
               id="path33" /></g><g
             id="g35"
             transform="translate(265.8374,652.4487)"><path
               d="m 0,0 h 0.784 c 2.919,0 6.432,-0.444 6.432,-3.529 0,-3.138 -3.262,-3.609 -6.275,-3.609 H 0 Z m 4.299,-8.942 c 3.419,0.34 5.678,2.693 5.678,5.517 0,1.883 -1.129,3.739 -3.106,4.706 C 4.989,2.171 2.73,2.196 0.628,2.196 H -2.95 V -17.519 H 0 v 8.342 h 1.224 l 6.965,-8.342 h 3.576 z"
               style="fill:#000000;fill-opacity:1;fill-rule:nonzero;stroke:none"
               id="path37" /></g><g
             id="g39"
             transform="translate(295.3622,636.8127)"><path
               d="m 0,0 c -5.115,0 -9.445,3.478 -9.445,7.975 0,4.34 3.891,7.975 9.445,7.975 5.553,0 9.443,-3.635 9.443,-7.975 C 9.443,3.478 5.113,0 0,0 M 0,18.25 C -6.778,18.25 -12.394,13.622 -12.394,7.975 -12.394,2.118 -6.84,-2.3 0,-2.3 6.839,-2.3 12.393,2.118 12.393,7.975 12.393,13.622 6.777,18.25 0,18.25"
               style="fill:#000000;fill-opacity:1;fill-rule:nonzero;stroke:none"
               id="path41" /></g><g
             id="g43"
             transform="translate(336.8708,644.8661)"><path
               d="m 0,0 v -0.784 c 0,-5.413 -4.58,-9.569 -11.201,-9.569 -6.621,0 -11.953,4.758 -11.953,10.222 0,5.674 5.459,10.328 12.266,10.328 3.672,0 7.311,-1.386 9.634,-3.818 L -3.327,4.733 c -1.693,1.935 -4.549,3.216 -7.434,3.216 -5.303,0 -9.444,-3.582 -9.444,-8 0,-4.132 4.078,-8.054 9.192,-8.054 3.671,0 7.624,2.641 7.75,5.856 H -9.38 V 0 Z"
               style="fill:#000000;fill-opacity:1;fill-rule:nonzero;stroke:none"
               id="path45" /></g></g></g><g
         id="g47"
         transform="translate(346.0637,654.6449)"><path
           d="M 0,0 H 12.706 V -2.249 H 2.949 v -5.516 h 9.476 v -2.249 H 2.949 v -7.452 h 9.757 v -2.249 H 0 Z"
           style="fill:#000000;fill-opacity:1;fill-rule:nonzero;stroke:none"
           id="path49" /></g><g
         id="g51"><g
           id="g53"
           clip-path="url(#clipPath57)"><g
             id="g59"
             transform="translate(371.6349,652.4487)"><path
               d="m 0,0 h 0.785 c 2.918,0 6.431,-0.444 6.431,-3.529 0,-3.138 -3.262,-3.609 -6.275,-3.609 H 0 Z m 4.299,-8.942 c 3.419,0.34 5.677,2.693 5.677,5.517 0,1.883 -1.128,3.739 -3.105,4.706 C 4.989,2.171 2.73,2.196 0.627,2.196 H -2.949 V -17.519 H 0 v 8.342 h 1.224 l 6.964,-8.342 h 3.577 z"
               style="fill:#000000;fill-opacity:1;fill-rule:nonzero;stroke:none"
               id="path61" /></g><g
             id="g63"
             transform="translate(400.9401,650.9072)"><path
               d="m 0,0 c -0.881,1.228 -2.009,1.855 -3.797,1.855 -1.884,0 -3.954,-1.072 -3.954,-2.797 0,-1.543 1.82,-2.354 3.295,-2.824 l 1.695,-0.549 c 3.356,-1.099 5.866,-2.641 5.866,-5.935 0,-3.583 -3.325,-6.144 -7.561,-6.144 -3.827,0 -6.808,2.352 -7.311,5.516 l 2.981,0.523 c -0.032,-2.171 2.04,-3.74 4.582,-3.74 2.541,0 4.36,1.779 4.36,3.845 0,2.117 -2.04,3.033 -4.079,3.739 l -1.632,0.574 c -2.697,0.968 -5.145,2.25 -5.145,4.995 0,3.189 3.389,5.098 6.966,5.098 2.636,0 4.801,-1.072 6.087,-2.98 z"
               style="fill:#000000;fill-opacity:1;fill-rule:nonzero;stroke:none"
               id="path65" /></g><g
             id="g67"
             transform="translate(270.4526,626.9924)"><path
               d="m 0,0 c -0.736,0.545 -1.746,0.841 -2.714,0.841 -2.306,0 -4.065,-1.602 -4.065,-3.502 0,-1.874 1.745,-3.477 4.037,-3.477 1.01,0 1.978,0.318 2.742,0.888 v -1.262 c -0.791,-0.387 -1.801,-0.604 -2.701,-0.604 -2.933,0 -5.361,1.944 -5.361,4.421 0,2.536 2.442,4.513 5.47,4.513 0.901,0 1.815,-0.18 2.592,-0.579 z"
               style="fill:#000000;fill-opacity:1;fill-rule:nonzero;stroke:none"
               id="path69" /></g><g
             id="g71"
             transform="translate(281.4478,620.8775)"><path
               d="m 0,0 c -2.224,0 -4.107,1.51 -4.107,3.467 0,1.887 1.693,3.467 4.107,3.467 2.415,0 4.106,-1.58 4.106,-3.467 C 4.106,1.51 2.223,0 0,0 m 0,7.933 c -2.947,0 -5.389,-2.011 -5.389,-4.466 0,-2.548 2.415,-4.468 5.389,-4.468 2.974,0 5.388,1.92 5.388,4.468 0,2.455 -2.442,4.466 -5.388,4.466"
               style="fill:#000000;fill-opacity:1;fill-rule:nonzero;stroke:none"
               id="path73" /></g><g
             id="g75"
             transform="translate(294.1616,627.6732)"><path
               d="m 0,0 h 0.341 c 1.268,0 2.797,-0.192 2.797,-1.533 0,-1.364 -1.42,-1.568 -2.729,-1.568 H 0 Z m 1.868,-3.887 c 1.487,0.148 2.47,1.171 2.47,2.399 0,0.819 -0.491,1.626 -1.351,2.046 -0.818,0.386 -1.8,0.399 -2.715,0.399 H -1.282 V -7.615 H 0 V -3.99 H 0.532 L 3.56,-7.615 h 1.555 z"
               style="fill:#000000;fill-opacity:1;fill-rule:nonzero;stroke:none"
               id="path77" /></g><g
             id="g79"
             transform="translate(306.371,627.6732)"><path
               d="m 0,0 h 0.34 c 1.269,0 2.797,-0.158 2.797,-1.5 0,-1.365 -1.419,-1.569 -2.728,-1.569 H 0 Z m 0,-4.023 h 0.737 c 1.95,0 3.601,0.694 3.601,2.5 0,1.571 -0.983,2.48 -4.148,2.48 H -1.282 V -7.615 H 0 Z"
               style="fill:#000000;fill-opacity:1;fill-rule:nonzero;stroke:none"
               id="path81" /></g><g
             id="g83"
             transform="translate(321.3082,620.8775)"><path
               d="m 0,0 c -2.224,0 -4.105,1.51 -4.105,3.467 0,1.887 1.691,3.467 4.105,3.467 2.414,0 4.106,-1.58 4.106,-3.467 C 4.106,1.51 2.223,0 0,0 m 0,7.933 c -2.947,0 -5.389,-2.011 -5.389,-4.466 0,-2.548 2.414,-4.468 5.389,-4.468 2.973,0 5.388,1.92 5.388,4.468 0,2.455 -2.442,4.466 -5.388,4.466"
               style="fill:#000000;fill-opacity:1;fill-rule:nonzero;stroke:none"
               id="path85" /></g><g
             id="g87"
             transform="translate(334.0227,627.6732)"><path
               d="m 0,0 h 0.341 c 1.269,0 2.796,-0.192 2.796,-1.533 0,-1.364 -1.42,-1.568 -2.729,-1.568 H 0 Z m 1.868,-3.887 c 1.486,0.148 2.469,1.171 2.469,2.399 0,0.819 -0.491,1.626 -1.349,2.046 C 2.168,0.944 1.186,0.957 0.271,0.957 H -1.284 V -7.615 H 0 v 3.625 h 0.531 l 3.028,-3.625 h 1.556 z"
               style="fill:#000000;fill-opacity:1;fill-rule:nonzero;stroke:none"
               id="path89" /></g></g></g><g
         id="g91"
         transform="translate(350.5956,623.1844)"><path
           d="m 0,0 h -3.655 l 1.829,3.467 z m 0.533,-0.979 1.172,-2.147 h 1.379 l -4.91,8.934 -4.913,-8.934 h 1.378 l 1.174,2.147 z"
           style="fill:#000000;fill-opacity:1;fill-rule:nonzero;stroke:none"
           id="path93" /></g><g
         id="g95"
         transform="translate(361.0198,620.0582)"><path
           d="M 0,0 H -1.282 V 7.593 H -3.723 V 8.572 H 2.443 V 7.593 H 0 Z"
           style="fill:#000000;fill-opacity:1;fill-rule:nonzero;stroke:none"
           id="path97" /></g><path
         d="m 370.515,620.058 h -1.283 v 8.572 h 1.283 z"
         style="fill:#000000;fill-opacity:1;fill-rule:nonzero;stroke:none"
         id="path99" /><g
         id="g101"><g
           id="g103"
           clip-path="url(#clipPath107)"><g
             id="g109"
             transform="translate(381.9041,620.8775)"><path
               d="m 0,0 c -2.223,0 -4.105,1.51 -4.105,3.467 0,1.887 1.691,3.467 4.105,3.467 2.416,0 4.107,-1.58 4.107,-3.467 C 4.107,1.51 2.224,0 0,0 m 0,7.933 c -2.946,0 -5.388,-2.011 -5.388,-4.466 0,-2.548 2.415,-4.468 5.388,-4.468 2.975,0 5.391,1.92 5.391,4.468 0,2.455 -2.444,4.466 -5.391,4.466"
               style="fill:#000000;fill-opacity:1;fill-rule:nonzero;stroke:none"
               id="path111" /></g></g></g><g
         id="g113"
         transform="translate(393.2145,629.0374)"><path
           d="m 0,0 7.72,-6.74 v 6.333 H 9.003 V -9.331 L 1.281,-2.59 V -8.979 H 0 Z"
           style="fill:#000000;fill-opacity:1;fill-rule:nonzero;stroke:none"
           id="path115" /></g></g></g></svg>
