<svg version="1.1" id="Layer_1" xmlns="http://www.w3.org/2000/svg" xmlns:xlink="http://www.w3.org/1999/xlink" x="0px" y="0px" viewBox="0 0 178.1 57.2" style="enable-background:new 0 0 178.1 57.2;" xml:space="preserve">
 <style type="text/css">
  .st0{fill:#64696F;}
 </style>
 <g>
  <g>
   <g>
    <path class="st0" d="M172.7,50.7h1.3c0.5,0,1.1,0,1.1,0.7c0,0.7-0.6,0.8-1.2,0.8h-1L172.7,50.7z M171.9,55.1h0.8v-2.2h0.9
				l1.3,2.2h0.9l-1.4-2.2c0.7,0,1.3-0.6,1.3-1.3c0,0,0-0.1,0-0.1c0-1-0.6-1.5-1.8-1.5h-1.9L171.9,55.1z">
    </path>
    <path class="st0" d="M177.2,52.5c-0.1,2-1.8,3.5-3.8,3.4c-2-0.1-3.5-1.8-3.4-3.8c0.1-1.9,1.7-3.4,3.6-3.4c2,0,3.6,1.6,3.6,3.6
				C177.2,52.4,177.2,52.5,177.2,52.5 M169.1,52.5c0,2.5,1.9,4.5,4.4,4.6c2.5,0,4.5-1.9,4.6-4.4c0-2.5-1.9-4.5-4.4-4.6
				c0,0-0.1,0-0.1,0C171.2,48.1,169.2,50,169.1,52.5C169.1,52.5,169.1,52.5,169.1,52.5">
    </path>
    <path class="st0" d="M84.2,57.1h11.1L88.5,0H76.1l-31.4,57h11.9c0,0,6-10.8,6.2-11.4h17.2l1.9-8.4H67.5l12.3-21.6
				C79.8,16,84.2,57.1,84.2,57.1">
    </path>
   </g>
  </g>
  <polygon class="st0" points="112.2,0 100.2,56.9 112.9,56.9 124.6,0 	">
  </polygon>
  <g>
   <g>
    <path class="st0" d="M142.9,14.2c0.3-1.8,0.8-5.1,5-5.1h24l2.1-9.1h-29.2c-11.1,0-11.8,11.4-12.5,15.2
				c-0.7,3.8-5.7,27.2-5.9,28.2c-1.6,5.8,1.7,11.7,7.5,13.4c1.4,0.4,2.8,0.5,4.2,0.3h26.6l2.1-9.2H142c-4.7,0-4.8-2.9-4.1-6.7
				l2.4-13.4l0,0c0,0,1.4-8.2,2.5-13.5">
    </path>
    <path class="st0" d="M20.2,14.4c0.8-3.8,0.3-5.2,5.7-5.2h22.8L51,0H23.2C19.4,0,11.8-1.1,9.5,13.5c-1,6.3-1.4,9.4-1.6,11.4
				c-0.3,5.2,4.1,6.7,7.9,6.7h16.5c2.5,0,3.5,0,3.2,1.9c-0.6,3.3-1.9,9.8-2.3,11.7c-0.6,3.1-4.2,2.6-7.3,2.6H2.1L0,57.1h29.8
				c6.4,0,12.1-2.3,13.7-8.6c1.6-6.3,2.4-10.8,3.3-16c1.3-4.6-1.4-9.3-6-10.6c-1.1-0.3-2.3-0.4-3.4-0.2H22.9c-1.5,0-4.1,0.4-3.6-2.3
				C19.3,18.3,19.7,16.9,20.2,14.4">
    </path>
   </g>
  </g>
 </g>
</svg>