<svg version="1.1" id="Layer_1" xmlns="http://www.w3.org/2000/svg" xmlns:xlink="http://www.w3.org/1999/xlink" x="0px" y="0px" viewBox="0 0 401.1 79.3" style="enable-background:new 0 0 401.1 79.3;" xml:space="preserve">
 <style type="text/css">
  .st0{fill:#F47920;}
	.st1{fill:#D71925;}
	.st2{fill:#999999;}
	.st3{clip-path:url(#SVGID_2_);fill:#D71925;}
	.st4{clip-path:url(#SVGID_2_);fill:#F47920;}
	.st5{clip-path:url(#SVGID_2_);fill:#999999;}
 </style>
 <g>
  <polygon class="st0" points="28.2,16.8 68.2,32.2 68.2,15.6 28.2,0 	">
  </polygon>
  <polygon class="st1" points="28.2,0 0,23.5 13.5,28.6 28.2,16.8 	">
  </polygon>
  <polygon class="st2" points="0,39.6 32.8,52 32.8,35.6 0,23.5 	">
  </polygon>
  <polygon class="st0" points="0.1,63.5 40.1,79.3 40.1,62.6 0.1,46.9 	">
  </polygon>
  <polygon class="st2" points="68.2,39.3 38.8,28 38.8,44.3 54.7,50.5 68.2,39.3 	">
  </polygon>
  <polygon class="st1" points="68.2,39.3 54.7,50.5 40.1,62.6 40.1,79.3 68.2,56.9 68.2,39.3 	">
  </polygon>
  <g>
   <defs>
    <rect id="SVGID_1_" y="0" width="401.1" height="79.3">
    </rect>
   </defs>
   <clipPath id="SVGID_2_">
    <use href="#SVGID_1_" style="overflow:visible;">
    </use>
   </clipPath>
   <path class="st3" d="M83.5,49.2l3.8-5.9c3.4,2.5,7,3.8,10,3.8c2.6,0,3.8-0.9,3.8-2.4v-0.1c0-1.9-3.1-2.6-6.6-3.7
			c-4.4-1.3-9.5-3.4-9.5-9.5v-0.1c0-6.4,5.2-10,11.6-10c4,0,8.4,1.4,11.8,3.7l-3.4,6.2c-3.1-1.8-6.3-3-8.6-3c-2.2,0-3.3,0.9-3.3,2.2
			v0.1c0,1.8,3,2.6,6.4,3.8c4.4,1.5,9.6,3.6,9.6,9.4v0.1c0,7-5.3,10.2-12.1,10.2C92.7,54,87.7,52.5,83.5,49.2">
   </path>
   <path class="st3" d="M112.9,37.8v-0.1c0-9,6.9-16.5,16.6-16.5c6,0,9.7,2,12.6,5.3l-5.5,5.9c-2-2.1-4-3.5-7.2-3.5
			c-4.5,0-7.7,4-7.7,8.6v0.1c0,4.8,3.1,8.7,8,8.7c3,0,5.1-1.3,7.3-3.4l5.3,5.3c-3.1,3.4-6.6,5.8-12.9,5.8
			C119.9,54.1,112.9,46.8,112.9,37.8">
   </path>
   <path class="st3" d="M145.1,44.3v-0.1c0-6.9,5.3-10.1,12.8-10.1c3.2,0,5.5,0.5,7.7,1.3v-0.5c0-3.7-2.3-5.8-6.8-5.8
			c-3.4,0-5.8,0.7-8.7,1.7l-2.2-6.9c3.5-1.5,6.9-2.5,12.3-2.5c4.9,0,8.4,1.3,10.7,3.5c2.4,2.4,3.4,5.8,3.4,10.1v18.4h-8.7V50
			c-2.2,2.4-5.2,4-9.6,4C150,54,145.1,50.6,145.1,44.3 M165.7,42.3v-1.6c-1.5-0.7-3.5-1.2-5.7-1.2c-3.8,0-6.2,1.5-6.2,4.4V44
			c0,2.4,2,3.8,4.9,3.8C162.9,47.8,165.7,45.5,165.7,42.3">
   </path>
   <path class="st3" d="M179.6,21.8h9v4.5c2.1-2.7,4.7-5.1,9.3-5.1c6.8,0,10.8,4.5,10.8,11.8v20.5h-9V35.8c0-4.2-2-6.4-5.4-6.4
			c-3.4,0-5.6,2.2-5.6,6.4v17.7h-9V21.8z">
   </path>
   <path class="st4" d="M212.7,49.2l3.8-5.9c3.4,2.5,7,3.8,10,3.8c2.6,0,3.8-0.9,3.8-2.4v-0.1c0-1.9-3.1-2.6-6.6-3.7
			c-4.4-1.3-9.5-3.4-9.5-9.5v-0.1c0-6.4,5.2-10,11.6-10c4,0,8.4,1.4,11.8,3.7l-3.4,6.2c-3.1-1.8-6.3-3-8.6-3c-2.2,0-3.3,0.9-3.3,2.2
			v0.1c0,1.8,3,2.6,6.4,3.8c4.4,1.5,9.6,3.6,9.6,9.4v0.1c0,7-5.3,10.2-12.1,10.2C221.9,54,216.9,52.5,212.7,49.2">
   </path>
   <path class="st4" d="M241,37.8v-0.1c0-9.1,7.3-16.5,17.2-16.5c9.8,0,17.1,7.3,17.1,16.4v0.1c0,9.1-7.3,16.5-17.2,16.5
			C248.2,54.1,241,46.9,241,37.8 M266.4,37.8v-0.1c0-4.7-3.4-8.7-8.3-8.7c-5.1,0-8.2,4-8.2,8.6v0.1c0,4.7,3.4,8.7,8.3,8.7
			C263.3,46.4,266.4,42.4,266.4,37.8">
   </path>
   <path class="st4" d="M279.1,42.3V21.8h9v17.7c0,4.3,2,6.4,5.4,6.4s5.6-2.2,5.6-6.4V21.8h9v31.7h-9v-4.5c-2.1,2.7-4.7,5.1-9.3,5.1
			C283.1,54,279.1,49.5,279.1,42.3">
   </path>
   <path class="st4" d="M313.8,21.8h9v6.4c1.8-4.4,4.8-7.2,10.1-7v9.4h-0.5c-6,0-9.6,3.6-9.6,11.2v11.7h-9V21.8z">
   </path>
   <path class="st4" d="M334.9,37.8v-0.1c0-9,6.9-16.5,16.6-16.5c6,0,9.7,2,12.6,5.3l-5.5,5.9c-2-2.1-4-3.5-7.2-3.5
			c-4.5,0-7.7,4-7.7,8.6v0.1c0,4.8,3.1,8.7,8,8.7c3,0,5.1-1.3,7.3-3.4l5.3,5.3c-3.1,3.4-6.6,5.8-12.9,5.8
			C341.8,54.1,334.9,46.8,334.9,37.8">
   </path>
   <path class="st4" d="M365.4,37.8v-0.1c0-9,6.4-16.5,15.7-16.5c10.6,0,15.4,8.2,15.4,17.2c0,0.7-0.1,1.5-0.1,2.4h-22
			c0.9,4.1,3.7,6.2,7.7,6.2c3,0,5.2-0.9,7.7-3.2l5.1,4.5c-3,3.7-7.2,5.9-12.9,5.9C372.4,54.1,365.4,47.5,365.4,37.8 M387.7,35.1
			c-0.5-4-2.9-6.7-6.7-6.7c-3.7,0-6.1,2.7-6.8,6.7H387.7z">
   </path>
   <path class="st5" d="M393.4,21.1c0-2.3,1.8-4,3.9-4c2.1,0,3.9,1.7,3.9,4c0,2.3-1.8,4-3.9,4C395.2,25.2,393.4,23.5,393.4,21.1
			 M397.3,24.5c1.7,0,3.1-1.4,3.1-3.4c0-1.9-1.4-3.3-3.1-3.3c-1.8,0-3.1,1.4-3.1,3.3C394.1,23.1,395.5,24.5,397.3,24.5 M396.5,23.5
			h-0.7v-4.6h1.7c1,0,1.6,0.4,1.6,1.3c0,0.8-0.5,1.2-1.1,1.3l1.3,2h-0.8l-1.2-2h-0.8V23.5z M397.3,20.9c0.6,0,1.1,0,1.1-0.8
			c0-0.6-0.5-0.7-1-0.7h-0.9v1.4H397.3z">
   </path>
  </g>
 </g>
</svg>