<svg xmlns="http://www.w3.org/2000/svg" viewBox="0 0 623.91 154.08" xmlns:xlink="http://www.w3.org/1999/xlink">
 <defs>
  <style>
   .cls-1{fill:#231f20;}
  </style>
 </defs>
 <title>
  Asset 2
 </title>
 <g id="Layer_2" data-name="Layer 2">
  <g id="LOGO.V.2.0">
   <path class="cls-1" d="M16.45,112.46c-2.16-1.58-4.32-1.58-5.47.72l-1,2a4.85,4.85,0,0,1-4.32,3c-2.3,0-3.74-1.3-3.74-4.61,0-9.5-1-22.46-1.87-32-.29-3.17,1-4.75,3.17-5.18s4.18.29,5.9,3.74c8.93,18,16.56,30.1,33.26,30.1,11.81,0,19.44-7.06,19.44-16.56,0-10.08-8.93-15-18.86-18.72-10.37-3.89-15.7-5.9-19.87-8.06C16.74,63.65,1.34,55.29,1.34,35.28c0-21.74,17.57-34.7,40-34.7A45.18,45.18,0,0,1,62,5.18a3.93,3.93,0,0,0,4.9-1.44l1.44-1.87c1-1.3,1.87-1.87,3-1.87a3.48,3.48,0,0,1,3.6,3.6c1.15,9.36,2,17.42,3.17,26.93.29,2.45-.72,4.18-3,4.61a4.75,4.75,0,0,1-5.33-2.88C64.7,21.17,54.9,9.94,42.52,9.94,31.14,9.94,25.38,17,25.38,24.48c0,9.65,5.9,12.67,11.81,15.26,7.34,3.17,14.11,5.9,21.31,8.93C69.88,53.42,86,60,86,81.21S69.59,119.95,43.1,119.95C29.56,119.95,21.35,116.06,16.45,112.46Zm108.71,4.46c3,.14,4.18-1.58,4.18-3.31a3.37,3.37,0,0,0-2.45-3.6c-4.18-1.44-5.47-3-5.47-10.66V64.94c0-3,.14-4,2.45-6a14.77,14.77,0,0,1,10.08-3.6c7.78,0,8.64,7.92,8.78,15.55L143,96.48c.14,10.08-.72,11.09-4.9,13a3.79,3.79,0,0,0-2.45,3.46,4.09,4.09,0,0,0,4.32,4c4.61,0,6.34-.43,13-.43,10.66,0,16.85.14,20.45.43,2.16.14,3.89-1.3,3.89-3a3.17,3.17,0,0,0-2.88-3.46c-3.74-.72-4.9-3.46-4.9-7.63V71.13c0-8.64-1.73-17.14-8.78-22.75-5-4-10.37-5.47-16.85-5.47-6.77,0-13.54,3.17-19.58,7.78-2.45,1.87-3.89.72-4.46-1.58l-.72-3.31c-.43-1.73-2.16-2.74-4.61-1.87A178,178,0,0,1,88.3,50.54a2.94,2.94,0,0,0-2.88,3.17,3.4,3.4,0,0,0,3,3.46c3.74.86,6,3.46,6.34,11.66.14,5.18.29,15.26.29,21.17,0,5.62,0,11.81-.43,15.26s-3.46,4.32-5.9,4.9a3.38,3.38,0,0,0-2.88,3.31c0,1.73,1.44,3,3.6,3h11.23C113.21,116.49,120.7,116.78,125.16,116.92ZM225.82,70.41c0-3,0-6.34-.14-9.22-.14-4.18-2.45-9.94-9.94-9.94-4.75,0-8.06,2.16-8.93,8.06-.29,2-.29,4.18-.72,5.9-1.58,6.19-6.77,8.21-12.1,8.21S183.63,70,183.63,63.65c0-12.82,21.6-21.31,43.49-21.31,14.26,0,24.91,4.75,24.77,17.71l-.58,36.72c0,3.74-.14,9.5,3.46,9.5a4.74,4.74,0,0,0,2.88-.86,3.47,3.47,0,0,1,4.18.14c1.3,1.15,1.15,3.31-.29,5-6.34,7.63-12.82,8.78-18.43,8.78-4.75,0-9.94-1-13.39-4.18-1.3-1.15-1.58-1.58-3-3-1.15-1.15-2.3-2-4.18-.58-4.9,3.74-11.52,8.06-23,8.06-12.53,0-20.3-7.78-20.3-17.28,0-7.06,3.89-14.11,11.52-18.43,9.65-5.47,20.3-8.5,31.1-10.08C224.67,73.44,225.82,72.14,225.82,70.41Zm-2.74,33c1.15-.86,2.3-1.73,2.3-3.89V86c0-3.17-2.88-4.18-5.18-3.46C213.15,84.67,207,88,207,95.47c0,6.34,2.59,10.08,8.5,10.08C219.48,105.55,221.35,104.69,223.08,103.39Zm194.48,5.9c-5.33-1-5.76-7.63-5.9-23.33l-.43-49.82c-.14-21.31-.14-24.48,9.79-25.2a3.61,3.61,0,0,0,3-3.74,3.32,3.32,0,0,0-3.46-3.46H373.5c-2.3,0-4.18,1.15-4.18,3.46a3.89,3.89,0,0,0,2.88,3.89c5.47.86,7.2,1.44,8.5,4.46,1,2.3,1.73,7.06,1.73,18.14v51c0,20.59-.86,23-9.5,24.77a4.1,4.1,0,0,0-3.6,3.74,3.75,3.75,0,0,0,4.18,3.74c5.18-.29,9.36-.43,18.86-.43,16,0,19,0,24.77.29,2.59.14,4.18-1.44,4.18-3.74C421.3,111.31,420.58,109.87,417.56,109.29ZM457,45.79c-.43-1.73-2.16-2.74-4.61-1.87-5.62,2-18.43,5.9-26.21,6.62-2.88.29-3.74,1.44-3.74,3.17s1,3,3.89,3.46c3.74.58,6,3.46,6.34,11.66C432.82,74,433,84.09,433,90c0,5.62,0,11.81-.43,15.26s-2,4.18-4,4.9a3.23,3.23,0,0,0-2.59,3.31c0,1.73,1.15,3,3.31,3h9.36c12.82,0,20.3.29,23.9.43,3.89.14,5-1.58,5-3.31a3.37,3.37,0,0,0-2.45-3.6c-4.18-1.44-5.47-3-5.47-10.66V66.09c0-3,.14-4,2.45-6a14.77,14.77,0,0,1,10.08-3.6c8.5,0,8.35,7.92,8.5,15.55l.29,24.48c.14,10.08-.72,11.09-4.9,13a3.79,3.79,0,0,0-2.45,3.46,4.08,4.08,0,0,0,4.32,4c4.61,0,6.34-.43,13-.43,10.66,0,17.42.29,21,.43s4.75-1.87,4.75-3.6-.86-3.17-3.74-3.74c-3.74-.72-5.47-3.46-5.47-7.63V71.13c0-8.64-1.73-17.14-8.78-22.75-5-4-10.37-5.47-16.85-5.47-6.77,0-13,3-19,7.63-2.45,1.87-4.46.86-5-1.44Zm99.79,73.58c10.51,0,23.76-3.17,33.12-14.11a3.92,3.92,0,0,0-.72-5.9,4.39,4.39,0,0,0-6,.72c-4.32,4.61-8.64,7.2-14.54,7.2-11.23,0-20.59-13.1-20.59-31.39,0-8.21,2.3-24,12.38-24,4.46,0,6.48,2.59,7.2,5,.86,3,.72,6.77,2.45,10.8,1.87,4.46,5.76,6.48,11.38,6.48,6.19,0,10.22-5.18,10.22-11.66,0-12-15.41-18.86-31.25-18.86-23.47,0-43.49,14.69-43.49,38.16C516.92,103.53,533.91,119.37,556.81,119.37Zm52.85-1.15c7.49,0,14.26-5.76,14.26-13.82A14.51,14.51,0,0,0,609.65,90c-7.06,0-14.54,4.61-14.54,14.4C595.11,111.89,600.87,118.22,609.65,118.22ZM258.71,150.91c0-1.73,1-3,4.32-3.31,5.47-.43,6.62-4.61,6.77-8.78.14-3.6,0-13,0-16.42V70c0-11.66-2-14.26-6.77-16.27-1.73-.72-2.88-1.73-2.88-3.6s.72-3.46,3.89-3.74c9.5-.86,21.6-4,26.78-5.33a3.25,3.25,0,0,1,3.89,2.59c.14.72.43,2.45,1,4.75s1.87,3.31,4.32,1.3a30.69,30.69,0,0,1,20.3-7.34c18.72,0,30.38,17.28,30.38,35.14,0,24.48-17.14,40.18-35.57,40.18-6.48,0-11.09-1.3-14.25-2.88-2.3-1.15-4.61,0-4.61,3.17v17.86c0,7.2.86,12.1,6.62,12.38,2.59.14,3.6,1.3,3.6,3s-1.73,2.88-4,2.88c-11.23,0-18.86-.58-23.62-.58-6.48,0-10.08.58-15.26.58C260.58,154.08,258.71,153.36,258.71,150.91ZM322.5,80.49c0-14.69-5.18-24.48-15.84-24.48-10.37,0-10.37,10.51-10.37,14.11V93.6c0,5.18,0,14.11,11.09,14.11C317.75,107.71,322.5,93.89,322.5,80.49Z">
   </path>
  </g>
 </g>
</svg>