<svg version="1.1" id="Layer_1" xmlns:x="ns_extend;" xmlns:i="ns_ai;" xmlns:graph="ns_graphs;" xmlns="http://www.w3.org/2000/svg" xmlns:xlink="http://www.w3.org/1999/xlink" x="0px" y="0px" viewBox="0 0 157.5 85.2" style="enable-background:new 0 0 157.5 85.2;" xml:space="preserve">
 <style type="text/css">
  .st0{fill:#0A85C7;}
 </style>
 <metadata>
  <sfw xmlns="ns_sfw;">
   <slices>
   </slices>
   <sliceSourceBounds bottomLeftOrigin="true" height="85.2" width="157.5" x="0.1" y="0.7">
   </sliceSourceBounds>
  </sfw>
 </metadata>
 <g id="Page-1">
  <g id="ss_x26_c_x5F_alps_x5F_horizontal_x5F_rgb">
   <path id="Path" class="st0" d="M57.5,47.4c-5.9-2-11.1-3.4-11.1-6.9c0-3.2,2.9-5,7.2-5c3.2-0.1,6.1,1.5,7.9,4.1h10
			c-2.2-7.1-8.9-12.2-17.5-12.2c-9.8,0-17,6.2-17,13.5c0,8.1,6.8,10.9,12.4,12.9c6.6,2.4,13.2,3.9,13.2,8.3c0,3-2.9,5.4-7.5,5.4
			c-3.7,0.1-7.3-1.7-9.3-4.9H35.4C38.1,70.8,44.7,76,54.2,76c10.6,0,17.9-5.9,17.9-14.3C72.1,52.6,64.2,49.8,57.5,47.4z">
   </path>
   <path id="Path_1_" class="st0" d="M22.1,47.4C16.2,45.4,11,44,11,40.6c0-3.2,2.9-5,7.2-5c3.2-0.1,6.1,1.5,7.9,4.1h10
			c-2.1-7.1-8.9-12.2-17.5-12.2c-9.9,0-17,6.2-17,13.5c0,8.1,6.8,10.9,12.4,12.9c6.6,2.4,13.2,3.9,13.2,8.3c0,3-2.9,5.4-7.5,5.4
			c-3.7,0.1-7.3-1.7-9.3-4.9H0C2.7,70.8,9.3,76,18.8,76c10.7,0,17.8-5.9,17.8-14.3C36.7,52.6,28.9,49.8,22.1,47.4z">
   </path>
   <path id="Path_2_" class="st0" d="M146.1,62.7c-2.8,2.6-6.5,4-10.3,4c-8.3,0-14.5-5.9-14.5-15c0-8.9,5.8-15.1,14.5-15.1
			c3.3,0,6.5,1.1,9.1,3h12c-5.5-9.6-16.9-14.2-27.6-11.2c-10.7,3-17.9,12.9-17.6,24s8.1,20.5,18.9,23s21.9-2.8,26.9-12.7L146.1,62.7
			z">
   </path>
   <path id="Path_3_" class="st0" d="M83.9,60c0,2.7,2.2,4.6,5.2,4.6c2.2-0.1,4.3-1.1,5.9-2.7l0,0l-7-7C85.1,56.1,83.9,58,83.9,60z">
   </path>
   <path id="Path_4_" class="st0" d="M94.8,44.9c0.1-1-0.3-1.9-1-2.6c-0.7-0.7-1.6-1-2.6-1c-1,0-2,0.3-2.7,1.1
			c-0.7,0.7-1.1,1.7-1,2.7c0,1.6,0.6,2.8,2.3,4.7C93.1,48.6,94.8,47.2,94.8,44.9z">
   </path>
   <path id="Shape" class="st0" d="M72,0v85.2h40.1V0H72z M103.3,70.2L98.1,65l0,0c-2.5,2.5-6,4-9.5,4c-5.8,0-10.1-3.5-10.1-8.9
			c0-4,2.3-6.9,6.6-8.7c-1.8-2.3-2.6-4.2-2.6-6.5c0-4.2,3.4-7.8,8.9-7.8c4.9,0,8.2,3.3,8.2,7.5s-2.7,6.6-6.8,8.1l2,2.2h8.5V70.2z">
   </path>
  </g>
 </g>
</svg>