<?xml version="1.0" encoding="UTF-8" standalone="no"?>
<!-- Created with Inkscape (http://www.inkscape.org/) -->

<svg
   xmlns:dc="http://purl.org/dc/elements/1.1/"
   xmlns:cc="http://creativecommons.org/ns#"
   xmlns:rdf="http://www.w3.org/1999/02/22-rdf-syntax-ns#"
   xmlns:svg="http://www.w3.org/2000/svg"
   xmlns="http://www.w3.org/2000/svg"
   xmlns:sodipodi="http://sodipodi.sourceforge.net/DTD/sodipodi-0.dtd"
   xmlns:inkscape="http://www.inkscape.org/namespaces/inkscape"
   width="101.25616mm"
   height="21.166668mm"
   viewBox="0 0 101.25616 21.166668"
   version="1.1"
   id="svg8"
   sodipodi:docname="tucows logo.svg"
   inkscape:version="0.92.4 (5da689c313, 2019-01-14)">
  <defs
     id="defs2" />
  <sodipodi:namedview
     id="base"
     pagecolor="#ffffff"
     bordercolor="#666666"
     borderopacity="1.0"
     inkscape:pageopacity="0.0"
     inkscape:pageshadow="2"
     inkscape:zoom="1.979899"
     inkscape:cx="184.45756"
     inkscape:cy="38.163494"
     inkscape:document-units="mm"
     inkscape:current-layer="layer1"
     showgrid="false"
     inkscape:window-width="1920"
     inkscape:window-height="1017"
     inkscape:window-x="-8"
     inkscape:window-y="176"
     inkscape:window-maximized="1" />
  <metadata
     id="metadata5">
    <rdf:RDF>
      <cc:Work
         rdf:about="">
        <dc:format>image/svg+xml</dc:format>
        <dc:type
           rdf:resource="http://purl.org/dc/dcmitype/StillImage" />
        <dc:title></dc:title>
      </cc:Work>
    </rdf:RDF>
  </metadata>
  <g
     inkscape:label="Layer 1"
     inkscape:groupmode="layer"
     id="layer1"
     transform="translate(-77.447454,-83.585543)">
    <path
       id="path4545"
       d="m 86.568021,88.059779 h -4.130072 v -4.474236 h -4.990495 v 11.570686 c 0,2.656701 0.349989,3.993077 1.007201,5.221901 0.657208,1.2289 1.62163,2.19335 2.850505,2.85051 1.228875,0.65724 2.565249,1.00721 5.221926,1.00721 h 0.04095 v -4.990486 h -0.04095 c -1.715221,0 -2.323255,-0.125836 -2.868412,-0.417398 -0.359189,-0.19218 -0.611236,-0.444098 -0.803337,-0.803351 -0.291556,-0.545106 -0.417388,-1.153164 -0.417388,-2.868386 v -2.105905 h 4.130072 z M 94.35952,95.5011 V 88.059868 H 89.369004 V 95.5011 c 0,2.656885 0.349986,3.993057 1.007073,5.22174 0.328577,0.61439 0.733967,1.16266 1.210669,1.63955 1.478495,1.47848 3.416262,2.21774 5.354032,2.21774 1.937837,0 3.875602,-0.73926 5.354102,-2.21774 0.4767,-0.47689 0.88209,-1.02516 1.21067,-1.63955 0.65708,-1.228683 1.00707,-2.564855 1.00707,-5.22174 V 88.059868 H 99.5221 V 95.5011 c 0,1.715355 -0.125772,2.323171 -0.417249,2.868224 -0.0985,0.183974 -0.210898,0.336347 -0.339572,0.46501 -0.493048,0.49304 -1.139717,0.755308 -1.824501,0.755308 -0.684718,0 -1.331384,-0.262153 -1.82523,-0.756046 C 94.987675,98.705735 94.875211,98.553402 94.776772,98.369324 94.485296,97.824271 94.35952,97.216455 94.35952,95.5011 Z m 27.35859,-4.428047 -3.98582,3.00349 c -0.62825,-0.832324 -1.62569,-1.370296 -2.74884,-1.370296 -1.90081,0 -3.44173,1.540927 -3.44173,3.441731 0,1.900799 1.54092,3.441741 3.44173,3.441741 1.12315,0 2.12059,-0.538063 2.74884,-1.370379 l 3.98582,3.00356 c -1.53911,2.03917 -3.98293,3.35723 -6.73466,3.35723 -4.65702,0 -8.43225,-3.77519 -8.43225,-8.432152 0,-4.657021 3.77523,-8.432249 8.43225,-8.432249 2.75173,0 5.19555,1.318077 6.73466,3.357324 z m 1.04859,5.074925 c 0,4.656962 3.77524,8.432152 8.43217,8.432152 4.65701,0 8.43224,-3.77519 8.43224,-8.432152 0,-4.657021 -3.77523,-8.432249 -8.43224,-8.432249 -4.65693,0 -8.43217,3.775228 -8.43217,8.432249 z m 11.87387,0 c 0,1.900799 -1.54089,3.441741 -3.4417,3.441741 -1.90082,0 -3.44173,-1.540942 -3.44173,-3.441741 0,-1.900804 1.54091,-3.441731 3.44173,-3.441731 1.90081,0 3.4417,1.540927 3.4417,3.441731 z m 19.63337,3.613772 6.756,-11.70186 h 5.76225 l -9.63677,16.69232 z m -9.12071,0 6.75635,-11.70186 h 5.76225 l -9.63735,16.69232 z m -1.09169,-4.990493 c -1.90082,0 -3.44173,-1.540925 -3.44173,-3.441732 0,-1.90081 1.54091,-3.441726 3.44173,-3.441726 1.90079,0 3.44171,1.540916 3.44171,3.441726 0,1.900807 -1.54092,3.441732 -3.44171,3.441732 z m 32.89034,0.874642 c -0.7985,-0.692473 -1.80599,-1.174216 -3.6315,-1.630453 -0.15482,-0.03881 -0.31102,-0.07462 -0.46436,-0.10989 -0.91347,-0.210487 -1.73148,-0.398885 -1.73148,-1.047431 0,-0.467528 0.66756,-0.828143 1.48196,-0.828143 1.08926,0 2.30648,0.466872 4.03435,1.741409 l 2.01573,-3.479346 c -1.95497,-1.557827 -3.49116,-2.576273 -6.05008,-2.576273 -3.26696,0 -5.83166,2.310053 -5.83166,5.179311 0,1.400941 0.54102,2.632669 1.65409,3.597264 0.79847,0.692532 1.73222,1.145824 3.53894,1.639942 0.0909,0.02453 0.18289,0.0494 0.27409,0.0741 1.00462,0.268708 2.01722,0.539758 2.01722,1.232874 0,0.578437 -0.65386,0.823347 -1.46897,0.823347 -1.24763,0 -2.65222,-0.731644 -4.39528,-1.972688 l -2.05404,3.553088 c 2.20885,1.90813 3.70673,2.73727 6.26561,2.73727 3.2677,0 6.09711,-2.31003 6.09711,-5.1792 0,-1.401052 -0.63936,-2.790516 -1.75173,-3.755031 z"
       inkscape:connector-curvature="0"
       style="clip-rule:evenodd;fill:#00096e;fill-opacity:1;fill-rule:evenodd;stroke-width:0.72326326" />
  </g>
</svg>
