<svg version="1.1" id="Layer_1" xmlns:x="ns_extend;" xmlns:i="ns_ai;" xmlns:graph="ns_graphs;" xmlns="http://www.w3.org/2000/svg" xmlns:xlink="http://www.w3.org/1999/xlink" x="0px" y="0px" viewBox="0 0 671.2 156" style="enable-background:new 0 0 671.2 156;" xml:space="preserve">
 <style type="text/css">
  .st0{fill:#231F20;}
	.st1{fill:#1777BF;}
 </style>
 <metadata>
  <sfw xmlns="ns_sfw;">
   <slices>
   </slices>
   <sliceSourceBounds bottomLeftOrigin="true" height="156" width="671.2" x="-194.8" y="-600.2">
   </sliceSourceBounds>
  </sfw>
 </metadata>
 <g>
  <polyline class="st0" points="263.7,0 263.7,7.2 253.5,7.2 253.5,43.5 244.4,43.5 244.4,7.2 234.3,7.2 234.3,0 	">
  </polyline>
  <polyline class="st0" points="267.9,43.5 267.9,0 291.6,0 291.6,6.7 277,6.7 277,17.4 290.5,17.4 290.5,24.1 277,24.1 277,36.8 
		292.1,36.8 292.1,43.5 	">
  </polyline>
  <polyline class="st0" points="298.1,43.5 298.1,0 307.2,0 307.2,36.3 320.8,36.3 320.8,43.5 	">
  </polyline>
  <polyline class="st0" points="324.8,43.5 324.8,0 348.5,0 348.5,6.7 333.9,6.7 333.9,17.4 347.4,17.4 347.4,24.1 333.9,24.1 
		333.9,36.8 349,36.8 349,43.5 	">
  </polyline>
  <path class="st0" d="M355.1,0h15.2c11.9,0,14.2,8,14.2,21.5c0,6.7,1,22-14.5,22h-14.8 M364.2,36.8h4.4c5.5,0,6.6-4.2,6.6-15.1
		c0-8,0-15.1-6.3-15.1h-4.7V36.8z">
  </path>
  <polyline class="st0" points="399.8,28.5 388.4,0 398.3,0 404.9,18.4 411.8,0 421.1,0 408.9,28.5 408.9,43.5 399.8,43.5 	">
  </polyline>
  <polyline class="st0" points="425.4,43.5 425.4,0 437.6,0 449.2,30.1 449.3,30.1 449.3,0 457.8,0 457.8,43.5 445.8,43.5 434,11.7 
		433.9,11.7 433.9,43.5 	">
  </polyline>
  <polyline class="st0" points="465.5,43.5 465.5,0 489.3,0 489.3,6.7 474.6,6.7 474.6,17.4 488.1,17.4 488.1,24.1 474.6,24.1 
		474.6,36.8 489.7,36.8 489.7,43.5 	">
  </polyline>
  <polyline class="st0" points="263.7,54.8 263.7,62 253.5,62 253.5,98.3 244.4,98.3 244.4,62 234.3,62 234.3,54.8 	">
  </polyline>
  <polyline class="st0" points="267.3,98.3 267.3,54.8 291,54.8 291,61.5 276.4,61.5 276.4,72.2 289.9,72.2 289.9,78.9 276.4,78.9 
		276.4,91.6 291.5,91.6 291.5,98.3 	">
  </polyline>
  <path class="st0" d="M296.4,76.6c0-11.5,0-22.5,15-22.5c9.3,0,13,5.1,12.7,14.5h-8.9c0-5.8-1-8-3.7-8c-5.1,0-5.8,4.8-5.8,16
		c0,11.2,0.7,16,5.8,16c4.2,0,4-5.4,4.2-8.9h9c0,11.6-4.6,15.4-13.1,15.4C296.4,99.1,296.4,88,296.4,76.6">
  </path>
  <polyline class="st0" points="349.6,72.2 349.6,54.8 358.7,54.8 358.7,98.3 349.6,98.3 349.6,78.9 339.1,78.9 339.1,98.3 330,98.3 
		330,54.8 339.1,54.8 339.1,72.2 	">
  </polyline>
  <polyline class="st0" points="366,98.3 366,54.8 378.3,54.8 389.9,84.9 390,84.9 390,54.8 398.5,54.8 398.5,98.3 386.5,98.3 
		374.6,66.5 374.5,66.5 374.5,98.3 	">
  </polyline>
  <path class="st0" d="M405.1,76.6c0-11.5,0-22.5,15-22.5c15,0,15,11,15,22.5c0,11.4,0,22.5-15,22.5C405.1,99.1,405.1,88,405.1,76.6
		 M425.9,76.6c0-11.2-0.7-16-5.8-16c-5.1,0-5.8,4.8-5.8,16c0,11.2,0.7,16,5.8,16C425.3,92.5,425.9,87.7,425.9,76.6">
  </path>
  <polyline class="st0" points="441.8,98.3 441.8,54.8 450.9,54.8 450.9,91.1 464.6,91.1 464.6,98.3 	">
  </polyline>
  <path class="st0" d="M467.5,76.6c0-11.5,0-22.5,15-22.5c15,0,15,11,15,22.5c0,11.4,0,22.5-15,22.5C467.5,99.1,467.5,88,467.5,76.6
		 M488.3,76.6c0-11.2-0.7-16-5.8-16c-5.1,0-5.8,4.8-5.8,16c0,11.2,0.7,16,5.8,16C487.6,92.5,488.3,87.7,488.3,76.6">
  </path>
  <path class="st0" d="M524.1,68.2c0.1-4-0.6-7.6-5.4-7.6c-5.7,0-5.7,7.7-5.7,16.1c0,13.6,1.3,16,6.5,16c1.5,0,3.1-0.4,4.5-0.8v-9.6
		H519v-6.7h14v22.1c-2.5,0.5-8.7,1.4-12.3,1.4c-15.3,0-17.1-6.3-17.1-22.8c0-11,0.5-22.1,15.4-22.1c8.9,0,14.5,5,13.9,14.1">
  </path>
  <rect x="540.4" y="54.8" class="st0" width="9.1" height="43.5">
  </rect>
  <polyline class="st0" points="556.5,98.3 556.5,54.8 580.3,54.8 580.3,61.5 565.6,61.5 565.6,72.2 579.1,72.2 579.1,78.9 
		565.6,78.9 565.6,91.6 580.8,91.6 580.8,98.3 	">
  </polyline>
  <path class="st0" d="M597.9,99.1c-11.3,0-13.4-6.6-12.9-14.2h9.1c0,4.2,0.2,7.7,5.2,7.7c3.1,0,4.6-2,4.6-4.9
		c0-7.8-18.3-8.3-18.3-21.3c0-6.8,3.3-12.2,14.3-12.2c8.9,0,13.3,4,12.7,13.1h-8.9c0-3.3-0.5-6.6-4.2-6.6c-3,0-4.7,1.6-4.7,4.6
		c0,8.3,18.3,7.5,18.3,21.2C613.1,97.7,604.8,99.1,597.9,99.1">
  </path>
  <polyline class="st1" points="268.9,110.2 268.9,113.1 247.8,113.1 247.8,126 267.6,126 267.6,128.9 247.8,128.9 247.8,142.9 
		269.2,142.9 269.2,145.8 244.4,145.8 244.4,110.2 	">
  </polyline>
  <polyline class="st1" points="273.9,120.1 281.9,142.7 282,142.7 290,120.1 293.2,120.1 283.6,145.8 280.3,145.8 270.4,120.1 	">
  </polyline>
  <path class="st1" d="M298.6,137.3c0.3,1.2,0.8,2.3,1.5,3.3c0.7,1,1.6,1.8,2.6,2.4c1.1,0.6,2.3,0.9,3.8,0.9c2.3,0,4.1-0.6,5.4-1.8
		c1.3-1.2,2.2-2.8,2.7-4.8h3.1c-0.7,2.9-1.9,5.2-3.7,6.8c-1.8,1.6-4.3,2.4-7.5,2.4c-2,0-3.8-0.4-5.3-1.1c-1.5-0.7-2.7-1.7-3.6-2.9
		c-0.9-1.2-1.6-2.7-2.1-4.3c-0.4-1.6-0.7-3.4-0.7-5.2c0-1.7,0.2-3.4,0.7-5c0.4-1.6,1.1-3.1,2.1-4.4c0.9-1.3,2.1-2.3,3.6-3.1
		c1.5-0.8,3.2-1.2,5.3-1.2c2.1,0,3.8,0.4,5.3,1.2c1.5,0.8,2.6,1.9,3.6,3.3c0.9,1.3,1.6,2.9,2,4.6c0.4,1.7,0.6,3.5,0.5,5.3h-19.8
		C298.1,134.9,298.3,136.1,298.6,137.3 M314.1,127.7c-0.4-1.1-0.9-2.1-1.6-2.9c-0.7-0.8-1.5-1.5-2.5-2c-1-0.5-2.1-0.8-3.4-0.8
		c-1.3,0-2.4,0.3-3.4,0.8c-1,0.5-1.8,1.2-2.5,2c-0.7,0.8-1.3,1.8-1.7,2.9c-0.4,1.1-0.7,2.2-0.8,3.4h16.6
		C314.7,130,314.5,128.8,314.1,127.7">
  </path>
  <path class="st1" d="M324.9,120.1v6h0.1c0.8-2.1,2-3.7,3.7-4.8c1.7-1.1,3.7-1.6,6-1.5v3.1c-1.4-0.1-2.7,0.1-3.9,0.6
		c-1.2,0.4-2.2,1.1-3,1.9c-0.8,0.8-1.5,1.8-2,3c-0.5,1.1-0.7,2.4-0.7,3.8v13.7H322v-25.7">
  </path>
  <path class="st1" d="M338.1,120.1l8.5,21.9l7.9-21.9h3.1l-11.2,29.6c-0.5,1.1-0.9,2-1.3,2.7c-0.4,0.7-0.8,1.3-1.3,1.7
		c-0.5,0.4-1,0.7-1.7,0.9c-0.6,0.2-1.5,0.3-2.5,0.3c-0.6,0-1.1-0.1-1.5-0.1c-0.3,0-0.7-0.1-0.9-0.2v-2.6c0.4,0.1,0.7,0.1,1.1,0.2
		c0.4,0.1,0.7,0.1,1.1,0.1c0.7,0,1.3-0.1,1.7-0.3c0.5-0.2,0.8-0.5,1.2-0.8c0.3-0.3,0.6-0.8,0.8-1.3c0.2-0.5,0.5-1,0.7-1.6l1.1-2.9
		l-10.3-25.6">
  </path>
  <polyline class="st1" points="361.4,120.1 368,142.1 368.1,142.1 374.4,120.1 377.9,120.1 384.2,142.1 384.3,142.1 390.8,120.1 
		394.2,120.1 385.9,145.8 382.5,145.8 376.2,124.2 376.1,124.2 369.8,145.8 366.4,145.8 358.1,120.1 	">
  </polyline>
  <path class="st1" d="M400.6,110.2v14.3h0.1c0.6-1.6,1.7-2.8,3.2-3.8c1.5-0.9,3.2-1.4,5-1.4c1.8,0,3.3,0.2,4.5,0.7
		c1.2,0.5,2.2,1.1,2.9,2c0.7,0.8,1.2,1.9,1.5,3.1c0.3,1.2,0.5,2.6,0.5,4.1v16.5h-3.1v-16c0-1.1-0.1-2.1-0.3-3.1
		c-0.2-0.9-0.5-1.8-1-2.5c-0.5-0.7-1.2-1.2-2-1.6c-0.8-0.4-1.9-0.6-3.2-0.6c-1.3,0-2.4,0.2-3.4,0.7c-1,0.4-1.8,1.1-2.5,1.8
		c-0.7,0.8-1.2,1.7-1.6,2.8c-0.4,1.1-0.6,2.2-0.6,3.5v15h-3.1v-35.5">
  </path>
  <path class="st1" d="M426.5,137.3c0.3,1.2,0.8,2.3,1.5,3.3c0.7,1,1.6,1.8,2.6,2.4c1.1,0.6,2.3,0.9,3.8,0.9c2.3,0,4.1-0.6,5.4-1.8
		c1.3-1.2,2.2-2.8,2.7-4.8h3.1c-0.7,2.9-1.9,5.2-3.7,6.8c-1.8,1.6-4.3,2.4-7.5,2.4c-2,0-3.8-0.4-5.3-1.1c-1.5-0.7-2.7-1.7-3.6-2.9
		c-0.9-1.2-1.6-2.7-2.1-4.3c-0.4-1.6-0.7-3.4-0.7-5.2c0-1.7,0.2-3.4,0.7-5c0.4-1.6,1.1-3.1,2.1-4.4c0.9-1.3,2.1-2.3,3.6-3.1
		c1.5-0.8,3.2-1.2,5.3-1.2c2.1,0,3.8,0.4,5.3,1.2c1.5,0.8,2.6,1.9,3.6,3.3c0.9,1.3,1.6,2.9,2,4.6c0.4,1.7,0.6,3.5,0.5,5.3H426
		C426,134.9,426.2,136.1,426.5,137.3 M442,127.7c-0.4-1.1-0.9-2.1-1.6-2.9c-0.7-0.8-1.5-1.5-2.5-2c-1-0.5-2.1-0.8-3.4-0.8
		c-1.3,0-2.4,0.3-3.4,0.8c-1,0.5-1.8,1.2-2.5,2c-0.7,0.8-1.3,1.8-1.7,2.9c-0.4,1.1-0.7,2.2-0.8,3.4h16.6
		C442.6,130,442.4,128.8,442,127.7">
  </path>
  <path class="st1" d="M452.9,120.1v6h0.1c0.8-2.1,2-3.7,3.7-4.8c1.7-1.1,3.7-1.6,6-1.5v3.1c-1.4-0.1-2.7,0.1-3.9,0.6
		c-1.2,0.4-2.2,1.1-3,1.9c-0.8,0.8-1.5,1.8-2,3c-0.5,1.1-0.7,2.4-0.7,3.8v13.7H450v-25.7">
  </path>
  <path class="st1" d="M467,137.3c0.3,1.2,0.8,2.3,1.5,3.3c0.7,1,1.6,1.8,2.6,2.4c1.1,0.6,2.3,0.9,3.8,0.9c2.3,0,4.1-0.6,5.4-1.8
		c1.3-1.2,2.2-2.8,2.7-4.8h3.1c-0.7,2.9-1.9,5.2-3.7,6.8c-1.8,1.6-4.3,2.4-7.5,2.4c-2,0-3.8-0.4-5.3-1.1c-1.5-0.7-2.7-1.7-3.6-2.9
		c-0.9-1.2-1.6-2.7-2.1-4.3c-0.5-1.6-0.7-3.4-0.7-5.2c0-1.7,0.2-3.4,0.7-5c0.4-1.6,1.1-3.1,2.1-4.4c0.9-1.3,2.1-2.3,3.6-3.1
		c1.5-0.8,3.2-1.2,5.3-1.2c2.1,0,3.8,0.4,5.3,1.2c1.5,0.8,2.6,1.9,3.6,3.3c0.9,1.3,1.6,2.9,2,4.6c0.4,1.7,0.6,3.5,0.5,5.3h-19.8
		C466.6,134.9,466.7,136.1,467,137.3 M482.6,127.7c-0.4-1.1-0.9-2.1-1.6-2.9c-0.7-0.8-1.5-1.5-2.5-2c-1-0.5-2.1-0.8-3.4-0.8
		c-1.3,0-2.4,0.3-3.4,0.8c-1,0.5-1.8,1.2-2.5,2c-0.7,0.8-1.3,1.8-1.7,2.9c-0.4,1.1-0.7,2.2-0.8,3.4h16.6
		C483.2,130,483,128.8,482.6,127.7">
  </path>
  <path class="st1" d="M487.7,120.1h6.2l6.7,19.2h0.1l6.5-19.2h5.9l-10.1,27.1c-0.5,1.2-0.9,2.3-1.4,3.3c-0.4,1.1-1,2-1.6,2.8
		c-0.6,0.8-1.4,1.5-2.4,1.9c-1,0.5-2.2,0.7-3.7,0.7c-1.3,0-2.6-0.1-3.9-0.3v-4.8c0.5,0.1,0.9,0.1,1.3,0.2c0.4,0.1,0.9,0.1,1.3,0.1
		c0.7,0,1.2-0.1,1.6-0.2c0.4-0.2,0.8-0.4,1.1-0.7c0.3-0.3,0.5-0.7,0.7-1.1c0.2-0.4,0.4-0.9,0.5-1.5l0.6-2">
  </path>
  <path class="st1" d="M528.1,146.5c-2.1,0-3.9-0.3-5.5-1c-1.6-0.7-3-1.6-4.1-2.8c-1.1-1.2-2-2.6-2.5-4.3c-0.6-1.7-0.9-3.5-0.9-5.5
		c0-2,0.3-3.8,0.9-5.4c0.6-1.7,1.4-3.1,2.5-4.3c1.1-1.2,2.5-2.1,4.1-2.8c1.6-0.7,3.4-1,5.5-1c2.1,0,3.9,0.3,5.5,1
		c1.6,0.7,3,1.6,4.1,2.8c1.1,1.2,2,2.6,2.5,4.3c0.6,1.7,0.9,3.5,0.9,5.4c0,2-0.3,3.8-0.9,5.5c-0.6,1.7-1.4,3.1-2.5,4.3
		c-1.1,1.2-2.5,2.1-4.1,2.8C532,146.1,530.2,146.5,528.1,146.5 M528.1,142c1.3,0,2.4-0.3,3.3-0.8c0.9-0.5,1.7-1.2,2.3-2.1
		c0.6-0.9,1-1.8,1.3-2.9c0.3-1.1,0.4-2.2,0.4-3.3c0-1.1-0.1-2.2-0.4-3.3c-0.3-1.1-0.7-2.1-1.3-2.9c-0.6-0.8-1.4-1.5-2.3-2.1
		c-0.9-0.5-2-0.8-3.3-0.8c-1.3,0-2.4,0.3-3.3,0.8s-1.7,1.2-2.3,2.1c-0.6,0.8-1,1.8-1.3,2.9c-0.3,1.1-0.4,2.2-0.4,3.3
		c0,1.1,0.1,2.2,0.4,3.3c0.3,1.1,0.7,2,1.3,2.9c0.6,0.9,1.4,1.6,2.3,2.1C525.7,141.7,526.8,142,528.1,142">
  </path>
  <path class="st1" d="M568.4,145.8h-5.6v-3.6h-0.1c-0.7,1.3-1.7,2.3-3.1,3.1c-1.4,0.8-2.8,1.2-4.2,1.2c-3.4,0-5.8-0.8-7.3-2.5
		c-1.5-1.7-2.3-4.2-2.3-7.6v-16.3h5.7v15.8c0,2.3,0.4,3.9,1.3,4.8c0.9,0.9,2.1,1.4,3.6,1.4c1.2,0,2.2-0.2,3-0.5
		c0.8-0.4,1.4-0.9,1.9-1.5c0.5-0.6,0.9-1.4,1.1-2.2c0.2-0.9,0.3-1.8,0.3-2.8v-14.9h5.7">
  </path>
  <rect x="574.3" y="110.2" class="st1" width="3.1" height="35.5">
  </rect>
  <path class="st1" d="M599.5,120.5c1.5,0.7,2.8,1.7,3.8,2.9c1,1.2,1.8,2.7,2.3,4.3c0.5,1.6,0.8,3.4,0.8,5.3c0,1.9-0.3,3.6-0.8,5.3
		c-0.5,1.6-1.3,3.1-2.3,4.3c-1,1.2-2.3,2.2-3.8,2.9c-1.5,0.7-3.2,1.1-5.2,1.1c-2,0-3.7-0.4-5.2-1.1c-1.5-0.7-2.8-1.7-3.8-2.9
		c-1-1.2-1.8-2.7-2.3-4.3c-0.5-1.6-0.8-3.4-0.8-5.3c0-1.9,0.3-3.6,0.8-5.3c0.5-1.6,1.3-3.1,2.3-4.3c1-1.2,2.3-2.2,3.8-2.9
		c1.5-0.7,3.2-1.1,5.2-1.1C596.3,119.4,598,119.7,599.5,120.5 M590.4,122.9c-1.1,0.6-2.1,1.5-2.8,2.5c-0.7,1-1.3,2.2-1.7,3.5
		c-0.4,1.3-0.6,2.6-0.6,4c0,1.4,0.2,2.7,0.6,4c0.4,1.3,0.9,2.5,1.7,3.5c0.7,1,1.7,1.9,2.8,2.5c1.1,0.6,2.4,0.9,3.9,0.9
		c1.5,0,2.8-0.3,3.9-0.9c1.1-0.6,2.1-1.5,2.8-2.5c0.7-1,1.3-2.2,1.7-3.5c0.4-1.3,0.6-2.6,0.6-4c0-1.4-0.2-2.7-0.6-4
		c-0.4-1.3-1-2.5-1.7-3.5c-0.7-1-1.7-1.9-2.8-2.5c-1.1-0.6-2.4-0.9-3.9-0.9C592.8,122,591.5,122.3,590.4,122.9">
  </path>
  <path class="st1" d="M627.1,120.5c1.5,0.7,2.8,1.7,3.8,2.9c1,1.2,1.8,2.7,2.3,4.3c0.5,1.6,0.8,3.4,0.8,5.3c0,1.9-0.3,3.6-0.8,5.3
		c-0.5,1.6-1.3,3.1-2.3,4.3c-1,1.2-2.3,2.2-3.8,2.9c-1.5,0.7-3.2,1.1-5.2,1.1c-2,0-3.7-0.4-5.2-1.1c-1.5-0.7-2.8-1.7-3.8-2.9
		c-1-1.2-1.8-2.7-2.3-4.3c-0.5-1.6-0.8-3.4-0.8-5.3c0-1.9,0.3-3.6,0.8-5.3c0.5-1.6,1.3-3.1,2.3-4.3c1-1.2,2.3-2.2,3.8-2.9
		c1.5-0.7,3.2-1.1,5.2-1.1C623.9,119.4,625.6,119.7,627.1,120.5 M618,122.9c-1.1,0.6-2.1,1.5-2.8,2.5c-0.7,1-1.3,2.2-1.7,3.5
		c-0.4,1.3-0.6,2.6-0.6,4c0,1.4,0.2,2.7,0.6,4c0.4,1.3,0.9,2.5,1.7,3.5c0.7,1,1.7,1.9,2.8,2.5c1.1,0.6,2.4,0.9,3.9,0.9
		c1.5,0,2.8-0.3,3.9-0.9c1.1-0.6,2.1-1.5,2.8-2.5c0.7-1,1.3-2.2,1.7-3.5c0.4-1.3,0.6-2.6,0.6-4c0-1.4-0.2-2.7-0.6-4
		c-0.4-1.3-0.9-2.5-1.7-3.5c-0.7-1-1.7-1.9-2.8-2.5c-1.1-0.6-2.4-0.9-3.9-0.9C620.4,122,619.1,122.3,618,122.9">
  </path>
  <polyline class="st1" points="641.9,110.2 641.9,132.6 656.1,120.1 660.3,120.1 649.3,129.6 661,145.8 657.1,145.8 646.9,131.8 
		641.9,136 641.9,145.8 638.7,145.8 638.7,110.2 	">
  </polyline>
  <polyline class="st1" points="657.5,110 663.2,110 663.2,111 660.9,111 660.9,117 659.7,117 659.7,111 657.5,111 	">
  </polyline>
  <polyline class="st1" points="664,110 665.7,110 667.6,115.5 667.6,115.5 669.5,110 671.2,110 671.2,117 670.1,117 670.1,111.6 
		670.1,111.6 668.1,117 667.1,117 665.2,111.6 665.1,111.6 665.1,117 664,117 	">
  </polyline>
  <polyline class="st1" points="116.2,1 177.5,1 221.9,44.4 159.1,44.4 	">
  </polyline>
  <polyline class="st1" points="104.7,1 43.2,1 0,44.4 61.5,44.4 	">
  </polyline>
  <polyline class="st1" points="113,4.9 155.6,47.5 155.6,107.4 113,65.6 	">
  </polyline>
  <polyline class="st1" points="108.2,4.9 108.2,65.6 64.5,107.4 64.5,48.7 	">
  </polyline>
 </g>
</svg>