<svg version="1.1" id="Layer_1" xmlns:x="ns_extend;" xmlns:i="ns_ai;" xmlns:graph="ns_graphs;" xmlns="http://www.w3.org/2000/svg" xmlns:xlink="http://www.w3.org/1999/xlink" x="0px" y="0px" viewBox="0 0 192.5 100" style="enable-background:new 0 0 192.5 100;" xml:space="preserve">
 <style type="text/css">
  .st0{fill:#3F5765;}
 </style>
 <metadata>
  <sfw xmlns="ns_sfw;">
   <slices>
   </slices>
   <sliceSourceBounds bottomLeftOrigin="true" height="100" width="192.5" x="-36.3" y="-202.3">
   </sliceSourceBounds>
  </sfw>
 </metadata>
 <g>
  <path class="st0" d="M68.6,80.2c0,0.7-0.5,1.3-1.2,1.3c-12.7,1-23.6-7.1-23.6-21.6V31.8v-9.3V9.9c0-0.7,0.6-1.3,1.3-1.3h6.7
		c0.7,0,1.3,0.6,1.3,1.3v12.4c0,0.2,0.1,0.3,0.3,0.3h7.4c0.7,0,1.3,0.6,1.3,1.3v6.6c0,0.7-0.6,1.3-1.3,1.3h-7.4
		c-0.2,0-0.3,0.2-0.3,0.3v27.8c0,9.8,7.7,12.7,14.3,12.6c0.7,0,1.3,0.6,1.3,1.3V80.2z">
  </path>
  <path class="st0" d="M115.3,46.2c0.2,0,0.4-0.2,0.3-0.4c-2.3-9-9.6-14.9-17.4-14.9c-7.4,0-15.1,5.5-17.6,14.9
		c-0.1,0.2,0.1,0.4,0.3,0.4H115.3z M122.6,62.7c0.9,0,1.5,1,1.2,1.8c-4.1,10.9-13.1,17-24.9,17C83.2,81.6,71,68.7,71,52.1
		c0-16.3,12.2-29.7,27.3-29.7c13.5,0,26.5,11.2,27.3,30c0,1.1-0.8,2.1-1.9,2.1H80.5c-0.2,0-0.3,0.2-0.3,0.4
		c1.3,11.5,9.8,18.3,18.7,18.3c7.2,0,12.5-3.4,15.6-9.3c0.3-0.7,1-1.1,1.7-1.1H122.6z">
  </path>
  <path class="st0" d="M158.5,81.6c-14.9,0-27.1-13.2-27.1-29.5c0-16.3,12.2-29.7,27.1-29.7c11.4,0,20.5,6.7,24.6,17
		c0.3,0.9-0.3,1.8-1.2,1.8h-6.6c-0.7,0-1.3-0.4-1.7-1c-3.1-5.6-8.5-9.3-15.1-9.3c-10,0-18.2,9.5-18.2,21.2
		c0,11.6,8.2,20.9,18.2,20.9c6.7,0,12.1-3.7,15.1-9.3c0.3-0.6,1-1,1.7-1h6.6c0.9,0,1.5,1,1.2,1.8C179.1,74.9,169.9,81.6,158.5,81.6">
  </path>
  <path class="st0" d="M39.4,80.2c0,0.7-0.5,1.3-1.2,1.3c-12.6,1-23.6-7.1-23.6-21.6V17.8V8.6V1.3c0-0.7,0.6-1.3,1.3-1.3h6.7
		c0.7,0,1.3,0.6,1.3,1.3v10.8c0,0.2,0.1,0.3,0.3,0.3h7.4c0.7,0,1.3,0.6,1.3,1.3v7.2c0,0.7-0.6,1.3-1.3,1.3h-7.4
		c-0.2,0-0.3,0.2-0.3,0.3v37.2c0,9.8,7.8,12.7,14.3,12.6c0.7,0,1.3,0.6,1.3,1.3V80.2z">
  </path>
  <path class="st0" d="M0.4,22.4H9c0.2,0,0.4-0.2,0.4-0.4v-9.1c0-0.2-0.2-0.4-0.4-0.4H0.4c-0.2,0-0.4,0.2-0.4,0.4V22
		C0,22.2,0.2,22.4,0.4,22.4">
  </path>
  <path class="st0" d="M11.8,94.1C9,92,6.7,89.8,5,87.3c-3.6-5.1-4.6-9.9-5-12.3c-0.1-0.8,0.5-1.5,1.3-1.5l6.5,0c0.6,0,1.1,0.4,1.2,1
		c0.6,2.4,2.8,8.7,8.5,12.3c6.8,4.3,16.6,4.6,20.5,4.4c0.7,0,1.3,0.6,1.3,1.3v6c0,0.7-0.5,1.3-1.2,1.3
		C34.2,100.1,20.1,100.3,11.8,94.1">
  </path>
  <path class="st0" d="M188.4,27.4c0.6,0,0.8-0.3,0.8-0.7c0-0.5-0.2-0.7-0.8-0.7h-0.7v1.4H188.4z M186.8,25.4h1.5
		c1.1,0,1.6,0.4,1.6,1.3c0,0.6-0.3,1-0.8,1.2v0l1,1.9h-0.9l-0.9-1.7h-0.7v1.7h-0.8V25.4z M191.8,27.6c0-2.1-1.5-3.8-3.5-3.8
		c-2.1,0-3.5,1.7-3.5,3.8c0,2.1,1.4,3.8,3.5,3.8C190.3,31.4,191.8,29.7,191.8,27.6 M184,27.6c0-2.5,1.8-4.5,4.3-4.5
		c2.4,0,4.3,2,4.3,4.5c0,2.5-1.9,4.5-4.3,4.5C185.8,32.1,184,30.1,184,27.6">
  </path>
 </g>
</svg>