<svg version="1.1" id="Layer_1" xmlns="http://www.w3.org/2000/svg" xmlns:xlink="http://www.w3.org/1999/xlink" x="0px" y="0px" viewBox="-622.6 93.1 1007.2 125.2" style="enable-background:new -622.6 93.1 1007.2 125.2;" xml:space="preserve">
 <style type="text/css">
  .st0{fill:#CC0000;}
 </style>
 <g>
  <path d="M-425.2,127.7v49c0,5.2-2.6,6-5.2,6.8v1.7h22.6v-1.7c-2.5-0.8-5.2-1.6-5.2-6.8v-49c0-3,0.9-3.7,4.8-3.7
		c10.6,0,15.8,0.2,19.6,6.1l1.3-0.8l-4.3-12.6h-55.1l-4.3,12.6l1.3,0.8c4.6-5.8,8.2-6.1,19.7-6.1
		C-426.1,124-425.2,124.7-425.2,127.7z M-399.4,134.7c3.4,0.9,5.1,1.7,5.1,6.8v35.2c0,5.2-1.7,6-5.1,6.8v1.7h42.7l4.9-12.3l-1.3-0.9
		c-4.3,5.6-8.8,6.9-14.7,6.9h-11c-3.5,0-4.3-0.1-4.3-3.5v-14.7h13.3c5.2,0,6,1.2,6.8,4.3h2v-14.7h-2c-0.8,3.1-1.6,4.4-6.8,4.4h-13.3
		v-12.3c0-2.6,0.8-3.4,4.3-3.4c0,0,8.6,0,9.4,0c6,0,9.2,1.5,13.8,6.4l1.3-0.9l-4.3-11.7h-40.8V134.7z M-344.5,140.7l13.1,18.4
		l-12.3,17.5c-3.8,5.3-6,6-9.5,6.8v1.7h19.8v-1.7c-3.8-0.7-5.4-2.1-2.9-6.1l8.6-13.5l9.1,13.1c3.4,4.8-0.2,6.1-3.3,6.5v1.7h35.8
		v-1.7c-3.6-0.6-5.2-1.8-3.4-6.7l2.3-6.1h21.4l2.2,6.1c1.4,4,0.9,6.1-3.3,6.7v1.7h22v-1.7c-2.5-0.8-4.9-2.9-6-5.9l-17-44.6h-11.6
		l-16.3,41.6c-1.7,4.3-3.3,6.4-5,7.5c-1.3-0.8-2.6-2.2-4.2-4.5l-14.3-20.4l11.6-16.4c3.1-4.4,5.6-5.3,8.7-6.2v-1.7h-18.7v1.7
		c3.9,0.3,5,2.5,2.7,5.8l-8.1,12l-7.3-11c-3.1-4.5-0.8-6.3,2.5-6.8v-1.7h-24.8v1.7C-349.1,135.6-347.4,136.6-344.5,140.7z
		 M-276.2,142l8.4,22.8h-17.1L-276.2,142z M-240,185.2c0-0.8,0.8-2.6,1.8-2.6c2.3,1.1,6.3,3.5,13.7,3.5c12.3,0,21-6.1,21-16.5
		c0-9.8-5.4-13.8-15.8-16.1l-9.5-2.1c-5.4-1.2-7.1-2.8-7.1-6.1c0-3.9,3.1-6.4,9.8-6.4c7.5,0,13.4,3.6,17.7,8.5l1.3-0.9l-3.9-13.5
		h-2.4c0,1.1-0.5,2.3-1.5,2.3c-2.2-1.2-5.7-3.2-11.6-3.2c-10.6,0-18.8,5.5-18.8,15.5c0,7.6,4.6,12.4,14.6,14.7l9,2
		c6,1.3,8.1,3.5,8.1,7.2c0,5.2-4.2,7.9-11,7.9c-9.6,0-15.7-5-20.7-10.8l-1.3,0.9l4.2,15.6L-240,185.2L-240,185.2z">
  </path>
  <path d="M-170.5,118.5c3.2,0.9,5.7,1.7,5.7,6.8v51.4c0,5.2-2.5,6-5.7,6.8v1.7h23.6v-1.7c-3.2-0.8-5.7-1.6-5.7-6.8v-51.4
		c0-5.1,2.6-5.9,5.7-6.8v-1.7h-23.6L-170.5,118.5L-170.5,118.5z M-105.6,134.7c3.1,0.9,4.8,1.7,4.8,6.8v21.4h-0.3l-26.3-30h-15.4
		v1.7c3.1,1.3,5.1,2.3,5.1,6.8v35.2c0,4.9-1.7,6-5.1,6.8v1.7h17.4v-1.7c-2.8-0.8-5.4-1.9-5.4-6.8v-30.4h0.3l34.7,39.6h1.8v-44.4
		c0-5.1,2.6-5.9,4.6-6.8V133h-16.3L-105.6,134.7L-105.6,134.7z M-60,153.5l-9.5-2.1c-5.4-1.2-7.1-2.8-7.1-6.1c0-3.9,3.1-6.4,9.8-6.4
		c7.5,0,13.5,3.6,17.7,8.5l1.3-0.9l-3.9-13.5h-2.5c0,1.1-0.5,2.3-1.5,2.3c-2.2-1.2-5.7-3.2-11.6-3.2c-10.6,0-18.9,5.5-18.9,15.5
		c0,7.6,4.6,12.4,14.6,14.7l9,2c6,1.3,8.2,3.5,8.2,7.2c0,5.2-4.2,7.9-11,7.9c-9.6,0-15.7-5-20.7-10.8l-1.3,0.9l4.2,15.6h2.5
		c0-0.8,0.8-2.5,1.8-2.5c2.3,1.1,6.3,3.5,13.7,3.5c12.3,0,21-6.1,21-16.5C-44.2,159.9-49.6,155.9-60,153.5z M-41.2,133l-4.2,13.5
		l1.3,0.9c5.6-7.4,7.1-8.2,14.6-8.2c2.6,0,3.4,0.2,3.4,3.4v34.1c0,5.2-1.5,6-5.7,6.8v1.7h22.4v-1.7c-4.1-0.8-5.7-1.6-5.7-6.8v-34.1
		c0-3.2,0.8-3.4,3.4-3.4c7.4,0,9.4,0.7,15,8.2l1.3-0.9L0.4,133H-41.2z M49.6,169.8c-3.2-5.1-6.4-7.3-10.2-8.3v-0.3
		c9-1.4,14.1-6.1,14.1-13.8c0-10.2-8.1-14.5-21.3-14.5H5.4v1.7c3.4,0.9,5.1,1.7,5.1,6.8v35.2c0,5.2-1.7,6-5.1,6.8v1.7h21.9v-1.7
		c-3.2-0.8-5.3-1.6-5.3-6.8v-13.1h5.4c6.3,0,7.2,2.5,11.3,11.1c3.4,7,7.9,11.4,16.3,11.4c4.3,0,6-0.8,7.7-1.7V183
		C55.9,182,53.7,176.4,49.6,169.8z M31,157.5h-9v-13.9c0-3.4,0.8-4.3,3.4-4.3h5.8c6.3,0,10,2.4,10,8.6C41.2,154.4,37,157.5,31,157.5
		z M96,134.7c2.6,0.6,5.2,1.7,5.2,6.8v25.8c0,8.6-3.3,12.3-12.9,12.3c-10.3,0-14-3.8-14-12.3v-25.8c0-5.1,1.9-6.2,5.1-6.8V133H58
		v1.7c3.2,0.5,5.2,1.7,5.2,6.8v26.6c0,13.9,12.1,18,23.5,18c12.7,0,21.8-4.3,21.8-18.9v-25.8c0-5.1,1.6-6.1,4.7-6.8v-1.7H96
		L96,134.7L96,134.7z M150.2,166.9L135.1,133h-18.7v1.7c3.4,0.9,5.1,1.7,5.1,6.8v35.2c0,4.6-1.9,5.8-5.1,6.8v1.7H133v-1.7
		c-3.5-0.9-5-2.2-5-6.8v-32.8l18.8,42.2h1.4l18.3-42.2v32.8c0,5.2-2.2,6.1-4.8,6.8v1.7h21.4v-1.7c-3.4-0.8-5.1-1.6-5.1-6.8v-35.2
		c0-5.1,1.7-5.9,5.1-6.8V133h-18.4L150.2,166.9z M218.9,179h-11c-3.5,0-4.3-0.1-4.3-3.5v-14.7h13.4c5.2,0,6,1.2,6.8,4.3h2v-14.7h-2
		c-0.8,3.1-1.6,4.4-6.8,4.4h-13.4v-12.3c0-2.5,0.8-3.4,4.3-3.4c0,0,8.6,0,9.4,0c6,0,9.2,1.5,13.8,6.4l1.3-0.9L228,133h-40.8v1.7
		c3.4,0.9,5.1,1.7,5.1,6.8v35.2c0,5.2-1.7,6-5.1,6.8v1.7H230l4.9-12.3l-1.3-0.9C229.3,177.7,224.8,179,218.9,179z M273.3,134.7
		c3.1,0.9,4.8,1.7,4.8,6.8v21.4h-0.3l-26.3-30h-15.4v1.7c3.1,1.3,5.1,2.3,5.1,6.8v35.2c0,4.9-1.7,6-5.1,6.8v1.7h17.4v-1.7
		c-2.8-0.8-5.4-1.9-5.4-6.8v-30.4h0.3l34.7,39.6h1.9v-44.4c0-5.1,2.5-5.9,4.6-6.8V133h-16.3L273.3,134.7L273.3,134.7z M294.4,133
		l-4.2,13.5l1.3,0.9c5.6-7.4,7.1-8.2,14.6-8.2c2.5,0,3.4,0.2,3.4,3.4v34.1c0,5.2-1.5,6-5.7,6.8v1.7h22.4v-1.7
		c-4.1-0.8-5.7-1.6-5.7-6.8v-34.1c0-3.2,0.8-3.4,3.4-3.4c7.4,0,9.4,0.7,15,8.2l1.3-0.9L336,133H294.4z M369,153.5l-9.5-2.1
		c-5.4-1.2-7.1-2.8-7.1-6.1c0-3.9,3-6.4,9.8-6.4c7.5,0,13.5,3.6,17.7,8.5l1.3-0.9l-3.8-13.5h-2.5c0,1.1-0.5,2.3-1.5,2.3
		c-2.2-1.2-5.7-3.2-11.6-3.2c-10.6,0-18.9,5.5-18.9,15.5c0,7.6,4.6,12.4,14.6,14.7l9,2c6,1.3,8.2,3.5,8.2,7.2c0,5.2-4.2,7.9-11,7.9
		c-9.6,0-15.7-5-20.7-10.8l-1.3,0.9l4.1,15.6h2.6c0-0.8,0.8-2.5,1.8-2.5c2.3,1.1,6.3,3.5,13.6,3.5c12.3,0,21-6.1,21-16.5
		C384.8,159.9,379.4,155.9,369,153.5z">
  </path>
  <path class="st0" d="M-500.8,132.4v-15.6h-25l-3.2,15.7h9l-2.9,14.5h-9l-3.1,15.7c-0.2,1.1-0.4,1.8-0.5,2.6
		c-0.7,4.8,1.4,4.6,8.1,4.6l-3.1,15.4h-11.8c-11.1,0-20.2-0.1-17.8-11.5c0.4-1.7,0.8-3.5,1.1-5.2l4.2-21.5h-8.7l2.9-14.5h8.7
		l3.1-15.7h-8.1V93.1h-29.9v48.3h-35.8c0.9,12.5,12,14.3,16,23.2c2.8,6.1,5.2,16.9,13.3,17c6.2,0.1,6.2-8.1,14.2-8.1
		c8,0,11.6,15.2,18.7,27.7c5.3,9.8,14.2,16.4,22.2,17c6.6,0.5,9.8-1.8,9.8-1.8c-1.8-3.6-2.7-7.1-2.7-12.5c0-8,6.2-16.1,13.3-21.4
		c9.8-7.1,20.4-9.9,24-10.7v-25C-493.7,146.7-500.8,142.9-500.8,132.4z M-541.6,169.8l10.5-53h-12.1l-10.5,53H-541.6z M-527.8,100
		H-540l-2.3,11.7h12.1L-527.8,100z">
  </path>
 </g>
</svg>