<svg version="1.1" id="Layer_1" xmlns="http://www.w3.org/2000/svg" xmlns:xlink="http://www.w3.org/1999/xlink" x="0px" y="0px" viewBox="0 0 193.5 66.8" style="enable-background:new 0 0 193.5 66.8;" xml:space="preserve">
 <style type="text/css">
  .st0{fill:#005A96;}
	.st1{fill:#A0AB57;}
 </style>
 <g>
  <g>
   <path class="st0" d="M81.7,17.8V8.4h6.8v9.4H94v5.5h-5.6v16.1c0,1.5,0.8,2,2.5,2c1,0,2.1-0.3,3.1-0.5v5.6
			c-1.9,0.2-3.5,0.4-5.4,0.4c-5,0-7-2.5-7-6.6V23.2h-3.9v-5.5H81.7z">
   </path>
   <path class="st0" d="M96.3,50.7c1,0.2,1.9,0.2,2.8,0.2c2.3,0,3.7-0.7,4.5-2.2c0.7-1.4,1.1-2.2,1.1-3.3c0-1-0.5-2.2-0.9-3.4
			l-7.6-24.2h6.8l4.7,17.5h0.1l4.9-17.5h6.8l-9,28.4c-3,8.1-5.4,10.3-11,10.3c-1.6,0-2.5-0.1-3.3-0.2V50.7z">
   </path>
   <rect x="122.4" y="6.7" class="st0" width="6.8" height="39.4">
   </rect>
   <path class="st0" d="M150.8,28.5c-0.1-3.9-2.2-6.2-5.5-6.2c-3.3,0-5.4,2.3-5.5,6.2H150.8z M139.8,33c0.1,5.9,2.7,8.2,5.9,8.2
			s4.6-1.4,6.3-3.4l4.9,3.1c-2.6,4-6.4,5.8-11.9,5.8c-7.4,0-12-5.7-12-14.7c0-9,4.6-14.7,12.3-14.7c7.4-0.1,11.6,6.2,11.6,13V33
			H139.8z">
   </path>
  </g>
  <g>
   <path class="st0" d="M160.9,46.2V17.8h6.2v4.9h0.1c1.6-3.4,3.9-5.3,8.7-5.5v7.2c-1.1,0-1.5,0-2,0c-3.4,0-6.3,3.9-6.3,4.6v17.3
			H160.9z">
   </path>
   <path class="st0" d="M5.2,17.8c2.9,0,5.2,2.3,5.2,5.2c0,2.9-2.3,5.2-5.2,5.2C2.3,28.3,0,25.9,0,23C0,20.1,2.3,17.8,5.2,17.8">
   </path>
  </g>
  <g>
   <path class="st0" d="M14.1,26.7c2.9,0,5.2,2.3,5.2,5.2s-2.3,5.2-5.2,5.2c-2.9,0-5.2-2.3-5.2-5.2C8.9,29,11.2,26.7,14.1,26.7">
   </path>
   <path class="st0" d="M23,35.6c2.9,0,5.2,2.3,5.2,5.2s-2.3,5.2-5.2,5.2c-2.9,0-5.2-2.3-5.2-5.2C17.8,37.9,20.1,35.6,23,35.6">
   </path>
   <path class="st0" d="M23,53.4c2.9,0,5.2,2.3,5.2,5.2c0,2.9-2.3,5.2-5.2,5.2c-2.9,0-5.2-2.3-5.2-5.2C17.8,55.7,20.1,53.4,23,53.4">
   </path>
   <path class="st0" d="M31.9,44.5c2.9,0,5.2,2.3,5.2,5.2c0,2.9-2.3,5.2-5.2,5.2c-2.9,0-5.2-2.3-5.2-5.2C26.7,46.8,29,44.5,31.9,44.5
			">
   </path>
   <path class="st0" d="M40.8,35.6c2.9,0,5.2,2.3,5.2,5.2s-2.3,5.2-5.2,5.2c-2.9,0-5.2-2.3-5.2-5.2C35.6,37.9,37.9,35.6,40.8,35.6">
   </path>
   <path class="st1" d="M23,17.8c2.9,0,5.2,2.3,5.2,5.2c0,2.9-2.3,5.2-5.2,5.2c-2.9,0-5.2-2.3-5.2-5.2C17.8,20.1,20.1,17.8,23,17.8">
   </path>
   <path class="st1" d="M31.9,8.9c2.9,0,5.2,2.3,5.2,5.2c0,2.9-2.3,5.2-5.2,5.2c-2.9,0-5.2-2.3-5.2-5.2C26.7,11.2,29,8.9,31.9,8.9">
   </path>
   <path class="st1" d="M40.8,17.8c2.9,0,5.2,2.3,5.2,5.2c0,2.9-2.3,5.2-5.2,5.2c-2.9,0-5.2-2.3-5.2-5.2
			C35.6,20.1,37.9,17.8,40.8,17.8">
   </path>
   <path class="st1" d="M49.7,26.7c2.9,0,5.2,2.3,5.2,5.2s-2.3,5.2-5.2,5.2c-2.9,0-5.2-2.3-5.2-5.2C44.5,29,46.8,26.7,49.7,26.7">
   </path>
   <path class="st1" d="M58.6,35.6c2.9,0,5.2,2.3,5.2,5.2c0,2.9-2.3,5.2-5.2,5.2c-2.9,0-5.2-2.3-5.2-5.2
			C53.4,37.9,55.7,35.6,58.6,35.6">
   </path>
   <path class="st1" d="M40.8,0c2.9,0,5.2,2.3,5.2,5.2s-2.3,5.2-5.2,5.2c-2.9,0-5.2-2.3-5.2-5.2C35.6,2.3,37.9,0,40.8,0">
   </path>
   <path class="st1" d="M112.9,55.5v-2.7h1.1v2.7h1.9v1h-1.9v5.9c0,0.4,0.3,0.6,0.9,0.6c0.4,0,0.7,0,1-0.1v0.9
			c-0.2,0.1-0.7,0.1-1.3,0.1c-1.2,0-1.8-0.3-1.8-1.4v-6.1h-1.4v-1H112.9z">
   </path>
   <path class="st1" d="M122.5,58.8c0-1.5-0.7-2.6-2-2.6c-1.4,0-2.1,1-2.2,2.6H122.5z M123.9,62c-0.5,0.9-1.3,1.9-3.2,1.9
			c-1.8,0-3.6-1.3-3.6-4.3c0-2.7,1.3-4.3,3.4-4.3c1.7,0,3.2,1.1,3.2,3.8v0.8h-5.4c0,1.8,1.1,3.1,2.5,3.1c1,0,1.8-0.5,2.3-1.4
			L123.9,62z">
   </path>
   <path class="st1" d="M130.5,57.9c-0.3-1-1-1.6-2-1.6c-1.4,0-2.2,1.2-2.2,3.3c0,2.1,0.8,3.3,2.2,3.3c1.1,0,1.6-0.4,2.3-1.5l0.9,0.4
			c-0.8,1.4-1.6,2.1-3.2,2.1c-2.1,0-3.4-1.6-3.4-4.3c0-2.7,1.3-4.3,3.4-4.3c1.7,0,2.5,1,3,2.2L130.5,57.9z">
   </path>
   <path class="st1" d="M134.3,52.2v4.3h0c0.7-0.7,1.5-1.3,2.5-1.3c1.2,0,2.4,0.6,2.4,2.4v6H138v-6c0-1.1-0.5-1.5-1.4-1.5
			c-0.9,0-1.8,0.7-2.4,1.3v6.2h-1.1V52.2H134.3z">
   </path>
   <path class="st1" d="M142.4,55.5v1.1h0c0.7-0.7,1.5-1.3,2.5-1.3c1.2,0,2.4,0.6,2.4,2.4v6h-1.1v-6c0-1.1-0.5-1.5-1.4-1.5
			c-0.9,0-1.9,0.7-2.4,1.3v6.2h-1.1v-8.3H142.4z">
   </path>
   <path class="st1" d="M152.2,56.3c-1.4,0-2.2,1.2-2.2,3.3s0.9,3.3,2.2,3.3c1.4,0,2.2-1.2,2.2-3.3S153.5,56.3,152.2,56.3
			 M152.2,63.9c-2.3,0-3.4-1.9-3.4-4.3s1.1-4.3,3.4-4.3c2.3,0,3.4,1.9,3.4,4.3S154.4,63.9,152.2,63.9">
   </path>
   <rect x="157.2" y="52.2" class="st1" width="1.1" height="11.5">
   </rect>
   <path class="st1" d="M163.3,56.3c-1.4,0-2.2,1.2-2.2,3.3s0.9,3.3,2.2,3.3c1.4,0,2.3-1.2,2.3-3.3S164.7,56.3,163.3,56.3
			 M163.3,63.9c-2.3,0-3.4-1.9-3.4-4.3s1.1-4.3,3.4-4.3c2.3,0,3.4,1.9,3.4,4.3S165.6,63.9,163.3,63.9">
   </path>
   <path class="st1" d="M171.1,56.3c-1.3,0-2,0.8-2,1.9c0,1.1,0.9,1.9,2.1,1.9c1.3,0,2-0.9,2-1.8C173.3,57.1,172.5,56.3,171.1,56.3
			 M171.1,63.4c-1.8,0-2.3,0.8-2.3,1.4c0,0.6,0.4,1,2.7,1c1.4,0,2.5-0.4,2.5-1.2C174,63.8,173.1,63.4,171.1,63.4 M175,56.3
			c-0.5,0-1,0.1-1.3,0.2c0.2,0.3,0.6,0.9,0.6,1.7c0,1.6-1.4,2.9-3,2.9c-0.7,0-1-0.1-1.5-0.2c-0.4,0.1-0.7,0.4-0.7,0.8
			c0,0.4,0.3,0.6,0.7,0.6c3.9,0,5.2,0.7,5.2,2.3c0,1.2-1.2,2.2-3.8,2.2c-2.3,0-3.6-0.6-3.6-2c0-0.8,0.5-1.2,1.4-1.7
			c-0.6-0.2-1-0.7-1-1.2c0-0.7,0.5-1,1.1-1.4c-0.8-0.6-1.1-1.4-1.1-2.3c0-1.8,1.4-2.9,3.1-2.9c0.9,0,1.5,0.2,2.1,0.6
			c0.5-0.4,1.2-0.7,1.8-0.7V56.3z">
   </path>
   <path class="st1" d="M176.7,55.5h1.1v8.3h-1.1V55.5z M177.8,53.5h-1.1v-1.4h1.1V53.5z">
   </path>
   <path class="st1" d="M184.8,58.8c0-1.5-0.7-2.6-2-2.6c-1.4,0-2.1,1-2.2,2.6H184.8z M186.2,62c-0.5,0.9-1.3,1.9-3.2,1.9
			c-1.9,0-3.6-1.3-3.6-4.3c0-2.7,1.3-4.3,3.4-4.3c1.7,0,3.2,1.1,3.2,3.8v0.8h-5.4c0,1.8,1.1,3.1,2.5,3.1c1,0,1.8-0.5,2.3-1.4
			L186.2,62z">
   </path>
   <path class="st1" d="M188.2,61.7c0.5,0.8,1.3,1.3,2.4,1.3c1.2,0,1.8-0.7,1.8-1.4c0-2.1-4.9-1-4.8-4c0-1.4,1.1-2.2,2.7-2.2
			c1.1,0,2.3,0.6,2.8,1.5l-0.8,0.7c-0.6-0.8-1.2-1.2-2.1-1.2c-1,0-1.5,0.5-1.5,1.2c0,1.8,4.8,0.9,4.8,4c0,1.6-1.4,2.4-2.9,2.4
			c-1.3,0-2.6-0.6-3.3-1.6L188.2,61.7z">
   </path>
   <path class="st1" d="M51.9,46.7c0,1.1-0.9,2.1-2.1,2.1c-1.2,0-2.1-0.9-2.1-2.1c0-1.2,0.9-2.1,2.1-2.1C51,44.6,51.9,45.5,51.9,46.7
			 M51.6,46.7c0-1-0.7-1.8-1.8-1.8c-1,0-1.8,0.8-1.8,1.8s0.8,1.8,1.8,1.8C50.8,48.5,51.6,47.7,51.6,46.7 M49.4,47.9h-0.3v-2.5h1
			c0.6,0,0.8,0.2,0.8,0.7c0,0.4-0.3,0.6-0.6,0.7l0.7,1.1h-0.4l-0.7-1.1h-0.5V47.9z M49.8,46.5c0.3,0,0.7,0,0.7-0.4
			c0-0.3-0.3-0.4-0.5-0.4h-0.5v0.8H49.8z">
   </path>
  </g>
 </g>
</svg>