<?xml version="1.0" encoding="UTF-8"?>
<svg width="132" height="26" fill="none" version="1.1" viewBox="0 0 132 26" xmlns="http://www.w3.org/2000/svg">
 <title>VIAVI Solutions</title>
 <g clip-path="url(#clip0_1928_2911)" fill="#491E88">
  <path d="m19.873 17.924-10.309-17.434c-0.12524-0.20434-0.34935-0.34276-0.59982-0.34276h-8.3975c-0.35594 0-0.49436 0.25047-0.32298 0.55368l14.679 24.949c0.1582 0.2768 0.4218 0.2768 0.5866 0l4.3701-7.0397c0.1187-0.2109 0.1187-0.4746-0.0066-0.6855z"/>
  <path d="m20.354 0.1467c-0.2241 0-0.4087 0.18456-0.4087 0.40867v7.0924c0 0.22411 0.1846 0.40867 0.4087 0.40867h7.0924c0.2241 0 0.4086-0.18456 0.4086-0.40867v-7.0924c0-0.22411-0.1845-0.40867-0.4086-0.40867h-7.0924z"/>
  <path d="m45.903 25.853c0.2241 0 0.4086-0.1846 0.4086-0.4153v-24.876c0-0.2307-0.1845-0.41526-0.4086-0.41526h-7.0924c-0.2241 0-0.4087 0.18456-0.4087 0.31639v24.982c0 0.323 0.1846 0.4153 0.4087 0.4153h7.0924v-0.0066z"/>
  <path d="m105.57 17.93-10.315-17.441c-0.1186-0.20434-0.3493-0.34276-0.5932-0.34276h-8.4041c-0.3493 0-0.4943 0.25047-0.3164 0.55368l14.679 24.949c0.158 0.2768 0.422 0.2768 0.587 0l4.376-7.0331c0.113-0.2109 0.113-0.4746-0.013-0.6855z"/>
  <path d="m106.04 0.1467c-0.224 0-0.409 0.18456-0.409 0.40867v7.0924c0 0.22411 0.185 0.40867 0.409 0.40867h7.092c0.224 0 0.409-0.18456 0.409-0.40867v-7.0924c0-0.22411-0.185-0.40867-0.409-0.40867h-7.092z"/>
  <path d="m131.59 25.853c0.224 0 0.409-0.1846 0.409-0.4153v-24.876c0-0.22411-0.185-0.41526-0.409-0.41526h-7.092c-0.224 0-0.409 0.18456-0.409 0.41526v24.883c0 0.2241 0.185 0.4153 0.409 0.4153h7.092v-0.0066z"/>
  <path d="m64.86 8.386 10.19 17.125c0.1187 0.2044 0.3494 0.3428 0.5932 0.3428h8.5096c0.3493 0 0.4943-0.2505 0.3164-0.5537l-14.712-24.942c-0.1582-0.27684-0.4219-0.27684-0.5866 0l-4.3174 7.3429c-0.1187 0.21093-0.1187 0.47458 0.0066 0.68551z"/>
  <path d="m64.359 25.853c0.2241 0 0.4087-0.1846 0.4087-0.4087v-7.0924c0-0.2241-0.1846-0.4086-0.4087-0.4086h-7.0924c-0.2241 0-0.4086 0.1845-0.4086 0.4086v7.0924c0 0.2241 0.1845 0.4087 0.4086 0.4087h7.0924z"/>
 </g>
 <defs>
  <clipPath id="clip0_1928_2911">
   <rect transform="translate(.17133 .1467)" width="131.83" height="25.707" fill="#fff"/>
  </clipPath>
 </defs>
</svg>
