<svg version="1.1" id="Layer_1" xmlns:x="ns_extend;" xmlns:i="ns_ai;" xmlns:graph="ns_graphs;" xmlns="http://www.w3.org/2000/svg" xmlns:xlink="http://www.w3.org/1999/xlink" x="0px" y="0px" viewBox="0 0 115.7 100.9" style="enable-background:new 0 0 115.7 100.9;" xml:space="preserve">
 <style type="text/css">
  .st0{fill:#666666;}
	.st1{fill:url(#SVGID_1_);}
	.st2{fill:url(#SVGID_2_);}
	.st3{fill:url(#SVGID_3_);}
	.st4{opacity:0.1;}
	.st5{fill:#707070;}
	.st6{fill:#FFFFFF;}
 </style>
 <metadata>
  <sfw xmlns="ns_sfw;">
   <slices>
   </slices>
   <sliceSourceBounds bottomLeftOrigin="true" height="100.9" width="115.7" x="342.5" y="26.8">
   </sliceSourceBounds>
  </sfw>
 </metadata>
 <g>
  <g>
   <polygon class="st0" points="10.7,84.8 14.9,84.8 9.4,100.6 5.4,100.6 0,84.8 4.2,84.8 7.5,96 		">
   </polygon>
   <polygon class="st0" points="16.2,84.8 27.9,84.8 27.9,87.9 20.2,87.9 20.2,90.7 27.4,90.7 27.4,93.7 20.2,93.7 20.2,97.5 
			28.6,97.5 28.6,100.6 16.2,100.6 		">
   </polygon>
   <path class="st0" d="M31.4,84.8h7.1c1.7,0,3.7,0,5.2,1.6c0.7,0.8,1.3,2.1,1.3,3.5c0,3.2-2.2,4-3.2,4.4l3.6,6.3h-4.4l-3.1-5.6h-2.5
			v5.6h-4V84.8z M35.3,87.7V92h3.3c0.6,0,2.4-0.1,2.4-2.2c0-2-1.5-2.1-2.3-2.1H35.3z">
   </path>
   <rect x="47.9" y="84.8" class="st0" width="3.9" height="15.8">
   </rect>
   <path class="st0" d="M57.3,95.8c0.4,0.4,0.7,0.8,1.5,1.2c1,0.6,2.1,0.8,3,0.8c1.6,0,2.9-0.7,2.9-1.8c0-1.3-1.6-1.5-2.8-1.6
			c-0.9-0.1-1.7-0.2-2.6-0.4c-1-0.2-4.2-0.9-4.2-4.3c0-4.1,3.6-5.3,6.4-5.3c3.6,0,5.6,1.8,7,3l-2.9,2.1c-0.5-0.5-0.9-0.9-1.6-1.3
			c-0.6-0.3-1.6-0.7-2.6-0.7c-1.6,0-2.3,0.9-2.3,1.7c0,1.2,1.3,1.4,2,1.5c1.7,0.2,3.9,0.6,4.8,0.9c1.8,0.7,2.7,2.1,2.7,3.9
			c0,1.1-0.4,2.4-1.3,3.4c-1.4,1.7-3.7,2.1-5.9,2.1c-4.4,0-6.2-2.1-7.2-3.2L57.3,95.8z">
   </path>
   <rect x="71.7" y="84.8" class="st0" width="3.9" height="15.8">
   </rect>
   <path class="st0" d="M90.1,99.1c-0.6,0.6-2,1.8-4.7,1.8c-4.4,0-7.1-3.6-7.1-8.2c0-5.1,3.3-8.5,7.8-8.5c4.2,0,6.2,2.7,7,3.6l-3,1.8
			c-0.6-0.8-1.5-2.2-3.7-2.2c-3,0-4.1,2.5-4.1,5.1c0,1.8,0.5,3.2,1.3,4c0.6,0.6,1.7,1.1,2.9,1.1c0.7,0,1.5-0.2,2.2-0.6
			c1-0.7,1.2-1.5,1.3-2.3h-3.5v-3h6.9v8.8h-3.1V99.1z">
   </path>
   <path class="st0" d="M96.5,84.8h3.9l3.4,5.8c1.3,2.2,1.6,2.9,2.4,4.3l-0.2-10.1h3.8v15.8h-3.9l-3-5c-1.4-2.3-1.7-2.8-2.8-4.9
			l0.1,9.9h-3.8V84.8z">
   </path>
   <path class="st0" d="M114.1,88.3c-0.9,0-1.7-0.7-1.7-1.7c0-0.9,0.7-1.7,1.7-1.7c0.9,0,1.7,0.7,1.7,1.6
			C115.7,87.5,115,88.3,114.1,88.3 M114.1,85.1c-0.8,0-1.5,0.7-1.5,1.5c0,0.8,0.7,1.5,1.5,1.5c0.8,0,1.5-0.7,1.5-1.5
			C115.6,85.8,114.9,85.1,114.1,85.1 M114.4,87.6l-0.3-0.8h-0.3l0,0.8h-0.4v-2.1h0.7c0.2,0,0.4,0,0.5,0.1c0.2,0.1,0.3,0.3,0.3,0.6
			c0,0.3-0.1,0.4-0.4,0.6l0.4,0.9H114.4z M114.1,85.9h-0.3v0.5h0.3c0.2,0,0.3-0.1,0.3-0.3C114.4,86,114.3,85.9,114.1,85.9">
   </path>
  </g>
  <g>
   <linearGradient id="SVGID_1_" gradientUnits="userSpaceOnUse" x1="81.3953" y1="354.7136" x2="29.6655" y2="406.4434" gradientTransform="matrix(1 0 0 1 0 -344)">
    <stop offset="0" style="stop-color:#FFFFFF">
    </stop>
    <stop offset="0.156" style="stop-color:#F9F9F9">
    </stop>
    <stop offset="0.361" style="stop-color:#E9E9E9">
    </stop>
    <stop offset="0.592" style="stop-color:#CECECE">
    </stop>
    <stop offset="0.842" style="stop-color:#A8A8A8">
    </stop>
    <stop offset="1" style="stop-color:#8D8D8D">
    </stop>
   </linearGradient>
   <circle class="st1" cx="55.5" cy="36.6" r="36.6">
   </circle>
   <linearGradient id="SVGID_2_" gradientUnits="userSpaceOnUse" x1="81.3953" y1="354.7136" x2="29.6655" y2="406.4434" gradientTransform="matrix(1 0 0 1 0 -344)">
    <stop offset="0" style="stop-color:#FFFFFF">
    </stop>
    <stop offset="0.156" style="stop-color:#F9F9F9">
    </stop>
    <stop offset="0.361" style="stop-color:#E9E9E9">
    </stop>
    <stop offset="0.592" style="stop-color:#CECECE">
    </stop>
    <stop offset="0.842" style="stop-color:#A8A8A8">
    </stop>
    <stop offset="1" style="stop-color:#8D8D8D">
    </stop>
   </linearGradient>
   <circle class="st2" cx="55.5" cy="36.6" r="36.6">
   </circle>
   <radialGradient id="SVGID_3_" cx="55.5304" cy="620.9604" r="29.6913" gradientTransform="matrix(1 0 0 -1 0 657.5389)" gradientUnits="userSpaceOnUse">
    <stop offset="0" style="stop-color:#0061A3">
    </stop>
    <stop offset="0.579" style="stop-color:#005FA2">
    </stop>
    <stop offset="0.841" style="stop-color:#00589F">
    </stop>
    <stop offset="1" style="stop-color:#004E9A">
    </stop>
   </radialGradient>
   <circle class="st3" cx="55.5" cy="36.6" r="29.7">
   </circle>
   <g class="st4">
    <path class="st5" d="M19,36.6c0,20.2,16.4,36.6,36.6,36.6c10.9,0,20.5-4.7,27.2-12.1c-6.4,5.8-15,9.3-24.3,9.3
				c-20.2,0-36.6-16.4-36.6-36.6c0-9.3,3.5-17.9,9.3-24.3C23.7,16.1,19,25.7,19,36.6z">
    </path>
   </g>
   <g class="st4">
    <path class="st5" d="M85.2,36.6c0-16.4-13.3-29.7-29.7-29.7c-8.7,0-16.7,3.8-22,9.9c5.2-4.7,12.2-7.7,19.9-7.7
				c16.4,0,29.7,13.3,29.7,29.7c0,7.7-2.9,14.5-7.7,19.9C81.4,53.3,85.2,45.3,85.2,36.6z">
    </path>
   </g>
   <path class="st6" d="M69.5,35H55.8l6.6-11.5h13.8L69.5,35z M48.9,23.6H35.5l20,34.7l6.7-11.6L48.9,23.6z">
   </path>
  </g>
 </g>
</svg>