<?xml version="1.0" encoding="UTF-8" standalone="no"?>
<!-- Created with Inkscape (http://www.inkscape.org/) -->

<svg
   xmlns:dc="http://purl.org/dc/elements/1.1/"
   xmlns:cc="http://creativecommons.org/ns#"
   xmlns:rdf="http://www.w3.org/1999/02/22-rdf-syntax-ns#"
   xmlns:svg="http://www.w3.org/2000/svg"
   xmlns="http://www.w3.org/2000/svg"
   xmlns:sodipodi="http://sodipodi.sourceforge.net/DTD/sodipodi-0.dtd"
   xmlns:inkscape="http://www.inkscape.org/namespaces/inkscape"
   width="245.65495"
   height="80.324707"
   viewBox="0 0 64.996207 21.252577"
   version="1.1"
   id="svg44209"
   inkscape:version="0.92.4 (5da689c313, 2019-01-14)"
   sodipodi:docname="wolfspeed.svg">
  <defs
     id="defs44203" />
  <sodipodi:namedview
     id="base"
     pagecolor="#ffffff"
     bordercolor="#666666"
     borderopacity="1.0"
     inkscape:pageopacity="0.0"
     inkscape:pageshadow="2"
     inkscape:zoom="5.8648509"
     inkscape:cx="121.82748"
     inkscape:cy="39.162356"
     inkscape:document-units="mm"
     inkscape:current-layer="layer1"
     showgrid="false"
     fit-margin-top="0"
     fit-margin-left="0"
     fit-margin-right="0"
     fit-margin-bottom="0"
     units="px"
     inkscape:window-width="1920"
     inkscape:window-height="1001"
     inkscape:window-x="-9"
     inkscape:window-y="-9"
     inkscape:window-maximized="1" />
  <metadata
     id="metadata44206">
    <rdf:RDF>
      <cc:Work
         rdf:about="">
        <dc:format>image/svg+xml</dc:format>
        <dc:type
           rdf:resource="http://purl.org/dc/dcmitype/StillImage" />
        <dc:title></dc:title>
      </cc:Work>
    </rdf:RDF>
  </metadata>
  <g
     inkscape:label="Layer 1"
     inkscape:groupmode="layer"
     id="layer1"
     transform="translate(-110.64148,-192.37104)">
    <g
       id="g44797"
       transform="translate(0.26458364,-0.26457632)">
      <path
         mask="none"
         id="Fill-1"
         d="m 121.7328,200.78023 c -0.21828,0 -0.41381,0.12992 -0.49847,0.33126 l -3.19882,7.62291 -0.60563,-7.95417 h -0.94853 c -0.21458,0 -0.40905,0.127 -0.49503,0.32385 l -3.32,7.59619 -0.55245,-7.92004 h -0.93212 c -0.15214,0 -0.29792,0.0646 -0.40032,0.17754 -0.10213,0.11271 -0.1524,0.26432 -0.13732,0.41593 l 0.92605,9.39588 h 1.08664 c 0.21458,0 0.40878,-0.127 0.49503,-0.32332 l 3.28163,-7.48083 0.63368,7.80415 h 1.09088 c 0.21246,0 0.40613,-0.12541 0.49318,-0.31935 l 4.33758,-9.67 h -1.25598"
         inkscape:connector-curvature="0"
         style="fill:#4b2b6d;fill-rule:evenodd;stroke:none;stroke-width:0.26458332" />
      <path
         style="fill:#4b2b6d;fill-rule:evenodd;stroke:none;stroke-width:0.26458332"
         inkscape:connector-curvature="0"
         d="m 127.48511,206.3624 c 0,1.66185 -0.88741,3.42768 -2.53233,3.42768 -1.67666,0 -2.02883,-1.17131 -2.02883,-2.15424 0,-1.66158 0.88768,-3.42794 2.5326,-3.42794 1.67666,0 2.02856,1.17158 2.02856,2.1545 z m -2.04259,-3.28771 c -2.24552,0 -3.87561,1.91823 -3.87561,4.56115 0,2.05846 1.27106,3.28772 3.39989,3.28772 2.25372,0 3.88938,-1.91797 3.88938,-4.56116 0,-2.05845 -1.27609,-3.28771 -3.41366,-3.28771 z"
         id="Fill-4" />
      <path
         style="fill:#4b2b6d;fill-rule:evenodd;stroke:none;stroke-width:0.26458332"
         inkscape:connector-curvature="0"
         d="m 131.61393,200.37435 c -0.26247,0 -0.48578,0.18733 -0.53155,0.44583 l -1.76053,9.94965 h 0.90725 c 0.26247,0 0.48604,-0.18732 0.53155,-0.44582 l 1.76054,-9.94966 h -0.90726"
         id="Fill-5" />
      <path
         mask="none"
         id="Fill-6"
         d="m 140.59759,206.3817 -5.3e-4,-2.6e-4 c -0.0926,-0.0307 -0.186,-0.0598 -0.27834,-0.0889 -0.74533,-0.23416 -1.3888,-0.43656 -1.3888,-1.06336 0,-0.60114 0.62707,-1.02129 1.5248,-1.02129 0.97657,0 1.97776,0.50482 2.26165,0.6596 l 0.0751,0.041 0.68819,-0.9398 -0.0929,-0.055 c -0.65511,-0.38682 -1.82695,-0.83899 -2.97392,-0.83899 -1.68063,0 -2.85433,0.92048 -2.85433,2.23837 0,1.44886 1.3208,1.87087 2.19499,2.15001 l 0.21907,0.0693 c 0.88689,0.27913 1.5875,0.49927 1.5875,1.16628 0,0.71649 -0.8165,1.09141 -1.62295,1.09141 -0.99933,0 -2.11905,-0.57759 -2.55376,-0.8263 l -0.0736,-0.0418 -0.73475,0.93504 0.0916,0.0579 c 0.37386,0.2368 1.71503,1.00859 3.27052,1.00859 1.79916,0 3.00778,-0.93345 3.00778,-2.32251 0,-1.33112 -1.01732,-1.77615 -2.34738,-2.21932"
         inkscape:connector-curvature="0"
         style="fill:#4b2b6d;fill-rule:evenodd;stroke:none;stroke-width:0.26458332" />
      <path
         mask="none"
         id="Fill-8"
         d="m 149.53945,205.90095 c 0,2.50825 -1.16787,3.86133 -2.26695,3.86133 -0.88847,0 -1.62295,-0.58658 -2.0918,-1.09405 l 0.57309,-3.28824 c 0.72046,-0.58235 1.50045,-1.14406 2.41432,-1.14406 1.13321,0 1.37134,0.90541 1.37134,1.66502 z m -1.06363,-2.82627 c -0.79851,0 -1.61025,0.31353 -2.47491,0.95726 l 0.14367,-0.80328 h -0.90805 c -0.26194,0 -0.48551,0.18733 -0.53128,0.4453 l -1.76054,9.94965 h 0.90779 c 0.2622,0 0.48524,-0.18706 0.53128,-0.44503 l 0.59028,-3.32449 c 0.46699,0.40958 1.31287,1.06971 2.50852,1.06971 2.03464,0 3.45572,-2.11164 3.45572,-5.13503 0,-2.5183 -1.88463,-2.71409 -2.46248,-2.71409 z"
         inkscape:connector-curvature="0"
         style="fill:#4b2b6d;fill-rule:evenodd;stroke:none;stroke-width:0.26458332" />
      <path
         style="fill:#4b2b6d;fill-rule:evenodd;stroke:none;stroke-width:0.26458332"
         inkscape:connector-curvature="0"
         d="m 152.91527,206.67011 c 0.34581,-1.50283 1.40414,-2.50428 2.66329,-2.50428 0.81571,0 1.34303,0.37889 1.34303,0.96547 0,0.99245 -1.16761,1.53881 -3.28798,1.53881 z m 0.62045,0.95145 c 3.13795,0 4.72889,-0.8472 4.72889,-2.51804 0,-1.21338 -1.05701,-2.02883 -2.63022,-2.02883 -2.47941,0 -4.21111,1.88119 -4.21111,4.57518 0,2.08042 1.04008,3.27395 2.85406,3.27395 1.43299,0 2.81491,-0.7538 3.40466,-1.07553 l 0.0849,-0.0466 -0.53922,-1.01071 -0.086,0.045 c -0.0622,0.0326 -0.12938,0.0688 -0.20161,0.1069 -0.64241,0.34316 -1.61369,0.86148 -2.49476,0.86148 -1.35334,0 -1.6375,-1.14882 -1.6375,-2.1127 v -0.0701 z"
         id="Fill-10" />
      <path
         style="fill:#4b2b6d;fill-rule:evenodd;stroke:none;stroke-width:0.26458332"
         inkscape:connector-curvature="0"
         d="m 160.13231,206.67011 c 0.34554,-1.50283 1.40388,-2.50428 2.66276,-2.50428 0.81598,0 1.34303,0.37889 1.34303,0.96547 0,0.99245 -1.16787,1.53881 -3.28771,1.53881 z m 0.62018,0.95145 c 3.1377,0 4.7289,-0.8472 4.7289,-2.51804 0,-1.21338 -1.05728,-2.02883 -2.63022,-2.02883 -2.47968,0 -4.21138,1.88119 -4.21138,4.57518 0,2.08042 1.04061,3.27395 2.85406,3.27395 1.43325,0 2.81491,-0.7538 3.40466,-1.07553 l 0.0855,-0.0466 -0.53895,-1.01071 -0.0865,0.045 c -0.0622,0.0326 -0.12965,0.0688 -0.20135,0.1069 -0.64294,0.34316 -1.61422,0.86148 -2.49529,0.86148 -1.35308,0 -1.63697,-1.14882 -1.63697,-2.1127 v -0.0701 z"
         id="Fill-11" />
      <path
         style="fill:#4b2b6d;fill-rule:evenodd;stroke:none;stroke-width:0.26458332"
         inkscape:connector-curvature="0"
         d="m 171.50675,205.34376 -0.54557,3.06731 c -0.77682,0.70485 -1.63407,1.35123 -2.63737,1.35123 -1.03478,0 -1.1893,-1.04299 -1.1893,-1.66502 0,-1.89812 0.88423,-3.8616 2.36432,-3.8616 0.6633,0 1.32026,0.36248 2.00792,1.10808 z m 1.32847,-4.96941 c -0.2622,0 -0.48551,0.18759 -0.53102,0.44609 l -0.59029,3.34883 c -0.46566,-0.41989 -1.3028,-1.09458 -2.4249,-1.09458 -2.09233,0 -3.55336,2.1172 -3.55336,5.14879 0,1.30519 0.59532,2.70008 2.26643,2.70008 1.1377,0 2.12513,-0.64268 2.71065,-1.1303 l -0.1688,0.97657 h 0.90699 c 0.2622,0 0.48577,-0.18732 0.53128,-0.44555 l 1.76054,-9.94993 z"
         id="Fill-12" />
      <path
         style="fill:#4b2b6d;fill-rule:evenodd;stroke:none;stroke-width:0.26458332"
         inkscape:connector-curvature="0"
         d="m 174.35525,209.56968 c 0,0.0503 -0.0188,0.0886 -0.0574,0.11801 -0.0405,0.0304 -0.0979,0.046 -0.16986,0.046 h -0.0482 v -0.27835 h 0.0609 c 0.10874,0 0.15637,0.014 0.17701,0.0262 0.0254,0.0151 0.0376,0.0436 0.0376,0.0881 z m 0.36036,0.72311 -0.33946,-0.44741 c 0.0635,-0.036 0.1106,-0.0751 0.14023,-0.11615 0.0357,-0.0495 0.0534,-0.11113 0.0534,-0.18336 0,-0.10954 -0.0524,-0.18653 -0.15637,-0.22939 -0.0474,-0.0201 -0.12673,-0.0299 -0.24236,-0.0299 h -0.29659 v 1.01282 h 0.20531 v -0.39714 h 0.0886 l 0.29236,0.38524 0.009,0.0119 h 0.23945 c -0.1741,0.17172 -0.42148,0.2421 -0.66358,0.18759 -0.25955,-0.0579 -0.47281,-0.27119 -0.53075,-0.53075 -0.0545,-0.24368 0.0167,-0.49292 0.19077,-0.66649 0.17383,-0.17383 0.4228,-0.24553 0.66675,-0.19076 0.25955,0.0582 0.47254,0.2712 0.53075,0.53075 0.054,0.2421 -0.0164,0.48948 -0.18733,0.66305 z m 0.12938,-1.13586 c -0.16986,-0.17012 -0.39608,-0.26352 -0.63605,-0.26352 -0.24051,0 -0.46673,0.0934 -0.63606,0.26352 -0.17013,0.16987 -0.26379,0.39582 -0.26379,0.63606 0,0.24051 0.0937,0.46646 0.26352,0.63606 0.16987,0.17013 0.39582,0.26379 0.63633,0.26379 0.23997,0 0.46593,-0.0937 0.63579,-0.26353 0.17013,-0.16986 0.26379,-0.39581 0.26379,-0.63632 0,-0.24024 -0.0937,-0.46619 -0.26353,-0.63606 z"
         id="Fill-13" />
      <path
         style="fill:#4b2b6d;fill-rule:evenodd;stroke:none;stroke-width:0.26458332"
         inkscape:connector-curvature="0"
         d="m 137.26172,203.22868 h -1.95817 l 0.16113,-0.90435 c 0.10451,-0.52334 0.32279,-0.74692 0.72945,-0.74692 0.27967,0 0.86334,0.1532 1.13295,0.2339 l 0.0759,0.0227 0.53949,-0.9779 -0.10319,-0.041 c -0.38127,-0.1524 -1.25968,-0.4408 -1.85526,-0.4408 -1.0795,0 -1.63962,0.57256 -1.87299,1.91347 l -0.16748,0.94086 h -0.99404 l -0.18732,1.09114 h 0.99245 l -0.86783,4.91199 -0.27676,1.53802 h 0.90779 c 0.2622,0 0.48577,-0.18732 0.53128,-0.44529 l 0.19288,-1.05833 0.87286,-4.94639 h 1.95898 l 0.18785,-1.09114"
         id="Fill-14" />
      <path
         id="Fill-15"
         d="m 169.80124,199.35994 -13.6898,-6.37169 c -0.11801,-0.055 -0.23972,0.0688 -0.1831,0.186 l 1.98623,4.11004 c 0.037,0.0765 -0.0172,0.16589 -0.10213,0.1688 l -18.46792,0.65617 c -0.0608,0.002 -0.0616,0.0926 -5.2e-4,0.0955 l 21.56936,1.04934 c 0.0505,0.002 0.086,-0.0495 0.0656,-0.096 l -1.05357,-2.37913 c -0.0381,-0.086 0.0418,-0.177 0.13229,-0.15055 l 9.6983,2.85115 c 0.0759,0.0225 0.11695,-0.0862 0.0452,-0.11959"
         inkscape:connector-curvature="0"
         style="fill:#4b2b6d;fill-rule:evenodd;stroke:none;stroke-width:0.26458332" />
      <path
         id="Fill-17"
         d="m 161.44094,194.94775 3.84651,1.77826 c 0.0622,0.0288 0.11351,-0.0558 0.059,-0.0974 l -4.85907,-3.71603 c -0.0489,-0.0373 -0.11483,0.0164 -0.0878,0.0717 l 0.86598,1.79096 c 0.0368,0.0759 0.0987,0.13706 0.17542,0.17251"
         inkscape:connector-curvature="0"
         style="fill:#4b2b6d;fill-rule:evenodd;stroke:none;stroke-width:0.26458332" />
      <path
         style="fill:#4b2b6d;fill-rule:evenodd;stroke:none;stroke-width:0.26458332"
         inkscape:connector-curvature="0"
         d="m 167.94016,200.65878 c -0.0283,0.0145 -0.0598,0.0214 -0.0915,0.0196 l -13.01961,-0.71517 -4.92099,-0.27808 c -0.0595,0.0185 -0.0495,0.10584 0.0127,0.1106 l 5.62875,0.6821 c 0,0 -0.008,-0.007 -0.0206,-0.0185 0.0151,0.0116 0.023,0.0185 0.0206,0.0185 l 12.63729,1.22528 c 0.0452,0.005 0.09,-0.014 0.1188,-0.0492 l 1.52003,-1.85526 c 0.0376,-0.0458 -0.0143,-0.1098 -0.0667,-0.0828 l -1.81875,0.94297"
         id="Fill-19" />
    </g>
  </g>
</svg>
