<svg version="1.1" id="Layer_1" xmlns:x="ns_extend;" xmlns:i="ns_ai;" xmlns:graph="ns_graphs;" xmlns="http://www.w3.org/2000/svg" xmlns:xlink="http://www.w3.org/1999/xlink" x="0px" y="0px" viewBox="0 0 249 51.6" style="enable-background:new 0 0 249 51.6;" xml:space="preserve">
 <style type="text/css">
  .st0{fill:#236BF5;}
 </style>
 <metadata>
  <sfw xmlns="ns_sfw;">
   <slices>
   </slices>
   <sliceSourceBounds bottomLeftOrigin="true" height="51.6" width="249" x="1.5" y="1.3">
   </sliceSourceBounds>
  </sfw>
 </metadata>
 <g id="nav">
  <path class="st0" d="M83,26.2c1.3,8.3-5.8,12.9-13.1,13.4c-4.6,9.5-20.9,15.9-35,8.9c-6,0.9-9.3-0.6-11.9-3.5
		c5.2-6.6,20.8-18.6,39.9-12.3c10.2,3.3,12.9-4.4,10.3-7.3c-9.6-10.9-31.3-1.1-32.1-0.3C49.6,12,80.2,8.4,83,26.2z M53.8,11.1
		c0,0-6.9-2.5-16.7,1.7c-0.4-0.1-0.8-0.3-1.2-0.5c9.4-6.2,17.6-8.9,24.7-7.8C56.4-0.4,35.9-4,24.1,7.7C9.6,4.8-0.5,17.1,0,28.4
		s12.8,18.3,19.8,16.4c0.2,0,0.3,0,0.5,0C21.9,37.3,28.2,20,53.8,11.1L53.8,11.1z M112.3,21.5l1.3-5.7l-21.8,0L91.2,18
		c-0.4,1.3,0.3,2.8,1.7,3.2c0.3,0.1,0.6,0.1,1,0.1l10.1,0L86,37.1l-1.2,5.3l23.1,0l1.3-5.8l-14.6,0L112.3,21.5z M126.8,26.1
		c-1-0.3-6.8-1.1-6.4-3.1c0.4-2.2,3.1-2.4,4.5-2.4c2.7,0.1,3.6,1.3,3.7,1.7c0.3,1.1,1.4,1.8,2.5,1.7l4.3,0c0.5-2.7,0.6-8.8-9.4-8.8
		c-3.2,0-7.5,0.8-10.3,4.1c-1.5,1.7-4.1,6.1-1.5,9.4c1.4,1.7,5,2.9,9,3.7c2.5,0.5,3.9,1.5,3.6,2.7c-0.2,0.8-1.2,2.6-4.9,2.6
		c-1.7,0-5.3-0.3-4.6-4l-6.8,0c-0.8,3.4-1.1,9.3,9.3,9.3c4,0,12.2-0.5,14.3-9C135.6,27.8,128.7,26.6,126.8,26.1L126.8,26.1z
		 M150.9,35.6c-1.2,1.1-2.8,1.7-4.4,1.6c-5.2,0-4.6-5-3.9-8.1s2.4-8,7.3-8c3.5,0,3.9,2.3,4,2.9l7,0c-0.2-7.4-5.9-8.8-9.9-8.7
		c-11,0.3-14.2,9.4-15.2,13.7c-2.9,12.5,5.1,14,8.9,14c6,0.2,11.5-3.3,14-8.7l-5,0C152.7,34.3,151.6,34.7,150.9,35.6L150.9,35.6z
		 M179.5,38.2c-2,2.4-4.8,4-7.9,4.4c-6.1,1-14.5,0.7-12.4-8c0.7-2.8,1.7-4.6,3.8-6c3.5-2.3,8.2-2.6,9.7-2.8c0.5,0,4.4-0.3,5-2.6
		s-2.9-2.4-3.9-2.4c-3,0-4,1.2-4.6,1.9l-6.7,0c2.7-7.1,10.2-7.4,12.2-7.4c2.3,0,11.3,0,9.6,7.5C181.9,34.3,181.8,35.5,179.5,38.2
		L179.5,38.2z M176.6,29.1c-1.4,0.5-2.8,1-4.2,1.3c-1.4,0.4-4,0.6-5.3,1.8c-1.1,1-3,5.3,1.6,5.4c3.7,0.1,6.9-2.6,7.4-6.2
		C176.2,30.4,176.6,29.1,176.6,29.1L176.6,29.1z M193.9,8.1l-3.6,0l-7.9,34.5l7,0l7.2-31.2c0.4-1.3-0.3-2.8-1.6-3.2
		C194.6,8.1,194.2,8.1,193.9,8.1L193.9,8.1z M212,34.4l5,0c-2.6,5.4-8,8.8-14,8.7c-10.7,0-10-9.5-8.9-14c3-12.5,11.4-13.7,15.2-13.7
		c5,0,12.8,2.1,8.8,15.8l-17.3,0c-0.4,1.8-0.8,6.3,4,6.2c1.3,0.1,2.6-0.3,3.7-1C209.1,35.9,209.7,34.4,212,34.4L212,34.4z
		 M201.8,26.6l10.2,0c0.9-4.9-2.2-5.4-3.9-5.4C206.7,21.1,203.2,21.7,201.8,26.6L201.8,26.6z M227.1,18.9c-4.7,3.2-6.3,8.3-6.8,10.8
		c-0.4,1.9-3,12.9-3,12.9l7,0c0,0,2.7-12.1,3.2-13.7c0.6-1.9,2.4-7.2,9.4-6.9l1.6-6C234.5,15.7,230.5,16.7,227.1,18.9L227.1,18.9z
		 M239.3,10.8l0.2-0.8l3.8,0l-0.2,0.8l-1.4,0l-0.8,3.7l-1,0l0.8-3.7L239.3,10.8z M245.5,10l0.3,3.3l0,0l1.8-3.3l1.4,0l-1,4.5l-0.9,0
		l0.8-3.6l0,0l-1.9,3.6l-0.8,0l-0.4-3.6l0,0l-0.7,3.6l-0.9,0l1-4.5L245.5,10z">
  </path>
 </g>
</svg>