<svg version="1.1" id="Layer_1" xmlns:x="ns_extend;" xmlns:i="ns_ai;" xmlns:graph="ns_graphs;" xmlns="http://www.w3.org/2000/svg" xmlns:xlink="http://www.w3.org/1999/xlink" x="0px" y="0px" viewBox="0 0 300 96" style="enable-background:new 0 0 300 96;" xml:space="preserve">
 <style type="text/css">
  .st0{filter:url(#Adobe_OpacityMaskFilter);}
	.st1{fill-rule:evenodd;clip-rule:evenodd;fill:#FFFFFF;}
	.st2{mask:url(#b_1_);fill-rule:evenodd;clip-rule:evenodd;fill:#00629B;}
	.st3{fill-rule:evenodd;clip-rule:evenodd;fill:#00629B;}
	.st4{fill-rule:evenodd;clip-rule:evenodd;fill:#787878;}
	.st5{filter:url(#Adobe_OpacityMaskFilter_1_);}
	.st6{mask:url(#d_1_);fill-rule:evenodd;clip-rule:evenodd;fill:#787878;}
 </style>
 <metadata>
  <sfw xmlns="ns_sfw;">
   <slices>
   </slices>
   <sliceSourceBounds bottomLeftOrigin="true" height="96" width="300" x="-133.1" y="0.3">
   </sliceSourceBounds>
  </sfw>
 </metadata>
 <g>
  <g transform="translate(31.54 .168)">
   <defs>
    <filter id="Adobe_OpacityMaskFilter" filterUnits="userSpaceOnUse" x="25.6" y="-0.2" width="44.3" height="71.5">
     <feColorMatrix type="matrix" values="1 0 0 0 0  0 1 0 0 0  0 0 1 0 0  0 0 0 1 0">
     </feColorMatrix>
    </filter>
   </defs>
   <mask maskUnits="userSpaceOnUse" x="25.6" y="-0.2" width="44.3" height="71.5" id="b_1_">
    <g class="st0">
     <path id="a_1_" class="st1" d="M25.6-0.2h44.3v71.5H25.6V-0.2z">
     </path>
    </g>
   </mask>
   <path class="st2" d="M49.1,18.5c-5.9,0-10.9,2-14.7,5.8V-0.2h-8.8v71.5h8.8V41.7c0-8.5,5.9-14.8,14.1-14.8c7.9,0,12.7,5.2,12.7,14
			v30.4h8.8V40.2C69.9,27.2,61.6,18.5,49.1,18.5">
   </path>
  </g>
  <path class="st3" d="M114.3,55.2c0-5.6,5-8.9,13.2-8.9c5.7,0,10.1,0.8,13.7,1.7v3.7c0,7.1-6.7,12.4-15.5,12.4
		c-5.7,0-11.4-3-11.4-8.7L114.3,55.2L114.3,55.2L114.3,55.2z M128.2,19c-7.4,0-13,2.2-17.5,4.3l-1.9,0.9l3.3,8.1l2.1-1.1
		c4.7-2.4,9.1-3.6,13.7-3.6c5.9,0,12.9,2.1,13.2,11.6c-3.5-0.8-7.6-1.5-13.3-1.5c-13.7,0-22.6,6.9-22.6,17.6v0.2
		c0,11.1,10.4,17.1,20.2,17.1c7.3,0,12.4-2.7,15.8-5.7v4.5h8.7V39.7C149.9,26.8,141.8,19,128.2,19z M163.7,27.9v-8.1h-8.8v51.8h8.8
		V50c0-14.9,9.1-21.6,18.1-21.6h2.6V19h-2.1C175.3,19,168.5,22,163.7,27.9 M209.3,63.8c-5,0-7.2-2.2-7.2-7V28.4h16.4V19H202V4.6
		h-8.8V19h-5.9v9.4h5.9v28.8c0,9.4,5.8,15.2,15.3,15.2c3.1,0,5.7-0.6,8.5-1.9l1.3-0.6v-9l-3,1.4C212.8,63.4,211.2,63.8,209.3,63.8">
  </path>
  <path class="st3" d="M242,27.2c9,0,13.2,6.9,14.4,14.1h-29.1C228.8,33,234.7,27.2,242,27.2 M242.2,18.7c-13.7,0-24.4,11.8-24.4,27
		v0.2c0,15.4,10.8,27,25.1,27c10.7,0,16.8-5.1,21-9.6l1.5-1.6l-6.3-5.7l-1.4,1.6c-4.2,4.6-8.8,6.7-14.5,6.7
		c-6.7,0-14.2-4.5-15.9-14.4h38.4l0.1-1.9l0.1-1.9v-0.2C265.8,29.8,256.1,18.7,242.2,18.7 M298,19c-7.2-0.3-13.9,3-18.7,8.8v-8.1
		h-8.8v51.8h8.8V50c0-14.9,9.1-21.6,18.1-21.6h2.6v-9.3C300,19.1,298,19,298,19z M46.3,58.1c-4.7,3.9-9.3,5.7-14.9,5.7
		C18.8,63.8,9,52,9,36.8c0-15.3,9.7-26.8,22.4-26.8c5.4,0,9.8,1.6,14.3,5.3l1.5,1.2l6.5-6.6l-1.8-1.5c-3.7-3.1-9.8-7.3-20.4-7.3
		C13.5,1.1,0,16.5,0,37c0,20.4,13.4,35.7,31.3,35.7c10.9,0,17.2-4.7,21-8.2l1.7-1.5l-6.1-6.2C47.9,56.9,46.3,58.1,46.3,58.1z">
  </path>
  <path class="st4" d="M5.3,89c0-3.9,2.8-7,6.9-7c2.4,0,3.9,0.8,5.2,2.1l-1.5,1.8c-1.1-1-2.2-1.7-3.7-1.7c-2.5,0-4.4,2.1-4.4,4.8V89
		c0,2.7,1.9,4.8,4.4,4.8c1.6,0,2.7-0.7,3.8-1.8l1.5,1.5c-1.4,1.5-2.9,2.4-5.4,2.4C8.1,96,5.3,92.9,5.3,89 M37.2,89
		c0-2.7-1.9-4.8-4.5-4.8s-4.5,2.1-4.5,4.8V89c0,2.6,1.9,4.8,4.5,4.8C35.3,93.8,37.2,91.7,37.2,89 M25.7,89c0-3.8,2.9-7,7-7
		c4.1,0,6.9,3.1,6.9,7V89c0,3.8-2.9,7-7,7C28.6,96,25.7,92.8,25.7,89 M49.3,82.3h2.5l4.1,6.4l4.1-6.4h2.5v13.5h-2.3v-9.7l-4.2,6.4
		h-0.1l-4.2-6.3v9.6h-2.3L49.3,82.3L49.3,82.3z M72.6,82.3h2.5l4.1,6.4l4.1-6.4h2.5v13.5h-2.3v-9.7l-4.2,6.4h-0.1L75,86.1v9.6h-2.3
		L72.6,82.3L72.6,82.3z M95.7,90.1v-7.8h2.3V90c0,2.5,1.3,3.8,3.3,3.8c2.1,0,3.3-1.3,3.3-3.8v-7.8h2.3v7.6c0,4.1-2.3,6.1-5.7,6.1
		C97.9,96,95.7,93.9,95.7,90.1 M117.2,82.3h2.1l7.1,9.3v-9.3h2.3v13.5h-2l-7.3-9.6v9.6h-2.3L117.2,82.3L117.2,82.3z">
  </path>
  <defs>
   <filter id="Adobe_OpacityMaskFilter_1_" filterUnits="userSpaceOnUse" x="139.1" y="82" width="140" height="14">
    <feColorMatrix type="matrix" values="1 0 0 0 0  0 1 0 0 0  0 0 1 0 0  0 0 0 1 0">
    </feColorMatrix>
   </filter>
  </defs>
  <mask maskUnits="userSpaceOnUse" x="139.1" y="82" width="140" height="14" id="d_1_">
   <g class="st5">
    <path id="c_1_" class="st1" d="M0,96h300V0H0V96z">
    </path>
   </g>
  </mask>
  <path class="st6" d="M139.1,95.8h2.3V82.3h-2.3L139.1,95.8z M151.3,89c0-3.9,2.8-7,6.9-7c2.4,0,3.9,0.8,5.2,2.1l-1.5,1.8
		c-1.1-1-2.2-1.7-3.7-1.7c-2.5,0-4.4,2.1-4.4,4.8V89c0,2.7,1.9,4.8,4.4,4.8c1.6,0,2.7-0.7,3.8-1.8l1.5,1.5c-1.4,1.5-2.9,2.4-5.4,2.4
		C154.2,96,151.3,92.9,151.3,89 M180.8,90.4l-2.3-5.4l-2.3,5.4H180.8z M177.4,82.2h2.1l5.8,13.6H183l-1.4-3.3h-6.3l-1.4,3.3h-2.4
		C171.6,95.8,177.4,82.2,177.4,82.2z M196.1,84.5h-4.2v-2.2h10.8v2.2h-4.2v11.3h-2.3V84.5z M212.2,95.8h2.3V82.3h-2.3V95.8z
		 M235.8,89c0-2.7-1.9-4.8-4.5-4.8c-2.6,0-4.5,2.1-4.5,4.8V89c0,2.6,1.9,4.8,4.5,4.8C233.9,93.8,235.8,91.7,235.8,89 M224.3,89
		c0-3.8,2.9-7,7-7c4.1,0,6.9,3.1,6.9,7V89c0,3.8-2.9,7-7,7C227.2,96,224.3,92.8,224.3,89 M247.9,82.3h2.1l7.1,9.3v-9.3h2.3v13.5h-2
		l-7.3-9.6v9.6h-2.3L247.9,82.3L247.9,82.3z M268.8,93.8l1.4-1.7c1.3,1.1,2.6,1.8,4.2,1.8c1.4,0,2.3-0.7,2.3-1.7v-0.1
		c0-1-0.5-1.5-3-2.1c-2.8-0.7-4.4-1.5-4.4-4.1v-0.1c0-2.3,1.9-3.9,4.5-3.9c1.9,0,3.5,0.6,4.8,1.7l-1.3,1.8c-1.2-0.9-2.4-1.4-3.6-1.4
		c-1.4,0-2.1,0.7-2.1,1.6v0.1c0,1,0.6,1.5,3.2,2.1c2.8,0.7,4.2,1.7,4.2,3.9v0.1c0,2.5-2,4.1-4.8,4.1
		C272.4,95.9,270.4,95.2,268.8,93.8">
  </path>
 </g>
</svg>