<svg version="1.1" id="Layer_1" xmlns:x="ns_extend;" xmlns:i="ns_ai;" xmlns:graph="ns_graphs;" xmlns="http://www.w3.org/2000/svg" xmlns:xlink="http://www.w3.org/1999/xlink" x="0px" y="0px" viewBox="0 0 203 40" style="enable-background:new 0 0 203 40;" xml:space="preserve">
 <style type="text/css">
  .st0{fill:#212529;}
	.st1{fill:#64BE49;}
 </style>
 <metadata>
  <sfw xmlns="ns_sfw;">
   <slices>
   </slices>
   <sliceSourceBounds bottomLeftOrigin="true" height="40" width="202.6" x="0" y="0">
   </sliceSourceBounds>
  </sfw>
 </metadata>
 <g>
  <path class="st0" d="M83.8,7.8c-6.8,0-12.4,5.5-12.4,12.4c0,6.8,5.5,12.4,12.4,12.4S96.1,27,96.1,20.2C96.1,13.4,90.6,7.8,83.8,7.8
		z M83.8,27.5c-4.2,0-7-3.2-7-7.3s2.8-7.3,7-7.3c4.2,0,7,3.3,7,7.3C90.7,24.3,87.9,27.5,83.8,27.5z M51.5,32h5.1v-9.5H67v-4.8H56.6
		v-4.4h12.5V8.4H51.5V32z M190,27.2v-4.7h10.7v-4.8H190v-4.4h12.5V8.4h-17.6v23.6h17.7v-4.9H190z M148.2,32h5.1V8.4h-5.1V32z
		 M169.1,21.7l-6.3-13.3H157l12,23.9l12-23.9h-5.6L169.1,21.7z M122.9,13.3h7.6V32h5.1V13.3h7.6V8.4h-20.3L122.9,13.3z M119.6,15.5
		c0-3.9-3.1-7.1-7.1-7.1h-12.1v23.6h5.1v-9.5h1.9l6.6,9.5h6.3l-7-9.5C116.9,22,119.6,19.1,119.6,15.5z M105.5,17.7v-4.4h6.7
		c1.2,0,2.2,1,2.2,2.2s-1,2.2-2.2,2.2H105.5L105.5,17.7z">
  </path>
  <path class="st1" d="M24.3,19.5l-11.8,6.8v6.2l11.8-6.8V19.5z M20,0C9,0,0,8.9,0,20c0,6.3,2.9,11.8,7.4,15.5l5.1-3
		C8.2,30,5.4,25.3,5.4,20c0-8.1,6.5-14.6,14.6-14.6c2.7,0,5.3,0.8,7.5,2L12.5,16v6.2l14.9-8.6V7.4c4.3,2.5,7.1,7.2,7.1,12.5
		c0,8.1-6.5,14.6-14.6,14.6c-2.7,0-5.3-0.8-7.5-2v6c2.3,0.9,4.8,1.5,7.5,1.5c11,0,20-9,20-20C40,8.9,31,0,20,0z">
  </path>
 </g>
</svg>