<svg version="1.1" id="Layer_1" xmlns:x="ns_extend;" xmlns:i="ns_ai;" xmlns:graph="ns_graphs;" xmlns="http://www.w3.org/2000/svg" xmlns:xlink="http://www.w3.org/1999/xlink" x="0px" y="0px" viewBox="0 0 554.8 86" style="enable-background:new 0 0 554.8 86;" xml:space="preserve">
 <style type="text/css">
  .st0{fill:#00DC5A;}
 </style>
 <metadata>
  <sfw xmlns="ns_sfw;">
   <slices>
   </slices>
   <sliceSourceBounds bottomLeftOrigin="true" height="86" width="554.8" x="-311.6" y="-206.5">
   </sliceSourceBounds>
  </sfw>
 </metadata>
 <g>
  <path class="st0" d="M554.1,7.1H545c-0.3,0-0.6-0.2-0.6-0.5V1c0-0.4-0.3-0.6-0.6-0.6h-11.4c-0.4,0-0.6,0.3-0.6,0.6v5.6
		c0,0.3-0.3,0.5-0.6,0.5h-29.6c-0.3,0-0.6-0.2-0.6-0.5V6.5c0,0,0,0,0-0.1V1c0-0.4-0.3-0.6-0.7-0.6H489c-0.4,0-0.7,0.3-0.7,0.6v5.6
		c-0.1,0.3-0.3,0.5-0.6,0.5h-9.1c-0.3,0-0.6,0.2-0.6,0.5v8.6c0,0.4,0.3,0.7,0.7,0.7h8.9c0.5,0,0.6,0.3,0.7,0.5v6.8
		c0,0.4,0.3,0.6,0.7,0.6h11.4c0.4,0,0.7-0.3,0.7-0.6v-6.6c0,0,0-0.1,0-0.1v-0.1c0-0.2,0.1-0.5,0.7-0.5h29.4c0.5,0,0.6,0.3,0.7,0.5
		v6.8c0,0.4,0.3,0.7,0.6,0.7h11.4c0.4,0,0.7-0.3,0.7-0.7v-6.7c0-0.2,0.1-0.5,0.7-0.5h9c0.4,0,0.7-0.3,0.7-0.6V7.8
		C554.8,7.4,554.5,7.1,554.1,7.1L554.1,7.1z M308.4,11.3c0,0.6,0.5,1,1.1,0.9c6.4,0,40-0.5,47.1-0.5c5.5,0,15.6-0.5,21-1.5
		c0.3-0.1,0.8-0.4,0.7-1.3c-0.1-0.9-1.2-6.7-1.4-7.4c-0.1-0.5-0.7-0.9-1.2-0.7c-7,1-14.1,1.4-21.2,1.4c0,0-43.9,0.5-45,0.5
		c-0.6-0.1-1.1,0.4-1.1,1L308.4,11.3z M332,33c0.4,0,0.7,0.3,0.6,0.7c-0.1,1-0.2,1.6-0.3,2.5c0,0.1,0,0.2,0.2,0.2h45.1
		c0.4,0,0.6,0.3,0.6,0.7v8c0,0.4-0.3,0.6-0.6,0.7h-47c-0.2,0-0.3,0.2-0.3,0.2l-0.3,0.9c-0.3,0.9-0.5,1.8-0.8,2.6
		c0,0-0.1,0.3,0.3,0.3h40.3c4.9,0,4.9,4.7,4.7,6.1c-0.7,3.4-2,6.7-3.9,9.6c-1.6,2.5-4.6,5.7-7.3,8.1c3.9,1.1,7.9,1.7,14.3,2
		c0.4-0.1,0.8,0.3,0.7,0.7v9.2c0,0.5-0.3,0.7-0.7,0.7c-9.7,0-19.2-1.7-28.3-4.9c-9.8,3.3-21,5.1-30.1,5c-0.3,0-0.9-0.1-0.9-0.8v-9
		c0-0.4,0.4-0.8,0.8-0.7c5.6,0,11.3-0.6,16.8-1.9c-3.8-2.8-7-6.3-9.6-10.3c-0.1-0.1-1-1.6,0.5-1.6h12c0.3,0,0.7,0.1,0.9,0.3
		c2.6,3.3,6,6,9.9,7.8l0.4-0.2l0.5-0.3c5.9-3.3,8.5-7.2,9.7-10c0.1-0.3,0.7-1.3-0.5-1.3h-32.8c-0.5,0-0.6,0.3-0.6,0.3l-0.4,0.8
		c-4,9-9.1,17.5-15.1,25.3c-0.2,0.3-0.7,0.4-1,0.1c-0.2-0.1-2.3-1.6-4.5-3l-0.5-0.3c-1.4-0.9-2.7-1.9-4.1-2.8c0,0-0.5-0.3-0.1-1
		c7.9-10.4,13.7-21,16.7-31.4c0.1-0.2-0.1-0.2-0.1-0.2h-11.5c-0.4,0-0.7-0.3-0.7-0.7v-7.9c0-0.4,0.3-0.7,0.7-0.7H319
		c0.1,0,0.2-0.1,0.2-0.1v0l0.1-0.4c0.1-0.8,0.2-1.5,0.2-2.4c0-0.2,0.1-0.3,0.1-0.4c0.1-0.1,0.3-0.3,0.5-0.2H332z M369.8,15.1
		c0.4-0.1,0.7,0.3,0.7,0.6v4.8c0,0.1,0.1,0.2,0.2,0.2h6.5c3.9,0,4.7,2.7,4.8,6.2v6.5c0,0.4-0.3,0.6-0.7,0.7h-11.5
		c-0.7,0-0.7-0.7-0.7-0.7v-2.8c0-0.5-0.1-0.9-0.8-0.9h-52c-0.3,0-0.6,0.3-0.6,0.6V33c0,0.2-0.1,0.7-0.8,0.7h-11.2
		c-0.5,0-0.8-0.3-0.8-0.7V21.6c0-0.5,0.5-0.9,1-0.9h9.7c0.2,0,0.3-0.1,0.3-0.3v-4.7c0-0.4,0.3-0.7,0.7-0.7h10.7
		c0.4-0.1,0.7,0.3,0.7,0.6v4.8c0,0.1,0.1,0.2,0.3,0.2h9.6c0.1,0,0.3-0.1,0.3-0.3v-4.7c0-0.4,0.3-0.7,0.7-0.7h11.1
		c0.4-0.1,0.7,0.3,0.7,0.6v4.7c0,0.1,0.1,0.3,0.3,0.3h9.3c0.1,0,0.3-0.1,0.3-0.3v-4.7c0-0.4,0.3-0.7,0.7-0.7H369.8z M394.7,16h23.3
		c0.1,0,0.3,0,0.2,0.2c-5.3,5.4-13.9,7.4-21.2,8.6c-0.7,0.1-1.2,0.2-1.2,1.2v7.5c0,0.9,0.7,0.8,1.1,0.7c8.5-1,18.3-3.7,24-7.6
		c3.9-2.7,6.9-5,9.4-8.3c6.8,9.6,17.5,14.5,34.2,16c0.3,0,1-0.1,1-0.7v-7.7c0-0.9-0.5-0.9-0.9-0.9c-9-1-18-3.9-22.6-8.6
		c-0.1-0.2,0.1-0.2,0.2-0.2h23.4c0,0,0.6,0,0.6-0.6V6.8c0-0.7-0.8-0.6-0.8-0.6h-27.9c-0.4,0-0.5-0.3-0.5-0.4V0.6
		c0-0.3-0.2-0.6-0.6-0.6h-12.6c-0.4,0-0.7,0.3-0.6,0.7v5.1c0,0.2-0.1,0.4-0.5,0.4h-28.1c-0.3,0-0.6,0.2-0.6,0.5v8.7
		C394.1,15.5,394,16,394.7,16L394.7,16z M468.9,35.7c0.3,0,0.6,0.3,0.6,0.6v8.5c0,0.3-0.3,0.7-0.6,0.7h-4.2c-0.4,0-0.7,0.3-0.7,0.7
		c0,2.2,0.1,5.3,0.1,8.4v1.8c0,1.4,0,2.8,0,4.1V62c0,2.9,0,5.2-0.1,6.1c-0.4,9-2.1,13.7-9.9,17.6c-1.2,0.7-1.8-0.2-1.8-0.2
		s-1.2-1.6-2.6-3.4l-0.3-0.4c-1.4-1.8-2.8-3.7-2.9-3.9c-0.3-0.5,0.1-0.9,0.5-1.1c4-2,4.6-4.1,4.6-10.1V46.2c0-0.4-0.3-0.7-0.7-0.7
		h-59.7c-0.4,0-0.7-0.3-0.7-0.6v-8.6c0-0.3,0.3-0.6,0.7-0.6H468.9z M437.1,50.4c3.8,0,6.9,3.1,6.9,6.9v17.1c0,3.8-3.1,6.9-6.9,6.9
		h-34.2c-3.8,0-7-3.1-7-6.9v-17c0-3.8,3.1-7,7-7H437.1z M431.2,58.8h-22.4c-0.6,0-1.1,0.5-1.1,1.1V72c0,0.6,0.5,1,1.1,1h22.4
		c0.6,0,1.1-0.5,1.1-1.1v-12l0-0.1C432.2,59.2,431.7,58.8,431.2,58.8L431.2,58.8z M550.6,75.5h-52.1c-0.8,0-1.5-0.6-1.7-1.4
		c-0.1-0.7,0.3-1.4,0.8-1.7l41.1-20.6l5.9-3c1.1-0.6,2.2-1.4,3.1-2.2c1-0.9,1.7-2,2.2-3.2c0.5-1.2,0.7-2.5,0.7-3.8
		c0.1-5.2-4-9.5-9.2-9.7h-57.8c-0.4,0-0.7,0.3-0.7,0.6v9c0,0.3,0.3,0.7,0.7,0.7h50.6c0.5,0,0.9,0.4,0.9,0.9c0,0.3-0.2,0.6-0.5,0.8
		l-0.4,0.2l-0.2,0.1l-0.9,0.5c-6.3,3.4-42.8,21.2-46.2,23.6c-0.4,0.3-0.8,0.5-1.1,0.8c-0.7,0.5-1.4,1.1-2,1.7
		c-0.1,0.2-0.2,0.3-0.3,0.4l0,0.1c-0.1,0.1-0.2,0.3-0.3,0.4l0,0.1c-0.1,0.1-0.2,0.3-0.3,0.4v0.1c-0.3,0.5-0.6,1-0.8,1.5
		c-0.1,0.1-0.1,0.3-0.2,0.5l-0.1,0.1c0,0.1-0.1,0.3-0.1,0.4l-0.1,0.2c0,0.1-0.1,0.2-0.1,0.3c0,0.1,0,0.2-0.1,0.2
		c0,0.1,0,0.2-0.1,0.4c0,0.1,0,0.1,0,0.2c0,0.1,0,0.2-0.1,0.4c0,0.1,0,0.1,0,0.2c0,0.1,0,0.3,0,0.4c0,0.1,0,0.1,0,0.2v1.8
		c0,0.1,0,0.2,0.1,0.3c0,0.1,0,0.1,0,0.2c0,0.1,0,0.2,0.1,0.3c0,0.1,0,0.1,0,0.2l0.1,0.3l0.1,0.2c0,0.1,0.1,0.2,0.1,0.3
		c0,0.1,0,0.1,0.1,0.2l0.1,0.3l0.1,0.2c0,0.1,0.1,0.2,0.1,0.3l0.1,0.2c0,0.1,0.1,0.1,0.1,0.2c0.1,0.1,0.1,0.1,0.1,0.2
		c0,0.1,0.1,0.1,0.1,0.2c0,0.1,0.1,0.1,0.1,0.2l0.1,0.2l0.1,0.2l0.1,0.2l0.1,0.2l0.2,0.2l0.1,0.2l0.3,0.4l0.3,0.4l0.5,0.5l0.2,0.1
		l0.2,0.2l0.2,0.2l0.2,0.2l0.2,0.1l0.4,0.3l0.2,0.1l0.2,0.1l0.2,0.1l0.2,0.1l0.2,0.1l1.1,0.5l0.2,0.1l0.3,0.1l0.2,0.1l0.3,0.1
		l0.3,0.1l0.3,0.1l0.2,0c0.1,0,0.2,0,0.3,0.1h60.6c0.3,0,0.7-0.3,0.7-0.6v-9C551.3,75.8,551,75.5,550.6,75.5L550.6,75.5z
		 M137.3,85.2c0,0.4,0.4,0.7,0.8,0.7h18.4c0.4,0,0.8-0.3,0.8-0.7V2.6c0-0.4-0.4-0.7-0.8-0.7H138c-0.4,0-0.8,0.3-0.8,0.7V85.2z
		 M1.7,85.2c0,0.4,0.4,0.7,0.8,0.7h18.4c0.4,0,0.8-0.3,0.8-0.7v-52c0-0.4-0.4-0.7-0.8-0.7H2.5c-0.4,0-0.8,0.3-0.8,0.7V85.2z
		 M125.1,71.7l-9.1-7.3c-0.2-0.2-0.3-0.4-0.4-0.6c-0.1-0.2,0-0.5,0.1-0.7c10.2-19.3,4.4-43.2-13.6-55.5c-18-12.4-42.3-9.3-56.7,7.1
		c-14.4,16.4-14.2,41,0.5,57.2C60.6,88,85,90.6,102.8,77.9c0.3-0.3,0.9-0.3,1.2,0l9.8,7.8c0.3,0.3,0.8,0.2,1.1-0.1l10.3-12.8
		C125.5,72.5,125.4,72,125.1,71.7L125.1,71.7z M82.2,67.8C68.9,70.3,56,61.1,53.5,47.5c-2.5-13.6,6.4-26.7,19.7-29.1
		C86.6,16,99.5,25.1,102,38.7C104.4,52.4,95.6,65.4,82.2,67.8L82.2,67.8z M275.6,1.9h-18.4c-0.4,0-0.8,0.3-0.8,0.7v82.6
		c0,0.4,0.4,0.7,0.8,0.7h18.4c0.4,0,0.8-0.3,0.8-0.7V2.6C276.3,2.2,276,1.9,275.6,1.9L275.6,1.9z M11.7,0.3C5.2,0.3,0,5.5,0,12
		s5.2,11.7,11.7,11.7c6.5,0,11.7-5.3,11.7-11.7S18.2,0.3,11.7,0.3L11.7,0.3z M246.6,1.9h-19.7c-0.3,0-0.6,0.1-0.8,0.5l-18.3,32.4
		c0,0-0.1,0.3-0.3,0.3c-0.2,0-0.3-0.3-0.3-0.3L189,2.4c-0.2-0.3-0.5-0.5-0.8-0.5h-19.6c-0.7,0-1.1,0.8-0.7,1.4l29.2,49.1
		c0.3,0.5,0.4,1,0.4,1.6v31.1c0,0.5,0.4,0.9,0.8,0.9h18.5c0.5,0,0.8-0.4,0.8-0.9V54c0-0.6,0.2-1.1,0.4-1.6l29.2-49.1
		C247.7,2.7,247.3,1.9,246.6,1.9L246.6,1.9z M246.6,1.9">
  </path>
 </g>
</svg>