<svg version="1.1" id="Layer_1" xmlns="http://www.w3.org/2000/svg" xmlns:xlink="http://www.w3.org/1999/xlink" x="0px" y="0px" viewBox="219.8 106.4 703 189.9" style="enable-background:new 219.8 106.4 703 189.9;" xml:space="preserve">
 <style type="text/css">
  .st0{fill:#212529;}
 </style>
 <title>
  intuitive-logo
 </title>
 <g id="XMLID_17_">
  <path id="ana_1_" class="st0" d="M570.7,106.4c13.9,0,25.2,11.3,25.2,25.2c0,13.9-11.3,25.2-25.2,25.2l0,0l0,0
		c-13.9,0-25.2-11.3-25.2-25.2C545.5,117.7,556.8,106.4,570.7,106.4z M570.7,144.5c7.1,0.4,13.3-5,13.7-12.2
		c0.4-7.1-5-13.3-12.2-13.7c-0.5,0-1,0-1.5,0l0,0c-7.1,0.4-12.6,6.6-12.2,13.7C559,138.9,564.2,144.1,570.7,144.5z M564.3,294.5V180
		h12.9v114.5L564.3,294.5z M219.8,294.5V180h12.9v114.5L219.8,294.5z M327.6,180h11.6v114.5h-14.6l-39.6-95.8v95.8h-11.6V180h15.5
		l38.7,92.9L327.6,180L327.6,180z M713,294.5V180H726v114.5H713z M922.7,191.6h-40.9v36.6h37.9v11.6h-37.9v43.1h40.9v11.6h-53.4V180
		h53.4V191.6z M820.8,180h13.4l-29.7,114.5h-15l-28-114.5h13.4L797,280.4L820.8,180L820.8,180z M611.4,180h63.7v11.6h-25.4v102.9
		h-12.9V191.6h-25.4V180z M368,180h63.7v11.6h-25.4v102.9h-12.9V191.6H368L368,180L368,180z M513.3,180h12.5v84.8
		c-0.4,17.2-14.1,31.4-31.4,31.4s-31-14.2-31.4-31.4V180h12.9v85c0.3,10.3,8.4,18.7,18.7,18.7s18.5-8.5,18.7-18.7L513.3,180z">
  </path>
 </g>
</svg>