<svg fill="none" height="78" viewBox="0 0 258 78" width="258" xmlns="http://www.w3.org/2000/svg"><path d="m242.514 40.6572c2.268.0975 5.886.2437 7.285 5.0196.408 1.4746.603 3.0012.579 4.5323.007 1.0493-.107 2.096-.338 3.119-1.158 4.9221-4.438 5.1658-7.574 5.2145h-2.943v-17.8854zm-10.179-7.1639v32.1645h7.671c4.969 0 7.911 0 10.516-1.1209 4.921-2.0468 6.272-6.7253 6.803-8.8208.467-1.9295.694-3.9105.675-5.8969 0-5.7506-1.785-9.8443-3.908-12.1835-3.714-3.9962-8.731-4.045-15.823-4.1424zm-12.929 0v19.2012l-10.42-19.2012h-6.995v32.1645h6.85v-19.25l10.324 19.25h7.14v-32.1645zm-34.397 10.5753 3.426 11.3551h-6.899zm-3.57-10.5753-10.323 32.1645h7.236l1.302-4.2886h10.662l1.351 4.2886h7.767l-10.855-32.1645zm-22.77 18.8114c.965 0 2.171.0487 3.136.7797.386.3034.693.6971.894 1.1471.202.45.292.9427.264 1.4358.019.9162-.309 1.8052-.917 2.4855-.868.8772-2.171.9259-3.184.9259h-6.272v-6.774zm-.338-12.0861c1.303 0 3.811.0487 3.811 2.9728 0 2.6316-2.412 2.6804-3.666 2.7291h-5.982v-5.7019zm-13.025-6.7253v32.1645h14.907c2.846-.0487 7.381-.0974 9.311-4.8734.465-1.2283.694-2.535.675-3.85 0-1.8031-.386-5.2145-3.281-7.2614-.83-.6479-1.845-1.0069-2.894-1.0234.844-.0512 1.664-.3031 2.393-.735s1.348-1.0316 1.804-1.7504c.768-1.2596 1.169-2.712 1.158-4.1912 0-2.4367-.772-4.581-2.123-5.9943-2.315-2.4367-5.692-2.4854-9.407-2.4854zm-19.49 7.1639c2.267.0975 5.886.2437 7.285 5.0196.408 1.4746.603 3.0012.579 4.5323.006 1.0493-.107 2.096-.338 3.119-1.158 4.9221-4.438 5.1658-7.574 5.2145h-2.991v-17.8854zm-10.227-7.1639v32.1645h7.67c4.969 0 7.912 0 10.517-1.1209 4.921-2.0468 6.271-6.7253 6.802-8.8208.468-1.9295.695-3.9105.676-5.8969 0-5.7506-1.785-9.8443-3.908-12.1835-3.715-3.9962-8.732-4.045-15.824-4.1424zm-16.837 10.5753 3.425 11.3551h-6.8984zm-3.5699-10.5753-10.3239 32.1645h7.2364l1.3025-4.2886h10.6619l1.35 4.2886h7.768l-10.855-32.1645zm-24.8448 6.4816c4.583-.0974 6.561 4.2886 6.561 9.6494 0 2.6804-.4342 5.4582-2.0745 7.4076-.5344.6816-1.2172 1.2297-1.9953 1.6016s-1.6305.5576-2.4912.5427c-4.4865 0-6.6092-4.2886-6.6092-9.893 0-5.2633 2.2192-9.2108 6.6092-9.3083zm0-7.0177c-3.4603-.0757-6.809 1.2388-9.3108 3.6551-4.4865 4.2886-4.9689 9.893-4.9689 12.8658 0 4.3861 1.2543 8.6747 3.9559 11.9399 1.2062 1.4 2.6777 2.542 4.3277 3.3584 1.6501.8165 3.4452 1.2909 5.2797 1.3954 1.8344.1044 3.671-.1632 5.4014-.7871 1.7304-.624 3.3197-1.5916 4.674-2.8458 4.4866-4.3374 4.969-9.9906 4.969-12.8659-.0483-9.0158-5.3067-16.7158-14.328-16.7158zm-31.261 7.2614c1.8332 0 3.9558.0487 5.0654.8772.4824.3411 1.399 1.2671 1.399 3.1677 0 1.2671-.4341 2.8266-1.9296 3.5576-1.0131.5361-2.2192.5361-4.9208.5361l-2.4603-.0487v-8.0899zm-10.1309-6.7253v32.1645h7.2846v-10.8189h3.7146l5.2102 10.8189h7.96l-5.8373-12.1835c3.9076-1.4133 5.7891-5.2146 5.7891-9.3082 0-3.5089-1.3026-6.238-2.9911-7.9437-2.8945-2.7779-6.7539-2.7779-9.8896-2.7779zm-15.4376 18.8114c.9649 0 2.1709.0487 3.1358.7797.3858.3034.6929.6971.8946 1.1471s.292.9427.2632 1.4358c.0191.9162-.3088 1.8052-.9166 2.4855-.8684.8772-2.1709.9259-3.184.9259h-6.27149v-6.774zm-.3377-12.0861c1.3026 0 3.8112.0487 3.8112 2.9728 0 2.6316-2.4121 2.6804-3.6664 2.7291h-5.93384v-5.7019zm-13.025386-6.7253v32.1645h14.906886c2.8463-.0487 7.3811-.0974 9.3108-4.8734.4652-1.2283.6944-2.535.6754-3.85 0-1.8031-.386-5.2145-3.2805-7.2614-.8302-.6479-1.8456-1.0069-2.8946-1.0234.8439-.0512 1.6639-.3031 2.3932-.735.7294-.4319 1.3474-1.0316 1.8039-1.7504.7677-1.2596 1.1689-2.712 1.1578-4.1912 0-2.4367-.7718-4.581-2.1226-5.9943-2.3157-2.4367-5.6926-2.4854-9.4073-2.4854z" fill="#004b8d"/><g fill="#919195"><path d="m112.405 7.56646h-5.838l-3.714 11.64744-3.6668-11.64744h-5.8373l5.9338 17.00824c.1781.3846.2922.7962.3377 1.2183 0 .926-1.0613.9747-1.8332 1.0235h-.5306l-1.4956 4.4348h3.8594c1.4476-.0488 3.3766-.0488 4.7276-1.9981.61-.7913 1.083-1.6811 1.399-2.6317zm-22.5778 3.94744h2.7498v-3.3139h-2.798v-6.43291h-5.7891v6.43291h-2.2674v3.3139h2.2674v9.5519c.0483 3.0703.0483 5.3608 5.3067 5.3608 1.0831-.016 2.1635-.1138 3.2322-.2924v-4.3374c-.332.0831-.6714.1321-1.0131.1462-1.5437 0-1.6885-1.0721-1.7367-1.9493v-8.4798zm-8.6836-3.94744c-.6012-.22909-1.2389-.34472-1.8814-.34114-.9716-.02315-1.9308.22366-2.773.71351s-1.5351 1.20392-2.003 2.06437v-2.48548h-5.0172v18.56768h5.4031v-12.1348c1.1158-1.0307 2.5899-1.5738 4.1006-1.5107.7336-.0047 1.4642.0937 2.1709.2924zm-26.5333 6.87154c.1448-2.9728 2.4121-3.2652 3.2805-3.2652 1.4473 0 3.2805.7797 3.3287 3.2652zm12.3501 3.6063c.1342-1.8543-.1291-3.716-.7719-5.4582-.7347-1.6366-1.923-3.02313-3.4213-3.99181s-3.2423-1.47803-5.0211-1.46644c-4.6313 0-8.9731 3.46015-8.9731 9.55185 0 5.1171 3.3287 9.8931 9.552 9.8931 1.5599.0351 3.1047-.315 4.5003-1.0199s2.5998-1.7433 3.5079-3.025c.193-.3412.4342-.6823.6272-1.0235l-4.2936-2.7778c-.365.8976-.9871 1.6648-1.7864 2.2031s-1.7395.8233-2.7001.8184c-.6106.0396-1.2204-.0891-1.7642-.3723-.5438-.2833-1.0012-.7105-1.3234-1.2359-.3639-.6561-.5627-1.3924-.5789-2.1443zm-25.8097-1.1209c0 1.3646-.0482 5.2146-3.184 5.2146-3.1357 0-3.1357-4.1424-3.1357-5.2146 0-2.193.3377-5.1658 3.2322-5.1658 2.991.0487 3.0875 3.8013 3.0875 5.1658zm-11.9641-16.374666v25.585466h5.3067c.0482-.2924.1929-1.5108.2412-1.7545.8683.9747 1.9297 2.1931 4.6795 2.1931 1.8018.0179 3.5493-.6225 4.9207-1.8032 2.1227-1.9006 2.6533-4.9221 2.6533-7.8462 0-2.3392-.3377-5.5557-2.2674-7.69998-.6265-.66815-1.3823-1.19897-2.2205-1.55947-.8383-.36051-1.7409-.54299-2.6519-.5361-.9576-.03348-1.907.18744-2.7536.64069-.8465.45324-1.5605 1.12295-2.0707 1.94222v-9.162026zm-9.5037 25.536666h5.7891v-18.51894h-5.7891zm0-20.46831h5.7891v-4.727217h-5.7891zm-12.97722 14.76641v-19.8835h-6.464469v25.6342h16.788289v-5.7507z"/><path d="m110.909 20.335-2.026 5.7506h144.1l1.109-1.1209c0-2.1443-7.236-4.6297-8.973-4.6297z"/><path d="m0 77.4997v-5.7507h254.044v1.1209c0 2.1443-7.236 4.6298-8.973 4.6298z"/></g></svg>