<svg version="1.1" id="Layer_1" xmlns:x="ns_extend;" xmlns:i="ns_ai;" xmlns:graph="ns_graphs;" xmlns="http://www.w3.org/2000/svg" xmlns:xlink="http://www.w3.org/1999/xlink" x="0px" y="0px" viewBox="0 0 254.8 52" style="enable-background:new 0 0 254.8 52;" xml:space="preserve">
 <style type="text/css">
  .st0{fill-rule:evenodd;clip-rule:evenodd;}
 </style>
 <metadata>
  <sfw xmlns="ns_sfw;">
   <slices>
   </slices>
   <sliceSourceBounds bottomLeftOrigin="true" height="52" width="254.8" x="-17.9" y="-207.3">
   </sliceSourceBounds>
  </sfw>
 </metadata>
 <g>
  <path class="st0" d="M215,33.1V18.8l6.6,7.1l1.8-5.1l-8.4-8.4v-1.8h7.3v-5H215V0h-5.3v5.6h-8.3v5h7.9c-2.9,5-5.7,9.6-8.7,13.9
		l1.7,6.4c2.7-3.8,5.1-7.7,7.4-11.7v13.9H215z M166.5,13.2h7.4V6.8h-7.4V13.2z M166.5,24.7h7.4v-6.8h-7.4V24.7z M179.3,24.7h7.4
		v-6.8h-7.4V24.7z M179.3,13.2h7.4V6.8h-7.4V13.2z M179.3,40.2h12.9v-4.9h-12.9v-5.7h8.9c2.5,0,3.9-1.4,3.9-3.9V1.9h-31.1v27.7h12.8
		v5.7h-12.9v4.9h12.9v6.4H158v5.1h37v-5.1h-15.6V40.2z M158.7,39.1l-6.1,1.1V25.9h5.7v-5.3h-5.7V7.4h6.1V1.9h-17.6v5.5h6.1v13.1
		h-5.8v5.3h5.8v15.3l-6.9,1.3l0.6,5.9l17.7-3.6V39.1z M235.2,46.8c1.8,0,2.9-1,3.1-2.9l0.4-4.4l5.5,0.7c-0.1,1.6-0.2,3-0.5,5.5
		c-0.5,4.2-3,6.3-7,6.3h-18.5c-4.2,0-6.5-2.3-6.5-6.6V35.3h5.7v8.5c0,1.9,1.1,3,3,3H235.2z M245.9,35.7l5.2-0.6
		c1.2,4.4,2.3,8.7,3.4,13l0.4,1.5l-5.5,0.8C248.3,45.4,247.1,40.4,245.9,35.7L245.9,35.7z M200,50.5l5.2,0.6
		c1.1-5.1,2.1-10.2,2.9-15.3l-5.2-0.5C202.1,40.4,201.1,45.5,200,50.5L200,50.5z M232.3,41.8l0.1,0.1l-5.1,1.1
		c-1-2.7-2.1-5.4-3.2-8.1l4.8-0.9C230.1,36.6,231.2,39.2,232.3,41.8L232.3,41.8z M230.1,10.8h15.4V6.3h-15.4V10.8z M230.1,19.2h15.4
		v-4.4h-15.4V19.2z M230.1,27.7h15.4v-4.5h-15.4V27.7z M251,28.2V1.9h-26.4v30.2h22.5C249.7,32.1,251,30.8,251,28.2L251,28.2z
		 M110.4,25.4L98,2.6H59.7L72,25.4H110.4z M49.8,26.3c2.8,2.4,7.4,2.8,11.8,2.8h7.7L81.7,52H50.1c-4,0-8-0.1-12-1.1
		c-4-1-7.4-2.6-10.6-5.1C20.8,41,17.1,34.4,13.2,27.2c-3.2-5.8-6.3-11.6-9.4-17.3C2.6,7.5,1.3,5.1,0,2.8h35.5c0.2,0.3,1.5,2.7,3,5.6
		c2.1,3.8,4.2,7.7,6.3,11.5C46.2,22.3,47.5,24.5,49.8,26.3L49.8,26.3z M86.5,52L74.1,29.1h38.2L124.8,52H86.5z M86.5,52">
  </path>
 </g>
</svg>