<svg version="1.1" id="Layer_1" xmlns:x="ns_extend;" xmlns:i="ns_ai;" xmlns:graph="ns_graphs;" xmlns="http://www.w3.org/2000/svg" xmlns:xlink="http://www.w3.org/1999/xlink" x="0px" y="0px" viewBox="0 0 467.6 108" style="enable-background:new 0 0 467.6 108;" xml:space="preserve">
 <style type="text/css">
  .st0{fill:#FFFFFF;}
	.st1{fill:#ED2924;}
 </style>
 <metadata>
  <sfw xmlns="ns_sfw;">
   <slices>
   </slices>
   <sliceSourceBounds bottomLeftOrigin="true" height="108" width="467.6" x="-176.2" y="-178.6">
   </sliceSourceBounds>
  </sfw>
 </metadata>
 <g>
  <path d="M178.2,73.1l-2.7-34.3h-0.1l-10.6,27.4c-1,2.6-3.1,4.6-6.2,4.6c-3,0-5.4-2.5-6.2-4.6l-10.3-27H142l-3,34l-10.1,0l5.1-48.4
		c0.3-2.7,2.5-5.7,5.5-5.7c4.6,0,6.4,2.7,7.3,5.3l11.7,29.4h0.1l11.7-29.4c1-2.7,2.8-5.3,7.3-5.3c3,0,5.2,3,5.5,6.3l5.1,47.7
		L178.2,73.1z">
  </path>
  <rect x="193.6" y="32.2" width="9.4" height="40.9">
  </rect>
  <rect x="416.1" y="32.2" width="9.4" height="40.9">
  </rect>
  <path d="M208.2,46.6c0-12,4.6-14.8,12.3-14.8h10.1c12.2,0,13.8-0.8,13.7,10.8l-22,0c-4.5,0-5.2,2.9-5.2,7.9v4.4
		c0,5.9,0.8,8.2,4.9,8.2l22.7,0c0,6.9-0.1,10.5-8.7,10.5h-15.4c-7.7,0-12.3-2.8-12.3-14.8V46.6z">
  </path>
  <path d="M277.1,48c0,2.9-0.8,4.3-3.2,4.3h-15.7v-9.9h14.9c2.7,0,3.9,0.7,3.9,4.3V48z M285.4,47v-2.6c0-7.3-1.8-12.1-8.4-12.1h-27.3
		v40.9h8.5V62.5h15c2.7,0,3.5,1.4,3.5,5.7v4.9h8.5v-6.9c0-6.7-2.1-8.4-4.7-9V57C284.6,55.7,285.4,52.5,285.4,47">
  </path>
  <path d="M299.4,54.9c0,5.9,0.8,8.2,4.9,8.2h10.9c4,0,4.9-2.3,4.9-8.2v-4.4c0-5.1-0.8-8.2-5.4-8.2h-10c-4.5,0-5.3,3.1-5.3,8.2V54.9z
		 M290.6,46.6c0-12,4.6-14.8,12.3-14.8h13.7c7.7,0,12.3,2.8,12.3,14.8v12.2c0,12-4.6,14.8-12.3,14.8h-13.7
		c-7.7,0-12.3-2.8-12.3-14.8V46.6z">
  </path>
  <polygon points="374.9,32.2 383.5,32.2 383.5,46.8 401.5,46.8 401.5,32.2 410,32.2 410,73.1 401.5,73.1 401.5,57.7 383.5,57.7 
		383.5,73.1 374.9,73.1 	">
  </polygon>
  <path d="M458.8,48.3c0,2.4-0.8,4.3-2.8,4.3h-16.4V42.4h15.7c2.6,0,3.5,1.6,3.5,4.3V48.3z M457.5,32.2h-26.4v40.9h8.5V62.8h20.1
		c6,0,7.9-7,7.9-13.1v-3.5C467.6,38.2,465.6,32.2,457.5,32.2">
  </path>
  <path d="M333.5,46.6c0-12,4.6-14.8,12.3-14.8h10.1c12.2,0,13.7-0.8,13.6,10.8l-22,0c-4.5,0-5.2,2.9-5.2,7.9v4.4
		c0,5.9,0.8,8.2,4.9,8.2l22.7,0c0,6.9-0.1,10.5-8.7,10.5h-15.4c-7.7,0-12.3-2.8-12.3-14.8V46.6z">
  </path>
  <path class="st0" d="M73.5,2.7c-5.3-1.5-10.8-2.3-16.6-2.3C25.5,0.4,0.1,24.4,0.1,54c0,29.6,25.5,53.6,56.8,53.6
		c28.8,0,52.7-20.3,56.3-46.5L73.5,2.7z">
  </path>
  <path class="st1" d="M72.4,70.5c0,0-9.2,13.4-10.1,14.7c-5.6,7.6-9.7-1.2-9.7-1.2L23.3,38.1c0,0,5.4-7.6,9.7-13.7
		c4.7-6.7,8.9-2,10.3,0.2C53.4,40.5,72.4,70.5,72.4,70.5 M80.6,5.3C73.3,1.9,66.5,0.2,57.8,0C26.4-0.5,0.5,23.2,0,53
		c-0.1,5.2,0.6,10.2,1.9,14.9l16.2-22.7l11,17.2c0,0,3.3,3.7,0.8,7.5C29.8,70.1,15,90.5,15,90.5c10.2,10.7,24.5,17.2,40.9,17.5
		c15.9,0.3,30-5.5,40.5-15.3L61.9,38.2c0,0,5.4-7.6,9.7-13.7c4.7-6.7,8.9-2,10.3,0.2C92,40.6,111,70.7,111,70.7l0-0.2
		c1.9-4.5,2.9-5.8,3.2-12.3L80.6,5.3z">
  </path>
  <path d="M94,7.9c0.6,0,1.2,0,1.2-0.8c0-0.6-0.6-0.7-1.1-0.7h-1v1.6H94z M93.1,10.7h-0.8v-5h1.9c1.2,0,1.8,0.4,1.8,1.4
		c0,0.9-0.6,1.3-1.3,1.4l1.4,2.2h-0.9l-1.3-2.2h-0.9V10.7z M94,11.9c2,0,3.5-1.5,3.5-3.7c0-2.1-1.6-3.6-3.5-3.6
		c-2,0-3.6,1.6-3.6,3.6C90.4,10.3,92,11.9,94,11.9 M89.5,8.2c0-2.5,2-4.4,4.4-4.4c2.4,0,4.4,1.8,4.4,4.4c0,2.5-2,4.4-4.4,4.4
		C91.6,12.6,89.5,10.7,89.5,8.2">
  </path>
 </g>
</svg>