<svg version="1.1" id="Layer_1" xmlns="http://www.w3.org/2000/svg" xmlns:xlink="http://www.w3.org/1999/xlink" x="0px" y="0px" viewBox="0 0 1920 1080" style="enable-background:new 0 0 1920 1080;" xml:space="preserve">
 <style type="text/css">
  .st0{fill:#4F2170;}
 </style>
 <g>
  <g>
   <path class="st0" d="M280.7,607.6c-8,7.3-19.6,9.7-26.8,10.6c-14.7,1.8-30-3.1-39.7-14.8c-8-9.6-12.1-22-19.9-31.9
			c-12.3-15.7-32-26-52.3-22.3c-40.1,7.3-58.3,54-35.6,86.5c32.4,46.4,105.3,38.3,142.7,6.2C260.7,631.8,271.5,620.7,280.7,607.6">
   </path>
   <path class="st0" d="M1639.3,607.5c8,7.3,19.5,9.7,26.8,10.6c14.7,1.9,30-3,39.7-14.8c8-9.6,12.1-22,19.9-31.9
			c12.3-15.7,32-26,52.3-22.3c40.1,7.3,58.3,54,35.6,86.5c-32.4,46.3-105.3,38.3-142.6,6.2C1659.3,631.8,1648.4,620.7,1639.3,607.5">
   </path>
   <g>
    <path class="st0" d="M1505.8,360.3c-1,0-96.7,0-97.6,0c-10.5,0.3-19.2,10-19.7,20c-0.5,10.6,8.7,21.1,19.7,21.7
				c1,0,96.7,0,97.6,0c10.5-0.3,19.2-10,19.7-20C1526,371.4,1516.8,360.9,1505.8,360.3">
    </path>
    <path class="st0" d="M896.3,568.3c-1.3-5.5-2-11-2.4-16.5c-0.1-7.9-0.1-19.1-0.1-29.3c1-35.4,7.6-97.7-40.4-97.7
				c-32.4,0-51.7,27.3-57.1,36.2c-0.8-24.9-20.4-42.9-50.4-42.9c-19.1,0-30.5,15.2-30.5,15.2s18.7,6.5,18.7,31.5
				c0.2,18,0,105.4,0,105.7c0.7,15.5,11.6,30,30.9,30c19.4,0,31.4-14.9,31.4-30V493c2.7-12.7,9.8-25.6,20.6-25.6
				c13.9,0,14.7,15.5,14.8,15.5l-0.1,75.1c0.1,2.4,0.4,4.8,0.8,7.1c0.7,3.9,1.9,7.6,3.6,10.9c7.4,15.1,23.9,25,46,25
				c19.1,0,30.5-15.2,30.5-15.2S901.3,581.8,896.3,568.3">
    </path>
    <path class="st0" d="M1357.9,568.3c-1.4-5.5-2.1-11-2.4-16.5l0.1-185.7c0-18.1-14.6-32.7-32.7-32.7c-18.1,0-32.7,14.6-32.7,32.7
				l0,164.5c0.2,14.8-1.3,30,5.7,43.6c7.4,15.1,25.7,26.8,47.8,26.8c19.2,0,30.5-15.2,30.5-15.2S1363,581.8,1357.9,568.3">
    </path>
    <path class="st0" d="M627.6,563.2L627.6,563.2c-0.1,0-0.1,0-0.2,0c-0.1,0-0.1,0-0.2,0v0c-16.8-0.3-25.2-19.6-25.2-51.1
				c0-31.5,10.7-50.8,25.2-51.1v0c0.1,0,0.1,0,0.2,0c0.1,0,0.1,0,0.2,0v0c14.5,0.3,25.2,19.7,25.2,51.1
				C652.8,543.6,644.4,562.9,627.6,563.2 M627,423.2c-49.1,0-88.9,39.8-88.9,88.9c0,49.1,39.8,88.9,88.9,88.9
				c49.1,0,88.9-39.8,88.9-88.9C715.9,463,676.1,423.2,627,423.2">
    </path>
    <path class="st0" d="M998.7,557.5L998.7,557.5c-0.1,0-0.1,0-0.2,0c-0.1,0-0.1,0-0.2,0v0c-16.8-0.2-25.2-17.1-25.2-44.5
				c0-27.4,10.6-44.2,25.2-44.6v0c0.1,0,0.1,0,0.2,0c0.1,0,0.1,0,0.2,0v0c14.6,0.3,25.2,17.1,25.2,44.6
				C1023.9,540.4,1015.5,557.2,998.7,557.5 M1096.2,568.3c-1.4-5.5-2.1-11-2.4-16.5l0-185.7c0-18.1-14.6-32.7-32.7-32.7
				c-18.1,0-32.7,14.6-32.7,32.7l-0.1,88c-7.9-11-25.2-29.5-52.5-29.5c-75.1,0-79.9,133.8-28.4,166.9c14.5,9.3,36.4,11.7,53,7.4
				c11.4-3,29.5-14.2,32.4-27.7c0.4,1,0.9,2,1.4,2.9c7.4,15.1,25.7,26.8,47.8,26.8c19.2,0,30.5-15.2,30.5-15.2
				S1101.2,581.8,1096.2,568.3">
    </path>
    <path class="st0" d="M1170.9,502c1.9-14,5.3-31.7,17.9-39.9c10.5-6.8,25.1,0.9,25.4,14c0.2,13.8-8.7,23.3-21.2,25.9
				C1191.6,502.3,1170.7,503.3,1170.9,502 M1266.4,545.9c0,0-9.6,13.1-46.8,13.1c-37.2,0-45.2-28.9-45.2-28.9
				c54.2,0,99.7-3.6,99.7-47.5c0-43.9-49.6-58.4-79.1-58.4c-48.6,0-84.1,38.7-84.1,89.9c0,57.6,46.2,86.8,84.6,86.8
				C1263.1,600.9,1266.4,545.9,1266.4,545.9z">
    </path>
    <path class="st0" d="M1432.5,502c1.9-14,5.3-31.7,17.9-39.9c10.5-6.8,25.1,0.9,25.4,14c0.2,13.8-8.7,23.3-21.2,25.9
				C1453.3,502.3,1432.4,503.3,1432.5,502 M1528.1,545.9c0,0-9.6,13.1-46.8,13.1c-37.2,0-45.2-28.9-45.2-28.9
				c54.2,0,99.7-3.6,99.7-47.5c0-43.9-49.6-58.4-79.1-58.4c-48.6,0-84.1,38.7-84.1,89.9c0,57.6,46.2,86.8,84.6,86.8
				C1524.8,600.9,1528.1,545.9,1528.1,545.9z">
    </path>
    <path class="st0" d="M1650.8,550.7h-37.3c2.7,0,30.3-23.2,39.5-31c23.9-20.3,67-49.6,54.4-87.6l0,0.3c-2.3-9-9.3-14.3-9.3-14.3
				s-2.6,7.4-11.5,10.7c-3.6,0.9-7.2,1.5-10.8,1.7c-3,0.1-104.2,0-104.2,0c-13.7,0-25.2,11-25.3,24c-0.2,13.1,10.7,23.6,24.5,23.8
				l59,0.4c-27.4,15.3-60,33.3-76.6,60.9c-9.5,15.8-19.6,40.3-15.8,59c13.1-11.6,47.5-22.9,73.7-17.4c9.8,2,20.2,7.1,28.7,12.4
				c49.1,30.7,78.7-29.4,55.2-55.9C1695.2,537.6,1681.8,550.7,1650.8,550.7">
    </path>
    <path class="st0" d="M542.9,588.1c-30.1-33.1-39.6-88-41.4-124.5c-1.6-31.6,0.1-86.2,25-102.1c-8.3-10.5-24.7-14.7-37.2-14.7
				c-28,0-41.6,18.7-51.1,32.1c-3.2,4.4-50.3,69.5-50.3,69.5s-39.7-61.4-44.5-68.7c-6.7-10.2-19.3-28.9-41.5-32.1
				c-9.5-1.4-34.3-2.7-47.8,15.8c23.2,18.6,22.7,65.9,17.6,98.3c-15.1,97-56.4,106-56.4,106c21.1,57.1,75.6,34.5,91-11
				c10-29.6,16.4-67.1,17.9-98.1l59.8,91.7c0,0,67.7-91.4,67.7-91.3c-11.1,161.6,44.4,207.4,92.9,207.4c48.6,0,65.1-44.4,65.1-44.4
				C583.2,620.2,560.2,607,542.9,588.1">
    </path>
   </g>
   <g>
    <path class="st0" d="M694.5,640.6c0.6,2.4,0.9,4.7,1,7.1c0,0.7,0,84.6,0,85.6c0.2,7,6.7,12.9,13.4,13.2
				c7.1,0.4,14.2-5.8,14.5-13.2c0-1,0-76.5,0-76.5c-0.1-6.3,0.6-12.8-2.4-18.6c-3.2-6.5-11-11.5-20.5-11.5c-8.2,0-13.1,6.5-13.1,6.5
				S692.4,634.9,694.5,640.6">
    </path>
    <path class="st0" d="M1580.9,732.5c-0.6-2.4-0.9-4.7-1-7.1c0-0.7,0-84.5,0-85.5c-0.2-7-6.7-12.9-13.4-13.2
				c-7.1-0.4-14.2,5.8-14.5,13.2c0,1,0,76.5,0,76.5c0.1,6.3-0.5,12.8,2.4,18.6c3.2,6.5,11,11.5,20.5,11.5c8.2,0,13.1-6.5,13.1-6.5
				S1583.1,738.3,1580.9,732.5">
    </path>
    <path class="st0" d="M1075,670.1c-14.5,0-23.1,12.2-25.6,16.2l-0.1,0.1c0-4,0-7.2,0-7.4c-0.2-7-6.7-12.3-13.4-12.6
				c-7.1-0.4-14.2,5.3-14.5,12.6c0,1,0,53.5,0,54.2c0.2,7,6.7,12.8,13.4,13.2c7.1,0.4,14.2-5.8,14.5-13.2c0-0.5,0-17.7,0-32.5
				l0.1-0.1c1.2-5.7,4.4-11.5,9.2-11.5c6.2,0,6.6,7,6.6,7l-0.1,37.1c0.2,7,6.7,12.8,13.4,13.2c7.1,0.4,14.2-5.8,14.5-13.2l0-19.4
				C1093.1,693.9,1095.2,670,1075,670.1">
    </path>
    <path class="st0" d="M1432.3,670.1c-14.5,0-23.1,12.2-25.6,16.2l-0.1,0.1c0-4,0-7.2,0-7.4c-0.2-7-6.7-12.3-13.4-12.6
				c-7.1-0.4-14.2,5.3-14.5,12.6c0,1,0,53.5,0,54.2c0.2,7,6.7,12.8,13.4,13.2c7.1,0.4,14.2-5.8,14.5-13.2c0-0.5,0-17.7,0-32.5
				l0.1-0.1c1.2-5.7,4.4-11.5,9.2-11.5c6.2,0,6.6,7,6.6,7l-0.1,37.1c0.2,7,6.7,12.8,13.4,13.2c7.1,0.4,14.2-5.8,14.5-13.2l0-19.4
				C1450.5,693.9,1452.6,670,1432.3,670.1">
    </path>
    <path class="st0" d="M791.1,670.1c-14.5,0-23.1,12.2-25.6,16.2l-0.1,0.1c0-4,0-7.2,0-7.4c-0.2-7-6.7-12.3-13.4-12.6
				c-7.1-0.4-14.2,5.3-14.5,12.6c0,1,0,53.5,0,54.2c0.2,7,6.7,12.8,13.4,13.2c7.1,0.4,14.2-5.8,14.5-13.2c0-0.5,0-17.7,0-32.5
				l0.1-0.1c1.2-5.7,4.4-11.5,9.2-11.5c6.2,0,6.6,7,6.6,7l-0.1,37.1c0.2,7,6.7,12.8,13.4,13.2c7.1,0.4,14.2-5.8,14.5-13.2l0-19.4
				C809.3,693.9,811.4,670,791.1,670.1">
    </path>
    <path class="st0" d="M1331.3,729.3L1331.3,729.3C1331.3,729.3,1331.2,729.3,1331.3,729.3c-0.1,0-0.2,0-0.2,0v0
				c-7.5-0.1-11.3-8.8-11.3-22.9c0-14.1,4.8-22.8,11.3-22.9v0c0,0,0,0,0.1,0c0,0,0.1,0,0.1,0v0c6.5,0.2,11.3,8.8,11.3,22.9
				C1342.6,720.5,1338.8,729.2,1331.3,729.3 M1331,666.6c-22,0-39.8,17.8-39.8,39.8c0,22,17.8,39.8,39.8,39.8
				c22,0,39.8-17.8,39.8-39.8C1370.8,684.4,1353,666.6,1331,666.6">
    </path>
    <path class="st0" d="M1139.6,726.3L1139.6,726.3C1139.6,726.3,1139.5,726.3,1139.6,726.3c-0.1,0-0.1,0-0.2,0v0
				c-7.5-0.1-11.3-7.7-11.3-20c0-12.3,4.8-19.8,11.3-20v0c0,0,0.1,0,0.1,0c0,0,0.1,0,0.1,0v0c6.5,0.1,11.3,7.7,11.3,20
				C1150.9,718.6,1147.1,726.1,1139.6,726.3 M1182.3,678c-0.2-7.4-7.2-13.5-14.2-13.8c-7.5-0.4-14.8,6.1-15.2,13.8
				c0,0.5-0.1,1.7-0.1,1.9c-3.5-4.9-11.3-13.2-23.5-13.2c-33.7,0-35.8,59.9-12.7,74.8c6.5,4.2,16.3,5.2,23.8,3.3
				c4.2-1.1,10.4-4.7,13.2-9.2c1.7,5.9,7.6,10.4,13.5,10.7c7.5,0.4,14.8-6.1,15.2-13.8C1182.3,731.4,1182.3,678.7,1182.3,678">
    </path>
    <path class="st0" d="M1496.7,726.3L1496.7,726.3C1496.6,726.3,1496.6,726.3,1496.7,726.3c-0.1,0-0.1,0-0.2,0v0
				c-7.5-0.1-11.3-7.7-11.3-20c0-12.3,4.8-19.8,11.3-20v0c0,0,0.1,0,0.1,0c0,0,0,0,0.1,0v0c6.5,0.1,11.3,7.7,11.3,20
				C1508,718.6,1504.2,726.1,1496.7,726.3 M1539.4,678c-0.2-7.4-7.2-13.5-14.2-13.8c-7.5-0.4-14.8,6.1-15.2,13.8
				c0,0.5-0.1,1.7-0.1,1.9c-3.5-4.9-11.3-13.2-23.5-13.2c-33.7,0-35.8,59.9-12.7,74.8c6.5,4.2,16.3,5.2,23.7,3.3
				c4.2-1.1,10.4-4.7,13.2-9.2c1.7,5.9,7.6,10.4,13.5,10.7c7.5,0.4,14.8-6.1,15.2-13.8C1539.4,731.4,1539.4,678.7,1539.4,678">
    </path>
    <path class="st0" d="M1282.4,685.5c-0.3-6.9-5.8-12.4-12.7-13c-0.4,0-0.8-0.1-1.2-0.1c-6.2,0-14.1,5.4-14.1,12.2l0,25.8h0
				c0.1,8,0,22.6,0,22.7c0.3,6.9,5.8,12.4,12.7,13c0.4,0,0.8,0.1,1.2,0.1c6.2,0,14.1-5.4,14.1-12.2l0-21.5h0
				C1282.3,704.4,1282.4,685.7,1282.4,685.5">
    </path>
    <path class="st0" d="M1282.3,650.7c0,7.6-6.2,13.8-13.9,13.8c-7.7,0-13.9-6.2-13.9-13.8c0-7.7,6.2-13.9,13.9-13.9
				C1276.1,636.8,1282.3,643,1282.3,650.7">
    </path>
    <path class="st0" d="M999.1,669.1c-8.3,0.3-12.4,6.5-18.1,14.3c0,0.1,0-3.6,0-3.7c-0.2-7-6.7-12.8-13.4-13.2
				c-7.1-0.4-14.2,5.8-14.5,13.2v20.1v33.6h0c0.2,7,6.7,12.9,13.4,13.2c7.1,0.3,14-5.7,14.5-13h0.1l0-34c0.4-5,2.6-11.2,6.6-11.2
				c5.7,0-0.2,13.8,12.8,13.8C1019.2,702.2,1021.1,668.2,999.1,669.1">
    </path>
    <path class="st0" d="M899.2,701.8c0.9-6.3,2.4-14.2,8-17.9c4.7-3,11.3,0.4,11.4,6.3c0.1,6.2-3.9,10.4-9.5,11.6
				C908.5,702,899.1,702.4,899.2,701.8 M942.1,721.5c0,0-4.3,5.9-21,5.9c-16.7,0-20.3-13-20.3-13c24.3,0,44.7-1.6,44.7-21.3
				c0-19.7-22.3-26.2-35.5-26.2c-21.8,0-37.7,17.4-37.7,40.3c0,25.8,20.7,38.9,38,38.9C940.6,746.2,942.1,721.5,942.1,721.5z">
    </path>
    <path class="st0" d="M870.7,731.5c0,0-7.3,14.7-20.7,14.7c-11.1,0-24.7-9.8-25.2-23.9c0-0.1-0.1-20.5-0.1-37.5h-3.8
				c-2,0-5.4-1.2-5.4-6.3s3.9-6.2,5.8-6.2h3.3c0-5.9,0-10,0-10.3c0.4-7.3,7.4-13.5,14.5-13.1c6.7,0.3,13.3,6.1,13.6,13.1v0.1v10.2
				h11.8c1.6,0,5.4,1.1,5.4,6.3s-3.8,6.2-5.8,6.2h-11.4v31.2C852.6,726.2,861.3,731.5,870.7,731.5">
    </path>
    <path class="st0" d="M1244.7,731.5c0,0-7.3,14.7-20.7,14.7c-11.1,0-24.7-9.8-25.2-23.9c0-0.1-0.1-20.5-0.1-37.5h-3.8
				c-2,0-5.4-1.2-5.4-6.3s3.9-6.2,5.8-6.2h3.3c0-5.9,0-10,0-10.3c0.4-7.3,7.4-13.5,14.5-13.1c6.7,0.3,13.3,6.1,13.6,13.1v0.1v10.2
				h11.8c1.6,0,5.4,1.1,5.4,6.3s-3.8,6.2-5.8,6.2h-11.4v31.2C1226.6,726.2,1235.4,731.5,1244.7,731.5">
    </path>
   </g>
  </g>
 </g>
</svg>