<?xml version="1.0" encoding="UTF-8" standalone="no"?>
<svg
   xmlns:dc="http://purl.org/dc/elements/1.1/"
   xmlns:cc="http://creativecommons.org/ns#"
   xmlns:rdf="http://www.w3.org/1999/02/22-rdf-syntax-ns#"
   xmlns:svg="http://www.w3.org/2000/svg"
   xmlns="http://www.w3.org/2000/svg"
   version="1.1"
   id="svg4869"
   viewBox="0 0 513.73287 150"
   height="42.333332mm"
   width="144.98683mm">
  <defs
     id="defs4871">
    <clipPath
       id="clipPath4200"
       clipPathUnits="userSpaceOnUse">
      <path
         id="path4202"
         d="m 46.636,45.958 140.564,0 0,41.043 -140.564,0 0,-41.043 z" />
    </clipPath>
  </defs>
  <metadata
     id="metadata4874">
    <rdf:RDF>
      <cc:Work
         rdf:about="">
        <dc:format>image/svg+xml</dc:format>
        <dc:type
           rdf:resource="http://purl.org/dc/dcmitype/StillImage" />
        <dc:title></dc:title>
      </cc:Work>
    </rdf:RDF>
  </metadata>
  <g
     transform="translate(-77.798049,-383.23329)"
     id="layer1">
    <path
       id="path4208"
       style="fill:#1c4eff;fill-opacity:1;fill-rule:nonzero;stroke:none"
       d="m 492.64317,421.15757 0,14.51077 c 0,3.64947 2.80235,6.6354 6.22605,6.6354 l 62.82594,0 c 8.2398,0 15.70021,3.56569 21.09334,9.32141 5.07868,5.42059 8.34183,12.79578 8.7031,20.97694 0.0234,0.51189 0.0393,1.02379 0.0393,1.54407 l 0,27.18589 c 0,17.61149 -13.38876,31.90107 -29.89095,31.90107 l -200.35119,0 0,-34.93894 179.1943,0 c 3.42454,0 6.22605,-2.98593 6.22605,-6.6354 l 0,-10.86716 c 0,-3.65534 -2.80569,-6.64546 -6.23609,-6.64546 l -62.0022,0 c -16.36086,0 -29.74961,-14.28959 -29.74961,-31.75026 l 0,-27.40373 c 0,-17.46905 13.38875,-31.75864 29.74961,-31.75864 l 83.92345,0 c 15.62997,0 27.46324,12.69358 27.46324,28.35129 l 0,2.93735 -90.98829,0 c -3.42371,0 -6.22606,2.98593 -6.22606,6.6354" />
    <path
       id="path4214"
       style="fill:#1c4eff;fill-opacity:1;fill-rule:nonzero;stroke:none"
       d="m 284.62117,411.82754 0,121.33077 -46.13892,0 0,-108.75533 -34.41853,0 0,108.75533 -46.13054,0 0,-108.75533 -35.63782,0 0,108.75533 -44.497311,0 0,-117.97704 c 0,-15.72558 12.491426,-31.94798 27.755941,-31.94798 l 151.3104,0 c 15.26451,0 27.75678,12.86867 27.75678,28.59425" />
    <path
       id="path4220"
       style="fill:#1c4eff;fill-opacity:1;fill-rule:nonzero;stroke:none"
       d="m 392.97628,435.84696 c 0,3.64948 -2.97964,6.63541 -6.62329,6.63541 l -42.72525,0 0,-4.38339 0,-23.40238 42.72525,0 c 3.64365,0 6.62329,2.98593 6.62329,6.63541 l 0,14.51495 z m 20.60328,-52.61325 -96.74854,0 c -10.5312,0 -19.06789,8.55231 -19.06789,19.10193 l 0,35.76334 0,34.68593 0,60.44838 45.86461,0 0,-59.10706 69.95182,0 c 17.55172,0 24.3799,-14.40856 24.3799,-32.0192 l 0,-26.85497 c 0,-17.60979 -6.82818,-32.01835 -24.3799,-32.01835" />
  </g>
</svg>
