<svg version="1.1" id="Layer_1" xmlns:x="ns_extend;" xmlns:i="ns_ai;" xmlns:graph="ns_graphs;" xmlns="http://www.w3.org/2000/svg" xmlns:xlink="http://www.w3.org/1999/xlink" x="0px" y="0px" viewBox="0 0 161.4 56" style="enable-background:new 0 0 161.4 56;" xml:space="preserve">
 <style type="text/css">
  .st0{fill-rule:evenodd;clip-rule:evenodd;}
 </style>
 <metadata>
  <sfw xmlns="ns_sfw;">
   <slices>
   </slices>
   <sliceSourceBounds bottomLeftOrigin="true" height="56" width="161.4" x="-66.4" y="26.9">
   </sliceSourceBounds>
  </sfw>
 </metadata>
 <g>
  <path class="st0" d="M57.3,43.6c-2.5-2.5-9.9-9.9-11.2-11.2c-2.3-2.3-2.1-2.3-5.4-2.3H19.7c-3.3,0-3.1-0.1-5.4,2.3
		C13,33.7,5.6,41.2,3.1,43.6c2.6,5.2,6.5,9.4,11.3,12.4c2.9-2.9,11.4-11.4,12.9-12.9c1.2-1.2,1.7-1.6,2.3-1.8
		c0.2-0.1,0.4-0.1,0.6-0.1c0.2,0,0.4,0,0.6,0.1c0.6,0.2,1.2,0.6,2.3,1.8L46,56C50.7,53.1,54.7,48.8,57.3,43.6z">
  </path>
  <path class="st0" d="M15.9,29.1c0.8-0.9,0.7-1.7,1.6-3.8c0.7-1.9,1.9-3.6,3.4-5c2.6-2.4,6-3.7,9.4-3.7c3.4,0,6.8,1.3,9.4,3.7
		c1.5,1.4,2.6,3.1,3.4,5c0.8,2.1,0.7,2.9,1.6,3.8c0.8,0.9,1.7,1.1,4.4,1.1h11.6c0-8.7-3.8-16.7-9.8-22.3C45,2.7,37.6,0,30.2,0
		C22.8,0,15.5,2.7,9.8,8C3.7,13.5,0,21.5,0,30.2h11.6C14.2,30.2,15.1,30,15.9,29.1">
  </path>
  <path class="st0" d="M144.7,38.8c-4.8,0-8.7-3.9-8.7-8.7s3.9-8.7,8.7-8.7c4.8,0,8.7,3.9,8.7,8.7S149.5,38.8,144.7,38.8 M144.7,13.6
		c-9.2,0-16.8,7.4-16.8,16.6s7.5,16.6,16.8,16.6c9.2,0,16.8-7.4,16.8-16.6S153.9,13.6,144.7,13.6">
  </path>
  <path class="st0" d="M115.3,17.1v28.7h7.8V14.4h-5.2c-0.5,0-0.8,0-1.1,0.1c-0.3,0.1-0.6,0.3-0.9,0.5c-0.2,0.2-0.4,0.5-0.5,0.9
		C115.3,16.3,115.3,16.6,115.3,17.1">
  </path>
  <path class="st0" d="M77,14.4v31.4h5.2c0.5,0,0.8,0,1.1-0.1c0.3-0.1,0.6-0.3,0.9-0.5c0.2-0.2,0.4-0.5,0.5-0.9
		c0.1-0.4,0.1-0.7,0.1-1.1V26.5c5.2,5.9,10.4,11.8,15.5,17.7c0.5,0.6,0.9,1,1.5,1.3c0.6,0.3,1.2,0.3,2,0.3h5.7V14.4h-5.2
		c-0.5,0-0.8,0-1.1,0.1c-0.3,0.1-0.6,0.3-0.9,0.5c-0.2,0.2-0.4,0.5-0.5,0.9c-0.1,0.4-0.1,0.7-0.1,1.1v16.6L86.1,16
		c-0.5-0.6-0.9-1-1.5-1.3c-0.6-0.3-1.2-0.3-2-0.3L77,14.4z">
  </path>
 </g>
</svg>