<svg version="1.1" id="Layer_1" xmlns="http://www.w3.org/2000/svg" xmlns:xlink="http://www.w3.org/1999/xlink" x="0px" y="0px" viewBox="0 0 757.5 209" style="enable-background:new 0 0 757.5 209;" xml:space="preserve">
 <style type="text/css">
  .st0{fill:#236092;}
	.st1{fill:#69737B;}
 </style>
 <g>
  <path class="st0" d="M20.4,28.6h31.3l37.3,61.2h0.2V28.6h21.1v85H78.7l-37-61.2h-0.2v61.2H20.4V28.6z">
  </path>
  <path class="st0" d="M151.5,71.1c0-14.9,6.7-27.3,26.8-27.3c20.1,0,26.8,12.4,26.8,27.3c0,14.9-6.7,27.3-26.8,27.3
		C158.2,98.4,151.5,86.1,151.5,71.1z M124.3,71.1c0,25.7,16,44.7,54,44.7c38,0,54-19.1,54-44.7s-16-44.7-54-44.7
		C140.3,26.4,124.3,45.5,124.3,71.1z">
  </path>
  <path class="st0" d="M303.6,113.6h-30.3l-36.6-85H264l25.2,69.2l26.3-69.2h24.5L303.6,113.6z">
  </path>
  <path class="st0" d="M498.3,113.6H468l-36.6-85h27.4L484,97.8l26.3-69.2h24.5L498.3,113.6z">
  </path>
  <path class="st0" d="M401.2,81h-33.4l17-35.9L401.2,81z M327.4,113.6h24.8l8-16.8h48.3l7.8,16.8h27l-43.1-85h-28.8L327.4,113.6z">
  </path>
  <path class="st0" d="M595.5,81h-32.6l16.6-35.9L595.5,81z M523.5,113.6h24.2l7.8-16.8h47.1l7.6,16.8h26.4l-42-85h-28.1L523.5,113.6
		z">
  </path>
  <path class="st0" d="M653.4,69.4l-33.7-40.7h30.1l19.8,27.1L689,28.6h27.2l-33.7,40.7l54.6,68.1h-30.9L666.6,84l-21.3,29.7h-28
		L653.4,69.4z">
  </path>
 </g>
 <g>
  <path class="st1" d="M46.1,175.3c-1.6,0.8-4.7,1.6-8.7,1.6C28,176.9,21,171,21,160.2c0-10.3,7-17.3,17.2-17.3
		c4.1,0,6.7,0.9,7.8,1.5l-1,3.5c-1.6-0.8-3.9-1.4-6.7-1.4c-7.7,0-12.9,4.9-12.9,13.6c0,8.1,4.7,13.3,12.7,13.3c2.6,0,5.2-0.5,7-1.4
		L46.1,175.3z">
  </path>
  <path class="st1" d="M50.7,160.1c0-2.8,0-5.2-0.2-7.4h3.8l0.1,4.7h0.2c1.1-3.2,3.7-5.2,6.6-5.2c0.5,0,0.8,0,1.2,0.1v4.1
		c-0.4-0.1-0.9-0.1-1.5-0.1c-3,0-5.2,2.3-5.8,5.5c-0.1,0.6-0.2,1.3-0.2,2v12.6h-4.3V160.1z">
  </path>
  <path class="st1" d="M68.3,165.3c0.1,5.8,3.8,8.2,8.1,8.2c3.1,0,5-0.5,6.6-1.2l0.7,3.1c-1.5,0.7-4.1,1.5-7.9,1.5
		c-7.3,0-11.7-4.8-11.7-12s4.2-12.8,11.1-12.8c7.7,0,9.8,6.8,9.8,11.2c0,0.9-0.1,1.6-0.1,2H68.3z M80.9,162.2c0-2.7-1.1-7-6-7
		c-4.4,0-6.3,4-6.6,7H80.9z">
  </path>
  <path class="st1" d="M103.2,176.4l-0.3-3h-0.1c-1.3,1.9-3.9,3.5-7.3,3.5c-4.8,0-7.3-3.4-7.3-6.8c0-5.7,5.1-8.9,14.3-8.8v-0.5
		c0-2-0.5-5.5-5.4-5.5c-2.2,0-4.5,0.7-6.2,1.8l-1-2.8c2-1.3,4.8-2.1,7.8-2.1c7.3,0,9,4.9,9,9.7v8.9c0,2.1,0.1,4.1,0.4,5.7H103.2z
		 M102.5,164.3c-4.7-0.1-10,0.7-10,5.3c0,2.8,1.9,4.1,4.1,4.1c3.1,0,5-2,5.7-4c0.1-0.4,0.2-0.9,0.2-1.4V164.3z">
  </path>
  <path class="st1" d="M118.3,145.9v6.8h6.2v3.3h-6.2v12.8c0,2.9,0.8,4.6,3.2,4.6c1.1,0,2-0.1,2.5-0.3l0.2,3.2
		c-0.8,0.3-2.2,0.6-3.8,0.6c-2,0-3.6-0.6-4.7-1.8c-1.2-1.3-1.7-3.4-1.7-6.2v-12.9h-3.7v-3.3h3.7V147L118.3,145.9z">
  </path>
  <path class="st1" d="M133.7,146c0.1,1.5-1,2.6-2.7,2.6c-1.5,0-2.6-1.2-2.6-2.6c0-1.5,1.1-2.7,2.7-2.7
		C132.7,143.3,133.7,144.5,133.7,146z M128.9,176.4v-23.7h4.3v23.7H128.9z">
  </path>
  <path class="st1" d="M140,159.1c0-2.4,0-4.5-0.2-6.4h3.8l0.2,3.9h0.1c1.2-2.3,3.9-4.5,7.8-4.5c3.3,0,8.4,2,8.4,10.1v14.2h-4.3
		v-13.7c0-3.8-1.4-7-5.5-7c-2.8,0-5,2-5.8,4.4c-0.2,0.5-0.3,1.3-0.3,2v14.3H140V159.1z">
  </path>
  <path class="st1" d="M187.2,152.7c-0.1,1.7-0.2,3.6-0.2,6.5V173c0,5.4-1.1,8.8-3.4,10.8c-2.3,2.2-5.6,2.8-8.6,2.8
		c-2.8,0-6-0.7-7.9-2l1.1-3.3c1.6,1,4,1.9,7,1.9c4.4,0,7.6-2.3,7.6-8.3v-2.6h-0.1c-1.3,2.2-3.9,4-7.5,4c-5.9,0-10.1-5-10.1-11.6
		c0-8,5.2-12.6,10.7-12.6c4.1,0,6.4,2.2,7.4,4.1h0.1l0.2-3.6H187.2z M182.7,162c0-0.7,0-1.4-0.2-2c-0.8-2.5-2.9-4.6-6-4.6
		c-4.1,0-7.1,3.5-7.1,9c0,4.7,2.4,8.5,7,8.5c2.6,0,5-1.7,6-4.4c0.2-0.7,0.3-1.6,0.3-2.3V162z">
  </path>
  <path class="st1" d="M208.2,147h-10v-3.6h24.4v3.6h-10.1v29.4h-4.3V147z">
  </path>
  <path class="st1" d="M243.7,164.3c0,8.8-6.1,12.6-11.8,12.6c-6.4,0-11.4-4.7-11.4-12.2c0-7.9,5.2-12.6,11.8-12.6
		C239.1,152.1,243.7,157.1,243.7,164.3z M224.9,164.6c0,5.2,3,9.1,7.2,9.1c4.1,0,7.2-3.9,7.2-9.2c0-4-2-9.1-7.1-9.1
		C227.1,155.4,224.9,160.1,224.9,164.6z">
  </path>
  <path class="st1" d="M248.7,159.1c0-2.4,0-4.5-0.2-6.4h3.8l0.2,3.8h0.1c1.3-2.3,3.5-4.4,7.4-4.4c3.2,0,5.7,2,6.7,4.8h0.1
		c0.7-1.3,1.7-2.4,2.6-3.1c1.4-1.1,3-1.7,5.2-1.7c3.1,0,7.8,2.1,7.8,10.3v14h-4.2V163c0-4.6-1.7-7.3-5.1-7.3c-2.4,0-4.4,1.8-5.1,3.9
		c-0.2,0.6-0.3,1.4-0.3,2.2v14.6h-4.2v-14.2c0-3.8-1.7-6.5-4.9-6.5c-2.7,0-4.7,2.2-5.3,4.3c-0.2,0.6-0.3,1.4-0.3,2.1v14.3h-4.2
		V159.1z">
  </path>
  <path class="st1" d="M310.7,164.3c0,8.8-6.1,12.6-11.8,12.6c-6.4,0-11.4-4.7-11.4-12.2c0-7.9,5.2-12.6,11.8-12.6
		C306.1,152.1,310.7,157.1,310.7,164.3z M291.8,164.6c0,5.2,3,9.1,7.2,9.1c4.1,0,7.2-3.9,7.2-9.2c0-4-2-9.1-7.1-9.1
		C294.1,155.4,291.8,160.1,291.8,164.6z">
  </path>
  <path class="st1" d="M315.7,160.1c0-2.8,0-5.2-0.2-7.4h3.8l0.1,4.7h0.2c1.1-3.2,3.7-5.2,6.6-5.2c0.5,0,0.8,0,1.2,0.1v4.1
		c-0.4-0.1-0.9-0.1-1.5-0.1c-3,0-5.2,2.3-5.8,5.5c-0.1,0.6-0.2,1.3-0.2,2v12.6h-4.3V160.1z">
  </path>
  <path class="st1" d="M331.5,160.1c0-2.8,0-5.2-0.2-7.4h3.8l0.1,4.7h0.2c1.1-3.2,3.7-5.2,6.6-5.2c0.5,0,0.8,0,1.2,0.1v4.1
		c-0.4-0.1-0.9-0.1-1.5-0.1c-3,0-5.2,2.3-5.8,5.5c-0.1,0.6-0.2,1.3-0.2,2v12.6h-4.3V160.1z">
  </path>
  <path class="st1" d="M368.1,164.3c0,8.8-6.1,12.6-11.8,12.6c-6.4,0-11.4-4.7-11.4-12.2c0-7.9,5.2-12.6,11.8-12.6
		C363.5,152.1,368.1,157.1,368.1,164.3z M349.3,164.6c0,5.2,3,9.1,7.2,9.1c4.1,0,7.2-3.9,7.2-9.2c0-4-2-9.1-7.1-9.1
		C351.5,155.4,349.3,160.1,349.3,164.6z">
  </path>
  <path class="st1" d="M374.6,152.7l3.1,12.1c0.7,2.6,1.3,5.1,1.8,7.5h0.1c0.5-2.4,1.3-4.9,2.1-7.5l3.9-12.1h3.6l3.7,11.9
		c0.9,2.8,1.6,5.3,2.1,7.7h0.1c0.4-2.4,1-4.9,1.8-7.7l3.4-11.9h4.3l-7.6,23.7H393l-3.6-11.3c-0.8-2.6-1.5-5-2.1-7.8h-0.1
		c-0.6,2.8-1.3,5.3-2.2,7.8l-3.8,11.3h-3.9l-7.2-23.7H374.6z">
  </path>
  <path class="st1" d="M415.4,142.8c-1.1,4.1-3.2,9.4-4.6,11.6l-2.7,0.3c1.1-2.9,2.4-8,2.9-11.5L415.4,142.8z">
  </path>
  <path class="st1" d="M415.6,172c1.3,0.8,3.5,1.7,5.7,1.7c3.1,0,4.6-1.6,4.6-3.5c0-2.1-1.2-3.2-4.4-4.4c-4.3-1.5-6.3-3.9-6.3-6.7
		c0-3.8,3.1-7,8.2-7c2.4,0,4.5,0.7,5.8,1.5l-1.1,3.1c-0.9-0.6-2.6-1.4-4.9-1.4c-2.5,0-4,1.5-4,3.2c0,2,1.4,2.8,4.5,4
		c4.1,1.6,6.2,3.6,6.2,7.2c0,4.2-3.2,7.1-8.9,7.1c-2.6,0-5-0.6-6.7-1.6L415.6,172z">
  </path>
  <path class="st1" d="M450.8,176.4l-10.8-33h4.6l5.1,16.3c1.4,4.5,2.6,8.5,3.5,12.3h0.1c0.9-3.8,2.3-8,3.8-12.3l5.6-16.3h4.6
		l-11.8,33H450.8z">
  </path>
  <path class="st1" d="M481.9,176.4l-0.3-3h-0.1c-1.3,1.9-3.9,3.5-7.3,3.5c-4.8,0-7.3-3.4-7.3-6.8c0-5.7,5.1-8.9,14.3-8.8v-0.5
		c0-2-0.5-5.5-5.4-5.5c-2.2,0-4.5,0.7-6.2,1.8l-1-2.8c2-1.3,4.8-2.1,7.8-2.1c7.3,0,9,4.9,9,9.7v8.9c0,2.1,0.1,4.1,0.4,5.7H481.9z
		 M481.3,164.3c-4.7-0.1-10,0.7-10,5.3c0,2.8,1.9,4.1,4.1,4.1c3.1,0,5-2,5.7-4c0.1-0.4,0.2-0.9,0.2-1.4V164.3z">
  </path>
  <path class="st1" d="M508.9,175.5c-1.1,0.6-3.6,1.4-6.8,1.4c-7.2,0-11.8-4.9-11.8-12.1c0-7.3,5-12.6,12.7-12.6c2.5,0,4.8,0.6,6,1.2
		l-1,3.3c-1-0.6-2.6-1.1-5-1.1c-5.4,0-8.4,4-8.4,9c0,5.5,3.5,8.9,8.2,8.9c2.4,0,4.1-0.6,5.3-1.2L508.9,175.5z">
  </path>
  <path class="st1" d="M530.2,175.5c-1.1,0.6-3.6,1.4-6.8,1.4c-7.2,0-11.8-4.9-11.8-12.1c0-7.3,5-12.6,12.7-12.6c2.5,0,4.8,0.6,6,1.2
		l-1,3.3c-1-0.6-2.6-1.1-5-1.1c-5.4,0-8.4,4-8.4,9c0,5.5,3.5,8.9,8.2,8.9c2.4,0,4.1-0.6,5.3-1.2L530.2,175.5z">
  </path>
  <path class="st1" d="M539.6,146c0.1,1.5-1,2.6-2.7,2.6c-1.5,0-2.6-1.2-2.6-2.6c0-1.5,1.1-2.7,2.7-2.7
		C538.6,143.3,539.6,144.5,539.6,146z M534.8,176.4v-23.7h4.3v23.7H534.8z">
  </path>
  <path class="st1" d="M545.9,159.1c0-2.4,0-4.5-0.2-6.4h3.8l0.2,3.9h0.1c1.2-2.3,3.9-4.5,7.8-4.5c3.3,0,8.4,2,8.4,10.1v14.2h-4.3
		v-13.7c0-3.8-1.4-7-5.5-7c-2.8,0-5,2-5.8,4.4c-0.2,0.5-0.3,1.3-0.3,2v14.3h-4.3V159.1z">
  </path>
  <path class="st1" d="M575.1,165.3c0.1,5.8,3.8,8.2,8.1,8.2c3.1,0,5-0.5,6.6-1.2l0.7,3.1c-1.5,0.7-4.1,1.5-7.9,1.5
		c-7.3,0-11.7-4.8-11.7-12s4.2-12.8,11.1-12.8c7.7,0,9.8,6.8,9.8,11.2c0,0.9-0.1,1.6-0.1,2H575.1z M587.7,162.2c0-2.7-1.1-7-6-7
		c-4.4,0-6.3,4-6.6,7H587.7z">
  </path>
  <path class="st1" d="M596.3,172c1.3,0.8,3.5,1.7,5.7,1.7c3.1,0,4.6-1.6,4.6-3.5c0-2.1-1.2-3.2-4.4-4.4c-4.3-1.5-6.3-3.9-6.3-6.7
		c0-3.8,3.1-7,8.2-7c2.4,0,4.5,0.7,5.8,1.5l-1.1,3.1c-0.9-0.6-2.6-1.4-4.9-1.4c-2.5,0-4,1.5-4,3.2c0,2,1.4,2.8,4.5,4
		c4.1,1.6,6.2,3.6,6.2,7.2c0,4.2-3.2,7.1-8.9,7.1c-2.6,0-5-0.6-6.7-1.6L596.3,172z">
  </path>
  <path class="st1" d="M630.3,147h-10v-3.6h24.4v3.6h-10.1v29.4h-4.3V147z">
  </path>
  <path class="st1" d="M665.8,164.3c0,8.8-6.1,12.6-11.8,12.6c-6.4,0-11.4-4.7-11.4-12.2c0-7.9,5.2-12.6,11.8-12.6
		C661.2,152.1,665.8,157.1,665.8,164.3z M647,164.6c0,5.2,3,9.1,7.2,9.1c4.1,0,7.2-3.9,7.2-9.2c0-4-2-9.1-7.1-9.1
		C649.2,155.4,647,160.1,647,164.6z">
  </path>
  <path class="st1" d="M691.3,141.6v28.7c0,2.1,0.1,4.5,0.2,6.1h-3.9l-0.2-4.1h-0.1c-1.3,2.6-4.2,4.7-8.1,4.7
		c-5.7,0-10.1-4.9-10.1-12.1c-0.1-7.9,4.8-12.7,10.6-12.7c3.6,0,6.1,1.7,7.2,3.6h0.1v-14.2H691.3z M687,162.3c0-0.5-0.1-1.3-0.2-1.8
		c-0.6-2.7-3-5-6.2-5c-4.5,0-7.1,3.9-7.1,9.2c0,4.8,2.4,8.8,7,8.8c2.9,0,5.5-1.9,6.3-5.1c0.1-0.6,0.2-1.2,0.2-1.9V162.3z">
  </path>
  <path class="st1" d="M711.2,176.4l-0.3-3h-0.1c-1.3,1.9-3.9,3.5-7.3,3.5c-4.8,0-7.3-3.4-7.3-6.8c0-5.7,5.1-8.9,14.3-8.8v-0.5
		c0-2-0.5-5.5-5.4-5.5c-2.2,0-4.5,0.7-6.2,1.8l-1-2.8c2-1.3,4.8-2.1,7.8-2.1c7.3,0,9,4.9,9,9.7v8.9c0,2.1,0.1,4.1,0.4,5.7H711.2z
		 M710.6,164.3c-4.7-0.1-10,0.7-10,5.3c0,2.8,1.9,4.1,4.1,4.1c3.1,0,5-2,5.7-4c0.1-0.4,0.2-0.9,0.2-1.4V164.3z">
  </path>
  <path class="st1" d="M722.5,152.7l5.2,14c0.5,1.6,1.1,3.4,1.5,4.9h0.1c0.4-1.4,0.9-3.2,1.5-4.9l4.7-13.9h4.6l-6.5,16.9
		c-3.1,8.1-5.2,12.3-8.1,14.8c-2.1,1.9-4.2,2.6-5.3,2.8l-1.1-3.6c1.1-0.3,2.5-1,3.8-2.1c1.2-0.9,2.6-2.6,3.6-4.8
		c0.2-0.4,0.3-0.8,0.3-1c0-0.2-0.1-0.6-0.3-1.1l-8.8-21.9H722.5z">
  </path>
 </g>
</svg>