<svg version="1.1" id="Layer_1" xmlns:x="ns_extend;" xmlns:i="ns_ai;" xmlns:graph="ns_graphs;" xmlns="http://www.w3.org/2000/svg" xmlns:xlink="http://www.w3.org/1999/xlink" x="0px" y="0px" viewBox="0 0 279.6 77" style="enable-background:new 0 0 279.6 77;" xml:space="preserve">
 <style type="text/css">
  .st0{fill:#898A8D;}
	.st1{clip-path:url(#SVGID_2_);fill:url(#SVGID_3_);}
	.st2{clip-path:url(#SVGID_5_);fill:url(#SVGID_6_);}
 </style>
 <metadata>
  <sfw xmlns="ns_sfw;">
   <slices>
   </slices>
   <sliceSourceBounds bottomLeftOrigin="true" height="77" width="279.6" x="59.6" y="161.1">
   </sliceSourceBounds>
  </sfw>
 </metadata>
 <g>
  <g>
   <path class="st0" d="M143.4,64.3v3.2h3.7V69h-3.7v4.5h-1.6V62.9h6.2v1.4H143.4z M148.6,69.9c0.2-4.8,7.3-4.8,7.5,0
			C155.9,74.7,148.8,74.7,148.6,69.9L148.6,69.9z M154.6,69.9c0-2-2.5-3-3.9-1.5c-1.4,1.4-0.4,3.8,1.6,3.8
			C153.7,72.2,154.7,71.1,154.6,69.9L154.6,69.9z M162.7,66.4l-0.3,1.4c-0.3-0.2-0.7-0.2-1.1-0.2c-1.3,0-1.9,1.4-1.9,3.3v2.6h-1.5
			v-7.2h1.5v1.6c0.4-1.3,1.1-1.8,2-1.8C161.8,66.1,162.3,66.2,162.7,66.4L162.7,66.4z M174.5,66.3l-2.6,7.2h-1.3l-1.9-5.1l-1.8,5.1
			h-1.2l-2.7-7.2h1.6l1.7,4.9l1.7-4.9h1.4l1.7,4.9l1.7-4.9H174.5z M182.8,66.3v7.2h-1.5v-1.1c-0.6,0.8-1.5,1.3-2.5,1.2
			c-4.8-0.2-4.8-7.2,0-7.5c1-0.1,1.9,0.4,2.5,1.2v-1.1H182.8z M181.2,69.9c0-1.3-1-2.3-2.3-2.3c-1.3,0-2.3,1-2.2,2.3
			c-0.1,1.3,1,2.4,2.3,2.4C180.2,72.2,181.3,71.2,181.2,69.9L181.2,69.9z M189.7,66.4l-0.3,1.4c-0.3-0.2-0.7-0.2-1.1-0.2
			c-1.3,0-1.9,1.4-1.9,3.3v2.6H185v-7.2h1.5v1.6c0.4-1.3,1.1-1.8,2-1.8C188.9,66.1,189.4,66.2,189.7,66.4L189.7,66.4z M197.9,62.4
			v11h-1.5v-1.1c-0.6,0.8-1.5,1.3-2.5,1.2c-5,0-5-7.5,0-7.5c1-0.1,1.9,0.4,2.5,1.2v-4.9L197.9,62.4z M196.4,69.9
			c0-1.3-1-2.3-2.3-2.3c-1.3,0-2.3,1-2.2,2.3c-0.1,1.3,1,2.4,2.3,2.4C195.4,72.2,196.4,71.2,196.4,69.9L196.4,69.9z M210.5,64.3
			h-3.1v9.1h-1.6v-9.1h-3.1v-1.4h7.9V64.3z M210.1,69.9c0.2-4.8,7.3-4.8,7.5,0C217.4,74.7,210.3,74.7,210.1,69.9L210.1,69.9z
			 M216.1,69.9c0-2-2.5-3-3.9-1.6c-1.4,1.4-0.4,3.8,1.6,3.9C215.1,72.2,216.2,71.1,216.1,69.9L216.1,69.9z M226.5,66.3v6.1
			c0,3.3-1.5,4.6-3.9,4.6c-1.4,0-2.6-0.8-3.3-2l1.3-0.6c0.4,0.7,1.2,1.2,2,1.2c1.5,0,2.4-0.9,2.4-3.1v-0.1c-0.6,0.8-1.5,1.2-2.5,1.2
			c-4.8-0.2-4.8-7.2,0-7.5c1,0,1.9,0.4,2.5,1.2v-1H226.5z M224.9,69.9c0-1.3-1-2.3-2.3-2.3c-1.3,0-2.3,1-2.2,2.3
			c-0.1,1.3,1,2.4,2.3,2.4C224,72.2,225,71.2,224.9,69.9L224.9,69.9z M235.5,70.5h-5.7c0.2,1.1,1.1,1.8,2.2,1.7c0.8,0,1.6-0.3,2-1
			l1.2,0.6c-1.5,2.4-5,2.4-6.5,0c-1.4-2.5,0.3-5.6,3.1-5.6c2-0.1,3.7,1.7,3.6,3.7C235.5,70,235.5,70.3,235.5,70.5L235.5,70.5z
			 M234,69.3c-0.1-1-1-1.8-2.1-1.7c-1.1-0.1-2,0.7-2.1,1.7H234z M240.8,67.6h-1.5v5.9h-1.5v-5.9h-1.3v-1.3h1.3v-2.7h1.5v2.7h1.5
			V67.6z M248.9,69.4v4.1h-1.5v-4c0.1-1-0.7-1.8-1.6-1.8c-1.1-0.1-2.1,0.9-2.1,2v3.8h-1.5V62.4h1.5v5c0.5-0.8,1.4-1.3,2.3-1.2
			C247.8,66.1,248.9,67.3,248.9,69.4L248.9,69.4z M257.9,70.5h-5.7c0.2,1.1,1.1,1.8,2.2,1.7c0.8,0,1.6-0.3,2-1l1.2,0.6
			c-1.5,2.4-5,2.4-6.4-0.1c-1.4-2.5,0.3-5.5,3.1-5.6c2.1-0.1,3.7,1.7,3.6,3.7C257.9,70,257.9,70.3,257.9,70.5L257.9,70.5z
			 M256.4,69.3c-0.1-1-1-1.8-2.1-1.7c-1.1-0.1-2,0.7-2.1,1.7H256.4z M264.4,66.4l-0.3,1.4c-0.3-0.2-0.7-0.2-1.1-0.2
			c-1.3,0-1.9,1.4-1.9,3.3v2.6h-1.5v-7.2h1.5v1.6c0.4-1.3,1.1-1.8,2-1.8C263.6,66.1,264,66.2,264.4,66.4L264.4,66.4z M264.3,72.6
			c0-1,1.1-1.5,1.8-0.8c0.7,0.7,0.2,1.8-0.7,1.8C264.8,73.6,264.3,73.2,264.3,72.6L264.3,72.6z M264.3,72.6">
   </path>
   <path d="M151.3,33.4l-4.8-11.9h-8.1l9.1,20.3l-5.7,14.1h7.8l14.2-34.3h-7.8L151.3,33.4z M165.9,44.5h7.3V9.4h-7.3L165.9,44.5z
			 M188.4,20.9c-3.2-0.1-6.3,1-8.6,3.2c-2.3,2.2-3.7,5.2-3.8,8.4V33c0,6.6,5.4,12,12.1,12h0.4c6.7,0.2,12.3-5,12.5-11.6V33
			c0-3.2-1.3-6.3-3.6-8.5c-2.3-2.3-5.4-3.5-8.6-3.5L188.4,20.9 M188.3,38.2c-2.8,0-5-2.1-5.1-4.9V33c-0.1-2.8,2-5.1,4.8-5.3h0.3
			c2.8,0,5.1,2.2,5.1,5V33c0.1,2.8-2,5.1-4.7,5.2H188.3 M215.9,27.7c1.7,0,3.3,0.8,4.4,2.2l5.6-3.6c-2.2-3.4-6-5.4-10.1-5.4
			c-6.7,0-12.7,4.7-12.7,12c0,7.3,6,12,12.7,12c4,0,7.8-2,10.1-5.4l-5.6-3.6c-1,1.4-2.7,2.2-4.4,2.2c-2.8,0.1-5.2-2-5.3-4.8V33
			c-0.1-2.8,2.1-5.1,4.9-5.2L215.9,27.7 M232.3,9.6c-2.4-0.1-4.4,1.7-4.6,4.1c0.1,2.4,2.1,4.3,4.5,4.2c2.4,0,4.4-1.8,4.4-4.2
			C236.7,11.4,234.7,9.5,232.3,9.6L232.3,9.6 M228.6,44.5h7.3v-23h-7.3V44.5z M243.4,13.3v8.2h-4.2V27h4.2v17.5h7.3V27h6l6.6,14.8
			l-5.7,14h7.8l14.2-34.3h-7.8l-4.7,11.9l-4.8-11.9h-11.6v-8.3L243.4,13.3z M97.5,21c-2.7-0.1-5.3,1.1-7.1,3.1v-2.5h-7.3v34.3h7.3
			v-14c1.8,2,4.4,3.1,7.1,3c3,0,5.9-1.3,8-3.4c2.1-2.2,3.3-5.1,3.2-8.1v-0.5c0.2-3-0.9-6-2.9-8.2c-2-2.3-4.9-3.6-7.9-3.8L97.5,21
			 M96,38.2c-4.6-0.1-6.8-5.7-3.5-8.9c3.3-3.2,8.8-0.9,8.9,3.7C101.3,35.8,98.9,38.2,96,38.2 M129,24.1c-1.8-2-4.4-3.1-7.2-3.1
			c-3,0.1-5.9,1.3-8,3.5c-2.1,2.2-3.2,5.1-3.2,8.1V33c-0.3,6.2,4.4,11.6,10.7,12h0.5c2.7,0.1,5.3-1.1,7.1-3.1v2.7h7.3v-23H129
			L129,24.1z M123.5,38.2c-4.6-0.1-6.8-5.7-3.5-8.9c3.3-3.2,8.8-0.9,8.8,3.7C128.7,35.9,126.3,38.2,123.5,38.2">
   </path>
  </g>
  <g>
   <g>
    <defs>
     <path id="SVGID_1_" d="M0.3,36.1c-0.2,0-0.3,0.2-0.3,0.4v0c0,0,0,0,0,0c0,0,0,0,0,0.1C3.4,53.6,13.3,66,24.9,66
					c3.7,0,15.2,0,19.1-25c0.1-0.5-0.5-0.7-0.6-0.2c-1.8,6.2-5.5,16.1-10.1,16.1c-3.3,0-7.2-5.2-11.3-20.6c0-0.2-0.2-0.3-0.3-0.3
					H0.3z M47,36.1c-0.2,0-0.3,0.2-0.3,0.3C45.4,49.6,42,59.2,36.3,64.5c-0.2,0.2-0.2,0.4,0,0.6c0,0,0.1,0.1,0.1,0.1
					c1.7,0.5,3.4,0.8,5.2,0.8C53.2,66,63,53.4,66.4,36.4c0-0.2-0.1-0.4-0.3-0.4H47z">
     </path>
    </defs>
    <clipPath id="SVGID_2_">
     <use href="#SVGID_1_" style="overflow:visible;">
     </use>
    </clipPath>
    <linearGradient id="SVGID_3_" gradientUnits="userSpaceOnUse" x1="-381.9552" y1="413.1339" x2="-380.0299" y2="413.1339" gradientTransform="matrix(-31.6541 0 0 31.6541 -12027.7217 -13026.3662)">
     <stop offset="0" style="stop-color:#FF8F1C">
     </stop>
     <stop offset="1" style="stop-color:#ED2024">
     </stop>
    </linearGradient>
    <rect x="0" y="36.1" class="st1" width="66.4" height="29.9">
    </rect>
   </g>
   <g>
    <defs>
     <path id="SVGID_4_" d="M0,29.6C0,29.6,0,29.6,0,29.6L0,29.6c0,0.2,0.1,0.4,0.3,0.4h19c0.2,0,0.3-0.2,0.3-0.3
					C21,16.4,24.3,6.8,30.1,1.5c0.2-0.2,0.2-0.4,0-0.6c0,0-0.1-0.1-0.1-0.1C28.3,0.3,26.6,0,24.8,0C13.2,0,3.4,12.6,0,29.6 M22.4,25
					c-0.1,0.5,0.5,0.6,0.6,0.2c1.8-6.2,5.5-16.1,10.1-16.1c3.3,0,7.2,5.1,11.3,20.6c0,0.2,0.2,0.3,0.3,0.3H66c0.2,0,0.4-0.2,0.3-0.4
					c0,0,0,0,0-0.1C62.9,12.4,53.1,0,41.5,0C37.8,0,26.3,0,22.4,25">
     </path>
    </defs>
    <clipPath id="SVGID_5_">
     <use xlink:href="#SVGID_4_" style="overflow:visible;">
     </use>
    </clipPath>
    <linearGradient id="SVGID_6_" gradientUnits="userSpaceOnUse" x1="-362.2056" y1="431.5354" x2="-360.2803" y2="431.5354" gradientTransform="matrix(31.6541 0 0 -31.6541 11468.9258 13674.8467)">
     <stop offset="0" style="stop-color:#FF8F1C">
     </stop>
     <stop offset="1" style="stop-color:#ED2024">
     </stop>
    </linearGradient>
    <rect class="st2" width="66.4" height="29.9">
    </rect>
   </g>
  </g>
 </g>
</svg>