<svg version="1.1" id="Layer_1" xmlns:x="ns_extend;" xmlns:i="ns_ai;" xmlns:graph="ns_graphs;" xmlns="http://www.w3.org/2000/svg" xmlns:xlink="http://www.w3.org/1999/xlink" x="0px" y="0px" viewBox="0 0 501.8 100" style="enable-background:new 0 0 501.8 100;" xml:space="preserve">
 <style type="text/css">
  .st0{fill-rule:evenodd;clip-rule:evenodd;fill:#FFC656;}
	.st1{fill-rule:evenodd;clip-rule:evenodd;fill:#065BAA;}
 </style>
 <metadata>
  <sfw xmlns="ns_sfw;">
   <slices>
   </slices>
   <sliceSourceBounds bottomLeftOrigin="true" height="100" width="501.8" x="-50.4" y="-250.2">
   </sliceSourceBounds>
  </sfw>
 </metadata>
 <g>
  <path class="st0" d="M86.9,94.6c0.2,0.5,0.5,0.9,0.9,1.2c0.4,0.3,0.9,0.5,1.4,0.6c0.6,0.1,1.2,0.2,1.8,0.2c0.5,0,0.9,0,1.4-0.2
		c0.5-0.1,0.9-0.3,1.2-0.5c0.4-0.2,0.7-0.5,0.9-0.9c0.2-0.4,0.4-0.9,0.4-1.3c0-0.5-0.2-0.9-0.5-1.2c-0.4-0.3-0.8-0.6-1.2-0.8
		c-0.5-0.3-1.1-0.5-1.7-0.6c-0.6-0.2-1.2-0.3-1.9-0.5c-0.6-0.2-1.3-0.4-1.9-0.7c-0.6-0.3-1.2-0.6-1.7-1c-0.5-0.4-0.9-1-1.2-1.6
		c-0.3-0.7-0.5-1.5-0.5-2.2c0-1.1,0.2-2.1,0.7-2.9c0.5-0.8,1.1-1.5,1.9-2c0.8-0.5,1.7-0.9,2.6-1.1c1.9-0.5,4-0.5,5.9,0
		c0.9,0.2,1.7,0.6,2.4,1.2c0.7,0.5,1.2,1.2,1.7,2c0.4,0.8,0.6,1.8,0.6,3h-4.3c0-0.6-0.1-1.1-0.2-1.4c-0.2-0.4-0.5-0.7-0.8-1
		c-0.4-0.2-0.8-0.4-1.2-0.5c-0.9-0.2-1.8-0.2-2.7,0c-0.4,0.1-0.8,0.2-1.2,0.4c-0.3,0.2-0.6,0.5-0.8,0.8c-0.2,0.4-0.3,0.8-0.3,1.2
		c0,0.5,0.2,0.9,0.6,1.2c0.4,0.3,0.8,0.6,1.3,0.8c0.5,0.2,1.1,0.4,1.6,0.5l1.4,0.3c0.8,0.2,1.5,0.5,2.2,0.7c0.7,0.3,1.2,0.6,1.7,1.1
		c0.5,0.4,0.9,1,1.1,1.6c0.3,0.6,0.4,1.4,0.4,2.3c0,1.2-0.3,2.3-0.8,3.1c-0.5,0.8-1.1,1.6-1.9,2.1c-0.8,0.5-1.7,0.9-2.7,1.1
		c-1,0.2-2,0.4-3,0.4c-2.9,0-5-0.6-6.4-1.7c-1.4-1.2-2.1-3-2.1-5.5h4.3C86.6,93.5,86.7,94.1,86.9,94.6 M119.8,83.4
		c-0.7-0.6-1.6-1-2.6-1c-1.1,0-2.1,0.3-3,0.8c-0.9,0.5-1.6,1.2-2.1,2c-0.6,0.9-1,1.8-1.2,2.8c-0.3,1-0.4,2-0.4,3
		c0,0.7,0.1,1.4,0.3,2c0.2,0.6,0.5,1.2,0.8,1.7c0.4,0.5,0.8,0.9,1.4,1.2c0.6,0.3,1.3,0.4,2.1,0.4c0.6,0,1.2-0.1,1.7-0.3
		c1-0.4,1.9-1.2,2.5-2.2c0.3-0.5,0.5-1,0.6-1.6h4.5c-0.4,1.3-0.9,2.5-1.6,3.6c-0.6,1-1.3,1.8-2.1,2.4c-0.8,0.6-1.6,1.1-2.6,1.4
		c-1,0.3-2,0.4-3.1,0.4c-2.9,0-5.1-0.8-6.7-2.3c-1.6-1.6-2.4-3.8-2.4-6.7c0-1.7,0.3-3.2,0.8-4.7c0.5-1.5,1.3-2.8,2.2-3.9
		c1-1.1,2.2-2,3.5-2.7c1.5-0.7,3.1-1,4.7-1c1.2,0,2.3,0.2,3.3,0.5c1,0.3,1.9,0.8,2.6,1.4c0.7,0.6,1.3,1.4,1.7,2.4
		c0.4,1,0.6,2,0.6,3.3h-4.5C120.8,84.9,120.5,84,119.8,83.4 M138.9,78.9l-3.8,20h-4l3.8-20H138.9 M163.3,78.9l-0.8,3.7h-11.2
		l-0.9,4.3h10.3l-0.7,3.4h-10.3l-1.1,4.9H160l-0.8,3.7h-15.9l4.3-20H163.3 M175.2,79.5l5.5,14.2h0.1l2.9-14.2h4.1l-4.3,20H179
		l-5.6-14.1h0l-2.9,14.1h-4.2l4.3-20H175.2 M206.4,83.7c-0.7-0.6-1.6-0.9-2.6-0.9c-1.1,0-2.1,0.3-3,0.8c-0.9,0.5-1.6,1.2-2.1,2
		c-0.6,0.8-1,1.7-1.2,2.7c-0.3,1-0.4,1.9-0.4,2.9c0,0.7,0.1,1.4,0.3,2c0.2,0.6,0.5,1.2,0.8,1.6c0.4,0.5,0.9,0.9,1.4,1.1
		c0.6,0.3,1.3,0.4,2.1,0.4c0.6,0,1.2-0.1,1.7-0.3c1.6-0.6,2.7-2,3.1-3.7h4.5c-0.5,1.4-1,2.6-1.6,3.6c-0.5,0.9-1.2,1.7-2.1,2.4
		c-0.8,0.6-1.6,1.1-2.6,1.3c-1,0.3-2,0.4-3.1,0.4c-2.9,0-5.1-0.7-6.7-2.3c-1.6-1.5-2.3-3.7-2.3-6.6c0-1.6,0.3-3.2,0.8-4.6
		c0.5-1.4,1.2-2.7,2.2-3.8c1-1.1,2.2-2,3.5-2.7c1.4-0.6,2.9-1,4.6-1c1.2,0,2.3,0.2,3.3,0.5c1,0.3,1.9,0.8,2.6,1.4
		c0.7,0.6,1.3,1.4,1.7,2.3c0.4,0.9,0.6,2,0.6,3.2h-4.5C207.4,85.3,207,84.3,206.4,83.7 M236.7,78.9l-0.8,3.7h-11.2l-0.9,4.3h10.3
		l-0.8,3.4h-10.3l-1.1,4.9h11.4l-0.8,3.7h-15.8l4.3-20H236.7 M254.6,83.2l0.8-3.7h16.9l-0.8,3.7h-6.1l-3.5,16.3h-4.5l3.5-16.3H254.6
		 M280.1,93.1c0.2,0.6,0.5,1.2,0.8,1.6c0.4,0.5,0.8,0.9,1.4,1.1c0.6,0.3,1.3,0.4,2.1,0.4c1.1,0,2.1-0.3,2.9-0.8
		c0.8-0.5,1.5-1.2,2.1-2c0.6-0.8,1-1.7,1.2-2.7c0.3-0.9,0.4-1.9,0.4-2.9c0-0.7-0.1-1.4-0.2-2c-0.1-0.6-0.4-1.2-0.8-1.6
		c-0.4-0.5-0.8-0.9-1.4-1.1c-0.7-0.3-1.4-0.4-2.1-0.4c-1.1,0-2.1,0.3-3,0.8c-0.8,0.5-1.5,1.2-2.1,2c-0.6,0.8-1,1.7-1.2,2.7
		c-0.3,1-0.4,1.9-0.4,2.9C279.8,91.9,279.9,92.5,280.1,93.1L280.1,93.1z M276.1,86.5c0.5-1.5,1.2-2.7,2.2-3.8c1-1.1,2.2-2,3.5-2.7
		c1.4-0.6,2.9-1,4.6-1c1.4,0,2.6,0.2,3.7,0.5c1.1,0.4,2.1,0.9,2.8,1.7c0.8,0.7,1.4,1.6,1.8,2.7c0.4,1.1,0.6,2.3,0.6,3.7
		c0,1.6-0.2,3.2-0.7,4.7c-0.5,1.4-1.2,2.8-2.2,4c-0.9,1.1-2.1,2.1-3.5,2.7c-1.4,0.7-2.9,1-4.7,1c-2.9,0-5.1-0.7-6.7-2.3
		c-1.6-1.5-2.3-3.7-2.3-6.6C275.3,89.6,275.6,88,276.1,86.5L276.1,86.5z M322.5,78.9l1.5,14.5h0l7.7-14.5h6.1l-4.2,20h-4.1l3.6-15.9
		h0l-8.4,15.9h-3.3L319.4,83h0l-3,15.9h-4.1l4.2-20H322.5 M362.2,78.9l-0.8,3.7h-11.2l-0.9,4.3h10.3l-0.8,3.4h-10.3l-1.1,4.9h11.4
		l-0.8,3.7h-15.9l4.3-20H362.2 M374.2,95.2c1.1,0,2.1-0.2,3-0.6c0.9-0.4,1.6-1,2.2-1.7c0.6-0.7,1-1.5,1.3-2.5c0.3-0.9,0.5-1.9,0.5-3
		c0-0.7-0.1-1.4-0.2-2c-0.1-0.6-0.4-1.1-0.8-1.5c-0.4-0.4-0.8-0.8-1.4-1c-0.6-0.2-1.3-0.4-2-0.3h-3.3l-2.7,12.6H374.2z M377.1,78.9
		c2.8,0,5,0.7,6.4,2c1.4,1.4,2.1,3.3,2.1,5.8c0,1.7-0.2,3.4-0.7,4.8c-0.5,1.5-1.2,2.8-2.2,3.9c-1,1.1-2.2,1.9-3.6,2.6
		c-1.5,0.6-3.2,0.9-5.1,0.9h-8.4l4.2-20H377.1z M398.9,79.5l-4.4,20h-4.6l4.4-20H398.9 M418.1,83.7c-0.7-0.6-1.6-0.9-2.7-0.9
		c-1.2,0-2.2,0.3-3.1,0.8c-0.9,0.5-1.6,1.2-2.1,2c-0.6,0.8-1,1.7-1.2,2.7c-0.3,1-0.4,1.9-0.4,2.9c0,0.7,0.1,1.4,0.3,2
		c0.2,0.6,0.5,1.2,0.8,1.6c0.4,0.5,0.9,0.9,1.5,1.1c0.6,0.3,1.3,0.4,2.2,0.4c0.6,0,1.2-0.1,1.8-0.3c0.6-0.2,1.1-0.5,1.5-0.9
		c0.4-0.4,0.8-0.8,1.1-1.3c0.3-0.5,0.5-1,0.6-1.5h4.6c-0.5,1.4-1,2.6-1.6,3.6c-0.6,0.9-1.3,1.7-2.1,2.4c-0.8,0.6-1.7,1.1-2.6,1.3
		c-1,0.3-2,0.4-3.1,0.4c-3,0-5.2-0.7-6.9-2.3c-1.6-1.5-2.4-3.7-2.4-6.6c0-1.6,0.3-3.2,0.8-4.6c0.5-1.5,1.3-2.7,2.3-3.8
		c1-1.1,2.2-2,3.6-2.7c1.4-0.6,3-1,4.8-1c1.2,0,2.3,0.2,3.4,0.5c1,0.3,1.9,0.8,2.7,1.4c0.8,0.6,1.3,1.4,1.7,2.3
		c0.4,0.9,0.6,2,0.6,3.2h-4.6C419.1,85.3,418.8,84.3,418.1,83.7 M436.7,78.9l-3.8,20h-4l3.8-20H436.7 M449.9,78.9l5.4,14.2h0.1
		l2.9-14.2h4l-4.2,20h-4.4l-5.5-14h-0.1l-2.8,14h-4.1l4.2-20H449.9 M486.7,78.9l-0.8,3.7h-11.2l-0.9,4.3h10.3l-0.8,3.4h-10.3l-1,4.9
		h11.4l-0.8,3.7h-15.8l4.3-20H486.7 M495.8,81.8c0.2,0,0.5,0,0.7-0.1c0.2-0.1,0.3-0.3,0.4-0.6c0-0.1,0-0.2,0-0.3
		c0-0.1-0.1-0.1-0.2-0.2c-0.1,0-0.2-0.1-0.3-0.1c-0.1,0-0.2,0-0.3,0h-0.8l-0.3,1.3H495.8z M496.2,79.7c0.6,0,1,0.1,1.3,0.3
		c0.3,0.2,0.4,0.6,0.3,1.1c0,0.2-0.1,0.4-0.2,0.6c-0.2,0.3-0.5,0.5-0.8,0.6c-0.2,0.1-0.3,0.1-0.5,0.1l0.8,2.2h-1l-0.7-2.1h-0.6
		l-0.4,2.1h-1l1-5H496.2z M492.4,82.2c-0.1,0.5-0.1,0.9,0,1.4c0.1,0.4,0.2,0.8,0.5,1.1c0.2,0.3,0.5,0.6,0.9,0.7
		c0.4,0.2,0.8,0.3,1.2,0.3c0.4,0,0.9-0.1,1.3-0.3c0.4-0.2,0.8-0.4,1.2-0.7c0.7-0.7,1.2-1.5,1.4-2.5c0.1-0.5,0.1-1,0-1.4
		c-0.1-0.4-0.2-0.8-0.5-1.1c-0.2-0.3-0.5-0.6-0.9-0.7c-0.4-0.2-0.8-0.3-1.2-0.3c-0.5,0-0.9,0.1-1.3,0.3c-0.4,0.2-0.8,0.4-1.2,0.7
		c-0.4,0.3-0.6,0.7-0.9,1.1C492.7,81.3,492.5,81.7,492.4,82.2L492.4,82.2z M491.3,82.2c0.1-0.7,0.4-1.3,0.7-1.8
		c0.7-1.1,1.6-1.8,2.8-2.3c0.6-0.2,1.1-0.3,1.7-0.3c0.6,0,1.1,0.1,1.6,0.3c1,0.4,1.7,1.3,1.9,2.3c0.1,0.6,0.1,1.2,0,1.8
		c-0.1,0.7-0.4,1.3-0.7,1.8c-0.3,0.5-0.7,1-1.2,1.4c-0.5,0.4-1,0.7-1.6,0.9c-0.6,0.2-1.1,0.3-1.7,0.3c-0.6,0-1.1-0.1-1.6-0.3
		c-0.5-0.2-0.9-0.5-1.2-0.9c-0.3-0.4-0.6-0.9-0.7-1.4C491.1,83.5,491.1,82.8,491.3,82.2L491.3,82.2z M491.3,82.2">
  </path>
  <path class="st1" d="M67.3,1.1H110l-2.1,10.3H77.5L75,23.3h28.1l-2,9.5H72.9l-2.9,13.6h30.9l-2.2,10.3H55.6L67.3,1.1 M149.2,50.8
		h-0.2c-3.7,5-9,7-14.1,7c-15.7,0-24.9-8.9-24.9-24.4C110,15.5,121.7,0,140.7,0c13.1,0,23.8,6,23.8,19.6h-12.3
		c-0.3-6.6-4.6-9.3-11.4-9.3c-12.6,0-18.4,12.6-18.4,23.2c0,7.6,3.8,14.2,12.7,14.2c9.3,0,13.4-4.9,15.6-11.9h-13l2-9h23.8L157,56.5
		h-7.8V50.8 M177.3,1.1H220l-2.1,10.3h-30.4L185,23.3h28.1l-2,9.5H183l-2.9,13.6h30.9l-2.2,10.3h-43.2L177.3,1.1 M229.6,1.1h12.6
		l15.1,39.5h0.2l8-39.5h11.2l-11.8,55.5h-12.3l-15.3-39h-0.1l-8,39h-11.5L229.6,1.1 M287.3,1.1H330l-2.1,10.3h-30.4L295,23.3h28.1
		l-2,9.5H293l-2.9,13.6h30.9l-2.2,10.3h-43.2L287.3,1.1 M345.5,26.4h11.2c6.5-0.1,12.6-2.6,12.6-8.8c0-6-4.2-6.8-9-6.8h-11.6
		L345.5,26.4L345.5,26.4z M338.5,1.3h26.5c10-0.2,16.5,3.8,16.5,14.5c0,7.5-5.3,13.8-12.7,14.9v0.2c4.6,1.4,5.7,5.4,5.7,9.8
		c0,2.5-0.4,6.2-0.4,9.6c0,2.5,0.1,4.8,0.8,6.4H363c-0.3-1.3-0.6-2.5-0.6-3.7c0-3.7,0.6-7.5,0.6-11.2c0-5.4-3.2-6.7-8-6.7h-11.5
		L339,56.7h-12.2L338.5,1.3z M410.8,47.8c12,0,17.9-12.7,17.9-23.2c0-7.8-3.4-14.3-12.3-14.3c-12.5,0-18.2,12.6-18.2,23.3
		C398.2,41.1,401.9,47.8,410.8,47.8 M416.3,0c15,0,24.6,8.2,24.6,23.7c0,18.2-10.9,34.3-30.3,34.3c-15.5,0-24.6-8.9-24.6-24.5
		C386,15.6,397.6,0,416.3,0 M454.9,1.3h12.6l15.1,39.4h0.2l7.9-39.4h11.2l-11.7,55.3h-12.2l-15.2-38.8h-0.2l-7.9,38.8h-11.4
		L454.9,1.3 M18.9,26h11.4c6.5-0.1,12.7-2.6,12.7-8.8c0-6-4.3-6.9-9.1-6.9H22.2L18.9,26z M11.8,0.8h26.8
		c10.2-0.1,16.8,3.8,16.8,14.6c0,7.6-5.3,13.9-12.9,15v0.1c4.6,1.4,5.8,5.5,5.8,9.8c0,2.5-0.4,6.2-0.4,9.7c0,2.5,0.2,4.8,0.8,6.5
		h-12c-0.3-1.3-0.6-2.5-0.6-3.7c0-3.7,0.6-7.6,0.6-11.3c0-5.4-3.2-6.7-8.1-6.7H17l-4.6,21.7H0L11.8,0.8z M11.8,0.8">
  </path>
 </g>
</svg>