<svg version="1.1" id="Layer_1" xmlns:x="ns_extend;" xmlns:i="ns_ai;" xmlns:graph="ns_graphs;" xmlns="http://www.w3.org/2000/svg" xmlns:xlink="http://www.w3.org/1999/xlink" x="0px" y="0px" viewBox="0 0 324.8 75" style="enable-background:new 0 0 324.8 75;" xml:space="preserve">
 <style type="text/css">
  .st0{fill:#CD163F;}
	.st1{fill:url(#SVGID_1_);}
 </style>
 <metadata>
  <sfw xmlns="ns_sfw;">
   <slices>
   </slices>
   <sliceSourceBounds bottomLeftOrigin="true" height="75" width="324.8" x="1391.6" y="-153.6">
   </sliceSourceBounds>
  </sfw>
 </metadata>
 <g>
  <g>
   <path class="st0" d="M174,47.3c-7.3,0-11.6,3.8-11.6,10.2c0,6.4,4.4,10.2,11.6,10.2c7.3,0,11.7-3.8,11.7-10.2
			C185.6,51.1,181.3,47.3,174,47.3L174,47.3z M174,62c-2.1,0-3.6-1.8-3.6-4.6c0-2.8,1.4-4.6,3.6-4.6c2.2,0,3.6,1.8,3.6,4.6
			C177.5,60.3,176.2,62,174,62L174,62z M266,64.4c0,1.6,1.2,2.8,2.8,2.8h5.5V47.8H266V64.4L266,64.4z M266,41.4h8.3v4H266V41.4z
			 M289.2,47.3c-7.3,0-11.6,3.8-11.6,10.2c0,6.4,4.4,10.2,11.6,10.2c7.3,0,11.7-3.8,11.7-10.2C300.9,51.1,296.5,47.3,289.2,47.3
			L289.2,47.3z M289.2,62c-2.1,0-3.6-1.8-3.6-4.6c0-2.8,1.4-4.6,3.6-4.6c2.2,0,3.6,1.8,3.6,4.6C292.8,60.3,291.4,62,289.2,62
			L289.2,62z M134.7,16.3c-7.3,0-11.6,3.8-11.6,10.2c0,6.4,4.4,10.2,11.6,10.2c7.3,0,11.7-3.8,11.7-10.2
			C146.4,20.2,142,16.3,134.7,16.3L134.7,16.3z M134.7,31.1c-2.1,0-3.6-1.8-3.6-4.6c0-2.8,1.4-4.6,3.6-4.6c2.2,0,3.6,1.8,3.6,4.6
			C138.3,29.4,136.9,31.1,134.7,31.1z M250.1,31.3c-0.9,0-4.6,0.2-7.8,0.2c-3.4,0-4.5-0.3-5.2-2.5h13.2c0.3,0,0.6-0.3,0.6-0.6v-1.5
			c0-6.7-3.6-10.5-10.4-10.6c-7.6-0.1-11.2,3.9-11.2,9.9c0,6.6,3.5,10.6,11.8,10.6c5.9,0,8.6-2.4,9.2-5.2
			C250.4,31.5,250.2,31.3,250.1,31.3L250.1,31.3z M240.6,20.9c2.2,0,3.2,1.8,3.2,4H237C237,22.7,237.8,20.9,240.6,20.9L240.6,20.9z
			 M262,10.5h-5.4c-1.6,0-2.8,1.3-2.8,2.8v23h8.2V10.5L262,10.5z M158.1,36.6c3.2,0.3,6.8-0.4,8.2-0.6c0.3-0.1,0.6-0.4,0.6-0.7v-4.8
			c0,0-1.5,0.2-5.1,0.2c-3.1,0-5.1-1.6-5.1-4.2c0-2.6,1.8-4.2,4.8-4.2c3.4,0,5.4,0.4,5.4,0.4v-4.8c0-0.3-0.2-0.6-0.6-0.7
			c-1.4-0.3-4.9-1-7.8-0.8c-6.1,0.4-9.8,3.9-9.8,10.2C148.7,32.5,152.3,36.1,158.1,36.6L158.1,36.6z M239.5,47.7v2.5
			c-1.2-1.8-3-3-5.7-3c-6.2,0-9.7,3.8-9.7,10.2v0.1c0,6.4,3.5,10.2,9.7,10.2c2.7,0,4.5-1.2,5.7-3v0.4c0,1.2,0.9,2.1,2.1,2.1h5.7
			V47.7H239.5L239.5,47.7z M235.9,62c-2.1,0-3.6-1.8-3.6-4.6c0-2.7,1.4-4.6,3.6-4.6c2.2,0,3.6,1.8,3.6,4.6
			C239.5,60.3,238.2,62,235.9,62z M220.6,16.8l-2.3,12.7l-2.6-12.7h-9.3l-2.6,12.7l-2.3-12.7h-7.7l0,0l-8.1-0.1
			c-1.2,0-2.4,0.7-3,1.9l-4.6,6.7v-15h-5c-1.6,0-2.8,1.3-2.8,2.8v23h7.8v-9.7l5.3,7.8c0.6,1.2,1.8,1.9,3,1.9l8.1,0.1l-7.9-10.4
			l7.1-9.1l4.7,19.5h8.7c1,0,1.8-0.7,2-1.7l1.7-11.6h0.6l1.7,11.6c0.2,1,1,1.7,2,1.7h8.7l4.7-19.5L220.6,16.8L220.6,16.8z
			 M136.7,56.2c0,3.3-1.1,5-3.2,5c-1.3,0-2.7-0.4-2.7-3.7v-9.8H123v11.1c0,5.6,2.8,8.7,7.9,8.7c2.6,0,4.8-0.9,6.4-2.6v0.2
			c0,1.2,0.9,2.1,2.1,2.1h5.1V47.8h-7.8V56.2L136.7,56.2z M214.4,47.3c-2.7,0-5.1,1.2-6.7,3.3c-1.3-2.1-3.6-3.3-6.4-3.3
			c-2.4,0-4.5,0.9-6.1,2.6v-2.1h-7.1v19.5h7.7v-9.4c0-2.5,1.1-4.1,2.9-4.1c1.3,0,2.4,0.4,2.4,3.5v10h7.8v-9.4c0-2.6,1.1-4.1,2.9-4.1
			c1.3,0,2.4,0.4,2.4,3.5v10h7.7V55.9C222,50.4,219.3,47.3,214.4,47.3z M317,47.3c-2.6,0-4.8,0.9-6.4,2.6v-2.1h-7.2v19.5h7.8v-9.4
			c0-2.6,1.2-4.3,3.2-4.3c1.3,0,2.7,0.4,2.7,3.7v10h7.8V55.9C324.8,50.3,322,47.3,317,47.3L317,47.3z M258.4,41.4h-7.8v23
			c0,1.6,1.2,2.8,2.8,2.8h5V53.5h4.7v-5.7h-4.7V41.4L258.4,41.4z M274.1,10.5h-5.4c-1.6,0-2.8,1.3-2.8,2.8v23h8.2L274.1,10.5
			L274.1,10.5z M104.3,41.4c-0.8,0-1.6,0.5-1.9,1.3l-9.8,24.6h8.2l1.8-4.9h9.4l1,2.8l0,0c0.5,1.2,1.8,2,3.1,2h6.4l-10.3-25.9
			L104.3,41.4L104.3,41.4z M104.7,56.6l2.7-7.3l2.6,7.3H104.7z M156.2,41.4H148v23c0,1.6,1.2,2.8,2.8,2.8h5.5V53.5h4.7v-5.7h-4.7
			V41.4L156.2,41.4z M119.3,26.4c-0.8-1.1-2-1.8-3.6-2.1v-0.1c3.6-0.4,5.8-2.9,5.8-6.9c0-5-3.6-6.9-9.3-6.9h-14v25.9h8.3v-9.4h2.3
			c1.1,0,2.3,0.2,2.6,1.3l2.3,6.8c0.1,0.8,0.8,1.3,1.5,1.3h7.6l-2.9-8.7C119.8,27.2,119.6,26.7,119.3,26.4L119.3,26.4z M109.8,21.4
			h-3.3v-5.5h3.4c1.7,0,3.3,0.3,3.3,2.7C113.2,21.2,111.5,21.4,109.8,21.4L109.8,21.4z">
   </path>
  </g>
  <linearGradient id="SVGID_1_" gradientUnits="userSpaceOnUse" x1="12.7601" y1="72.7772" x2="52.1499" y2="4.5523" gradientTransform="matrix(1 0 0 1 0 -4)">
   <stop offset="0.28" style="stop-color:#CD163F">
   </stop>
   <stop offset="0.9" style="stop-color:#F58025">
   </stop>
  </linearGradient>
  <path class="st1" d="M21.3,23.2L51.4,1c0.4-0.3,0.2-1-0.3-1H26.4c-2.8,0-5.6,1.1-7.6,3.1L3.1,18.8c-2,2-3.1,4.8-3.1,7.6v22.2
		c0,2.9,1.1,5.6,3.1,7.6l15.7,15.7c2,2,4.8,3.1,7.6,3.1h21.3c0.6,0,0.8-0.8,0.2-1.1L5.6,54c-1.8-0.8-2.9-2.6-2.9-4.6V38.8
		c0-1.1,0.5-2.2,1.4-2.8l6.1-4.5v-8.2L21.3,23.2L21.3,23.2z">
  </path>
  <path class="st0" d="M50.5,31.8l-2.9,7.9h5.7L50.5,31.8z M26.2,32.1c0-2.5-1.7-2.9-3.5-2.9H19v5.9h3.5
		C24.4,35.2,26.2,34.9,26.2,32.1L26.2,32.1z">
  </path>
  <path class="st0" d="M72.3,19.2L57.7,4.7c-0.8-0.8-2.1-0.9-3.1-0.3L26.6,23.3c5.3,0.3,8.5,2.5,8.5,7.4c0,4.3-2.3,7-6.2,7.4v0.1
		c1.8,0.3,3,1.2,3.9,2.3c0.3,0.4,0.5,0.9,0.6,1.3l2.2,6.7l9.5-23.9c0.3-0.8,1.2-1.4,2-1.4h8.4l11.2,27.9h-6.9
		c-1.4,0-2.7-0.9-3.3-2.2l0,0l-1.1-3H45.4l-2,5.3H28.3c-0.8,0-1.5-0.6-1.6-1.4l-2.5-7.3c-0.3-1.2-1.6-1.5-2.8-1.5h-2.4v10.2h-8.6
		V34.3l-5.2,3.5c-0.5,0.3-0.7,0.9-0.7,1.4v10.8c0,0.7,0.4,1.3,1,1.6L54,71.9c0.9,0.4,2,0.2,2.7-0.5l15.6-15.6C74,54,75,51.6,75,49.2
		V25.8C75,23.4,74,21,72.3,19.2L72.3,19.2z">
  </path>
 </g>
</svg>