<svg xmlns="http://www.w3.org/2000/svg" width="567.2447" height="95.8765" viewBox="0 0 567.2447 95.8765" xmlns:xlink="http://www.w3.org/1999/xlink">
 <g id="Layer_2" data-name="Layer 2">
  <g id="ART">
   <g>
    <g>
     <rect x="32.0843" width="12.9167" height="77.2508" fill="#6b0aea">
     </rect>
     <path d="M48.1264,95.8764l12.9167-7.9611V21.04a32.1147,32.1147,0,0,0-12.9167-5.719Z" fill="#6b0aea" fill-rule="evenodd">
     </path>
     <path d="M16.0422,87.9154l12.9166,7.9611V15.3208A32.1026,32.1026,0,0,0,16.0422,21.04Z" fill="#6b0aea" fill-rule="evenodd">
     </path>
     <path d="M64.1686,3.6715V86.4781l6.0277-3.7218a15.2764,15.2764,0,0,0,6.889-13.0255V30.6534C77.0853,19.3693,64.1686,3.6715,64.1686,3.6715Z" fill="#6b0aea" fill-rule="evenodd">
     </path>
     <path d="M0,69.7308A15.2741,15.2741,0,0,0,6.889,82.7563l6.0277,3.7218V3.6715S0,19.3693,0,30.6534Z" fill="#6b0aea" fill-rule="evenodd">
     </path>
    </g>
    <g>
     <g>
      <polygon points="386.685 78.158 386.685 17.238 396.031 13.324 396.031 78.158 386.685 78.158" fill-rule="evenodd">
      </polygon>
      <path d="M381.7464,54.5866q0-9.72-6.1488-15.755T359.57,32.7969q-9.879,0-16.11,6.2776T337.23,55.8016q0,10.4493,6.1487,16.7675t15.9867,6.3182a22.1382,22.1382,0,0,0,13.3632-3.9286,20.0417,20.0417,0,0,0,7.4606-10.0848H370.1047q-3.1153,6.2373-10.74,6.2372a12.2389,12.2389,0,0,1-8.7312-3.2806,12.6806,12.6806,0,0,1-3.8122-8.87h34.5968A27.4047,27.4047,0,0,0,381.7464,54.5866Zm-34.8429-1.9441a13.2021,13.2021,0,0,1,3.9762-8.7888,12.1318,12.1318,0,0,1,8.6493-3.2806,12.5693,12.5693,0,0,1,8.7721,3.2806,11.5469,11.5469,0,0,1,3.6894,8.7888Z" fill-rule="evenodd">
      </path>
      <path d="M300.7279,33.5259v7.0472q4.5091-7.7763,14.4289-7.7762a16.94,16.94,0,0,1,12.5844,5.0221q4.96,5.0223,4.96,14.0135V78.1583h-9.2641V53.21q0-5.9941-3.0333-9.1938a10.8648,10.8648,0,0,0-8.28-3.2,11,11,0,0,0-8.3213,3.2q-3.0743,3.2-3.0743,9.1938V78.1583h-9.3461V33.5259Z" fill-rule="evenodd">
      </path>
      <rect x="273.9821" y="33.5259" width="9.3461" height="44.6324">
      </rect>
      <path d="M267.2064,41.0591H256.2207V65.7649a4.7073,4.7073,0,0,0,1.1887,3.6046q1.1889,1.0937,4.0582,1.0936h5.7388v7.6952H259.828q-13.0354,0-13.0353-12.3934V26.3428l9.428-3.9142V33.5259h10.9857Z" fill-rule="evenodd">
      </path>
      <path d="M210.5225,33.5259v7.0472q4.509-7.7763,14.429-7.7762a16.94,16.94,0,0,1,12.5843,5.0221q4.96,5.0223,4.96,14.0135V78.1583h-9.2642V53.21q0-5.9941-3.0334-9.1938a10.8646,10.8646,0,0,0-8.28-3.2,11,11,0,0,0-8.3213,3.2q-3.0744,3.2-3.0743,9.1938V78.1583h-9.3461V33.5259Z" fill-rule="evenodd">
      </path>
      <path d="M196.2381,54.5866q0-9.72-6.1487-15.755t-16.0277-6.0347q-9.879,0-16.11,6.2776t-6.2307,16.7271q0,10.4493,6.1486,16.7675t15.9868,6.3182A22.1374,22.1374,0,0,0,187.22,74.9587a20.04,20.04,0,0,0,7.46-10.0848H184.5965q-3.1153,6.2373-10.74,6.2372a12.2394,12.2394,0,0,1-8.7313-3.2806,12.681,12.681,0,0,1-3.8122-8.87H195.91A27.3931,27.3931,0,0,0,196.2381,54.5866Zm-34.8427-1.9441a13.2,13.2,0,0,1,3.9762-8.7888,12.1314,12.1314,0,0,1,8.6491-3.2806,12.57,12.57,0,0,1,8.7722,3.2806,11.5464,11.5464,0,0,1,3.6892,8.7888Z" fill-rule="evenodd">
      </path>
      <path d="M127.2711,28.8277a10.5342,10.5342,0,0,0-6.8046,2.1061,7.3809,7.3809,0,0,0-2.6234,6.1157,6.9233,6.9233,0,0,0,3.1154,6.1157,21.611,21.611,0,0,0,7.5423,3.0781q4.4273.972,8.8542,2.2276a15.9335,15.9335,0,0,1,7.5425,4.6576q3.1152,3.4021,3.1153,9.6393t-5.3289,11.1784q-5.3289,4.9411-14.2651,4.9411t-14.5109-4.1311a13.4246,13.4246,0,0,1-5.5749-11.4213h10.0019a8.5805,8.5805,0,0,0,2.7875,5.9131q2.46,2.1872,7.2145,2.1871a10.92,10.92,0,0,0,7.5014-2.43A7.9826,7.9826,0,0,0,136.9042,58.07a10.298,10.298,0,0,0-4.3452-2.7946,54.559,54.559,0,0,0-5.8618-1.6606q-3.1974-.729-6.4357-1.701a27.6413,27.6413,0,0,1-5.9027-2.5111,11.7513,11.7513,0,0,1-4.3451-4.4956,14.4709,14.4709,0,0,1-1.6807-7.25,14.7141,14.7141,0,0,1,5.37-11.8669q5.37-4.4957,13.9371-4.4956t13.6912,3.8881q5.1238,3.8881,5.6979,11.2594h-10.33a8.1263,8.1263,0,0,0-2.7874-5.4272A9.63,9.63,0,0,0,127.2711,28.8277Z" fill-rule="evenodd">
      </path>
     </g>
     <g>
      <path d="M543.9992,72.5036a18.7066,18.7066,0,0,1-11.3,3.3324,19.3729,19.3729,0,0,1-8.7206-1.9673,15.5944,15.5944,0,0,1-6.4687-6.1028,20.0222,20.0222,0,0,1-2.5792-10.2382H553.17a23.8086,23.8086,0,0,0,.4094-4.2558,19.06,19.06,0,0,0-2.4156-9.3549,18.2453,18.2453,0,0,0-7.1237-7.0663,22.16,22.16,0,0,0-11.1771-2.69,22.7394,22.7394,0,0,0-11.1769,2.69A19.2233,19.2233,0,0,0,514.03,44.6a24.2685,24.2685,0,0,0-2.784,11.8842,24.443,24.443,0,0,0,2.784,11.9646,19.2233,19.2233,0,0,0,7.656,7.7489,22.7393,22.7393,0,0,0,11.1769,2.69q8.4342,0,13.8792-4.2558A17.65,17.65,0,0,0,553.4156,63.39h-3.8484A13.65,13.65,0,0,1,543.9992,72.5036ZM517.51,45.242a15.87,15.87,0,0,1,6.51-6.1028,20.3061,20.3061,0,0,1,17.5228-.04,14.79,14.79,0,0,1,6.3869,6.1028,18.0755,18.0755,0,0,1,2.047,10.1578H514.9308A19.6344,19.6344,0,0,1,517.51,45.242Z" fill-rule="evenodd">
      </path>
      <path d="M487.1533,33.6725q7.8606,0,12.7736,4.8179t4.913,14.213V78.1583h-3.6847V52.864q0-7.8693-4.0123-12.0047t-10.9722-4.1354a15.2284,15.2284,0,0,0-11.5865,4.6172q-4.3806,4.6171-4.3807,13.6107V78.1583h-3.6847V34.5558h3.6847V46.0386a15.5336,15.5336,0,0,1,6.264-9.2344A18.6072,18.6072,0,0,1,487.1533,33.6725Z" fill-rule="evenodd">
      </path>
      <path d="M455.8957,35.0439a25.6334,25.6334,0,0,0-9.9077-10.2382,29.7667,29.7667,0,0,0-28.5771,0,25.9112,25.9112,0,0,0-9.9488,10.2382A30.6,30.6,0,0,0,403.8592,49.98a30.6,30.6,0,0,0,3.6029,14.9356,26.1923,26.1923,0,0,0,9.9488,10.2784,29.4835,29.4835,0,0,0,28.5771,0,25.91,25.91,0,0,0,9.9077-10.2784A30.8848,30.8848,0,0,0,459.4576,49.98,30.8849,30.8849,0,0,0,455.8957,35.0439ZM452.5385,63.47A22.3219,22.3219,0,0,1,443.9,72.3831a25.4109,25.4109,0,0,1-24.4419,0A22.4067,22.4067,0,0,1,410.86,63.47a27.746,27.746,0,0,1-3.1524-13.49,27.7455,27.7455,0,0,1,3.1524-13.49,22.4057,22.4057,0,0,1,8.5978-8.9133,25.4116,25.4116,0,0,1,24.4419,0,22.3209,22.3209,0,0,1,8.6387,8.9133,27.7444,27.7444,0,0,1,3.1525,13.49A27.745,27.745,0,0,1,452.5385,63.47Z" fill-rule="evenodd">
      </path>
     </g>
     <g>
      <path d="M563.4716,39.5525l-1.0147-1.5145h-.8179v1.5145h-1.04V34.8212h2.163c1.1152,0,1.7845.5879,1.7845,1.561v.0133a1.4706,1.4706,0,0,1-1.0139,1.4673l1.1559,1.69Zm.02-3.1163c0-.4459-.31-.6759-.8179-.6759H561.639v1.3585h1.0546c.5073,0,.7979-.27.7979-.6693Z">
      </path>
      <path d="M562.4,42.1636a4.8454,4.8454,0,1,1,4.8451-4.8455A4.8513,4.8513,0,0,1,562.4,42.1636Zm0-8.6361a3.7908,3.7908,0,1,0,3.7906,3.7906A3.7952,3.7952,0,0,0,562.4,33.5275Z">
      </path>
     </g>
    </g>
   </g>
  </g>
 </g>
</svg>