<svg version="1.1" id="Layer_1" xmlns="http://www.w3.org/2000/svg" xmlns:xlink="http://www.w3.org/1999/xlink" x="0px" y="0px" viewBox="0 0 290.4 55.1" style="enable-background:new 0 0 290.4 55.1;" xml:space="preserve">
 <style type="text/css">
  .st0{fill:#0000EB;}
 </style>
 <g>
  <path class="st0" d="M277.9,4.2c4.7,6.9,7.2,15,7.2,23.4c0,8.4-2.5,16.5-7.2,23.4c-0.8,1.2-0.5,2.9,0.7,3.7
		c1.2,0.8,2.9,0.5,3.7-0.7c5.3-7.8,8.2-17,8.2-26.4c0-9.5-2.8-18.6-8.2-26.4c-0.8-1.2-2.5-1.5-3.7-0.7C277.4,1.3,277.1,3,277.9,4.2">
  </path>
  <path class="st0" d="M269.5,47.4c1.2,0.9,2.8,0.6,3.7-0.5c4.2-5.5,6.4-12.3,6.4-19.2c0-7.1-2.3-13.7-6.5-19.3
		c-0.9-1.2-2.6-1.4-3.7-0.5c-1.2,0.9-1.4,2.6-0.5,3.7c3.5,4.6,5.5,10.3,5.4,16.2c0,5.8-1.8,11.4-5.4,16
		C268.1,44.8,268.3,46.4,269.5,47.4C269.5,47.3,269.5,47.3,269.5,47.4">
  </path>
  <path class="st0" d="M260.1,40.9c1.1,0.9,2.8,0.7,3.7-0.4c3-3.7,4.6-8.3,4.6-13c0-4.7-1.5-9.1-4.4-12.8c-0.9-1.2-2.6-1.4-3.7-0.5
		c0,0,0,0,0,0c-1.2,0.9-1.4,2.6-0.5,3.7c2.1,2.7,3.3,6.1,3.3,9.5c0,3.5-1.2,6.9-3.4,9.7C258.8,38.3,258.9,39.9,260.1,40.9
		C260.1,40.8,260.1,40.9,260.1,40.9 M12.5,50.9c-4.7-6.9-7.3-15-7.2-23.4c0-8.4,2.5-16.5,7.2-23.4C13.3,3,13,1.3,11.8,0.5
		C10.6-0.4,9-0.1,8.2,1.1c0,0,0,0,0,0C2.8,8.9,0,18.1,0,27.5C0,37,2.8,46.2,8.2,53.9c0.8,1.2,2.5,1.5,3.7,0.7
		C13.1,53.8,13.4,52.1,12.5,50.9C12.5,50.9,13.4,52.1,12.5,50.9C12.5,50.9,13.4,52.1,12.5,50.9L12.5,50.9z">
  </path>
  <path class="st0" d="M21.5,11.5c0.9-1.2,0.7-2.8-0.5-3.7c-1.2-0.9-2.8-0.7-3.7,0.5c-4.3,5.6-6.5,12.3-6.5,19.3
		c0,6.9,2.2,13.7,6.4,19.2c0.9,1.2,2.5,1.4,3.7,0.5c1.2-0.9,1.4-2.5,0.5-3.7c0,0,0,0,0,0c-3.5-4.6-5.4-10.2-5.4-16
		C16.1,21.7,18,16.1,21.5,11.5L21.5,11.5z">
  </path>
  <path class="st0" d="M22,27.4c0,4.7,1.6,9.3,4.6,13c0.9,1.1,2.6,1.3,3.7,0.4c1.1-0.9,1.3-2.6,0.4-3.7c-2.2-2.7-3.4-6.2-3.4-9.7
		c0-3.5,1.1-6.8,3.3-9.5c0.9-1.2,0.7-2.8-0.5-3.7c-1.2-0.9-2.8-0.7-3.7,0.5C23.6,18.3,22,22.8,22,27.4C22,27.4,22,22.8,22,27.4
		C22,27.4,22,22.8,22,27.4z">
  </path>
  <path d="M47.6,33.3c0,1.2,0.5,2.2,1.3,2.8c0.8,0.6,1.8,0.9,3,0.9c1.9,0,3.8-0.6,3.8-2.7c0-4.9-18.8-1-18.8-12.9
		c0-7.8,8.1-10.1,14.5-10.1c6.7,0,14.5,1.5,15.2,9.7h-11c-0.1-0.9-0.5-1.7-1.2-2.2C53.9,18.2,53,18,52,18c-2.1,0-3.5,0.6-3.5,2.2
		c0,4.3,19.3,1.4,19.3,12.9c0,6.4-5.3,10.7-16.5,10.7c-7,0-14.7-2.2-15.4-10.4L47.6,33.3C47.6,33.4,47.6,33.3,47.6,33.3z M70,11.4
		h9.9v4.7H70V11.4z M70,43V18.1h9.9V43H70z M82.5,18.2h9v5h0.1c1.4-3.9,3.8-5.7,7.6-5.7c0.4,0,0.8,0.1,1.3,0.2v9.9
		c-0.7-0.1-1.4-0.3-2-0.3c-4,0-6.1,1.9-6.1,7.3v8.6h-9.9V18.2z M102.6,11.4h9.9v4.7h-9.9V11.4z M102.6,43V18.1h9.9V43H102.6z
		 M141.9,43h-9.2v-3.7c-2.5,3.4-4.9,4.4-9,4.4c-5.4,0-8.9-3.3-8.9-10.4V18.1h9.9v13.4c0,3.4,1.2,4.5,3.5,4.5c2.9,0,3.8-2.1,3.8-6
		v-12h9.9L141.9,43L141.9,43z M152.4,35.3c0,1,0.4,1.7,1.1,2.3c0.6,0.5,1.5,0.8,2.4,0.8c1.5,0,3.1-0.5,3.1-2.2
		c0-4-15.2-0.8-15.2-10.4c0-6.4,6.6-8.2,11.8-8.2c5.4,0,11.8,1.2,12.4,7.8h-9c-0.1-0.8-0.4-1.4-1-1.8c-0.5-0.4-1.2-0.6-2-0.6
		c-1.7,0-2.8,0.5-2.8,1.7c0,3.5,15.7,1.1,15.7,10.4c0,5.2-4.3,8.7-13.4,8.7c-5.7,0-12-1.7-12.5-8.5L152.4,35.3L152.4,35.3
		L152.4,35.3z">
  </path>
  <path d="M178.5,26.8l-10.1-14.6h13.5l3.9,7.7l4.1-7.7h13.3l-10.5,14.6l10.6,16.1h-13.6l-4.3-8.8l-4.5,8.8h-13.4L178.5,26.8z
		 M204.1,12.2h11.2v4.6c1.5-2.3,4.3-5.4,8.7-5.4c5.1,0,8.2,2.3,9.6,5.6c2.6-3.7,4.9-5.6,9.4-5.6c7.7,0,11.5,5,11.5,13.4v18.1h-12.2
		V27.3c0-4.5-0.3-6.3-3.5-6.3c-3.4,0-3.4,3.1-3.4,6.8v15.2h-12.2V27.3c0-4.5-0.3-6.2-3.5-6.3c-3.3-0.1-3.4,3.1-3.4,6.8v15.2h-12.2
		L204.1,12.2L204.1,12.2z M254,6.7c-1.8,0-3.3,1.5-3.3,3.3v0c0,1.8,1.5,3.2,3.2,3.2c1.8,0,3.3-1.5,3.3-3.2v0
		C257.2,8.2,255.7,6.7,254,6.7L254,6.7z M253.9,12.8c-1.5,0-2.8-1.2-2.8-2.8c0,0,0,0,0-0.1v0c0-1.6,1.2-2.8,2.8-2.8
		c1.5,0,2.8,1.2,2.8,2.8c0,0,0,0,0,0.1v0C256.7,11.6,255.5,12.8,253.9,12.8L253.9,12.8z">
  </path>
  <path d="M255.4,9.3c0-0.3-0.1-0.5-0.3-0.7c-0.2-0.2-0.6-0.4-1-0.4h-1.5v3.4h0.6v-1.2h0.7l0.8,1.2h0.8l-0.9-1.3
		C255.1,10.2,255.4,9.9,255.4,9.3z M254.1,9.9h-0.8V8.8h0.8c0.4,0,0.7,0.2,0.7,0.5v0C254.8,9.7,254.5,9.9,254.1,9.9z">
  </path>
 </g>
</svg>