<svg version="1.1" id="Layer_1" xmlns:x="ns_extend;" xmlns:i="ns_ai;" xmlns:graph="ns_graphs;" xmlns="http://www.w3.org/2000/svg" xmlns:xlink="http://www.w3.org/1999/xlink" x="0px" y="0px" viewBox="0 0 287.4 151" style="enable-background:new 0 0 287.4 151;" xml:space="preserve">
 <style type="text/css">
  .st0{fill:#52247F;}
	.st1{fill:#63666A;}
 </style>
 <metadata>
  <sfw xmlns="ns_sfw;">
   <slices>
   </slices>
   <sliceSourceBounds bottomLeftOrigin="true" height="151" width="287.4" x="-11.1" y="-240">
   </sliceSourceBounds>
  </sfw>
 </metadata>
 <g>
  <polygon class="st0" points="142.5,0 98.6,72.8 186.3,72.8 	">
  </polygon>
  <polygon class="st0" points="60.1,136.9 51.5,151 233.4,151 224.9,136.9 	">
  </polygon>
  <g>
   <path class="st1" d="M50.9,83.5c-3.7,0-7.7,12-13.4,24.7c-3.8,8.4-6.9,16.4-8.1,18.8c-1.4-0.1-2.9-0.3-4.4-0.3
			c-1.7,0-3.5,0.1-5.3,0.3c-1.1-3-4.3-11.9-7.9-20.9C7.4,95.4,3.6,83.7,0,83.5v-0.6c3.6,0.1,7.2,0.3,10.8,0.3c2.6,0,5.1-0.1,7.6-0.3
			v0.6c-0.9,0.3-1.9,0.4-1.9,2.6c0,5.7,10.9,30.5,12.1,33.9c1.6-3.9,10.6-24.4,10.6-33.2c0-2.4-1-3-2.5-3.3v-0.6
			c2.4,0.1,4.9,0.3,7.4,0.3c2.2,0,4.5-0.1,6.7-0.3V83.5z">
   </path>
  </g>
  <g>
   <path class="st1" d="M91.4,116.2c-1.7,3.9-3,6.9-3.7,11.5c-0.6-0.5-2.9-0.7-5.4-0.8c-2.6-0.1-5.5-0.1-7.9-0.1H66
			c-5.7,0-10.3,0.2-11,0.3v-0.6c3.5,0,3.5-6.1,3.5-21.4c0-16.5-0.1-21.1-3.5-21.4v-0.6c1.5,0,3.3,0.1,5.4,0.1
			c2.2,0.1,4.8,0.1,7.9,0.1h6.1c6.7,0,11.7-0.2,14.7-0.9c-0.5,2-1.2,4.9-1.2,9.7v1.4h-1.5c0-6.6-5.4-7.6-12.8-7.6
			c-1.5,0-2.9,0.1-4,0.4C69,90.8,69,100.3,69,102.1c0.9,0.1,2,0.2,4.1,0.2c7.8,0,8.7-1.7,9-5.2h1.5c-0.3,2.7-0.5,5.4-0.5,8.2
			c0,4.7,0,1.8,0.1,5.5h-1.6c0-3.8-1.5-5.9-8.5-5.9c-1.7,0-3.1,0-4.1,0.1c0,2.3,0,13.6,0.2,18.3c1.6,0.1,3.1,0.3,4.8,0.3
			c11.4,0,13.7-3.6,16.1-8L91.4,116.2z">
   </path>
   <path class="st1" d="M97.5,126.4c3.5-0.1,3.5-6.3,3.5-21.4c0-15.1,0-21.3-3.5-21.4v-0.6c1.4,0.1,2.9,0.1,4.4,0.2
			c1.5,0,3,0.1,4.1,0.1c2.1,0,4.6-0.2,7.5-0.5c2.8-0.2,5.9-0.4,9.1-0.4c2,0,13.6,0,13.6,10.6c0,8.4-8.5,11.3-12.5,12
			c1.5,1.7,5.7,8.1,10.4,14c4.1,5.1,5.9,7.4,7.9,7.6v0.6c-0.7-0.1-1.6-0.1-2.5-0.2c-0.9-0.1-1.9-0.1-2.8-0.1c-2.9,0-6,0.1-8.9,0.6
			c-0.9-1.4-3.6-5.9-6.9-10.9c-3.1-4.6-5.5-9.1-8.3-9.1c-1,0-0.4,0-1.2,0.1c0,11.9,0,18.9,3.6,18.9v0.6c-2.9-0.2-6.1-0.3-8.9-0.3
			c-3,0-6.1,0.1-8.9,0.3V126.4z M113.6,104.8c6.4,0,11.3-1.5,11.3-9.3c0-6.5-3.9-10.1-8.4-10.1c-1.6,0-3.1,0.3-4.6,0.6
			c-0.3,5.1-0.3,16.5-0.3,18.7C112.1,104.8,112.5,104.8,113.6,104.8">
   </path>
   <path class="st1" d="M181.2,92.8c0-5-2.9-6.4-10.6-6.4c-0.7,0-1.4,0.1-2.1,0.1c-0.4,1.8-0.4,9-0.4,18.4c0,15.2,0,21.4,3.7,21.4
			v0.6c-2.8-0.2-5.9-0.3-8.9-0.3c-3,0-6.1,0.1-8.9,0.3v-0.6c3.7-0.1,3.7-6.3,3.7-21.4c0-9.4,0-16.6-0.4-18.4
			c-0.7-0.1-1.4-0.1-2.1-0.1c-8.4,0-11.1,3.8-12.2,8.5l-1.8-0.4c0.9-3.1,1.8-7.6,1.8-12.3c0.4,0.3,2.8,0.4,5.9,0.5
			c3.1,0.1,6.9,0.1,10,0.1h7.8c8.6,0,14.5-0.1,17.5-0.6c-0.4,2.1-1.1,5.1-1.1,11.1v1.4h-1.9V92.8z">
   </path>
   <path class="st1" d="M225.8,116.2c-1.7,3.9-3,6.9-3.7,11.5c-0.6-0.5-2.9-0.7-5.4-0.8c-2.6-0.1-5.5-0.1-7.9-0.1h-8.4
			c-5.7,0-10.3,0.2-11,0.3v-0.6c3.5,0,3.5-6.1,3.5-21.4c0-16.5-0.1-21.1-3.5-21.4v-0.6c1.5,0,3.3,0.1,5.4,0.1
			c2.2,0.1,4.8,0.1,7.9,0.1h6.1c6.7,0,11.7-0.2,14.7-0.9c-0.5,2-1.2,4.9-1.2,9.7v1.4h-1.5c0-6.6-5.4-7.6-12.8-7.6
			c-1.5,0-2.9,0.1-4,0.4c-0.6,4.6-0.6,14.1-0.6,15.9c0.9,0.1,2,0.2,4.1,0.2c7.8,0,8.7-1.7,9-5.2h1.5c-0.3,2.7-0.5,5.4-0.5,8.2
			c0,4.7,0,1.8,0.1,5.5H216c0-3.8-1.5-5.9-8.5-5.9c-1.7,0-3.1,0-4.1,0.1c0,2.3,0,13.6,0.2,18.3c1.6,0.1,3.1,0.3,4.8,0.3
			c11.4,0,13.7-3.6,16.1-8L225.8,116.2z">
   </path>
   <path class="st1" d="M228.3,126.4c1.4,0,1.9-0.6,3.1-1.6c2.3-2.1,17.2-18,17.5-18.3c-1.4-1.6-6.9-8.9-13.7-17.6
			c-3.9-5-4.2-4.9-6.1-5.4v-0.6c3.6,0.1,7.3,0.3,10.9,0.3c3.1,0,6.4-0.1,9.4-0.3v0.6c-0.9,0.1-1.9,0.4-1.9,1.4
			c0,3,7.8,12.5,9.3,14.6c2.1-2.4,8.8-11.7,8.8-13.9c0-1.9-1.3-1.9-2.4-2.1v-0.6c2.6,0.1,5.1,0.3,7.8,0.3c2.4,0,4.9-0.1,7.1-0.3v0.6
			c-0.7,0.1-1.6,0.4-2.6,0.8c-1.7,0.7-11.1,11.9-16.9,17.4c1.4,1.7,8.6,10.8,16,19.6c3.9,4.6,4.3,4.9,6.1,5.1v0.6
			c-3.9-0.3-7.8-0.3-11.6-0.3c-2.9,0-5.9,0.1-8.9,0.3v-0.6c1,0,1.9-0.1,1.9-1.4c0-2.3-9.7-13.6-11.4-16.3c-1.9,2.3-9.6,12.2-9.6,16
			c0,1.6,1.4,1.6,2.4,1.6v0.6c-2.4-0.1-4.8-0.3-7.2-0.3c-2.6,0-5.3,0.1-7.9,0.3V126.4z">
   </path>
   <path class="st1" d="M284.7,87.6c-1.6,0-2.7-1.2-2.7-2.7c0-1.6,1.2-2.7,2.7-2.7c1.4,0,2.7,1.1,2.7,2.7S286.1,87.6,284.7,87.6
			 M284.7,82.6c-1.2,0-2.1,0.9-2.1,2.3c0,1.2,0.8,2.3,2.1,2.3c1.2,0,2.1-0.9,2.1-2.3C286.8,83.5,285.8,82.6,284.7,82.6 M284.1,86.4
			h-0.5v-3h1.2c0.7,0,1.1,0.3,1.1,0.9c0,0.6-0.3,0.8-0.8,0.8l0.8,1.3h-0.6l-0.8-1.3h-0.5V86.4z M284.7,84.7c0.4,0,0.7,0,0.7-0.5
			c0-0.4-0.4-0.4-0.7-0.4h-0.6v0.9H284.7z">
   </path>
  </g>
 </g>
</svg>